<?xml version="1.0" encoding="utf-8" standalone="no"?>
<!DOCTYPE svg PUBLIC "-//W3C//DTD SVG 1.1//EN"
  "http://www.w3.org/Graphics/SVG/1.1/DTD/svg11.dtd">
<svg xmlns:xlink="http://www.w3.org/1999/xlink" width="576pt" height="360pt" viewBox="0 0 576 360" xmlns="http://www.w3.org/2000/svg" version="1.1">
 <metadata>
  <rdf:RDF xmlns:dc="http://purl.org/dc/elements/1.1/" xmlns:cc="http://creativecommons.org/ns#" xmlns:rdf="http://www.w3.org/1999/02/22-rdf-syntax-ns#">
   <cc:Work>
    <dc:type rdf:resource="http://purl.org/dc/dcmitype/StillImage"/>
    <dc:date>2026-03-20T03:42:04.600377</dc:date>
    <dc:format>image/svg+xml</dc:format>
    <dc:creator>
     <cc:Agent>
      <dc:title>Matplotlib v3.10.8, https://matplotlib.org/</dc:title>
     </cc:Agent>
    </dc:creator>
   </cc:Work>
  </rdf:RDF>
 </metadata>
 <defs>
  <style type="text/css">*{stroke-linejoin: round; stroke-linecap: butt}</style>
 </defs>
 <g id="figure_1">
  <g id="patch_1">
   <path d="M 0 360 
L 576 360 
L 576 0 
L 0 0 
z
" style="fill: #ffffff"/>
  </g>
  <g id="axes_1">
   <g id="patch_2">
    <path d="M 58.7 309.04 
L 561.96 309.04 
L 561.96 48.264 
L 58.7 48.264 
z
" style="fill: #ffffff"/>
   </g>
   <g id="matplotlib.axis_1">
    <g id="xtick_1">
     <g id="line2d_1">
      <path d="M 81.575455 309.04 
L 81.575455 48.264 
" clip-path="url(#p2f0bfe6150)" style="fill: none; stroke: #b0b0b0; stroke-opacity: 0.4; stroke-width: 0.8; stroke-linecap: square"/>
     </g>
     <g id="line2d_2">
      <defs>
       <path id="me672dbad8e" d="M 0 0 
L 0 3.5 
" style="stroke: #000000; stroke-width: 0.8"/>
      </defs>
      <g>
       <use xlink:href="#me672dbad8e" x="81.575455" y="309.04" style="stroke: #000000; stroke-width: 0.8"/>
      </g>
     </g>
     <g id="text_1">
      <!-- −20 -->
      <g transform="translate(67.857408 325.917969) scale(0.13 -0.13)">
       <defs>
        <path id="DejaVuSans-2212" d="M 678 2272 
L 4684 2272 
L 4684 1741 
L 678 1741 
L 678 2272 
z
" transform="scale(0.015625)"/>
        <path id="DejaVuSans-32" d="M 1228 531 
L 3431 531 
L 3431 0 
L 469 0 
L 469 531 
Q 828 903 1448 1529 
Q 2069 2156 2228 2338 
Q 2531 2678 2651 2914 
Q 2772 3150 2772 3378 
Q 2772 3750 2511 3984 
Q 2250 4219 1831 4219 
Q 1534 4219 1204 4116 
Q 875 4013 500 3803 
L 500 4441 
Q 881 4594 1212 4672 
Q 1544 4750 1819 4750 
Q 2544 4750 2975 4387 
Q 3406 4025 3406 3419 
Q 3406 3131 3298 2873 
Q 3191 2616 2906 2266 
Q 2828 2175 2409 1742 
Q 1991 1309 1228 531 
z
" transform="scale(0.015625)"/>
        <path id="DejaVuSans-30" d="M 2034 4250 
Q 1547 4250 1301 3770 
Q 1056 3291 1056 2328 
Q 1056 1369 1301 889 
Q 1547 409 2034 409 
Q 2525 409 2770 889 
Q 3016 1369 3016 2328 
Q 3016 3291 2770 3770 
Q 2525 4250 2034 4250 
z
M 2034 4750 
Q 2819 4750 3233 4129 
Q 3647 3509 3647 2328 
Q 3647 1150 3233 529 
Q 2819 -91 2034 -91 
Q 1250 -91 836 529 
Q 422 1150 422 2328 
Q 422 3509 836 4129 
Q 1250 4750 2034 4750 
z
" transform="scale(0.015625)"/>
       </defs>
       <use xlink:href="#DejaVuSans-2212"/>
       <use xlink:href="#DejaVuSans-32" transform="translate(83.789062 0)"/>
       <use xlink:href="#DejaVuSans-30" transform="translate(147.412109 0)"/>
      </g>
     </g>
    </g>
    <g id="xtick_2">
     <g id="line2d_3">
      <path d="M 173.077273 309.04 
L 173.077273 48.264 
" clip-path="url(#p2f0bfe6150)" style="fill: none; stroke: #b0b0b0; stroke-opacity: 0.4; stroke-width: 0.8; stroke-linecap: square"/>
     </g>
     <g id="line2d_4">
      <g>
       <use xlink:href="#me672dbad8e" x="173.077273" y="309.04" style="stroke: #000000; stroke-width: 0.8"/>
      </g>
     </g>
     <g id="text_2">
      <!-- −15 -->
      <g transform="translate(159.359226 325.917969) scale(0.13 -0.13)">
       <defs>
        <path id="DejaVuSans-31" d="M 794 531 
L 1825 531 
L 1825 4091 
L 703 3866 
L 703 4441 
L 1819 4666 
L 2450 4666 
L 2450 531 
L 3481 531 
L 3481 0 
L 794 0 
L 794 531 
z
" transform="scale(0.015625)"/>
        <path id="DejaVuSans-35" d="M 691 4666 
L 3169 4666 
L 3169 4134 
L 1269 4134 
L 1269 2991 
Q 1406 3038 1543 3061 
Q 1681 3084 1819 3084 
Q 2600 3084 3056 2656 
Q 3513 2228 3513 1497 
Q 3513 744 3044 326 
Q 2575 -91 1722 -91 
Q 1428 -91 1123 -41 
Q 819 9 494 109 
L 494 744 
Q 775 591 1075 516 
Q 1375 441 1709 441 
Q 2250 441 2565 725 
Q 2881 1009 2881 1497 
Q 2881 1984 2565 2268 
Q 2250 2553 1709 2553 
Q 1456 2553 1204 2497 
Q 953 2441 691 2322 
L 691 4666 
z
" transform="scale(0.015625)"/>
       </defs>
       <use xlink:href="#DejaVuSans-2212"/>
       <use xlink:href="#DejaVuSans-31" transform="translate(83.789062 0)"/>
       <use xlink:href="#DejaVuSans-35" transform="translate(147.412109 0)"/>
      </g>
     </g>
    </g>
    <g id="xtick_3">
     <g id="line2d_5">
      <path d="M 264.579091 309.04 
L 264.579091 48.264 
" clip-path="url(#p2f0bfe6150)" style="fill: none; stroke: #b0b0b0; stroke-opacity: 0.4; stroke-width: 0.8; stroke-linecap: square"/>
     </g>
     <g id="line2d_6">
      <g>
       <use xlink:href="#me672dbad8e" x="264.579091" y="309.04" style="stroke: #000000; stroke-width: 0.8"/>
      </g>
     </g>
     <g id="text_3">
      <!-- −10 -->
      <g transform="translate(250.861044 325.917969) scale(0.13 -0.13)">
       <use xlink:href="#DejaVuSans-2212"/>
       <use xlink:href="#DejaVuSans-31" transform="translate(83.789062 0)"/>
       <use xlink:href="#DejaVuSans-30" transform="translate(147.412109 0)"/>
      </g>
     </g>
    </g>
    <g id="xtick_4">
     <g id="line2d_7">
      <path d="M 356.080909 309.04 
L 356.080909 48.264 
" clip-path="url(#p2f0bfe6150)" style="fill: none; stroke: #b0b0b0; stroke-opacity: 0.4; stroke-width: 0.8; stroke-linecap: square"/>
     </g>
     <g id="line2d_8">
      <g>
       <use xlink:href="#me672dbad8e" x="356.080909" y="309.04" style="stroke: #000000; stroke-width: 0.8"/>
      </g>
     </g>
     <g id="text_4">
      <!-- −5 -->
      <g transform="translate(346.498487 325.917969) scale(0.13 -0.13)">
       <use xlink:href="#DejaVuSans-2212"/>
       <use xlink:href="#DejaVuSans-35" transform="translate(83.789062 0)"/>
      </g>
     </g>
    </g>
    <g id="xtick_5">
     <g id="line2d_9">
      <path d="M 447.582727 309.04 
L 447.582727 48.264 
" clip-path="url(#p2f0bfe6150)" style="fill: none; stroke: #b0b0b0; stroke-opacity: 0.4; stroke-width: 0.8; stroke-linecap: square"/>
     </g>
     <g id="line2d_10">
      <g>
       <use xlink:href="#me672dbad8e" x="447.582727" y="309.04" style="stroke: #000000; stroke-width: 0.8"/>
      </g>
     </g>
     <g id="text_5">
      <!-- 0 -->
      <g transform="translate(443.447102 325.917969) scale(0.13 -0.13)">
       <use xlink:href="#DejaVuSans-30"/>
      </g>
     </g>
    </g>
    <g id="xtick_6">
     <g id="line2d_11">
      <path d="M 539.084545 309.04 
L 539.084545 48.264 
" clip-path="url(#p2f0bfe6150)" style="fill: none; stroke: #b0b0b0; stroke-opacity: 0.4; stroke-width: 0.8; stroke-linecap: square"/>
     </g>
     <g id="line2d_12">
      <g>
       <use xlink:href="#me672dbad8e" x="539.084545" y="309.04" style="stroke: #000000; stroke-width: 0.8"/>
      </g>
     </g>
     <g id="text_6">
      <!-- 5 -->
      <g transform="translate(534.94892 325.917969) scale(0.13 -0.13)">
       <use xlink:href="#DejaVuSans-35"/>
      </g>
     </g>
    </g>
    <g id="text_7">
     <!-- Evaporation temperature (°C) -->
     <g transform="translate(213.336797 342.499531) scale(0.13 -0.13)">
      <defs>
       <path id="DejaVuSans-45" d="M 628 4666 
L 3578 4666 
L 3578 4134 
L 1259 4134 
L 1259 2753 
L 3481 2753 
L 3481 2222 
L 1259 2222 
L 1259 531 
L 3634 531 
L 3634 0 
L 628 0 
L 628 4666 
z
" transform="scale(0.015625)"/>
       <path id="DejaVuSans-76" d="M 191 3500 
L 800 3500 
L 1894 563 
L 2988 3500 
L 3597 3500 
L 2284 0 
L 1503 0 
L 191 3500 
z
" transform="scale(0.015625)"/>
       <path id="DejaVuSans-61" d="M 2194 1759 
Q 1497 1759 1228 1600 
Q 959 1441 959 1056 
Q 959 750 1161 570 
Q 1363 391 1709 391 
Q 2188 391 2477 730 
Q 2766 1069 2766 1631 
L 2766 1759 
L 2194 1759 
z
M 3341 1997 
L 3341 0 
L 2766 0 
L 2766 531 
Q 2569 213 2275 61 
Q 1981 -91 1556 -91 
Q 1019 -91 701 211 
Q 384 513 384 1019 
Q 384 1609 779 1909 
Q 1175 2209 1959 2209 
L 2766 2209 
L 2766 2266 
Q 2766 2663 2505 2880 
Q 2244 3097 1772 3097 
Q 1472 3097 1187 3025 
Q 903 2953 641 2809 
L 641 3341 
Q 956 3463 1253 3523 
Q 1550 3584 1831 3584 
Q 2591 3584 2966 3190 
Q 3341 2797 3341 1997 
z
" transform="scale(0.015625)"/>
       <path id="DejaVuSans-70" d="M 1159 525 
L 1159 -1331 
L 581 -1331 
L 581 3500 
L 1159 3500 
L 1159 2969 
Q 1341 3281 1617 3432 
Q 1894 3584 2278 3584 
Q 2916 3584 3314 3078 
Q 3713 2572 3713 1747 
Q 3713 922 3314 415 
Q 2916 -91 2278 -91 
Q 1894 -91 1617 61 
Q 1341 213 1159 525 
z
M 3116 1747 
Q 3116 2381 2855 2742 
Q 2594 3103 2138 3103 
Q 1681 3103 1420 2742 
Q 1159 2381 1159 1747 
Q 1159 1113 1420 752 
Q 1681 391 2138 391 
Q 2594 391 2855 752 
Q 3116 1113 3116 1747 
z
" transform="scale(0.015625)"/>
       <path id="DejaVuSans-6f" d="M 1959 3097 
Q 1497 3097 1228 2736 
Q 959 2375 959 1747 
Q 959 1119 1226 758 
Q 1494 397 1959 397 
Q 2419 397 2687 759 
Q 2956 1122 2956 1747 
Q 2956 2369 2687 2733 
Q 2419 3097 1959 3097 
z
M 1959 3584 
Q 2709 3584 3137 3096 
Q 3566 2609 3566 1747 
Q 3566 888 3137 398 
Q 2709 -91 1959 -91 
Q 1206 -91 779 398 
Q 353 888 353 1747 
Q 353 2609 779 3096 
Q 1206 3584 1959 3584 
z
" transform="scale(0.015625)"/>
       <path id="DejaVuSans-72" d="M 2631 2963 
Q 2534 3019 2420 3045 
Q 2306 3072 2169 3072 
Q 1681 3072 1420 2755 
Q 1159 2438 1159 1844 
L 1159 0 
L 581 0 
L 581 3500 
L 1159 3500 
L 1159 2956 
Q 1341 3275 1631 3429 
Q 1922 3584 2338 3584 
Q 2397 3584 2469 3576 
Q 2541 3569 2628 3553 
L 2631 2963 
z
" transform="scale(0.015625)"/>
       <path id="DejaVuSans-74" d="M 1172 4494 
L 1172 3500 
L 2356 3500 
L 2356 3053 
L 1172 3053 
L 1172 1153 
Q 1172 725 1289 603 
Q 1406 481 1766 481 
L 2356 481 
L 2356 0 
L 1766 0 
Q 1100 0 847 248 
Q 594 497 594 1153 
L 594 3053 
L 172 3053 
L 172 3500 
L 594 3500 
L 594 4494 
L 1172 4494 
z
" transform="scale(0.015625)"/>
       <path id="DejaVuSans-69" d="M 603 3500 
L 1178 3500 
L 1178 0 
L 603 0 
L 603 3500 
z
M 603 4863 
L 1178 4863 
L 1178 4134 
L 603 4134 
L 603 4863 
z
" transform="scale(0.015625)"/>
       <path id="DejaVuSans-6e" d="M 3513 2113 
L 3513 0 
L 2938 0 
L 2938 2094 
Q 2938 2591 2744 2837 
Q 2550 3084 2163 3084 
Q 1697 3084 1428 2787 
Q 1159 2491 1159 1978 
L 1159 0 
L 581 0 
L 581 3500 
L 1159 3500 
L 1159 2956 
Q 1366 3272 1645 3428 
Q 1925 3584 2291 3584 
Q 2894 3584 3203 3211 
Q 3513 2838 3513 2113 
z
" transform="scale(0.015625)"/>
       <path id="DejaVuSans-20" transform="scale(0.015625)"/>
       <path id="DejaVuSans-65" d="M 3597 1894 
L 3597 1613 
L 953 1613 
Q 991 1019 1311 708 
Q 1631 397 2203 397 
Q 2534 397 2845 478 
Q 3156 559 3463 722 
L 3463 178 
Q 3153 47 2828 -22 
Q 2503 -91 2169 -91 
Q 1331 -91 842 396 
Q 353 884 353 1716 
Q 353 2575 817 3079 
Q 1281 3584 2069 3584 
Q 2775 3584 3186 3129 
Q 3597 2675 3597 1894 
z
M 3022 2063 
Q 3016 2534 2758 2815 
Q 2500 3097 2075 3097 
Q 1594 3097 1305 2825 
Q 1016 2553 972 2059 
L 3022 2063 
z
" transform="scale(0.015625)"/>
       <path id="DejaVuSans-6d" d="M 3328 2828 
Q 3544 3216 3844 3400 
Q 4144 3584 4550 3584 
Q 5097 3584 5394 3201 
Q 5691 2819 5691 2113 
L 5691 0 
L 5113 0 
L 5113 2094 
Q 5113 2597 4934 2840 
Q 4756 3084 4391 3084 
Q 3944 3084 3684 2787 
Q 3425 2491 3425 1978 
L 3425 0 
L 2847 0 
L 2847 2094 
Q 2847 2600 2669 2842 
Q 2491 3084 2119 3084 
Q 1678 3084 1418 2786 
Q 1159 2488 1159 1978 
L 1159 0 
L 581 0 
L 581 3500 
L 1159 3500 
L 1159 2956 
Q 1356 3278 1631 3431 
Q 1906 3584 2284 3584 
Q 2666 3584 2933 3390 
Q 3200 3197 3328 2828 
z
" transform="scale(0.015625)"/>
       <path id="DejaVuSans-75" d="M 544 1381 
L 544 3500 
L 1119 3500 
L 1119 1403 
Q 1119 906 1312 657 
Q 1506 409 1894 409 
Q 2359 409 2629 706 
Q 2900 1003 2900 1516 
L 2900 3500 
L 3475 3500 
L 3475 0 
L 2900 0 
L 2900 538 
Q 2691 219 2414 64 
Q 2138 -91 1772 -91 
Q 1169 -91 856 284 
Q 544 659 544 1381 
z
M 1991 3584 
L 1991 3584 
z
" transform="scale(0.015625)"/>
       <path id="DejaVuSans-28" d="M 1984 4856 
Q 1566 4138 1362 3434 
Q 1159 2731 1159 2009 
Q 1159 1288 1364 580 
Q 1569 -128 1984 -844 
L 1484 -844 
Q 1016 -109 783 600 
Q 550 1309 550 2009 
Q 550 2706 781 3412 
Q 1013 4119 1484 4856 
L 1984 4856 
z
" transform="scale(0.015625)"/>
       <path id="DejaVuSans-b0" d="M 1600 4347 
Q 1350 4347 1178 4173 
Q 1006 4000 1006 3750 
Q 1006 3503 1178 3333 
Q 1350 3163 1600 3163 
Q 1850 3163 2022 3333 
Q 2194 3503 2194 3750 
Q 2194 3997 2020 4172 
Q 1847 4347 1600 4347 
z
M 1600 4750 
Q 1800 4750 1984 4673 
Q 2169 4597 2303 4453 
Q 2447 4313 2519 4134 
Q 2591 3956 2591 3750 
Q 2591 3338 2302 3052 
Q 2013 2766 1594 2766 
Q 1172 2766 890 3047 
Q 609 3328 609 3750 
Q 609 4169 896 4459 
Q 1184 4750 1600 4750 
z
" transform="scale(0.015625)"/>
       <path id="DejaVuSans-43" d="M 4122 4306 
L 4122 3641 
Q 3803 3938 3442 4084 
Q 3081 4231 2675 4231 
Q 1875 4231 1450 3742 
Q 1025 3253 1025 2328 
Q 1025 1406 1450 917 
Q 1875 428 2675 428 
Q 3081 428 3442 575 
Q 3803 722 4122 1019 
L 4122 359 
Q 3791 134 3420 21 
Q 3050 -91 2638 -91 
Q 1578 -91 968 557 
Q 359 1206 359 2328 
Q 359 3453 968 4101 
Q 1578 4750 2638 4750 
Q 3056 4750 3426 4639 
Q 3797 4528 4122 4306 
z
" transform="scale(0.015625)"/>
       <path id="DejaVuSans-29" d="M 513 4856 
L 1013 4856 
Q 1481 4119 1714 3412 
Q 1947 2706 1947 2009 
Q 1947 1309 1714 600 
Q 1481 -109 1013 -844 
L 513 -844 
Q 928 -128 1133 580 
Q 1338 1288 1338 2009 
Q 1338 2731 1133 3434 
Q 928 4138 513 4856 
z
" transform="scale(0.015625)"/>
      </defs>
      <use xlink:href="#DejaVuSans-45"/>
      <use xlink:href="#DejaVuSans-76" transform="translate(63.183594 0)"/>
      <use xlink:href="#DejaVuSans-61" transform="translate(122.363281 0)"/>
      <use xlink:href="#DejaVuSans-70" transform="translate(183.642578 0)"/>
      <use xlink:href="#DejaVuSans-6f" transform="translate(247.119141 0)"/>
      <use xlink:href="#DejaVuSans-72" transform="translate(308.300781 0)"/>
      <use xlink:href="#DejaVuSans-61" transform="translate(349.414062 0)"/>
      <use xlink:href="#DejaVuSans-74" transform="translate(410.693359 0)"/>
      <use xlink:href="#DejaVuSans-69" transform="translate(449.902344 0)"/>
      <use xlink:href="#DejaVuSans-6f" transform="translate(477.685547 0)"/>
      <use xlink:href="#DejaVuSans-6e" transform="translate(538.867188 0)"/>
      <use xlink:href="#DejaVuSans-20" transform="translate(602.246094 0)"/>
      <use xlink:href="#DejaVuSans-74" transform="translate(634.033203 0)"/>
      <use xlink:href="#DejaVuSans-65" transform="translate(673.242188 0)"/>
      <use xlink:href="#DejaVuSans-6d" transform="translate(734.765625 0)"/>
      <use xlink:href="#DejaVuSans-70" transform="translate(832.177734 0)"/>
      <use xlink:href="#DejaVuSans-65" transform="translate(895.654297 0)"/>
      <use xlink:href="#DejaVuSans-72" transform="translate(957.177734 0)"/>
      <use xlink:href="#DejaVuSans-61" transform="translate(998.291016 0)"/>
      <use xlink:href="#DejaVuSans-74" transform="translate(1059.570312 0)"/>
      <use xlink:href="#DejaVuSans-75" transform="translate(1098.779297 0)"/>
      <use xlink:href="#DejaVuSans-72" transform="translate(1162.158203 0)"/>
      <use xlink:href="#DejaVuSans-65" transform="translate(1201.021484 0)"/>
      <use xlink:href="#DejaVuSans-20" transform="translate(1262.544922 0)"/>
      <use xlink:href="#DejaVuSans-28" transform="translate(1294.332031 0)"/>
      <use xlink:href="#DejaVuSans-b0" transform="translate(1333.345703 0)"/>
      <use xlink:href="#DejaVuSans-43" transform="translate(1383.345703 0)"/>
      <use xlink:href="#DejaVuSans-29" transform="translate(1453.169922 0)"/>
     </g>
    </g>
   </g>
   <g id="matplotlib.axis_2">
    <g id="ytick_1">
     <g id="line2d_13">
      <path d="M 58.7 303.572425 
L 561.96 303.572425 
" clip-path="url(#p2f0bfe6150)" style="fill: none; stroke: #b0b0b0; stroke-opacity: 0.4; stroke-width: 0.8; stroke-linecap: square"/>
     </g>
     <g id="line2d_14">
      <defs>
       <path id="mce91b1585b" d="M 0 0 
L -3.5 0 
" style="stroke: #000000; stroke-width: 0.8"/>
      </defs>
      <g>
       <use xlink:href="#mce91b1585b" x="58.7" y="303.572425" style="stroke: #000000; stroke-width: 0.8"/>
      </g>
     </g>
     <g id="text_8">
      <!-- 2.5 -->
      <g transform="translate(31.025938 308.511409) scale(0.13 -0.13)">
       <defs>
        <path id="DejaVuSans-2e" d="M 684 794 
L 1344 794 
L 1344 0 
L 684 0 
L 684 794 
z
" transform="scale(0.015625)"/>
       </defs>
       <use xlink:href="#DejaVuSans-32"/>
       <use xlink:href="#DejaVuSans-2e" transform="translate(63.623047 0)"/>
       <use xlink:href="#DejaVuSans-35" transform="translate(95.410156 0)"/>
      </g>
     </g>
    </g>
    <g id="ytick_2">
     <g id="line2d_15">
      <path d="M 58.7 262.468236 
L 561.96 262.468236 
" clip-path="url(#p2f0bfe6150)" style="fill: none; stroke: #b0b0b0; stroke-opacity: 0.4; stroke-width: 0.8; stroke-linecap: square"/>
     </g>
     <g id="line2d_16">
      <g>
       <use xlink:href="#mce91b1585b" x="58.7" y="262.468236" style="stroke: #000000; stroke-width: 0.8"/>
      </g>
     </g>
     <g id="text_9">
      <!-- 3.0 -->
      <g transform="translate(31.025938 267.407221) scale(0.13 -0.13)">
       <defs>
        <path id="DejaVuSans-33" d="M 2597 2516 
Q 3050 2419 3304 2112 
Q 3559 1806 3559 1356 
Q 3559 666 3084 287 
Q 2609 -91 1734 -91 
Q 1441 -91 1130 -33 
Q 819 25 488 141 
L 488 750 
Q 750 597 1062 519 
Q 1375 441 1716 441 
Q 2309 441 2620 675 
Q 2931 909 2931 1356 
Q 2931 1769 2642 2001 
Q 2353 2234 1838 2234 
L 1294 2234 
L 1294 2753 
L 1863 2753 
Q 2328 2753 2575 2939 
Q 2822 3125 2822 3475 
Q 2822 3834 2567 4026 
Q 2313 4219 1838 4219 
Q 1578 4219 1281 4162 
Q 984 4106 628 3988 
L 628 4550 
Q 988 4650 1302 4700 
Q 1616 4750 1894 4750 
Q 2613 4750 3031 4423 
Q 3450 4097 3450 3541 
Q 3450 3153 3228 2886 
Q 3006 2619 2597 2516 
z
" transform="scale(0.015625)"/>
       </defs>
       <use xlink:href="#DejaVuSans-33"/>
       <use xlink:href="#DejaVuSans-2e" transform="translate(63.623047 0)"/>
       <use xlink:href="#DejaVuSans-30" transform="translate(95.410156 0)"/>
      </g>
     </g>
    </g>
    <g id="ytick_3">
     <g id="line2d_17">
      <path d="M 58.7 221.364048 
L 561.96 221.364048 
" clip-path="url(#p2f0bfe6150)" style="fill: none; stroke: #b0b0b0; stroke-opacity: 0.4; stroke-width: 0.8; stroke-linecap: square"/>
     </g>
     <g id="line2d_18">
      <g>
       <use xlink:href="#mce91b1585b" x="58.7" y="221.364048" style="stroke: #000000; stroke-width: 0.8"/>
      </g>
     </g>
     <g id="text_10">
      <!-- 3.5 -->
      <g transform="translate(31.025938 226.303032) scale(0.13 -0.13)">
       <use xlink:href="#DejaVuSans-33"/>
       <use xlink:href="#DejaVuSans-2e" transform="translate(63.623047 0)"/>
       <use xlink:href="#DejaVuSans-35" transform="translate(95.410156 0)"/>
      </g>
     </g>
    </g>
    <g id="ytick_4">
     <g id="line2d_19">
      <path d="M 58.7 180.259859 
L 561.96 180.259859 
" clip-path="url(#p2f0bfe6150)" style="fill: none; stroke: #b0b0b0; stroke-opacity: 0.4; stroke-width: 0.8; stroke-linecap: square"/>
     </g>
     <g id="line2d_20">
      <g>
       <use xlink:href="#mce91b1585b" x="58.7" y="180.259859" style="stroke: #000000; stroke-width: 0.8"/>
      </g>
     </g>
     <g id="text_11">
      <!-- 4.0 -->
      <g transform="translate(31.025938 185.198843) scale(0.13 -0.13)">
       <defs>
        <path id="DejaVuSans-34" d="M 2419 4116 
L 825 1625 
L 2419 1625 
L 2419 4116 
z
M 2253 4666 
L 3047 4666 
L 3047 1625 
L 3713 1625 
L 3713 1100 
L 3047 1100 
L 3047 0 
L 2419 0 
L 2419 1100 
L 313 1100 
L 313 1709 
L 2253 4666 
z
" transform="scale(0.015625)"/>
       </defs>
       <use xlink:href="#DejaVuSans-34"/>
       <use xlink:href="#DejaVuSans-2e" transform="translate(63.623047 0)"/>
       <use xlink:href="#DejaVuSans-30" transform="translate(95.410156 0)"/>
      </g>
     </g>
    </g>
    <g id="ytick_5">
     <g id="line2d_21">
      <path d="M 58.7 139.15567 
L 561.96 139.15567 
" clip-path="url(#p2f0bfe6150)" style="fill: none; stroke: #b0b0b0; stroke-opacity: 0.4; stroke-width: 0.8; stroke-linecap: square"/>
     </g>
     <g id="line2d_22">
      <g>
       <use xlink:href="#mce91b1585b" x="58.7" y="139.15567" style="stroke: #000000; stroke-width: 0.8"/>
      </g>
     </g>
     <g id="text_12">
      <!-- 4.5 -->
      <g transform="translate(31.025938 144.094655) scale(0.13 -0.13)">
       <use xlink:href="#DejaVuSans-34"/>
       <use xlink:href="#DejaVuSans-2e" transform="translate(63.623047 0)"/>
       <use xlink:href="#DejaVuSans-35" transform="translate(95.410156 0)"/>
      </g>
     </g>
    </g>
    <g id="ytick_6">
     <g id="line2d_23">
      <path d="M 58.7 98.051482 
L 561.96 98.051482 
" clip-path="url(#p2f0bfe6150)" style="fill: none; stroke: #b0b0b0; stroke-opacity: 0.4; stroke-width: 0.8; stroke-linecap: square"/>
     </g>
     <g id="line2d_24">
      <g>
       <use xlink:href="#mce91b1585b" x="58.7" y="98.051482" style="stroke: #000000; stroke-width: 0.8"/>
      </g>
     </g>
     <g id="text_13">
      <!-- 5.0 -->
      <g transform="translate(31.025938 102.990466) scale(0.13 -0.13)">
       <use xlink:href="#DejaVuSans-35"/>
       <use xlink:href="#DejaVuSans-2e" transform="translate(63.623047 0)"/>
       <use xlink:href="#DejaVuSans-30" transform="translate(95.410156 0)"/>
      </g>
     </g>
    </g>
    <g id="ytick_7">
     <g id="line2d_25">
      <path d="M 58.7 56.947293 
L 561.96 56.947293 
" clip-path="url(#p2f0bfe6150)" style="fill: none; stroke: #b0b0b0; stroke-opacity: 0.4; stroke-width: 0.8; stroke-linecap: square"/>
     </g>
     <g id="line2d_26">
      <g>
       <use xlink:href="#mce91b1585b" x="58.7" y="56.947293" style="stroke: #000000; stroke-width: 0.8"/>
      </g>
     </g>
     <g id="text_14">
      <!-- 5.5 -->
      <g transform="translate(31.025938 61.886277) scale(0.13 -0.13)">
       <use xlink:href="#DejaVuSans-35"/>
       <use xlink:href="#DejaVuSans-2e" transform="translate(63.623047 0)"/>
       <use xlink:href="#DejaVuSans-35" transform="translate(95.410156 0)"/>
      </g>
     </g>
    </g>
    <g id="text_15">
     <!-- COP  (—) -->
     <g transform="translate(24.322344 207.930437) rotate(-90) scale(0.13 -0.13)">
      <defs>
       <path id="DejaVuSans-4f" d="M 2522 4238 
Q 1834 4238 1429 3725 
Q 1025 3213 1025 2328 
Q 1025 1447 1429 934 
Q 1834 422 2522 422 
Q 3209 422 3611 934 
Q 4013 1447 4013 2328 
Q 4013 3213 3611 3725 
Q 3209 4238 2522 4238 
z
M 2522 4750 
Q 3503 4750 4090 4092 
Q 4678 3434 4678 2328 
Q 4678 1225 4090 567 
Q 3503 -91 2522 -91 
Q 1538 -91 948 565 
Q 359 1222 359 2328 
Q 359 3434 948 4092 
Q 1538 4750 2522 4750 
z
" transform="scale(0.015625)"/>
       <path id="DejaVuSans-50" d="M 1259 4147 
L 1259 2394 
L 2053 2394 
Q 2494 2394 2734 2622 
Q 2975 2850 2975 3272 
Q 2975 3691 2734 3919 
Q 2494 4147 2053 4147 
L 1259 4147 
z
M 628 4666 
L 2053 4666 
Q 2838 4666 3239 4311 
Q 3641 3956 3641 3272 
Q 3641 2581 3239 2228 
Q 2838 1875 2053 1875 
L 1259 1875 
L 1259 0 
L 628 0 
L 628 4666 
z
" transform="scale(0.015625)"/>
       <path id="DejaVuSans-2014" d="M 313 1978 
L 6088 1978 
L 6088 1528 
L 313 1528 
L 313 1978 
z
" transform="scale(0.015625)"/>
      </defs>
      <use xlink:href="#DejaVuSans-43"/>
      <use xlink:href="#DejaVuSans-4f" transform="translate(69.824219 0)"/>
      <use xlink:href="#DejaVuSans-50" transform="translate(148.535156 0)"/>
      <use xlink:href="#DejaVuSans-20" transform="translate(208.837891 0)"/>
      <use xlink:href="#DejaVuSans-20" transform="translate(240.625 0)"/>
      <use xlink:href="#DejaVuSans-28" transform="translate(272.412109 0)"/>
      <use xlink:href="#DejaVuSans-2014" transform="translate(311.425781 0)"/>
      <use xlink:href="#DejaVuSans-29" transform="translate(411.425781 0)"/>
     </g>
    </g>
   </g>
   <g id="line2d_27">
    <path d="M 81.575455 297.186545 
L 127.326364 282.853375 
L 173.077273 267.183788 
L 218.828182 249.989883 
L 264.579091 231.046691 
L 310.33 210.082574 
L 356.080909 186.76647 
L 401.831818 160.690716 
L 447.582727 131.347552 
L 493.333636 98.096405 
L 539.084545 60.117455 
" clip-path="url(#p2f0bfe6150)" style="fill: none; stroke: #1f567d; stroke-width: 2; stroke-linecap: square"/>
    <defs>
     <path id="m4331d8ef2e" d="M 0 3 
C 0.795609 3 1.55874 2.683901 2.12132 2.12132 
C 2.683901 1.55874 3 0.795609 3 0 
C 3 -0.795609 2.683901 -1.55874 2.12132 -2.12132 
C 1.55874 -2.683901 0.795609 -3 0 -3 
C -0.795609 -3 -1.55874 -2.683901 -2.12132 -2.12132 
C -2.683901 -1.55874 -3 -0.795609 -3 0 
C -3 0.795609 -2.683901 1.55874 -2.12132 2.12132 
C -1.55874 2.683901 -0.795609 3 0 3 
z
" style="stroke: #1f567d"/>
    </defs>
    <g clip-path="url(#p2f0bfe6150)">
     <use xlink:href="#m4331d8ef2e" x="81.575455" y="297.186545" style="fill: #1f567d; stroke: #1f567d"/>
     <use xlink:href="#m4331d8ef2e" x="127.326364" y="282.853375" style="fill: #1f567d; stroke: #1f567d"/>
     <use xlink:href="#m4331d8ef2e" x="173.077273" y="267.183788" style="fill: #1f567d; stroke: #1f567d"/>
     <use xlink:href="#m4331d8ef2e" x="218.828182" y="249.989883" style="fill: #1f567d; stroke: #1f567d"/>
     <use xlink:href="#m4331d8ef2e" x="264.579091" y="231.046691" style="fill: #1f567d; stroke: #1f567d"/>
     <use xlink:href="#m4331d8ef2e" x="310.33" y="210.082574" style="fill: #1f567d; stroke: #1f567d"/>
     <use xlink:href="#m4331d8ef2e" x="356.080909" y="186.76647" style="fill: #1f567d; stroke: #1f567d"/>
     <use xlink:href="#m4331d8ef2e" x="401.831818" y="160.690716" style="fill: #1f567d; stroke: #1f567d"/>
     <use xlink:href="#m4331d8ef2e" x="447.582727" y="131.347552" style="fill: #1f567d; stroke: #1f567d"/>
     <use xlink:href="#m4331d8ef2e" x="493.333636" y="98.096405" style="fill: #1f567d; stroke: #1f567d"/>
     <use xlink:href="#m4331d8ef2e" x="539.084545" y="60.117455" style="fill: #1f567d; stroke: #1f567d"/>
    </g>
   </g>
   <g id="patch_3">
    <path d="M 58.7 309.04 
L 58.7 48.264 
" style="fill: none; stroke: #000000; stroke-width: 0.8; stroke-linejoin: miter; stroke-linecap: square"/>
   </g>
   <g id="patch_4">
    <path d="M 561.96 309.04 
L 561.96 48.264 
" style="fill: none; stroke: #000000; stroke-width: 0.8; stroke-linejoin: miter; stroke-linecap: square"/>
   </g>
   <g id="patch_5">
    <path d="M 58.7 309.04 
L 561.96 309.04 
" style="fill: none; stroke: #000000; stroke-width: 0.8; stroke-linejoin: miter; stroke-linecap: square"/>
   </g>
   <g id="patch_6">
    <path d="M 58.7 48.264 
L 561.96 48.264 
" style="fill: none; stroke: #000000; stroke-width: 0.8; stroke-linejoin: miter; stroke-linecap: square"/>
   </g>
   <g id="text_16">
    <!-- R134a Refrigeration Cycle: COP vs Evaporation Temperature -->
    <g transform="translate(74.405594 24.795412) scale(0.156 -0.156)">
     <defs>
      <path id="DejaVuSans-52" d="M 2841 2188 
Q 3044 2119 3236 1894 
Q 3428 1669 3622 1275 
L 4263 0 
L 3584 0 
L 2988 1197 
Q 2756 1666 2539 1819 
Q 2322 1972 1947 1972 
L 1259 1972 
L 1259 0 
L 628 0 
L 628 4666 
L 2053 4666 
Q 2853 4666 3247 4331 
Q 3641 3997 3641 3322 
Q 3641 2881 3436 2590 
Q 3231 2300 2841 2188 
z
M 1259 4147 
L 1259 2491 
L 2053 2491 
Q 2509 2491 2742 2702 
Q 2975 2913 2975 3322 
Q 2975 3731 2742 3939 
Q 2509 4147 2053 4147 
L 1259 4147 
z
" transform="scale(0.015625)"/>
      <path id="DejaVuSans-66" d="M 2375 4863 
L 2375 4384 
L 1825 4384 
Q 1516 4384 1395 4259 
Q 1275 4134 1275 3809 
L 1275 3500 
L 2222 3500 
L 2222 3053 
L 1275 3053 
L 1275 0 
L 697 0 
L 697 3053 
L 147 3053 
L 147 3500 
L 697 3500 
L 697 3744 
Q 697 4328 969 4595 
Q 1241 4863 1831 4863 
L 2375 4863 
z
" transform="scale(0.015625)"/>
      <path id="DejaVuSans-67" d="M 2906 1791 
Q 2906 2416 2648 2759 
Q 2391 3103 1925 3103 
Q 1463 3103 1205 2759 
Q 947 2416 947 1791 
Q 947 1169 1205 825 
Q 1463 481 1925 481 
Q 2391 481 2648 825 
Q 2906 1169 2906 1791 
z
M 3481 434 
Q 3481 -459 3084 -895 
Q 2688 -1331 1869 -1331 
Q 1566 -1331 1297 -1286 
Q 1028 -1241 775 -1147 
L 775 -588 
Q 1028 -725 1275 -790 
Q 1522 -856 1778 -856 
Q 2344 -856 2625 -561 
Q 2906 -266 2906 331 
L 2906 616 
Q 2728 306 2450 153 
Q 2172 0 1784 0 
Q 1141 0 747 490 
Q 353 981 353 1791 
Q 353 2603 747 3093 
Q 1141 3584 1784 3584 
Q 2172 3584 2450 3431 
Q 2728 3278 2906 2969 
L 2906 3500 
L 3481 3500 
L 3481 434 
z
" transform="scale(0.015625)"/>
      <path id="DejaVuSans-79" d="M 2059 -325 
Q 1816 -950 1584 -1140 
Q 1353 -1331 966 -1331 
L 506 -1331 
L 506 -850 
L 844 -850 
Q 1081 -850 1212 -737 
Q 1344 -625 1503 -206 
L 1606 56 
L 191 3500 
L 800 3500 
L 1894 763 
L 2988 3500 
L 3597 3500 
L 2059 -325 
z
" transform="scale(0.015625)"/>
      <path id="DejaVuSans-63" d="M 3122 3366 
L 3122 2828 
Q 2878 2963 2633 3030 
Q 2388 3097 2138 3097 
Q 1578 3097 1268 2742 
Q 959 2388 959 1747 
Q 959 1106 1268 751 
Q 1578 397 2138 397 
Q 2388 397 2633 464 
Q 2878 531 3122 666 
L 3122 134 
Q 2881 22 2623 -34 
Q 2366 -91 2075 -91 
Q 1284 -91 818 406 
Q 353 903 353 1747 
Q 353 2603 823 3093 
Q 1294 3584 2113 3584 
Q 2378 3584 2631 3529 
Q 2884 3475 3122 3366 
z
" transform="scale(0.015625)"/>
      <path id="DejaVuSans-6c" d="M 603 4863 
L 1178 4863 
L 1178 0 
L 603 0 
L 603 4863 
z
" transform="scale(0.015625)"/>
      <path id="DejaVuSans-3a" d="M 750 794 
L 1409 794 
L 1409 0 
L 750 0 
L 750 794 
z
M 750 3309 
L 1409 3309 
L 1409 2516 
L 750 2516 
L 750 3309 
z
" transform="scale(0.015625)"/>
      <path id="DejaVuSans-73" d="M 2834 3397 
L 2834 2853 
Q 2591 2978 2328 3040 
Q 2066 3103 1784 3103 
Q 1356 3103 1142 2972 
Q 928 2841 928 2578 
Q 928 2378 1081 2264 
Q 1234 2150 1697 2047 
L 1894 2003 
Q 2506 1872 2764 1633 
Q 3022 1394 3022 966 
Q 3022 478 2636 193 
Q 2250 -91 1575 -91 
Q 1294 -91 989 -36 
Q 684 19 347 128 
L 347 722 
Q 666 556 975 473 
Q 1284 391 1588 391 
Q 1994 391 2212 530 
Q 2431 669 2431 922 
Q 2431 1156 2273 1281 
Q 2116 1406 1581 1522 
L 1381 1569 
Q 847 1681 609 1914 
Q 372 2147 372 2553 
Q 372 3047 722 3315 
Q 1072 3584 1716 3584 
Q 2034 3584 2315 3537 
Q 2597 3491 2834 3397 
z
" transform="scale(0.015625)"/>
      <path id="DejaVuSans-54" d="M -19 4666 
L 3928 4666 
L 3928 4134 
L 2272 4134 
L 2272 0 
L 1638 0 
L 1638 4134 
L -19 4134 
L -19 4666 
z
" transform="scale(0.015625)"/>
     </defs>
     <use xlink:href="#DejaVuSans-52"/>
     <use xlink:href="#DejaVuSans-31" transform="translate(69.482422 0)"/>
     <use xlink:href="#DejaVuSans-33" transform="translate(133.105469 0)"/>
     <use xlink:href="#DejaVuSans-34" transform="translate(196.728516 0)"/>
     <use xlink:href="#DejaVuSans-61" transform="translate(260.351562 0)"/>
     <use xlink:href="#DejaVuSans-20" transform="translate(321.630859 0)"/>
     <use xlink:href="#DejaVuSans-52" transform="translate(353.417969 0)"/>
     <use xlink:href="#DejaVuSans-65" transform="translate(418.400391 0)"/>
     <use xlink:href="#DejaVuSans-66" transform="translate(479.923828 0)"/>
     <use xlink:href="#DejaVuSans-72" transform="translate(515.128906 0)"/>
     <use xlink:href="#DejaVuSans-69" transform="translate(556.242188 0)"/>
     <use xlink:href="#DejaVuSans-67" transform="translate(584.025391 0)"/>
     <use xlink:href="#DejaVuSans-65" transform="translate(647.501953 0)"/>
     <use xlink:href="#DejaVuSans-72" transform="translate(709.025391 0)"/>
     <use xlink:href="#DejaVuSans-61" transform="translate(750.138672 0)"/>
     <use xlink:href="#DejaVuSans-74" transform="translate(811.417969 0)"/>
     <use xlink:href="#DejaVuSans-69" transform="translate(850.626953 0)"/>
     <use xlink:href="#DejaVuSans-6f" transform="translate(878.410156 0)"/>
     <use xlink:href="#DejaVuSans-6e" transform="translate(939.591797 0)"/>
     <use xlink:href="#DejaVuSans-20" transform="translate(1002.970703 0)"/>
     <use xlink:href="#DejaVuSans-43" transform="translate(1034.757812 0)"/>
     <use xlink:href="#DejaVuSans-79" transform="translate(1104.582031 0)"/>
     <use xlink:href="#DejaVuSans-63" transform="translate(1163.761719 0)"/>
     <use xlink:href="#DejaVuSans-6c" transform="translate(1218.742188 0)"/>
     <use xlink:href="#DejaVuSans-65" transform="translate(1246.525391 0)"/>
     <use xlink:href="#DejaVuSans-3a" transform="translate(1308.048828 0)"/>
     <use xlink:href="#DejaVuSans-20" transform="translate(1341.740234 0)"/>
     <use xlink:href="#DejaVuSans-43" transform="translate(1373.527344 0)"/>
     <use xlink:href="#DejaVuSans-4f" transform="translate(1443.351562 0)"/>
     <use xlink:href="#DejaVuSans-50" transform="translate(1522.0625 0)"/>
     <use xlink:href="#DejaVuSans-20" transform="translate(1582.365234 0)"/>
     <use xlink:href="#DejaVuSans-76" transform="translate(1614.152344 0)"/>
     <use xlink:href="#DejaVuSans-73" transform="translate(1673.332031 0)"/>
     <use xlink:href="#DejaVuSans-20" transform="translate(1725.431641 0)"/>
     <use xlink:href="#DejaVuSans-45" transform="translate(1757.21875 0)"/>
     <use xlink:href="#DejaVuSans-76" transform="translate(1820.402344 0)"/>
     <use xlink:href="#DejaVuSans-61" transform="translate(1879.582031 0)"/>
     <use xlink:href="#DejaVuSans-70" transform="translate(1940.861328 0)"/>
     <use xlink:href="#DejaVuSans-6f" transform="translate(2004.337891 0)"/>
     <use xlink:href="#DejaVuSans-72" transform="translate(2065.519531 0)"/>
     <use xlink:href="#DejaVuSans-61" transform="translate(2106.632812 0)"/>
     <use xlink:href="#DejaVuSans-74" transform="translate(2167.912109 0)"/>
     <use xlink:href="#DejaVuSans-69" transform="translate(2207.121094 0)"/>
     <use xlink:href="#DejaVuSans-6f" transform="translate(2234.904297 0)"/>
     <use xlink:href="#DejaVuSans-6e" transform="translate(2296.085938 0)"/>
     <use xlink:href="#DejaVuSans-20" transform="translate(2359.464844 0)"/>
     <use xlink:href="#DejaVuSans-54" transform="translate(2391.251953 0)"/>
     <use xlink:href="#DejaVuSans-65" transform="translate(2435.335938 0)"/>
     <use xlink:href="#DejaVuSans-6d" transform="translate(2496.859375 0)"/>
     <use xlink:href="#DejaVuSans-70" transform="translate(2594.271484 0)"/>
     <use xlink:href="#DejaVuSans-65" transform="translate(2657.748047 0)"/>
     <use xlink:href="#DejaVuSans-72" transform="translate(2719.271484 0)"/>
     <use xlink:href="#DejaVuSans-61" transform="translate(2760.384766 0)"/>
     <use xlink:href="#DejaVuSans-74" transform="translate(2821.664062 0)"/>
     <use xlink:href="#DejaVuSans-75" transform="translate(2860.873047 0)"/>
     <use xlink:href="#DejaVuSans-72" transform="translate(2924.251953 0)"/>
     <use xlink:href="#DejaVuSans-65" transform="translate(2963.115234 0)"/>
    </g>
    <!-- (Condensation temp = 40 °C, η_s = 0.85, Q_ref = 10 kW) -->
    <g transform="translate(86.044656 42.264) scale(0.156 -0.156)">
     <defs>
      <path id="DejaVuSans-64" d="M 2906 2969 
L 2906 4863 
L 3481 4863 
L 3481 0 
L 2906 0 
L 2906 525 
Q 2725 213 2448 61 
Q 2172 -91 1784 -91 
Q 1150 -91 751 415 
Q 353 922 353 1747 
Q 353 2572 751 3078 
Q 1150 3584 1784 3584 
Q 2172 3584 2448 3432 
Q 2725 3281 2906 2969 
z
M 947 1747 
Q 947 1113 1208 752 
Q 1469 391 1925 391 
Q 2381 391 2643 752 
Q 2906 1113 2906 1747 
Q 2906 2381 2643 2742 
Q 2381 3103 1925 3103 
Q 1469 3103 1208 2742 
Q 947 2381 947 1747 
z
" transform="scale(0.015625)"/>
      <path id="DejaVuSans-3d" d="M 678 2906 
L 4684 2906 
L 4684 2381 
L 678 2381 
L 678 2906 
z
M 678 1631 
L 4684 1631 
L 4684 1100 
L 678 1100 
L 678 1631 
z
" transform="scale(0.015625)"/>
      <path id="DejaVuSans-2c" d="M 750 794 
L 1409 794 
L 1409 256 
L 897 -744 
L 494 -744 
L 750 256 
L 750 794 
z
" transform="scale(0.015625)"/>
      <path id="DejaVuSans-3b7" d="M 3513 2113 
L 3513 -1331 
L 2938 -1331 
L 2938 2094 
Q 2938 2591 2744 2837 
Q 2550 3084 2163 3084 
Q 1697 3084 1428 2787 
Q 1159 2491 1159 1978 
L 1159 0 
L 581 0 
L 581 3500 
L 1159 3500 
L 1159 2956 
Q 1366 3272 1644 3428 
Q 1925 3584 2291 3584 
Q 2894 3584 3203 3213 
Q 3513 2838 3513 2113 
z
" transform="scale(0.015625)"/>
      <path id="DejaVuSans-5f" d="M 3263 -1063 
L 3263 -1509 
L -63 -1509 
L -63 -1063 
L 3263 -1063 
z
" transform="scale(0.015625)"/>
      <path id="DejaVuSans-38" d="M 2034 2216 
Q 1584 2216 1326 1975 
Q 1069 1734 1069 1313 
Q 1069 891 1326 650 
Q 1584 409 2034 409 
Q 2484 409 2743 651 
Q 3003 894 3003 1313 
Q 3003 1734 2745 1975 
Q 2488 2216 2034 2216 
z
M 1403 2484 
Q 997 2584 770 2862 
Q 544 3141 544 3541 
Q 544 4100 942 4425 
Q 1341 4750 2034 4750 
Q 2731 4750 3128 4425 
Q 3525 4100 3525 3541 
Q 3525 3141 3298 2862 
Q 3072 2584 2669 2484 
Q 3125 2378 3379 2068 
Q 3634 1759 3634 1313 
Q 3634 634 3220 271 
Q 2806 -91 2034 -91 
Q 1263 -91 848 271 
Q 434 634 434 1313 
Q 434 1759 690 2068 
Q 947 2378 1403 2484 
z
M 1172 3481 
Q 1172 3119 1398 2916 
Q 1625 2713 2034 2713 
Q 2441 2713 2670 2916 
Q 2900 3119 2900 3481 
Q 2900 3844 2670 4047 
Q 2441 4250 2034 4250 
Q 1625 4250 1398 4047 
Q 1172 3844 1172 3481 
z
" transform="scale(0.015625)"/>
      <path id="DejaVuSans-51" d="M 2522 4238 
Q 1834 4238 1429 3725 
Q 1025 3213 1025 2328 
Q 1025 1447 1429 934 
Q 1834 422 2522 422 
Q 3209 422 3611 934 
Q 4013 1447 4013 2328 
Q 4013 3213 3611 3725 
Q 3209 4238 2522 4238 
z
M 3406 84 
L 4238 -825 
L 3475 -825 
L 2784 -78 
Q 2681 -84 2626 -87 
Q 2572 -91 2522 -91 
Q 1538 -91 948 567 
Q 359 1225 359 2328 
Q 359 3434 948 4092 
Q 1538 4750 2522 4750 
Q 3503 4750 4090 4092 
Q 4678 3434 4678 2328 
Q 4678 1516 4351 937 
Q 4025 359 3406 84 
z
" transform="scale(0.015625)"/>
      <path id="DejaVuSans-6b" d="M 581 4863 
L 1159 4863 
L 1159 1991 
L 2875 3500 
L 3609 3500 
L 1753 1863 
L 3688 0 
L 2938 0 
L 1159 1709 
L 1159 0 
L 581 0 
L 581 4863 
z
" transform="scale(0.015625)"/>
      <path id="DejaVuSans-57" d="M 213 4666 
L 850 4666 
L 1831 722 
L 2809 4666 
L 3519 4666 
L 4500 722 
L 5478 4666 
L 6119 4666 
L 4947 0 
L 4153 0 
L 3169 4050 
L 2175 0 
L 1381 0 
L 213 4666 
z
" transform="scale(0.015625)"/>
     </defs>
     <use xlink:href="#DejaVuSans-28"/>
     <use xlink:href="#DejaVuSans-43" transform="translate(39.013672 0)"/>
     <use xlink:href="#DejaVuSans-6f" transform="translate(108.837891 0)"/>
     <use xlink:href="#DejaVuSans-6e" transform="translate(170.019531 0)"/>
     <use xlink:href="#DejaVuSans-64" transform="translate(233.398438 0)"/>
     <use xlink:href="#DejaVuSans-65" transform="translate(296.875 0)"/>
     <use xlink:href="#DejaVuSans-6e" transform="translate(358.398438 0)"/>
     <use xlink:href="#DejaVuSans-73" transform="translate(421.777344 0)"/>
     <use xlink:href="#DejaVuSans-61" transform="translate(473.876953 0)"/>
     <use xlink:href="#DejaVuSans-74" transform="translate(535.15625 0)"/>
     <use xlink:href="#DejaVuSans-69" transform="translate(574.365234 0)"/>
     <use xlink:href="#DejaVuSans-6f" transform="translate(602.148438 0)"/>
     <use xlink:href="#DejaVuSans-6e" transform="translate(663.330078 0)"/>
     <use xlink:href="#DejaVuSans-20" transform="translate(726.708984 0)"/>
     <use xlink:href="#DejaVuSans-74" transform="translate(758.496094 0)"/>
     <use xlink:href="#DejaVuSans-65" transform="translate(797.705078 0)"/>
     <use xlink:href="#DejaVuSans-6d" transform="translate(859.228516 0)"/>
     <use xlink:href="#DejaVuSans-70" transform="translate(956.640625 0)"/>
     <use xlink:href="#DejaVuSans-20" transform="translate(1020.117188 0)"/>
     <use xlink:href="#DejaVuSans-3d" transform="translate(1051.904297 0)"/>
     <use xlink:href="#DejaVuSans-20" transform="translate(1135.693359 0)"/>
     <use xlink:href="#DejaVuSans-34" transform="translate(1167.480469 0)"/>
     <use xlink:href="#DejaVuSans-30" transform="translate(1231.103516 0)"/>
     <use xlink:href="#DejaVuSans-20" transform="translate(1294.726562 0)"/>
     <use xlink:href="#DejaVuSans-b0" transform="translate(1326.513672 0)"/>
     <use xlink:href="#DejaVuSans-43" transform="translate(1376.513672 0)"/>
     <use xlink:href="#DejaVuSans-2c" transform="translate(1446.337891 0)"/>
     <use xlink:href="#DejaVuSans-20" transform="translate(1478.125 0)"/>
     <use xlink:href="#DejaVuSans-3b7" transform="translate(1509.912109 0)"/>
     <use xlink:href="#DejaVuSans-5f" transform="translate(1573.291016 0)"/>
     <use xlink:href="#DejaVuSans-73" transform="translate(1623.291016 0)"/>
     <use xlink:href="#DejaVuSans-20" transform="translate(1675.390625 0)"/>
     <use xlink:href="#DejaVuSans-3d" transform="translate(1707.177734 0)"/>
     <use xlink:href="#DejaVuSans-20" transform="translate(1790.966797 0)"/>
     <use xlink:href="#DejaVuSans-30" transform="translate(1822.753906 0)"/>
     <use xlink:href="#DejaVuSans-2e" transform="translate(1886.376953 0)"/>
     <use xlink:href="#DejaVuSans-38" transform="translate(1918.164062 0)"/>
     <use xlink:href="#DejaVuSans-35" transform="translate(1981.787109 0)"/>
     <use xlink:href="#DejaVuSans-2c" transform="translate(2045.410156 0)"/>
     <use xlink:href="#DejaVuSans-20" transform="translate(2077.197266 0)"/>
     <use xlink:href="#DejaVuSans-51" transform="translate(2108.984375 0)"/>
     <use xlink:href="#DejaVuSans-5f" transform="translate(2187.695312 0)"/>
     <use xlink:href="#DejaVuSans-72" transform="translate(2237.695312 0)"/>
     <use xlink:href="#DejaVuSans-65" transform="translate(2276.558594 0)"/>
     <use xlink:href="#DejaVuSans-66" transform="translate(2338.082031 0)"/>
     <use xlink:href="#DejaVuSans-20" transform="translate(2373.287109 0)"/>
     <use xlink:href="#DejaVuSans-3d" transform="translate(2405.074219 0)"/>
     <use xlink:href="#DejaVuSans-20" transform="translate(2488.863281 0)"/>
     <use xlink:href="#DejaVuSans-31" transform="translate(2520.650391 0)"/>
     <use xlink:href="#DejaVuSans-30" transform="translate(2584.273438 0)"/>
     <use xlink:href="#DejaVuSans-20" transform="translate(2647.896484 0)"/>
     <use xlink:href="#DejaVuSans-6b" transform="translate(2679.683594 0)"/>
     <use xlink:href="#DejaVuSans-57" transform="translate(2737.59375 0)"/>
     <use xlink:href="#DejaVuSans-29" transform="translate(2836.470703 0)"/>
    </g>
   </g>
  </g>
 </g>
 <defs>
  <clipPath id="p2f0bfe6150">
   <rect x="58.7" y="48.264" width="503.26" height="260.776"/>
  </clipPath>
 </defs>
</svg>
