<?xml version="1.0" encoding="UTF-8" standalone="no"?>
<svg
   xmlns:dc="http://purl.org/dc/elements/1.1/"
   xmlns:cc="http://creativecommons.org/ns#"
   xmlns:rdf="http://www.w3.org/1999/02/22-rdf-syntax-ns#"
   xmlns:svg="http://www.w3.org/2000/svg"
   xmlns="http://www.w3.org/2000/svg"
   xmlns:sodipodi="http://sodipodi.sourceforge.net/DTD/sodipodi-0.dtd"
   xmlns:inkscape="http://www.inkscape.org/namespaces/inkscape"
   class="main-svg"
   width="742.95844"
   height="205.77821"
   version="1.1"
   id="svg291"
   sodipodi:docname="SEGS_grassmann.svg"
   inkscape:version="1.0.2 (1.0.2+r75+1)">
  <metadata
     id="metadata295">
    <rdf:RDF>
      <cc:Work
         rdf:about="">
        <dc:format>image/svg+xml</dc:format>
        <dc:type
           rdf:resource="http://purl.org/dc/dcmitype/StillImage" />
        <dc:title></dc:title>
      </cc:Work>
    </rdf:RDF>
  </metadata>
  <sodipodi:namedview
     pagecolor="#ffffff"
     bordercolor="#666666"
     borderopacity="1"
     objecttolerance="10"
     gridtolerance="10"
     guidetolerance="10"
     inkscape:pageopacity="0"
     inkscape:pageshadow="2"
     inkscape:window-width="1920"
     inkscape:window-height="1172"
     id="namedview293"
     showgrid="true"
     inkscape:snap-text-baseline="true"
     fit-margin-top="0"
     fit-margin-left="0"
     fit-margin-right="0"
     fit-margin-bottom="0"
     inkscape:zoom="2.8707557"
     inkscape:cx="254.7772"
     inkscape:cy="126.07678"
     inkscape:window-x="1920"
     inkscape:window-y="0"
     inkscape:window-maximized="1"
     inkscape:current-layer="g194">
    <inkscape:grid
       type="xygrid"
       id="grid1129"
       originx="-117.12748"
       originy="-131.23921" />
  </sodipodi:namedview>
  <defs
     id="defs-7b66c0">
    <g
       class="clips"
       id="g2" />
    <g
       class="gradients"
       id="g4" />
  </defs>
  <g
     class="bglayer"
     id="g7"
     transform="translate(-117.12748,-131.23921)" />
  <g
     class="layer-below"
     id="g17"
     transform="translate(-117.12748,-131.23921)">
    <g
       class="imagelayer"
       id="g13" />
    <g
       class="shapelayer"
       id="g15" />
  </g>
  <g
     class="cartesianlayer"
     id="g19"
     transform="translate(-117.12748,-131.23921)" />
  <g
     class="polarlayer"
     id="g21"
     transform="translate(-117.12748,-131.23921)" />
  <g
     class="ternarylayer"
     id="g23"
     transform="translate(-117.12748,-131.23921)" />
  <g
     class="geolayer"
     id="g25"
     transform="translate(-117.12748,-131.23921)" />
  <g
     class="funnelarealayer"
     id="g27"
     transform="translate(-117.12748,-131.23921)" />
  <g
     class="pielayer"
     id="g29"
     transform="translate(-117.12748,-131.23921)" />
  <g
     class="treemaplayer"
     id="g31"
     transform="translate(-117.12748,-131.23921)" />
  <g
     class="sunburstlayer"
     id="g33"
     transform="translate(-117.12748,-131.23921)" />
  <g
     class="glimages"
     id="g35"
     transform="translate(-117.12748,-131.23921)" />
  <g
     class="sankey"
     id="g289"
     transform="translate(-37.127475,-31.239214)">
    <g
       class="sankey-links"
       fill="none"
       id="g103">
      <path
         class="sankey-link"
         style="opacity:1;stroke-opacity:1"
         d="m 106.55155,159.85803 c 170.40234,0 170.40234,-8.37958 340.80469,-8.37958 v 15.25729 c -170.40235,0 -170.40235,8.37958 -340.80469,8.37958 z"
         stroke="#444444"
         fill="#377eb8"
         stroke-width="0px"
         fill-opacity="0.75"
         id="path37" />
      <path
         class="sankey-link"
         style="opacity:1;stroke-width:1px"
         d="m 395.1953,67.166147 c 26.08047,0 26.08047,11.839564 52.16094,11.839564 v 0.317274 c -26.08047,0 -26.08047,-11.839563 -52.16094,-11.839563 z"
         stroke="#e41a1c"
         fill="#e41a1c"
         fill-opacity="0.75"
         stroke-opacity="0.75"
         id="path39" />
      <path
         class="sankey-link"
         style="opacity:1;stroke-width:1px"
         d="m 395.1953,66.922065 c 98.24141,0 98.24141,54.036805 196.48282,54.036805 v 0.24408 c -98.24141,0 -98.24141,-54.036803 -196.48282,-54.036803 z"
         stroke="#e41a1c"
         fill="#e41a1c"
         fill-opacity="0.75"
         stroke-opacity="0.75"
         id="path41" />
      <path
         class="sankey-link"
         style="opacity:1;stroke-width:1px"
         d="m 395.1953,67.483422 c 26.08047,0 26.08047,62.702648 52.16094,62.702648 v 0.57334 c -26.08047,0 -26.08047,-62.702651 -52.16094,-62.702651 z"
         stroke="#e41a1c"
         fill="#e41a1c"
         fill-opacity="0.75"
         stroke-opacity="0.75"
         id="path43" />
      <path
         class="sankey-link"
         style="opacity:1;stroke-opacity:1"
         d="m 395.1953,56.744925 c 170.40235,0 170.40235,39.726867 340.8047,39.726867 v 10.177138 c -170.40235,0 -170.40235,-39.726865 -340.8047,-39.726865 z"
         stroke="#444444"
         fill="#e41a1c"
         stroke-width="0px"
         fill-opacity="0.75"
         id="path45" />
      <path
         class="sankey-link"
         style="opacity:1;stroke-width:1px"
         d="m 106.55155,82.708437 c 314.72422,0 314.72422,68.256383 629.44845,68.256383 v 0.80645 c -314.72423,0 -314.72423,-68.256387 -629.44845,-68.256387 z"
         stroke="#4daf4a"
         fill="#4daf4a"
         fill-opacity="0.75"
         stroke-opacity="0.75"
         id="path47" />
      <path
         class="sankey-link"
         style="opacity:1;stroke-opacity:1"
         d="m 106.55155,67.761885 c 26.08047,0 26.08047,-3.383992 52.16093,-3.383992 v 14.946552 c -26.08046,0 -26.08046,3.383992 -52.16093,3.383992 z"
         stroke="#444444"
         fill="#a65628"
         stroke-width="0px"
         fill-opacity="0.75"
         id="path49" />
      <path
         class="sankey-link"
         style="opacity:1;stroke-opacity:1"
         d="m 106.55155,83.514883 c 170.40234,0 170.40234,49.292497 340.80469,49.292497 v 18.67107 c -170.40235,0 -170.40235,-49.2925 -340.80469,-49.2925 z"
         stroke="#444444"
         fill="#ff7f00"
         stroke-width="0px"
         fill-opacity="0.75"
         id="path51" />
      <path
         class="sankey-link"
         style="opacity:1;stroke-opacity:1"
         d="m 178.71248,64.377893 c 98.24141,0 98.24141,-7.632968 196.48282,-7.632968 v 3.481151 c -98.24141,0 -98.24141,7.632969 -196.48282,7.632969 z"
         stroke="#444444"
         fill="#e41a1c"
         stroke-width="0px"
         fill-opacity="0.75"
         id="path53" />
      <path
         class="sankey-link"
         style="opacity:1;stroke-width:1px"
         d="m 178.71248,77.194138 c 278.64376,0 278.64376,73.259172 557.28752,73.259172 v 0.51151 c -278.64376,0 -278.64376,-73.259171 -557.28752,-73.259171 z"
         stroke="#4daf4a"
         fill="#4daf4a"
         fill-opacity="0.75"
         stroke-opacity="0.75"
         id="path55" />
      <path
         class="sankey-link"
         style="opacity:1;stroke-opacity:1"
         d="m 178.71248,77.705649 c 242.56329,0 242.56329,50.919841 485.12658,50.919841 v 1.6188 c -242.56329,0 -242.56329,-50.919845 -485.12658,-50.919845 z"
         stroke="#444444"
         fill="#a65628"
         stroke-width="0px"
         fill-opacity="0.75"
         id="path57" />
      <path
         class="sankey-link"
         style="opacity:1;stroke-opacity:1"
         d="m 178.71248,67.859045 c 26.08047,0 26.08047,1.555074 52.16094,1.555074 v 9.335094 c -26.08047,0 -26.08047,-1.555075 -52.16094,-1.555075 z"
         stroke="#444444"
         fill="#a65628"
         stroke-width="0px"
         fill-opacity="0.75"
         id="path59" />
      <path
         class="sankey-link"
         style="opacity:1;stroke-width:1px"
         d="m 250.87342,80.951457 c 242.56329,0 242.56329,69.108593 485.12658,69.108593 v 0.39326 c -242.56329,0 -242.56329,-69.108595 -485.12658,-69.108595 z"
         stroke="#4daf4a"
         fill="#4daf4a"
         fill-opacity="0.75"
         stroke-opacity="0.75"
         id="path61" />
      <path
         class="sankey-link"
         style="opacity:1;stroke-opacity:1"
         d="m 250.87342,69.414119 c 26.08047,0 26.08047,2.059145 52.16094,2.059145 v 11.537337 c -26.08047,0 -26.08047,-2.059144 -52.16094,-2.059144 z"
         stroke="#444444"
         fill="#a65628"
         stroke-width="0px"
         fill-opacity="0.75"
         id="path63" />
      <path
         class="sankey-link"
         style="opacity:1;stroke-opacity:1"
         d="m 250.87342,81.344715 c 98.24141,0 98.24141,49.414695 196.48282,49.414695 v 2.04797 c -98.24141,0 -98.24141,-49.414697 -196.48282,-49.414697 z"
         stroke="#444444"
         fill="#ff7f00"
         stroke-width="0px"
         fill-opacity="0.75"
         id="path65" />
      <path
         class="sankey-link"
         style="opacity:1;stroke-opacity:1"
         d="m 323.03436,71.473264 c 26.08047,0 26.08047,-11.247188 52.16094,-11.247188 v 7.830683 c -26.08047,0 -26.08047,11.247187 -52.16094,11.247187 z"
         stroke="#444444"
         fill="#e41a1c"
         stroke-width="0px"
         fill-opacity="0.75"
         id="path67" />
      <path
         class="sankey-link"
         style="opacity:1;stroke-opacity:1"
         d="m 323.03436,81.70599 c 206.48282,0 206.48282,67.04945 412.96564,67.04945 v 1.30461 c -206.48282,0 -206.48282,-67.049449 -412.96564,-67.049449 z"
         stroke="#444444"
         fill="#4daf4a"
         stroke-width="0px"
         fill-opacity="0.75"
         id="path69" />
      <path
         class="sankey-link"
         style="opacity:1;stroke-opacity:1"
         d="m 323.03436,79.303946 c 98.24141,0 98.24141,8.728491 196.48282,8.728491 v 1.416271 c -98.24141,0 -98.24141,-8.728491 -196.48282,-8.728491 z"
         stroke="#444444"
         fill="#a65628"
         stroke-width="0px"
         fill-opacity="0.75"
         id="path71" />
      <path
         class="sankey-link"
         style="opacity:1;stroke-width:1px"
         d="m 323.03436,80.720217 c 62.16094,0 62.16094,-1.397232 124.32188,-1.397232 v 0.985773 c -62.16094,0 -62.16094,1.397232 -124.32188,1.397232 z"
         stroke="#a65628"
         fill="#a65628"
         fill-opacity="0.75"
         stroke-opacity="0.75"
         id="path73" />
      <path
         class="sankey-link"
         style="opacity:1;stroke-opacity:1"
         d="m 467.35624,79.188727 c 134.32188,0 134.32188,68.387933 268.64376,68.387933 v 1.12003 c -134.32188,0 -134.32188,-68.387932 -268.64376,-68.387932 z"
         stroke="#444444"
         fill="#4daf4a"
         stroke-width="0px"
         fill-opacity="0.75"
         id="path75" />
      <path
         class="sankey-link"
         style="opacity:1;stroke-width:1px"
         d="m 467.35624,79.15629 c 26.08047,0 26.08047,8.84371 52.16094,8.84371 v 0.03244 c -26.08047,0 -26.08047,-8.84371 -52.16094,-8.84371 z"
         stroke="#a65628"
         fill="#a65628"
         fill-opacity="0.75"
         stroke-opacity="0.75"
         id="path77" />
      <path
         class="sankey-link"
         style="opacity:1;stroke-width:1px"
         d="M 467.35624,79 C 601.67812,79 601.67812,63.895885 736,63.895885 v 0.15629 c -134.32188,0 -134.32188,15.104115 -268.64376,15.104115 z"
         stroke="#984ea3"
         fill="#984ea3"
         fill-opacity="0.75"
         stroke-opacity="0.75"
         id="path79" />
      <path
         class="sankey-link"
         style="opacity:1;stroke-width:1px"
         d="m 539.51718,88.005711 c 98.24141,0 98.24141,59.334459 196.48282,59.334459 v 0.23649 c -98.24141,0 -98.24141,-59.334458 -196.48282,-59.334458 z"
         stroke="#4daf4a"
         fill="#4daf4a"
         fill-opacity="0.75"
         stroke-opacity="0.75"
         id="path81" />
      <path
         class="sankey-link"
         style="opacity:1;stroke-opacity:1"
         d="m 539.51718,88.242202 c 26.08047,0 26.08047,31.276508 52.16094,31.276508 v 1.44016 c -26.08047,0 -26.08047,-31.276512 -52.16094,-31.276512 z"
         stroke="#444444"
         fill="#a65628"
         stroke-width="0px"
         fill-opacity="0.75"
         id="path83" />
      <path
         class="sankey-link"
         style="opacity:1;stroke-width:1px"
         d="m 447.35624,79.005711 h -5 A 10.005711,10.005711 0 0 1 432.35053,69 V 41.744925 a 10.005711,10.005711 0 0 1 10.00571,-10.005711 h 102.16094 a 10.005711,10.005711 0 0 1 10.00571,10.005711 V 78 a 10.005711,10.005711 0 0 1 -10.00571,10.005711 h -5 V 88 h 5 a 10,10 0 0 0 10,-10 V 41.744925 a 10,10 0 0 0 -10,-10 H 442.35624 a 10,10 0 0 0 -10,10 V 69 a 10,10 0 0 0 10,10 h 5 z"
         stroke="#a65628"
         fill="#a65628"
         fill-opacity="0.75"
         stroke-opacity="0.75"
         id="path85" />
      <path
         class="sankey-link"
         style="opacity:1;stroke-width:1px"
         d="m 611.67812,121.1442 c 62.16094,0 62.16094,27.55249 124.32188,27.55249 v 0.0588 c -62.16094,0 -62.16094,-27.55249 -124.32188,-27.55249 z"
         stroke="#4daf4a"
         fill="#4daf4a"
         fill-opacity="0.75"
         stroke-opacity="0.75"
         id="path87" />
      <path
         class="sankey-link"
         style="opacity:1;stroke-opacity:1"
         d="m 611.67812,119.51871 c 26.08047,0 26.08047,7.48129 52.16094,7.48129 v 1.62549 c -26.08047,0 -26.08047,-7.48129 -52.16094,-7.48129 z"
         stroke="#444444"
         fill="#a65628"
         stroke-width="0px"
         fill-opacity="0.75"
         id="path89" />
      <path
         class="sankey-link"
         style="opacity:1;stroke-width:1px"
         d="m 683.83906,127 c 26.08047,0 26.08047,20.23298 52.16094,20.23298 v 0.10719 c -26.08047,0 -26.08047,-20.23298 -52.16094,-20.23298 z"
         stroke="#4daf4a"
         fill="#4daf4a"
         fill-opacity="0.75"
         stroke-opacity="0.75"
         id="path91" />
      <path
         class="sankey-link"
         style="opacity:1;stroke-opacity:1"
         d="m 86.551545,67.761885 h -5 A 44.424069,44.424069 0 0 0 37.127476,112.18595 v 80.40741 a 44.424069,44.424069 0 0 0 44.424069,44.42407 H 688.83906 a 13.137093,13.137093 0 0 0 13.13709,-13.1371 v -83.63604 a 13.137093,13.137093 0 0 0 -13.13709,-13.1371 h -5 v 2.90345 h 5 a 10.23365,10.23365 0 0 1 10.23365,10.23365 v 83.63604 a 10.23365,10.23365 0 0 1 -10.23365,10.23365 H 81.551545 A 41.520626,41.520626 0 0 1 40.030919,192.59336 V 112.18595 A 41.520626,41.520626 0 0 1 81.551545,70.665328 h 5 z"
         stroke="#444444"
         fill="#a65628"
         stroke-width="0px"
         fill-opacity="0.75"
         id="path93" />
      <path
         class="sankey-link"
         style="opacity:1;stroke-width:1px"
         d="m 519.51718,89.448708 h -5 a 10.23365,10.23365 0 0 0 -10.23365,10.23365 v 88.267532 a 10.23365,10.23365 0 0 0 10.23365,10.23365 h 174.32188 a 10.23365,10.23365 0 0 0 10.23365,-10.23365 v -47.7056 a 10.23365,10.23365 0 0 0 -10.23365,-10.23365 h -5 v 0.23365 h 5 a 10,10 0 0 1 10,10 v 47.7056 a 10,10 0 0 1 -10,10 H 514.51718 a 10,10 0 0 1 -10,-10 V 99.682358 a 10,10 0 0 1 10,-10 h 5 z"
         stroke="#a65628"
         fill="#a65628"
         fill-opacity="0.75"
         stroke-opacity="0.75"
         id="path95" />
      <path
         class="sankey-link"
         style="opacity:1;stroke-width:1px"
         d="m 467.35624,130.18607 c 134.32188,0 134.32188,21.5852 268.64376,21.5852 v 0.38557 c -134.32188,0 -134.32188,-21.5852 -268.64376,-21.5852 z"
         stroke="#4daf4a"
         fill="#4daf4a"
         fill-opacity="0.75"
         stroke-opacity="0.75"
         id="path97" />
      <path
         class="sankey-link"
         style="opacity:1;stroke-opacity:1"
         d="m 86.551545,70.665328 h -5 A 41.520626,41.520626 0 0 0 40.030919,112.18595 v 80.40741 a 41.520626,41.520626 0 0 0 41.520626,41.52062 H 472.35624 a 46.164096,46.164096 0 0 0 46.1641,-46.16409 v -11.21415 a 46.164096,46.164096 0 0 0 -46.1641,-46.1641 h -5 v 31.52063 h 5 a 14.64347,14.64347 0 0 1 14.64347,14.64347 v 11.21415 a 14.64347,14.64347 0 0 1 -14.64347,14.64347 H 81.551545 a 10,10 0 0 1 -10,-10 v -80.40741 a 10,10 0 0 1 10,-10 h 5 z"
         stroke="#444444"
         fill="#ff7f00"
         stroke-width="0px"
         fill-opacity="0.75"
         id="path99" />
      <path
         class="sankey-link"
         style="opacity:1;stroke-opacity:1"
         d="m 230.87342,78.749213 h -5 a 14.64347,14.64347 0 0 0 -14.64347,14.64347 v 94.557207 a 14.64347,14.64347 0 0 0 14.64347,14.64347 h 246.48282 a 14.64347,14.64347 0 0 0 14.64347,-14.64347 v -11.21415 a 14.64347,14.64347 0 0 0 -14.64347,-14.64347 h -5 v 4.64347 h 5 a 10,10 0 0 1 10,10 v 11.21415 a 10,10 0 0 1 -10,10 H 225.87342 a 10,10 0 0 1 -10,-10 V 93.392683 a 10,10 0 0 1 10,-10 h 5 z"
         stroke="#444444"
         fill="#ff7f00"
         stroke-width="0px"
         fill-opacity="0.75"
         id="path101" />
    </g>
    <g
       class="sankey-node-set"
       id="g287">
      <g
         class="sankey-node"
         transform="translate(86.552002,159.858)"
         style="opacity:1"
         id="g116">
        <rect
           class="node-rect"
           width="20"
           height="15.257288"
           style="fill-opacity:1;stroke-opacity:1"
           stroke="#444444"
           fill="#ffa500"
           stroke-width="0.5px"
           id="rect105"
           x="0"
           y="0" />
        <rect
           class="node-capture"
           x="-10"
           y="-5.5"
           width="40"
           height="26.257288"
           fill-opacity="0"
           id="rect107" />
        <g
           class="node-entered"
           transform="translate(-1.8053327,10.173196)"
           id="g114">
          <text
             class="node-label"
             style="font-size:12px;font-family:'Open Sans', verdana, arial, sans-serif;fill-opacity:1"
             fill="#2a3f5f"
             id="text112"
             x="2.2047467"
             y="-15.031192">E_F</text>
        </g>
      </g>
      <g
         class="sankey-node"
         transform="translate(86.552002,67.762001)"
         style="opacity:1"
         id="g129">
        <rect
           class="node-rect"
           width="20"
           height="34.424068"
           style="fill-opacity:1;stroke-opacity:1"
           stroke="#444444"
           fill="#ffa500"
           stroke-width="0.5px"
           id="rect118"
           x="0"
           y="0" />
        <rect
           class="node-capture"
           x="-10"
           y="-5.5"
           width="40"
           height="45.424068"
           fill-opacity="0"
           id="rect120" />
        <g
           class="node-entered"
           transform="translate(-21.532227,-9.5707862)"
           id="g127">
          <text
             class="node-label"
             style="font-size:12px;font-family:'Open Sans', verdana, arial, sans-serif;fill-opacity:1"
             fill="#2a3f5f"
             id="text125"
             x="24"
             y="6.8087893">SG</text>
        </g>
      </g>
      <g
         class="sankey-node"
         transform="translate(736,147.233)"
         style="opacity:1"
         id="g142">
        <rect
           class="node-rect"
           width="20"
           height="4.9238577"
           style="fill-opacity:1;stroke-opacity:1"
           stroke="#444444"
           fill="#ffa500"
           stroke-width="0.5px"
           id="rect131"
           x="0"
           y="0" />
        <rect
           class="node-capture"
           x="-10"
           y="-5.5"
           width="40"
           height="15.923858"
           fill-opacity="0"
           id="rect133" />
        <g
           class="node-entered"
           transform="translate(28,5.767)"
           id="g140">
          <text
             class="node-label"
             style="font-size:12px;font-family:'Open Sans', verdana, arial, sans-serif;fill-opacity:1"
             fill="#2a3f5f"
             id="text138"
             x="-4"
             y="0">E_D</text>
        </g>
      </g>
      <g
         class="sankey-node"
         transform="translate(736,96.472)"
         style="opacity:1"
         id="g155">
        <rect
           class="node-rect"
           width="20"
           height="10.17714"
           style="fill-opacity:1;stroke-opacity:1"
           stroke="#444444"
           fill="#ffa500"
           stroke-width="0.5px"
           id="rect144"
           x="0"
           y="0" />
        <rect
           class="node-capture"
           x="-10"
           y="-5.5"
           width="40"
           height="21.177141"
           fill-opacity="0"
           id="rect146" />
        <g
           class="node-entered"
           transform="translate(28,8.528)"
           id="g153">
          <text
             class="node-label"
             style="font-size:12px;font-family:'Open Sans', verdana, arial, sans-serif;fill-opacity:1"
             fill="#2a3f5f"
             id="text151"
             x="-4"
             y="0">E_P</text>
        </g>
      </g>
      <g
         class="sankey-node"
         transform="translate(736,63.896)"
         style="opacity:1"
         id="g168">
        <rect
           class="node-rect"
           width="20"
           height="0.5"
           style="fill-opacity:1;stroke-opacity:1"
           stroke="#444444"
           fill="#ffa500"
           stroke-width="0.5px"
           id="rect157"
           x="0"
           y="0" />
        <rect
           class="node-capture"
           x="-10"
           y="-5.5"
           width="40"
           height="11.5"
           fill-opacity="0"
           id="rect159" />
        <g
           class="node-entered"
           transform="translate(28,4.1040001)"
           id="g166">
          <text
             class="node-label"
             style="font-size:12px;font-family:'Open Sans', verdana, arial, sans-serif;fill-opacity:1"
             fill="#2a3f5f"
             id="text164"
             x="-4"
             y="0">E_L</text>
        </g>
      </g>
      <g
         class="sankey-node"
         transform="translate(591.67798,119.519)"
         style="opacity:1"
         id="g181">
        <rect
           class="node-rect"
           width="20"
           height="1.6842375"
           style="fill-opacity:1;stroke-opacity:1"
           stroke="#444444"
           fill="#ffa500"
           stroke-width="0.5px"
           id="rect170"
           x="0"
           y="0" />
        <rect
           class="node-capture"
           x="-10"
           y="-5.5"
           width="40"
           height="12.684237"
           fill-opacity="0"
           id="rect172" />
        <g
           class="node-entered"
           transform="translate(-26.677985,-4.518996)"
           id="g179">
          <text
             class="node-label"
             style="font-size:12px;font-family:'Open Sans', verdana, arial, sans-serif;fill-opacity:1"
             fill="#2a3f5f"
             id="text177"
             x="24"
             y="0">FWP</text>
        </g>
      </g>
      <g
         class="sankey-node"
         transform="translate(447.356,130.186)"
         style="opacity:1"
         id="g194">
        <rect
           class="node-rect"
           width="20"
           height="36.549664"
           style="fill-opacity:1;stroke-opacity:1"
           stroke="#444444"
           fill="#ffa500"
           stroke-width="0.5px"
           id="rect183"
           x="0"
           y="0" />
        <rect
           class="node-capture"
           x="-10"
           y="-5.5"
           width="40"
           height="47.549664"
           fill-opacity="0"
           id="rect185" />
        <g
           class="node-entered"
           transform="translate(-20.580078,49.814004)"
           id="g192">
          <text
             class="node-label"
             style="font-size:12px;font-family:'Open Sans', verdana, arial, sans-serif;fill-opacity:1"
             fill="#2a3f5f"
             id="text190"
             x="24"
             y="0">SF</text>
        </g>
      </g>
      <g
         class="sankey-node"
         transform="translate(158.71201,64.377998)"
         style="opacity:1"
         id="g207">
        <rect
           class="node-rect"
           width="20"
           height="14.946552"
           style="fill-opacity:1;stroke-opacity:1"
           stroke="#444444"
           fill="#ffa500"
           stroke-width="0.5px"
           id="rect196"
           x="0"
           y="0" />
        <rect
           class="node-capture"
           x="-10"
           y="-5.5"
           width="40"
           height="25.946552"
           fill-opacity="0"
           id="rect198" />
        <g
           class="node-entered"
           transform="translate(-25.712015,-4.377994)"
           id="g205">
          <text
             class="node-label"
             style="font-size:12px;font-family:'Open Sans', verdana, arial, sans-serif;fill-opacity:1"
             fill="#2a3f5f"
             id="text203"
             x="24"
             y="0">HPT</text>
        </g>
      </g>
      <g
         class="sankey-node"
         transform="translate(230.873,69.414001)"
         style="opacity:1"
         id="g220">
        <rect
           class="node-rect"
           width="20"
           height="13.978563"
           style="fill-opacity:1;stroke-opacity:1"
           stroke="#444444"
           fill="#ffa500"
           stroke-width="0.5px"
           id="rect209"
           x="0"
           y="0" />
        <rect
           class="node-capture"
           x="-10"
           y="-5.5"
           width="40"
           height="24.978563"
           fill-opacity="0"
           id="rect211" />
        <g
           class="node-entered"
           transform="translate(-22.144531,-8.413997)"
           id="g218">
          <text
             class="node-label"
             style="font-size:12px;font-family:'Open Sans', verdana, arial, sans-serif;fill-opacity:1"
             fill="#2a3f5f"
             id="text216"
             x="24"
             y="0">RH</text>
        </g>
      </g>
      <g
         class="sankey-node"
         transform="translate(303.034,71.473)"
         style="opacity:1"
         id="g233">
        <rect
           class="node-rect"
           width="20"
           height="11.537337"
           style="fill-opacity:1;stroke-opacity:1"
           stroke="#444444"
           fill="#ffa500"
           stroke-width="0.5px"
           id="rect222"
           x="0"
           y="0" />
        <rect
           class="node-capture"
           x="-10"
           y="-5.5"
           width="40"
           height="22.537338"
           fill-opacity="0"
           id="rect224" />
        <g
           class="node-entered"
           transform="translate(-24.579102,-16.472996)"
           id="g231">
          <text
             class="node-label"
             style="font-size:12px;font-family:'Open Sans', verdana, arial, sans-serif;fill-opacity:1"
             fill="#2a3f5f"
             id="text229"
             x="24"
             y="0">LPT</text>
        </g>
      </g>
      <g
         class="sankey-node"
         transform="translate(375.19501,56.744999)"
         style="opacity:1"
         id="g246">
        <rect
           class="node-rect"
           width="20"
           height="11.311834"
           style="fill-opacity:1;stroke-opacity:1"
           stroke="#444444"
           fill="#ffa500"
           stroke-width="0.5px"
           id="rect235"
           x="0"
           y="0" />
        <rect
           class="node-capture"
           x="-10"
           y="-5.5"
           width="40"
           height="22.311834"
           fill-opacity="0"
           id="rect237" />
        <g
           class="node-entered"
           transform="translate(-35.195015,-6.744995)"
           id="g244">
          <text
             class="node-label"
             style="font-size:12px;font-family:'Open Sans', verdana, arial, sans-serif;fill-opacity:1"
             fill="#2a3f5f"
             id="text242"
             x="24"
             y="0">total output power</text>
        </g>
      </g>
      <g
         class="sankey-node"
         transform="translate(447.35599,79)"
         style="opacity:1"
         id="g259">
        <rect
           class="node-rect"
           width="20"
           height="1.3087581"
           style="fill-opacity:1;stroke-opacity:1"
           stroke="#444444"
           fill="#ffa500"
           stroke-width="0.5px"
           id="rect248"
           x="0"
           y="0" />
        <rect
           class="node-capture"
           x="-10"
           y="-5.5"
           width="40"
           height="12.308758"
           fill-opacity="0"
           id="rect250" />
        <g
           class="node-entered"
           transform="translate(-23.625826,11.691509)"
           id="g257">
          <text
             class="node-label"
             style="font-size:12px;font-family:'Open Sans', verdana, arial, sans-serif;fill-opacity:1"
             fill="#2a3f5f"
             id="text255"
             x="24.001802"
             y="1.308495">CW</text>
        </g>
      </g>
      <g
         class="sankey-node"
         transform="translate(519.51703,88)"
         style="opacity:1"
         id="g272">
        <rect
           class="node-rect"
           width="20"
           height="1.6823575"
           style="fill-opacity:1;stroke-opacity:1"
           stroke="#444444"
           fill="#ffa500"
           stroke-width="0.5px"
           id="rect261"
           x="0"
           y="0" />
        <rect
           class="node-capture"
           x="-10"
           y="-5.5"
           width="40"
           height="12.682358"
           fill-opacity="0"
           id="rect263" />
        <g
           class="node-entered"
           transform="translate(-24.620117,14.000004)"
           id="g270">
          <text
             class="node-label"
             style="font-size:12px;font-family:'Open Sans', verdana, arial, sans-serif;fill-opacity:1"
             fill="#2a3f5f"
             id="text268"
             x="24"
             y="0">LPP</text>
        </g>
      </g>
      <g
         class="sankey-node"
         transform="translate(663.83899,127)"
         style="opacity:1"
         id="g285">
        <rect
           class="node-rect"
           width="20"
           height="3.2442853"
           style="fill-opacity:1;stroke-opacity:1"
           stroke="#444444"
           fill="#ffa500"
           stroke-width="0.5px"
           id="rect274"
           x="0"
           y="0" />
        <rect
           class="node-capture"
           x="-10"
           y="-5.5"
           width="40"
           height="14.244286"
           fill-opacity="0"
           id="rect276" />
        <g
           class="node-entered"
           transform="translate(-25.894715,-3.133722)"
           id="g283">
          <text
             class="node-label"
             style="font-size:12px;font-family:'Open Sans', verdana, arial, sans-serif;fill-opacity:1"
             fill="#2a3f5f"
             id="text281"
             x="24.055719"
             y="-0.866274">HPP</text>
        </g>
      </g>
    </g>
  </g>
</svg>
