<?xml version="1.0" encoding="UTF-8" standalone="no"?>
<svg
   width="160mm"
   height="120mm"
   id="svg2"
   version="1.1"
   inkscape:version="1.3.2 (091e20e, 2023-11-25, custom)"
   sodipodi:docname="about_tespy_darkmode.svg"
   inkscape:export-xdpi="500"
   inkscape:export-ydpi="500"
   xml:space="preserve"
   inkscape:export-filename="logo_Stofttasche.png"
   xmlns:inkscape="http://www.inkscape.org/namespaces/inkscape"
   xmlns:sodipodi="http://sodipodi.sourceforge.net/DTD/sodipodi-0.dtd"
   xmlns:xlink="http://www.w3.org/1999/xlink"
   xmlns="http://www.w3.org/2000/svg"
   xmlns:svg="http://www.w3.org/2000/svg"
   xmlns:rdf="http://www.w3.org/1999/02/22-rdf-syntax-ns#"
   xmlns:cc="http://creativecommons.org/ns#"
   xmlns:dc="http://purl.org/dc/elements/1.1/"><defs
     id="defs4"><inkscape:path-effect
       effect="spiro"
       id="path-effect4646"
       is_visible="true"
       lpeversion="0" /><inkscape:path-effect
       effect="spiro"
       id="path-effect4642"
       is_visible="true"
       lpeversion="0" /><inkscape:path-effect
       effect="spiro"
       id="path-effect4638"
       is_visible="true"
       lpeversion="0" /><inkscape:path-effect
       effect="spiro"
       id="path-effect3273"
       is_visible="true"
       lpeversion="0" /><inkscape:path-effect
       effect="spiro"
       id="path-effect3265"
       is_visible="true"
       lpeversion="0" /><inkscape:path-effect
       effect="spiro"
       id="path-effect3261"
       is_visible="true"
       lpeversion="0" /><inkscape:path-effect
       effect="spiro"
       id="path-effect3257"
       is_visible="true"
       lpeversion="0" /><linearGradient
       id="linearGradient3960"><stop
         id="stop3972"
         offset="0"
         style="stop-color:#55d400;stop-opacity:0.74901961;" /><stop
         id="stop3970"
         offset="0.5"
         style="stop-color:#55d400;stop-opacity:0.49803922;" /><stop
         style="stop-color:#39d400;stop-opacity:0.24705882;"
         offset="0.75"
         id="stop3976" /><stop
         id="stop3980"
         offset="0.875"
         style="stop-color:#94d400;stop-opacity:0.24705882;" /><stop
         id="stop3978"
         offset="1"
         style="stop-color:#efd400;stop-opacity:0.24705882;" /></linearGradient><marker
       inkscape:stockid="Arrow2Lstart"
       orient="auto"
       refY="0"
       refX="0"
       id="Arrow2Lstart"
       style="overflow:visible"><path
         id="path4366"
         style="fill-rule:evenodd;stroke-width:0.625;stroke-linejoin:round"
         d="M 8.7185878,4.0337352 -2.2072895,0.01601326 8.7185884,-4.0017078 c -1.7454984,2.3720609 -1.7354408,5.6174519 -6e-7,8.035443 z"
         transform="matrix(1.1,0,0,1.1,1.1,0)"
         inkscape:connector-curvature="0" /></marker><marker
       inkscape:stockid="EmptyDiamondL"
       orient="auto"
       refY="0"
       refX="0"
       id="EmptyDiamondL"
       style="overflow:visible"><path
         id="path4454"
         d="M 0,-7.0710768 -7.0710894,0 0,7.0710589 7.0710462,0 Z"
         style="fill:#ffffff;fill-rule:evenodd;stroke:#000000;stroke-width:1pt"
         transform="scale(0.8)"
         inkscape:connector-curvature="0" /></marker><marker
       inkscape:stockid="DiamondSstart"
       orient="auto"
       refY="0"
       refX="0"
       id="DiamondSstart"
       style="overflow:visible"><path
         id="path4442"
         d="M 0,-7.0710768 -7.0710894,0 0,7.0710589 7.0710462,0 Z"
         style="fill-rule:evenodd;stroke:#000000;stroke-width:1pt"
         transform="matrix(0.2,0,0,0.2,1.2,0)"
         inkscape:connector-curvature="0" /></marker><marker
       inkscape:stockid="Arrow1Lstart"
       orient="auto"
       refY="0"
       refX="0"
       id="Arrow1Lstart"
       style="overflow:visible"><path
         id="path4348"
         d="M 0,0 5,-5 -12.5,0 5,5 Z"
         style="fill-rule:evenodd;stroke:#000000;stroke-width:1pt"
         transform="matrix(0.8,0,0,0.8,10,0)"
         inkscape:connector-curvature="0" /></marker><marker
       inkscape:stockid="SquareL"
       orient="auto"
       refY="0"
       refX="0"
       id="SquareL"
       style="overflow:visible"><path
         id="path4418"
         d="M -5,-5 V 5 H 5 V -5 Z"
         style="fill-rule:evenodd;stroke:#000000;stroke-width:1pt"
         transform="scale(0.8)"
         inkscape:connector-curvature="0" /></marker><inkscape:perspective
       sodipodi:type="inkscape:persp3d"
       inkscape:vp_x="-105.05586 : -112.2893 : 1"
       inkscape:vp_y="0 : 1000 : 0"
       inkscape:vp_z="1150 : 368.54328 : 1"
       inkscape:persp3d-origin="575 : 301.87668 : 1"
       id="perspective4087" /><radialGradient
       r="97.496925"
       fy="188.21428"
       fx="236.78572"
       cy="188.21428"
       cx="236.78572"
       gradientTransform="translate(-139.2888,-90.7174)"
       gradientUnits="userSpaceOnUse"
       id="radialGradient3013"
       xlink:href="#linearGradient3684-76"
       inkscape:collect="always" /><radialGradient
       r="97.496925"
       fy="188.21428"
       fx="236.78572"
       cy="188.21428"
       cx="236.78572"
       gradientTransform="translate(-90.4365,1338.3028)"
       gradientUnits="userSpaceOnUse"
       id="radialGradient3004"
       xlink:href="#linearGradient3684-76"
       inkscape:collect="always" /><linearGradient
       id="linearGradient3684-76"><stop
         offset="0"
         style="stop-color:#000000;stop-opacity:1"
         id="stop3686-14" /><stop
         offset="0.89795917"
         style="stop-color:#000000;stop-opacity:0.86666667"
         id="stop3692-23" /><stop
         offset="1"
         style="stop-color:#000000;stop-opacity:0"
         id="stop3688-2" /></linearGradient><radialGradient
       gradientTransform="translate(-90.4365,1338.3028)"
       gradientUnits="userSpaceOnUse"
       xlink:href="#linearGradient3684-76"
       id="radialGradient4894"
       fy="188.21428"
       fx="236.78572"
       r="97.496925"
       cy="188.21428"
       cx="236.78572" /><inkscape:path-effect
       effect="spiro"
       id="path-effect3273-8"
       is_visible="true"
       lpeversion="0" /><inkscape:path-effect
       effect="spiro"
       id="path-effect3273-3"
       is_visible="true"
       lpeversion="0" /><inkscape:path-effect
       effect="spiro"
       id="path-effect3273-3-6"
       is_visible="true"
       lpeversion="0" /><inkscape:path-effect
       effect="spiro"
       id="path-effect3273-3-0"
       is_visible="true"
       lpeversion="0" /><inkscape:path-effect
       effect="spiro"
       id="path-effect3273-3-0-5"
       is_visible="true"
       lpeversion="0" /><inkscape:path-effect
       effect="spiro"
       id="path-effect3273-3-0-6"
       is_visible="true"
       lpeversion="0" /><inkscape:path-effect
       effect="spiro"
       id="path-effect3273-2"
       is_visible="true"
       lpeversion="0" /><inkscape:path-effect
       effect="spiro"
       id="path-effect3273-8-0"
       is_visible="true"
       lpeversion="0" /><inkscape:path-effect
       effect="spiro"
       id="path-effect3273-3-1"
       is_visible="true"
       lpeversion="0" /><inkscape:path-effect
       effect="spiro"
       id="path-effect3273-3-6-7"
       is_visible="true"
       lpeversion="0" /><inkscape:path-effect
       effect="spiro"
       id="path-effect3273-3-0-8"
       is_visible="true"
       lpeversion="0" /><inkscape:path-effect
       effect="spiro"
       id="path-effect3273-3-0-5-1"
       is_visible="true"
       lpeversion="0" /><inkscape:path-effect
       effect="spiro"
       id="path-effect3273-3-0-6-5"
       is_visible="true"
       lpeversion="0" /><ellipse
       transform="matrix(-1.655217,1.5156218,-1.8633661,-2.0349941,554.10899,812.95323)"
       id="path3981-2-1-6-7-5-0-3-3-9"
       style="display:inline;fill:none;stroke:none"
       cx="-36.96954"
       cy="-68.571419"
       rx="43.030457"
       ry="35" /><inkscape:path-effect
       effect="spiro"
       id="path-effect3273-9"
       is_visible="true"
       lpeversion="0" /><inkscape:path-effect
       effect="spiro"
       id="path-effect3273-8-3"
       is_visible="true"
       lpeversion="0" /><inkscape:path-effect
       effect="spiro"
       id="path-effect3273-3-2"
       is_visible="true"
       lpeversion="0" /><inkscape:path-effect
       effect="spiro"
       id="path-effect3273-3-6-0"
       is_visible="true"
       lpeversion="0" /><inkscape:path-effect
       effect="spiro"
       id="path-effect3273-3-0-1"
       is_visible="true"
       lpeversion="0" /><inkscape:path-effect
       effect="spiro"
       id="path-effect3273-3-0-5-8"
       is_visible="true"
       lpeversion="0" /><inkscape:path-effect
       effect="spiro"
       id="path-effect3273-3-0-6-3"
       is_visible="true"
       lpeversion="0" /></defs><sodipodi:namedview
     id="base"
     pagecolor="#ffffff"
     bordercolor="#666666"
     borderopacity="1.0"
     inkscape:pageopacity="0.0"
     inkscape:pageshadow="2"
     inkscape:zoom="1.9854774"
     inkscape:cx="333.16924"
     inkscape:cy="164.44408"
     inkscape:document-units="mm"
     inkscape:current-layer="layer1"
     showgrid="true"
     inkscape:window-width="3840"
     inkscape:window-height="2054"
     inkscape:window-x="4309"
     inkscape:window-y="-11"
     inkscape:window-maximized="1"
     showguides="true"
     inkscape:guide-bbox="true"
     width="1150px"
     inkscape:snap-center="true"
     inkscape:document-rotation="0"
     inkscape:object-paths="true"
     inkscape:snap-intersection-paths="true"
     inkscape:snap-bbox="true"
     inkscape:snap-object-midpoints="true"
     inkscape:snap-bbox-midpoints="true"
     inkscape:bbox-nodes="true"
     inkscape:bbox-paths="true"
     inkscape:snap-bbox-edge-midpoints="true"
     inkscape:snap-smooth-nodes="true"
     inkscape:showpageshadow="2"
     inkscape:pagecheckerboard="0"
     inkscape:deskcolor="#d1d1d1"><sodipodi:guide
       orientation="1,0"
       position="-13.148004,1805.8256"
       id="guide3070"
       inkscape:locked="false" /><sodipodi:guide
       orientation="0,1"
       position="800.81656,175.75687"
       id="guide3098"
       inkscape:locked="false" /><sodipodi:guide
       orientation="1,0"
       position="316.23843,1785.239"
       id="guide3121"
       inkscape:locked="false" /><sodipodi:guide
       orientation="1,0"
       position="1321.8172,1910.3425"
       id="guide3065"
       inkscape:locked="false" /><sodipodi:guide
       orientation="1,0"
       position="800.81656,1804.2421"
       id="guide3067"
       inkscape:locked="false" /><sodipodi:guide
       orientation="0,1"
       position="1047.8564,1470.1048"
       id="guide3069"
       inkscape:locked="false" /><sodipodi:guide
       orientation="1,0"
       position="525.27213,1959.4337"
       id="guide3073"
       inkscape:locked="false" /><sodipodi:guide
       orientation="1,0"
       position="837.2391,1848.5825"
       id="guide3075"
       inkscape:locked="false" /><inkscape:grid
       type="xygrid"
       id="grid936"
       originx="0"
       originy="0"
       spacingy="18.897638"
       spacingx="18.897638"
       units="mm"
       visible="true"
       dotted="false"
       snapvisiblegridlinesonly="true" /></sodipodi:namedview><metadata
     id="metadata7"><rdf:RDF><cc:Work
         rdf:about=""><dc:format>image/svg+xml</dc:format><dc:type
           rdf:resource="http://purl.org/dc/dcmitype/StillImage" /></cc:Work></rdf:RDF></metadata><g
     inkscape:label="Ebene 1"
     inkscape:groupmode="layer"
     id="layer1"
     transform="translate(-11.564416,-776.28492)"
     style="display:inline"><g
       transform="matrix(0.91666939,0.00891669,-0.008729,0.91623053,14.672869,82.666835)"
       id="g3831-9-3-1-6-3"
       style="display:inline;fill:none;stroke:#cfcfcf;stroke-width:1.46722;stroke-linecap:round;stroke-miterlimit:4;stroke-dasharray:none;stroke-opacity:1" /><g
       id="g4"
       style="fill:#cfd0d0;fill-opacity:1"><g
         id="text3020-0"
         style="font-size:7.36223px;line-height:0%;letter-spacing:0px;word-spacing:0px;stroke-width:1.27833;fill:#cfd0d0;fill-opacity:1"
         aria-label="open energy modelling framework"
         transform="matrix(0.78226732,0,0,0.78226732,18.266529,152.0255)"><path
           style="font-weight:600;font-size:41.7193px;line-height:1.25;font-family:FreeSans;-inkscape-font-specification:'FreeSans Semi-Bold';stroke-width:1.27833;fill:#cfd0d0;fill-opacity:1"
           d="m 36.62044,1332.8015 q 0,5.6427 -3.300062,8.902 -3.279691,3.239 -9.22795,3.239 -5.94826,0 -9.248321,-3.239 -3.279691,-3.2593 -3.279691,-8.902 0,-5.6834 3.300061,-8.9224 3.320433,-3.2389 9.227951,-3.2389 5.989001,0 9.248321,3.2593 3.279691,3.2593 3.279691,8.902 z m -9.024243,5.5612 q 0.712977,-0.8759 1.059279,-2.0982 0.366674,-1.2426 0.366674,-3.4223 0,-2.0167 -0.366674,-3.3815 -0.366673,-1.3648 -1.018537,-2.1797 -0.651864,-0.8352 -1.568548,-1.1815 -0.916684,-0.3463 -1.975963,-0.3463 -1.059279,0 -1.89448,0.2852 -0.81483,0.2852 -1.568548,1.1408 -0.672235,0.7944 -1.07965,2.1796 -0.387044,1.3853 -0.387044,3.4834 0,1.8742 0.346303,3.2594 0.346303,1.3648 1.018537,2.2 0.651864,0.7945 1.548178,1.1611 0.916683,0.3667 2.077816,0.3667 0.998167,0 1.89448,-0.3259 0.916684,-0.3463 1.548177,-1.1408 z"
           id="path1" /><path
           style="font-size:41.7193px;line-height:1.25;font-family:FreeSans;-inkscape-font-specification:FreeSans;stroke-width:1.27833;fill:#cfd0d0;fill-opacity:1"
           d="m 62.206105,1332.5774 q 0,2.7704 -0.79446,5.0723 -0.794459,2.2816 -2.240782,3.8705 -1.34447,1.5074 -3.177837,2.3426 -1.812997,0.8148 -3.850073,0.8148 -1.772255,0 -3.218578,-0.387 -1.425953,-0.387 -2.913018,-1.2019 v 9.5335 h -3.829701 v -31.1468 h 3.829701 v 2.3833 q 1.527807,-1.2833 3.422286,-2.1389 1.914851,-0.8759 4.074151,-0.8759 4.114892,0 6.396416,3.1167 2.301895,3.0963 2.301895,8.6168 z m -3.951926,0.1019 q 0,-4.1149 -1.405582,-6.152 -1.405582,-2.0371 -4.318599,-2.0371 -1.650031,0 -3.320433,0.713 -1.670401,0.713 -3.198208,1.8741 v 12.8947 q 1.62966,0.7334 2.790793,0.9982 1.181504,0.2648 2.668569,0.2648 3.198208,0 4.990834,-2.1593 1.792626,-2.1593 1.792626,-6.3964 z m 28.967206,0.5704 H 70.456256 q 0,2.0981 0.631494,3.6667 0.631493,1.5482 1.731514,2.5463 1.059279,0.9778 2.505602,1.4667 1.466694,0.4889 3.218579,0.4889 2.322265,0 4.664902,-0.9167 2.363007,-0.937 3.361174,-1.8333 h 0.203707 v 4.176 q -1.935221,0.8148 -3.951925,1.3648 -2.016705,0.55 -4.237117,0.55 -5.663069,0 -8.840906,-3.0556 -3.177837,-3.076 -3.177837,-8.7187 0,-5.5815 3.035242,-8.8612 3.055613,-3.2797 8.026076,-3.2797 4.60379,0 7.089022,2.6889 2.505602,2.6889 2.505602,7.639 z m -3.727848,-2.9334 q -0.02037,-3.0149 -1.527806,-4.6649 -1.487065,-1.6501 -4.542678,-1.6501 -3.075983,0 -4.909351,1.813 -1.812997,1.813 -2.057446,4.502 z m 28.559793,13.9132 h -3.8297 v -12.9558 q 0,-1.5686 -0.18334,-2.9334 -0.18333,-1.3852 -0.67223,-2.1593 -0.50927,-0.8556 -1.46669,-1.263 -0.95743,-0.4278 -2.48524,-0.4278 -1.56854,0 -3.27969,0.7741 -1.711141,0.7741 -3.279689,1.976 v 16.9892 H 93.02705 v -22.7541 h 3.829701 v 2.5259 q 1.792626,-1.487 3.707479,-2.3222 1.91485,-0.8352 3.93155,-0.8352 3.68711,0 5.62233,2.2204 1.93522,2.2204 1.93522,6.3964 z"
           id="path2" /><path
           style="font-weight:600;font-size:41.7193px;line-height:1.25;font-family:FreeSans;-inkscape-font-specification:'FreeSans Semi-Bold';stroke-width:1.27833;fill:#cfd0d0;fill-opacity:1"
           d="m 156.31898,1334.146 h -16.7855 q 0.16296,2.6889 2.03707,4.1149 1.89448,1.4259 5.56122,1.4259 2.32226,0 4.50193,-0.8352 2.17967,-0.8352 3.44266,-1.7926 h 0.81483 v 5.8871 q -2.48523,0.9982 -4.68527,1.4464 -2.20004,0.4481 -4.86861,0.4481 -6.88532,0 -10.55205,-3.0963 -3.66674,-3.0964 -3.66674,-8.8206 0,-5.663 3.46303,-8.9631 3.4834,-3.3204 9.53351,-3.3204 5.58159,0 8.39275,2.8315 2.81117,2.8112 2.81117,8.1076 z m -7.29273,-4.2983 q -0.0611,-2.3019 -1.14076,-3.463 -1.07965,-1.1611 -3.36118,-1.1611 -2.11856,0 -3.4834,1.1 -1.36484,1.1 -1.5278,3.5241 z"
           id="path3" /><path
           style="font-size:41.7193px;line-height:1.25;font-family:FreeSans;-inkscape-font-specification:FreeSans;stroke-width:1.27833;fill:#cfd0d0;fill-opacity:1"
           d="m 180.82499,1344.2295 h -3.8297 v -12.9558 q 0,-1.5686 -0.18334,-2.9334 -0.18333,-1.3852 -0.67223,-2.1593 -0.50927,-0.8556 -1.4667,-1.263 -0.95742,-0.4278 -2.48523,-0.4278 -1.56854,0 -3.27969,0.7741 -1.71114,0.7741 -3.27969,1.976 v 16.9892 h -3.8297 v -22.7541 h 3.8297 v 2.5259 q 1.79263,-1.487 3.70748,-2.3222 1.91485,-0.8352 3.93155,-0.8352 3.68711,0 5.62233,2.2204 1.93522,2.2204 1.93522,6.3964 z m 26.42087,-10.9798 h -16.76513 q 0,2.0981 0.63149,3.6667 0.6315,1.5482 1.73152,2.5463 1.05928,0.9778 2.5056,1.4667 1.4667,0.4889 3.21858,0.4889 2.32227,0 4.6649,-0.9167 2.36301,-0.937 3.36118,-1.8333 h 0.2037 v 4.176 q -1.93522,0.8148 -3.95192,1.3648 -2.01671,0.55 -4.23712,0.55 -5.66307,0 -8.8409,-3.0556 -3.17784,-3.076 -3.17784,-8.7187 0,-5.5815 3.03524,-8.8612 3.05561,-3.2797 8.02608,-3.2797 4.60379,0 7.08902,2.6889 2.5056,2.6889 2.5056,7.639 z m -3.72785,-2.9334 q -0.0204,-3.0149 -1.5278,-4.6649 -1.48707,-1.6501 -4.54268,-1.6501 -3.07598,0 -4.90935,1.813 -1.813,1.813 -2.05745,4.502 z m 23.73192,-4.6649 h -0.20371 q -0.85557,-0.2037 -1.6704,-0.2852 -0.79446,-0.1019 -1.89448,-0.1019 -1.77225,0 -3.42228,0.7945 -1.65003,0.7741 -3.17784,2.0167 v 16.154 h -3.8297 v -22.7541 h 3.8297 v 3.3611 q 2.28152,-1.8333 4.01304,-2.587 1.75188,-0.7741 3.56488,-0.7741 0.99817,0 1.44632,0.061 0.44816,0.041 1.34447,0.1833 z m 22.06154,15.991 q 0,5.7853 -2.62783,8.4946 -2.62783,2.7093 -8.08719,2.7093 -1.813,0 -3.54451,-0.2648 -1.71114,-0.2444 -3.38155,-0.713 v -3.9112 h 0.20371 q 0.93706,0.3667 2.97413,0.8964 2.03708,0.55 4.07415,0.55 1.95559,0 3.23895,-0.4686 1.28336,-0.4685 1.99633,-1.3037 0.71298,-0.7945 1.01854,-1.9148 0.30556,-1.1204 0.30556,-2.5056 v -2.0779 q -1.73151,1.3852 -3.32043,2.0779 -1.56855,0.6722 -4.01304,0.6722 -4.07415,0 -6.4779,-2.9334 -2.38337,-2.9538 -2.38337,-8.3113 0,-2.9334 0.81483,-5.0519 0.8352,-2.1389 2.26115,-3.6871 1.3241,-1.4463 3.21858,-2.2408 1.89448,-0.8148 3.76859,-0.8148 1.97596,0 3.30006,0.4074 1.34447,0.387 2.83153,1.2019 l 0.24445,-0.9778 h 3.58526 z m -3.82971,-3.6667 v -12.4058 q -1.5278,-0.6926 -2.8519,-0.9778 -1.30373,-0.3056 -2.60746,-0.3056 -3.15746,0 -4.97046,2.1186 -1.813,2.1185 -1.813,6.152 0,3.8297 1.34447,5.8056 1.34447,1.976 4.4612,1.976 1.6704,0 3.3408,-0.6315 1.69077,-0.6519 3.09635,-1.7315 z m 31.04502,-16.5003 -13.28173,31.1468 h -4.09452 l 4.23712,-9.4927 -9.06499,-21.6541 h 4.15564 l 6.98716,16.8669 7.04828,-16.8669 z"
           id="path4" /><path
           style="font-weight:600;font-size:41.7193px;line-height:1.25;font-family:FreeSans;-inkscape-font-specification:'FreeSans Semi-Bold';stroke-width:1.27833;fill:#cfd0d0;fill-opacity:1"
           d="m 318.26645,1328.0144 v 16.2151 h -7.37421 v -11.428 q 0,-1.6704 -0.0815,-2.8315 -0.0815,-1.1815 -0.44816,-1.9149 -0.36667,-0.7333 -1.12039,-1.0593 -0.73335,-0.3463 -2.07782,-0.3463 -1.07965,0 -2.09818,0.4482 -1.01854,0.4278 -1.83337,0.9167 v 16.2151 h -7.33347 v -22.8764 h 7.33347 v 2.526 q 1.89448,-1.4871 3.62599,-2.3223 1.73152,-0.8352 3.8297,-0.8352 2.26116,0 3.99267,1.0186 1.73151,0.9981 2.70931,2.9537 2.20004,-1.8537 4.27786,-2.913 2.07782,-1.0593 4.07415,-1.0593 3.70748,0 5.62233,2.2205 1.93522,2.2204 1.93522,6.3964 v 14.891 h -7.37421 v -11.428 q 0,-1.6908 -0.0815,-2.8519 -0.0611,-1.1611 -0.42778,-1.8945 -0.34631,-0.7333 -1.10002,-1.0593 -0.75372,-0.3463 -2.11856,-0.3463 -0.91669,0 -1.79263,0.326 -0.87594,0.3055 -2.13893,1.0389 z m 45.16194,4.7871 q 0,5.6427 -3.30006,8.902 -3.27969,3.239 -9.22795,3.239 -5.94826,0 -9.24832,-3.239 -3.27969,-3.2593 -3.27969,-8.902 0,-5.6834 3.30006,-8.9224 3.32043,-3.2389 9.22795,-3.2389 5.989,0 9.24832,3.2593 3.27969,3.2593 3.27969,8.902 z m -9.02424,5.5612 q 0.71298,-0.8759 1.05928,-2.0982 0.36667,-1.2426 0.36667,-3.4223 0,-2.0167 -0.36667,-3.3815 -0.36667,-1.3648 -1.01854,-2.1797 -0.65186,-0.8352 -1.56855,-1.1815 -0.91668,-0.3463 -1.97596,-0.3463 -1.05928,0 -1.89448,0.2852 -0.81483,0.2852 -1.56855,1.1408 -0.67223,0.7944 -1.07965,2.1796 -0.38704,1.3853 -0.38704,3.4834 0,1.8742 0.3463,3.2594 0.3463,1.3648 1.01854,2.2 0.65186,0.7945 1.54818,1.1611 0.91668,0.3667 2.07781,0.3667 0.99817,0 1.89448,-0.3259 0.91669,-0.3463 1.54818,-1.1408 z"
           id="path5" /><path
           style="font-size:41.7193px;line-height:1.25;font-family:FreeSans;-inkscape-font-specification:FreeSans;stroke-width:1.27833;fill:#cfd0d0;fill-opacity:1"
           d="m 387.44553,1344.2295 h -3.8297 v -2.3834 q -1.65003,1.426 -3.44266,2.2204 -1.79263,0.7945 -3.89081,0.7945 -4.07415,0 -6.4779,-3.1371 -2.38338,-3.1371 -2.38338,-8.6983 0,-2.8927 0.81483,-5.1538 0.8352,-2.2612 2.24078,-3.8501 1.38521,-1.5482 3.21858,-2.363 1.85374,-0.8148 3.8297,-0.8148 1.79263,0 3.17784,0.387 1.38521,0.3667 2.91302,1.1611 v -9.8594 h 3.8297 z m -3.8297,-5.602 v -13.0576 q -1.54818,-0.6926 -2.77042,-0.9574 -1.22225,-0.2649 -2.66857,-0.2649 -3.21858,0 -5.01121,2.2408 -1.79262,2.2408 -1.79262,6.3557 0,4.0538 1.38521,6.1723 1.38521,2.0982 4.44082,2.0982 1.62966,0 3.30006,-0.713 1.6704,-0.7333 3.11673,-1.8741 z m 30.41352,-5.3778 h -16.76513 q 0,2.0981 0.6315,3.6667 0.63149,1.5482 1.73151,2.5463 1.05928,0.9778 2.5056,1.4667 1.4667,0.4889 3.21858,0.4889 2.32227,0 4.66491,-0.9167 2.363,-0.937 3.36117,-1.8333 h 0.20371 v 4.176 q -1.93522,0.8148 -3.95193,1.3648 -2.0167,0.55 -4.23712,0.55 -5.66306,0 -8.8409,-3.0556 -3.17784,-3.076 -3.17784,-8.7187 0,-5.5815 3.03524,-8.8612 3.05562,-3.2797 8.02608,-3.2797 4.60379,0 7.08902,2.6889 2.5056,2.6889 2.5056,7.639 z m -3.72784,-2.9334 q -0.0204,-3.0149 -1.52781,-4.6649 -1.48707,-1.6501 -4.54268,-1.6501 -3.07598,0 -4.90935,1.813 -1.813,1.813 -2.05745,4.502 z m 13.40396,13.9132 h -3.8297 v -31.6969 h 3.8297 z m 11.44836,0 h -3.8297 v -31.6969 h 3.8297 z m 11.69282,-26.5635 h -4.3186 v -3.9723 h 4.3186 z m -0.24445,26.5635 h -3.8297 v -22.7541 h 3.8297 z m 26.60417,0 h -3.8297 v -12.9558 q 0,-1.5686 -0.18334,-2.9334 -0.18333,-1.3852 -0.67223,-2.1593 -0.50927,-0.8556 -1.4667,-1.263 -0.95742,-0.4278 -2.48523,-0.4278 -1.56855,0 -3.27969,0.7741 -1.71114,0.7741 -3.27969,1.976 v 16.9892 h -3.8297 v -22.7541 h 3.8297 v 2.5259 q 1.79263,-1.487 3.70748,-2.3222 1.91485,-0.8352 3.93155,-0.8352 3.68711,0 5.62233,2.2204 1.93522,2.2204 1.93522,6.3964 z m 25.83013,-2.5871 q 0,5.7853 -2.62783,8.4946 -2.62782,2.7093 -8.08718,2.7093 -1.813,0 -3.54451,-0.2648 -1.71115,-0.2444 -3.38155,-0.713 v -3.9112 h 0.20371 q 0.93705,0.3667 2.97413,0.8964 2.03707,0.55 4.07415,0.55 1.95559,0 3.23895,-0.4686 1.28336,-0.4685 1.99633,-1.3037 0.71298,-0.7945 1.01854,-1.9148 0.30556,-1.1204 0.30556,-2.5056 v -2.0779 q -1.73151,1.3852 -3.32043,2.0779 -1.56855,0.6722 -4.01304,0.6722 -4.07415,0 -6.4779,-2.9334 -2.38338,-2.9538 -2.38338,-8.3113 0,-2.9334 0.81483,-5.0519 0.8352,-2.1389 2.26116,-3.6871 1.3241,-1.4463 3.21858,-2.2408 1.89448,-0.8148 3.76858,-0.8148 1.97597,0 3.30007,0.4074 1.34447,0.387 2.83153,1.2019 l 0.24445,-0.9778 h 3.58525 z m -3.8297,-3.6667 v -12.4058 q -1.52781,-0.6926 -2.8519,-0.9778 -1.30373,-0.3056 -2.60746,-0.3056 -3.15747,0 -4.97046,2.1186 -1.813,2.1185 -1.813,6.152 0,3.8297 1.34447,5.8056 1.34447,1.976 4.46119,1.976 1.6704,0 3.34081,-0.6315 1.69077,-0.6519 3.09635,-1.7315 z"
           id="path6" /><path
           style="font-weight:600;font-size:41.7193px;line-height:1.25;font-family:FreeSans;-inkscape-font-specification:'FreeSans Semi-Bold';stroke-width:1.27833;fill:#cfd0d0;fill-opacity:1"
           d="m 535.76495,1317.9105 h -0.55001 q -0.4889,-0.1426 -1.28336,-0.326 -0.77409,-0.1833 -1.6704,-0.1833 -2.1593,0 -2.93339,0.7741 -0.75371,0.7741 -0.75371,2.9945 v 0.1833 h 5.66306 v 4.9705 h -5.41862 v 17.9059 h -7.33347 v -17.9059 h -3.13709 v -4.9705 h 3.13709 v -0.6315 q 0,-4.1963 2.22042,-6.2945 2.24078,-2.0982 6.76308,-2.0982 1.62967,0 2.95376,0.1222 1.3241,0.1019 2.34264,0.2852 z"
           id="path7" /><path
           style="font-size:41.7193px;line-height:1.25;font-family:FreeSans;-inkscape-font-specification:FreeSans;stroke-width:1.27833;fill:#cfd0d0;fill-opacity:1"
           d="m 553.05972,1325.6514 h -0.20371 q -0.85557,-0.2037 -1.6704,-0.2852 -0.79446,-0.1019 -1.89448,-0.1019 -1.77226,0 -3.42229,0.7945 -1.65003,0.7741 -3.17784,2.0167 v 16.154 h -3.8297 v -22.7541 h 3.8297 v 3.3611 q 2.28153,-1.8333 4.01304,-2.587 1.75189,-0.7741 3.56488,-0.7741 0.99817,0 1.44633,0.061 0.44815,0.041 1.34447,0.1833 z m 20.55407,18.5781 h -3.80933 v -2.4241 q -0.50927,0.3463 -1.38521,0.9778 -0.85557,0.6111 -1.6704,0.9778 -0.95743,0.4685 -2.20004,0.7741 -1.24262,0.3259 -2.91302,0.3259 -3.07598,0 -5.21491,-2.0371 -2.13893,-2.0371 -2.13893,-5.1945 0,-2.5871 1.10002,-4.176 1.12039,-1.6093 3.17784,-2.526 2.07781,-0.9167 4.99083,-1.2426 2.91302,-0.326 6.25382,-0.4889 v -0.5908 q 0,-1.3037 -0.46853,-2.1593 -0.44815,-0.8555 -1.30372,-1.3444 -0.81483,-0.4686 -1.9556,-0.6315 -1.14076,-0.163 -2.38337,-0.163 -1.50744,0 -3.36118,0.4074 -1.85374,0.3871 -3.8297,1.1408 h -0.20371 v -3.8908 q 1.1204,-0.3056 3.23895,-0.6723 2.11856,-0.3666 4.17601,-0.3666 2.40375,0 4.176,0.4074 1.79263,0.387 3.09636,1.3444 1.28335,0.9371 1.95559,2.4242 0.67223,1.487 0.67223,3.6871 z m -3.80933,-5.602 v -6.3353 q -1.75188,0.1019 -4.13526,0.3056 -2.36301,0.2037 -3.74822,0.5907 -1.65003,0.4686 -2.66857,1.4667 -1.01853,0.9778 -1.01853,2.7093 0,1.9556 1.1815,2.9538 1.1815,0.9778 3.60562,0.9778 2.01671,0 3.68711,-0.7741 1.6704,-0.7944 3.09635,-1.8945 z m 44.38788,5.602 h -3.82971 v -12.9558 q 0,-1.4667 -0.14259,-2.8315 -0.12223,-1.3649 -0.55001,-2.1797 -0.46853,-0.876 -1.34447,-1.3241 -0.87594,-0.4482 -2.52597,-0.4482 -1.60929,0 -3.21858,0.8149 -1.60929,0.7944 -3.21858,2.037 0.0611,0.4686 0.10185,1.1001 0.0407,0.6111 0.0407,1.2222 v 14.5651 h -3.8297 v -12.9558 q 0,-1.5074 -0.14259,-2.8519 -0.12223,-1.3649 -0.55001,-2.1797 -0.46853,-0.8759 -1.34447,-1.3037 -0.87595,-0.4482 -2.52598,-0.4482 -1.56854,0 -3.15746,0.7741 -1.56855,0.7741 -3.1371,1.976 v 16.9892 h -3.8297 v -22.7541 h 3.8297 v 2.5259 q 1.79263,-1.487 3.56488,-2.3222 1.79263,-0.8352 3.80933,-0.8352 2.32227,0 3.93156,0.9778 1.62966,0.9778 2.42412,2.7093 2.32226,-1.9556 4.23711,-2.8112 1.91486,-0.8759 4.09453,-0.8759 3.74821,0 5.52047,2.2815 1.79263,2.2611 1.79263,6.3353 z m 26.42088,-10.9798 h -16.76513 q 0,2.0981 0.63149,3.6667 0.63149,1.5482 1.73151,2.5463 1.05928,0.9778 2.50561,1.4667 1.46669,0.4889 3.21858,0.4889 2.32226,0 4.6649,-0.9167 2.363,-0.937 3.36117,-1.8333 h 0.20371 v 4.176 q -1.93522,0.8148 -3.95193,1.3648 -2.0167,0.55 -4.23711,0.55 -5.66307,0 -8.84091,-3.0556 -3.17784,-3.076 -3.17784,-8.7187 0,-5.5815 3.03525,-8.8612 3.05561,-3.2797 8.02607,-3.2797 4.60379,0 7.08902,2.6889 2.50561,2.6889 2.50561,7.639 z m -3.72785,-2.9334 q -0.0204,-3.0149 -1.52781,-4.6649 -1.48706,-1.6501 -4.54268,-1.6501 -3.07598,0 -4.90935,1.813 -1.81299,1.813 -2.05744,4.502 z m 38.15439,-8.8409 -5.92789,22.7541 h -3.54451 l -5.8464,-17.5392 -5.80567,17.5392 h -3.52414 l -5.989,-22.7541 h 3.99267 l 4.176,17.6207 5.68344,-17.6207 h 3.15747 l 5.82604,17.6207 3.95192,-17.6207 z m 24.91347,11.3872 q 0,5.5612 -2.8519,8.7798 -2.85191,3.2186 -7.63904,3.2186 -4.82786,0 -7.67977,-3.2186 -2.83153,-3.2186 -2.83153,-8.7798 0,-5.5612 2.83153,-8.7798 2.85191,-3.2389 7.67977,-3.2389 4.78713,0 7.63904,3.2389 2.8519,3.2186 2.8519,8.7798 z m -3.95192,0 q 0,-4.4204 -1.73152,-6.5594 -1.73151,-2.1593 -4.8075,-2.1593 -3.11672,0 -4.84823,2.1593 -1.71115,2.139 -1.71115,6.5594 0,4.2779 1.73152,6.4983 1.73151,2.2 4.82786,2.2 3.05562,0 4.78713,-2.1796 1.75189,-2.2001 1.75189,-6.5187 z m 24.07824,-7.2112 h -0.20371 q -0.85557,-0.2037 -1.6704,-0.2852 -0.79446,-0.1019 -1.89448,-0.1019 -1.77225,0 -3.42228,0.7945 -1.65003,0.7741 -3.17784,2.0167 v 16.154 h -3.8297 v -22.7541 h 3.8297 v 3.3611 q 2.28152,-1.8333 4.01304,-2.587 1.75188,-0.7741 3.56488,-0.7741 0.99817,0 1.44632,0.061 0.44816,0.041 1.34447,0.1833 z m 24.26155,18.5781 h -5.05195 l -9.1261,-9.9613 -2.48523,2.363 v 7.5983 h -3.8297 v -31.6969 h 3.8297 v 20.33 l 11.06132,-11.3872 h 4.82787 l -10.57242,10.5113 z"
           id="path8" /></g></g><path
       style="display:inline;vector-effect:none;fill:none;fill-opacity:1;fill-rule:nonzero;stroke:#1f567d;stroke-width:55;stroke-linecap:butt;stroke-linejoin:miter;stroke-miterlimit:4;stroke-dasharray:none;stroke-dashoffset:0;stroke-opacity:1"
       id="path3981-2-1-6-7-5-0-4-4-8-3-3"
       transform="rotate(90.00083)"
       sodipodi:type="arc"
       sodipodi:cx="936.97668"
       sodipodi:cy="-313.94019"
       sodipodi:rx="114.29869"
       sodipodi:ry="114.29869"
       sodipodi:start="0.52359878"
       sodipodi:end="5.7595865"
       d="m 1035.9623,-256.79084 a 114.29869,114.29869 0 0 1 -128.56829,53.25471 114.29869,114.29869 0 0 1 -84.71602,-110.40406 114.29869,114.29869 0 0 1 84.71601,-110.40405 114.29869,114.29869 0 0 1 128.5683,53.25471"
       sodipodi:open="true"
       sodipodi:arc-type="arc" /><path
       style="display:inline;fill:none;stroke:#cfd0d0;stroke-width:6;stroke-linecap:butt;stroke-linejoin:round;stroke-miterlimit:4;stroke-dasharray:none;stroke-opacity:1"
       d="m 280.21076,903.35615 v 67.4318 h 67.43186 v -67.4318 z"
       id="path1531-3" /><path
       style="display:inline;fill:none;stroke:#cfd0d0;stroke-width:6;stroke-linecap:butt;stroke-linejoin:round;stroke-miterlimit:4;stroke-dasharray:none;stroke-opacity:1"
       d="m 313.92669,878.06915 v 25.287"
       id="path1539-6"
       sodipodi:nodetypes="cc" /><path
       style="display:inline;fill:none;stroke:#cfd0d0;stroke-width:3;stroke-linecap:butt;stroke-linejoin:round;stroke-miterlimit:4;stroke-dasharray:none;stroke-opacity:1"
       d="m 372.92957,937.07195 h -25.28695 l -33.71593,16.8581 v -33.716 l -33.71593,16.8579 h -25.28695"
       id="path1541-7"
       sodipodi:nodetypes="cccccc" /><path
       style="display:inline;fill:none;stroke:#cfd0d0;stroke-width:3;stroke-linecap:butt;stroke-linejoin:round;stroke-miterlimit:4;stroke-dasharray:none;stroke-opacity:1"
       d="m 313.92669,970.78795 v 25.287"
       id="path1543-5"
       sodipodi:nodetypes="cc" /><g
       aria-label="tespy"
       id="text2987-2"
       style="font-style:normal;font-weight:normal;line-height:0%;font-family:sans-serif;letter-spacing:0px;word-spacing:0px;display:inline;fill:#cfd0d0;fill-opacity:1;stroke:none;stroke-width:1.81532"
       transform="matrix(0.55086779,0,0,0.55086779,-153.80242,664.09555)"><path
         d="m 361.182,805.79784 h -11.61 v -19.44 h -11.205 v 19.44 h -9.585 v 9.18 h 9.585 v 53.46 c 0,7.155 4.86,11.205 13.635,11.205 2.7,0 5.4,-0.27 9.18,-0.945 v -9.45 c -1.485,0.405 -3.24,0.54 -5.4,0.54 -4.86,0 -6.21,-1.35 -6.21,-6.345 v -48.465 h 11.61 z"
         style="font-style:normal;font-variant:normal;font-weight:normal;font-stretch:normal;font-size:135px;line-height:0%;font-family:FreeSans;-inkscape-font-specification:FreeSans;letter-spacing:30px;writing-mode:lr-tb;stroke-width:1.81532;fill:#cfd0d0;fill-opacity:1"
         id="path1690" /><path
         d="m 461.69208,844.94784 c 0,-25.65 -9.585,-41.175 -31.455,-41.175 -19.71,0 -32.4,15.12 -32.4,38.34 0,23.22 12.285,37.53 32.13,37.53 16.2,0 27.405,-9.18 30.24,-24.57 h -11.34 c -3.105,9.315 -9.45,14.175 -18.495,14.175 -13.095,0 -20.52,-9.855 -20.79,-24.3 z m -51.84,-9.18 c 0.945,-13.095 8.91,-21.6 20.25,-21.6 11.61,0 19.575,9.45 19.575,21.6 z"
         style="font-style:normal;font-variant:normal;font-weight:normal;font-stretch:normal;font-size:135px;line-height:0%;font-family:FreeSans;-inkscape-font-specification:FreeSans;letter-spacing:30px;writing-mode:lr-tb;stroke-width:1.81532;fill:#cfd0d0;fill-opacity:1"
         id="path1692" /><path
         d="m 512.2395,855.47784 h -11.88 c 0.54,16.335 9.72,24.165 28.215,24.165 17.82,0 29.16,-8.775 29.16,-22.41 0,-10.53 -5.94,-16.335 -19.98,-19.71 l -10.8,-2.565 c -9.18,-2.16 -13.095,-5.13 -13.095,-10.125 0,-6.48 5.805,-10.665 14.985,-10.665 9.045,0 13.905,3.915 14.175,11.34 h 11.88 c -0.135,-13.905 -9.315,-21.735 -25.65,-21.735 -16.47,0 -27.135,8.505 -27.135,21.6 0,11.07 5.67,16.335 22.41,20.385 l 10.53,2.565 c 7.83,1.89 10.935,4.725 10.935,9.855 0,6.615 -6.615,11.07 -16.47,11.07 -13.77,0 -16.335,-6.885 -17.28,-13.77 z"
         style="font-style:normal;font-variant:normal;font-weight:normal;font-stretch:normal;font-size:135px;line-height:0%;font-family:FreeSans;-inkscape-font-specification:FreeSans;letter-spacing:30px;writing-mode:lr-tb;stroke-width:1.81532;fill:#cfd0d0;fill-opacity:1"
         id="path1694" /><path
         d="m 600.31481,905.96784 h 11.34 v -36.855 c 5.94,7.29 12.555,10.53 21.735,10.53 18.225,0 30.24,-14.715 30.24,-37.26 0,-23.76 -11.61,-38.61 -30.375,-38.61 -9.585,0 -17.28,4.32 -22.545,12.69 v -10.665 h -10.395 z m 31.05,-91.665 c 12.42,0 20.52,10.935 20.52,27.81 0,16.065 -8.235,27 -20.52,27 -11.88,0 -19.71,-10.8 -19.71,-27.405 0,-16.605 7.83,-27.405 19.71,-27.405 z"
         style="font-style:normal;font-variant:normal;font-weight:normal;font-stretch:normal;font-size:135px;line-height:0%;font-family:FreeSans;-inkscape-font-specification:FreeSans;letter-spacing:30px;writing-mode:lr-tb;stroke-width:1.81532;fill:#cfd0d0;fill-opacity:1"
         id="path1696" /><path
         d="m 748.65497,805.79784 -19.575,55.08 -18.09,-55.08 h -12.015 l 23.895,71.01 -4.32,11.205 c -1.89,4.995 -4.32,6.885 -9.045,6.885 -1.62,0 -3.51,-0.27 -5.94,-0.81 v 10.125 c 2.295,1.215 4.59,1.755 7.56,1.755 7.695,0 14.31,-4.185 18.225,-14.58 l 31.455,-85.59 z"
         style="font-style:normal;font-variant:normal;font-weight:normal;font-stretch:normal;font-size:135px;line-height:0%;font-family:FreeSans;-inkscape-font-specification:FreeSans;letter-spacing:30px;writing-mode:lr-tb;stroke-width:1.81532;fill:#cfd0d0;fill-opacity:1"
         id="path1698" /></g><g
       aria-label="['tɛs.paɪ]"
       id="text2997-0-4"
       style="font-style:normal;font-weight:normal;line-height:0%;font-family:sans-serif;letter-spacing:0px;word-spacing:0px;display:inline;fill:#000000;fill-opacity:1;stroke:none;stroke-width:1.81532"
       transform="matrix(0.55086779,0,0,0.55086779,107.34196,592.50072)"><path
         d="m 355.832,912.20768 h -25.11 v 127.03502 h 25.11 v -9.72 H 341.927 V 921.92768 h 13.905 z"
         style="font-style:normal;font-variant:normal;font-weight:normal;font-stretch:normal;font-size:135px;line-height:1.25;font-family:FreeSans;-inkscape-font-specification:FreeSans;letter-spacing:10px;fill:#b3b3b3;stroke-width:1.81532"
         id="path1701" /><path
         d="m 376.67841,914.90768 v 14.985 l 3.645,18.09 h 5.4 l 3.645,-18.09 v -14.985 z"
         style="font-style:normal;font-variant:normal;font-weight:normal;font-stretch:normal;font-size:135px;line-height:1.25;font-family:FreeSans;-inkscape-font-specification:FreeSans;letter-spacing:10px;fill:#b3b3b3;stroke-width:1.81532"
         id="path1703" /><path
         d="m 441.51794,939.88268 h -11.61 v -19.44 h -11.205 v 19.44 h -9.585 v 9.18 h 9.585 v 53.46002 c 0,7.155 4.86,11.205 13.635,11.205 2.7,0 5.4,-0.27 9.18,-0.945 v -9.45 c -1.485,0.405 -3.24,0.54 -5.4,0.54 -4.86,0 -6.21,-1.35 -6.21,-6.34502 v -48.465 h 11.61 z"
         style="font-style:normal;font-variant:normal;font-weight:normal;font-stretch:normal;font-size:135px;line-height:1.25;font-family:FreeSans;-inkscape-font-specification:FreeSans;letter-spacing:10px;fill:#b3b3b3;stroke-width:1.81532"
         id="path1705" /><path
         d="m 503.66802,989.56268 c -0.945,6.885 -3.51,13.77002 -17.28,13.77002 -9.855,0 -15.93,-4.45502 -15.93,-11.07002 0,-5.13 5.67,-11.475 13.77,-11.475 h 9.99 v -10.26 h -8.37 c -9.45,0 -13.095,-6.615 -13.095,-11.61 0,-6.48 5.805,-10.665 14.985,-10.665 9.045,0 13.905,3.915 14.175,11.34 h 11.88 c -0.135,-13.905 -9.315,-21.735 -25.65,-21.735 -16.47,0 -27.135,8.505 -27.135,21.6 0,7.155 2.565,11.61 8.775,15.12 -7.965,3.51 -11.61,8.64 -11.61,16.74 0,13.63502 11.34,22.41002 29.16,22.41002 18.495,0 27.675,-7.83 28.215,-24.16502 z"
         style="font-style:normal;font-variant:normal;font-weight:normal;font-stretch:normal;font-size:135px;line-height:1.25;font-family:FreeSans;-inkscape-font-specification:FreeSans;letter-spacing:10px;fill:#b3b3b3;stroke-width:1.81532"
         id="path1707" /><path
         d="m 545.98364,989.56268 h -11.88 c 0.54,16.33502 9.72,24.16502 28.215,24.16502 17.82,0 29.16,-8.775 29.16,-22.41002 0,-10.53 -5.94,-16.335 -19.98,-19.71 l -10.8,-2.565 c -9.18,-2.16 -13.095,-5.13 -13.095,-10.125 0,-6.48 5.805,-10.665 14.985,-10.665 9.045,0 13.905,3.915 14.175,11.34 h 11.88 c -0.135,-13.905 -9.315,-21.735 -25.65,-21.735 -16.47,0 -27.135,8.505 -27.135,21.6 0,11.07 5.67,16.335 22.41,20.385 l 10.53,2.565 c 7.83,1.89 10.935,4.725 10.935,9.855 0,6.615 -6.615,11.07002 -16.47,11.07002 -13.77,0 -16.335,-6.88502 -17.28,-13.77002 z"
         style="font-style:normal;font-variant:normal;font-weight:normal;font-stretch:normal;font-size:135px;line-height:1.25;font-family:FreeSans;-inkscape-font-specification:FreeSans;letter-spacing:10px;fill:#b3b3b3;stroke-width:1.81532"
         id="path1709" /><path
         d="m 630.79895,996.58268 h -14.04 v 14.04002 h 14.04 z"
         style="font-style:normal;font-variant:normal;font-weight:normal;font-stretch:normal;font-size:135px;line-height:1.25;font-family:FreeSans;-inkscape-font-specification:FreeSans;letter-spacing:10px;fill:#b3b3b3;stroke-width:1.81532"
         id="path1711" /><path
         d="m 657.80895,1040.0527 h 11.34 v -36.855 c 5.94,7.29 12.555,10.53 21.735,10.53 18.225,0 30.24,-14.71502 30.24,-37.26002 0,-23.76 -11.61,-38.61 -30.375,-38.61 -9.585,0 -17.28,4.32 -22.545,12.69 v -10.665 h -10.395 z m 31.05,-91.66502 c 12.42,0 20.52,10.935 20.52,27.81 0,16.065 -8.235,27.00002 -20.52,27.00002 -11.88,0 -19.71,-10.80002 -19.71,-27.40502 0,-16.605 7.83,-27.405 19.71,-27.405 z"
         style="font-style:normal;font-variant:normal;font-weight:normal;font-stretch:normal;font-size:135px;line-height:1.25;font-family:FreeSans;-inkscape-font-specification:FreeSans;letter-spacing:10px;fill:#b3b3b3;stroke-width:1.81532"
         id="path1713" /><path
         d="m 742.27411,960.80768 h 11.34 c 0.945,-8.64 6.075,-12.555 16.605,-12.555 10.125,0 15.795,3.78 15.795,10.53 v 2.97 c 0,4.725 -2.835,6.75 -11.745,7.83 -20.655,2.7 -35.1,4.32 -35.1,23.22 0,12.82502 8.91,20.92502 23.22,20.92502 8.91,0 16.065,-3.105 24.03,-10.395 0.81,7.155 4.32,10.395 11.61,10.395 2.295,0 4.05,-0.27 7.695,-1.215 v -8.505 c -1.215,0.27 -1.755,0.27 -2.43,0.27 -3.915,0 -6.075,-2.025 -6.075,-5.53502 v -41.58 c 0,-12.555 -9.18,-19.305 -26.595,-19.305 -12.69,0 -27.675,3.78 -28.35,22.95 z m 22.545,43.06502 c -8.775,0 -13.905,-4.18502 -13.905,-11.34002 0,-15.525 23.625,-11.61 35.1,-16.875 v 12.69 c 0,6.75 -7.83,15.52502 -21.195,15.52502 z"
         style="font-style:normal;font-variant:normal;font-weight:normal;font-stretch:normal;font-size:135px;line-height:1.25;font-family:FreeSans;-inkscape-font-specification:FreeSans;letter-spacing:10px;fill:#b3b3b3;stroke-width:1.81532"
         id="path1715" /><path
         d="m 821.11989,939.88268 v 9.72 h 11.07 v 51.30002 h -11.07 v 9.72 h 32.13 v -9.72 h -9.855 v -51.30002 h 9.855 v -9.72 z"
         style="font-style:normal;font-variant:normal;font-weight:normal;font-stretch:normal;font-size:135px;line-height:1.25;font-family:FreeSans;-inkscape-font-specification:FreeSans;letter-spacing:10px;fill:#b3b3b3;stroke-width:1.81532"
         id="path1717" /><path
         d="m 868.8313,1039.2427 h 25.11 V 912.20768 h -25.11 v 9.72 h 13.905 v 107.59502 h -13.905 z"
         style="font-style:normal;font-variant:normal;font-weight:normal;font-stretch:normal;font-size:135px;line-height:1.25;font-family:FreeSans;-inkscape-font-specification:FreeSans;letter-spacing:10px;fill:#b3b3b3;stroke-width:1.81532"
         id="path1719" /></g></g></svg>
