<?xml version="1.0" encoding="UTF-8" standalone="no"?>
<svg
   inkscape:export-ydpi="1012"
   inkscape:export-xdpi="1012"
   sodipodi:docname="community_darkmode.svg"
   inkscape:version="1.3.2 (091e20e, 2023-11-25, custom)"
   id="svg8"
   version="1.1"
   viewBox="0 0 160 120"
   height="120mm"
   width="160mm"
   xmlns:inkscape="http://www.inkscape.org/namespaces/inkscape"
   xmlns:sodipodi="http://sodipodi.sourceforge.net/DTD/sodipodi-0.dtd"
   xmlns:xlink="http://www.w3.org/1999/xlink"
   xmlns="http://www.w3.org/2000/svg"
   xmlns:svg="http://www.w3.org/2000/svg"
   xmlns:rdf="http://www.w3.org/1999/02/22-rdf-syntax-ns#"
   xmlns:cc="http://creativecommons.org/ns#"
   xmlns:dc="http://purl.org/dc/elements/1.1/">
  <defs
     id="defs2">
    <linearGradient
       id="linearGradient2073"
       inkscape:collect="always">
      <stop
         id="stop2069"
         offset="0"
         style="stop-color:#000000;stop-opacity:1;" />
      <stop
         id="stop2071"
         offset="1"
         style="stop-color:#000000;stop-opacity:0;" />
    </linearGradient>
    <rect
       id="rect1009"
       height="0"
       width="12.5"
       y="-75"
       x="50" />
    <linearGradient
       gradientTransform="translate(0.29243162,-2.3779876)"
       gradientUnits="userSpaceOnUse"
       y2="204.98201"
       x2="223.36507"
       y1="204.98201"
       x1="221.6942"
       id="linearGradient2075"
       xlink:href="#linearGradient2073"
       inkscape:collect="always" />
  </defs>
  <sodipodi:namedview
     inkscape:window-maximized="1"
     inkscape:window-y="-12"
     inkscape:window-x="10068"
     inkscape:window-height="2054"
     inkscape:window-width="3840"
     inkscape:snap-to-guides="false"
     inkscape:guide-bbox="true"
     showguides="true"
     inkscape:bbox-nodes="false"
     inkscape:snap-grids="true"
     inkscape:snap-bbox="true"
     inkscape:snap-nodes="true"
     inkscape:object-paths="true"
     inkscape:snap-center="true"
     showgrid="true"
     inkscape:document-rotation="0"
     inkscape:current-layer="layer1"
     inkscape:document-units="mm"
     inkscape:cy="120.75"
     inkscape:cx="299.75"
     inkscape:zoom="2"
     inkscape:pageshadow="2"
     inkscape:pageopacity="0.0"
     borderopacity="1.0"
     bordercolor="#666666"
     pagecolor="#cfd0d0"
     id="base"
     fit-margin-top="5"
     fit-margin-left="5"
     fit-margin-right="5"
     fit-margin-bottom="5"
     inkscape:pagecheckerboard="0"
     inkscape:snap-intersection-paths="true"
     inkscape:bbox-paths="false"
     inkscape:snap-object-midpoints="true"
     inkscape:showpageshadow="2"
     inkscape:deskcolor="#d1d1d1">
    <inkscape:grid
       spacingy="1"
       spacingx="0.99999999"
       units="cm"
       dotted="true"
       enabled="true"
       id="grid835"
       type="xygrid"
       originx="0"
       originy="0"
       visible="true" />
  </sodipodi:namedview>
  <metadata
     id="metadata5">
    <rdf:RDF>
      <cc:Work
         rdf:about="">
        <dc:format>image/svg+xml</dc:format>
        <dc:type
           rdf:resource="http://purl.org/dc/dcmitype/StillImage" />
      </cc:Work>
    </rdf:RDF>
  </metadata>
  <g
     id="layer1"
     inkscape:groupmode="layer"
     inkscape:label="Ebene 1"
     transform="translate(-61.99998,-32.639073)">
    <path
       fill-rule="nonzero"
       d="m 118.4644,92.638451 c -0.39925,0.832971 -1.40169,1.18483 -2.23466,0.785578 -0.83441,-0.399252 -1.18483,-1.395946 -0.78701,-2.234662 0.88323,-1.849773 1.9704,-3.583216 3.22704,-5.178788 a 27.780045,27.780045 0 0 1 4.28263,-4.342944 c 0.71951,-0.585952 1.77653,-0.476804 2.35673,0.241275 0.58596,0.719515 0.47681,1.776528 -0.24127,2.3553 -1.39595,1.137438 -2.66551,2.417055 -3.76992,3.818745 -1.10584,1.407436 -2.05514,2.9312 -2.83354,4.555496 z m 2.812,19.643769 c -0.48829,-0.42797 -1.001,-0.88611 -1.25807,-1.19632 l -0.0144,0.01 c -0.59888,0.40931 -1.33994,0.68362 -2.35243,0.68075 -1.02255,-0.002 -1.86701,-0.31021 -2.62961,-0.94787 -0.29441,0.36335 -0.93206,0.90478 -1.50366,1.38877 l -0.12351,0.1034 c -0.0905,3.24715 6.93521,4.22949 7.88164,-0.0388 z m -0.84446,-1.52089 c 0.24127,0.29298 0.81861,0.79994 1.33276,1.24946 l 0.46818,0.41362 c 3.41375,1.32414 6.86628,2.6612 7.26122,6.81313 0.12064,1.28536 0.10915,1.22936 -1.12451,1.25377 -6.50867,0.12925 -15.57227,-0.10771 -21.94163,0 -1.15755,0.0187 -1.27675,0.10197 -1.15611,-1.54531 0.89329,-4.22948 3.4037,-5.03517 7.17936,-6.50292 0.19962,-0.18096 0.4567,-0.39782 0.72813,-0.6276 0.60749,-0.51415 1.29685,-1.09867 1.46345,-1.33563 -0.21974,-0.22117 -0.42224,-0.45096 -0.61899,-0.68074 l -0.84015,-0.97515 -0.53425,0.0143 -1.16042,0.0302 c -0.99669,-1.14606 -0.9335,-3.60763 -0.83872,-5.02943 0.46532,-2.85652 1.56973,-4.914535 3.3678,-6.103674 1.21929,-0.805685 1.94599,-0.850206 3.37066,-0.851642 1.24228,-0.0014 2.00488,-0.02729 3.06476,0.670686 3.45396,2.274875 4.5239,7.64324 2.83642,11.25805 h -1.13026 l -0.72957,0.87174 c -0.31021,0.37341 -0.62473,0.74824 -0.99813,1.07712 z m -6.96537,-2.42136 c 0.0632,0.0187 0.11633,0.0503 0.15367,0.0934 l 0.95792,1.11159 c 0.87605,1.0168 1.64009,1.75211 3.07338,1.75355 1.55536,0.003 2.29354,-0.74968 3.21843,-1.86126 l 0.84302,-1.00962 c 0.0359,-0.0416 0.0847,-0.0733 0.14075,-0.0919 0.0761,-0.25994 0.13643,-0.53138 0.17808,-0.81574 0.14793,-0.99525 0.15367,-1.76935 -0.29585,-2.68705 -0.38776,-0.79276 -0.9335,-1.2035 -1.52807,-1.49648 0.64196,0.71665 1.17334,1.41318 1.0326,1.98334 -0.78415,-0.8617 -1.5927,-1.61281 -2.42998,-2.2361 -1.75068,-0.90478 -2.78041,-2.12983 -3.23998,-3.613376 -2.58221,2.579336 -3.04465,5.592396 -2.10397,8.869716 z m 55.74736,0.86457 c 1.50079,-1.65877 1.90148,-2.77753 1.70186,-5.01507 -0.0316,-0.3576 -0.0847,-0.72095 -0.15799,-1.08861 -1.22504,-0.56728 -2.02498,-1.8153 -2.43572,-3.68805 -0.48973,3.56598 -4.87001,3.41375 -5.97154,4.06289 0,0.30016 -0.009,0.58452 -0.0158,0.85595 -0.0489,1.83685 0.0862,2.81344 1.01106,4.27975 0.1551,0.24559 0.3059,0.48255 0.48829,0.67931 1.47206,1.58695 3.98821,1.38733 5.37985,-0.0862 z m -11.92298,1.97472 c 0.99238,-0.079 1.67456,-0.63766 2.13557,-1.44478 0.47105,-0.81718 0.71951,-1.89285 0.84589,-2.98721 0.0632,-0.56728 0.10341,-1.17478 0.14218,-1.79232 0.19388,-3.01881 0.405,-6.278889 3.83598,-7.664782 a 5.8623994,5.8623994 0 0 1 1.62286,-0.397816 c 1.18483,-0.116329 2.39552,0.129254 3.43816,0.72526 1.04409,0.598878 1.92589,1.551051 2.45009,2.847898 0.24127,0.59601 0.40787,1.2667 0.47968,2.00919 v 0.009 c -0.009,1.82248 0.28292,4.38459 1.07424,6.26021 0.56872,1.34856 1.39739,2.34237 2.5535,2.43573 0.0474,0.003 0.0833,0.046 0.0804,0.0934 l -0.009,0.0331 c -0.22404,0.6003 -1.20925,1.06419 -2.38833,1.28966 1.7636,0.42942 2.98577,0.94643 3.81443,1.85839 1.01824,1.12308 1.39882,2.79333 1.39882,5.57086 0,0.18383 -0.14936,0.33176 -0.33175,0.33176 h -23.70811 c -0.18383,0 -0.33319,-0.14793 -0.33319,-0.33176 0,-2.70428 0.36048,-4.37597 1.32127,-5.50767 0.78271,-0.92201 1.93738,-1.45483 3.59614,-1.86557 -1.0326,-0.25563 -1.87993,-0.74967 -2.09392,-1.35573 -0.0158,-0.0445 0.007,-0.0948 0.0517,-0.11058 z m 13.56595,1.49073 c -0.16228,-0.0244 -0.31883,-0.0546 -0.47106,-0.0919 -0.46675,-0.11346 -0.87893,-0.28867 -1.1877,-0.52994 -0.46963,-0.36909 -0.70228,-0.88898 -0.54574,-1.58552 -1.40887,0.87893 -2.88668,0.8775 -4.28694,-0.0258 l -0.0948,-0.0531 c -0.007,0.41505 -0.26857,1.63435 -0.66925,1.8785 -0.64771,0.3935 -1.69036,0.5644 -2.45296,0.68791 -0.18239,0.0302 -0.34755,0.056 -0.49548,0.0862 -0.2427,0.0474 -0.47536,0.0962 -0.6994,0.14506 2.15998,2.09966 4.33576,3.273 6.52446,3.33907 2.19445,0.0661 4.43774,-0.98233 6.73559,-3.32614 -0.33463,-0.079 -0.68936,-0.15368 -1.06419,-0.22979 l -0.0546,-0.0115 c -0.32027,-0.0632 -0.77122,-0.15224 -1.23797,-0.28293 z M 135.4556,61.809871 c 3.05758,-3.779969 6.58191,-5.835112 9.22875,-2.473065 3.18971,0.168031 4.46789,5.234798 1.92445,7.367494 l -0.0144,0.126382 c 0.0991,-0.0316 0.19963,-0.05026 0.29442,-0.05745 0.18813,-0.01436 0.36765,0.0158 0.52132,0.09766 0.1666,0.08904 0.29585,0.234094 0.36191,0.438029 0.0632,0.198189 0.0646,0.449517 -0.0172,0.758291 -0.1192,0.369093 -0.26425,0.785579 -0.40499,1.146055 -0.0618,0.172339 -0.12064,0.297284 -0.24559,0.39638 l -0.007,0.0043 c -0.12925,0.101967 -0.2901,0.139307 -0.53138,0.126381 l -0.11058,-0.01292 c -0.023,1.151799 -0.54287,1.736316 -1.24658,2.407002 0.66781,2.328013 2.51184,2.68418 4.3214,3.034603 2.43285,0.469624 4.72496,4.094488 4.72496,5.988781 v 1.062758 c 0,0.179519 -0.14649,0.324571 -0.32601,0.324571 h -23.95221 c -0.17952,0 -0.32457,-0.145052 -0.32457,-0.324571 v -0.960791 c 0,-2.419927 2.6253,-5.593837 5.18166,-5.937079 1.87849,-0.251328 3.77279,-0.505528 4.42624,-2.811998 l -0.17234,-0.149361 c -0.78845,-0.679303 -1.44908,-1.248022 -1.57403,-2.629606 l -0.0689,0.0014 a 0.9414019,0.9414019 0 0 1 -0.46387,-0.122077 c -0.23554,-0.132126 -0.39926,-0.361912 -0.50984,-0.618984 -0.13213,-0.305901 -0.19244,-0.663505 -0.20537,-0.930631 v -0.469623 l 0.0244,-0.402125 0.0201,-0.07755 c 0.16516,-0.458134 0.41936,-0.606058 0.75254,-0.596005 l -0.22116,-0.146491 c -0.1192,-1.489297 0.22978,-4.07151 -1.38589,-4.559804 z m 9.28189,10.769753 -0.0388,0.03591 -0.16373,0.152233 c -0.13212,0.133563 -0.28291,0.251328 -0.44951,0.353295 -0.64053,0.443773 -1.31552,0.660633 -1.99626,0.660633 -0.78702,0.0014 -1.57547,-0.287231 -2.32371,-0.84877 -0.27574,1.108715 -0.9852,1.991952 -2.01205,2.491736 2.97428,1.813868 5.90692,1.76073 8.79216,-0.380582 -1.09435,-0.495475 -1.66164,-1.446212 -1.80812,-2.464449 z m -7.13628,-5.318095 c -0.36047,-0.124945 -0.61611,-0.183828 -0.71377,0.04021 l -0.0158,0.304465 v 0.423667 c 0.01,0.212552 0.056,0.491167 0.15511,0.722388 0.0632,0.146488 0.14792,0.27287 0.25276,0.333189 0.0517,0.02873 0.11058,0.04165 0.17234,0.04309 0.0747,0 0.15941,-0.0158 0.24845,-0.04021 l 0.089,-0.01723 c 0.16659,-0.0029 0.30734,0.129254 0.31021,0.295848 0.0331,1.372968 0.6434,1.898602 1.38302,2.53482 l 0.31021,0.269998 c 0.7425,0.660633 1.52664,1.003875 2.29642,1.003875 0.74537,0.0014 1.49361,-0.324572 2.18871,-0.996695 l 0.31595,-0.29872 c 0.77696,-0.729569 1.34999,-1.269565 1.23941,-2.580777 -0.003,-0.06463 0.0115,-0.132127 0.0503,-0.189573 0.0905,-0.139307 0.28005,-0.178084 0.41936,-0.08761 l 0.16085,0.08473 0.12782,0.02729 0.13643,0.0014 c 0.16516,-0.399252 0.29872,-0.825791 0.44234,-1.23366 0.0488,-0.183828 0.0531,-0.318827 0.0258,-0.404997 -0.0158,-0.04452 -0.0402,-0.07612 -0.0718,-0.09191 -0.0445,-0.02298 -0.11202,-0.03303 -0.18958,-0.02585 -0.16946,0.01292 -0.36765,0.09479 -0.5443,0.22835 -0.0646,0.04739 -0.14792,0.07037 -0.23265,0.05601 -0.16516,-0.02729 -0.27575,-0.185264 -0.24846,-0.350423 0.28579,-1.66738 0.1551,-2.755988 -0.19963,-3.495609 -0.31164,-0.649144 -0.80856,-1.044088 -1.34712,-1.337064 -1.19201,0.914833 -2.03503,1.019673 -2.87375,1.123076 -0.69367,0.08617 -1.38876,0.172339 -2.30503,0.807121 -0.43516,0.300157 -0.7267,0.667813 -0.87462,1.09148 -0.1508,0.430848 -0.15942,0.936376 -0.0331,1.509403 0.01,0.05601 0.007,0.114893 -0.0129,0.170903 a 0.30389115,0.30389115 0 0 1 -0.3892,0.179519 z m 21.57972,17.294221 c -0.70659,-0.593133 -0.79707,-1.650146 -0.20537,-2.356736 0.59314,-0.70659 1.65015,-0.797068 2.35674,-0.205371 1.62717,1.365787 3.09492,2.906785 4.36161,4.615814 0.83441,1.123076 1.59557,2.319396 2.26626,3.581779 0.42797,0.822919 0.11489,1.836847 -0.70085,2.266259 -0.82292,0.429411 -1.83684,0.114892 -2.26625,-0.700846 a 23.202577,23.202577 0 0 0 -1.98765,-3.13657 c -1.14605,-1.530945 -2.38258,-2.829233 -3.82449,-4.064329 z m -9.5088,38.47469 c 0.87605,-0.29585 1.82535,0.18095 2.1212,1.05701 0.29585,0.87606 -0.18095,1.82392 -1.05701,2.11977 a 26.630688,26.630688 0 0 1 -4.32571,1.06994 27.493388,27.493388 0 0 1 -4.45783,0.36191 c -1.52951,0 -3.0461,-0.12639 -4.53827,-0.3734 -1.52807,-0.2542 -3.00157,-0.62904 -4.41044,-1.11159 -0.87462,-0.30303 -1.34568,-1.25807 -1.04408,-2.13413 0.30159,-0.87606 1.25663,-1.34711 2.13269,-1.04409 1.25664,0.42798 2.54918,0.76117 3.85465,0.97803 1.2868,0.21255 2.62243,0.326 3.9997,0.326 1.35286,0 2.66407,-0.10771 3.92072,-0.31308 1.30977,-0.20681 2.57933,-0.52707 3.80438,-0.93637 z"
       id="path1"
       style="stroke-width:0.143616;fill:#cfd0d0" />
  </g>
</svg>
