<?xml version="1.0" encoding="UTF-8" standalone="no"?>
<svg
   inkscape:export-ydpi="1012"
   inkscape:export-xdpi="1012"
   sodipodi:docname="contribute.svg"
   inkscape:version="1.3.2 (091e20e, 2023-11-25, custom)"
   id="svg8"
   version="1.1"
   viewBox="0 0 160 120"
   height="120mm"
   width="160mm"
   xmlns:inkscape="http://www.inkscape.org/namespaces/inkscape"
   xmlns:sodipodi="http://sodipodi.sourceforge.net/DTD/sodipodi-0.dtd"
   xmlns:xlink="http://www.w3.org/1999/xlink"
   xmlns="http://www.w3.org/2000/svg"
   xmlns:svg="http://www.w3.org/2000/svg"
   xmlns:rdf="http://www.w3.org/1999/02/22-rdf-syntax-ns#"
   xmlns:cc="http://creativecommons.org/ns#"
   xmlns:dc="http://purl.org/dc/elements/1.1/">
  <defs
     id="defs2">
    <linearGradient
       id="linearGradient2073"
       inkscape:collect="always">
      <stop
         id="stop2069"
         offset="0"
         style="stop-color:#000000;stop-opacity:1;" />
      <stop
         id="stop2071"
         offset="1"
         style="stop-color:#000000;stop-opacity:0;" />
    </linearGradient>
    <rect
       id="rect1009"
       height="0"
       width="12.5"
       y="-75"
       x="50" />
    <linearGradient
       gradientTransform="translate(0.29243162,-2.3779876)"
       gradientUnits="userSpaceOnUse"
       y2="204.98201"
       x2="223.36507"
       y1="204.98201"
       x1="221.6942"
       id="linearGradient2075"
       xlink:href="#linearGradient2073"
       inkscape:collect="always" />
  </defs>
  <sodipodi:namedview
     inkscape:window-maximized="1"
     inkscape:window-y="-12"
     inkscape:window-x="10068"
     inkscape:window-height="2054"
     inkscape:window-width="3840"
     inkscape:snap-to-guides="false"
     inkscape:guide-bbox="true"
     showguides="true"
     inkscape:bbox-nodes="false"
     inkscape:snap-grids="true"
     inkscape:snap-bbox="true"
     inkscape:snap-nodes="true"
     inkscape:object-paths="true"
     inkscape:snap-center="true"
     showgrid="true"
     inkscape:document-rotation="0"
     inkscape:current-layer="layer1"
     inkscape:document-units="mm"
     inkscape:cy="120.75"
     inkscape:cx="300"
     inkscape:zoom="2"
     inkscape:pageshadow="2"
     inkscape:pageopacity="0.0"
     borderopacity="1.0"
     bordercolor="#666666"
     pagecolor="#ffffff"
     id="base"
     fit-margin-top="5"
     fit-margin-left="5"
     fit-margin-right="5"
     fit-margin-bottom="5"
     inkscape:pagecheckerboard="0"
     inkscape:snap-intersection-paths="true"
     inkscape:bbox-paths="false"
     inkscape:snap-object-midpoints="true"
     inkscape:showpageshadow="2"
     inkscape:deskcolor="#d1d1d1">
    <inkscape:grid
       spacingy="1"
       spacingx="0.99999999"
       units="cm"
       dotted="true"
       enabled="true"
       id="grid835"
       type="xygrid"
       originx="0"
       originy="0"
       visible="true" />
  </sodipodi:namedview>
  <metadata
     id="metadata5">
    <rdf:RDF>
      <cc:Work
         rdf:about="">
        <dc:format>image/svg+xml</dc:format>
        <dc:type
           rdf:resource="http://purl.org/dc/dcmitype/StillImage" />
      </cc:Work>
    </rdf:RDF>
  </metadata>
  <g
     id="layer1"
     inkscape:groupmode="layer"
     inkscape:label="Ebene 1"
     transform="translate(-61.99998,-32.639073)">
    <g
       id="g2"
       transform="matrix(0.56962432,0,0,0.56962432,112.7435,57.63794)">
      <path
         class="st0"
         d="m 31.25,37 c -1.12,0.04 -1.96,0.27 -2.54,0.66 -0.33,0.22 -0.57,0.5 -0.73,0.84 -0.17,0.37 -0.25,0.83 -0.24,1.35 0.04,1.53 0.85,3.53 2.4,5.83 l 0.02,0.03 5.03,8 c 2.02,3.21 4.13,6.48 6.76,8.88 2.53,2.31 5.59,3.87 9.65,3.88 4.39,0.01 7.6,-1.61 10.21,-4.05 2.71,-2.54 4.85,-6.02 6.96,-9.49 l 5.67,-9.33 c 1.06,-2.41 1.44,-4.02 1.2,-4.97 -0.14,-0.56 -0.76,-0.84 -1.82,-0.89 -0.22,-0.01 -0.46,-0.01 -0.69,-0.01 -0.25,0.01 -0.52,0.02 -0.79,0.05 -0.15,0.01 -0.3,0 -0.44,-0.03 -0.5,0.03 -1.02,-0.01 -1.55,-0.08 l 1.94,-8.59 C 57.89,31.35 47.12,20.66 31.91,26.94 L 33,37.06 C 32.36,37.1 31.78,37.08 31.25,37 Z m 4.2,61.09 h 3.21 c 2.07,0 3.47,0.1 4.2,0.29 0.73,0.19 1.29,0.5 1.67,0.94 0.38,0.43 0.62,0.92 0.71,1.45 0.1,0.54 0.14,1.58 0.14,3.15 v 5.78 c 0,1.48 -0.07,2.47 -0.21,2.97 -0.14,0.5 -0.38,0.89 -0.73,1.17 -0.35,0.28 -0.77,0.48 -1.29,0.59 -0.51,0.11 -1.28,0.17 -2.3,0.17 H 35.44 V 98.09 Z m 4.3,2.82 v 10.87 c 0.61,0 0.98,-0.13 1.12,-0.37 0.14,-0.25 0.21,-0.92 0.21,-2.03 v -6.42 c 0,-0.75 -0.03,-1.23 -0.07,-1.44 -0.05,-0.21 -0.15,-0.37 -0.32,-0.46 -0.17,-0.1 -0.48,-0.15 -0.94,-0.15 z m 7.96,-2.82 h 7.15 v 3.3 H 52 v 3.15 h 2.67 v 3.13 H 52 v 3.63 h 3.15 v 3.3 H 47.7 V 98.09 Z m 19.57,0 -2.17,16.5 h -6.5 l -2.49,-16.5 h 4.53 c 0.51,4.55 0.88,8.4 1.12,11.54 0.23,-3.18 0.48,-6 0.71,-8.47 l 0.28,-3.08 h 4.52 z M 31.66,97.21 v 3.11 h -0.43 c -0.39,0 -0.69,0.08 -0.89,0.25 -0.2,0.17 -0.34,0.42 -0.42,0.78 -0.05,0.19 -0.07,0.71 -0.08,1.56 -0.01,0.85 -0.1,1.53 -0.27,2.02 -0.13,0.38 -0.31,0.68 -0.54,0.91 -0.18,0.17 -0.47,0.34 -0.88,0.52 0.42,0.2 0.74,0.4 0.94,0.62 0.21,0.21 0.38,0.54 0.53,0.97 0.15,0.43 0.22,1.13 0.22,2.08 0,0.86 0.05,1.41 0.13,1.67 0.09,0.26 0.23,0.45 0.44,0.55 0.21,0.11 0.62,0.16 1.24,0.16 v 3.07 h -1.19 c -1.23,0 -2.11,-0.14 -2.63,-0.41 -0.52,-0.27 -0.89,-0.66 -1.11,-1.18 -0.22,-0.52 -0.33,-1.29 -0.33,-2.33 0,-0.23 0.01,-0.46 0.02,-0.68 0.01,-0.14 0.01,-0.28 0.01,-0.43 0,-0.74 -0.07,-1.26 -0.2,-1.57 -0.13,-0.31 -0.32,-0.54 -0.58,-0.68 -0.25,-0.14 -0.61,-0.21 -1.09,-0.23 v -3.25 c 0.49,0 0.86,-0.08 1.1,-0.23 0.24,-0.15 0.43,-0.39 0.56,-0.7 0.13,-0.31 0.19,-0.85 0.19,-1.59 v -0.32 c -0.01,-0.15 -0.01,-0.29 -0.01,-0.44 0,-1.12 0.09,-1.94 0.28,-2.43 0.19,-0.5 0.44,-0.89 0.77,-1.15 0.25,-0.21 0.58,-0.36 1.01,-0.46 0.56,-0.13 1.2,-0.2 1.92,-0.2 h 1.29 z m 39.41,0 v 3.11 h 0.42 c 0.39,0 0.69,0.08 0.89,0.25 0.2,0.17 0.34,0.42 0.42,0.78 0.05,0.19 0.07,0.71 0.08,1.56 0.01,0.85 0.1,1.53 0.27,2.02 0.13,0.38 0.31,0.68 0.54,0.91 0.18,0.17 0.47,0.34 0.88,0.52 -0.42,0.2 -0.74,0.4 -0.94,0.62 -0.21,0.21 -0.38,0.54 -0.53,0.97 -0.15,0.43 -0.22,1.13 -0.22,2.08 0,0.86 -0.04,1.41 -0.13,1.67 -0.09,0.26 -0.23,0.45 -0.44,0.55 -0.21,0.11 -0.62,0.16 -1.24,0.16 v 3.07 h 1.19 c 1.24,0 2.11,-0.14 2.63,-0.41 0.52,-0.27 0.89,-0.66 1.11,-1.18 0.22,-0.52 0.33,-1.29 0.33,-2.33 0,-0.23 -0.01,-0.46 -0.02,-0.68 -0.01,-0.14 -0.01,-0.28 -0.01,-0.43 0,-0.74 0.07,-1.26 0.2,-1.57 0.13,-0.31 0.32,-0.54 0.58,-0.68 0.25,-0.14 0.61,-0.21 1.09,-0.23 v -3.25 c -0.49,0 -0.86,-0.08 -1.1,-0.23 -0.25,-0.15 -0.43,-0.39 -0.56,-0.7 -0.13,-0.31 -0.19,-0.85 -0.19,-1.59 v -0.32 c 0.01,-0.15 0.01,-0.29 0.01,-0.44 0,-1.12 -0.09,-1.94 -0.28,-2.43 -0.19,-0.5 -0.45,-0.89 -0.77,-1.15 -0.25,-0.21 -0.58,-0.36 -1.01,-0.46 -0.56,-0.13 -1.2,-0.2 -1.92,-0.2 h -1.28 z m 4.65,-62.02 v 0 0 C 75.93,26.42 77.54,17.56 71.3,10.37 66.86,5.25 55.28,0.42 47.77,0.01 44.6,-0.16 45.81,2.42 42.68,3.5 36.22,5.73 30.57,10.47 28.72,17.05 c -0.3,1.08 -0.51,2.17 -0.62,3.26 -0.21,4.58 -0.09,10.04 0.24,14.38 -0.45,0.17 -0.86,0.38 -1.22,0.62 -0.78,0.52 -1.35,1.2 -1.73,2.01 -0.36,0.77 -0.52,1.65 -0.49,2.62 0.06,2.06 1.01,4.56 2.85,7.31 l 5.03,8 c 1.76,2.8 3.6,5.65 5.84,8.06 -0.11,0.32 0.01,-0.03 -0.06,0.18 -0.62,1.88 -1.66,5.02 -2.59,6.78 -6.11,4 -20.1,5.03 -25.53,8.06 -14.82,8.26 -9.47,25.29 -9.65,39.35 0.29,3.14 2.07,4.94 5.57,5.21 h 3.79 L 6,91.39 C 5.68,88.94 7.42,86.93 9.56,86.93 H 29.03 52.01 C 51.22,81.83 38.03,76.91 37.56,73.07 c 0.13,-0.09 0.25,-0.21 0.35,-0.35 1.12,-1.56 2.28,-4.81 3.08,-7.18 2.83,2.29 6.23,3.79 10.6,3.8 3.92,0.01 7.05,-1.08 9.68,-2.85 0.26,0.37 0.52,0.76 0.8,1.17 1.25,1.84 2.71,3.97 4.07,5.49 -0.29,4.37 -11.73,4.42 -13.03,13.78 h 40.73 c 2.14,0 3.89,2.01 3.56,4.46 l -4.15,31.5 h 3.79 c 3.5,-0.27 5.28,-2.07 5.58,-5.21 -0.99,-13.29 3.99,-31.75 -9.65,-39.35 C 87.61,75.34 73.91,74.3 67.68,70.43 66.63,69.13 65.5,67.47 64.5,66.01 64.18,65.53 63.87,65.08 63.58,64.67 l 0.15,-0.13 c 2.99,-2.8 5.24,-6.45 7.45,-10.09 L 76.92,45 c 0.03,-0.05 0.06,-0.11 0.09,-0.16 v 0 c 1.34,-3.05 1.78,-5.29 1.38,-6.87 -0.38,-1.47 -1.26,-2.35 -2.67,-2.78 z"
         id="path1"
         style="clip-rule:evenodd;fill-rule:evenodd" />
    </g>
  </g>
</svg>
