<?xml version="1.0" encoding="UTF-8" standalone="no"?>
<svg
   inkscape:export-ydpi="1012"
   inkscape:export-xdpi="1012"
   sodipodi:docname="support.svg"
   inkscape:version="1.3.2 (091e20e, 2023-11-25, custom)"
   id="svg8"
   version="1.1"
   viewBox="0 0 160 120"
   height="120mm"
   width="160mm"
   xmlns:inkscape="http://www.inkscape.org/namespaces/inkscape"
   xmlns:sodipodi="http://sodipodi.sourceforge.net/DTD/sodipodi-0.dtd"
   xmlns:xlink="http://www.w3.org/1999/xlink"
   xmlns="http://www.w3.org/2000/svg"
   xmlns:svg="http://www.w3.org/2000/svg"
   xmlns:rdf="http://www.w3.org/1999/02/22-rdf-syntax-ns#"
   xmlns:cc="http://creativecommons.org/ns#"
   xmlns:dc="http://purl.org/dc/elements/1.1/">
  <defs
     id="defs2">
    <linearGradient
       id="linearGradient2073"
       inkscape:collect="always">
      <stop
         id="stop2069"
         offset="0"
         style="stop-color:#000000;stop-opacity:1;" />
      <stop
         id="stop2071"
         offset="1"
         style="stop-color:#000000;stop-opacity:0;" />
    </linearGradient>
    <rect
       id="rect1009"
       height="0"
       width="12.5"
       y="-75"
       x="50" />
    <linearGradient
       gradientTransform="translate(0.29243162,-2.3779876)"
       gradientUnits="userSpaceOnUse"
       y2="204.98201"
       x2="223.36507"
       y1="204.98201"
       x1="221.6942"
       id="linearGradient2075"
       xlink:href="#linearGradient2073"
       inkscape:collect="always" />
  </defs>
  <sodipodi:namedview
     inkscape:window-maximized="1"
     inkscape:window-y="-12"
     inkscape:window-x="10068"
     inkscape:window-height="2054"
     inkscape:window-width="3840"
     inkscape:snap-to-guides="false"
     inkscape:guide-bbox="true"
     showguides="true"
     inkscape:bbox-nodes="false"
     inkscape:snap-grids="true"
     inkscape:snap-bbox="true"
     inkscape:snap-nodes="true"
     inkscape:object-paths="true"
     inkscape:snap-center="true"
     showgrid="true"
     inkscape:document-rotation="0"
     inkscape:current-layer="layer1"
     inkscape:document-units="mm"
     inkscape:cy="120.75"
     inkscape:cx="299.75"
     inkscape:zoom="2"
     inkscape:pageshadow="2"
     inkscape:pageopacity="0.0"
     borderopacity="1.0"
     bordercolor="#666666"
     pagecolor="#ffffff"
     id="base"
     fit-margin-top="5"
     fit-margin-left="5"
     fit-margin-right="5"
     fit-margin-bottom="5"
     inkscape:pagecheckerboard="0"
     inkscape:snap-intersection-paths="true"
     inkscape:bbox-paths="false"
     inkscape:snap-object-midpoints="true"
     inkscape:showpageshadow="2"
     inkscape:deskcolor="#d1d1d1">
    <inkscape:grid
       spacingy="1"
       spacingx="0.99999999"
       units="cm"
       dotted="true"
       enabled="true"
       id="grid835"
       type="xygrid"
       originx="0"
       originy="0"
       visible="true" />
  </sodipodi:namedview>
  <metadata
     id="metadata5">
    <rdf:RDF>
      <cc:Work
         rdf:about="">
        <dc:format>image/svg+xml</dc:format>
        <dc:type
           rdf:resource="http://purl.org/dc/dcmitype/StillImage" />
      </cc:Work>
    </rdf:RDF>
  </metadata>
  <g
     id="layer1"
     inkscape:groupmode="layer"
     inkscape:label="Ebene 1"
     transform="translate(-61.99998,-32.639073)">
    <g
       id="g2"
       transform="matrix(0.60600814,0,0,0.60600814,104.76684,57.639073)">
      <path
         d="m 36,68.78 c 0,0.8 -0.65,1.44 -1.44,1.44 -0.8,0 -1.44,-0.65 -1.44,-1.44 V 33.51 H 2.88 v 71.08 h 4.99 c 0.8,0 1.44,0.65 1.44,1.44 0,0.8 -0.65,1.44 -1.44,1.44 H 1.44 C 0.64,107.47 0,106.82 0,106.03 V 32.74 C 0,32.16 0.24,31.63 0.62,31.24 1,30.86 1.53,30.62 2.12,30.62 h 31 V 2.53 c 0,-0.69 0.28,-1.33 0.74,-1.78 V 0.74 C 34.32,0.28 34.95,0 35.65,0 H 87 c 0.7,0 1.33,0.28 1.79,0.74 l 0.11,0.12 c 0.39,0.45 0.64,1.03 0.64,1.67 v 28.09 h 31.22 c 0.58,0 1.11,0.24 1.49,0.62 l 0.01,0.01 c 0.38,0.38 0.62,0.91 0.62,1.49 v 73.29 c 0,0.8 -0.65,1.44 -1.44,1.44 h -9.14 c -0.8,0 -1.44,-0.65 -1.44,-1.44 0,-0.8 0.65,-1.44 1.44,-1.44 H 120 V 33.51 H 89.53 v 34.85 c 0,0.8 -0.65,1.44 -1.44,1.44 -0.8,0 -1.44,-0.65 -1.44,-1.44 V 2.88 H 36 Z m 61.15,-0.24 h 15.9 c 0.13,0 0.24,0.08 0.24,0.17 v 4.7 c 0,0.1 -0.11,0.18 -0.24,0.18 h -15.9 c -0.13,0 -0.24,-0.08 -0.24,-0.18 v -4.7 c 0,-0.09 0.11,-0.17 0.24,-0.17 z m -87.44,0 h 15.9 c 0.13,0 0.24,0.08 0.24,0.17 v 4.7 c 0,0.1 -0.11,0.18 -0.24,0.18 H 9.71 c -0.13,0 -0.24,-0.08 -0.24,-0.18 v -4.7 c 0,-0.09 0.11,-0.17 0.24,-0.17 z M 42.46,8.47 H 80.2 c 0.63,0 1.15,0.52 1.15,1.15 v 12.31 c 0,0.63 -0.52,1.15 -1.15,1.15 H 42.46 c -0.63,0 -1.15,-0.52 -1.15,-1.15 V 9.62 C 41.3,8.99 41.82,8.47 42.46,8.47 Z m 54.94,96.55 c -1.05,-2.11 -2.38,-3.9 -3.94,-5.58 2.92,1.13 5.91,2.25 8.12,3.64 4.02,2.52 4.32,5.57 4.65,9.95 H 86.3 c 0,-0.03 0,-0.07 0,-0.1 l -0.37,-3.13 1.43,1.24 7,-6.09 z m -71.32,-4.94 2.53,7.44 1.27,-4.42 -0.62,-0.68 c -0.28,-0.41 -0.34,-0.77 -0.19,-1.08 0.34,-0.67 1.04,-0.54 1.69,-0.54 0.68,0 1.53,-0.13 1.74,0.73 0.07,0.29 -0.02,0.59 -0.22,0.9 l -0.62,0.68 1.27,4.42 2.29,-7.44 c 0.33,0.3 0.8,0.55 1.34,0.77 -0.19,0.4 -0.36,0.81 -0.51,1.25 -0.39,1.13 -0.64,2.38 -0.75,3.77 h 0.01 c 0,0.03 0,0.07 -0.01,0.1 l -0.55,7.06 H 16.44 c -1.1,-0.08 -1.66,-0.65 -1.75,-1.63 l 0.38,-3.9 c 0.11,-1.39 0.5,-2.48 1.13,-3.32 0.42,-0.55 0.94,-0.96 1.51,-1.28 1.82,-1.05 6.72,-1.34 8.37,-2.83 z M 24.84,89.53 c -0.25,0.02 -0.43,0.08 -0.57,0.16 -0.08,0.05 -0.13,0.12 -0.17,0.2 -0.04,0.09 -0.06,0.21 -0.06,0.34 0.01,0.41 0.23,0.96 0.66,1.59 l 0.01,0.01 1.41,2.25 c 0.56,0.9 1.16,1.81 1.88,2.48 0.69,0.63 1.54,1.06 2.65,1.07 1.21,0 2.09,-0.44 2.81,-1.11 0.75,-0.7 1.35,-1.68 1.94,-2.65 l 1.59,-2.62 c 0.32,-0.73 0.42,-1.17 0.32,-1.38 -0.06,-0.13 -0.33,-0.16 -0.76,-0.13 -0.28,0.06 -0.56,0.01 -0.87,-0.15 l 0.79,-2.38 c -2.91,-0.04 -4.91,-0.54 -7.26,-2.05 -0.77,-0.49 -1.01,-1.06 -1.78,-1.01 -0.59,0.11 -1.08,0.38 -1.47,0.8 -0.38,0.4 -0.66,0.95 -0.84,1.66 l 0.47,2.86 c -0.25,0.15 -0.5,0.16 -0.75,0.06 z m 12.61,-0.71 c 0.34,0.1 0.59,0.3 0.75,0.6 0.24,0.49 0.15,1.21 -0.3,2.23 v 0 c -0.01,0.02 -0.02,0.04 -0.03,0.06 l -1.61,2.65 c -0.62,1.03 -1.26,2.06 -2.11,2.86 -0.89,0.83 -1.98,1.38 -3.48,1.38 -1.4,0 -2.45,-0.54 -3.31,-1.33 -0.83,-0.76 -1.46,-1.73 -2.05,-2.68 L 23.9,92.34 c -0.53,-0.79 -0.8,-1.51 -0.82,-2.1 -0.01,-0.29 0.04,-0.55 0.15,-0.78 0.11,-0.24 0.29,-0.45 0.52,-0.6 0.11,-0.08 0.24,-0.14 0.39,-0.19 -0.09,-1.2 -0.12,-2.69 -0.06,-3.95 0.03,-0.31 0.09,-0.61 0.17,-0.92 0.36,-1.29 1.27,-2.33 2.39,-3.04 0.4,-0.25 0.83,-0.46 1.29,-0.63 2.72,-0.98 6.32,-0.45 8.25,1.64 0.79,0.85 1.28,1.98 1.38,3.47 z m 14.23,-9.96 c -0.32,0.04 -0.56,0.12 -0.74,0.23 -0.12,0.08 -0.2,0.18 -0.25,0.29 -0.06,0.14 -0.09,0.31 -0.09,0.5 0.02,0.61 0.35,1.43 0.98,2.37 l 0.01,0.02 v 0 l 2.11,3.36 c 0.84,1.34 1.72,2.7 2.81,3.7 1.04,0.95 2.29,1.59 3.95,1.59 1.8,0 3.12,-0.66 4.18,-1.66 1.12,-1.05 2.02,-2.5 2.89,-3.95 l 2.37,-3.9 c 0.48,-1.09 0.62,-1.75 0.47,-2.05 -0.1,-0.2 -0.51,-0.25 -1.21,-0.18 -0.05,0 -0.11,0 -0.16,0 -0.29,0 -0.6,-0.07 -0.95,-0.23 l 1.07,-3.56 c -4.35,-0.05 -7.32,-0.81 -10.84,-3.06 -1.16,-0.74 -1.5,-1.58 -2.66,-1.5 -0.87,0.17 -1.61,0.56 -2.19,1.19 -0.56,0.6 -0.98,1.42 -1.26,2.48 l 0.75,4.31 c -0.43,0.2 -0.85,0.22 -1.24,0.05 z m 1.96,15.73 3.78,11.11 1.9,-6.59 -0.93,-1.02 c -0.42,-0.61 -0.51,-1.15 -0.28,-1.61 0.5,-1 1.55,-0.81 2.52,-0.81 1.02,0 2.28,-0.19 2.6,1.08 0.11,0.43 -0.03,0.87 -0.33,1.34 l -0.93,1.02 1.9,6.59 3.42,-11.11 c 2.47,2.22 8.82,2.67 11.54,4.18 0.74,0.41 1.41,0.92 1.98,1.57 0.01,-0.07 0.03,-0.15 0.07,-0.21 0.3,-0.59 0.92,-0.48 1.5,-0.48 0.61,0 1.36,-0.11 1.55,0.65 0.06,0.25 -0.02,0.52 -0.19,0.8 l -0.55,0.61 1.13,3.92 -1.45,1.15 0.48,6.29 c -0.14,1.47 -0.97,2.31 -2.61,2.44 H 40.2 c -1.64,-0.13 -2.47,-0.97 -2.61,-2.44 l 0.57,-7.41 c 0.16,-2.07 0.74,-3.71 1.69,-4.96 0.62,-0.82 1.4,-1.43 2.26,-1.91 2.71,-1.53 9.06,-1.98 11.53,-4.2 z M 70.6,77.79 c 0.51,0.15 0.89,0.44 1.12,0.9 0.36,0.73 0.22,1.8 -0.45,3.33 v 0 c -0.01,0.03 -0.03,0.06 -0.04,0.09 l -2.41,3.96 c -0.93,1.54 -1.88,3.07 -3.15,4.26 -1.33,1.24 -2.96,2.07 -5.19,2.06 -2.09,0 -3.66,-0.8 -4.95,-1.98 -1.24,-1.13 -2.17,-2.58 -3.07,-4 l -2.11,-3.36 c -0.79,-1.17 -1.19,-2.25 -1.22,-3.14 -0.01,-0.43 0.06,-0.82 0.22,-1.16 0.17,-0.36 0.43,-0.67 0.78,-0.9 0.17,-0.12 0.37,-0.21 0.58,-0.29 -0.13,-1.8 -0.17,-4.02 -0.09,-5.89 0.05,-0.46 0.13,-0.91 0.26,-1.37 0.54,-1.93 1.89,-3.48 3.57,-4.54 0.59,-0.38 1.24,-0.69 1.92,-0.93 4.05,-1.47 9.43,-0.67 12.31,2.45 1.17,1.27 1.91,2.95 2.07,5.17 z m 7.33,18.34 1.86,-0.05 1.55,-0.04 c -1.8,-5.55 -1.2,-10.65 3.14,-14.99 0.74,2.38 2.39,4.35 5.2,5.8 1.34,1 2.64,2.2 3.9,3.59 0.22,-0.92 -0.63,-2.03 -1.66,-3.18 0.95,0.47 1.83,1.13 2.45,2.4 0.72,1.47 0.71,2.71 0.47,4.31 -0.11,0.74 -0.29,1.44 -0.55,2.07 h 2.57 c 2.71,-5.8 0.99,-14.41 -4.55,-18.06 -1.7,-1.12 -2.92,-1.08 -4.92,-1.08 -2.28,0 -3.45,0.07 -5.41,1.37 -2.88,1.91 -4.66,5.21 -5.4,9.79 -0.15,2.29 -0.25,6.24 1.35,8.07 z M 97.15,58.27 h 15.9 c 0.13,0 0.24,0.08 0.24,0.18 v 4.7 c 0,0.1 -0.11,0.18 -0.24,0.18 h -15.9 c -0.13,0 -0.24,-0.08 -0.24,-0.18 v -4.7 c 0,-0.1 0.11,-0.18 0.24,-0.18 z m 0,-10.28 h 15.9 c 0.13,0 0.24,0.08 0.24,0.18 v 4.7 c 0,0.1 -0.11,0.18 -0.24,0.18 h -15.9 c -0.13,0 -0.24,-0.08 -0.24,-0.18 v -4.7 c 0,-0.1 0.11,-0.18 0.24,-0.18 z M 9.71,58.27 h 15.9 c 0.13,0 0.24,0.08 0.24,0.18 v 4.7 c 0,0.1 -0.11,0.18 -0.24,0.18 H 9.71 c -0.13,0 -0.24,-0.08 -0.24,-0.18 v -4.7 c 0,-0.1 0.11,-0.18 0.24,-0.18 z m 0,-10.28 h 15.9 c 0.13,0 0.24,0.08 0.24,0.18 v 4.7 c 0,0.1 -0.11,0.18 -0.24,0.18 H 9.71 c -0.13,0 -0.24,-0.08 -0.24,-0.18 v -4.7 c 0,-0.1 0.11,-0.18 0.24,-0.18 z m 61.96,1.09 h 8.49 c 0.13,0 0.24,0.11 0.24,0.24 v 8.49 c 0,0.13 -0.11,0.24 -0.24,0.24 h -8.49 c -0.13,0 -0.24,-0.11 -0.24,-0.24 v -8.49 c 0,-0.13 0.11,-0.24 0.24,-0.24 z m -14.59,0 h 8.49 c 0.13,0 0.24,0.11 0.24,0.24 v 8.49 c 0,0.13 -0.11,0.24 -0.24,0.24 h -8.49 c -0.13,0 -0.24,-0.11 -0.24,-0.24 v -8.49 c 0,-0.13 0.11,-0.24 0.24,-0.24 z m -14.59,0 h 8.49 c 0.13,0 0.24,0.11 0.24,0.24 v 8.49 c 0,0.13 -0.11,0.24 -0.24,0.24 h -8.49 c -0.13,0 -0.24,-0.11 -0.24,-0.24 v -8.49 c 0,-0.13 0.11,-0.24 0.24,-0.24 z M 71.67,32.61 h 8.49 c 0.13,0 0.24,0.11 0.24,0.24 v 8.49 c 0,0.13 -0.11,0.24 -0.24,0.24 h -8.49 c -0.13,0 -0.24,-0.11 -0.24,-0.24 v -8.49 c 0,-0.14 0.11,-0.24 0.24,-0.24 z m -14.59,0 h 8.49 c 0.13,0 0.24,0.11 0.24,0.24 v 8.49 c 0,0.13 -0.11,0.24 -0.24,0.24 h -8.49 c -0.13,0 -0.24,-0.11 -0.24,-0.24 v -8.49 c 0,-0.14 0.11,-0.24 0.24,-0.24 z m -14.59,0 h 8.49 c 0.13,0 0.24,0.11 0.24,0.24 v 8.49 c 0,0.13 -0.11,0.24 -0.24,0.24 h -8.49 c -0.13,0 -0.24,-0.11 -0.24,-0.24 v -8.49 c 0,-0.14 0.11,-0.24 0.24,-0.24 z"
         id="path1" />
    </g>
  </g>
</svg>
