<?xml version="1.0" encoding="utf-8" standalone="no"?>
<!DOCTYPE svg PUBLIC "-//W3C//DTD SVG 1.1//EN"
  "http://www.w3.org/Graphics/SVG/1.1/DTD/svg11.dtd">
<!-- Created with matplotlib (https://matplotlib.org/) -->
<svg height="308.377885pt" version="1.1" viewBox="0 0 440.39952 308.377885" width="440.39952pt" xmlns="http://www.w3.org/2000/svg" xmlns:xlink="http://www.w3.org/1999/xlink">
 <metadata>
  <rdf:RDF xmlns:cc="http://creativecommons.org/ns#" xmlns:dc="http://purl.org/dc/elements/1.1/" xmlns:rdf="http://www.w3.org/1999/02/22-rdf-syntax-ns#">
   <cc:Work>
    <dc:type rdf:resource="http://purl.org/dc/dcmitype/StillImage"/>
    <dc:date>2021-08-23T12:31:42.026353</dc:date>
    <dc:format>image/svg+xml</dc:format>
    <dc:creator>
     <cc:Agent>
      <dc:title>Matplotlib v3.3.4, https://matplotlib.org/</dc:title>
     </cc:Agent>
    </dc:creator>
   </cc:Work>
  </rdf:RDF>
 </metadata>
 <defs>
  <style type="text/css">*{stroke-linecap:butt;stroke-linejoin:round;}</style>
 </defs>
 <g id="figure_1">
  <g id="patch_1">
   <path d="M 0 308.377885 
L 440.39952 308.377885 
L 440.39952 0 
L 0 0 
z
" style="fill:#ffffff;"/>
  </g>
  <g id="axes_1">
   <g id="patch_2">
    <path d="M 72.59375 133.7375 
L 231.035614 133.7375 
L 231.035614 47.86846 
L 72.59375 47.86846 
z
" style="fill:#ffffff;"/>
   </g>
   <g id="patch_3">
    <path clip-path="url(#p9b06d5f307)" d="M 72.59375 51.771598 
L 208.224445 51.771598 
L 208.224445 62.538876 
L 72.59375 62.538876 
z
" style="fill:#3a9dce;"/>
   </g>
   <g id="patch_4">
    <path clip-path="url(#p9b06d5f307)" d="M 72.59375 65.230695 
L 185.470542 65.230695 
L 185.470542 75.997973 
L 72.59375 75.997973 
z
" style="fill:#f08e2b;"/>
   </g>
   <g id="patch_5">
    <path clip-path="url(#p9b06d5f307)" d="M 72.59375 78.689793 
L 177.781728 78.689793 
L 177.781728 89.45707 
L 72.59375 89.45707 
z
" style="fill:#f08e2b;"/>
   </g>
   <g id="patch_6">
    <path clip-path="url(#p9b06d5f307)" d="M 72.59375 92.14889 
L 165.288239 92.14889 
L 165.288239 102.916167 
L 72.59375 102.916167 
z
" style="fill:#f08e2b;"/>
   </g>
   <g id="patch_7">
    <path clip-path="url(#p9b06d5f307)" d="M 72.59375 105.607987 
L 148.358711 105.607987 
L 148.358711 116.375265 
L 72.59375 116.375265 
z
" style="fill:#f08e2b;"/>
   </g>
   <g id="patch_8">
    <path clip-path="url(#p9b06d5f307)" d="M 72.59375 119.067084 
L 148.358711 119.067084 
L 148.358711 129.834362 
L 72.59375 129.834362 
z
" style="fill:#db5252;"/>
   </g>
   <g id="patch_9">
    <path clip-path="url(#p9b06d5f307)" d="M 208.224445 51.771598 
L 208.224445 51.771598 
L 208.224445 62.538876 
L 208.224445 62.538876 
z
" style="fill:#6ed880;"/>
   </g>
   <g id="patch_10">
    <path clip-path="url(#p9b06d5f307)" d="M 185.470542 65.230695 
L 208.224445 65.230695 
L 208.224445 75.997973 
L 185.470542 75.997973 
z
" style="fill:#6ed880;"/>
   </g>
   <g id="patch_11">
    <path clip-path="url(#p9b06d5f307)" d="M 177.781728 78.689793 
L 185.470542 78.689793 
L 185.470542 89.45707 
L 177.781728 89.45707 
z
" style="fill:#6ed880;"/>
   </g>
   <g id="patch_12">
    <path clip-path="url(#p9b06d5f307)" d="M 165.288239 92.14889 
L 177.781728 92.14889 
L 177.781728 102.916167 
L 165.288239 102.916167 
z
" style="fill:#6ed880;"/>
   </g>
   <g id="patch_13">
    <path clip-path="url(#p9b06d5f307)" d="M 148.358711 105.607987 
L 165.288239 105.607987 
L 165.288239 116.375265 
L 148.358711 116.375265 
z
" style="fill:#6ed880;"/>
   </g>
   <g id="patch_14">
    <path clip-path="url(#p9b06d5f307)" d="M 148.358711 119.067084 
L 148.358711 119.067084 
L 148.358711 129.834362 
L 148.358711 129.834362 
z
" style="fill:#6ed880;"/>
   </g>
   <g id="matplotlib.axis_1">
    <g id="xtick_1">
     <g id="line2d_1">
      <defs>
       <path d="M 0 0 
L 0 3.5 
" id="m845c25c370" style="stroke:#000000;stroke-width:0.8;"/>
      </defs>
      <g>
       <use style="stroke:#000000;stroke-width:0.8;" x="72.59375" xlink:href="#m845c25c370" y="133.7375"/>
      </g>
     </g>
     <g id="text_1">
      <!-- 0 -->
      <g transform="translate(69.4125 148.335937)scale(0.1 -0.1)">
       <defs>
        <path d="M 31.78125 66.40625 
Q 24.171875 66.40625 20.328125 58.90625 
Q 16.5 51.421875 16.5 36.375 
Q 16.5 21.390625 20.328125 13.890625 
Q 24.171875 6.390625 31.78125 6.390625 
Q 39.453125 6.390625 43.28125 13.890625 
Q 47.125 21.390625 47.125 36.375 
Q 47.125 51.421875 43.28125 58.90625 
Q 39.453125 66.40625 31.78125 66.40625 
z
M 31.78125 74.21875 
Q 44.046875 74.21875 50.515625 64.515625 
Q 56.984375 54.828125 56.984375 36.375 
Q 56.984375 17.96875 50.515625 8.265625 
Q 44.046875 -1.421875 31.78125 -1.421875 
Q 19.53125 -1.421875 13.0625 8.265625 
Q 6.59375 17.96875 6.59375 36.375 
Q 6.59375 54.828125 13.0625 64.515625 
Q 19.53125 74.21875 31.78125 74.21875 
z
" id="DejaVuSans-48"/>
       </defs>
       <use xlink:href="#DejaVuSans-48"/>
      </g>
     </g>
    </g>
    <g id="xtick_2">
     <g id="line2d_2">
      <g>
       <use style="stroke:#000000;stroke-width:0.8;" x="104.282123" xlink:href="#m845c25c370" y="133.7375"/>
      </g>
     </g>
     <g id="text_2">
      <!-- 200 -->
      <g transform="translate(94.738373 148.335937)scale(0.1 -0.1)">
       <defs>
        <path d="M 19.1875 8.296875 
L 53.609375 8.296875 
L 53.609375 0 
L 7.328125 0 
L 7.328125 8.296875 
Q 12.9375 14.109375 22.625 23.890625 
Q 32.328125 33.6875 34.8125 36.53125 
Q 39.546875 41.84375 41.421875 45.53125 
Q 43.3125 49.21875 43.3125 52.78125 
Q 43.3125 58.59375 39.234375 62.25 
Q 35.15625 65.921875 28.609375 65.921875 
Q 23.96875 65.921875 18.8125 64.3125 
Q 13.671875 62.703125 7.8125 59.421875 
L 7.8125 69.390625 
Q 13.765625 71.78125 18.9375 73 
Q 24.125 74.21875 28.421875 74.21875 
Q 39.75 74.21875 46.484375 68.546875 
Q 53.21875 62.890625 53.21875 53.421875 
Q 53.21875 48.921875 51.53125 44.890625 
Q 49.859375 40.875 45.40625 35.40625 
Q 44.1875 33.984375 37.640625 27.21875 
Q 31.109375 20.453125 19.1875 8.296875 
z
" id="DejaVuSans-50"/>
       </defs>
       <use xlink:href="#DejaVuSans-50"/>
       <use x="63.623047" xlink:href="#DejaVuSans-48"/>
       <use x="127.246094" xlink:href="#DejaVuSans-48"/>
      </g>
     </g>
    </g>
    <g id="xtick_3">
     <g id="line2d_3">
      <g>
       <use style="stroke:#000000;stroke-width:0.8;" x="135.970495" xlink:href="#m845c25c370" y="133.7375"/>
      </g>
     </g>
     <g id="text_3">
      <!-- 400 -->
      <g transform="translate(126.426745 148.335937)scale(0.1 -0.1)">
       <defs>
        <path d="M 37.796875 64.3125 
L 12.890625 25.390625 
L 37.796875 25.390625 
z
M 35.203125 72.90625 
L 47.609375 72.90625 
L 47.609375 25.390625 
L 58.015625 25.390625 
L 58.015625 17.1875 
L 47.609375 17.1875 
L 47.609375 0 
L 37.796875 0 
L 37.796875 17.1875 
L 4.890625 17.1875 
L 4.890625 26.703125 
z
" id="DejaVuSans-52"/>
       </defs>
       <use xlink:href="#DejaVuSans-52"/>
       <use x="63.623047" xlink:href="#DejaVuSans-48"/>
       <use x="127.246094" xlink:href="#DejaVuSans-48"/>
      </g>
     </g>
    </g>
    <g id="xtick_4">
     <g id="line2d_4">
      <g>
       <use style="stroke:#000000;stroke-width:0.8;" x="167.658868" xlink:href="#m845c25c370" y="133.7375"/>
      </g>
     </g>
     <g id="text_4">
      <!-- 600 -->
      <g transform="translate(158.115118 148.335937)scale(0.1 -0.1)">
       <defs>
        <path d="M 33.015625 40.375 
Q 26.375 40.375 22.484375 35.828125 
Q 18.609375 31.296875 18.609375 23.390625 
Q 18.609375 15.53125 22.484375 10.953125 
Q 26.375 6.390625 33.015625 6.390625 
Q 39.65625 6.390625 43.53125 10.953125 
Q 47.40625 15.53125 47.40625 23.390625 
Q 47.40625 31.296875 43.53125 35.828125 
Q 39.65625 40.375 33.015625 40.375 
z
M 52.59375 71.296875 
L 52.59375 62.3125 
Q 48.875 64.0625 45.09375 64.984375 
Q 41.3125 65.921875 37.59375 65.921875 
Q 27.828125 65.921875 22.671875 59.328125 
Q 17.53125 52.734375 16.796875 39.40625 
Q 19.671875 43.65625 24.015625 45.921875 
Q 28.375 48.1875 33.59375 48.1875 
Q 44.578125 48.1875 50.953125 41.515625 
Q 57.328125 34.859375 57.328125 23.390625 
Q 57.328125 12.15625 50.6875 5.359375 
Q 44.046875 -1.421875 33.015625 -1.421875 
Q 20.359375 -1.421875 13.671875 8.265625 
Q 6.984375 17.96875 6.984375 36.375 
Q 6.984375 53.65625 15.1875 63.9375 
Q 23.390625 74.21875 37.203125 74.21875 
Q 40.921875 74.21875 44.703125 73.484375 
Q 48.484375 72.75 52.59375 71.296875 
z
" id="DejaVuSans-54"/>
       </defs>
       <use xlink:href="#DejaVuSans-54"/>
       <use x="63.623047" xlink:href="#DejaVuSans-48"/>
       <use x="127.246094" xlink:href="#DejaVuSans-48"/>
      </g>
     </g>
    </g>
    <g id="xtick_5">
     <g id="line2d_5">
      <g>
       <use style="stroke:#000000;stroke-width:0.8;" x="199.347241" xlink:href="#m845c25c370" y="133.7375"/>
      </g>
     </g>
     <g id="text_5">
      <!-- 800 -->
      <g transform="translate(189.803491 148.335937)scale(0.1 -0.1)">
       <defs>
        <path d="M 31.78125 34.625 
Q 24.75 34.625 20.71875 30.859375 
Q 16.703125 27.09375 16.703125 20.515625 
Q 16.703125 13.921875 20.71875 10.15625 
Q 24.75 6.390625 31.78125 6.390625 
Q 38.8125 6.390625 42.859375 10.171875 
Q 46.921875 13.96875 46.921875 20.515625 
Q 46.921875 27.09375 42.890625 30.859375 
Q 38.875 34.625 31.78125 34.625 
z
M 21.921875 38.8125 
Q 15.578125 40.375 12.03125 44.71875 
Q 8.5 49.078125 8.5 55.328125 
Q 8.5 64.0625 14.71875 69.140625 
Q 20.953125 74.21875 31.78125 74.21875 
Q 42.671875 74.21875 48.875 69.140625 
Q 55.078125 64.0625 55.078125 55.328125 
Q 55.078125 49.078125 51.53125 44.71875 
Q 48 40.375 41.703125 38.8125 
Q 48.828125 37.15625 52.796875 32.3125 
Q 56.78125 27.484375 56.78125 20.515625 
Q 56.78125 9.90625 50.3125 4.234375 
Q 43.84375 -1.421875 31.78125 -1.421875 
Q 19.734375 -1.421875 13.25 4.234375 
Q 6.78125 9.90625 6.78125 20.515625 
Q 6.78125 27.484375 10.78125 32.3125 
Q 14.796875 37.15625 21.921875 38.8125 
z
M 18.3125 54.390625 
Q 18.3125 48.734375 21.84375 45.5625 
Q 25.390625 42.390625 31.78125 42.390625 
Q 38.140625 42.390625 41.71875 45.5625 
Q 45.3125 48.734375 45.3125 54.390625 
Q 45.3125 60.0625 41.71875 63.234375 
Q 38.140625 66.40625 31.78125 66.40625 
Q 25.390625 66.40625 21.84375 63.234375 
Q 18.3125 60.0625 18.3125 54.390625 
z
" id="DejaVuSans-56"/>
       </defs>
       <use xlink:href="#DejaVuSans-56"/>
       <use x="63.623047" xlink:href="#DejaVuSans-48"/>
       <use x="127.246094" xlink:href="#DejaVuSans-48"/>
      </g>
     </g>
    </g>
    <g id="xtick_6">
     <g id="line2d_6">
      <g>
       <use style="stroke:#000000;stroke-width:0.8;" x="231.035614" xlink:href="#m845c25c370" y="133.7375"/>
      </g>
     </g>
     <g id="text_6">
      <!-- 1000 -->
      <g transform="translate(218.310614 148.335937)scale(0.1 -0.1)">
       <defs>
        <path d="M 12.40625 8.296875 
L 28.515625 8.296875 
L 28.515625 63.921875 
L 10.984375 60.40625 
L 10.984375 69.390625 
L 28.421875 72.90625 
L 38.28125 72.90625 
L 38.28125 8.296875 
L 54.390625 8.296875 
L 54.390625 0 
L 12.40625 0 
z
" id="DejaVuSans-49"/>
       </defs>
       <use xlink:href="#DejaVuSans-49"/>
       <use x="63.623047" xlink:href="#DejaVuSans-48"/>
       <use x="127.246094" xlink:href="#DejaVuSans-48"/>
       <use x="190.869141" xlink:href="#DejaVuSans-48"/>
      </g>
     </g>
    </g>
    <g id="text_7">
     <!-- Exergy in W -->
     <g transform="translate(121.994369 162.014062)scale(0.1 -0.1)">
      <defs>
       <path d="M 9.8125 72.90625 
L 55.90625 72.90625 
L 55.90625 64.59375 
L 19.671875 64.59375 
L 19.671875 43.015625 
L 54.390625 43.015625 
L 54.390625 34.71875 
L 19.671875 34.71875 
L 19.671875 8.296875 
L 56.78125 8.296875 
L 56.78125 0 
L 9.8125 0 
z
" id="DejaVuSans-69"/>
       <path d="M 54.890625 54.6875 
L 35.109375 28.078125 
L 55.90625 0 
L 45.3125 0 
L 29.390625 21.484375 
L 13.484375 0 
L 2.875 0 
L 24.125 28.609375 
L 4.6875 54.6875 
L 15.28125 54.6875 
L 29.78125 35.203125 
L 44.28125 54.6875 
z
" id="DejaVuSans-120"/>
       <path d="M 56.203125 29.59375 
L 56.203125 25.203125 
L 14.890625 25.203125 
Q 15.484375 15.921875 20.484375 11.0625 
Q 25.484375 6.203125 34.421875 6.203125 
Q 39.59375 6.203125 44.453125 7.46875 
Q 49.3125 8.734375 54.109375 11.28125 
L 54.109375 2.78125 
Q 49.265625 0.734375 44.1875 -0.34375 
Q 39.109375 -1.421875 33.890625 -1.421875 
Q 20.796875 -1.421875 13.15625 6.1875 
Q 5.515625 13.8125 5.515625 26.8125 
Q 5.515625 40.234375 12.765625 48.109375 
Q 20.015625 56 32.328125 56 
Q 43.359375 56 49.78125 48.890625 
Q 56.203125 41.796875 56.203125 29.59375 
z
M 47.21875 32.234375 
Q 47.125 39.59375 43.09375 43.984375 
Q 39.0625 48.390625 32.421875 48.390625 
Q 24.90625 48.390625 20.390625 44.140625 
Q 15.875 39.890625 15.1875 32.171875 
z
" id="DejaVuSans-101"/>
       <path d="M 41.109375 46.296875 
Q 39.59375 47.171875 37.8125 47.578125 
Q 36.03125 48 33.890625 48 
Q 26.265625 48 22.1875 43.046875 
Q 18.109375 38.09375 18.109375 28.8125 
L 18.109375 0 
L 9.078125 0 
L 9.078125 54.6875 
L 18.109375 54.6875 
L 18.109375 46.1875 
Q 20.953125 51.171875 25.484375 53.578125 
Q 30.03125 56 36.53125 56 
Q 37.453125 56 38.578125 55.875 
Q 39.703125 55.765625 41.0625 55.515625 
z
" id="DejaVuSans-114"/>
       <path d="M 45.40625 27.984375 
Q 45.40625 37.75 41.375 43.109375 
Q 37.359375 48.484375 30.078125 48.484375 
Q 22.859375 48.484375 18.828125 43.109375 
Q 14.796875 37.75 14.796875 27.984375 
Q 14.796875 18.265625 18.828125 12.890625 
Q 22.859375 7.515625 30.078125 7.515625 
Q 37.359375 7.515625 41.375 12.890625 
Q 45.40625 18.265625 45.40625 27.984375 
z
M 54.390625 6.78125 
Q 54.390625 -7.171875 48.1875 -13.984375 
Q 42 -20.796875 29.203125 -20.796875 
Q 24.46875 -20.796875 20.265625 -20.09375 
Q 16.0625 -19.390625 12.109375 -17.921875 
L 12.109375 -9.1875 
Q 16.0625 -11.328125 19.921875 -12.34375 
Q 23.78125 -13.375 27.78125 -13.375 
Q 36.625 -13.375 41.015625 -8.765625 
Q 45.40625 -4.15625 45.40625 5.171875 
L 45.40625 9.625 
Q 42.625 4.78125 38.28125 2.390625 
Q 33.9375 0 27.875 0 
Q 17.828125 0 11.671875 7.65625 
Q 5.515625 15.328125 5.515625 27.984375 
Q 5.515625 40.671875 11.671875 48.328125 
Q 17.828125 56 27.875 56 
Q 33.9375 56 38.28125 53.609375 
Q 42.625 51.21875 45.40625 46.390625 
L 45.40625 54.6875 
L 54.390625 54.6875 
z
" id="DejaVuSans-103"/>
       <path d="M 32.171875 -5.078125 
Q 28.375 -14.84375 24.75 -17.8125 
Q 21.140625 -20.796875 15.09375 -20.796875 
L 7.90625 -20.796875 
L 7.90625 -13.28125 
L 13.1875 -13.28125 
Q 16.890625 -13.28125 18.9375 -11.515625 
Q 21 -9.765625 23.484375 -3.21875 
L 25.09375 0.875 
L 2.984375 54.6875 
L 12.5 54.6875 
L 29.59375 11.921875 
L 46.6875 54.6875 
L 56.203125 54.6875 
z
" id="DejaVuSans-121"/>
       <path id="DejaVuSans-32"/>
       <path d="M 9.421875 54.6875 
L 18.40625 54.6875 
L 18.40625 0 
L 9.421875 0 
z
M 9.421875 75.984375 
L 18.40625 75.984375 
L 18.40625 64.59375 
L 9.421875 64.59375 
z
" id="DejaVuSans-105"/>
       <path d="M 54.890625 33.015625 
L 54.890625 0 
L 45.90625 0 
L 45.90625 32.71875 
Q 45.90625 40.484375 42.875 44.328125 
Q 39.84375 48.1875 33.796875 48.1875 
Q 26.515625 48.1875 22.3125 43.546875 
Q 18.109375 38.921875 18.109375 30.90625 
L 18.109375 0 
L 9.078125 0 
L 9.078125 54.6875 
L 18.109375 54.6875 
L 18.109375 46.1875 
Q 21.34375 51.125 25.703125 53.5625 
Q 30.078125 56 35.796875 56 
Q 45.21875 56 50.046875 50.171875 
Q 54.890625 44.34375 54.890625 33.015625 
z
" id="DejaVuSans-110"/>
       <path d="M 3.328125 72.90625 
L 13.28125 72.90625 
L 28.609375 11.28125 
L 43.890625 72.90625 
L 54.984375 72.90625 
L 70.3125 11.28125 
L 85.59375 72.90625 
L 95.609375 72.90625 
L 77.296875 0 
L 64.890625 0 
L 49.515625 63.28125 
L 33.984375 0 
L 21.578125 0 
z
" id="DejaVuSans-87"/>
      </defs>
      <use xlink:href="#DejaVuSans-69"/>
      <use x="63.183594" xlink:href="#DejaVuSans-120"/>
      <use x="119.238281" xlink:href="#DejaVuSans-101"/>
      <use x="180.761719" xlink:href="#DejaVuSans-114"/>
      <use x="220.125" xlink:href="#DejaVuSans-103"/>
      <use x="283.601562" xlink:href="#DejaVuSans-121"/>
      <use x="342.78125" xlink:href="#DejaVuSans-32"/>
      <use x="374.568359" xlink:href="#DejaVuSans-105"/>
      <use x="402.351562" xlink:href="#DejaVuSans-110"/>
      <use x="465.730469" xlink:href="#DejaVuSans-32"/>
      <use x="497.517578" xlink:href="#DejaVuSans-87"/>
     </g>
    </g>
   </g>
   <g id="matplotlib.axis_2">
    <g id="ytick_1">
     <g id="line2d_7">
      <defs>
       <path d="M 0 0 
L -3.5 0 
" id="mfa32a6287a" style="stroke:#000000;stroke-width:0.8;"/>
      </defs>
      <g>
       <use style="stroke:#000000;stroke-width:0.8;" x="72.59375" xlink:href="#mfa32a6287a" y="57.155237"/>
      </g>
     </g>
     <g id="text_8">
      <!-- E_F -->
      <g transform="translate(48.523438 60.815393)scale(0.1 -0.1)">
       <defs>
        <path d="M 50.984375 -16.609375 
L 50.984375 -23.578125 
L -0.984375 -23.578125 
L -0.984375 -16.609375 
z
" id="DejaVuSans-95"/>
        <path d="M 9.8125 72.90625 
L 51.703125 72.90625 
L 51.703125 64.59375 
L 19.671875 64.59375 
L 19.671875 43.109375 
L 48.578125 43.109375 
L 48.578125 34.8125 
L 19.671875 34.8125 
L 19.671875 0 
L 9.8125 0 
z
" id="DejaVuSans-70"/>
       </defs>
       <use xlink:href="#DejaVuSans-69"/>
       <use x="63.183594" xlink:href="#DejaVuSans-95"/>
       <use x="113.183594" xlink:href="#DejaVuSans-70"/>
      </g>
     </g>
    </g>
    <g id="ytick_2">
     <g id="line2d_8">
      <g>
       <use style="stroke:#000000;stroke-width:0.8;" x="72.59375" xlink:href="#mfa32a6287a" y="70.614334"/>
      </g>
     </g>
     <g id="text_9">
      <!-- condenser -->
      <g transform="translate(13.326562 74.413553)scale(0.1 -0.1)">
       <defs>
        <path d="M 48.78125 52.59375 
L 48.78125 44.1875 
Q 44.96875 46.296875 41.140625 47.34375 
Q 37.3125 48.390625 33.40625 48.390625 
Q 24.65625 48.390625 19.8125 42.84375 
Q 14.984375 37.3125 14.984375 27.296875 
Q 14.984375 17.28125 19.8125 11.734375 
Q 24.65625 6.203125 33.40625 6.203125 
Q 37.3125 6.203125 41.140625 7.25 
Q 44.96875 8.296875 48.78125 10.40625 
L 48.78125 2.09375 
Q 45.015625 0.34375 40.984375 -0.53125 
Q 36.96875 -1.421875 32.421875 -1.421875 
Q 20.0625 -1.421875 12.78125 6.34375 
Q 5.515625 14.109375 5.515625 27.296875 
Q 5.515625 40.671875 12.859375 48.328125 
Q 20.21875 56 33.015625 56 
Q 37.15625 56 41.109375 55.140625 
Q 45.0625 54.296875 48.78125 52.59375 
z
" id="DejaVuSans-99"/>
        <path d="M 30.609375 48.390625 
Q 23.390625 48.390625 19.1875 42.75 
Q 14.984375 37.109375 14.984375 27.296875 
Q 14.984375 17.484375 19.15625 11.84375 
Q 23.34375 6.203125 30.609375 6.203125 
Q 37.796875 6.203125 41.984375 11.859375 
Q 46.1875 17.53125 46.1875 27.296875 
Q 46.1875 37.015625 41.984375 42.703125 
Q 37.796875 48.390625 30.609375 48.390625 
z
M 30.609375 56 
Q 42.328125 56 49.015625 48.375 
Q 55.71875 40.765625 55.71875 27.296875 
Q 55.71875 13.875 49.015625 6.21875 
Q 42.328125 -1.421875 30.609375 -1.421875 
Q 18.84375 -1.421875 12.171875 6.21875 
Q 5.515625 13.875 5.515625 27.296875 
Q 5.515625 40.765625 12.171875 48.375 
Q 18.84375 56 30.609375 56 
z
" id="DejaVuSans-111"/>
        <path d="M 45.40625 46.390625 
L 45.40625 75.984375 
L 54.390625 75.984375 
L 54.390625 0 
L 45.40625 0 
L 45.40625 8.203125 
Q 42.578125 3.328125 38.25 0.953125 
Q 33.9375 -1.421875 27.875 -1.421875 
Q 17.96875 -1.421875 11.734375 6.484375 
Q 5.515625 14.40625 5.515625 27.296875 
Q 5.515625 40.1875 11.734375 48.09375 
Q 17.96875 56 27.875 56 
Q 33.9375 56 38.25 53.625 
Q 42.578125 51.265625 45.40625 46.390625 
z
M 14.796875 27.296875 
Q 14.796875 17.390625 18.875 11.75 
Q 22.953125 6.109375 30.078125 6.109375 
Q 37.203125 6.109375 41.296875 11.75 
Q 45.40625 17.390625 45.40625 27.296875 
Q 45.40625 37.203125 41.296875 42.84375 
Q 37.203125 48.484375 30.078125 48.484375 
Q 22.953125 48.484375 18.875 42.84375 
Q 14.796875 37.203125 14.796875 27.296875 
z
" id="DejaVuSans-100"/>
        <path d="M 44.28125 53.078125 
L 44.28125 44.578125 
Q 40.484375 46.53125 36.375 47.5 
Q 32.28125 48.484375 27.875 48.484375 
Q 21.1875 48.484375 17.84375 46.4375 
Q 14.5 44.390625 14.5 40.28125 
Q 14.5 37.15625 16.890625 35.375 
Q 19.28125 33.59375 26.515625 31.984375 
L 29.59375 31.296875 
Q 39.15625 29.25 43.1875 25.515625 
Q 47.21875 21.78125 47.21875 15.09375 
Q 47.21875 7.46875 41.1875 3.015625 
Q 35.15625 -1.421875 24.609375 -1.421875 
Q 20.21875 -1.421875 15.453125 -0.5625 
Q 10.6875 0.296875 5.421875 2 
L 5.421875 11.28125 
Q 10.40625 8.6875 15.234375 7.390625 
Q 20.0625 6.109375 24.8125 6.109375 
Q 31.15625 6.109375 34.5625 8.28125 
Q 37.984375 10.453125 37.984375 14.40625 
Q 37.984375 18.0625 35.515625 20.015625 
Q 33.0625 21.96875 24.703125 23.78125 
L 21.578125 24.515625 
Q 13.234375 26.265625 9.515625 29.90625 
Q 5.8125 33.546875 5.8125 39.890625 
Q 5.8125 47.609375 11.28125 51.796875 
Q 16.75 56 26.8125 56 
Q 31.78125 56 36.171875 55.265625 
Q 40.578125 54.546875 44.28125 53.078125 
z
" id="DejaVuSans-115"/>
       </defs>
       <use xlink:href="#DejaVuSans-99"/>
       <use x="54.980469" xlink:href="#DejaVuSans-111"/>
       <use x="116.162109" xlink:href="#DejaVuSans-110"/>
       <use x="179.541016" xlink:href="#DejaVuSans-100"/>
       <use x="243.017578" xlink:href="#DejaVuSans-101"/>
       <use x="304.541016" xlink:href="#DejaVuSans-110"/>
       <use x="367.919922" xlink:href="#DejaVuSans-115"/>
       <use x="420.019531" xlink:href="#DejaVuSans-101"/>
       <use x="481.542969" xlink:href="#DejaVuSans-114"/>
      </g>
     </g>
    </g>
    <g id="ytick_3">
     <g id="line2d_9">
      <g>
       <use style="stroke:#000000;stroke-width:0.8;" x="72.59375" xlink:href="#mfa32a6287a" y="84.073431"/>
      </g>
     </g>
     <g id="text_10">
      <!-- valve -->
      <g transform="translate(38.696875 87.87265)scale(0.1 -0.1)">
       <defs>
        <path d="M 2.984375 54.6875 
L 12.5 54.6875 
L 29.59375 8.796875 
L 46.6875 54.6875 
L 56.203125 54.6875 
L 35.6875 0 
L 23.484375 0 
z
" id="DejaVuSans-118"/>
        <path d="M 34.28125 27.484375 
Q 23.390625 27.484375 19.1875 25 
Q 14.984375 22.515625 14.984375 16.5 
Q 14.984375 11.71875 18.140625 8.90625 
Q 21.296875 6.109375 26.703125 6.109375 
Q 34.1875 6.109375 38.703125 11.40625 
Q 43.21875 16.703125 43.21875 25.484375 
L 43.21875 27.484375 
z
M 52.203125 31.203125 
L 52.203125 0 
L 43.21875 0 
L 43.21875 8.296875 
Q 40.140625 3.328125 35.546875 0.953125 
Q 30.953125 -1.421875 24.3125 -1.421875 
Q 15.921875 -1.421875 10.953125 3.296875 
Q 6 8.015625 6 15.921875 
Q 6 25.140625 12.171875 29.828125 
Q 18.359375 34.515625 30.609375 34.515625 
L 43.21875 34.515625 
L 43.21875 35.40625 
Q 43.21875 41.609375 39.140625 45 
Q 35.0625 48.390625 27.6875 48.390625 
Q 23 48.390625 18.546875 47.265625 
Q 14.109375 46.140625 10.015625 43.890625 
L 10.015625 52.203125 
Q 14.9375 54.109375 19.578125 55.046875 
Q 24.21875 56 28.609375 56 
Q 40.484375 56 46.34375 49.84375 
Q 52.203125 43.703125 52.203125 31.203125 
z
" id="DejaVuSans-97"/>
        <path d="M 9.421875 75.984375 
L 18.40625 75.984375 
L 18.40625 0 
L 9.421875 0 
z
" id="DejaVuSans-108"/>
       </defs>
       <use xlink:href="#DejaVuSans-118"/>
       <use x="59.179688" xlink:href="#DejaVuSans-97"/>
       <use x="120.458984" xlink:href="#DejaVuSans-108"/>
       <use x="148.242188" xlink:href="#DejaVuSans-118"/>
       <use x="207.421875" xlink:href="#DejaVuSans-101"/>
      </g>
     </g>
    </g>
    <g id="ytick_4">
     <g id="line2d_10">
      <g>
       <use style="stroke:#000000;stroke-width:0.8;" x="72.59375" xlink:href="#mfa32a6287a" y="97.532529"/>
      </g>
     </g>
     <g id="text_11">
      <!-- evaporator -->
      <g transform="translate(10.5375 101.331747)scale(0.1 -0.1)">
       <defs>
        <path d="M 18.109375 8.203125 
L 18.109375 -20.796875 
L 9.078125 -20.796875 
L 9.078125 54.6875 
L 18.109375 54.6875 
L 18.109375 46.390625 
Q 20.953125 51.265625 25.265625 53.625 
Q 29.59375 56 35.59375 56 
Q 45.5625 56 51.78125 48.09375 
Q 58.015625 40.1875 58.015625 27.296875 
Q 58.015625 14.40625 51.78125 6.484375 
Q 45.5625 -1.421875 35.59375 -1.421875 
Q 29.59375 -1.421875 25.265625 0.953125 
Q 20.953125 3.328125 18.109375 8.203125 
z
M 48.6875 27.296875 
Q 48.6875 37.203125 44.609375 42.84375 
Q 40.53125 48.484375 33.40625 48.484375 
Q 26.265625 48.484375 22.1875 42.84375 
Q 18.109375 37.203125 18.109375 27.296875 
Q 18.109375 17.390625 22.1875 11.75 
Q 26.265625 6.109375 33.40625 6.109375 
Q 40.53125 6.109375 44.609375 11.75 
Q 48.6875 17.390625 48.6875 27.296875 
z
" id="DejaVuSans-112"/>
        <path d="M 18.3125 70.21875 
L 18.3125 54.6875 
L 36.8125 54.6875 
L 36.8125 47.703125 
L 18.3125 47.703125 
L 18.3125 18.015625 
Q 18.3125 11.328125 20.140625 9.421875 
Q 21.96875 7.515625 27.59375 7.515625 
L 36.8125 7.515625 
L 36.8125 0 
L 27.59375 0 
Q 17.1875 0 13.234375 3.875 
Q 9.28125 7.765625 9.28125 18.015625 
L 9.28125 47.703125 
L 2.6875 47.703125 
L 2.6875 54.6875 
L 9.28125 54.6875 
L 9.28125 70.21875 
z
" id="DejaVuSans-116"/>
       </defs>
       <use xlink:href="#DejaVuSans-101"/>
       <use x="61.523438" xlink:href="#DejaVuSans-118"/>
       <use x="120.703125" xlink:href="#DejaVuSans-97"/>
       <use x="181.982422" xlink:href="#DejaVuSans-112"/>
       <use x="245.458984" xlink:href="#DejaVuSans-111"/>
       <use x="306.640625" xlink:href="#DejaVuSans-114"/>
       <use x="347.753906" xlink:href="#DejaVuSans-97"/>
       <use x="409.033203" xlink:href="#DejaVuSans-116"/>
       <use x="448.242188" xlink:href="#DejaVuSans-111"/>
       <use x="509.423828" xlink:href="#DejaVuSans-114"/>
      </g>
     </g>
    </g>
    <g id="ytick_5">
     <g id="line2d_11">
      <g>
       <use style="stroke:#000000;stroke-width:0.8;" x="72.59375" xlink:href="#mfa32a6287a" y="110.991626"/>
      </g>
     </g>
     <g id="text_12">
      <!-- compressor -->
      <g transform="translate(7.2 114.790845)scale(0.1 -0.1)">
       <defs>
        <path d="M 52 44.1875 
Q 55.375 50.25 60.0625 53.125 
Q 64.75 56 71.09375 56 
Q 79.640625 56 84.28125 50.015625 
Q 88.921875 44.046875 88.921875 33.015625 
L 88.921875 0 
L 79.890625 0 
L 79.890625 32.71875 
Q 79.890625 40.578125 77.09375 44.375 
Q 74.3125 48.1875 68.609375 48.1875 
Q 61.625 48.1875 57.5625 43.546875 
Q 53.515625 38.921875 53.515625 30.90625 
L 53.515625 0 
L 44.484375 0 
L 44.484375 32.71875 
Q 44.484375 40.625 41.703125 44.40625 
Q 38.921875 48.1875 33.109375 48.1875 
Q 26.21875 48.1875 22.15625 43.53125 
Q 18.109375 38.875 18.109375 30.90625 
L 18.109375 0 
L 9.078125 0 
L 9.078125 54.6875 
L 18.109375 54.6875 
L 18.109375 46.1875 
Q 21.1875 51.21875 25.484375 53.609375 
Q 29.78125 56 35.6875 56 
Q 41.65625 56 45.828125 52.96875 
Q 50 49.953125 52 44.1875 
z
" id="DejaVuSans-109"/>
       </defs>
       <use xlink:href="#DejaVuSans-99"/>
       <use x="54.980469" xlink:href="#DejaVuSans-111"/>
       <use x="116.162109" xlink:href="#DejaVuSans-109"/>
       <use x="213.574219" xlink:href="#DejaVuSans-112"/>
       <use x="277.050781" xlink:href="#DejaVuSans-114"/>
       <use x="315.914062" xlink:href="#DejaVuSans-101"/>
       <use x="377.4375" xlink:href="#DejaVuSans-115"/>
       <use x="429.537109" xlink:href="#DejaVuSans-115"/>
       <use x="481.636719" xlink:href="#DejaVuSans-111"/>
       <use x="542.818359" xlink:href="#DejaVuSans-114"/>
      </g>
     </g>
    </g>
    <g id="ytick_6">
     <g id="line2d_12">
      <g>
       <use style="stroke:#000000;stroke-width:0.8;" x="72.59375" xlink:href="#mfa32a6287a" y="124.450723"/>
      </g>
     </g>
     <g id="text_13">
      <!-- E_P -->
      <g transform="translate(48.245312 128.110879)scale(0.1 -0.1)">
       <defs>
        <path d="M 19.671875 64.796875 
L 19.671875 37.40625 
L 32.078125 37.40625 
Q 38.96875 37.40625 42.71875 40.96875 
Q 46.484375 44.53125 46.484375 51.125 
Q 46.484375 57.671875 42.71875 61.234375 
Q 38.96875 64.796875 32.078125 64.796875 
z
M 9.8125 72.90625 
L 32.078125 72.90625 
Q 44.34375 72.90625 50.609375 67.359375 
Q 56.890625 61.8125 56.890625 51.125 
Q 56.890625 40.328125 50.609375 34.8125 
Q 44.34375 29.296875 32.078125 29.296875 
L 19.671875 29.296875 
L 19.671875 0 
L 9.8125 0 
z
" id="DejaVuSans-80"/>
       </defs>
       <use xlink:href="#DejaVuSans-69"/>
       <use x="63.183594" xlink:href="#DejaVuSans-95"/>
       <use x="113.183594" xlink:href="#DejaVuSans-80"/>
      </g>
     </g>
    </g>
   </g>
   <g id="patch_15">
    <path d="M 72.59375 133.7375 
L 72.59375 47.86846 
" style="fill:none;stroke:#000000;stroke-linecap:square;stroke-linejoin:miter;stroke-width:0.8;"/>
   </g>
   <g id="patch_16">
    <path d="M 231.035614 133.7375 
L 231.035614 47.86846 
" style="fill:none;stroke:#000000;stroke-linecap:square;stroke-linejoin:miter;stroke-width:0.8;"/>
   </g>
   <g id="patch_17">
    <path d="M 72.59375 133.7375 
L 231.035614 133.7375 
" style="fill:none;stroke:#000000;stroke-linecap:square;stroke-linejoin:miter;stroke-width:0.8;"/>
   </g>
   <g id="patch_18">
    <path d="M 72.59375 47.86846 
L 231.035614 47.86846 
" style="fill:none;stroke:#000000;stroke-linecap:square;stroke-linejoin:miter;stroke-width:0.8;"/>
   </g>
   <g id="text_14">
    <!-- NH3 -->
    <g transform="translate(138.996244 41.86846)scale(0.12 -0.12)">
     <defs>
      <path d="M 9.8125 72.90625 
L 23.09375 72.90625 
L 55.421875 11.921875 
L 55.421875 72.90625 
L 64.984375 72.90625 
L 64.984375 0 
L 51.703125 0 
L 19.390625 60.984375 
L 19.390625 0 
L 9.8125 0 
z
" id="DejaVuSans-78"/>
      <path d="M 9.8125 72.90625 
L 19.671875 72.90625 
L 19.671875 43.015625 
L 55.515625 43.015625 
L 55.515625 72.90625 
L 65.375 72.90625 
L 65.375 0 
L 55.515625 0 
L 55.515625 34.71875 
L 19.671875 34.71875 
L 19.671875 0 
L 9.8125 0 
z
" id="DejaVuSans-72"/>
      <path d="M 40.578125 39.3125 
Q 47.65625 37.796875 51.625 33 
Q 55.609375 28.21875 55.609375 21.1875 
Q 55.609375 10.40625 48.1875 4.484375 
Q 40.765625 -1.421875 27.09375 -1.421875 
Q 22.515625 -1.421875 17.65625 -0.515625 
Q 12.796875 0.390625 7.625 2.203125 
L 7.625 11.71875 
Q 11.71875 9.328125 16.59375 8.109375 
Q 21.484375 6.890625 26.8125 6.890625 
Q 36.078125 6.890625 40.9375 10.546875 
Q 45.796875 14.203125 45.796875 21.1875 
Q 45.796875 27.640625 41.28125 31.265625 
Q 36.765625 34.90625 28.71875 34.90625 
L 20.21875 34.90625 
L 20.21875 43.015625 
L 29.109375 43.015625 
Q 36.375 43.015625 40.234375 45.921875 
Q 44.09375 48.828125 44.09375 54.296875 
Q 44.09375 59.90625 40.109375 62.90625 
Q 36.140625 65.921875 28.71875 65.921875 
Q 24.65625 65.921875 20.015625 65.03125 
Q 15.375 64.15625 9.8125 62.3125 
L 9.8125 71.09375 
Q 15.4375 72.65625 20.34375 73.4375 
Q 25.25 74.21875 29.59375 74.21875 
Q 40.828125 74.21875 47.359375 69.109375 
Q 53.90625 64.015625 53.90625 55.328125 
Q 53.90625 49.265625 50.4375 45.09375 
Q 46.96875 40.921875 40.578125 39.3125 
z
" id="DejaVuSans-51"/>
     </defs>
     <use xlink:href="#DejaVuSans-78"/>
     <use x="74.804688" xlink:href="#DejaVuSans-72"/>
     <use x="150" xlink:href="#DejaVuSans-51"/>
    </g>
   </g>
  </g>
  <g id="axes_2">
   <g id="patch_19">
    <path d="M 262.032656 133.7375 
L 420.47452 133.7375 
L 420.47452 47.86846 
L 262.032656 47.86846 
z
" style="fill:#ffffff;"/>
   </g>
   <g id="patch_20">
    <path clip-path="url(#pf0fbd1dcc4)" d="M 262.032656 51.771598 
L 411.606035 51.771598 
L 411.606035 62.538876 
L 262.032656 62.538876 
z
" style="fill:#3a9dce;"/>
   </g>
   <g id="patch_21">
    <path clip-path="url(#pf0fbd1dcc4)" d="M 262.032656 65.230695 
L 393.819088 65.230695 
L 393.819088 75.997973 
L 262.032656 75.997973 
z
" style="fill:#f08e2b;"/>
   </g>
   <g id="patch_22">
    <path clip-path="url(#pf0fbd1dcc4)" d="M 262.032656 78.689793 
L 371.997611 78.689793 
L 371.997611 89.45707 
L 262.032656 89.45707 
z
" style="fill:#f08e2b;"/>
   </g>
   <g id="patch_23">
    <path clip-path="url(#pf0fbd1dcc4)" d="M 262.032656 92.14889 
L 359.672027 92.14889 
L 359.672027 102.916167 
L 262.032656 102.916167 
z
" style="fill:#f08e2b;"/>
   </g>
   <g id="patch_24">
    <path clip-path="url(#pf0fbd1dcc4)" d="M 262.032656 105.607987 
L 338.367772 105.607987 
L 338.367772 116.375265 
L 262.032656 116.375265 
z
" style="fill:#f08e2b;"/>
   </g>
   <g id="patch_25">
    <path clip-path="url(#pf0fbd1dcc4)" d="M 262.032656 119.067084 
L 338.367772 119.067084 
L 338.367772 129.834362 
L 262.032656 129.834362 
z
" style="fill:#db5252;"/>
   </g>
   <g id="patch_26">
    <path clip-path="url(#pf0fbd1dcc4)" d="M 411.606035 51.771598 
L 411.606035 51.771598 
L 411.606035 62.538876 
L 411.606035 62.538876 
z
" style="fill:#6ed880;"/>
   </g>
   <g id="patch_27">
    <path clip-path="url(#pf0fbd1dcc4)" d="M 393.819088 65.230695 
L 411.606035 65.230695 
L 411.606035 75.997973 
L 393.819088 75.997973 
z
" style="fill:#6ed880;"/>
   </g>
   <g id="patch_28">
    <path clip-path="url(#pf0fbd1dcc4)" d="M 371.997611 78.689793 
L 393.819088 78.689793 
L 393.819088 89.45707 
L 371.997611 89.45707 
z
" style="fill:#6ed880;"/>
   </g>
   <g id="patch_29">
    <path clip-path="url(#pf0fbd1dcc4)" d="M 359.672027 92.14889 
L 371.997611 92.14889 
L 371.997611 102.916167 
L 359.672027 102.916167 
z
" style="fill:#6ed880;"/>
   </g>
   <g id="patch_30">
    <path clip-path="url(#pf0fbd1dcc4)" d="M 338.367772 105.607987 
L 359.672027 105.607987 
L 359.672027 116.375265 
L 338.367772 116.375265 
z
" style="fill:#6ed880;"/>
   </g>
   <g id="patch_31">
    <path clip-path="url(#pf0fbd1dcc4)" d="M 338.367772 119.067084 
L 338.367772 119.067084 
L 338.367772 129.834362 
L 338.367772 129.834362 
z
" style="fill:#6ed880;"/>
   </g>
   <g id="matplotlib.axis_3">
    <g id="xtick_7">
     <g id="line2d_13">
      <g>
       <use style="stroke:#000000;stroke-width:0.8;" x="262.032656" xlink:href="#m845c25c370" y="133.7375"/>
      </g>
     </g>
     <g id="text_15">
      <!-- 0 -->
      <g transform="translate(258.851406 148.335937)scale(0.1 -0.1)">
       <use xlink:href="#DejaVuSans-48"/>
      </g>
     </g>
    </g>
    <g id="xtick_8">
     <g id="line2d_14">
      <g>
       <use style="stroke:#000000;stroke-width:0.8;" x="293.721029" xlink:href="#m845c25c370" y="133.7375"/>
      </g>
     </g>
     <g id="text_16">
      <!-- 200 -->
      <g transform="translate(284.177279 148.335937)scale(0.1 -0.1)">
       <use xlink:href="#DejaVuSans-50"/>
       <use x="63.623047" xlink:href="#DejaVuSans-48"/>
       <use x="127.246094" xlink:href="#DejaVuSans-48"/>
      </g>
     </g>
    </g>
    <g id="xtick_9">
     <g id="line2d_15">
      <g>
       <use style="stroke:#000000;stroke-width:0.8;" x="325.409402" xlink:href="#m845c25c370" y="133.7375"/>
      </g>
     </g>
     <g id="text_17">
      <!-- 400 -->
      <g transform="translate(315.865652 148.335937)scale(0.1 -0.1)">
       <use xlink:href="#DejaVuSans-52"/>
       <use x="63.623047" xlink:href="#DejaVuSans-48"/>
       <use x="127.246094" xlink:href="#DejaVuSans-48"/>
      </g>
     </g>
    </g>
    <g id="xtick_10">
     <g id="line2d_16">
      <g>
       <use style="stroke:#000000;stroke-width:0.8;" x="357.097775" xlink:href="#m845c25c370" y="133.7375"/>
      </g>
     </g>
     <g id="text_18">
      <!-- 600 -->
      <g transform="translate(347.554025 148.335937)scale(0.1 -0.1)">
       <use xlink:href="#DejaVuSans-54"/>
       <use x="63.623047" xlink:href="#DejaVuSans-48"/>
       <use x="127.246094" xlink:href="#DejaVuSans-48"/>
      </g>
     </g>
    </g>
    <g id="xtick_11">
     <g id="line2d_17">
      <g>
       <use style="stroke:#000000;stroke-width:0.8;" x="388.786147" xlink:href="#m845c25c370" y="133.7375"/>
      </g>
     </g>
     <g id="text_19">
      <!-- 800 -->
      <g transform="translate(379.242397 148.335937)scale(0.1 -0.1)">
       <use xlink:href="#DejaVuSans-56"/>
       <use x="63.623047" xlink:href="#DejaVuSans-48"/>
       <use x="127.246094" xlink:href="#DejaVuSans-48"/>
      </g>
     </g>
    </g>
    <g id="xtick_12">
     <g id="line2d_18">
      <g>
       <use style="stroke:#000000;stroke-width:0.8;" x="420.47452" xlink:href="#m845c25c370" y="133.7375"/>
      </g>
     </g>
     <g id="text_20">
      <!-- 1000 -->
      <g transform="translate(407.74952 148.335937)scale(0.1 -0.1)">
       <use xlink:href="#DejaVuSans-49"/>
       <use x="63.623047" xlink:href="#DejaVuSans-48"/>
       <use x="127.246094" xlink:href="#DejaVuSans-48"/>
       <use x="190.869141" xlink:href="#DejaVuSans-48"/>
      </g>
     </g>
    </g>
    <g id="text_21">
     <!-- Exergy in W -->
     <g transform="translate(311.433276 162.014062)scale(0.1 -0.1)">
      <use xlink:href="#DejaVuSans-69"/>
      <use x="63.183594" xlink:href="#DejaVuSans-120"/>
      <use x="119.238281" xlink:href="#DejaVuSans-101"/>
      <use x="180.761719" xlink:href="#DejaVuSans-114"/>
      <use x="220.125" xlink:href="#DejaVuSans-103"/>
      <use x="283.601562" xlink:href="#DejaVuSans-121"/>
      <use x="342.78125" xlink:href="#DejaVuSans-32"/>
      <use x="374.568359" xlink:href="#DejaVuSans-105"/>
      <use x="402.351562" xlink:href="#DejaVuSans-110"/>
      <use x="465.730469" xlink:href="#DejaVuSans-32"/>
      <use x="497.517578" xlink:href="#DejaVuSans-87"/>
     </g>
    </g>
   </g>
   <g id="matplotlib.axis_4">
    <g id="ytick_7">
     <g id="line2d_19">
      <g>
       <use style="stroke:#000000;stroke-width:0.8;" x="262.032656" xlink:href="#mfa32a6287a" y="57.155237"/>
      </g>
     </g>
    </g>
    <g id="ytick_8">
     <g id="line2d_20">
      <g>
       <use style="stroke:#000000;stroke-width:0.8;" x="262.032656" xlink:href="#mfa32a6287a" y="70.614334"/>
      </g>
     </g>
    </g>
    <g id="ytick_9">
     <g id="line2d_21">
      <g>
       <use style="stroke:#000000;stroke-width:0.8;" x="262.032656" xlink:href="#mfa32a6287a" y="84.073431"/>
      </g>
     </g>
    </g>
    <g id="ytick_10">
     <g id="line2d_22">
      <g>
       <use style="stroke:#000000;stroke-width:0.8;" x="262.032656" xlink:href="#mfa32a6287a" y="97.532529"/>
      </g>
     </g>
    </g>
    <g id="ytick_11">
     <g id="line2d_23">
      <g>
       <use style="stroke:#000000;stroke-width:0.8;" x="262.032656" xlink:href="#mfa32a6287a" y="110.991626"/>
      </g>
     </g>
    </g>
    <g id="ytick_12">
     <g id="line2d_24">
      <g>
       <use style="stroke:#000000;stroke-width:0.8;" x="262.032656" xlink:href="#mfa32a6287a" y="124.450723"/>
      </g>
     </g>
    </g>
   </g>
   <g id="patch_32">
    <path d="M 262.032656 133.7375 
L 262.032656 47.86846 
" style="fill:none;stroke:#000000;stroke-linecap:square;stroke-linejoin:miter;stroke-width:0.8;"/>
   </g>
   <g id="patch_33">
    <path d="M 420.47452 133.7375 
L 420.47452 47.86846 
" style="fill:none;stroke:#000000;stroke-linecap:square;stroke-linejoin:miter;stroke-width:0.8;"/>
   </g>
   <g id="patch_34">
    <path d="M 262.032656 133.7375 
L 420.47452 133.7375 
" style="fill:none;stroke:#000000;stroke-linecap:square;stroke-linejoin:miter;stroke-width:0.8;"/>
   </g>
   <g id="patch_35">
    <path d="M 262.032656 47.86846 
L 420.47452 47.86846 
" style="fill:none;stroke:#000000;stroke-linecap:square;stroke-linejoin:miter;stroke-width:0.8;"/>
   </g>
   <g id="text_22">
    <!-- R410A -->
    <g transform="translate(321.527651 41.86846)scale(0.12 -0.12)">
     <defs>
      <path d="M 44.390625 34.1875 
Q 47.5625 33.109375 50.5625 29.59375 
Q 53.5625 26.078125 56.59375 19.921875 
L 66.609375 0 
L 56 0 
L 46.6875 18.703125 
Q 43.0625 26.03125 39.671875 28.421875 
Q 36.28125 30.8125 30.421875 30.8125 
L 19.671875 30.8125 
L 19.671875 0 
L 9.8125 0 
L 9.8125 72.90625 
L 32.078125 72.90625 
Q 44.578125 72.90625 50.734375 67.671875 
Q 56.890625 62.453125 56.890625 51.90625 
Q 56.890625 45.015625 53.6875 40.46875 
Q 50.484375 35.9375 44.390625 34.1875 
z
M 19.671875 64.796875 
L 19.671875 38.921875 
L 32.078125 38.921875 
Q 39.203125 38.921875 42.84375 42.21875 
Q 46.484375 45.515625 46.484375 51.90625 
Q 46.484375 58.296875 42.84375 61.546875 
Q 39.203125 64.796875 32.078125 64.796875 
z
" id="DejaVuSans-82"/>
      <path d="M 34.1875 63.1875 
L 20.796875 26.90625 
L 47.609375 26.90625 
z
M 28.609375 72.90625 
L 39.796875 72.90625 
L 67.578125 0 
L 57.328125 0 
L 50.6875 18.703125 
L 17.828125 18.703125 
L 11.1875 0 
L 0.78125 0 
z
" id="DejaVuSans-65"/>
     </defs>
     <use xlink:href="#DejaVuSans-82"/>
     <use x="69.482422" xlink:href="#DejaVuSans-52"/>
     <use x="133.105469" xlink:href="#DejaVuSans-49"/>
     <use x="196.728516" xlink:href="#DejaVuSans-48"/>
     <use x="260.351562" xlink:href="#DejaVuSans-65"/>
    </g>
   </g>
  </g>
  <g id="axes_3">
   <g id="patch_36">
    <path d="M 72.59375 258.84327 
L 231.035614 258.84327 
L 231.035614 172.97423 
L 72.59375 172.97423 
z
" style="fill:#ffffff;"/>
   </g>
   <g id="patch_37">
    <path clip-path="url(#p90519bc0b4)" d="M 72.59375 176.877368 
L 231.035614 176.877368 
L 231.035614 187.644646 
L 72.59375 187.644646 
z
" style="fill:#3a9dce;"/>
   </g>
   <g id="patch_38">
    <path clip-path="url(#p90519bc0b4)" d="M 72.59375 190.336465 
L 204.454825 190.336465 
L 204.454825 201.103743 
L 72.59375 201.103743 
z
" style="fill:#f08e2b;"/>
   </g>
   <g id="patch_39">
    <path clip-path="url(#p90519bc0b4)" d="M 72.59375 203.795563 
L 195.472861 203.795563 
L 195.472861 214.56284 
L 72.59375 214.56284 
z
" style="fill:#f08e2b;"/>
   </g>
   <g id="patch_40">
    <path clip-path="url(#p90519bc0b4)" d="M 72.59375 217.25466 
L 180.878144 217.25466 
L 180.878144 228.021937 
L 72.59375 228.021937 
z
" style="fill:#f08e2b;"/>
   </g>
   <g id="patch_41">
    <path clip-path="url(#p90519bc0b4)" d="M 72.59375 230.713757 
L 161.101308 230.713757 
L 161.101308 241.481035 
L 72.59375 241.481035 
z
" style="fill:#f08e2b;"/>
   </g>
   <g id="patch_42">
    <path clip-path="url(#p90519bc0b4)" d="M 72.59375 244.172854 
L 161.101308 244.172854 
L 161.101308 254.940132 
L 72.59375 254.940132 
z
" style="fill:#db5252;"/>
   </g>
   <g id="patch_43">
    <path clip-path="url(#p90519bc0b4)" d="M 231.035614 176.877368 
L 231.035614 176.877368 
L 231.035614 187.644646 
L 231.035614 187.644646 
z
" style="fill:#6ed880;"/>
   </g>
   <g id="patch_44">
    <path clip-path="url(#p90519bc0b4)" d="M 204.454825 190.336465 
L 231.035614 190.336465 
L 231.035614 201.103743 
L 204.454825 201.103743 
z
" style="fill:#6ed880;"/>
   </g>
   <g id="patch_45">
    <path clip-path="url(#p90519bc0b4)" d="M 195.472861 203.795563 
L 204.454825 203.795563 
L 204.454825 214.56284 
L 195.472861 214.56284 
z
" style="fill:#6ed880;"/>
   </g>
   <g id="patch_46">
    <path clip-path="url(#p90519bc0b4)" d="M 180.878144 217.25466 
L 195.472861 217.25466 
L 195.472861 228.021937 
L 180.878144 228.021937 
z
" style="fill:#6ed880;"/>
   </g>
   <g id="patch_47">
    <path clip-path="url(#p90519bc0b4)" d="M 161.101308 230.713757 
L 180.878144 230.713757 
L 180.878144 241.481035 
L 161.101308 241.481035 
z
" style="fill:#6ed880;"/>
   </g>
   <g id="patch_48">
    <path clip-path="url(#p90519bc0b4)" d="M 161.101308 244.172854 
L 161.101308 244.172854 
L 161.101308 254.940132 
L 161.101308 254.940132 
z
" style="fill:#6ed880;"/>
   </g>
   <g id="matplotlib.axis_5">
    <g id="xtick_13">
     <g id="line2d_25">
      <g>
       <use style="stroke:#000000;stroke-width:0.8;" x="72.59375" xlink:href="#m845c25c370" y="258.84327"/>
      </g>
     </g>
     <g id="text_23">
      <!-- 0.0 -->
      <g transform="translate(64.642188 273.441707)scale(0.1 -0.1)">
       <defs>
        <path d="M 10.6875 12.40625 
L 21 12.40625 
L 21 0 
L 10.6875 0 
z
" id="DejaVuSans-46"/>
       </defs>
       <use xlink:href="#DejaVuSans-48"/>
       <use x="63.623047" xlink:href="#DejaVuSans-46"/>
       <use x="95.410156" xlink:href="#DejaVuSans-48"/>
      </g>
     </g>
    </g>
    <g id="xtick_14">
     <g id="line2d_26">
      <g>
       <use style="stroke:#000000;stroke-width:0.8;" x="104.282123" xlink:href="#m845c25c370" y="258.84327"/>
      </g>
     </g>
     <g id="text_24">
      <!-- 0.2 -->
      <g transform="translate(96.33056 273.441707)scale(0.1 -0.1)">
       <use xlink:href="#DejaVuSans-48"/>
       <use x="63.623047" xlink:href="#DejaVuSans-46"/>
       <use x="95.410156" xlink:href="#DejaVuSans-50"/>
      </g>
     </g>
    </g>
    <g id="xtick_15">
     <g id="line2d_27">
      <g>
       <use style="stroke:#000000;stroke-width:0.8;" x="135.970495" xlink:href="#m845c25c370" y="258.84327"/>
      </g>
     </g>
     <g id="text_25">
      <!-- 0.4 -->
      <g transform="translate(128.018933 273.441707)scale(0.1 -0.1)">
       <use xlink:href="#DejaVuSans-48"/>
       <use x="63.623047" xlink:href="#DejaVuSans-46"/>
       <use x="95.410156" xlink:href="#DejaVuSans-52"/>
      </g>
     </g>
    </g>
    <g id="xtick_16">
     <g id="line2d_28">
      <g>
       <use style="stroke:#000000;stroke-width:0.8;" x="167.658868" xlink:href="#m845c25c370" y="258.84327"/>
      </g>
     </g>
     <g id="text_26">
      <!-- 0.6 -->
      <g transform="translate(159.707306 273.441707)scale(0.1 -0.1)">
       <use xlink:href="#DejaVuSans-48"/>
       <use x="63.623047" xlink:href="#DejaVuSans-46"/>
       <use x="95.410156" xlink:href="#DejaVuSans-54"/>
      </g>
     </g>
    </g>
    <g id="xtick_17">
     <g id="line2d_29">
      <g>
       <use style="stroke:#000000;stroke-width:0.8;" x="199.347241" xlink:href="#m845c25c370" y="258.84327"/>
      </g>
     </g>
     <g id="text_27">
      <!-- 0.8 -->
      <g transform="translate(191.395679 273.441707)scale(0.1 -0.1)">
       <use xlink:href="#DejaVuSans-48"/>
       <use x="63.623047" xlink:href="#DejaVuSans-46"/>
       <use x="95.410156" xlink:href="#DejaVuSans-56"/>
      </g>
     </g>
    </g>
    <g id="xtick_18">
     <g id="line2d_30">
      <g>
       <use style="stroke:#000000;stroke-width:0.8;" x="231.035614" xlink:href="#m845c25c370" y="258.84327"/>
      </g>
     </g>
     <g id="text_28">
      <!-- 1.0 -->
      <g transform="translate(223.084051 273.441707)scale(0.1 -0.1)">
       <use xlink:href="#DejaVuSans-49"/>
       <use x="63.623047" xlink:href="#DejaVuSans-46"/>
       <use x="95.410156" xlink:href="#DejaVuSans-48"/>
      </g>
     </g>
    </g>
    <g id="text_29">
     <!-- $\epsilon$ -->
     <g transform="translate(149.064682 287.119832)scale(0.1 -0.1)">
      <defs>
       <path d="M 19.734375 29.5 
Q 14.453125 30.671875 12.15625 33.84375 
Q 10.453125 36.078125 10.453125 39.109375 
Q 10.453125 47.40625 18.359375 52.25 
Q 24.609375 56.0625 34.1875 56.0625 
Q 37.890625 56.0625 41.9375 55.46875 
Q 46 54.890625 50.53125 53.71875 
L 48.96875 45.5625 
Q 44.484375 46.96875 40.71875 47.609375 
Q 36.859375 48.25 33.40625 48.25 
Q 27.59375 48.25 23.78125 46 
Q 19.1875 43.3125 19.1875 39.40625 
Q 19.1875 36.8125 21.578125 35.015625 
Q 24.421875 32.859375 30.078125 32.859375 
L 37.640625 32.859375 
L 36.234375 25.4375 
L 29 25.4375 
Q 22.265625 25.4375 18.3125 22.953125 
Q 12.9375 19.578125 12.9375 14.3125 
Q 12.9375 10.984375 15.828125 8.796875 
Q 19.4375 6.0625 26.8125 6.0625 
Q 31.34375 6.0625 35.6875 6.9375 
Q 40.046875 7.859375 43.84375 9.671875 
L 42.1875 1.3125 
Q 37.546875 -0.046875 33.296875 -0.734375 
Q 29.046875 -1.421875 25.140625 -1.421875 
Q 13.53125 -1.421875 8.0625 3.03125 
Q 3.90625 6.453125 3.90625 12.203125 
Q 3.90625 19.96875 9.375 24.75 
Q 13.421875 28.328125 19.734375 29.5 
z
" id="DejaVuSans-Oblique-949"/>
      </defs>
      <use transform="translate(0 0.9375)" xlink:href="#DejaVuSans-Oblique-949"/>
     </g>
    </g>
   </g>
   <g id="matplotlib.axis_6">
    <g id="ytick_13">
     <g id="line2d_31">
      <g>
       <use style="stroke:#000000;stroke-width:0.8;" x="72.59375" xlink:href="#mfa32a6287a" y="182.261007"/>
      </g>
     </g>
     <g id="text_30">
      <!-- E_F -->
      <g transform="translate(48.523438 185.921163)scale(0.1 -0.1)">
       <use xlink:href="#DejaVuSans-69"/>
       <use x="63.183594" xlink:href="#DejaVuSans-95"/>
       <use x="113.183594" xlink:href="#DejaVuSans-70"/>
      </g>
     </g>
    </g>
    <g id="ytick_14">
     <g id="line2d_32">
      <g>
       <use style="stroke:#000000;stroke-width:0.8;" x="72.59375" xlink:href="#mfa32a6287a" y="195.720104"/>
      </g>
     </g>
     <g id="text_31">
      <!-- condenser -->
      <g transform="translate(13.326562 199.519323)scale(0.1 -0.1)">
       <use xlink:href="#DejaVuSans-99"/>
       <use x="54.980469" xlink:href="#DejaVuSans-111"/>
       <use x="116.162109" xlink:href="#DejaVuSans-110"/>
       <use x="179.541016" xlink:href="#DejaVuSans-100"/>
       <use x="243.017578" xlink:href="#DejaVuSans-101"/>
       <use x="304.541016" xlink:href="#DejaVuSans-110"/>
       <use x="367.919922" xlink:href="#DejaVuSans-115"/>
       <use x="420.019531" xlink:href="#DejaVuSans-101"/>
       <use x="481.542969" xlink:href="#DejaVuSans-114"/>
      </g>
     </g>
    </g>
    <g id="ytick_15">
     <g id="line2d_33">
      <g>
       <use style="stroke:#000000;stroke-width:0.8;" x="72.59375" xlink:href="#mfa32a6287a" y="209.179201"/>
      </g>
     </g>
     <g id="text_32">
      <!-- valve -->
      <g transform="translate(38.696875 212.97842)scale(0.1 -0.1)">
       <use xlink:href="#DejaVuSans-118"/>
       <use x="59.179688" xlink:href="#DejaVuSans-97"/>
       <use x="120.458984" xlink:href="#DejaVuSans-108"/>
       <use x="148.242188" xlink:href="#DejaVuSans-118"/>
       <use x="207.421875" xlink:href="#DejaVuSans-101"/>
      </g>
     </g>
    </g>
    <g id="ytick_16">
     <g id="line2d_34">
      <g>
       <use style="stroke:#000000;stroke-width:0.8;" x="72.59375" xlink:href="#mfa32a6287a" y="222.638299"/>
      </g>
     </g>
     <g id="text_33">
      <!-- evaporator -->
      <g transform="translate(10.5375 226.437517)scale(0.1 -0.1)">
       <use xlink:href="#DejaVuSans-101"/>
       <use x="61.523438" xlink:href="#DejaVuSans-118"/>
       <use x="120.703125" xlink:href="#DejaVuSans-97"/>
       <use x="181.982422" xlink:href="#DejaVuSans-112"/>
       <use x="245.458984" xlink:href="#DejaVuSans-111"/>
       <use x="306.640625" xlink:href="#DejaVuSans-114"/>
       <use x="347.753906" xlink:href="#DejaVuSans-97"/>
       <use x="409.033203" xlink:href="#DejaVuSans-116"/>
       <use x="448.242188" xlink:href="#DejaVuSans-111"/>
       <use x="509.423828" xlink:href="#DejaVuSans-114"/>
      </g>
     </g>
    </g>
    <g id="ytick_17">
     <g id="line2d_35">
      <g>
       <use style="stroke:#000000;stroke-width:0.8;" x="72.59375" xlink:href="#mfa32a6287a" y="236.097396"/>
      </g>
     </g>
     <g id="text_34">
      <!-- compressor -->
      <g transform="translate(7.2 239.896615)scale(0.1 -0.1)">
       <use xlink:href="#DejaVuSans-99"/>
       <use x="54.980469" xlink:href="#DejaVuSans-111"/>
       <use x="116.162109" xlink:href="#DejaVuSans-109"/>
       <use x="213.574219" xlink:href="#DejaVuSans-112"/>
       <use x="277.050781" xlink:href="#DejaVuSans-114"/>
       <use x="315.914062" xlink:href="#DejaVuSans-101"/>
       <use x="377.4375" xlink:href="#DejaVuSans-115"/>
       <use x="429.537109" xlink:href="#DejaVuSans-115"/>
       <use x="481.636719" xlink:href="#DejaVuSans-111"/>
       <use x="542.818359" xlink:href="#DejaVuSans-114"/>
      </g>
     </g>
    </g>
    <g id="ytick_18">
     <g id="line2d_36">
      <g>
       <use style="stroke:#000000;stroke-width:0.8;" x="72.59375" xlink:href="#mfa32a6287a" y="249.556493"/>
      </g>
     </g>
     <g id="text_35">
      <!-- E_P -->
      <g transform="translate(48.245312 253.216649)scale(0.1 -0.1)">
       <use xlink:href="#DejaVuSans-69"/>
       <use x="63.183594" xlink:href="#DejaVuSans-95"/>
       <use x="113.183594" xlink:href="#DejaVuSans-80"/>
      </g>
     </g>
    </g>
   </g>
   <g id="patch_49">
    <path d="M 72.59375 258.84327 
L 72.59375 172.97423 
" style="fill:none;stroke:#000000;stroke-linecap:square;stroke-linejoin:miter;stroke-width:0.8;"/>
   </g>
   <g id="patch_50">
    <path d="M 231.035614 258.84327 
L 231.035614 172.97423 
" style="fill:none;stroke:#000000;stroke-linecap:square;stroke-linejoin:miter;stroke-width:0.8;"/>
   </g>
   <g id="patch_51">
    <path d="M 72.59375 258.84327 
L 231.035614 258.84327 
" style="fill:none;stroke:#000000;stroke-linecap:square;stroke-linejoin:miter;stroke-width:0.8;"/>
   </g>
   <g id="patch_52">
    <path d="M 72.59375 172.97423 
L 231.035614 172.97423 
" style="fill:none;stroke:#000000;stroke-linecap:square;stroke-linejoin:miter;stroke-width:0.8;"/>
   </g>
  </g>
  <g id="axes_4">
   <g id="patch_53">
    <path d="M 262.032656 258.84327 
L 420.47452 258.84327 
L 420.47452 172.97423 
L 262.032656 172.97423 
z
" style="fill:#ffffff;"/>
   </g>
   <g id="patch_54">
    <path clip-path="url(#p9495995d62)" d="M 262.032656 176.877368 
L 420.47452 176.877368 
L 420.47452 187.644646 
L 262.032656 187.644646 
z
" style="fill:#3a9dce;"/>
   </g>
   <g id="patch_55">
    <path clip-path="url(#p9495995d62)" d="M 262.032656 190.336465 
L 401.632951 190.336465 
L 401.632951 201.103743 
L 262.032656 201.103743 
z
" style="fill:#f08e2b;"/>
   </g>
   <g id="patch_56">
    <path clip-path="url(#p9495995d62)" d="M 262.032656 203.795563 
L 378.517638 203.795563 
L 378.517638 214.56284 
L 262.032656 214.56284 
z
" style="fill:#f08e2b;"/>
   </g>
   <g id="patch_57">
    <path clip-path="url(#p9495995d62)" d="M 262.032656 217.25466 
L 365.461248 217.25466 
L 365.461248 228.021937 
L 262.032656 228.021937 
z
" style="fill:#f08e2b;"/>
   </g>
   <g id="patch_58">
    <path clip-path="url(#p9495995d62)" d="M 262.032656 230.713757 
L 342.893823 230.713757 
L 342.893823 241.481035 
L 262.032656 241.481035 
z
" style="fill:#f08e2b;"/>
   </g>
   <g id="patch_59">
    <path clip-path="url(#p9495995d62)" d="M 262.032656 244.172854 
L 342.893823 244.172854 
L 342.893823 254.940132 
L 262.032656 254.940132 
z
" style="fill:#db5252;"/>
   </g>
   <g id="patch_60">
    <path clip-path="url(#p9495995d62)" d="M 420.47452 176.877368 
L 420.47452 176.877368 
L 420.47452 187.644646 
L 420.47452 187.644646 
z
" style="fill:#6ed880;"/>
   </g>
   <g id="patch_61">
    <path clip-path="url(#p9495995d62)" d="M 401.632951 190.336465 
L 420.47452 190.336465 
L 420.47452 201.103743 
L 401.632951 201.103743 
z
" style="fill:#6ed880;"/>
   </g>
   <g id="patch_62">
    <path clip-path="url(#p9495995d62)" d="M 378.517638 203.795563 
L 401.632951 203.795563 
L 401.632951 214.56284 
L 378.517638 214.56284 
z
" style="fill:#6ed880;"/>
   </g>
   <g id="patch_63">
    <path clip-path="url(#p9495995d62)" d="M 365.461248 217.25466 
L 378.517638 217.25466 
L 378.517638 228.021937 
L 365.461248 228.021937 
z
" style="fill:#6ed880;"/>
   </g>
   <g id="patch_64">
    <path clip-path="url(#p9495995d62)" d="M 342.893823 230.713757 
L 365.461248 230.713757 
L 365.461248 241.481035 
L 342.893823 241.481035 
z
" style="fill:#6ed880;"/>
   </g>
   <g id="patch_65">
    <path clip-path="url(#p9495995d62)" d="M 342.893823 244.172854 
L 342.893823 244.172854 
L 342.893823 254.940132 
L 342.893823 254.940132 
z
" style="fill:#6ed880;"/>
   </g>
   <g id="matplotlib.axis_7">
    <g id="xtick_19">
     <g id="line2d_37">
      <g>
       <use style="stroke:#000000;stroke-width:0.8;" x="262.032656" xlink:href="#m845c25c370" y="258.84327"/>
      </g>
     </g>
     <g id="text_36">
      <!-- 0.0 -->
      <g transform="translate(254.081094 273.441707)scale(0.1 -0.1)">
       <use xlink:href="#DejaVuSans-48"/>
       <use x="63.623047" xlink:href="#DejaVuSans-46"/>
       <use x="95.410156" xlink:href="#DejaVuSans-48"/>
      </g>
     </g>
    </g>
    <g id="xtick_20">
     <g id="line2d_38">
      <g>
       <use style="stroke:#000000;stroke-width:0.8;" x="293.721029" xlink:href="#m845c25c370" y="258.84327"/>
      </g>
     </g>
     <g id="text_37">
      <!-- 0.2 -->
      <g transform="translate(285.769467 273.441707)scale(0.1 -0.1)">
       <use xlink:href="#DejaVuSans-48"/>
       <use x="63.623047" xlink:href="#DejaVuSans-46"/>
       <use x="95.410156" xlink:href="#DejaVuSans-50"/>
      </g>
     </g>
    </g>
    <g id="xtick_21">
     <g id="line2d_39">
      <g>
       <use style="stroke:#000000;stroke-width:0.8;" x="325.409402" xlink:href="#m845c25c370" y="258.84327"/>
      </g>
     </g>
     <g id="text_38">
      <!-- 0.4 -->
      <g transform="translate(317.457839 273.441707)scale(0.1 -0.1)">
       <use xlink:href="#DejaVuSans-48"/>
       <use x="63.623047" xlink:href="#DejaVuSans-46"/>
       <use x="95.410156" xlink:href="#DejaVuSans-52"/>
      </g>
     </g>
    </g>
    <g id="xtick_22">
     <g id="line2d_40">
      <g>
       <use style="stroke:#000000;stroke-width:0.8;" x="357.097775" xlink:href="#m845c25c370" y="258.84327"/>
      </g>
     </g>
     <g id="text_39">
      <!-- 0.6 -->
      <g transform="translate(349.146212 273.441707)scale(0.1 -0.1)">
       <use xlink:href="#DejaVuSans-48"/>
       <use x="63.623047" xlink:href="#DejaVuSans-46"/>
       <use x="95.410156" xlink:href="#DejaVuSans-54"/>
      </g>
     </g>
    </g>
    <g id="xtick_23">
     <g id="line2d_41">
      <g>
       <use style="stroke:#000000;stroke-width:0.8;" x="388.786147" xlink:href="#m845c25c370" y="258.84327"/>
      </g>
     </g>
     <g id="text_40">
      <!-- 0.8 -->
      <g transform="translate(380.834585 273.441707)scale(0.1 -0.1)">
       <use xlink:href="#DejaVuSans-48"/>
       <use x="63.623047" xlink:href="#DejaVuSans-46"/>
       <use x="95.410156" xlink:href="#DejaVuSans-56"/>
      </g>
     </g>
    </g>
    <g id="xtick_24">
     <g id="line2d_42">
      <g>
       <use style="stroke:#000000;stroke-width:0.8;" x="420.47452" xlink:href="#m845c25c370" y="258.84327"/>
      </g>
     </g>
     <g id="text_41">
      <!-- 1.0 -->
      <g transform="translate(412.522958 273.441707)scale(0.1 -0.1)">
       <use xlink:href="#DejaVuSans-49"/>
       <use x="63.623047" xlink:href="#DejaVuSans-46"/>
       <use x="95.410156" xlink:href="#DejaVuSans-48"/>
      </g>
     </g>
    </g>
    <g id="text_42">
     <!-- $\epsilon$ -->
     <g transform="translate(338.503588 287.119832)scale(0.1 -0.1)">
      <use transform="translate(0 0.9375)" xlink:href="#DejaVuSans-Oblique-949"/>
     </g>
    </g>
   </g>
   <g id="matplotlib.axis_8">
    <g id="ytick_19">
     <g id="line2d_43">
      <g>
       <use style="stroke:#000000;stroke-width:0.8;" x="262.032656" xlink:href="#mfa32a6287a" y="182.261007"/>
      </g>
     </g>
    </g>
    <g id="ytick_20">
     <g id="line2d_44">
      <g>
       <use style="stroke:#000000;stroke-width:0.8;" x="262.032656" xlink:href="#mfa32a6287a" y="195.720104"/>
      </g>
     </g>
    </g>
    <g id="ytick_21">
     <g id="line2d_45">
      <g>
       <use style="stroke:#000000;stroke-width:0.8;" x="262.032656" xlink:href="#mfa32a6287a" y="209.179201"/>
      </g>
     </g>
    </g>
    <g id="ytick_22">
     <g id="line2d_46">
      <g>
       <use style="stroke:#000000;stroke-width:0.8;" x="262.032656" xlink:href="#mfa32a6287a" y="222.638299"/>
      </g>
     </g>
    </g>
    <g id="ytick_23">
     <g id="line2d_47">
      <g>
       <use style="stroke:#000000;stroke-width:0.8;" x="262.032656" xlink:href="#mfa32a6287a" y="236.097396"/>
      </g>
     </g>
    </g>
    <g id="ytick_24">
     <g id="line2d_48">
      <g>
       <use style="stroke:#000000;stroke-width:0.8;" x="262.032656" xlink:href="#mfa32a6287a" y="249.556493"/>
      </g>
     </g>
    </g>
   </g>
   <g id="patch_66">
    <path d="M 262.032656 258.84327 
L 262.032656 172.97423 
" style="fill:none;stroke:#000000;stroke-linecap:square;stroke-linejoin:miter;stroke-width:0.8;"/>
   </g>
   <g id="patch_67">
    <path d="M 420.47452 258.84327 
L 420.47452 172.97423 
" style="fill:none;stroke:#000000;stroke-linecap:square;stroke-linejoin:miter;stroke-width:0.8;"/>
   </g>
   <g id="patch_68">
    <path d="M 262.032656 258.84327 
L 420.47452 258.84327 
" style="fill:none;stroke:#000000;stroke-linecap:square;stroke-linejoin:miter;stroke-width:0.8;"/>
   </g>
   <g id="patch_69">
    <path d="M 262.032656 172.97423 
L 420.47452 172.97423 
" style="fill:none;stroke:#000000;stroke-linecap:square;stroke-linejoin:miter;stroke-width:0.8;"/>
   </g>
  </g>
  <g id="text_43">
   <!-- Component Exergy Destruction -->
   <g transform="translate(110.453979 17.639554)scale(0.14 -0.14)">
    <defs>
     <path d="M 64.40625 67.28125 
L 64.40625 56.890625 
Q 59.421875 61.53125 53.78125 63.8125 
Q 48.140625 66.109375 41.796875 66.109375 
Q 29.296875 66.109375 22.65625 58.46875 
Q 16.015625 50.828125 16.015625 36.375 
Q 16.015625 21.96875 22.65625 14.328125 
Q 29.296875 6.6875 41.796875 6.6875 
Q 48.140625 6.6875 53.78125 8.984375 
Q 59.421875 11.28125 64.40625 15.921875 
L 64.40625 5.609375 
Q 59.234375 2.09375 53.4375 0.328125 
Q 47.65625 -1.421875 41.21875 -1.421875 
Q 24.65625 -1.421875 15.125 8.703125 
Q 5.609375 18.84375 5.609375 36.375 
Q 5.609375 53.953125 15.125 64.078125 
Q 24.65625 74.21875 41.21875 74.21875 
Q 47.75 74.21875 53.53125 72.484375 
Q 59.328125 70.75 64.40625 67.28125 
z
" id="DejaVuSans-67"/>
     <path d="M 19.671875 64.796875 
L 19.671875 8.109375 
L 31.59375 8.109375 
Q 46.6875 8.109375 53.6875 14.9375 
Q 60.6875 21.78125 60.6875 36.53125 
Q 60.6875 51.171875 53.6875 57.984375 
Q 46.6875 64.796875 31.59375 64.796875 
z
M 9.8125 72.90625 
L 30.078125 72.90625 
Q 51.265625 72.90625 61.171875 64.09375 
Q 71.09375 55.28125 71.09375 36.53125 
Q 71.09375 17.671875 61.125 8.828125 
Q 51.171875 0 30.078125 0 
L 9.8125 0 
z
" id="DejaVuSans-68"/>
     <path d="M 8.5 21.578125 
L 8.5 54.6875 
L 17.484375 54.6875 
L 17.484375 21.921875 
Q 17.484375 14.15625 20.5 10.265625 
Q 23.53125 6.390625 29.59375 6.390625 
Q 36.859375 6.390625 41.078125 11.03125 
Q 45.3125 15.671875 45.3125 23.6875 
L 45.3125 54.6875 
L 54.296875 54.6875 
L 54.296875 0 
L 45.3125 0 
L 45.3125 8.40625 
Q 42.046875 3.421875 37.71875 1 
Q 33.40625 -1.421875 27.6875 -1.421875 
Q 18.265625 -1.421875 13.375 4.4375 
Q 8.5 10.296875 8.5 21.578125 
z
M 31.109375 56 
z
" id="DejaVuSans-117"/>
    </defs>
    <use xlink:href="#DejaVuSans-67"/>
    <use x="69.824219" xlink:href="#DejaVuSans-111"/>
    <use x="131.005859" xlink:href="#DejaVuSans-109"/>
    <use x="228.417969" xlink:href="#DejaVuSans-112"/>
    <use x="291.894531" xlink:href="#DejaVuSans-111"/>
    <use x="353.076172" xlink:href="#DejaVuSans-110"/>
    <use x="416.455078" xlink:href="#DejaVuSans-101"/>
    <use x="477.978516" xlink:href="#DejaVuSans-110"/>
    <use x="541.357422" xlink:href="#DejaVuSans-116"/>
    <use x="580.566406" xlink:href="#DejaVuSans-32"/>
    <use x="612.353516" xlink:href="#DejaVuSans-69"/>
    <use x="675.537109" xlink:href="#DejaVuSans-120"/>
    <use x="731.591797" xlink:href="#DejaVuSans-101"/>
    <use x="793.115234" xlink:href="#DejaVuSans-114"/>
    <use x="832.478516" xlink:href="#DejaVuSans-103"/>
    <use x="895.955078" xlink:href="#DejaVuSans-121"/>
    <use x="955.134766" xlink:href="#DejaVuSans-32"/>
    <use x="986.921875" xlink:href="#DejaVuSans-68"/>
    <use x="1063.923828" xlink:href="#DejaVuSans-101"/>
    <use x="1125.447266" xlink:href="#DejaVuSans-115"/>
    <use x="1177.546875" xlink:href="#DejaVuSans-116"/>
    <use x="1216.755859" xlink:href="#DejaVuSans-114"/>
    <use x="1257.869141" xlink:href="#DejaVuSans-117"/>
    <use x="1321.248047" xlink:href="#DejaVuSans-99"/>
    <use x="1376.228516" xlink:href="#DejaVuSans-116"/>
    <use x="1415.4375" xlink:href="#DejaVuSans-105"/>
    <use x="1443.220703" xlink:href="#DejaVuSans-111"/>
    <use x="1504.402344" xlink:href="#DejaVuSans-110"/>
   </g>
  </g>
  <g id="legend_1">
   <g id="patch_70">
    <path d="M 207.650385 301.177885 
L 258.669135 301.177885 
Q 260.669135 301.177885 260.669135 299.177885 
L 260.669135 285.221635 
Q 260.669135 283.221635 258.669135 283.221635 
L 207.650385 283.221635 
Q 205.650385 283.221635 205.650385 285.221635 
L 205.650385 299.177885 
Q 205.650385 301.177885 207.650385 301.177885 
z
" style="fill:#ffffff;opacity:0.8;stroke:#cccccc;stroke-linejoin:miter;"/>
   </g>
   <g id="patch_71">
    <path d="M 209.650385 294.820072 
L 229.650385 294.820072 
L 229.650385 287.820072 
L 209.650385 287.820072 
z
" style="fill:#6ed880;"/>
   </g>
   <g id="text_44">
    <!-- E_D -->
    <g transform="translate(237.650385 294.820072)scale(0.1 -0.1)">
     <use xlink:href="#DejaVuSans-69"/>
     <use x="63.183594" xlink:href="#DejaVuSans-95"/>
     <use x="113.183594" xlink:href="#DejaVuSans-68"/>
    </g>
   </g>
  </g>
 </g>
 <defs>
  <clipPath id="p9b06d5f307">
   <rect height="85.86904" width="158.441864" x="72.59375" y="47.86846"/>
  </clipPath>
  <clipPath id="pf0fbd1dcc4">
   <rect height="85.86904" width="158.441864" x="262.032656" y="47.86846"/>
  </clipPath>
  <clipPath id="p90519bc0b4">
   <rect height="85.86904" width="158.441864" x="72.59375" y="172.97423"/>
  </clipPath>
  <clipPath id="p9495995d62">
   <rect height="85.86904" width="158.441864" x="262.032656" y="172.97423"/>
  </clipPath>
 </defs>
</svg>
