<?xml version="1.0" encoding="UTF-8" standalone="no"?>
<svg
   class="main-svg"
   width="1678.7366"
   height="540.08075"
   version="1.1"
   id="svg1643"
   sodipodi:docname="svgexport-1(1).svg"
   inkscape:version="1.1 (ce6663b3b7, 2021-05-25)"
   xmlns:inkscape="http://www.inkscape.org/namespaces/inkscape"
   xmlns:sodipodi="http://sodipodi.sourceforge.net/DTD/sodipodi-0.dtd"
   xmlns="http://www.w3.org/2000/svg"
   xmlns:svg="http://www.w3.org/2000/svg">
  <sodipodi:namedview
     id="namedview1645"
     pagecolor="#ffffff"
     bordercolor="#666666"
     borderopacity="1.0"
     inkscape:pageshadow="2"
     inkscape:pageopacity="0.0"
     inkscape:pagecheckerboard="0"
     showgrid="false"
     fit-margin-top="0"
     fit-margin-left="0"
     fit-margin-right="0"
     fit-margin-bottom="0"
     inkscape:zoom="0.51197251"
     inkscape:cx="842.8187"
     inkscape:cy="470.7284"
     inkscape:window-width="1920"
     inkscape:window-height="1163"
     inkscape:window-x="1920"
     inkscape:window-y="0"
     inkscape:window-maximized="1"
     inkscape:current-layer="svg1643" />
  <defs
     id="defs-b2605d">
    <g
       class="clips"
       id="g1482" />
    <g
       class="gradients"
       id="g1484" />
    <g
       class="patterns"
       id="g1486" />
  </defs>
  <g
     class="bglayer"
     id="g1489"
     transform="translate(-120.13427,-190.33945)" />
  <g
     class="layer-below"
     id="g1499"
     transform="translate(-120.13427,-190.33945)">
    <g
       class="imagelayer"
       id="g1495" />
    <g
       class="shapelayer"
       id="g1497" />
  </g>
  <g
     class="cartesianlayer"
     id="g1501"
     transform="translate(-120.13427,-190.33945)" />
  <g
     class="polarlayer"
     id="g1503"
     transform="translate(-120.13427,-190.33945)" />
  <g
     class="ternarylayer"
     id="g1505"
     transform="translate(-120.13427,-190.33945)" />
  <g
     class="geolayer"
     id="g1507"
     transform="translate(-120.13427,-190.33945)" />
  <g
     class="funnelarealayer"
     id="g1509"
     transform="translate(-120.13427,-190.33945)" />
  <g
     class="pielayer"
     id="g1511"
     transform="translate(-120.13427,-190.33945)" />
  <g
     class="iciclelayer"
     id="g1513"
     transform="translate(-120.13427,-190.33945)" />
  <g
     class="treemaplayer"
     id="g1515"
     transform="translate(-120.13427,-190.33945)" />
  <g
     class="sunburstlayer"
     id="g1517"
     transform="translate(-120.13427,-190.33945)" />
  <g
     class="glimages"
     id="g1519"
     transform="translate(-120.13427,-190.33945)" />
  <g
     class="sankey"
     transform="translate(-65.513424,-220.792)"
     id="g1641">
    <g
       class="sankey-links"
       fill="none"
       id="g1565">
      <path
         class="sankey-link"
         style="opacity:1;stroke-opacity:1"
         d="m 247.18384,446.71542 c 139.68162,0 139.68162,-5.10913 279.36324,-5.10913 v 42.75155 c -139.68162,0 -139.68162,5.10914 -279.36324,5.10914 z"
         stroke="#444444"
         fill="#377eb8"
         stroke-width="0px"
         fill-opacity="0.75"
         id="path1521" />
      <path
         class="sankey-link"
         style="opacity:1;stroke-opacity:1"
         d="m 247.18384,489.46698 c 139.68162,0 139.68162,47.06165 279.36324,47.06165 v 4.22983 c -139.68162,0 -139.68162,-47.06165 -279.36324,-47.06165 z"
         stroke="#444444"
         fill="#377eb8"
         stroke-width="0px"
         fill-opacity="0.75"
         id="path1523" />
      <path
         class="sankey-link"
         style="opacity:1;stroke-opacity:1"
         d="m 546.54708,441.63595 c 439.04484,0 439.04484,78.37082 878.08972,78.37082 v 42.69204 c -439.04488,0 -439.04488,-78.37082 -878.08972,-78.37082 z"
         stroke="#444444"
         fill="#377eb8"
         stroke-width="0px"
         fill-opacity="0.75"
         id="path1525" />
      <path
         class="sankey-link"
         style="opacity:1;stroke-width:1px"
         d="m 546.54708,484.32799 c 139.68161,0 139.68161,57.22861 279.36323,57.22861 v 0.0299 c -139.68162,0 -139.68162,-57.22862 -279.36323,-57.22862 z"
         stroke="#377eb8"
         fill="#377eb8"
         fill-opacity="0.75"
         stroke-opacity="0.75"
         id="path1527" />
      <path
         class="sankey-link"
         style="opacity:1;stroke-width:1px"
         d="m 546.54708,441.60629 c 139.68161,0 139.68161,-89.71716 279.36323,-89.71716 v 0.0297 c -139.68162,0 -139.68162,89.71716 -279.36323,89.71716 z"
         stroke="#377eb8"
         fill="#377eb8"
         fill-opacity="0.75"
         stroke-opacity="0.75"
         id="path1529" />
      <path
         class="sankey-link"
         style="opacity:1;stroke-opacity:1"
         d="m 546.54708,536.52863 c 139.68161,0 139.68161,5.05783 279.36323,5.05783 v 7.80418 c -139.68162,0 -139.68162,-5.05784 -279.36323,-5.05784 z"
         stroke="#444444"
         fill="#ffff33"
         stroke-width="0px"
         fill-opacity="0.75"
         id="path1531" />
      <path
         class="sankey-link"
         style="opacity:1;stroke-opacity:1"
         d="m 546.54708,221.04189 c 588.72642,0 588.72642,67.72743 1177.45292,67.72743 v 24.52098 c -588.7265,0 -588.7265,-67.72743 -1177.45292,-67.72743 z"
         stroke="#444444"
         fill="#e41a1c"
         stroke-width="0px"
         fill-opacity="0.75"
         id="path1533" />
      <path
         class="sankey-link"
         style="opacity:1;stroke-opacity:1"
         d="m 546.54708,245.56287 c 139.68161,0 139.68161,28.62097 279.36323,28.62097 v 77.70529 c -139.68162,0 -139.68162,-28.62097 -279.36323,-28.62097 z"
         stroke="#444444"
         fill="#ffff33"
         stroke-width="0px"
         fill-opacity="0.75"
         id="path1535" />
      <path
         class="sankey-link"
         style="opacity:1;stroke-opacity:1"
         d="m 247.18384,352.41011 c 738.40808,0 738.40808,39.16134 1476.81616,39.16134 v 7.88177 c -738.40808,0 -738.40808,-39.16134 -1476.81616,-39.16134 z"
         stroke="#444444"
         fill="#4daf4a"
         stroke-width="0px"
         fill-opacity="0.75"
         id="path1537" />
      <path
         class="sankey-link"
         style="opacity:1;stroke-opacity:1"
         d="m 247.18384,360.29188 c 139.68162,0 139.68162,23.84094 279.36324,23.84094 v 36.56238 c -139.68162,0 -139.68162,-23.84094 -279.36324,-23.84094 z"
         stroke="#444444"
         fill="#ff7f00"
         stroke-width="0px"
         fill-opacity="0.75"
         id="path1539" />
      <path
         class="sankey-link"
         style="opacity:1;stroke-opacity:1"
         d="m 247.18384,250.18384 c 139.68162,0 139.68162,-29.14195 279.36324,-29.14195 v 102.22627 c -139.68162,0 -139.68162,29.14195 -279.36324,29.14195 z"
         stroke="#444444"
         fill="#e41a1c"
         stroke-width="0px"
         fill-opacity="0.75"
         id="path1541" />
      <path
         class="sankey-link"
         style="opacity:1;stroke-opacity:1"
         d="m 546.54708,384.13282 c 588.72642,0 588.72642,15.3204 1177.45292,15.3204 v 2.66334 c -588.7265,0 -588.7265,-15.3204 -1177.45292,-15.3204 z"
         stroke="#444444"
         fill="#4daf4a"
         stroke-width="0px"
         fill-opacity="0.75"
         id="path1543" />
      <path
         class="sankey-link"
         style="opacity:1;stroke-opacity:1"
         d="m 546.54708,386.79616 c 289.36323,0 289.36323,30.81173 578.72642,30.81173 v 33.89903 c -289.36319,0 -289.36319,-30.81172 -578.72642,-30.81172 z"
         stroke="#444444"
         fill="#ff7f00"
         stroke-width="0px"
         fill-opacity="0.75"
         id="path1545" />
      <path
         class="sankey-link"
         style="opacity:1;stroke-opacity:1"
         d="m 1145.2735,417.60789 c 289.3633,0 289.3633,-15.49133 578.7265,-15.49133 v 4.32765 c -289.3632,0 -289.3632,15.49132 -578.7265,15.49132 z"
         stroke="#444444"
         fill="#4daf4a"
         stroke-width="0px"
         fill-opacity="0.75"
         id="path1547" />
      <path
         class="sankey-link"
         style="opacity:1;stroke-opacity:1"
         d="m 1145.2735,421.93553 c 139.6817,0 139.6817,64.24831 279.3633,64.24831 v 33.82293 c -139.6816,0 -139.6816,-64.24831 -279.3633,-64.24831 z"
         stroke="#444444"
         fill="#ff7f00"
         stroke-width="0px"
         fill-opacity="0.75"
         id="path1549" />
      <path
         class="sankey-link"
         style="opacity:1;stroke-opacity:1"
         d="m 526.54708,540.75846 h -5 c -7.4969,0 -13.57435,6.07744 -13.57435,13.57434 v 14.1376 c 0,7.49691 6.07745,13.57435 13.57435,13.57434 h 628.72642 c 7.4969,3e-5 13.5744,-6.07741 13.5744,-13.57434 v -99.1376 c 0,-7.49692 -6.0775,-13.57437 -13.5744,-13.57434 h -5 v 3.57434 h 5 c 5.5228,0 10,4.47715 10,10 v 99.1376 c 0,5.52285 -4.4772,10 -10,10 H 521.54708 c -5.52285,0 -10,-4.47715 -10,-10 v -14.1376 c 0,-5.52285 4.47715,-10 10,-10 h 5 z"
         stroke="#444444"
         fill="#377eb8"
         stroke-width="0px"
         fill-opacity="0.75"
         id="path1551"
         sodipodi:nodetypes="csssccsssccsssssssscc" />
      <path
         class="sankey-link"
         style="opacity:1;stroke-opacity:1"
         d="m 1444.6368,486.18384 c 139.6816,0 139.6816,-79.73148 279.3632,-79.73148 v 7.57194 c -139.6816,0 -139.6816,79.73148 -279.3632,79.73148 z"
         stroke="#444444"
         fill="#4daf4a"
         stroke-width="0px"
         fill-opacity="0.75"
         id="path1553" />
      <path
         class="sankey-link"
         style="opacity:1;stroke-opacity:1"
         d="m 227.18384,250.18384 h -5 c -86.52668,0 -156.670415,70.14374 -156.670415,156.67042 V 604.2023 c 0,86.52669 70.143735,156.67042 156.670415,156.67042 H 1449.6368 c 43.599,0 78.943,-35.344 78.943,-78.94303 V 572.69881 c 0,-43.59903 -35.344,-78.94303 -78.943,-78.94303 h -5 v 68.94303 h 5 c 5.5228,0 10,4.47716 10,10 v 109.23088 c 0,5.52285 -4.4772,10 -10,10 H 222.18384 c -48.45049,0 -87.72738,-39.27689 -87.72738,-87.72739 V 406.85426 c 0,-48.45049 39.27689,-87.72738 87.72738,-87.72738 h 5 z"
         stroke="#444444"
         fill="#ff7f00"
         stroke-width="0px"
         fill-opacity="0.75"
         id="path1555"
         sodipodi:nodetypes="cssssssssccsssssssscc" />
      <path
         class="sankey-link"
         style="opacity:1;stroke-width:1px"
         d="m 845.91031,549.38248 c 439.04489,0 439.04489,-142.93827 878.08969,-142.93827 v 0.008 c -439.0448,0 -439.0448,142.93828 -878.08969,142.93828 z"
         stroke="#4daf4a"
         fill="#4daf4a"
         fill-opacity="0.75"
         stroke-opacity="0.75"
         id="path1557" />
      <path
         class="sankey-link"
         style="opacity:1;stroke-opacity:1"
         d="m 845.91031,541.5566 c 139.68161,0 139.68161,-90.04968 279.36319,-90.04968 v 7.82588 c -139.68158,0 -139.68158,90.04968 -279.36319,90.04968 z"
         stroke="#444444"
         fill="#ffff33"
         stroke-width="0px"
         fill-opacity="0.75"
         id="path1559" />
      <path
         class="sankey-link"
         style="opacity:1;stroke-width:1px"
         d="m 845.91031,274.18384 c 439.04489,0 439.04489,117.38005 878.08969,117.38005 v 0.008 c -439.0448,0 -439.0448,-117.38005 -878.08969,-117.38005 z"
         stroke="#4daf4a"
         fill="#4daf4a"
         fill-opacity="0.75"
         stroke-opacity="0.75"
         id="path1561" />
      <path
         class="sankey-link"
         style="opacity:1;stroke-opacity:1"
         d="m 227.18384,319.12688 h -5 c -48.45049,0 -87.72738,39.27689 -87.72738,87.72738 V 578.8671 c 0,48.4505 39.27689,87.72739 87.72738,87.72739 h 628.72647 c 48.45049,0 87.72738,-39.27689 87.72738,-87.72739 V 361.91879 c 0,-48.4505 -39.27689,-87.72739 -87.72738,-87.72739 h -5 v 77.72739 h 5 c 5.52284,0 10,4.47715 10,10 V 578.8671 c 0,5.52285 -4.47716,10 -10,10 H 222.18384 c -5.52284,0 -10,-4.47715 -10,-10 V 406.85426 c 0,-5.52284 4.47716,-10 10,-10 h 5 z"
         stroke="#444444"
         fill="#ffff33"
         stroke-width="0px"
         fill-opacity="0.75"
         id="path1563"
         sodipodi:nodetypes="cssssssssccsssssssscc" />
    </g>
    <g
       class="sankey-node-set"
       id="g1639">
      <g
         class="sankey-node"
         transform="translate(1724,391.564)"
         style="opacity:1"
         id="g1571">
        <rect
           class="node-rect"
           width="20"
           height="22.460407"
           style="fill-opacity:1;stroke-opacity:1"
           stroke="#444444"
           fill="#ffa500"
           stroke-width="0.5px"
           id="rect1567"
           x="0"
           y="0" />
        <text
           class="node-label"
           style="font-size:12px;font-family:'Open Sans', verdana, arial, sans-serif;white-space:pre;fill-opacity:1"
           data-notex="1"
           data-unformatted="E_D"
           data-math="N"
           x="0"
           y="0"
           text-anchor="end"
           transform="translate(-3.25,15.430204)"
           fill="#2a3f5f"
           id="text1569">E_D</text>
      </g>
      <g
         class="sankey-node"
         transform="translate(526.547,221.042)"
         style="opacity:1"
         id="g1577">
        <rect
           class="node-rect"
           width="20"
           height="102.22627"
           style="fill-opacity:1;stroke-opacity:1"
           stroke="#444444"
           fill="#ffa500"
           stroke-width="0.5px"
           id="rect1573"
           x="0"
           y="0" />
        <text
           class="node-label"
           style="font-size:12px;font-family:'Open Sans', verdana, arial, sans-serif;white-space:pre;fill-opacity:1"
           data-notex="1"
           data-unformatted="heating system"
           data-math="N"
           x="0"
           y="0"
           text-anchor="start"
           transform="translate(23.25,55.313135)"
           fill="#2a3f5f"
           id="text1575">heating system</text>
      </g>
      <g
         class="sankey-node"
         transform="translate(825.91,274.184)"
         style="opacity:1"
         id="g1583">
        <rect
           class="node-rect"
           width="20"
           height="77.734947"
           style="fill-opacity:1;stroke-opacity:1"
           stroke="#444444"
           fill="#ffa500"
           stroke-width="0.5px"
           id="rect1579"
           x="0"
           y="0" />
        <text
           class="node-label"
           style="font-size:12px;font-family:'Open Sans', verdana, arial, sans-serif;white-space:pre;fill-opacity:1"
           data-notex="1"
           data-unformatted="heating system pump"
           data-math="N"
           x="0"
           y="0"
           text-anchor="start"
           transform="translate(23.25,43.067473)"
           fill="#2a3f5f"
           id="text1581">heating system pump</text>
      </g>
      <g
         class="sankey-node"
         transform="translate(227.184,250.184)"
         style="opacity:1"
         id="g1589">
        <rect
           class="node-rect"
           width="20"
           height="146.67043"
           style="fill-opacity:1;stroke-opacity:1"
           stroke="#444444"
           fill="#ffa500"
           stroke-width="0.5px"
           id="rect1585"
           x="0"
           y="0" />
        <text
           class="node-label"
           style="font-size:12px;font-family:'Open Sans', verdana, arial, sans-serif;white-space:pre;fill-opacity:1"
           data-notex="1"
           data-unformatted="condenser"
           data-math="N"
           x="0"
           y="0"
           text-anchor="start"
           transform="translate(23.25,77.53521)"
           fill="#2a3f5f"
           id="text1587">condenser</text>
      </g>
      <g
         class="sankey-node"
         transform="translate(526.547,384.133)"
         style="opacity:1"
         id="g1595">
        <rect
           class="node-rect"
           width="20"
           height="36.562378"
           style="fill-opacity:1;stroke-opacity:1"
           stroke="#444444"
           fill="#ffa500"
           stroke-width="0.5px"
           id="rect1591"
           x="0"
           y="0" />
        <text
           class="node-label"
           style="font-size:12px;font-family:'Open Sans', verdana, arial, sans-serif;white-space:pre;fill-opacity:1"
           data-notex="1"
           data-unformatted="valve"
           data-math="N"
           x="0"
           y="0"
           text-anchor="start"
           transform="translate(23.25,22.48119)"
           fill="#2a3f5f"
           id="text1593">valve</text>
      </g>
      <g
         class="sankey-node"
         transform="translate(526.547,441.606)"
         style="opacity:1"
         id="g1601">
        <rect
           class="node-rect"
           width="20"
           height="42.751556"
           style="fill-opacity:1;stroke-opacity:1"
           stroke="#444444"
           fill="#ffa500"
           stroke-width="0.5px"
           id="rect1597"
           x="0"
           y="0" />
        <text
           class="node-label"
           style="font-size:12px;font-family:'Open Sans', verdana, arial, sans-serif;white-space:pre;fill-opacity:1"
           data-notex="1"
           data-unformatted="power input"
           data-math="N"
           x="0"
           y="0"
           text-anchor="start"
           transform="translate(23.25,25.575779)"
           fill="#2a3f5f"
           id="text1599">power input</text>
      </g>
      <g
         class="sankey-node"
         transform="translate(1125.274,417.608)"
         style="opacity:1"
         id="g1607">
        <rect
           class="node-rect"
           width="20"
           height="41.724915"
           style="fill-opacity:1;stroke-opacity:1"
           stroke="#444444"
           fill="#ffa500"
           stroke-width="0.5px"
           id="rect1603"
           x="0"
           y="0" />
        <text
           class="node-label"
           style="font-size:12px;font-family:'Open Sans', verdana, arial, sans-serif;white-space:pre;fill-opacity:1"
           data-notex="1"
           data-unformatted="evaporator"
           data-math="N"
           x="0"
           y="0"
           text-anchor="start"
           transform="translate(23.25,25.062457)"
           fill="#2a3f5f"
           id="text1605">evaporator</text>
      </g>
      <g
         class="sankey-node"
         transform="translate(227.18401,446.715)"
         style="opacity:1"
         id="g1613">
        <rect
           class="node-rect"
           width="20"
           height="46.981388"
           style="fill-opacity:1;stroke-opacity:1"
           stroke="#444444"
           fill="#ffa500"
           stroke-width="0.5px"
           id="rect1609"
           x="0"
           y="0" />
        <text
           class="node-label"
           style="font-size:12px;font-family:'Open Sans', verdana, arial, sans-serif;white-space:pre;fill-opacity:1"
           data-notex="1"
           data-unformatted="E_F"
           data-math="N"
           x="0"
           y="0"
           text-anchor="start"
           transform="translate(23.25,27.690695)"
           fill="#2a3f5f"
           id="text1611">E_F</text>
      </g>
      <g
         class="sankey-node"
         transform="translate(1424.637,486.18399)"
         style="opacity:1"
         id="g1619">
        <rect
           class="node-rect"
           width="20"
           height="76.514969"
           style="fill-opacity:1;stroke-opacity:1"
           stroke="#444444"
           fill="#ffa500"
           stroke-width="0.5px"
           id="rect1615"
           x="0"
           y="0" />
        <text
           class="node-label"
           style="font-size:12px;font-family:'Open Sans', verdana, arial, sans-serif;white-space:pre;fill-opacity:1"
           data-notex="1"
           data-unformatted="compressor"
           data-math="N"
           x="0"
           y="0"
           text-anchor="start"
           transform="translate(23.25,42.457484)"
           fill="#2a3f5f"
           id="text1617">compressor</text>
      </g>
      <g
         class="sankey-node"
         transform="translate(825.91,541.557)"
         style="opacity:1"
         id="g1625">
        <rect
           class="node-rect"
           width="20"
           height="7.8340306"
           style="fill-opacity:1;stroke-opacity:1"
           stroke="#444444"
           fill="#ffa500"
           stroke-width="0.5px"
           id="rect1621"
           x="0"
           y="0" />
        <text
           class="node-label"
           style="font-size:12px;font-family:'Open Sans', verdana, arial, sans-serif;white-space:pre;fill-opacity:1"
           data-notex="1"
           data-unformatted="ground heat loop pump"
           data-math="N"
           x="0"
           y="0"
           text-anchor="start"
           transform="translate(23.25,8.1170153)"
           fill="#2a3f5f"
           id="text1623">ground heat loop pump</text>
      </g>
      <g
         class="sankey-node"
         transform="translate(1724,288.76901)"
         style="opacity:1"
         id="g1631">
        <rect
           class="node-rect"
           width="20"
           height="24.520983"
           style="fill-opacity:1;stroke-opacity:1"
           stroke="#444444"
           fill="#ffa500"
           stroke-width="0.5px"
           id="rect1627"
           x="0"
           y="0" />
        <text
           class="node-label"
           style="font-size:12px;font-family:'Open Sans', verdana, arial, sans-serif;white-space:pre;fill-opacity:1"
           data-notex="1"
           data-unformatted="E_P"
           data-math="N"
           x="0"
           y="0"
           text-anchor="end"
           transform="translate(-3.25,16.460491)"
           fill="#2a3f5f"
           id="text1629">E_P</text>
      </g>
      <g
         class="sankey-node"
         transform="translate(526.547,536.529)"
         style="opacity:1"
         id="g1637">
        <rect
           class="node-rect"
           width="20"
           height="7.8041749"
           style="fill-opacity:1;stroke-opacity:1"
           stroke="#444444"
           fill="#ffa500"
           stroke-width="0.5px"
           id="rect1633"
           x="0"
           y="0" />
        <text
           class="node-label"
           style="font-size:12px;font-family:'Open Sans', verdana, arial, sans-serif;white-space:pre;fill-opacity:1"
           data-notex="1"
           data-unformatted="geothermal heat"
           data-math="N"
           x="0"
           y="0"
           text-anchor="start"
           transform="translate(23.25,8.1020875)"
           fill="#2a3f5f"
           id="text1635">geothermal heat</text>
      </g>
    </g>
  </g>
</svg>
