<?xml version="1.0" encoding="UTF-8" standalone="no"?>
<svg
   inkscape:export-ydpi="1012"
   inkscape:export-xdpi="1012"
   sodipodi:docname="Systemoverview.svg"
   inkscape:version="1.2.2 (732a01da63, 2022-12-09)"
   id="svg8"
   version="1.1"
   viewBox="0 0 500.64407 185.644"
   height="185.644mm"
   width="500.64401mm"
   xml:space="preserve"
   xmlns:inkscape="http://www.inkscape.org/namespaces/inkscape"
   xmlns:sodipodi="http://sodipodi.sourceforge.net/DTD/sodipodi-0.dtd"
   xmlns:xlink="http://www.w3.org/1999/xlink"
   xmlns="http://www.w3.org/2000/svg"
   xmlns:svg="http://www.w3.org/2000/svg"
   xmlns:rdf="http://www.w3.org/1999/02/22-rdf-syntax-ns#"
   xmlns:cc="http://creativecommons.org/ns#"
   xmlns:dc="http://purl.org/dc/elements/1.1/"><defs
     id="defs2"><marker
       style="overflow:visible"
       id="marker1610"
       refX="0"
       refY="0"
       orient="auto-start-reverse"
       inkscape:stockid="TriangleStart"
       markerWidth="5.3244081"
       markerHeight="6.155385"
       viewBox="0 0 5.3244081 6.1553851"
       inkscape:isstock="true"
       inkscape:collect="always"
       preserveAspectRatio="xMidYMid"><path
         transform="scale(0.5)"
         style="fill:context-stroke;fill-rule:evenodd;stroke:context-stroke;stroke-width:1pt"
         d="M 5.77,0 -2.88,5 V -5 Z"
         id="path1608" /></marker><marker
       style="overflow:visible"
       id="marker1610_Fnone_S-ff6e17"
       refX="0"
       refY="0"
       orient="auto-start-reverse"
       inkscape:stockid="TriangleStart"
       markerWidth="5.3244081"
       markerHeight="6.155385"
       viewBox="0 0 5.3244081 6.1553851"
       inkscape:isstock="true"
       inkscape:collect="always"
       preserveAspectRatio="xMidYMid"><path
         transform="scale(0.5)"
         style="fill:#ff6e17;fill-rule:evenodd;stroke:#ff6e17;stroke-width:1pt"
         d="M 5.77,0 -2.88,5 V -5 Z"
         id="path8928" /></marker><marker
       style="overflow:visible"
       id="TriangleStart"
       refX="0"
       refY="0"
       orient="auto-start-reverse"
       inkscape:stockid="TriangleStart"
       markerWidth="5.3244081"
       markerHeight="6.155385"
       viewBox="0 0 5.3244081 6.1553851"
       inkscape:isstock="true"
       inkscape:collect="always"
       preserveAspectRatio="xMidYMid"><path
         transform="scale(0.5)"
         style="fill:context-stroke;fill-rule:evenodd;stroke:context-stroke;stroke-width:1pt"
         d="M 5.77,0 -2.88,5 V -5 Z"
         id="path135" /></marker><marker
       style="overflow:visible"
       id="TriangleStart_Fnone_S-646464"
       refX="0"
       refY="0"
       orient="auto-start-reverse"
       inkscape:stockid="TriangleStart"
       markerWidth="5.3244081"
       markerHeight="6.155385"
       viewBox="0 0 5.3244081 6.1553851"
       inkscape:isstock="true"
       inkscape:collect="always"
       preserveAspectRatio="xMidYMid"><path
         transform="scale(0.5)"
         style="fill:#646464;fill-rule:evenodd;stroke:#646464;stroke-width:1pt"
         d="M 5.77,0 -2.88,5 V -5 Z"
         id="path8931" /></marker><linearGradient
       id="linearGradient2073"
       inkscape:collect="always"><stop
         id="stop2069"
         offset="0"
         style="stop-color:#000000;stop-opacity:1;" /><stop
         id="stop2071"
         offset="1"
         style="stop-color:#000000;stop-opacity:0;" /></linearGradient><rect
       id="rect1009"
       height="0"
       width="12.5"
       y="-75"
       x="50" /><linearGradient
       gradientTransform="translate(0.29243162,-2.3779876)"
       gradientUnits="userSpaceOnUse"
       y2="204.98201"
       x2="223.36507"
       y1="204.98201"
       x1="221.6942"
       id="linearGradient2075"
       xlink:href="#linearGradient2073"
       inkscape:collect="always" /><clipPath
       id="p7803e5a399"><rect
         x="57.599998"
         y="41.472"
         width="357.12"
         height="266.112"
         id="rect8109" /></clipPath><path
       id="DejaVuSans-74"
       d="M 1172,4494 V 3500 H 2356 V 3053 H 1172 V 1153 q 0,-428 117,-550 117,-122 477,-122 h 590 V 0 H 1766 Q 1100,0 847,248 594,497 594,1153 V 3053 H 172 v 447 h 422 v 994 z"
       transform="scale(0.015625)" /><path
       id="DejaVuSans-69"
       d="m 603,3500 h 575 V 0 H 603 Z m 0,1363 h 575 V 4134 H 603 Z"
       transform="scale(0.015625)" /><path
       id="DejaVuSans-6d"
       d="m 3328,2828 q 216,388 516,572 300,184 706,184 547,0 844,-383 297,-382 297,-1088 V 0 h -578 v 2094 q 0,503 -179,746 -178,244 -543,244 -447,0 -707,-297 -259,-296 -259,-809 V 0 h -578 v 2094 q 0,506 -178,748 -178,242 -550,242 -441,0 -701,-298 -259,-298 -259,-808 V 0 H 581 v 3500 h 578 v -544 q 197,322 472,475 275,153 653,153 382,0 649,-194 267,-193 395,-562 z"
       transform="scale(0.015625)" /><path
       id="DejaVuSans-65"
       d="M 3597,1894 V 1613 H 953 q 38,-594 358,-905 320,-311 892,-311 331,0 642,81 311,81 618,244 V 178 Q 3153,47 2828,-22 2503,-91 2169,-91 1331,-91 842,396 353,884 353,1716 q 0,859 464,1363 464,505 1252,505 706,0 1117,-455 411,-454 411,-1235 z m -575,169 q -6,471 -264,752 -258,282 -683,282 -481,0 -770,-272 -289,-272 -333,-766 z"
       transform="scale(0.015625)" /><path
       id="DejaVuSans-64"
       d="m 2906,2969 v 1894 h 575 V 0 H 2906 V 525 Q 2725,213 2448,61 2172,-91 1784,-91 1150,-91 751,415 353,922 353,1747 q 0,825 398,1331 399,506 1033,506 388,0 664,-152 277,-151 458,-463 z M 947,1747 q 0,-634 261,-995 261,-361 717,-361 456,0 718,361 263,361 263,995 0,634 -263,995 -262,361 -718,361 -456,0 -717,-361 -261,-361 -261,-995 z"
       transform="scale(0.015625)" /><path
       id="DejaVuSans-61"
       d="m 2194,1759 q -697,0 -966,-159 -269,-159 -269,-544 0,-306 202,-486 202,-179 548,-179 479,0 768,339 289,339 289,901 v 128 z m 1147,238 V 0 H 2766 V 531 Q 2569,213 2275,61 1981,-91 1556,-91 q -537,0 -855,302 -317,302 -317,808 0,590 395,890 396,300 1180,300 h 807 v 57 q 0,397 -261,614 -261,217 -733,217 -300,0 -585,-72 -284,-72 -546,-216 v 532 q 315,122 612,182 297,61 578,61 760,0 1135,-394 375,-393 375,-1193 z"
       transform="scale(0.015625)" /><path
       id="DejaVuSans-6e"
       d="M 3513,2113 V 0 h -575 v 2094 q 0,497 -194,743 -194,247 -581,247 -466,0 -735,-297 -269,-296 -269,-809 V 0 H 581 v 3500 h 578 v -544 q 207,316 486,472 280,156 646,156 603,0 912,-373 310,-373 310,-1098 z"
       transform="scale(0.015625)" /><clipPath
       id="p5ac11c4b08"><rect
         x="57.599998"
         y="41.472"
         width="357.12"
         height="266.112"
         id="rect9339" /></clipPath><clipPath
       id="clipPath9475"><rect
         x="57.599998"
         y="41.472"
         width="357.12"
         height="266.112"
         id="rect9473" /></clipPath><path
       id="m9770e0a7f7"
       d="M 0,0 V 3.5"
       style="stroke:#000000;stroke-width:0.8" /><path
       id="DejaVuSans-2212"
       d="M 678,2272 H 4684 V 1741 H 678 Z"
       transform="scale(0.015625)" /><path
       id="DejaVuSans-31"
       d="M 794,531 H 1825 V 4091 L 703,3866 v 575 l 1116,225 h 631 V 531 H 3481 V 0 H 794 Z"
       transform="scale(0.015625)" /><path
       id="DejaVuSans-30"
       d="m 2034,4250 q -487,0 -733,-480 -245,-479 -245,-1442 0,-959 245,-1439 246,-480 733,-480 491,0 736,480 246,480 246,1439 0,963 -246,1442 -245,480 -736,480 z m 0,500 q 785,0 1199,-621 414,-620 414,-1801 0,-1178 -414,-1799 -414,-620 -1199,-620 -784,0 -1198,620 -414,621 -414,1799 0,1181 414,1801 414,621 1198,621 z"
       transform="scale(0.015625)" /><path
       id="DejaVuSans-35"
       d="M 691,4666 H 3169 V 4134 H 1269 V 2991 q 137,47 274,70 138,23 276,23 781,0 1237,-428 457,-428 457,-1159 Q 3513,744 3044,326 2575,-91 1722,-91 1428,-91 1123,-41 819,9 494,109 v 635 q 281,-153 581,-228 300,-75 634,-75 541,0 856,284 316,284 316,772 0,487 -316,771 -315,285 -856,285 -253,0 -505,-56 -251,-56 -513,-175 z"
       transform="scale(0.015625)" /><path
       id="DejaVuSans-32"
       d="M 1228,531 H 3431 V 0 H 469 v 531 q 359,372 979,998 621,627 780,809 303,340 423,576 121,236 121,464 0,372 -261,606 -261,235 -680,235 -297,0 -627,-103 -329,-103 -704,-313 v 638 q 381,153 712,231 332,78 607,78 725,0 1156,-363 431,-362 431,-968 0,-288 -108,-546 -107,-257 -392,-607 -78,-91 -497,-524 Q 1991,1309 1228,531 Z"
       transform="scale(0.015625)" /><path
       id="m1014094808"
       d="M 0,0 H -3.5"
       style="stroke:#000000;stroke-width:0.8" /><path
       id="DejaVuSans-34"
       d="M 2419,4116 825,1625 h 1594 z m -166,550 h 794 V 1625 h 666 V 1100 H 3047 V 0 H 2419 V 1100 H 313 v 609 z"
       transform="scale(0.015625)" /><path
       id="DejaVuSans-36"
       d="m 2113,2584 q -425,0 -674,-291 -248,-290 -248,-796 0,-503 248,-796 249,-292 674,-292 425,0 673,292 248,293 248,796 0,506 -248,796 -248,291 -673,291 z m 1253,1979 v -575 q -238,112 -480,171 -242,60 -480,60 -625,0 -955,-422 -329,-422 -376,-1275 184,272 462,417 279,145 613,145 703,0 1111,-427 408,-426 408,-1160 0,-719 -425,-1154 -425,-434 -1131,-434 -810,0 -1238,620 -428,621 -428,1799 0,1106 525,1764 525,658 1409,658 238,0 480,-47 242,-47 505,-140 z"
       transform="scale(0.015625)" /><path
       id="DejaVuSans-37"
       d="M 525,4666 H 3525 V 4397 L 1831,0 H 1172 L 2766,4134 H 525 Z"
       transform="scale(0.015625)" /><path
       id="DejaVuSans-38"
       d="m 2034,2216 q -450,0 -708,-241 -257,-241 -257,-662 0,-422 257,-663 258,-241 708,-241 450,0 709,242 260,243 260,662 0,421 -258,662 -257,241 -711,241 z m -631,268 q -406,100 -633,378 -226,279 -226,679 0,559 398,884 399,325 1092,325 697,0 1094,-325 397,-325 397,-884 0,-400 -227,-679 -226,-278 -629,-378 456,-106 710,-416 255,-309 255,-755 Q 3634,634 3220,271 2806,-91 2034,-91 1263,-91 848,271 434,634 434,1313 q 0,446 256,755 257,310 713,416 z m -231,997 q 0,-362 226,-565 227,-203 636,-203 407,0 636,203 230,203 230,565 0,363 -230,566 -229,203 -636,203 -409,0 -636,-203 -226,-203 -226,-566 z"
       transform="scale(0.015625)" /><path
       id="DejaVuSans-43"
       d="m 4122,4306 v -665 q -319,297 -680,443 -361,147 -767,147 -800,0 -1225,-489 -425,-489 -425,-1414 0,-922 425,-1411 425,-489 1225,-489 406,0 767,147 361,147 680,444 V 359 Q 3791,134 3420,21 3050,-91 2638,-91 1578,-91 968,557 359,1206 359,2328 q 0,1125 609,1773 610,649 1670,649 418,0 788,-111 371,-111 696,-333 z"
       transform="scale(0.015625)" /><path
       id="DejaVuSans-4f"
       d="m 2522,4238 q -688,0 -1093,-513 -404,-512 -404,-1397 0,-881 404,-1394 405,-512 1093,-512 687,0 1089,512 402,513 402,1394 0,885 -402,1397 -402,513 -1089,513 z m 0,512 q 981,0 1568,-658 588,-658 588,-1764 0,-1103 -588,-1761 -587,-658 -1568,-658 -984,0 -1574,656 -589,657 -589,1763 0,1106 589,1764 590,658 1574,658 z"
       transform="scale(0.015625)" /><path
       id="DejaVuSans-50"
       d="M 1259,4147 V 2394 h 794 q 441,0 681,228 241,228 241,650 0,419 -241,647 -240,228 -681,228 z m -631,519 h 1425 q 785,0 1186,-355 402,-355 402,-1039 0,-691 -402,-1044 -401,-353 -1186,-353 H 1259 V 0 H 628 Z"
       transform="scale(0.015625)" /><path
       id="DejaVuSans-3a"
       d="m 750,794 h 659 V 0 H 750 Z m 0,2515 h 659 V 2516 H 750 Z"
       transform="scale(0.015625)" /><path
       id="DejaVuSans-20"
       transform="scale(0.015625)"
       d="" /><path
       id="DejaVuSans-Oblique-3b7"
       d="m 3703,2113 -669,-3444 h -575 l 666,3425 q 97,497 -50,744 -144,246 -531,246 -466,0 -794,-296 -325,-297 -425,-810 L 941,0 H 363 l 681,3500 h 578 l -106,-544 q 265,316 578,472 309,156 675,156 603,0 840,-371 235,-375 94,-1100 z"
       transform="scale(0.015625)" /><path
       id="DejaVuSans-28"
       d="m 1984,4856 q -418,-718 -622,-1422 -203,-703 -203,-1425 0,-721 205,-1429 205,-708 620,-1424 h -500 q -468,735 -701,1444 -233,709 -233,1409 0,697 231,1403 232,707 703,1444 z"
       transform="scale(0.015625)" /><path
       id="DejaVuSans-Oblique-54"
       d="M 378,4666 H 4325 L 4225,4134 H 2559 L 1759,0 h -634 l 800,4134 H 275 Z"
       transform="scale(0.015625)" /><path
       id="DejaVuSans-3d"
       d="M 678,2906 H 4684 V 2381 H 678 Z m 0,-1275 H 4684 V 1100 H 678 Z"
       transform="scale(0.015625)" /><path
       id="DejaVuSans-b0"
       d="m 1600,4347 q -250,0 -422,-174 -172,-173 -172,-423 0,-247 172,-417 172,-170 422,-170 250,0 422,170 172,170 172,417 0,247 -174,422 -173,175 -420,175 z m 0,403 q 200,0 384,-77 185,-76 319,-220 144,-140 216,-319 72,-178 72,-384 0,-412 -289,-698 -289,-286 -708,-286 -422,0 -704,281 -281,281 -281,703 0,419 287,709 288,291 704,291 z"
       transform="scale(0.015625)" /><path
       id="DejaVuSans-Oblique-43"
       d="m 4447,4306 -128,-665 q -300,303 -636,450 -336,147 -727,147 -534,0 -939,-257 -404,-256 -698,-781 -188,-337 -287,-714 -98,-377 -98,-758 0,-637 330,-972 330,-334 958,-334 434,0 834,139 400,139 778,417 L 3688,231 Q 3316,72 2936,-9 2556,-91 2175,-91 1278,-91 773,396 269,884 269,1753 q 0,556 192,1093 192,538 552,982 381,472 870,697 489,225 1139,225 400,0 758,-111 358,-111 667,-333 z"
       transform="scale(0.015625)" /><path
       id="DejaVuSans-29"
       d="m 513,4856 h 500 q 468,-737 701,-1444 233,-706 233,-1403 0,-700 -233,-1409 -233,-709 -701,-1444 H 513 q 415,716 620,1424 205,708 205,1429 0,722 -205,1425 -205,704 -620,1422 z"
       transform="scale(0.015625)" /><path
       id="DejaVuSans-2e"
       d="m 684,794 h 660 V 0 H 684 Z"
       transform="scale(0.015625)" /><clipPath
       id="p81d391bc4a"><rect
         x="57.599998"
         y="41.472"
         width="357.12"
         height="266.112"
         id="rect11946" /></clipPath><clipPath
       id="clipPath12082"><rect
         x="57.599998"
         y="41.472"
         width="357.12"
         height="266.112"
         id="rect12080" /></clipPath><clipPath
       id="clipPath12086"><rect
         x="57.599998"
         y="41.472"
         width="357.12"
         height="266.112"
         id="rect12084" /></clipPath><clipPath
       id="clipPath12090"><rect
         x="57.599998"
         y="41.472"
         width="357.12"
         height="266.112"
         id="rect12088" /></clipPath><clipPath
       id="clipPath12094"><rect
         x="57.599998"
         y="41.472"
         width="357.12"
         height="266.112"
         id="rect12092" /></clipPath><clipPath
       id="clipPath12098"><rect
         x="57.599998"
         y="41.472"
         width="357.12"
         height="266.112"
         id="rect12096" /></clipPath><clipPath
       id="clipPath12102"><rect
         x="57.599998"
         y="41.472"
         width="357.12"
         height="266.112"
         id="rect12100" /></clipPath><clipPath
       id="clipPath12106"><rect
         x="57.599998"
         y="41.472"
         width="357.12"
         height="266.112"
         id="rect12104" /></clipPath><path
       id="m0efe35a3e3"
       d="M 0,0 V 3.5"
       style="stroke:#000000;stroke-width:0.8" /><path
       id="DejaVuSans-30-5"
       d="m 2034,4250 q -487,0 -733,-480 -245,-479 -245,-1442 0,-959 245,-1439 246,-480 733,-480 491,0 736,480 246,480 246,1439 0,963 -246,1442 -245,480 -736,480 z m 0,500 q 785,0 1199,-621 414,-620 414,-1801 0,-1178 -414,-1799 -414,-620 -1199,-620 -784,0 -1198,620 -414,621 -414,1799 0,1181 414,1801 414,621 1198,621 z"
       transform="scale(0.015625)" /><path
       id="DejaVuSans-32-7"
       d="M 1228,531 H 3431 V 0 H 469 v 531 q 359,372 979,998 621,627 780,809 303,340 423,576 121,236 121,464 0,372 -261,606 -261,235 -680,235 -297,0 -627,-103 -329,-103 -704,-313 v 638 q 381,153 712,231 332,78 607,78 725,0 1156,-363 431,-362 431,-968 0,-288 -108,-546 -107,-257 -392,-607 -78,-91 -497,-524 Q 1991,1309 1228,531 Z"
       transform="scale(0.015625)" /><path
       id="DejaVuSans-34-0"
       d="M 2419,4116 825,1625 h 1594 z m -166,550 h 794 V 1625 h 666 V 1100 H 3047 V 0 H 2419 V 1100 H 313 v 609 z"
       transform="scale(0.015625)" /><path
       id="DejaVuSans-36-1"
       d="m 2113,2584 q -425,0 -674,-291 -248,-290 -248,-796 0,-503 248,-796 249,-292 674,-292 425,0 673,292 248,293 248,796 0,506 -248,796 -248,291 -673,291 z m 1253,1979 v -575 q -238,112 -480,171 -242,60 -480,60 -625,0 -955,-422 -329,-422 -376,-1275 184,272 462,417 279,145 613,145 703,0 1111,-427 408,-426 408,-1160 0,-719 -425,-1154 -425,-434 -1131,-434 -810,0 -1238,620 -428,621 -428,1799 0,1106 525,1764 525,658 1409,658 238,0 480,-47 242,-47 505,-140 z"
       transform="scale(0.015625)" /><path
       id="DejaVuSans-38-7"
       d="m 2034,2216 q -450,0 -708,-241 -257,-241 -257,-662 0,-422 257,-663 258,-241 708,-241 450,0 709,242 260,243 260,662 0,421 -258,662 -257,241 -711,241 z m -631,268 q -406,100 -633,378 -226,279 -226,679 0,559 398,884 399,325 1092,325 697,0 1094,-325 397,-325 397,-884 0,-400 -227,-679 -226,-278 -629,-378 456,-106 710,-416 255,-309 255,-755 Q 3634,634 3220,271 2806,-91 2034,-91 1263,-91 848,271 434,634 434,1313 q 0,446 256,755 257,310 713,416 z m -231,997 q 0,-362 226,-565 227,-203 636,-203 407,0 636,203 230,203 230,565 0,363 -230,566 -229,203 -636,203 -409,0 -636,-203 -226,-203 -226,-566 z"
       transform="scale(0.015625)" /><path
       id="DejaVuSans-43-3"
       d="m 4122,4306 v -665 q -319,297 -680,443 -361,147 -767,147 -800,0 -1225,-489 -425,-489 -425,-1414 0,-922 425,-1411 425,-489 1225,-489 406,0 767,147 361,147 680,444 V 359 Q 3791,134 3420,21 3050,-91 2638,-91 1578,-91 968,557 359,1206 359,2328 q 0,1125 609,1773 610,649 1670,649 418,0 788,-111 371,-111 696,-333 z"
       transform="scale(0.015625)" /><path
       id="DejaVuSans-6f"
       d="m 1959,3097 q -462,0 -731,-361 -269,-361 -269,-989 0,-628 267,-989 268,-361 733,-361 460,0 728,362 269,363 269,988 0,622 -269,986 -268,364 -728,364 z m 0,487 q 750,0 1178,-488 429,-487 429,-1349 Q 3566,888 3137,398 2709,-91 1959,-91 1206,-91 779,398 353,888 353,1747 q 0,862 426,1349 427,488 1180,488 z"
       transform="scale(0.015625)" /><path
       id="DejaVuSans-6e-9"
       d="M 3513,2113 V 0 h -575 v 2094 q 0,497 -194,743 -194,247 -581,247 -466,0 -735,-297 -269,-296 -269,-809 V 0 H 581 v 3500 h 578 v -544 q 207,316 486,472 280,156 646,156 603,0 912,-373 310,-373 310,-1098 z"
       transform="scale(0.015625)" /><path
       id="DejaVuSans-73"
       d="m 2834,3397 v -544 q -243,125 -506,187 -262,63 -544,63 -428,0 -642,-131 -214,-131 -214,-394 0,-200 153,-314 153,-114 616,-217 l 197,-44 q 612,-131 870,-370 258,-239 258,-667 0,-488 -386,-773 Q 2250,-91 1575,-91 1294,-91 989,-36 684,19 347,128 v 594 q 319,-166 628,-249 309,-82 613,-82 406,0 624,139 219,139 219,392 0,234 -158,359 -157,125 -692,241 l -200,47 q -534,112 -772,345 -237,233 -237,639 0,494 350,762 350,269 994,269 318,0 599,-47 282,-46 519,-140 z"
       transform="scale(0.015625)" /><path
       id="DejaVuSans-75"
       d="m 544,1381 v 2119 h 575 V 1403 q 0,-497 193,-746 194,-248 582,-248 465,0 735,297 271,297 271,810 v 1984 h 575 V 0 H 2900 V 538 Q 2691,219 2414,64 2138,-91 1772,-91 1169,-91 856,284 544,659 544,1381 Z m 1447,2203 z"
       transform="scale(0.015625)" /><path
       id="DejaVuSans-6d-3"
       d="m 3328,2828 q 216,388 516,572 300,184 706,184 547,0 844,-383 297,-382 297,-1088 V 0 h -578 v 2094 q 0,503 -179,746 -178,244 -543,244 -447,0 -707,-297 -259,-296 -259,-809 V 0 h -578 v 2094 q 0,506 -178,748 -178,242 -550,242 -441,0 -701,-298 -259,-298 -259,-808 V 0 H 581 v 3500 h 578 v -544 q 197,322 472,475 275,153 653,153 382,0 649,-194 267,-193 395,-562 z"
       transform="scale(0.015625)" /><path
       id="DejaVuSans-65-9"
       d="M 3597,1894 V 1613 H 953 q 38,-594 358,-905 320,-311 892,-311 331,0 642,81 311,81 618,244 V 178 Q 3153,47 2828,-22 2503,-91 2169,-91 1331,-91 842,396 353,884 353,1716 q 0,859 464,1363 464,505 1252,505 706,0 1117,-455 411,-454 411,-1235 z m -575,169 q -6,471 -264,752 -258,282 -683,282 -481,0 -770,-272 -289,-272 -333,-766 z"
       transform="scale(0.015625)" /><path
       id="DejaVuSans-72"
       d="m 2631,2963 q -97,56 -211,82 -114,27 -251,27 -488,0 -749,-317 -261,-317 -261,-911 V 0 H 581 v 3500 h 578 v -544 q 182,319 472,473 291,155 707,155 59,0 131,-8 72,-7 159,-23 z"
       transform="scale(0.015625)" /><path
       id="DejaVuSans-20-3"
       transform="scale(0.015625)"
       d="" /><path
       id="DejaVuSans-68"
       d="M 3513,2113 V 0 h -575 v 2094 q 0,497 -194,743 -194,247 -581,247 -466,0 -735,-297 -269,-296 -269,-809 V 0 H 581 v 4863 h 578 V 2956 q 207,316 486,472 280,156 646,156 603,0 912,-373 310,-373 310,-1098 z"
       transform="scale(0.015625)" /><path
       id="DejaVuSans-61-8"
       d="m 2194,1759 q -697,0 -966,-159 -269,-159 -269,-544 0,-306 202,-486 202,-179 548,-179 479,0 768,339 289,339 289,901 v 128 z m 1147,238 V 0 H 2766 V 531 Q 2569,213 2275,61 1981,-91 1556,-91 q -537,0 -855,302 -317,302 -317,808 0,590 395,890 396,300 1180,300 h 807 v 57 q 0,397 -261,614 -261,217 -733,217 -300,0 -585,-72 -284,-72 -546,-216 v 532 q 315,122 612,182 297,61 578,61 760,0 1135,-394 375,-393 375,-1193 z"
       transform="scale(0.015625)" /><path
       id="DejaVuSans-74-8"
       d="M 1172,4494 V 3500 H 2356 V 3053 H 1172 V 1153 q 0,-428 117,-550 117,-122 477,-122 h 590 V 0 H 1766 Q 1100,0 847,248 594,497 594,1153 V 3053 H 172 v 447 h 422 v 994 z"
       transform="scale(0.015625)" /><path
       id="DejaVuSans-64-7"
       d="m 2906,2969 v 1894 h 575 V 0 H 2906 V 525 Q 2725,213 2448,61 2172,-91 1784,-91 1150,-91 751,415 353,922 353,1747 q 0,825 398,1331 399,506 1033,506 388,0 664,-152 277,-151 458,-463 z M 947,1747 q 0,-634 261,-995 261,-361 717,-361 456,0 718,361 263,361 263,995 0,634 -263,995 -262,361 -718,361 -456,0 -717,-361 -261,-361 -261,-995 z"
       transform="scale(0.015625)" /><path
       id="DejaVuSans-69-4"
       d="m 603,3500 h 575 V 0 H 603 Z m 0,1363 h 575 V 4134 H 603 Z"
       transform="scale(0.015625)" /><path
       id="DejaVuSans-57"
       d="m 213,4666 h 637 l 981,-3944 978,3944 h 710 l 981,-3944 978,3944 h 641 L 4947,0 H 4153 L 3169,4050 2175,0 h -794 z"
       transform="scale(0.015625)" /><path
       id="mf6e638c570"
       d="M 0,0 H -3.5"
       style="stroke:#000000;stroke-width:0.8" /><path
       id="DejaVuSans-35-7"
       d="M 691,4666 H 3169 V 4134 H 1269 V 2991 q 137,47 274,70 138,23 276,23 781,0 1237,-428 457,-428 457,-1159 Q 3513,744 3044,326 2575,-91 1722,-91 1428,-91 1123,-41 819,9 494,109 v 635 q 281,-153 581,-228 300,-75 634,-75 541,0 856,284 316,284 316,772 0,487 -316,771 -315,285 -856,285 -253,0 -505,-56 -251,-56 -513,-175 z"
       transform="scale(0.015625)" /><path
       id="DejaVuSans-31-1"
       d="M 794,531 H 1825 V 4091 L 703,3866 v 575 l 1116,225 h 631 V 531 H 3481 V 0 H 794 Z"
       transform="scale(0.015625)" /><path
       id="DejaVuSans-70"
       d="M 1159,525 V -1331 H 581 v 4831 h 578 v -531 q 182,312 458,463 277,152 661,152 638,0 1036,-506 399,-506 399,-1331 0,-825 -399,-1332 -398,-506 -1036,-506 -384,0 -661,152 -276,152 -458,464 z m 1957,1222 q 0,634 -261,995 -261,361 -717,361 -457,0 -718,-361 -261,-361 -261,-995 0,-634 261,-995 261,-361 718,-361 456,0 717,361 261,361 261,995 z"
       transform="scale(0.015625)" /><path
       id="DejaVuSans-77"
       d="m 269,3500 h 575 l 719,-2731 715,2731 h 678 l 719,-2731 716,2731 h 575 L 4050,0 H 3372 L 2619,2869 1863,0 h -679 z"
       transform="scale(0.015625)" /><path
       id="DejaVuSans-Oblique-54-6"
       d="M 378,4666 H 4325 L 4225,4134 H 2559 L 1759,0 h -634 l 800,4134 H 275 Z"
       transform="scale(0.015625)" /><path
       id="DejaVuSans-62"
       d="m 3116,1747 q 0,634 -261,995 -261,361 -717,361 -457,0 -718,-361 -261,-361 -261,-995 0,-634 261,-995 261,-361 718,-361 456,0 717,361 261,361 261,995 z M 1159,2969 q 182,312 458,463 277,152 661,152 638,0 1036,-506 399,-506 399,-1331 Q 3713,922 3314,415 2916,-91 2278,-91 1894,-91 1617,61 1341,213 1159,525 V 0 H 581 v 4863 h 578 z"
       transform="scale(0.015625)" /><path
       id="DejaVuSans-3d-5"
       d="M 678,2906 H 4684 V 2381 H 678 Z m 0,-1275 H 4684 V 1100 H 678 Z"
       transform="scale(0.015625)" /><path
       id="DejaVuSans-2d"
       d="M 313,2009 H 1997 V 1497 H 313 Z"
       transform="scale(0.015625)" /><path
       id="DejaVuSans-b0-4"
       d="m 1600,4347 q -250,0 -422,-174 -172,-173 -172,-423 0,-247 172,-417 172,-170 422,-170 250,0 422,170 172,170 172,417 0,247 -174,422 -173,175 -420,175 z m 0,403 q 200,0 384,-77 185,-76 319,-220 144,-140 216,-319 72,-178 72,-384 0,-412 -289,-698 -289,-286 -708,-286 -422,0 -704,281 -281,281 -281,703 0,419 287,709 288,291 704,291 z"
       transform="scale(0.015625)" /><style
       id="style2"
       type="text/css"><![CDATA[
    .str0 {stroke:#2B2A29;stroke-width:23.4335}
    .fil4 {fill:black}
    .fil0 {fill:#0075BB}
    .fil1 {fill:#6898D1}
    .fil8 {fill:#819459}
    .fil9 {fill:#A4B085}
    .fil2 {fill:#ACC2E6}
    .fil14 {fill:#B33F3D}
    .fil15 {fill:#C77A6D}
    .fil10 {fill:#CBD0B7}
    .fil16 {fill:#DFB4A8}
    .fil11 {fill:#EAB818}
    .fil12 {fill:#F1CD68}
    .fil13 {fill:#F7E2AC}
    .fil5 {fill:#6B6B6B}
    .fil7 {fill:#7D7D7D}
    .fil6 {fill:#B2B3B3}
    .fil3 {fill:#FEFEFE}
   ]]></style></defs><sodipodi:namedview
     inkscape:window-maximized="1"
     inkscape:window-y="-9"
     inkscape:window-x="2391"
     inkscape:window-height="1271"
     inkscape:window-width="2400"
     inkscape:snap-to-guides="false"
     inkscape:guide-bbox="true"
     showguides="true"
     inkscape:bbox-nodes="false"
     inkscape:snap-grids="true"
     inkscape:snap-bbox="true"
     inkscape:snap-nodes="true"
     inkscape:object-paths="true"
     inkscape:snap-center="true"
     showgrid="true"
     inkscape:document-rotation="0"
     inkscape:current-layer="layer1"
     inkscape:document-units="mm"
     inkscape:cy="501.33871"
     inkscape:cx="1059.246"
     inkscape:zoom="0.70710678"
     inkscape:pageshadow="2"
     inkscape:pageopacity="0.0"
     borderopacity="1.0"
     bordercolor="#666666"
     pagecolor="#ffffff"
     id="base"
     fit-margin-top="5"
     fit-margin-left="5"
     fit-margin-right="5"
     fit-margin-bottom="5"
     inkscape:pagecheckerboard="0"
     inkscape:snap-intersection-paths="true"
     inkscape:bbox-paths="false"
     inkscape:lockguides="true"
     inkscape:showpageshadow="2"
     inkscape:deskcolor="#d1d1d1"><inkscape:grid
       spacingy="1"
       spacingx="1"
       units="cm"
       dotted="true"
       enabled="true"
       id="grid835"
       type="xygrid"
       originx="85.322007"
       originy="-14.677999" /><sodipodi:guide
       position="9.9999851,-3.5291526"
       orientation="1,0"
       id="guide4057"
       inkscape:locked="true" /><sodipodi:guide
       position="89.999994,26.470847"
       orientation="1,0"
       id="guide4059"
       inkscape:locked="true" /><sodipodi:guide
       position="4.9999846,-78.529151"
       orientation="0,-1"
       id="guide4111"
       inkscape:locked="true" /><sodipodi:guide
       position="-5.0000166,1.4708473"
       orientation="0,-1"
       id="guide4113"
       inkscape:locked="true" /></sodipodi:namedview><metadata
     id="metadata5"><rdf:RDF><cc:Work
         rdf:about=""><dc:format>image/svg+xml</dc:format><dc:type
           rdf:resource="http://purl.org/dc/dcmitype/StillImage" /></cc:Work></rdf:RDF></metadata><g
     id="layer1"
     inkscape:groupmode="layer"
     inkscape:label="Ebene 1"
     transform="translate(85.322008,-14.678003)"><path
       inkscape:connector-curvature="0"
       sodipodi:nodetypes="cc"
       style="fill:none;stroke:#646464;stroke-width:5;stroke-linecap:square;stroke-linejoin:round;stroke-miterlimit:4;stroke-dasharray:none;stroke-opacity:1"
       d="M -80.000021,30.000005 H 149.99998"
       id="path984-0-9-9-9-7-6-8" /><path
       inkscape:connector-curvature="0"
       sodipodi:nodetypes="cc"
       style="fill:none;stroke:#646464;stroke-width:1.5;stroke-linecap:square;stroke-linejoin:round;stroke-miterlimit:4;stroke-dasharray:none;stroke-opacity:1;marker-end:url(#TriangleStart_Fnone_S-646464)"
       d="m 99.99998,35.000005 v 20"
       id="path984-0-9-9-9-7-6-8-2" /><path
       inkscape:connector-curvature="0"
       sodipodi:nodetypes="cc"
       style="fill:none;stroke:#646464;stroke-width:1.5;stroke-linecap:square;stroke-linejoin:round;stroke-miterlimit:4;stroke-dasharray:none;stroke-opacity:1;marker-end:url(#TriangleStart_Fnone_S-646464)"
       d="m -30.000021,60.000005 v -20"
       id="path984-0-9-9-9-7-6-8-2-4" /><path
       inkscape:connector-curvature="0"
       sodipodi:nodetypes="cc"
       style="fill:none;fill-opacity:1;stroke:#ff6e17;stroke-width:1.5;stroke-linecap:square;stroke-linejoin:round;stroke-miterlimit:4;stroke-dasharray:none;stroke-opacity:1;marker-end:url(#marker1610_Fnone_S-ff6e17)"
       d="m 99.99998,150 v 20"
       id="path984-0-9-9-9-7-6-8-2-0" /><path
       inkscape:connector-curvature="0"
       sodipodi:nodetypes="cc"
       style="fill:none;fill-opacity:1;stroke:#ff6e17;stroke-width:1.5;stroke-linecap:square;stroke-linejoin:round;stroke-miterlimit:4;stroke-dasharray:none;stroke-opacity:1;marker-end:url(#marker1610_Fnone_S-ff6e17)"
       d="m 219.99997,150 v 20"
       id="path984-0-9-9-9-7-6-8-2-0-8" /><path
       inkscape:connector-curvature="0"
       sodipodi:nodetypes="cc"
       style="fill:none;fill-opacity:1;stroke:#ff6e17;stroke-width:1.5;stroke-linecap:square;stroke-linejoin:round;stroke-miterlimit:4;stroke-dasharray:none;stroke-opacity:1;marker-end:url(#marker1610_Fnone_S-ff6e17)"
       d="m 239.99997,174.57661 v -20"
       id="path984-0-9-9-9-7-6-8-2-0-4" /><path
       inkscape:connector-curvature="0"
       sodipodi:nodetypes="cc"
       style="fill:none;stroke:#ff6e17;stroke-width:5;stroke-linecap:square;stroke-linejoin:round;stroke-miterlimit:4;stroke-dasharray:none;stroke-opacity:1;marker-end:"
       d="M 49.999979,180 H 409.99998"
       id="path984-0-9-9-9-7-6-8-3" /><rect
       style="opacity:0.99;fill:none;stroke:#000000;stroke-width:1;stroke-linecap:square;stroke-dasharray:none;stroke-opacity:1"
       id="rect1757"
       width="80"
       height="80"
       x="59.999977"
       y="65.000008"
       rx="0"
       ry="0" /><rect
       style="opacity:0.99;fill:none;stroke:#000000;stroke-width:1;stroke-linecap:square;stroke-dasharray:none;stroke-opacity:1"
       id="rect1757-2"
       width="80"
       height="80"
       x="189.99998"
       y="65.000008"
       rx="0"
       ry="0" /><path
       inkscape:connector-curvature="0"
       sodipodi:nodetypes="cc"
       style="fill:none;fill-opacity:1;stroke:#ff6e17;stroke-width:1.5;stroke-linecap:square;stroke-linejoin:round;stroke-miterlimit:4;stroke-dasharray:none;stroke-opacity:1;marker-end:url(#marker1610_Fnone_S-ff6e17)"
       d="m 359.99998,175.00001 v -20"
       id="path984-0-9-9-9-7-6-8-2-0-8-6" /><text
       xml:space="preserve"
       style="font-size:4.9389px;font-family:sans-serif;-inkscape-font-specification:sans-serif;text-align:center;text-anchor:middle;opacity:0.99;fill:#db8f41;stroke:#ff0000;stroke-width:4.99999;stroke-linecap:square;stroke-dasharray:none;stroke-opacity:1"
       x="79.999977"
       y="90.000008"
       id="text1813"><tspan
         sodipodi:role="line"
         id="tspan1811"
         style="stroke-width:5;stroke-linecap:square"
         x="79.999977"
         y="90.000008" /></text><text
       xml:space="preserve"
       style="font-size:4.9389px;font-family:sans-serif;-inkscape-font-specification:sans-serif;text-align:center;text-anchor:middle;opacity:0.99;fill:#db8f41;stroke:#000000;stroke-width:1;stroke-linecap:square;stroke-dasharray:none;stroke-opacity:1"
       x="74.999977"
       y="95.000008"
       id="text1869"><tspan
         sodipodi:role="line"
         id="tspan1867"
         style="stroke-width:1;stroke-linecap:square"
         x="74.999977"
         y="95.000008" /></text><text
       inkscape:export-ydpi="1012"
       inkscape:export-xdpi="1012"
       xml:space="preserve"
       style="font-size:9.8778px;line-height:1.25;font-family:sans-serif;text-align:center;text-anchor:middle;stroke-width:0.529166;stroke-linecap:square;stroke-linejoin:round"
       x="65"
       y="45.000004"
       id="text1297-0-9-8-6-9-4-7-6-7-8-6-9-5-0"><tspan
         sodipodi:role="line"
         x="65"
         y="45.000004"
         style="text-align:center;text-anchor:middle;stroke-width:0.529166;stroke-linecap:square;stroke-linejoin:round"
         id="tspan4327">air source</tspan><tspan
         sodipodi:role="line"
         x="65"
         y="57.347252"
         style="text-align:center;text-anchor:middle;stroke-width:0.529166;stroke-linecap:square;stroke-linejoin:round"
         id="tspan1935">heat pump</tspan></text><text
       inkscape:export-ydpi="1012"
       inkscape:export-xdpi="1012"
       xml:space="preserve"
       style="font-size:9.8778px;line-height:1.25;font-family:sans-serif;text-align:center;text-anchor:middle;stroke-width:0.529166;stroke-linecap:square;stroke-linejoin:round"
       x="-55"
       y="60.000004"
       id="text1297-0-9-8-6-9-4-7-6-7-8-6-9-5-0-04"><tspan
         sodipodi:role="line"
         x="-55"
         y="60.000004"
         style="text-align:center;text-anchor:middle;stroke-width:0.529166;stroke-linecap:square;stroke-linejoin:round"
         id="tspan1935-2">grid</tspan></text><text
       inkscape:export-ydpi="1012"
       inkscape:export-xdpi="1012"
       xml:space="preserve"
       style="font-size:9.8778px;line-height:1.25;font-family:sans-serif;text-align:center;text-anchor:middle;stroke-width:0.529166;stroke-linecap:square;stroke-linejoin:round"
       x="-55.000019"
       y="25.000006"
       id="text1297-0-9-8-6-9-4-7-6-7-8-6-9-5-0-03"><tspan
         sodipodi:role="line"
         x="-55.000019"
         y="25.000006"
         style="text-align:center;text-anchor:middle;stroke-width:0.529166;stroke-linecap:square;stroke-linejoin:round"
         id="tspan1935-7">electricity</tspan></text><text
       inkscape:export-ydpi="1012"
       inkscape:export-xdpi="1012"
       xml:space="preserve"
       style="font-size:9.8778px;line-height:1.25;font-family:sans-serif;text-align:center;text-anchor:middle;stroke-width:0.529166;stroke-linecap:square;stroke-linejoin:round"
       x="59.999977"
       y="195"
       id="text1297-0-9-8-6-9-4-7-6-7-8-6-9-5-0-03-7"><tspan
         sodipodi:role="line"
         x="59.999977"
         y="195"
         style="text-align:center;text-anchor:middle;stroke-width:0.529166;stroke-linecap:square;stroke-linejoin:round"
         id="tspan1935-7-50">heat</tspan></text><text
       inkscape:export-ydpi="1012"
       inkscape:export-xdpi="1012"
       xml:space="preserve"
       style="font-size:9.8778px;line-height:1.25;font-family:sans-serif;text-align:center;text-anchor:middle;stroke-width:0.529166;stroke-linecap:square;stroke-linejoin:round"
       x="230"
       y="45.000004"
       id="text1297-0-9-8-6-9-4-7-6-7-8-6-9-5-0-0"><tspan
         sodipodi:role="line"
         x="230"
         y="45.000004"
         style="text-align:center;text-anchor:middle;stroke-width:0.529166;stroke-linecap:square;stroke-linejoin:round"
         id="tspan1935-3">hot water</tspan><tspan
         sodipodi:role="line"
         x="230"
         y="57.347256"
         style="text-align:center;text-anchor:middle;stroke-width:0.529166;stroke-linecap:square;stroke-linejoin:round"
         id="tspan5537">energy storage</tspan></text><rect
       style="opacity:0.99;fill:none;stroke:#000000;stroke-width:1;stroke-linecap:square;stroke-dasharray:none;stroke-opacity:1"
       id="rect1757-2-6"
       width="80"
       height="80"
       x="319.99997"
       y="65.000008"
       rx="0"
       ry="0" /><text
       inkscape:export-ydpi="1012"
       inkscape:export-xdpi="1012"
       xml:space="preserve"
       style="font-size:9.8778px;line-height:1.25;font-family:sans-serif;text-align:center;text-anchor:middle;stroke-width:0.529166;stroke-linecap:square;stroke-linejoin:round"
       x="359.99997"
       y="60.000004"
       id="text1297-0-9-8-6-9-4-7-6-7-8-6-9-5-0-0-0"><tspan
         sodipodi:role="line"
         x="359.99997"
         y="60.000004"
         style="text-align:center;text-anchor:middle;stroke-width:0.529166;stroke-linecap:square;stroke-linejoin:round"
         id="tspan5537-3">heat demand</tspan></text><rect
       style="opacity:0.99;fill:none;stroke:#000000;stroke-width:1;stroke-linecap:square;stroke-dasharray:none;stroke-opacity:1"
       id="rect1757-2-6-1"
       width="80"
       height="80"
       x="-70.000023"
       y="65.000008"
       rx="0"
       ry="0" /><text
       inkscape:export-ydpi="1012"
       inkscape:export-xdpi="1012"
       xml:space="preserve"
       style="font-size:9.8778px;line-height:1.25;font-family:sans-serif;text-align:start;text-anchor:start;stroke-width:0.529166;stroke-linecap:square;stroke-linejoin:round"
       x="65"
       y="125.00001"
       id="text1297-0-9-8-6-9-4-7-6-7-8-6-9-5-0-6"><tspan
         sodipodi:role="line"
         x="65"
         y="125.00001"
         style="text-align:start;text-anchor:start;stroke-width:0.529166;stroke-linecap:square;stroke-linejoin:round"
         id="tspan6453">- COP</tspan><tspan
         sodipodi:role="line"
         x="65"
         y="137.34726"
         style="text-align:start;text-anchor:start;stroke-width:0.529166;stroke-linecap:square;stroke-linejoin:round"
         id="tspan6447">- Q<tspan
   style="font-size:65%;text-align:start;baseline-shift:sub;text-anchor:start"
   id="tspan6457">nom</tspan></tspan></text><text
       inkscape:export-ydpi="1012"
       inkscape:export-xdpi="1012"
       xml:space="preserve"
       style="font-size:9.8778px;line-height:1.25;font-family:sans-serif;text-align:start;text-anchor:start;stroke-width:0.529166;stroke-linecap:square;stroke-linejoin:round"
       x="-65"
       y="140"
       id="text1297-0-9-8-6-9-4-7-6-7-8-6-9-5-0-6-6"><tspan
         sodipodi:role="line"
         x="-65"
         y="140"
         style="text-align:start;text-anchor:start;stroke-width:0.529166;stroke-linecap:square;stroke-linejoin:round"
         id="tspan6447-7">-price</tspan></text><text
       inkscape:export-ydpi="1012"
       inkscape:export-xdpi="1012"
       xml:space="preserve"
       style="font-size:9.8778px;line-height:1.25;font-family:sans-serif;text-align:start;text-anchor:start;white-space:pre;inline-size:0;stroke-width:0.529166;stroke-linecap:square;stroke-linejoin:round"
       x="195"
       y="135"
       id="text1297-0-9-8-6-9-4-7-6-7-8-6-9-5-0-6-37"
       transform="translate(-1.0000023e-6,-22.34724)"><tspan
         sodipodi:role="line"
         id="tspan8717"
         x="195"
         y="147.34724"><tspan
           x="195"
           y="147.34724"
           style="text-align:start;text-anchor:start;stroke-width:0.529166;stroke-linecap:square;stroke-linejoin:round"
           id="tspan6498">- losses</tspan></tspan><tspan
         sodipodi:role="line"
         id="tspan8719"
         x="195"
         y="159.69449">- capacity</tspan></text><text
       inkscape:export-ydpi="1012"
       inkscape:export-xdpi="1012"
       xml:space="preserve"
       style="font-size:9.8778px;line-height:1.25;font-family:sans-serif;text-align:start;text-anchor:start;white-space:pre;inline-size:0;stroke-width:0.529166;stroke-linecap:square;stroke-linejoin:round"
       x="195"
       y="135"
       id="text1297-0-9-8-6-9-4-7-6-7-8-6-9-5-0-6-37-5"
       transform="translate(130,5.000004)"><tspan
         sodipodi:role="line"
         id="tspan8719-1"
         x="195"
         y="135">- timeseries</tspan></text><text
       inkscape:export-ydpi="1012"
       inkscape:export-xdpi="1012"
       xml:space="preserve"
       style="font-size:9.8778px;line-height:1.25;font-family:sans-serif;text-align:center;text-anchor:middle;stroke-width:0.529166;stroke-linecap:square;stroke-linejoin:round"
       x="129.99998"
       y="165"
       id="text1297-0-9-8-6-9-4-7-6-7-8-6-9-5-0-6-3"><tspan
         sodipodi:role="line"
         x="129.99998"
         y="165"
         style="text-align:center;text-anchor:middle;stroke-width:0.529166;stroke-linecap:square;stroke-linejoin:round"
         id="tspan1935-7-5" /></text><g
       id="figure_1"
       style="fill:none;fill-opacity:1;stroke:#ff6e17;stroke-width:2.83465;stroke-linecap:butt;stroke-linejoin:round;stroke-dasharray:none;stroke-opacity:1"
       transform="matrix(0.35277777,0,0,0.35277777,-218.31202,237.87296)"><g
         id="patch_1"
         style="fill:none;fill-opacity:1;stroke:#ff6e17;stroke-width:2.83465;stroke-linecap:butt;stroke-linejoin:round;stroke-dasharray:none;stroke-opacity:1" /><g
         id="axes_1"
         style="fill:none;fill-opacity:1;stroke:#ff6e17;stroke-width:2.83465;stroke-linecap:butt;stroke-linejoin:round;stroke-dasharray:none;stroke-opacity:1"><g
           id="line2d_1"
           style="fill:none;fill-opacity:1;stroke:#ff6e17;stroke-width:4.65847;stroke-linecap:butt;stroke-linejoin:round;stroke-dasharray:none;stroke-opacity:1"
           transform="matrix(0.60849328,0,0,0.60849328,1493.6546,-445.98305)"><path
             d="m 73.832727,295.488 h 4.5726 l 4.572599,-7.97539 4.572599,-2.65846 4.572599,-5.31692 4.572599,-7.97538 4.572597,-2.65846 4.5726,-10.63385 4.5726,-15.95077 4.5726,-7.97539 4.5726,2.65847 4.5726,5.31692 h 4.5726 l 4.5726,2.65846 4.5726,2.65846 4.5726,-10.63384 4.57259,-39.87693 4.5726,-13.29231 4.5726,-2.65846 4.5726,5.31693 4.5726,5.31692 4.5726,37.21846 4.5726,23.92615 4.5726,18.60924 4.5726,10.63384 4.5726,-10.63384 4.5726,-13.29231 4.5726,-15.95077 4.5726,-10.63385 4.57259,-7.97538 4.5726,-15.95077 4.5726,-10.63385 4.5726,-7.97538 4.5726,-13.29231 4.5726,-13.29231 4.5726,-5.31692 4.5726,-7.97539 4.5726,-7.97538 4.5726,-5.31692 4.5726,-2.65846 h 4.5726 4.5726 l 4.57259,-5.31693 4.5726,-7.97538 4.5726,-5.31692 4.5726,-10.63385 h 4.5726 l 4.5726,-2.65846 4.5726,-15.950772 4.5726,-13.292307 4.5726,-13.292308 4.5726,-2.658461 4.5726,7.975384 4.5726,2.658462 4.5726,-13.292308 4.5726,5.316923 4.57259,7.975385 4.5726,15.950769 4.5726,18.609233 4.5726,18.60923 4.5726,5.31692 4.5726,-5.31692 4.5726,2.65846 h 4.5726 l 4.5726,-15.95077 4.5726,-10.633845 4.5726,-5.316923 4.5726,2.658461 4.57259,2.658462 h 4.5726 l 4.5726,5.316925 4.5726,5.31692"
             clip-path="url(#p7803e5a399)"
             style="fill:none;fill-opacity:1;stroke:#ff6e17;stroke-width:4.65847;stroke-linecap:square;stroke-linejoin:round;stroke-dasharray:none;stroke-opacity:1"
             id="path8092"
             transform="translate(0,-94.446717)" /></g></g></g><text
       xml:space="preserve"
       style="font-size:4.9389px;font-family:sans-serif;-inkscape-font-specification:sans-serif;text-align:start;text-anchor:start;opacity:0.99;fill:none;fill-opacity:1;stroke:#ff0000;stroke-width:0.644001;stroke-linecap:square;stroke-dasharray:none;stroke-dashoffset:0;stroke-opacity:1"
       x="39.999981"
       y="225"
       id="text14255"><tspan
         sodipodi:role="line"
         id="tspan14253"
         style="stroke-width:0.644"
         x="39.999981"
         y="225" /></text><path
       inkscape:connector-curvature="0"
       style="color:#000000;font-style:normal;font-variant:normal;font-weight:normal;font-stretch:normal;font-size:medium;line-height:normal;font-family:sans-serif;font-variant-ligatures:normal;font-variant-position:normal;font-variant-caps:normal;font-variant-numeric:normal;font-variant-alternates:normal;font-feature-settings:normal;text-indent:0;text-align:start;text-decoration:none;text-decoration-line:none;text-decoration-style:solid;text-decoration-color:#000000;letter-spacing:normal;word-spacing:normal;text-transform:none;writing-mode:lr-tb;direction:ltr;text-orientation:mixed;dominant-baseline:auto;baseline-shift:baseline;text-anchor:start;white-space:normal;shape-padding:0;clip-rule:nonzero;display:inline;overflow:visible;visibility:visible;isolation:auto;mix-blend-mode:normal;color-interpolation:sRGB;color-interpolation-filters:linearRGB;solid-color:#000000;solid-opacity:1;fill:#000000;fill-opacity:1;fill-rule:nonzero;stroke:none;stroke-width:1.5;stroke-linecap:round;stroke-linejoin:round;stroke-miterlimit:9.5;stroke-dasharray:none;stroke-dashoffset:0;stroke-opacity:1;paint-order:normal;color-rendering:auto;image-rendering:auto;shape-rendering:auto;text-rendering:auto;enable-background:accumulate"
       d="m -30.023631,70.160856 a 0.99780756,1.2099086 0 0 0 -0.963918,0.822305 l -4.869024,17.450511 -11.881557,9.038773 a 0.99780756,1.2099086 0 0 0 0.548219,2.23683 l 11.086506,-0.2457 -1.566713,10.913275 a 0.99780756,1.2099086 0 0 0 0,0.003 l -2.43711,17.18903 a 0.99781373,1.2099161 0 0 0 -0.0026,0.0125 0.99797485,1.2101114 0 0 0 -0.005,0.0549 0.99781373,1.2099161 0 0 0 -0.005,0.0915 0.99781373,1.2099161 0 0 0 0,0.0817 0.99797485,1.2101114 0 0 0 0.0081,0.12315 0.99797485,1.2101114 0 0 0 0.0181,0.11953 0.99797485,1.2101114 0 0 0 0.02061,0.0945 0.99781373,1.2099161 0 0 0 0.01056,0.0366 0.99797485,1.2101114 0 0 0 0.01558,0.0488 0.99781373,1.2099161 0 0 0 0.02061,0.061 0.99797485,1.2101114 0 0 0 0.03369,0.0787 0.99781373,1.2099161 0 0 0 0.01306,0.0243 0.99797485,1.2101114 0 0 0 0.04172,0.0787 0.99781373,1.2099161 0 0 0 0.01056,0.0183 0.99797485,1.2101114 0 0 0 0.05198,0.0787 0.99781373,1.2099161 0 0 0 0.01306,0.0182 0.99797485,1.2101114 0 0 0 0.01558,0.0243 0.99781373,1.2099161 0 0 0 0.05973,0.0664 0.99797485,1.2101114 0 0 0 0.05194,0.0549 0.99781373,1.2099161 0 0 0 0.0181,0.0182 0.99797485,1.2101114 0 0 0 0.07793,0.061 0.99781373,1.2099161 0 0 0 0.0026,0.003 0.99797485,1.2101114 0 0 0 0.02614,0.0182 0.99781373,1.2099161 0 0 0 0.06235,0.0366 0.99797485,1.2101114 0 0 0 0.02614,0.0182 0.99781373,1.2099161 0 0 0 0.07275,0.0366 0.99797485,1.2101114 0 0 0 0.08834,0.0304 0.99797485,1.2101114 0 0 0 0.09874,0.0243 0.99797485,1.2101114 0 0 0 0.07014,0.0125 0.99781373,1.2099161 0 0 0 0.04676,0.003 0.99797485,1.2101114 0 0 0 0.01056,0 0.99781373,1.2099161 0 0 0 0.07014,-0.003 0.99797485,1.2101114 0 0 0 0.197441,-0.0366 0.99781373,1.2099161 0 0 0 0.02866,-0.0125 0.99797485,1.2101114 0 0 0 0.06497,-0.0243 0.99781373,1.2099161 0 0 0 0.0081,-0.003 0.99797485,1.2101114 0 0 0 0.07793,-0.0427 0.99797485,1.2101114 0 0 0 0.0081,-0.006 0.99781373,1.2099161 0 0 0 0.02614,-0.0182 0.99797485,1.2101114 0 0 0 0.05972,-0.0427 0.99781373,1.2099161 0 0 0 0.005,-0.003 0.99797485,1.2101114 0 0 0 0.06235,-0.0549 0.99781373,1.2099161 0 0 0 0.03871,-0.0366 0.99797485,1.2101114 0 0 0 0.03118,-0.0366 l 0.0081,-0.0125 a 0.99781373,1.2099161 0 0 0 0.01558,-0.0182 l 8.753352,-9.51448 8.584437,9.26244 a 0.99780756,1.2099086 0 0 0 1.707014,-0.18288 0.99780756,1.2099086 0 0 0 0.04424,-0.98931 0.99780756,1.2099086 0 0 0 -0.0026,-0.006 l -4.287079,-27.536375 11.221611,-0.2457 a 0.99780756,1.2099086 0 0 0 0.498864,-2.24311 l -11.884162,-8.777146 -5.305519,-17.4663 a 0.99780756,1.2099086 0 0 0 -0.919765,-0.790795 z m 0.02363,4.839148 4.188299,13.786541 -4.099956,3.582103 -3.936273,-3.578934 z m 5.43023,15.680016 8.683183,6.414365 -8.623413,0.189 -3.731012,-3.393107 z m -10.507099,0.01835 3.46859,3.156801 -3.63488,3.172514 -8.394774,0.1829 z m 5.139235,4.678501 3.499773,3.181964 -3.291919,3.377325 -3.55953,-3.629345 z m -4.289625,5.135239 2.951551,3.01189 -3.967451,4.07044 z m 8.727348,0.25546 1.01589,6.52149 -3.697236,-3.77116 z m -4.224681,4.33508 5.139246,5.24554 -5.100269,5.54483 -5.144433,-5.5511 z m -6.204487,7.29338 4.746903,5.12264 -6.472109,7.03507 z m 12.27128,0.19205 1.839523,11.79539 -6.368185,-6.87119 z"
       id="path889" /><g
       inkscape:label="Laag 1"
       id="layer1-7"
       transform="matrix(0.28222222,0,0,0.28222222,-47.739317,-56.954441)"><path
         id="rect825"
         style="fill:none;fill-rule:evenodd;stroke:#000000;stroke-width:6.37795;stroke-linecap:round;stroke-linejoin:round;stroke-dasharray:none"
         d="m 400.77197,453.59632 c -5.89448,0 -10.63995,4.74077 -10.63995,10.63682 v 134.41227 c 0,5.896 4.74547,10.642 10.63995,10.642 h 245.42759 c 5.89605,0 10.64203,-4.746 10.64203,-10.642 V 464.23314 c 0,-5.89605 -4.74598,-10.63682 -10.64203,-10.63682 z"
         inkscape:connector-curvature="0" /><path
         id="path852"
         style="fill:none;stroke:#000000;stroke-width:6.05606;stroke-linecap:round;stroke-linejoin:round;stroke-dasharray:none"
         d="m 439.44297,500.87474 h 72.9908"
         inkscape:connector-curvature="0" /><path
         inkscape:connector-curvature="0"
         d="m 540.9591,475.57726 h 84.24637 c 7.29591,0 13.17114,6.05738 13.17114,13.57705 v 83.42416 c 0,7.52488 -5.87523,13.58225 -13.17114,13.58225 H 540.9591 c -7.2959,0 -13.16801,-6.05737 -13.16801,-13.58225 v -83.42416 c 0,-7.51967 5.87211,-13.57705 13.16801,-13.57705 z"
         style="fill:#ffffff;fill-rule:evenodd"
         id="rect874" /><path
         inkscape:connector-curvature="0"
         d="m 540.9591,475.57726 h 84.24637 c 7.29591,0 13.17114,6.05738 13.17114,13.57705 v 83.42416 c 0,7.52488 -5.87523,13.58225 -13.17114,13.58225 H 540.9591 c -7.2959,0 -13.16801,-6.05737 -13.16801,-13.58225 v -83.42416 c 0,-7.51967 5.87211,-13.57705 13.16801,-13.57705 z"
         style="fill:none;stroke:#000000;stroke-width:4.78346;stroke-dasharray:none"
         id="path2857" /><path
         style="opacity:1;fill:#000000;fill-opacity:1;fill-rule:nonzero;stroke:none;stroke-width:1;stroke-linecap:round;stroke-linejoin:round;stroke-miterlimit:4;stroke-dasharray:none;stroke-dashoffset:0;stroke-opacity:1"
         d="m 550.93054,574.64882 c 6.12476,2.38241 14.16092,1.61717 19.41768,-1.87229 6.87964,-4.56669 13.30883,-10.70896 12.58578,-27.34948 a 9.6035898,9.6035898 0 0 0 4.31075,-1.08385 c 1.39707,5.44375 1.33236,10.94816 1.60695,16.45875 0.35221,7.06864 2.76101,13.07024 11.77821,14.80731 4.75939,0.91685 10.17519,0.0317 14.3304,-2.46365 10.1913,-6.12009 16.12842,-14.68835 17.4776,-24.6776 1.0394,-7.69568 -4.44625,-16.86081 -11.40052,-20.31654 -7.39536,-3.67491 -15.93016,-6.17168 -29.98204,2.77765 a 9.6035898,9.6035898 0 0 0 -3.08868,-3.19523 c 4.01558,-3.93097 8.81435,-6.62688 13.44878,-9.6196 5.94551,-3.83934 9.93857,-8.92621 6.93432,-17.60389 -1.58568,-4.58017 -5.06016,-8.82781 -9.29875,-11.17868 -10.39582,-5.76587 -20.78465,-6.62346 -30.11019,-2.79727 -7.18435,2.94769 -12.37881,12.28104 -11.89442,20.03147 0.5151,8.24193 2.62017,16.88153 17.39592,24.57608 a 9.6035898,9.6035898 0 0 0 -0.56441,1.16312 9.6035898,9.6035898 0 0 0 -0.65054,3.11174 c -5.41514,-1.51164 -10.15122,-4.32092 -15.06241,-6.83923 -6.29771,-3.22927 -12.69966,-4.14396 -18.71262,2.79663 -3.1737,3.66332 -5.11503,8.79615 -5.03165,13.64232 0.20453,11.88597 4.65626,21.31175 12.63263,27.47482 1.15216,0.89025 2.46382,1.60764 3.87721,2.15742 z m 29.17508,-31.96493 a 7.3671371,7.3671371 0 0 1 -4.1475,-9.55762 7.3671371,7.3671371 0 0 1 9.55755,-4.14753 7.3671371,7.3671371 0 0 1 4.1476,9.55758 7.3671371,7.3671371 0 0 1 -9.55765,4.14757 z m 0.94195,-2.38621 a 4.8017948,4.8017948 0 0 0 6.2295,-2.70331 4.8017948,4.8017948 0 0 0 -2.70331,-6.22949 4.8017948,4.8017948 0 0 0 -6.22944,2.70333 4.8017948,4.8017948 0 0 0 2.70325,6.22947 z"
         id="path4410"
         inkscape:connector-curvature="0"
         inkscape:transform-center-x="-0.68074486"
         inkscape:transform-center-y="-5.7160824" /><path
         id="path852-2"
         style="fill:none;stroke:#000000;stroke-width:6.06635;stroke-linecap:round;stroke-linejoin:round;stroke-dasharray:none"
         d="m 439.17324,531.70423 h 73.23865"
         inkscape:connector-curvature="0" /><path
         id="path852-2-1"
         style="fill:none;stroke:#000000;stroke-width:6.04056;stroke-linecap:round;stroke-linejoin:round;stroke-dasharray:none"
         d="m 439.84114,561.63224 h 72.61714"
         inkscape:connector-curvature="0" /></g><path
       id="rect8683"
       style="opacity:0.99;fill:#ff6e17;stroke:#000000;stroke-linecap:square;fill-opacity:1"
       d="m 264.99998,77.725449 1e-5,40.000001 c 10e-6,4.26664 -5.59644,7.72543 -12.5,7.72543 -6.90356,0 -12.50001,-3.45879 -12.50001,-7.72543 V 77.725449"
       sodipodi:nodetypes="ccscc" /><ellipse
       style="opacity:0.99;fill:#ff6e17;fill-opacity:1;stroke:#000000;stroke-width:1;stroke-linecap:square;stroke-dasharray:none;stroke-opacity:1"
       id="path8685"
       cx="252.49998"
       cy="77.725441"
       rx="12.500014"
       ry="7.7254338" /></g></svg>
