<?xml version="1.0" encoding="utf-8" standalone="no"?>
<!DOCTYPE svg PUBLIC "-//W3C//DTD SVG 1.1//EN"
  "http://www.w3.org/Graphics/SVG/1.1/DTD/svg11.dtd">
<!-- Created with matplotlib (https://matplotlib.org/) -->
<svg height="328.19976pt" version="1.1" viewBox="0 0 440.39952 328.19976" width="440.39952pt" xmlns="http://www.w3.org/2000/svg" xmlns:xlink="http://www.w3.org/1999/xlink">
 <metadata>
  <rdf:RDF xmlns:cc="http://creativecommons.org/ns#" xmlns:dc="http://purl.org/dc/elements/1.1/" xmlns:rdf="http://www.w3.org/1999/02/22-rdf-syntax-ns#">
   <cc:Work>
    <dc:type rdf:resource="http://purl.org/dc/dcmitype/StillImage"/>
    <dc:date>2021-08-09T11:06:48.809804</dc:date>
    <dc:format>image/svg+xml</dc:format>
    <dc:creator>
     <cc:Agent>
      <dc:title>Matplotlib v3.3.4, https://matplotlib.org/</dc:title>
     </cc:Agent>
    </dc:creator>
   </cc:Work>
  </rdf:RDF>
 </metadata>
 <defs>
  <style type="text/css">*{stroke-linecap:butt;stroke-linejoin:round;}</style>
 </defs>
 <g id="figure_1">
  <g id="patch_1">
   <path d="M 0 328.19976 
L 440.39952 328.19976 
L 440.39952 0 
L 0 0 
z
" style="fill:#ffffff;"/>
  </g>
  <g id="axes_1">
   <g id="patch_2">
    <path d="M 50.14375 143.121875 
L 224.584051 143.121875 
L 224.584051 45.959085 
L 50.14375 45.959085 
z
" style="fill:#ffffff;"/>
   </g>
   <g id="matplotlib.axis_1">
    <g id="xtick_1">
     <g id="line2d_1">
      <defs>
       <path d="M 0 0 
L 0 3.5 
" id="m8352b065a2" style="stroke:#000000;stroke-width:0.8;"/>
      </defs>
      <g>
       <use style="stroke:#000000;stroke-width:0.8;" x="50.14375" xlink:href="#m8352b065a2" y="143.121875"/>
      </g>
     </g>
    </g>
    <g id="xtick_2">
     <g id="line2d_2">
      <g>
       <use style="stroke:#000000;stroke-width:0.8;" x="137.363901" xlink:href="#m8352b065a2" y="143.121875"/>
      </g>
     </g>
    </g>
    <g id="xtick_3">
     <g id="line2d_3">
      <g>
       <use style="stroke:#000000;stroke-width:0.8;" x="224.584051" xlink:href="#m8352b065a2" y="143.121875"/>
      </g>
     </g>
    </g>
   </g>
   <g id="matplotlib.axis_2">
    <g id="ytick_1">
     <g id="line2d_4">
      <defs>
       <path d="M 0 0 
L -3.5 0 
" id="mdabdf10f66" style="stroke:#000000;stroke-width:0.8;"/>
      </defs>
      <g>
       <use style="stroke:#000000;stroke-width:0.8;" x="50.14375" xlink:href="#mdabdf10f66" y="143.121875"/>
      </g>
     </g>
     <g id="text_1">
      <!-- 0.40 -->
      <g transform="translate(20.878125 146.921094)scale(0.1 -0.1)">
       <defs>
        <path d="M 31.78125 66.40625 
Q 24.171875 66.40625 20.328125 58.90625 
Q 16.5 51.421875 16.5 36.375 
Q 16.5 21.390625 20.328125 13.890625 
Q 24.171875 6.390625 31.78125 6.390625 
Q 39.453125 6.390625 43.28125 13.890625 
Q 47.125 21.390625 47.125 36.375 
Q 47.125 51.421875 43.28125 58.90625 
Q 39.453125 66.40625 31.78125 66.40625 
z
M 31.78125 74.21875 
Q 44.046875 74.21875 50.515625 64.515625 
Q 56.984375 54.828125 56.984375 36.375 
Q 56.984375 17.96875 50.515625 8.265625 
Q 44.046875 -1.421875 31.78125 -1.421875 
Q 19.53125 -1.421875 13.0625 8.265625 
Q 6.59375 17.96875 6.59375 36.375 
Q 6.59375 54.828125 13.0625 64.515625 
Q 19.53125 74.21875 31.78125 74.21875 
z
" id="DejaVuSans-48"/>
        <path d="M 10.6875 12.40625 
L 21 12.40625 
L 21 0 
L 10.6875 0 
z
" id="DejaVuSans-46"/>
        <path d="M 37.796875 64.3125 
L 12.890625 25.390625 
L 37.796875 25.390625 
z
M 35.203125 72.90625 
L 47.609375 72.90625 
L 47.609375 25.390625 
L 58.015625 25.390625 
L 58.015625 17.1875 
L 47.609375 17.1875 
L 47.609375 0 
L 37.796875 0 
L 37.796875 17.1875 
L 4.890625 17.1875 
L 4.890625 26.703125 
z
" id="DejaVuSans-52"/>
       </defs>
       <use xlink:href="#DejaVuSans-48"/>
       <use x="63.623047" xlink:href="#DejaVuSans-46"/>
       <use x="95.410156" xlink:href="#DejaVuSans-52"/>
       <use x="159.033203" xlink:href="#DejaVuSans-48"/>
      </g>
     </g>
    </g>
    <g id="ytick_2">
     <g id="line2d_5">
      <g>
       <use style="stroke:#000000;stroke-width:0.8;" x="50.14375" xlink:href="#mdabdf10f66" y="110.734278"/>
      </g>
     </g>
     <g id="text_2">
      <!-- 0.45 -->
      <g transform="translate(20.878125 114.533497)scale(0.1 -0.1)">
       <defs>
        <path d="M 10.796875 72.90625 
L 49.515625 72.90625 
L 49.515625 64.59375 
L 19.828125 64.59375 
L 19.828125 46.734375 
Q 21.96875 47.46875 24.109375 47.828125 
Q 26.265625 48.1875 28.421875 48.1875 
Q 40.625 48.1875 47.75 41.5 
Q 54.890625 34.8125 54.890625 23.390625 
Q 54.890625 11.625 47.5625 5.09375 
Q 40.234375 -1.421875 26.90625 -1.421875 
Q 22.3125 -1.421875 17.546875 -0.640625 
Q 12.796875 0.140625 7.71875 1.703125 
L 7.71875 11.625 
Q 12.109375 9.234375 16.796875 8.0625 
Q 21.484375 6.890625 26.703125 6.890625 
Q 35.15625 6.890625 40.078125 11.328125 
Q 45.015625 15.765625 45.015625 23.390625 
Q 45.015625 31 40.078125 35.4375 
Q 35.15625 39.890625 26.703125 39.890625 
Q 22.75 39.890625 18.8125 39.015625 
Q 14.890625 38.140625 10.796875 36.28125 
z
" id="DejaVuSans-53"/>
       </defs>
       <use xlink:href="#DejaVuSans-48"/>
       <use x="63.623047" xlink:href="#DejaVuSans-46"/>
       <use x="95.410156" xlink:href="#DejaVuSans-52"/>
       <use x="159.033203" xlink:href="#DejaVuSans-53"/>
      </g>
     </g>
    </g>
    <g id="ytick_3">
     <g id="line2d_6">
      <g>
       <use style="stroke:#000000;stroke-width:0.8;" x="50.14375" xlink:href="#mdabdf10f66" y="78.346682"/>
      </g>
     </g>
     <g id="text_3">
      <!-- 0.50 -->
      <g transform="translate(20.878125 82.1459)scale(0.1 -0.1)">
       <use xlink:href="#DejaVuSans-48"/>
       <use x="63.623047" xlink:href="#DejaVuSans-46"/>
       <use x="95.410156" xlink:href="#DejaVuSans-53"/>
       <use x="159.033203" xlink:href="#DejaVuSans-48"/>
      </g>
     </g>
    </g>
    <g id="ytick_4">
     <g id="line2d_7">
      <g>
       <use style="stroke:#000000;stroke-width:0.8;" x="50.14375" xlink:href="#mdabdf10f66" y="45.959085"/>
      </g>
     </g>
     <g id="text_4">
      <!-- 0.55 -->
      <g transform="translate(20.878125 49.758304)scale(0.1 -0.1)">
       <use xlink:href="#DejaVuSans-48"/>
       <use x="63.623047" xlink:href="#DejaVuSans-46"/>
       <use x="95.410156" xlink:href="#DejaVuSans-53"/>
       <use x="159.033203" xlink:href="#DejaVuSans-53"/>
      </g>
     </g>
    </g>
    <g id="text_5">
     <!-- $\epsilon$ -->
     <g transform="translate(14.798438 97.29048)rotate(-90)scale(0.1 -0.1)">
      <defs>
       <path d="M 19.734375 29.5 
Q 14.453125 30.671875 12.15625 33.84375 
Q 10.453125 36.078125 10.453125 39.109375 
Q 10.453125 47.40625 18.359375 52.25 
Q 24.609375 56.0625 34.1875 56.0625 
Q 37.890625 56.0625 41.9375 55.46875 
Q 46 54.890625 50.53125 53.71875 
L 48.96875 45.5625 
Q 44.484375 46.96875 40.71875 47.609375 
Q 36.859375 48.25 33.40625 48.25 
Q 27.59375 48.25 23.78125 46 
Q 19.1875 43.3125 19.1875 39.40625 
Q 19.1875 36.8125 21.578125 35.015625 
Q 24.421875 32.859375 30.078125 32.859375 
L 37.640625 32.859375 
L 36.234375 25.4375 
L 29 25.4375 
Q 22.265625 25.4375 18.3125 22.953125 
Q 12.9375 19.578125 12.9375 14.3125 
Q 12.9375 10.984375 15.828125 8.796875 
Q 19.4375 6.0625 26.8125 6.0625 
Q 31.34375 6.0625 35.6875 6.9375 
Q 40.046875 7.859375 43.84375 9.671875 
L 42.1875 1.3125 
Q 37.546875 -0.046875 33.296875 -0.734375 
Q 29.046875 -1.421875 25.140625 -1.421875 
Q 13.53125 -1.421875 8.0625 3.03125 
Q 3.90625 6.453125 3.90625 12.203125 
Q 3.90625 19.96875 9.375 24.75 
Q 13.421875 28.328125 19.734375 29.5 
z
" id="DejaVuSans-Oblique-949"/>
      </defs>
      <use transform="translate(0 0.9375)" xlink:href="#DejaVuSans-Oblique-949"/>
     </g>
    </g>
   </g>
   <g id="line2d_8">
    <defs>
     <path d="M -3.5 3.5 
L 3.5 -3.5 
M -3.5 -3.5 
L 3.5 3.5 
" id="m29fa696cee" style="stroke:#00395b;"/>
    </defs>
    <g clip-path="url(#pa8a7835a9a)">
     <use style="fill:#00395b;stroke:#00395b;" x="207.140021" xlink:href="#m29fa696cee" y="69.154563"/>
     <use style="fill:#00395b;stroke:#00395b;" x="180.973976" xlink:href="#m29fa696cee" y="61.53854"/>
     <use style="fill:#00395b;stroke:#00395b;" x="154.807931" xlink:href="#m29fa696cee" y="60.72798"/>
     <use style="fill:#00395b;stroke:#00395b;" x="128.641886" xlink:href="#m29fa696cee" y="62.820486"/>
     <use style="fill:#00395b;stroke:#00395b;" x="102.47584" xlink:href="#m29fa696cee" y="67.587507"/>
     <use style="fill:#00395b;stroke:#00395b;" x="76.309795" xlink:href="#m29fa696cee" y="74.728004"/>
    </g>
   </g>
   <g id="line2d_9">
    <defs>
     <path d="M -3.5 3.5 
L 3.5 -3.5 
M -3.5 -3.5 
L 3.5 3.5 
" id="m9c28928c11" style="stroke:#74adc1;"/>
    </defs>
    <g clip-path="url(#pa8a7835a9a)">
     <use style="fill:#74adc1;stroke:#74adc1;" x="207.140021" xlink:href="#m9c28928c11" y="75.465814"/>
     <use style="fill:#74adc1;stroke:#74adc1;" x="180.973976" xlink:href="#m9c28928c11" y="67.728108"/>
     <use style="fill:#74adc1;stroke:#74adc1;" x="154.807931" xlink:href="#m9c28928c11" y="66.778534"/>
     <use style="fill:#74adc1;stroke:#74adc1;" x="128.641886" xlink:href="#m9c28928c11" y="69.33604"/>
     <use style="fill:#74adc1;stroke:#74adc1;" x="102.47584" xlink:href="#m9c28928c11" y="74.095924"/>
     <use style="fill:#74adc1;stroke:#74adc1;" x="76.309795" xlink:href="#m9c28928c11" y="81.566873"/>
    </g>
   </g>
   <g id="line2d_10">
    <defs>
     <path d="M -3.5 3.5 
L 3.5 -3.5 
M -3.5 -3.5 
L 3.5 3.5 
" id="m8c85156970" style="stroke:#b54036;"/>
    </defs>
    <g clip-path="url(#pa8a7835a9a)">
     <use style="fill:#b54036;stroke:#b54036;" x="207.140021" xlink:href="#m8c85156970" y="81.734992"/>
     <use style="fill:#b54036;stroke:#b54036;" x="180.973976" xlink:href="#m8c85156970" y="74.881885"/>
     <use style="fill:#b54036;stroke:#b54036;" x="154.807931" xlink:href="#m8c85156970" y="72.754413"/>
     <use style="fill:#b54036;stroke:#b54036;" x="128.641886" xlink:href="#m8c85156970" y="75.761141"/>
     <use style="fill:#b54036;stroke:#b54036;" x="102.47584" xlink:href="#m8c85156970" y="81.006295"/>
     <use style="fill:#b54036;stroke:#b54036;" x="76.309795" xlink:href="#m8c85156970" y="88.256179"/>
    </g>
   </g>
   <g id="patch_3">
    <path d="M 50.14375 143.121875 
L 50.14375 45.959085 
" style="fill:none;stroke:#000000;stroke-linecap:square;stroke-linejoin:miter;stroke-width:0.8;"/>
   </g>
   <g id="patch_4">
    <path d="M 224.584051 143.121875 
L 224.584051 45.959085 
" style="fill:none;stroke:#000000;stroke-linecap:square;stroke-linejoin:miter;stroke-width:0.8;"/>
   </g>
   <g id="patch_5">
    <path d="M 50.14375 143.121875 
L 224.584051 143.121875 
" style="fill:none;stroke:#000000;stroke-linecap:square;stroke-linejoin:miter;stroke-width:0.8;"/>
   </g>
   <g id="patch_6">
    <path d="M 50.14375 45.959085 
L 224.584051 45.959085 
" style="fill:none;stroke:#000000;stroke-linecap:square;stroke-linejoin:miter;stroke-width:0.8;"/>
   </g>
   <g id="text_6">
    <!-- NH3 -->
    <g transform="translate(124.545463 39.959085)scale(0.12 -0.12)">
     <defs>
      <path d="M 9.8125 72.90625 
L 23.09375 72.90625 
L 55.421875 11.921875 
L 55.421875 72.90625 
L 64.984375 72.90625 
L 64.984375 0 
L 51.703125 0 
L 19.390625 60.984375 
L 19.390625 0 
L 9.8125 0 
z
" id="DejaVuSans-78"/>
      <path d="M 9.8125 72.90625 
L 19.671875 72.90625 
L 19.671875 43.015625 
L 55.515625 43.015625 
L 55.515625 72.90625 
L 65.375 72.90625 
L 65.375 0 
L 55.515625 0 
L 55.515625 34.71875 
L 19.671875 34.71875 
L 19.671875 0 
L 9.8125 0 
z
" id="DejaVuSans-72"/>
      <path d="M 40.578125 39.3125 
Q 47.65625 37.796875 51.625 33 
Q 55.609375 28.21875 55.609375 21.1875 
Q 55.609375 10.40625 48.1875 4.484375 
Q 40.765625 -1.421875 27.09375 -1.421875 
Q 22.515625 -1.421875 17.65625 -0.515625 
Q 12.796875 0.390625 7.625 2.203125 
L 7.625 11.71875 
Q 11.71875 9.328125 16.59375 8.109375 
Q 21.484375 6.890625 26.8125 6.890625 
Q 36.078125 6.890625 40.9375 10.546875 
Q 45.796875 14.203125 45.796875 21.1875 
Q 45.796875 27.640625 41.28125 31.265625 
Q 36.765625 34.90625 28.71875 34.90625 
L 20.21875 34.90625 
L 20.21875 43.015625 
L 29.109375 43.015625 
Q 36.375 43.015625 40.234375 45.921875 
Q 44.09375 48.828125 44.09375 54.296875 
Q 44.09375 59.90625 40.109375 62.90625 
Q 36.140625 65.921875 28.71875 65.921875 
Q 24.65625 65.921875 20.015625 65.03125 
Q 15.375 64.15625 9.8125 62.3125 
L 9.8125 71.09375 
Q 15.4375 72.65625 20.34375 73.4375 
Q 25.25 74.21875 29.59375 74.21875 
Q 40.828125 74.21875 47.359375 69.109375 
Q 53.90625 64.015625 53.90625 55.328125 
Q 53.90625 49.265625 50.4375 45.09375 
Q 46.96875 40.921875 40.578125 39.3125 
z
" id="DejaVuSans-51"/>
     </defs>
     <use xlink:href="#DejaVuSans-78"/>
     <use x="74.804688" xlink:href="#DejaVuSans-72"/>
     <use x="150" xlink:href="#DejaVuSans-51"/>
    </g>
   </g>
  </g>
  <g id="axes_2">
   <g id="patch_7">
    <path d="M 250.807656 143.121875 
L 425.247957 143.121875 
L 425.247957 45.959085 
L 250.807656 45.959085 
z
" style="fill:#ffffff;"/>
   </g>
   <g id="matplotlib.axis_3">
    <g id="xtick_4">
     <g id="line2d_11">
      <g>
       <use style="stroke:#000000;stroke-width:0.8;" x="250.807656" xlink:href="#m8352b065a2" y="143.121875"/>
      </g>
     </g>
    </g>
    <g id="xtick_5">
     <g id="line2d_12">
      <g>
       <use style="stroke:#000000;stroke-width:0.8;" x="338.027807" xlink:href="#m8352b065a2" y="143.121875"/>
      </g>
     </g>
    </g>
    <g id="xtick_6">
     <g id="line2d_13">
      <g>
       <use style="stroke:#000000;stroke-width:0.8;" x="425.247958" xlink:href="#m8352b065a2" y="143.121875"/>
      </g>
     </g>
    </g>
   </g>
   <g id="matplotlib.axis_4">
    <g id="ytick_5">
     <g id="line2d_14">
      <g>
       <use style="stroke:#000000;stroke-width:0.8;" x="250.807656" xlink:href="#mdabdf10f66" y="143.121875"/>
      </g>
     </g>
    </g>
    <g id="ytick_6">
     <g id="line2d_15">
      <g>
       <use style="stroke:#000000;stroke-width:0.8;" x="250.807656" xlink:href="#mdabdf10f66" y="110.734278"/>
      </g>
     </g>
    </g>
    <g id="ytick_7">
     <g id="line2d_16">
      <g>
       <use style="stroke:#000000;stroke-width:0.8;" x="250.807656" xlink:href="#mdabdf10f66" y="78.346682"/>
      </g>
     </g>
    </g>
    <g id="ytick_8">
     <g id="line2d_17">
      <g>
       <use style="stroke:#000000;stroke-width:0.8;" x="250.807656" xlink:href="#mdabdf10f66" y="45.959085"/>
      </g>
     </g>
    </g>
   </g>
   <g id="line2d_18">
    <g clip-path="url(#p19c6755f44)">
     <use style="fill:#00395b;stroke:#00395b;" x="407.803927" xlink:href="#m29fa696cee" y="100.182315"/>
     <use style="fill:#00395b;stroke:#00395b;" x="381.637882" xlink:href="#m29fa696cee" y="92.810871"/>
     <use style="fill:#00395b;stroke:#00395b;" x="355.471837" xlink:href="#m29fa696cee" y="91.860266"/>
     <use style="fill:#00395b;stroke:#00395b;" x="329.305792" xlink:href="#m29fa696cee" y="93.592333"/>
     <use style="fill:#00395b;stroke:#00395b;" x="303.139747" xlink:href="#m29fa696cee" y="97.810722"/>
     <use style="fill:#00395b;stroke:#00395b;" x="276.973701" xlink:href="#m29fa696cee" y="104.287255"/>
    </g>
   </g>
   <g id="line2d_19">
    <g clip-path="url(#p19c6755f44)">
     <use style="fill:#74adc1;stroke:#74adc1;" x="407.803927" xlink:href="#m9c28928c11" y="106.816807"/>
     <use style="fill:#74adc1;stroke:#74adc1;" x="381.637882" xlink:href="#m9c28928c11" y="99.360301"/>
     <use style="fill:#74adc1;stroke:#74adc1;" x="355.471837" xlink:href="#m9c28928c11" y="98.261398"/>
     <use style="fill:#74adc1;stroke:#74adc1;" x="329.305792" xlink:href="#m9c28928c11" y="100.385585"/>
     <use style="fill:#74adc1;stroke:#74adc1;" x="303.139747" xlink:href="#m9c28928c11" y="104.578315"/>
     <use style="fill:#74adc1;stroke:#74adc1;" x="276.973701" xlink:href="#m9c28928c11" y="111.281943"/>
    </g>
   </g>
   <g id="line2d_20">
    <g clip-path="url(#p19c6755f44)">
     <use style="fill:#b54036;stroke:#b54036;" x="407.803927" xlink:href="#m8c85156970" y="113.354765"/>
     <use style="fill:#b54036;stroke:#b54036;" x="381.637882" xlink:href="#m8c85156970" y="106.676257"/>
     <use style="fill:#b54036;stroke:#b54036;" x="355.471837" xlink:href="#m8c85156970" y="104.508109"/>
     <use style="fill:#b54036;stroke:#b54036;" x="329.305792" xlink:href="#m8c85156970" y="107.003524"/>
     <use style="fill:#b54036;stroke:#b54036;" x="303.139747" xlink:href="#m8c85156970" y="111.642475"/>
     <use style="fill:#b54036;stroke:#b54036;" x="276.973701" xlink:href="#m8c85156970" y="118.045971"/>
    </g>
   </g>
   <g id="patch_8">
    <path d="M 250.807656 143.121875 
L 250.807656 45.959085 
" style="fill:none;stroke:#000000;stroke-linecap:square;stroke-linejoin:miter;stroke-width:0.8;"/>
   </g>
   <g id="patch_9">
    <path d="M 425.247957 143.121875 
L 425.247957 45.959085 
" style="fill:none;stroke:#000000;stroke-linecap:square;stroke-linejoin:miter;stroke-width:0.8;"/>
   </g>
   <g id="patch_10">
    <path d="M 250.807656 143.121875 
L 425.247958 143.121875 
" style="fill:none;stroke:#000000;stroke-linecap:square;stroke-linejoin:miter;stroke-width:0.8;"/>
   </g>
   <g id="patch_11">
    <path d="M 250.807656 45.959085 
L 425.247958 45.959085 
" style="fill:none;stroke:#000000;stroke-linecap:square;stroke-linejoin:miter;stroke-width:0.8;"/>
   </g>
   <g id="text_7">
    <!-- R410A -->
    <g transform="translate(318.301869 39.959085)scale(0.12 -0.12)">
     <defs>
      <path d="M 44.390625 34.1875 
Q 47.5625 33.109375 50.5625 29.59375 
Q 53.5625 26.078125 56.59375 19.921875 
L 66.609375 0 
L 56 0 
L 46.6875 18.703125 
Q 43.0625 26.03125 39.671875 28.421875 
Q 36.28125 30.8125 30.421875 30.8125 
L 19.671875 30.8125 
L 19.671875 0 
L 9.8125 0 
L 9.8125 72.90625 
L 32.078125 72.90625 
Q 44.578125 72.90625 50.734375 67.671875 
Q 56.890625 62.453125 56.890625 51.90625 
Q 56.890625 45.015625 53.6875 40.46875 
Q 50.484375 35.9375 44.390625 34.1875 
z
M 19.671875 64.796875 
L 19.671875 38.921875 
L 32.078125 38.921875 
Q 39.203125 38.921875 42.84375 42.21875 
Q 46.484375 45.515625 46.484375 51.90625 
Q 46.484375 58.296875 42.84375 61.546875 
Q 39.203125 64.796875 32.078125 64.796875 
z
" id="DejaVuSans-82"/>
      <path d="M 12.40625 8.296875 
L 28.515625 8.296875 
L 28.515625 63.921875 
L 10.984375 60.40625 
L 10.984375 69.390625 
L 28.421875 72.90625 
L 38.28125 72.90625 
L 38.28125 8.296875 
L 54.390625 8.296875 
L 54.390625 0 
L 12.40625 0 
z
" id="DejaVuSans-49"/>
      <path d="M 34.1875 63.1875 
L 20.796875 26.90625 
L 47.609375 26.90625 
z
M 28.609375 72.90625 
L 39.796875 72.90625 
L 67.578125 0 
L 57.328125 0 
L 50.6875 18.703125 
L 17.828125 18.703125 
L 11.1875 0 
L 0.78125 0 
z
" id="DejaVuSans-65"/>
     </defs>
     <use xlink:href="#DejaVuSans-82"/>
     <use x="69.482422" xlink:href="#DejaVuSans-52"/>
     <use x="133.105469" xlink:href="#DejaVuSans-49"/>
     <use x="196.728516" xlink:href="#DejaVuSans-48"/>
     <use x="260.351562" xlink:href="#DejaVuSans-65"/>
    </g>
   </g>
  </g>
  <g id="axes_3">
   <g id="patch_12">
    <path d="M 50.14375 258.84327 
L 224.584051 258.84327 
L 224.584051 161.68048 
L 50.14375 161.68048 
z
" style="fill:#ffffff;"/>
   </g>
   <g id="matplotlib.axis_5">
    <g id="xtick_7">
     <g id="line2d_21">
      <g>
       <use style="stroke:#000000;stroke-width:0.8;" x="50.14375" xlink:href="#m8352b065a2" y="258.84327"/>
      </g>
     </g>
     <g id="text_8">
      <!-- 2.5 -->
      <g transform="translate(42.192188 273.441707)scale(0.1 -0.1)">
       <defs>
        <path d="M 19.1875 8.296875 
L 53.609375 8.296875 
L 53.609375 0 
L 7.328125 0 
L 7.328125 8.296875 
Q 12.9375 14.109375 22.625 23.890625 
Q 32.328125 33.6875 34.8125 36.53125 
Q 39.546875 41.84375 41.421875 45.53125 
Q 43.3125 49.21875 43.3125 52.78125 
Q 43.3125 58.59375 39.234375 62.25 
Q 35.15625 65.921875 28.609375 65.921875 
Q 23.96875 65.921875 18.8125 64.3125 
Q 13.671875 62.703125 7.8125 59.421875 
L 7.8125 69.390625 
Q 13.765625 71.78125 18.9375 73 
Q 24.125 74.21875 28.421875 74.21875 
Q 39.75 74.21875 46.484375 68.546875 
Q 53.21875 62.890625 53.21875 53.421875 
Q 53.21875 48.921875 51.53125 44.890625 
Q 49.859375 40.875 45.40625 35.40625 
Q 44.1875 33.984375 37.640625 27.21875 
Q 31.109375 20.453125 19.1875 8.296875 
z
" id="DejaVuSans-50"/>
       </defs>
       <use xlink:href="#DejaVuSans-50"/>
       <use x="63.623047" xlink:href="#DejaVuSans-46"/>
       <use x="95.410156" xlink:href="#DejaVuSans-53"/>
      </g>
     </g>
    </g>
    <g id="xtick_8">
     <g id="line2d_22">
      <g>
       <use style="stroke:#000000;stroke-width:0.8;" x="137.363901" xlink:href="#m8352b065a2" y="258.84327"/>
      </g>
     </g>
     <g id="text_9">
      <!-- 3.5 -->
      <g transform="translate(129.412338 273.441707)scale(0.1 -0.1)">
       <use xlink:href="#DejaVuSans-51"/>
       <use x="63.623047" xlink:href="#DejaVuSans-46"/>
       <use x="95.410156" xlink:href="#DejaVuSans-53"/>
      </g>
     </g>
    </g>
    <g id="xtick_9">
     <g id="line2d_23">
      <g>
       <use style="stroke:#000000;stroke-width:0.8;" x="224.584051" xlink:href="#m8352b065a2" y="258.84327"/>
      </g>
     </g>
     <g id="text_10">
      <!-- 4.5 -->
      <g transform="translate(216.632489 273.441707)scale(0.1 -0.1)">
       <use xlink:href="#DejaVuSans-52"/>
       <use x="63.623047" xlink:href="#DejaVuSans-46"/>
       <use x="95.410156" xlink:href="#DejaVuSans-53"/>
      </g>
     </g>
    </g>
    <g id="text_11">
     <!-- $Q_{cond}$ in kW -->
     <g transform="translate(109.163901 287.119832)scale(0.1 -0.1)">
      <defs>
       <path d="M 36.078125 -1.3125 
Q 35.546875 -1.375 34.953125 -1.390625 
Q 34.375 -1.421875 33.203125 -1.421875 
Q 19.53125 -1.421875 11.8125 6.421875 
Q 4.109375 14.265625 4.109375 28.078125 
Q 4.109375 36.234375 7.0625 44.4375 
Q 10.015625 52.640625 15.28125 59.1875 
Q 21.390625 66.703125 29.03125 70.453125 
Q 36.671875 74.21875 45.90625 74.21875 
Q 59.28125 74.21875 66.984375 66.328125 
Q 74.703125 58.453125 74.703125 44.828125 
Q 74.703125 30.125 66.640625 17.921875 
Q 58.59375 5.71875 45.609375 0.6875 
L 55.515625 -12.890625 
L 44.484375 -12.890625 
z
M 45.609375 66.21875 
Q 37.5 66.21875 31.296875 62.28125 
Q 25.09375 58.34375 20.515625 50.296875 
Q 17.578125 45.171875 16.03125 39.40625 
Q 14.5 33.640625 14.5 27.78125 
Q 14.5 17.625 19.359375 12.109375 
Q 24.21875 6.59375 33.109375 6.59375 
Q 41.109375 6.59375 47.375 10.5625 
Q 53.65625 14.546875 58.109375 22.40625 
Q 61.078125 27.6875 62.640625 33.46875 
Q 64.203125 39.265625 64.203125 45.015625 
Q 64.203125 55.125 59.3125 60.671875 
Q 54.4375 66.21875 45.609375 66.21875 
z
" id="DejaVuSans-Oblique-81"/>
       <path d="M 53.609375 52.59375 
L 51.8125 43.703125 
Q 48.578125 46.046875 44.9375 47.21875 
Q 41.3125 48.390625 37.40625 48.390625 
Q 33.109375 48.390625 29.21875 46.875 
Q 25.34375 45.359375 22.703125 42.578125 
Q 18.5 38.328125 16.203125 32.609375 
Q 13.921875 26.90625 13.921875 20.796875 
Q 13.921875 13.421875 17.609375 9.8125 
Q 21.296875 6.203125 28.8125 6.203125 
Q 32.515625 6.203125 36.6875 7.328125 
Q 40.875 8.453125 45.40625 10.6875 
L 43.703125 1.8125 
Q 39.796875 0.203125 35.671875 -0.609375 
Q 31.546875 -1.421875 27.203125 -1.421875 
Q 16.3125 -1.421875 10.453125 4.015625 
Q 4.59375 9.46875 4.59375 19.578125 
Q 4.59375 28.078125 7.640625 35.234375 
Q 10.6875 42.390625 16.703125 48.09375 
Q 20.796875 52 26.3125 54 
Q 31.84375 56 38.375 56 
Q 42.1875 56 45.9375 55.140625 
Q 49.703125 54.296875 53.609375 52.59375 
z
" id="DejaVuSans-Oblique-99"/>
       <path d="M 25.390625 -1.421875 
Q 15.765625 -1.421875 10.171875 4.515625 
Q 4.59375 10.453125 4.59375 20.703125 
Q 4.59375 26.65625 6.515625 32.828125 
Q 8.453125 39.015625 11.53125 43.21875 
Q 16.359375 49.75 22.3125 52.875 
Q 28.265625 56 35.796875 56 
Q 45.125 56 50.859375 50.1875 
Q 56.59375 44.390625 56.59375 35.015625 
Q 56.59375 28.515625 54.6875 22.0625 
Q 52.78125 15.625 49.703125 11.375 
Q 44.921875 4.828125 38.96875 1.703125 
Q 33.015625 -1.421875 25.390625 -1.421875 
z
M 13.921875 21 
Q 13.921875 13.578125 17.015625 9.890625 
Q 20.125 6.203125 26.421875 6.203125 
Q 35.453125 6.203125 41.375 14.078125 
Q 47.3125 21.96875 47.3125 34.078125 
Q 47.3125 41.15625 44.140625 44.765625 
Q 40.96875 48.390625 34.8125 48.390625 
Q 29.734375 48.390625 25.78125 46.015625 
Q 21.828125 43.65625 18.703125 38.8125 
Q 16.40625 35.203125 15.15625 30.5625 
Q 13.921875 25.921875 13.921875 21 
z
" id="DejaVuSans-Oblique-111"/>
       <path d="M 55.71875 33.015625 
L 49.3125 0 
L 40.28125 0 
L 46.6875 32.671875 
Q 47.125 34.96875 47.359375 36.71875 
Q 47.609375 38.484375 47.609375 39.5 
Q 47.609375 43.609375 45.015625 45.890625 
Q 42.4375 48.1875 37.796875 48.1875 
Q 30.5625 48.1875 25.34375 43.375 
Q 20.125 38.578125 18.5 30.328125 
L 12.5 0 
L 3.515625 0 
L 14.109375 54.6875 
L 23.09375 54.6875 
L 21.296875 46.09375 
Q 25.046875 50.828125 30.3125 53.40625 
Q 35.59375 56 41.40625 56 
Q 48.640625 56 52.609375 52.09375 
Q 56.59375 48.1875 56.59375 41.109375 
Q 56.59375 39.359375 56.375 37.359375 
Q 56.15625 35.359375 55.71875 33.015625 
z
" id="DejaVuSans-Oblique-110"/>
       <path d="M 41.796875 8.203125 
Q 38.1875 3.46875 33.25 1.015625 
Q 28.328125 -1.421875 22.3125 -1.421875 
Q 14.109375 -1.421875 9.34375 4.171875 
Q 4.59375 9.765625 4.59375 19.484375 
Q 4.59375 27.59375 7.46875 34.9375 
Q 10.359375 42.28125 15.828125 48.09375 
Q 19.4375 51.953125 23.96875 53.96875 
Q 28.515625 56 33.5 56 
Q 38.765625 56 42.796875 53.453125 
Q 46.828125 50.921875 49.03125 46.1875 
L 54.890625 75.984375 
L 63.921875 75.984375 
L 49.125 0 
L 40.09375 0 
z
M 13.921875 21.09375 
Q 13.921875 14.015625 17.109375 10.0625 
Q 20.3125 6.109375 25.984375 6.109375 
Q 30.171875 6.109375 33.765625 8.125 
Q 37.359375 10.15625 40.09375 14.109375 
Q 42.96875 18.21875 44.625 23.578125 
Q 46.296875 28.953125 46.296875 34.1875 
Q 46.296875 40.96875 43.09375 44.765625 
Q 39.890625 48.578125 34.28125 48.578125 
Q 30.03125 48.578125 26.359375 46.578125 
Q 22.703125 44.578125 20.125 40.828125 
Q 17.28125 36.765625 15.59375 31.390625 
Q 13.921875 26.03125 13.921875 21.09375 
z
" id="DejaVuSans-Oblique-100"/>
       <path id="DejaVuSans-32"/>
       <path d="M 9.421875 54.6875 
L 18.40625 54.6875 
L 18.40625 0 
L 9.421875 0 
z
M 9.421875 75.984375 
L 18.40625 75.984375 
L 18.40625 64.59375 
L 9.421875 64.59375 
z
" id="DejaVuSans-105"/>
       <path d="M 54.890625 33.015625 
L 54.890625 0 
L 45.90625 0 
L 45.90625 32.71875 
Q 45.90625 40.484375 42.875 44.328125 
Q 39.84375 48.1875 33.796875 48.1875 
Q 26.515625 48.1875 22.3125 43.546875 
Q 18.109375 38.921875 18.109375 30.90625 
L 18.109375 0 
L 9.078125 0 
L 9.078125 54.6875 
L 18.109375 54.6875 
L 18.109375 46.1875 
Q 21.34375 51.125 25.703125 53.5625 
Q 30.078125 56 35.796875 56 
Q 45.21875 56 50.046875 50.171875 
Q 54.890625 44.34375 54.890625 33.015625 
z
" id="DejaVuSans-110"/>
       <path d="M 9.078125 75.984375 
L 18.109375 75.984375 
L 18.109375 31.109375 
L 44.921875 54.6875 
L 56.390625 54.6875 
L 27.390625 29.109375 
L 57.625 0 
L 45.90625 0 
L 18.109375 26.703125 
L 18.109375 0 
L 9.078125 0 
z
" id="DejaVuSans-107"/>
       <path d="M 3.328125 72.90625 
L 13.28125 72.90625 
L 28.609375 11.28125 
L 43.890625 72.90625 
L 54.984375 72.90625 
L 70.3125 11.28125 
L 85.59375 72.90625 
L 95.609375 72.90625 
L 77.296875 0 
L 64.890625 0 
L 49.515625 63.28125 
L 33.984375 0 
L 21.578125 0 
z
" id="DejaVuSans-87"/>
      </defs>
      <use transform="translate(0 0.015625)" xlink:href="#DejaVuSans-Oblique-81"/>
      <use transform="translate(78.710938 -16.390625)scale(0.7)" xlink:href="#DejaVuSans-Oblique-99"/>
      <use transform="translate(117.197266 -16.390625)scale(0.7)" xlink:href="#DejaVuSans-Oblique-111"/>
      <use transform="translate(160.024414 -16.390625)scale(0.7)" xlink:href="#DejaVuSans-Oblique-110"/>
      <use transform="translate(204.389648 -16.390625)scale(0.7)" xlink:href="#DejaVuSans-Oblique-100"/>
      <use transform="translate(251.557617 0.015625)" xlink:href="#DejaVuSans-32"/>
      <use transform="translate(283.344727 0.015625)" xlink:href="#DejaVuSans-105"/>
      <use transform="translate(311.12793 0.015625)" xlink:href="#DejaVuSans-110"/>
      <use transform="translate(374.506836 0.015625)" xlink:href="#DejaVuSans-32"/>
      <use transform="translate(406.293945 0.015625)" xlink:href="#DejaVuSans-107"/>
      <use transform="translate(464.204102 0.015625)" xlink:href="#DejaVuSans-87"/>
     </g>
    </g>
   </g>
   <g id="matplotlib.axis_6">
    <g id="ytick_9">
     <g id="line2d_24">
      <g>
       <use style="stroke:#000000;stroke-width:0.8;" x="50.14375" xlink:href="#mdabdf10f66" y="258.84327"/>
      </g>
     </g>
     <g id="text_12">
      <!-- 3 -->
      <g transform="translate(36.78125 262.642489)scale(0.1 -0.1)">
       <use xlink:href="#DejaVuSans-51"/>
      </g>
     </g>
    </g>
    <g id="ytick_10">
     <g id="line2d_25">
      <g>
       <use style="stroke:#000000;stroke-width:0.8;" x="50.14375" xlink:href="#mdabdf10f66" y="226.455673"/>
      </g>
     </g>
     <g id="text_13">
      <!-- 4 -->
      <g transform="translate(36.78125 230.254892)scale(0.1 -0.1)">
       <use xlink:href="#DejaVuSans-52"/>
      </g>
     </g>
    </g>
    <g id="ytick_11">
     <g id="line2d_26">
      <g>
       <use style="stroke:#000000;stroke-width:0.8;" x="50.14375" xlink:href="#mdabdf10f66" y="194.068077"/>
      </g>
     </g>
     <g id="text_14">
      <!-- 5 -->
      <g transform="translate(36.78125 197.867295)scale(0.1 -0.1)">
       <use xlink:href="#DejaVuSans-53"/>
      </g>
     </g>
    </g>
    <g id="ytick_12">
     <g id="line2d_27">
      <g>
       <use style="stroke:#000000;stroke-width:0.8;" x="50.14375" xlink:href="#mdabdf10f66" y="161.68048"/>
      </g>
     </g>
     <g id="text_15">
      <!-- 6 -->
      <g transform="translate(36.78125 165.479699)scale(0.1 -0.1)">
       <defs>
        <path d="M 33.015625 40.375 
Q 26.375 40.375 22.484375 35.828125 
Q 18.609375 31.296875 18.609375 23.390625 
Q 18.609375 15.53125 22.484375 10.953125 
Q 26.375 6.390625 33.015625 6.390625 
Q 39.65625 6.390625 43.53125 10.953125 
Q 47.40625 15.53125 47.40625 23.390625 
Q 47.40625 31.296875 43.53125 35.828125 
Q 39.65625 40.375 33.015625 40.375 
z
M 52.59375 71.296875 
L 52.59375 62.3125 
Q 48.875 64.0625 45.09375 64.984375 
Q 41.3125 65.921875 37.59375 65.921875 
Q 27.828125 65.921875 22.671875 59.328125 
Q 17.53125 52.734375 16.796875 39.40625 
Q 19.671875 43.65625 24.015625 45.921875 
Q 28.375 48.1875 33.59375 48.1875 
Q 44.578125 48.1875 50.953125 41.515625 
Q 57.328125 34.859375 57.328125 23.390625 
Q 57.328125 12.15625 50.6875 5.359375 
Q 44.046875 -1.421875 33.015625 -1.421875 
Q 20.359375 -1.421875 13.671875 8.265625 
Q 6.984375 17.96875 6.984375 36.375 
Q 6.984375 53.65625 15.1875 63.9375 
Q 23.390625 74.21875 37.203125 74.21875 
Q 40.921875 74.21875 44.703125 73.484375 
Q 48.484375 72.75 52.59375 71.296875 
z
" id="DejaVuSans-54"/>
       </defs>
       <use xlink:href="#DejaVuSans-54"/>
      </g>
     </g>
    </g>
    <g id="text_16">
     <!-- COP -->
     <g transform="translate(30.701563 220.704062)rotate(-90)scale(0.1 -0.1)">
      <defs>
       <path d="M 64.40625 67.28125 
L 64.40625 56.890625 
Q 59.421875 61.53125 53.78125 63.8125 
Q 48.140625 66.109375 41.796875 66.109375 
Q 29.296875 66.109375 22.65625 58.46875 
Q 16.015625 50.828125 16.015625 36.375 
Q 16.015625 21.96875 22.65625 14.328125 
Q 29.296875 6.6875 41.796875 6.6875 
Q 48.140625 6.6875 53.78125 8.984375 
Q 59.421875 11.28125 64.40625 15.921875 
L 64.40625 5.609375 
Q 59.234375 2.09375 53.4375 0.328125 
Q 47.65625 -1.421875 41.21875 -1.421875 
Q 24.65625 -1.421875 15.125 8.703125 
Q 5.609375 18.84375 5.609375 36.375 
Q 5.609375 53.953125 15.125 64.078125 
Q 24.65625 74.21875 41.21875 74.21875 
Q 47.75 74.21875 53.53125 72.484375 
Q 59.328125 70.75 64.40625 67.28125 
z
" id="DejaVuSans-67"/>
       <path d="M 39.40625 66.21875 
Q 28.65625 66.21875 22.328125 58.203125 
Q 16.015625 50.203125 16.015625 36.375 
Q 16.015625 22.609375 22.328125 14.59375 
Q 28.65625 6.59375 39.40625 6.59375 
Q 50.140625 6.59375 56.421875 14.59375 
Q 62.703125 22.609375 62.703125 36.375 
Q 62.703125 50.203125 56.421875 58.203125 
Q 50.140625 66.21875 39.40625 66.21875 
z
M 39.40625 74.21875 
Q 54.734375 74.21875 63.90625 63.9375 
Q 73.09375 53.65625 73.09375 36.375 
Q 73.09375 19.140625 63.90625 8.859375 
Q 54.734375 -1.421875 39.40625 -1.421875 
Q 24.03125 -1.421875 14.8125 8.828125 
Q 5.609375 19.09375 5.609375 36.375 
Q 5.609375 53.65625 14.8125 63.9375 
Q 24.03125 74.21875 39.40625 74.21875 
z
" id="DejaVuSans-79"/>
       <path d="M 19.671875 64.796875 
L 19.671875 37.40625 
L 32.078125 37.40625 
Q 38.96875 37.40625 42.71875 40.96875 
Q 46.484375 44.53125 46.484375 51.125 
Q 46.484375 57.671875 42.71875 61.234375 
Q 38.96875 64.796875 32.078125 64.796875 
z
M 9.8125 72.90625 
L 32.078125 72.90625 
Q 44.34375 72.90625 50.609375 67.359375 
Q 56.890625 61.8125 56.890625 51.125 
Q 56.890625 40.328125 50.609375 34.8125 
Q 44.34375 29.296875 32.078125 29.296875 
L 19.671875 29.296875 
L 19.671875 0 
L 9.8125 0 
z
" id="DejaVuSans-80"/>
      </defs>
      <use xlink:href="#DejaVuSans-67"/>
      <use x="69.824219" xlink:href="#DejaVuSans-79"/>
      <use x="148.535156" xlink:href="#DejaVuSans-80"/>
     </g>
    </g>
   </g>
   <g id="line2d_28">
    <g clip-path="url(#pdf048af377)">
     <use style="fill:#00395b;stroke:#00395b;" x="207.140021" xlink:href="#m29fa696cee" y="182.433139"/>
     <use style="fill:#00395b;stroke:#00395b;" x="180.973976" xlink:href="#m29fa696cee" y="178.394167"/>
     <use style="fill:#00395b;stroke:#00395b;" x="154.807931" xlink:href="#m29fa696cee" y="177.180852"/>
     <use style="fill:#00395b;stroke:#00395b;" x="128.641886" xlink:href="#m29fa696cee" y="177.788152"/>
     <use style="fill:#00395b;stroke:#00395b;" x="102.47584" xlink:href="#m29fa696cee" y="179.805034"/>
     <use style="fill:#00395b;stroke:#00395b;" x="76.309795" xlink:href="#m29fa696cee" y="183.012913"/>
    </g>
   </g>
   <g id="line2d_29">
    <g clip-path="url(#pdf048af377)">
     <use style="fill:#74adc1;stroke:#74adc1;" x="207.140021" xlink:href="#m9c28928c11" y="190.415083"/>
     <use style="fill:#74adc1;stroke:#74adc1;" x="180.973976" xlink:href="#m9c28928c11" y="187.041808"/>
     <use style="fill:#74adc1;stroke:#74adc1;" x="154.807931" xlink:href="#m9c28928c11" y="186.27052"/>
     <use style="fill:#74adc1;stroke:#74adc1;" x="128.641886" xlink:href="#m9c28928c11" y="187.068894"/>
     <use style="fill:#74adc1;stroke:#74adc1;" x="102.47584" xlink:href="#m9c28928c11" y="189.14834"/>
     <use style="fill:#74adc1;stroke:#74adc1;" x="76.309795" xlink:href="#m9c28928c11" y="192.383376"/>
    </g>
   </g>
   <g id="line2d_30">
    <g clip-path="url(#pdf048af377)">
     <use style="fill:#b54036;stroke:#b54036;" x="207.140021" xlink:href="#m8c85156970" y="197.714426"/>
     <use style="fill:#b54036;stroke:#b54036;" x="180.973976" xlink:href="#m8c85156970" y="195.031847"/>
     <use style="fill:#b54036;stroke:#b54036;" x="154.807931" xlink:href="#m8c85156970" y="194.54648"/>
     <use style="fill:#b54036;stroke:#b54036;" x="128.641886" xlink:href="#m8c85156970" y="195.503663"/>
     <use style="fill:#b54036;stroke:#b54036;" x="102.47584" xlink:href="#m8c85156970" y="197.680403"/>
     <use style="fill:#b54036;stroke:#b54036;" x="76.309795" xlink:href="#m8c85156970" y="200.871083"/>
    </g>
   </g>
   <g id="patch_13">
    <path d="M 50.14375 258.84327 
L 50.14375 161.68048 
" style="fill:none;stroke:#000000;stroke-linecap:square;stroke-linejoin:miter;stroke-width:0.8;"/>
   </g>
   <g id="patch_14">
    <path d="M 224.584051 258.84327 
L 224.584051 161.68048 
" style="fill:none;stroke:#000000;stroke-linecap:square;stroke-linejoin:miter;stroke-width:0.8;"/>
   </g>
   <g id="patch_15">
    <path d="M 50.14375 258.84327 
L 224.584051 258.84327 
" style="fill:none;stroke:#000000;stroke-linecap:square;stroke-linejoin:miter;stroke-width:0.8;"/>
   </g>
   <g id="patch_16">
    <path d="M 50.14375 161.68048 
L 224.584051 161.68048 
" style="fill:none;stroke:#000000;stroke-linecap:square;stroke-linejoin:miter;stroke-width:0.8;"/>
   </g>
  </g>
  <g id="axes_4">
   <g id="patch_17">
    <path d="M 250.807656 258.84327 
L 425.247957 258.84327 
L 425.247957 161.68048 
L 250.807656 161.68048 
z
" style="fill:#ffffff;"/>
   </g>
   <g id="matplotlib.axis_7">
    <g id="xtick_10">
     <g id="line2d_31">
      <g>
       <use style="stroke:#000000;stroke-width:0.8;" x="250.807656" xlink:href="#m8352b065a2" y="258.84327"/>
      </g>
     </g>
     <g id="text_17">
      <!-- 2.5 -->
      <g transform="translate(242.856094 273.441707)scale(0.1 -0.1)">
       <use xlink:href="#DejaVuSans-50"/>
       <use x="63.623047" xlink:href="#DejaVuSans-46"/>
       <use x="95.410156" xlink:href="#DejaVuSans-53"/>
      </g>
     </g>
    </g>
    <g id="xtick_11">
     <g id="line2d_32">
      <g>
       <use style="stroke:#000000;stroke-width:0.8;" x="338.027807" xlink:href="#m8352b065a2" y="258.84327"/>
      </g>
     </g>
     <g id="text_18">
      <!-- 3.5 -->
      <g transform="translate(330.076244 273.441707)scale(0.1 -0.1)">
       <use xlink:href="#DejaVuSans-51"/>
       <use x="63.623047" xlink:href="#DejaVuSans-46"/>
       <use x="95.410156" xlink:href="#DejaVuSans-53"/>
      </g>
     </g>
    </g>
    <g id="xtick_12">
     <g id="line2d_33">
      <g>
       <use style="stroke:#000000;stroke-width:0.8;" x="425.247958" xlink:href="#m8352b065a2" y="258.84327"/>
      </g>
     </g>
     <g id="text_19">
      <!-- 4.5 -->
      <g transform="translate(417.296395 273.441707)scale(0.1 -0.1)">
       <use xlink:href="#DejaVuSans-52"/>
       <use x="63.623047" xlink:href="#DejaVuSans-46"/>
       <use x="95.410156" xlink:href="#DejaVuSans-53"/>
      </g>
     </g>
    </g>
    <g id="text_20">
     <!-- $Q_{cond}$ in kW -->
     <g transform="translate(309.827807 287.119832)scale(0.1 -0.1)">
      <use transform="translate(0 0.015625)" xlink:href="#DejaVuSans-Oblique-81"/>
      <use transform="translate(78.710938 -16.390625)scale(0.7)" xlink:href="#DejaVuSans-Oblique-99"/>
      <use transform="translate(117.197266 -16.390625)scale(0.7)" xlink:href="#DejaVuSans-Oblique-111"/>
      <use transform="translate(160.024414 -16.390625)scale(0.7)" xlink:href="#DejaVuSans-Oblique-110"/>
      <use transform="translate(204.389648 -16.390625)scale(0.7)" xlink:href="#DejaVuSans-Oblique-100"/>
      <use transform="translate(251.557617 0.015625)" xlink:href="#DejaVuSans-32"/>
      <use transform="translate(283.344727 0.015625)" xlink:href="#DejaVuSans-105"/>
      <use transform="translate(311.12793 0.015625)" xlink:href="#DejaVuSans-110"/>
      <use transform="translate(374.506836 0.015625)" xlink:href="#DejaVuSans-32"/>
      <use transform="translate(406.293945 0.015625)" xlink:href="#DejaVuSans-107"/>
      <use transform="translate(464.204102 0.015625)" xlink:href="#DejaVuSans-87"/>
     </g>
    </g>
   </g>
   <g id="matplotlib.axis_8">
    <g id="ytick_13">
     <g id="line2d_34">
      <g>
       <use style="stroke:#000000;stroke-width:0.8;" x="250.807656" xlink:href="#mdabdf10f66" y="258.84327"/>
      </g>
     </g>
    </g>
    <g id="ytick_14">
     <g id="line2d_35">
      <g>
       <use style="stroke:#000000;stroke-width:0.8;" x="250.807656" xlink:href="#mdabdf10f66" y="226.455673"/>
      </g>
     </g>
    </g>
    <g id="ytick_15">
     <g id="line2d_36">
      <g>
       <use style="stroke:#000000;stroke-width:0.8;" x="250.807656" xlink:href="#mdabdf10f66" y="194.068077"/>
      </g>
     </g>
    </g>
    <g id="ytick_16">
     <g id="line2d_37">
      <g>
       <use style="stroke:#000000;stroke-width:0.8;" x="250.807656" xlink:href="#mdabdf10f66" y="161.68048"/>
      </g>
     </g>
    </g>
   </g>
   <g id="line2d_38">
    <g clip-path="url(#p258018ffc4)">
     <use style="fill:#00395b;stroke:#00395b;" x="407.803927" xlink:href="#m29fa696cee" y="200.654547"/>
     <use style="fill:#00395b;stroke:#00395b;" x="381.637882" xlink:href="#m29fa696cee" y="196.840418"/>
     <use style="fill:#00395b;stroke:#00395b;" x="355.471837" xlink:href="#m29fa696cee" y="195.627543"/>
     <use style="fill:#00395b;stroke:#00395b;" x="329.305792" xlink:href="#m29fa696cee" y="196.053175"/>
     <use style="fill:#00395b;stroke:#00395b;" x="303.139747" xlink:href="#m29fa696cee" y="197.745633"/>
     <use style="fill:#00395b;stroke:#00395b;" x="276.973701" xlink:href="#m29fa696cee" y="200.564252"/>
    </g>
   </g>
   <g id="line2d_39">
    <g clip-path="url(#p258018ffc4)">
     <use style="fill:#74adc1;stroke:#74adc1;" x="407.803927" xlink:href="#m9c28928c11" y="207.723791"/>
     <use style="fill:#74adc1;stroke:#74adc1;" x="381.637882" xlink:href="#m9c28928c11" y="204.501372"/>
     <use style="fill:#74adc1;stroke:#74adc1;" x="355.471837" xlink:href="#m9c28928c11" y="203.671591"/>
     <use style="fill:#74adc1;stroke:#74adc1;" x="329.305792" xlink:href="#m9c28928c11" y="204.264905"/>
     <use style="fill:#74adc1;stroke:#74adc1;" x="303.139747" xlink:href="#m9c28928c11" y="206.039748"/>
     <use style="fill:#74adc1;stroke:#74adc1;" x="276.973701" xlink:href="#m9c28928c11" y="208.852094"/>
    </g>
   </g>
   <g id="line2d_40">
    <g clip-path="url(#p258018ffc4)">
     <use style="fill:#b54036;stroke:#b54036;" x="407.803927" xlink:href="#m8c85156970" y="214.196711"/>
     <use style="fill:#b54036;stroke:#b54036;" x="381.637882" xlink:href="#m8c85156970" y="211.568551"/>
     <use style="fill:#b54036;stroke:#b54036;" x="355.471837" xlink:href="#m8c85156970" y="210.988639"/>
     <use style="fill:#b54036;stroke:#b54036;" x="329.305792" xlink:href="#m8c85156970" y="211.720376"/>
     <use style="fill:#b54036;stroke:#b54036;" x="303.139747" xlink:href="#m8c85156970" y="213.606853"/>
     <use style="fill:#b54036;stroke:#b54036;" x="276.973701" xlink:href="#m8c85156970" y="216.350061"/>
    </g>
   </g>
   <g id="patch_18">
    <path d="M 250.807656 258.84327 
L 250.807656 161.68048 
" style="fill:none;stroke:#000000;stroke-linecap:square;stroke-linejoin:miter;stroke-width:0.8;"/>
   </g>
   <g id="patch_19">
    <path d="M 425.247957 258.84327 
L 425.247957 161.68048 
" style="fill:none;stroke:#000000;stroke-linecap:square;stroke-linejoin:miter;stroke-width:0.8;"/>
   </g>
   <g id="patch_20">
    <path d="M 250.807656 258.84327 
L 425.247958 258.84327 
" style="fill:none;stroke:#000000;stroke-linecap:square;stroke-linejoin:miter;stroke-width:0.8;"/>
   </g>
   <g id="patch_21">
    <path d="M 250.807656 161.68048 
L 425.247958 161.68048 
" style="fill:none;stroke:#000000;stroke-linecap:square;stroke-linejoin:miter;stroke-width:0.8;"/>
   </g>
  </g>
  <g id="text_21">
   <!-- COP and $\epsilon$ depending on load and geothermal mean temperature -->
   <g transform="translate(22.91976 15.952514)scale(0.12 -0.12)">
    <defs>
     <path d="M 34.28125 27.484375 
Q 23.390625 27.484375 19.1875 25 
Q 14.984375 22.515625 14.984375 16.5 
Q 14.984375 11.71875 18.140625 8.90625 
Q 21.296875 6.109375 26.703125 6.109375 
Q 34.1875 6.109375 38.703125 11.40625 
Q 43.21875 16.703125 43.21875 25.484375 
L 43.21875 27.484375 
z
M 52.203125 31.203125 
L 52.203125 0 
L 43.21875 0 
L 43.21875 8.296875 
Q 40.140625 3.328125 35.546875 0.953125 
Q 30.953125 -1.421875 24.3125 -1.421875 
Q 15.921875 -1.421875 10.953125 3.296875 
Q 6 8.015625 6 15.921875 
Q 6 25.140625 12.171875 29.828125 
Q 18.359375 34.515625 30.609375 34.515625 
L 43.21875 34.515625 
L 43.21875 35.40625 
Q 43.21875 41.609375 39.140625 45 
Q 35.0625 48.390625 27.6875 48.390625 
Q 23 48.390625 18.546875 47.265625 
Q 14.109375 46.140625 10.015625 43.890625 
L 10.015625 52.203125 
Q 14.9375 54.109375 19.578125 55.046875 
Q 24.21875 56 28.609375 56 
Q 40.484375 56 46.34375 49.84375 
Q 52.203125 43.703125 52.203125 31.203125 
z
" id="DejaVuSans-97"/>
     <path d="M 45.40625 46.390625 
L 45.40625 75.984375 
L 54.390625 75.984375 
L 54.390625 0 
L 45.40625 0 
L 45.40625 8.203125 
Q 42.578125 3.328125 38.25 0.953125 
Q 33.9375 -1.421875 27.875 -1.421875 
Q 17.96875 -1.421875 11.734375 6.484375 
Q 5.515625 14.40625 5.515625 27.296875 
Q 5.515625 40.1875 11.734375 48.09375 
Q 17.96875 56 27.875 56 
Q 33.9375 56 38.25 53.625 
Q 42.578125 51.265625 45.40625 46.390625 
z
M 14.796875 27.296875 
Q 14.796875 17.390625 18.875 11.75 
Q 22.953125 6.109375 30.078125 6.109375 
Q 37.203125 6.109375 41.296875 11.75 
Q 45.40625 17.390625 45.40625 27.296875 
Q 45.40625 37.203125 41.296875 42.84375 
Q 37.203125 48.484375 30.078125 48.484375 
Q 22.953125 48.484375 18.875 42.84375 
Q 14.796875 37.203125 14.796875 27.296875 
z
" id="DejaVuSans-100"/>
     <path d="M 56.203125 29.59375 
L 56.203125 25.203125 
L 14.890625 25.203125 
Q 15.484375 15.921875 20.484375 11.0625 
Q 25.484375 6.203125 34.421875 6.203125 
Q 39.59375 6.203125 44.453125 7.46875 
Q 49.3125 8.734375 54.109375 11.28125 
L 54.109375 2.78125 
Q 49.265625 0.734375 44.1875 -0.34375 
Q 39.109375 -1.421875 33.890625 -1.421875 
Q 20.796875 -1.421875 13.15625 6.1875 
Q 5.515625 13.8125 5.515625 26.8125 
Q 5.515625 40.234375 12.765625 48.109375 
Q 20.015625 56 32.328125 56 
Q 43.359375 56 49.78125 48.890625 
Q 56.203125 41.796875 56.203125 29.59375 
z
M 47.21875 32.234375 
Q 47.125 39.59375 43.09375 43.984375 
Q 39.0625 48.390625 32.421875 48.390625 
Q 24.90625 48.390625 20.390625 44.140625 
Q 15.875 39.890625 15.1875 32.171875 
z
" id="DejaVuSans-101"/>
     <path d="M 18.109375 8.203125 
L 18.109375 -20.796875 
L 9.078125 -20.796875 
L 9.078125 54.6875 
L 18.109375 54.6875 
L 18.109375 46.390625 
Q 20.953125 51.265625 25.265625 53.625 
Q 29.59375 56 35.59375 56 
Q 45.5625 56 51.78125 48.09375 
Q 58.015625 40.1875 58.015625 27.296875 
Q 58.015625 14.40625 51.78125 6.484375 
Q 45.5625 -1.421875 35.59375 -1.421875 
Q 29.59375 -1.421875 25.265625 0.953125 
Q 20.953125 3.328125 18.109375 8.203125 
z
M 48.6875 27.296875 
Q 48.6875 37.203125 44.609375 42.84375 
Q 40.53125 48.484375 33.40625 48.484375 
Q 26.265625 48.484375 22.1875 42.84375 
Q 18.109375 37.203125 18.109375 27.296875 
Q 18.109375 17.390625 22.1875 11.75 
Q 26.265625 6.109375 33.40625 6.109375 
Q 40.53125 6.109375 44.609375 11.75 
Q 48.6875 17.390625 48.6875 27.296875 
z
" id="DejaVuSans-112"/>
     <path d="M 45.40625 27.984375 
Q 45.40625 37.75 41.375 43.109375 
Q 37.359375 48.484375 30.078125 48.484375 
Q 22.859375 48.484375 18.828125 43.109375 
Q 14.796875 37.75 14.796875 27.984375 
Q 14.796875 18.265625 18.828125 12.890625 
Q 22.859375 7.515625 30.078125 7.515625 
Q 37.359375 7.515625 41.375 12.890625 
Q 45.40625 18.265625 45.40625 27.984375 
z
M 54.390625 6.78125 
Q 54.390625 -7.171875 48.1875 -13.984375 
Q 42 -20.796875 29.203125 -20.796875 
Q 24.46875 -20.796875 20.265625 -20.09375 
Q 16.0625 -19.390625 12.109375 -17.921875 
L 12.109375 -9.1875 
Q 16.0625 -11.328125 19.921875 -12.34375 
Q 23.78125 -13.375 27.78125 -13.375 
Q 36.625 -13.375 41.015625 -8.765625 
Q 45.40625 -4.15625 45.40625 5.171875 
L 45.40625 9.625 
Q 42.625 4.78125 38.28125 2.390625 
Q 33.9375 0 27.875 0 
Q 17.828125 0 11.671875 7.65625 
Q 5.515625 15.328125 5.515625 27.984375 
Q 5.515625 40.671875 11.671875 48.328125 
Q 17.828125 56 27.875 56 
Q 33.9375 56 38.28125 53.609375 
Q 42.625 51.21875 45.40625 46.390625 
L 45.40625 54.6875 
L 54.390625 54.6875 
z
" id="DejaVuSans-103"/>
     <path d="M 30.609375 48.390625 
Q 23.390625 48.390625 19.1875 42.75 
Q 14.984375 37.109375 14.984375 27.296875 
Q 14.984375 17.484375 19.15625 11.84375 
Q 23.34375 6.203125 30.609375 6.203125 
Q 37.796875 6.203125 41.984375 11.859375 
Q 46.1875 17.53125 46.1875 27.296875 
Q 46.1875 37.015625 41.984375 42.703125 
Q 37.796875 48.390625 30.609375 48.390625 
z
M 30.609375 56 
Q 42.328125 56 49.015625 48.375 
Q 55.71875 40.765625 55.71875 27.296875 
Q 55.71875 13.875 49.015625 6.21875 
Q 42.328125 -1.421875 30.609375 -1.421875 
Q 18.84375 -1.421875 12.171875 6.21875 
Q 5.515625 13.875 5.515625 27.296875 
Q 5.515625 40.765625 12.171875 48.375 
Q 18.84375 56 30.609375 56 
z
" id="DejaVuSans-111"/>
     <path d="M 9.421875 75.984375 
L 18.40625 75.984375 
L 18.40625 0 
L 9.421875 0 
z
" id="DejaVuSans-108"/>
     <path d="M 18.3125 70.21875 
L 18.3125 54.6875 
L 36.8125 54.6875 
L 36.8125 47.703125 
L 18.3125 47.703125 
L 18.3125 18.015625 
Q 18.3125 11.328125 20.140625 9.421875 
Q 21.96875 7.515625 27.59375 7.515625 
L 36.8125 7.515625 
L 36.8125 0 
L 27.59375 0 
Q 17.1875 0 13.234375 3.875 
Q 9.28125 7.765625 9.28125 18.015625 
L 9.28125 47.703125 
L 2.6875 47.703125 
L 2.6875 54.6875 
L 9.28125 54.6875 
L 9.28125 70.21875 
z
" id="DejaVuSans-116"/>
     <path d="M 54.890625 33.015625 
L 54.890625 0 
L 45.90625 0 
L 45.90625 32.71875 
Q 45.90625 40.484375 42.875 44.328125 
Q 39.84375 48.1875 33.796875 48.1875 
Q 26.515625 48.1875 22.3125 43.546875 
Q 18.109375 38.921875 18.109375 30.90625 
L 18.109375 0 
L 9.078125 0 
L 9.078125 75.984375 
L 18.109375 75.984375 
L 18.109375 46.1875 
Q 21.34375 51.125 25.703125 53.5625 
Q 30.078125 56 35.796875 56 
Q 45.21875 56 50.046875 50.171875 
Q 54.890625 44.34375 54.890625 33.015625 
z
" id="DejaVuSans-104"/>
     <path d="M 41.109375 46.296875 
Q 39.59375 47.171875 37.8125 47.578125 
Q 36.03125 48 33.890625 48 
Q 26.265625 48 22.1875 43.046875 
Q 18.109375 38.09375 18.109375 28.8125 
L 18.109375 0 
L 9.078125 0 
L 9.078125 54.6875 
L 18.109375 54.6875 
L 18.109375 46.1875 
Q 20.953125 51.171875 25.484375 53.578125 
Q 30.03125 56 36.53125 56 
Q 37.453125 56 38.578125 55.875 
Q 39.703125 55.765625 41.0625 55.515625 
z
" id="DejaVuSans-114"/>
     <path d="M 52 44.1875 
Q 55.375 50.25 60.0625 53.125 
Q 64.75 56 71.09375 56 
Q 79.640625 56 84.28125 50.015625 
Q 88.921875 44.046875 88.921875 33.015625 
L 88.921875 0 
L 79.890625 0 
L 79.890625 32.71875 
Q 79.890625 40.578125 77.09375 44.375 
Q 74.3125 48.1875 68.609375 48.1875 
Q 61.625 48.1875 57.5625 43.546875 
Q 53.515625 38.921875 53.515625 30.90625 
L 53.515625 0 
L 44.484375 0 
L 44.484375 32.71875 
Q 44.484375 40.625 41.703125 44.40625 
Q 38.921875 48.1875 33.109375 48.1875 
Q 26.21875 48.1875 22.15625 43.53125 
Q 18.109375 38.875 18.109375 30.90625 
L 18.109375 0 
L 9.078125 0 
L 9.078125 54.6875 
L 18.109375 54.6875 
L 18.109375 46.1875 
Q 21.1875 51.21875 25.484375 53.609375 
Q 29.78125 56 35.6875 56 
Q 41.65625 56 45.828125 52.96875 
Q 50 49.953125 52 44.1875 
z
" id="DejaVuSans-109"/>
     <path d="M 8.5 21.578125 
L 8.5 54.6875 
L 17.484375 54.6875 
L 17.484375 21.921875 
Q 17.484375 14.15625 20.5 10.265625 
Q 23.53125 6.390625 29.59375 6.390625 
Q 36.859375 6.390625 41.078125 11.03125 
Q 45.3125 15.671875 45.3125 23.6875 
L 45.3125 54.6875 
L 54.296875 54.6875 
L 54.296875 0 
L 45.3125 0 
L 45.3125 8.40625 
Q 42.046875 3.421875 37.71875 1 
Q 33.40625 -1.421875 27.6875 -1.421875 
Q 18.265625 -1.421875 13.375 4.4375 
Q 8.5 10.296875 8.5 21.578125 
z
M 31.109375 56 
z
" id="DejaVuSans-117"/>
    </defs>
    <use transform="translate(0 0.015625)" xlink:href="#DejaVuSans-67"/>
    <use transform="translate(69.824219 0.015625)" xlink:href="#DejaVuSans-79"/>
    <use transform="translate(148.535156 0.015625)" xlink:href="#DejaVuSans-80"/>
    <use transform="translate(208.837891 0.015625)" xlink:href="#DejaVuSans-32"/>
    <use transform="translate(240.625 0.015625)" xlink:href="#DejaVuSans-97"/>
    <use transform="translate(301.904297 0.015625)" xlink:href="#DejaVuSans-110"/>
    <use transform="translate(365.283203 0.015625)" xlink:href="#DejaVuSans-100"/>
    <use transform="translate(428.759766 0.015625)" xlink:href="#DejaVuSans-32"/>
    <use transform="translate(460.546875 0.015625)" xlink:href="#DejaVuSans-Oblique-949"/>
    <use transform="translate(514.599609 0.015625)" xlink:href="#DejaVuSans-32"/>
    <use transform="translate(546.386719 0.015625)" xlink:href="#DejaVuSans-100"/>
    <use transform="translate(609.863281 0.015625)" xlink:href="#DejaVuSans-101"/>
    <use transform="translate(671.386719 0.015625)" xlink:href="#DejaVuSans-112"/>
    <use transform="translate(734.863281 0.015625)" xlink:href="#DejaVuSans-101"/>
    <use transform="translate(796.386719 0.015625)" xlink:href="#DejaVuSans-110"/>
    <use transform="translate(859.765625 0.015625)" xlink:href="#DejaVuSans-100"/>
    <use transform="translate(923.242188 0.015625)" xlink:href="#DejaVuSans-105"/>
    <use transform="translate(951.025391 0.015625)" xlink:href="#DejaVuSans-110"/>
    <use transform="translate(1014.404297 0.015625)" xlink:href="#DejaVuSans-103"/>
    <use transform="translate(1077.880859 0.015625)" xlink:href="#DejaVuSans-32"/>
    <use transform="translate(1109.667969 0.015625)" xlink:href="#DejaVuSans-111"/>
    <use transform="translate(1170.849609 0.015625)" xlink:href="#DejaVuSans-110"/>
    <use transform="translate(1234.228516 0.015625)" xlink:href="#DejaVuSans-32"/>
    <use transform="translate(1266.015625 0.015625)" xlink:href="#DejaVuSans-108"/>
    <use transform="translate(1293.798828 0.015625)" xlink:href="#DejaVuSans-111"/>
    <use transform="translate(1354.980469 0.015625)" xlink:href="#DejaVuSans-97"/>
    <use transform="translate(1416.259766 0.015625)" xlink:href="#DejaVuSans-100"/>
    <use transform="translate(1479.736328 0.015625)" xlink:href="#DejaVuSans-32"/>
    <use transform="translate(1511.523438 0.015625)" xlink:href="#DejaVuSans-97"/>
    <use transform="translate(1572.802734 0.015625)" xlink:href="#DejaVuSans-110"/>
    <use transform="translate(1636.181641 0.015625)" xlink:href="#DejaVuSans-100"/>
    <use transform="translate(1699.658203 0.015625)" xlink:href="#DejaVuSans-32"/>
    <use transform="translate(1731.445312 0.015625)" xlink:href="#DejaVuSans-103"/>
    <use transform="translate(1794.921875 0.015625)" xlink:href="#DejaVuSans-101"/>
    <use transform="translate(1856.445312 0.015625)" xlink:href="#DejaVuSans-111"/>
    <use transform="translate(1917.626953 0.015625)" xlink:href="#DejaVuSans-116"/>
    <use transform="translate(1956.835938 0.015625)" xlink:href="#DejaVuSans-104"/>
    <use transform="translate(2020.214844 0.015625)" xlink:href="#DejaVuSans-101"/>
    <use transform="translate(2081.738281 0.015625)" xlink:href="#DejaVuSans-114"/>
    <use transform="translate(2122.851562 0.015625)" xlink:href="#DejaVuSans-109"/>
    <use transform="translate(2220.263672 0.015625)" xlink:href="#DejaVuSans-97"/>
    <use transform="translate(2281.542969 0.015625)" xlink:href="#DejaVuSans-108"/>
    <use transform="translate(2309.326172 0.015625)" xlink:href="#DejaVuSans-32"/>
    <use transform="translate(2341.113281 0.015625)" xlink:href="#DejaVuSans-109"/>
    <use transform="translate(2438.525391 0.015625)" xlink:href="#DejaVuSans-101"/>
    <use transform="translate(2500.048828 0.015625)" xlink:href="#DejaVuSans-97"/>
    <use transform="translate(2561.328125 0.015625)" xlink:href="#DejaVuSans-110"/>
    <use transform="translate(2624.707031 0.015625)" xlink:href="#DejaVuSans-32"/>
    <use transform="translate(2656.494141 0.015625)" xlink:href="#DejaVuSans-116"/>
    <use transform="translate(2695.703125 0.015625)" xlink:href="#DejaVuSans-101"/>
    <use transform="translate(2757.226562 0.015625)" xlink:href="#DejaVuSans-109"/>
    <use transform="translate(2854.638672 0.015625)" xlink:href="#DejaVuSans-112"/>
    <use transform="translate(2918.115234 0.015625)" xlink:href="#DejaVuSans-101"/>
    <use transform="translate(2979.638672 0.015625)" xlink:href="#DejaVuSans-114"/>
    <use transform="translate(3020.751953 0.015625)" xlink:href="#DejaVuSans-97"/>
    <use transform="translate(3082.03125 0.015625)" xlink:href="#DejaVuSans-116"/>
    <use transform="translate(3121.240234 0.015625)" xlink:href="#DejaVuSans-117"/>
    <use transform="translate(3184.619141 0.015625)" xlink:href="#DejaVuSans-114"/>
    <use transform="translate(3225.732422 0.015625)" xlink:href="#DejaVuSans-101"/>
   </g>
  </g>
  <g id="legend_1">
   <g id="patch_22">
    <path d="M 40.75976 320.99976 
L 425.55976 320.99976 
Q 427.55976 320.99976 427.55976 318.99976 
L 427.55976 304.301322 
Q 427.55976 302.301322 425.55976 302.301322 
L 40.75976 302.301322 
Q 38.75976 302.301322 38.75976 304.301322 
L 38.75976 318.99976 
Q 38.75976 320.99976 40.75976 320.99976 
z
" style="fill:#ffffff;opacity:0.8;stroke:#cccccc;stroke-linejoin:miter;"/>
   </g>
   <g id="line2d_41"/>
   <g id="line2d_42">
    <g>
     <use style="fill:#00395b;stroke:#00395b;" x="52.75976" xlink:href="#m29fa696cee" y="310.39976"/>
    </g>
   </g>
   <g id="text_22">
    <!-- $T_{geo}$ = 10.5 C -->
    <g transform="translate(70.75976 313.89976)scale(0.1 -0.1)">
     <defs>
      <path d="M 5.90625 72.90625 
L 67.578125 72.90625 
L 66.015625 64.59375 
L 39.984375 64.59375 
L 27.484375 0 
L 17.578125 0 
L 30.078125 64.59375 
L 4.296875 64.59375 
z
" id="DejaVuSans-Oblique-84"/>
      <path d="M 59.625 54.6875 
L 50.296875 6.78125 
Q 47.609375 -7.125 40.015625 -13.953125 
Q 32.421875 -20.796875 19.578125 -20.796875 
Q 14.84375 -20.796875 10.78125 -20.09375 
Q 6.734375 -19.390625 3.21875 -17.921875 
L 4.890625 -9.1875 
Q 8.203125 -11.328125 11.90625 -12.34375 
Q 15.625 -13.375 19.828125 -13.375 
Q 28.375 -13.375 33.859375 -8.703125 
Q 39.359375 -4.046875 41.109375 4.6875 
L 41.890625 8.796875 
Q 38.140625 4.5 33.15625 2.25 
Q 28.171875 0 22.40625 0 
Q 14.109375 0 9.34375 5.484375 
Q 4.59375 10.984375 4.59375 20.609375 
Q 4.59375 28.171875 7.46875 35.421875 
Q 10.359375 42.671875 15.578125 48.296875 
Q 19.046875 52 23.65625 54 
Q 28.265625 56 33.296875 56 
Q 38.8125 56 42.90625 53.4375 
Q 47.015625 50.875 49.03125 46.1875 
L 50.59375 54.6875 
z
M 46.09375 34.625 
Q 46.09375 41.265625 42.96875 44.875 
Q 39.84375 48.484375 34.078125 48.484375 
Q 30.515625 48.484375 27.296875 47.0625 
Q 24.078125 45.65625 21.78125 43.109375 
Q 18.0625 38.921875 15.984375 33.234375 
Q 13.921875 27.546875 13.921875 21.484375 
Q 13.921875 14.75 17.0625 11.125 
Q 20.21875 7.515625 26.125 7.515625 
Q 34.671875 7.515625 40.375 15.25 
Q 46.09375 23 46.09375 34.625 
z
" id="DejaVuSans-Oblique-103"/>
      <path d="M 48.09375 32.234375 
Q 48.25 33.015625 48.3125 33.84375 
Q 48.390625 34.671875 48.390625 35.5 
Q 48.390625 41.453125 44.890625 44.921875 
Q 41.40625 48.390625 35.40625 48.390625 
Q 28.71875 48.390625 23.578125 44.15625 
Q 18.453125 39.9375 15.828125 32.171875 
z
M 55.90625 25.203125 
L 14.109375 25.203125 
Q 13.8125 23.34375 13.71875 22.265625 
Q 13.625 21.1875 13.625 20.40625 
Q 13.625 13.625 17.796875 9.90625 
Q 21.96875 6.203125 29.59375 6.203125 
Q 35.453125 6.203125 40.671875 7.515625 
Q 45.90625 8.84375 50.390625 11.375 
L 48.6875 2.484375 
Q 43.84375 0.53125 38.6875 -0.4375 
Q 33.546875 -1.421875 28.21875 -1.421875 
Q 16.84375 -1.421875 10.71875 4.015625 
Q 4.59375 9.46875 4.59375 19.484375 
Q 4.59375 28.03125 7.640625 35.375 
Q 10.6875 42.71875 16.609375 48.484375 
Q 20.40625 52.09375 25.65625 54.046875 
Q 30.90625 56 36.8125 56 
Q 46.09375 56 51.578125 50.4375 
Q 57.078125 44.875 57.078125 35.5 
Q 57.078125 33.25 56.78125 30.6875 
Q 56.5 28.125 55.90625 25.203125 
z
" id="DejaVuSans-Oblique-101"/>
      <path d="M 10.59375 45.40625 
L 73.1875 45.40625 
L 73.1875 37.203125 
L 10.59375 37.203125 
z
M 10.59375 25.484375 
L 73.1875 25.484375 
L 73.1875 17.1875 
L 10.59375 17.1875 
z
" id="DejaVuSans-61"/>
      <path d="M 25 67.921875 
Q 21.09375 67.921875 18.40625 65.203125 
Q 15.71875 62.5 15.71875 58.59375 
Q 15.71875 54.734375 18.40625 52.078125 
Q 21.09375 49.421875 25 49.421875 
Q 28.90625 49.421875 31.59375 52.078125 
Q 34.28125 54.734375 34.28125 58.59375 
Q 34.28125 62.453125 31.5625 65.1875 
Q 28.859375 67.921875 25 67.921875 
z
M 25 74.21875 
Q 28.125 74.21875 31 73.015625 
Q 33.890625 71.828125 35.984375 69.578125 
Q 38.234375 67.390625 39.359375 64.59375 
Q 40.484375 61.8125 40.484375 58.59375 
Q 40.484375 52.15625 35.96875 47.6875 
Q 31.453125 43.21875 24.90625 43.21875 
Q 18.3125 43.21875 13.90625 47.609375 
Q 9.515625 52 9.515625 58.59375 
Q 9.515625 65.140625 14 69.671875 
Q 18.5 74.21875 25 74.21875 
z
" id="DejaVuSans-176"/>
     </defs>
     <use transform="translate(0 0.78125)" xlink:href="#DejaVuSans-Oblique-84"/>
     <use transform="translate(61.083984 -15.625)scale(0.7)" xlink:href="#DejaVuSans-Oblique-103"/>
     <use transform="translate(105.517578 -15.625)scale(0.7)" xlink:href="#DejaVuSans-Oblique-101"/>
     <use transform="translate(148.583984 -15.625)scale(0.7)" xlink:href="#DejaVuSans-Oblique-111"/>
     <use transform="translate(194.145508 0.78125)" xlink:href="#DejaVuSans-32"/>
     <use transform="translate(225.932617 0.78125)" xlink:href="#DejaVuSans-61"/>
     <use transform="translate(309.72168 0.78125)" xlink:href="#DejaVuSans-32"/>
     <use transform="translate(341.508789 0.78125)" xlink:href="#DejaVuSans-49"/>
     <use transform="translate(405.131836 0.78125)" xlink:href="#DejaVuSans-48"/>
     <use transform="translate(468.754883 0.78125)" xlink:href="#DejaVuSans-46"/>
     <use transform="translate(500.541992 0.78125)" xlink:href="#DejaVuSans-53"/>
     <use transform="translate(564.165039 0.78125)" xlink:href="#DejaVuSans-32"/>
     <use transform="translate(595.952148 0.78125)" xlink:href="#DejaVuSans-176"/>
     <use transform="translate(645.952148 0.78125)" xlink:href="#DejaVuSans-67"/>
    </g>
   </g>
   <g id="line2d_43"/>
   <g id="line2d_44">
    <g>
     <use style="fill:#74adc1;stroke:#74adc1;" x="199.65976" xlink:href="#m9c28928c11" y="310.39976"/>
    </g>
   </g>
   <g id="text_23">
    <!-- $T_{geo}$ = 8.5 C -->
    <g transform="translate(217.65976 313.89976)scale(0.1 -0.1)">
     <defs>
      <path d="M 31.78125 34.625 
Q 24.75 34.625 20.71875 30.859375 
Q 16.703125 27.09375 16.703125 20.515625 
Q 16.703125 13.921875 20.71875 10.15625 
Q 24.75 6.390625 31.78125 6.390625 
Q 38.8125 6.390625 42.859375 10.171875 
Q 46.921875 13.96875 46.921875 20.515625 
Q 46.921875 27.09375 42.890625 30.859375 
Q 38.875 34.625 31.78125 34.625 
z
M 21.921875 38.8125 
Q 15.578125 40.375 12.03125 44.71875 
Q 8.5 49.078125 8.5 55.328125 
Q 8.5 64.0625 14.71875 69.140625 
Q 20.953125 74.21875 31.78125 74.21875 
Q 42.671875 74.21875 48.875 69.140625 
Q 55.078125 64.0625 55.078125 55.328125 
Q 55.078125 49.078125 51.53125 44.71875 
Q 48 40.375 41.703125 38.8125 
Q 48.828125 37.15625 52.796875 32.3125 
Q 56.78125 27.484375 56.78125 20.515625 
Q 56.78125 9.90625 50.3125 4.234375 
Q 43.84375 -1.421875 31.78125 -1.421875 
Q 19.734375 -1.421875 13.25 4.234375 
Q 6.78125 9.90625 6.78125 20.515625 
Q 6.78125 27.484375 10.78125 32.3125 
Q 14.796875 37.15625 21.921875 38.8125 
z
M 18.3125 54.390625 
Q 18.3125 48.734375 21.84375 45.5625 
Q 25.390625 42.390625 31.78125 42.390625 
Q 38.140625 42.390625 41.71875 45.5625 
Q 45.3125 48.734375 45.3125 54.390625 
Q 45.3125 60.0625 41.71875 63.234375 
Q 38.140625 66.40625 31.78125 66.40625 
Q 25.390625 66.40625 21.84375 63.234375 
Q 18.3125 60.0625 18.3125 54.390625 
z
" id="DejaVuSans-56"/>
     </defs>
     <use transform="translate(0 0.78125)" xlink:href="#DejaVuSans-Oblique-84"/>
     <use transform="translate(61.083984 -15.625)scale(0.7)" xlink:href="#DejaVuSans-Oblique-103"/>
     <use transform="translate(105.517578 -15.625)scale(0.7)" xlink:href="#DejaVuSans-Oblique-101"/>
     <use transform="translate(148.583984 -15.625)scale(0.7)" xlink:href="#DejaVuSans-Oblique-111"/>
     <use transform="translate(194.145508 0.78125)" xlink:href="#DejaVuSans-32"/>
     <use transform="translate(225.932617 0.78125)" xlink:href="#DejaVuSans-61"/>
     <use transform="translate(309.72168 0.78125)" xlink:href="#DejaVuSans-32"/>
     <use transform="translate(341.508789 0.78125)" xlink:href="#DejaVuSans-56"/>
     <use transform="translate(405.131836 0.78125)" xlink:href="#DejaVuSans-46"/>
     <use transform="translate(436.918945 0.78125)" xlink:href="#DejaVuSans-53"/>
     <use transform="translate(500.541992 0.78125)" xlink:href="#DejaVuSans-32"/>
     <use transform="translate(532.329102 0.78125)" xlink:href="#DejaVuSans-176"/>
     <use transform="translate(582.329102 0.78125)" xlink:href="#DejaVuSans-67"/>
    </g>
   </g>
   <g id="line2d_45"/>
   <g id="line2d_46">
    <g>
     <use style="fill:#b54036;stroke:#b54036;" x="340.25976" xlink:href="#m8c85156970" y="310.39976"/>
    </g>
   </g>
   <g id="text_24">
    <!-- $T_{geo}$ = 6.5 C -->
    <g transform="translate(358.25976 313.89976)scale(0.1 -0.1)">
     <use transform="translate(0 0.78125)" xlink:href="#DejaVuSans-Oblique-84"/>
     <use transform="translate(61.083984 -15.625)scale(0.7)" xlink:href="#DejaVuSans-Oblique-103"/>
     <use transform="translate(105.517578 -15.625)scale(0.7)" xlink:href="#DejaVuSans-Oblique-101"/>
     <use transform="translate(148.583984 -15.625)scale(0.7)" xlink:href="#DejaVuSans-Oblique-111"/>
     <use transform="translate(194.145508 0.78125)" xlink:href="#DejaVuSans-32"/>
     <use transform="translate(225.932617 0.78125)" xlink:href="#DejaVuSans-61"/>
     <use transform="translate(309.72168 0.78125)" xlink:href="#DejaVuSans-32"/>
     <use transform="translate(341.508789 0.78125)" xlink:href="#DejaVuSans-54"/>
     <use transform="translate(405.131836 0.78125)" xlink:href="#DejaVuSans-46"/>
     <use transform="translate(436.918945 0.78125)" xlink:href="#DejaVuSans-53"/>
     <use transform="translate(500.541992 0.78125)" xlink:href="#DejaVuSans-32"/>
     <use transform="translate(532.329102 0.78125)" xlink:href="#DejaVuSans-176"/>
     <use transform="translate(582.329102 0.78125)" xlink:href="#DejaVuSans-67"/>
    </g>
   </g>
  </g>
 </g>
 <defs>
  <clipPath id="pa8a7835a9a">
   <rect height="97.16279" width="174.440301" x="50.14375" y="45.959085"/>
  </clipPath>
  <clipPath id="p19c6755f44">
   <rect height="97.16279" width="174.440301" x="250.807656" y="45.959085"/>
  </clipPath>
  <clipPath id="pdf048af377">
   <rect height="97.16279" width="174.440301" x="50.14375" y="161.68048"/>
  </clipPath>
  <clipPath id="p258018ffc4">
   <rect height="97.16279" width="174.440301" x="250.807656" y="161.68048"/>
  </clipPath>
 </defs>
</svg>
