<?xml version="1.0" encoding="utf-8" standalone="no"?>
<!DOCTYPE svg PUBLIC "-//W3C//DTD SVG 1.1//EN"
  "http://www.w3.org/Graphics/SVG/1.1/DTD/svg11.dtd">
<svg xmlns:xlink="http://www.w3.org/1999/xlink" width="469.19952pt" height="365.977885pt" viewBox="0 0 469.19952 365.977885" xmlns="http://www.w3.org/2000/svg" version="1.1">
 <metadata>
  <rdf:RDF xmlns:dc="http://purl.org/dc/elements/1.1/" xmlns:cc="http://creativecommons.org/ns#" xmlns:rdf="http://www.w3.org/1999/02/22-rdf-syntax-ns#">
   <cc:Work>
    <dc:type rdf:resource="http://purl.org/dc/dcmitype/StillImage"/>
    <dc:date>2026-05-02T13:34:41.929341</dc:date>
    <dc:format>image/svg+xml</dc:format>
    <dc:creator>
     <cc:Agent>
      <dc:title>Matplotlib v3.10.9, https://matplotlib.org/</dc:title>
     </cc:Agent>
    </dc:creator>
   </cc:Work>
  </rdf:RDF>
 </metadata>
 <defs>
  <style type="text/css">*{stroke-linejoin: round; stroke-linecap: butt}</style>
 </defs>
 <g id="figure_1">
  <g id="patch_1">
   <path d="M 0 365.977885 
L 469.19952 365.977885 
L 469.19952 0 
L 0 0 
z
"/>
  </g>
  <g id="axes_1">
   <g id="patch_2">
    <path d="M 105.78125 160.97726 
L 264.189364 160.97726 
L 264.189364 41.86798 
L 105.78125 41.86798 
z
"/>
   </g>
   <g id="patch_3">
    <path d="M 105.78125 47.282038 
L 241.923567 47.282038 
L 241.923567 60.020999 
L 105.78125 60.020999 
z
" clip-path="url(#p92d95d55d7)" style="fill: #3a9dce"/>
   </g>
   <g id="patch_4">
    <path d="M 105.78125 63.205739 
L 225.4923 63.205739 
L 225.4923 75.944699 
L 105.78125 75.944699 
z
" clip-path="url(#p92d95d55d7)" style="fill: #f08e2b"/>
   </g>
   <g id="patch_5">
    <path d="M 105.78125 79.129439 
L 204.714807 79.129439 
L 204.714807 91.8684 
L 105.78125 91.8684 
z
" clip-path="url(#p92d95d55d7)" style="fill: #f08e2b"/>
   </g>
   <g id="patch_6">
    <path d="M 105.78125 95.05314 
L 192.264357 95.05314 
L 192.264357 107.7921 
L 105.78125 107.7921 
z
" clip-path="url(#p92d95d55d7)" style="fill: #f08e2b"/>
   </g>
   <g id="patch_7">
    <path d="M 105.78125 110.97684 
L 187.485017 110.97684 
L 187.485017 123.715801 
L 105.78125 123.715801 
z
" clip-path="url(#p92d95d55d7)" style="fill: #f08e2b"/>
   </g>
   <g id="patch_8">
    <path d="M 105.78125 126.900541 
L 180.273107 126.900541 
L 180.273107 139.639501 
L 105.78125 139.639501 
z
" clip-path="url(#p92d95d55d7)" style="fill: #db5252"/>
   </g>
   <g id="patch_9">
    <path d="M 105.78125 142.824241 
L 180.273107 142.824241 
L 180.273107 155.563202 
L 105.78125 155.563202 
z
" clip-path="url(#p92d95d55d7)" style="fill: #3a9dce"/>
   </g>
   <g id="patch_10">
    <path d="M 241.923567 47.282038 
L 241.923567 47.282038 
L 241.923567 60.020999 
L 241.923567 60.020999 
z
" clip-path="url(#p92d95d55d7)" style="fill: #6ed880"/>
   </g>
   <g id="patch_11">
    <path d="M 225.4923 63.205739 
L 241.923567 63.205739 
L 241.923567 75.944699 
L 225.4923 75.944699 
z
" clip-path="url(#p92d95d55d7)" style="fill: #6ed880"/>
   </g>
   <g id="patch_12">
    <path d="M 204.714807 79.129439 
L 225.4923 79.129439 
L 225.4923 91.8684 
L 204.714807 91.8684 
z
" clip-path="url(#p92d95d55d7)" style="fill: #6ed880"/>
   </g>
   <g id="patch_13">
    <path d="M 192.264357 95.05314 
L 204.714807 95.05314 
L 204.714807 107.7921 
L 192.264357 107.7921 
z
" clip-path="url(#p92d95d55d7)" style="fill: #6ed880"/>
   </g>
   <g id="patch_14">
    <path d="M 187.485017 110.97684 
L 192.264357 110.97684 
L 192.264357 123.715801 
L 187.485017 123.715801 
z
" clip-path="url(#p92d95d55d7)" style="fill: #6ed880"/>
   </g>
   <g id="patch_15">
    <path d="M 180.273107 126.900541 
L 187.485017 126.900541 
L 187.485017 139.639501 
L 180.273107 139.639501 
z
" clip-path="url(#p92d95d55d7)" style="fill: #6ed880"/>
   </g>
   <g id="patch_16">
    <path d="M 180.273107 142.824241 
L 180.273107 142.824241 
L 180.273107 155.563202 
L 180.273107 155.563202 
z
" clip-path="url(#p92d95d55d7)" style="fill: #6ed880"/>
   </g>
   <g id="matplotlib.axis_1">
    <g id="xtick_1">
     <g id="line2d_1">
      <defs>
       <path id="mf6f7937d2f" d="M 0 0 
L 0 3.5 
" style="stroke: #ffffff; stroke-width: 0.8"/>
      </defs>
      <g>
       <use xlink:href="#mf6f7937d2f" x="105.78125" y="160.97726" style="fill: #ffffff; stroke: #ffffff; stroke-width: 0.8"/>
      </g>
     </g>
     <g id="text_1">
      <!-- 0 -->
      <g style="fill: #ffffff" transform="translate(102.6 175.575697) scale(0.1 -0.1)">
       <defs>
        <path id="DejaVuSans-30" d="M 2034 4250 
Q 1547 4250 1301 3770 
Q 1056 3291 1056 2328 
Q 1056 1369 1301 889 
Q 1547 409 2034 409 
Q 2525 409 2770 889 
Q 3016 1369 3016 2328 
Q 3016 3291 2770 3770 
Q 2525 4250 2034 4250 
z
M 2034 4750 
Q 2819 4750 3233 4129 
Q 3647 3509 3647 2328 
Q 3647 1150 3233 529 
Q 2819 -91 2034 -91 
Q 1250 -91 836 529 
Q 422 1150 422 2328 
Q 422 3509 836 4129 
Q 1250 4750 2034 4750 
z
" transform="scale(0.015625)"/>
       </defs>
       <use xlink:href="#DejaVuSans-30"/>
      </g>
     </g>
    </g>
    <g id="xtick_2">
     <g id="line2d_2">
      <g>
       <use xlink:href="#mf6f7937d2f" x="137.462873" y="160.97726" style="fill: #ffffff; stroke: #ffffff; stroke-width: 0.8"/>
      </g>
     </g>
     <g id="text_2">
      <!-- 200 -->
      <g style="fill: #ffffff" transform="translate(127.919123 175.575697) scale(0.1 -0.1)">
       <defs>
        <path id="DejaVuSans-32" d="M 1228 531 
L 3431 531 
L 3431 0 
L 469 0 
L 469 531 
Q 828 903 1448 1529 
Q 2069 2156 2228 2338 
Q 2531 2678 2651 2914 
Q 2772 3150 2772 3378 
Q 2772 3750 2511 3984 
Q 2250 4219 1831 4219 
Q 1534 4219 1204 4116 
Q 875 4013 500 3803 
L 500 4441 
Q 881 4594 1212 4672 
Q 1544 4750 1819 4750 
Q 2544 4750 2975 4387 
Q 3406 4025 3406 3419 
Q 3406 3131 3298 2873 
Q 3191 2616 2906 2266 
Q 2828 2175 2409 1742 
Q 1991 1309 1228 531 
z
" transform="scale(0.015625)"/>
       </defs>
       <use xlink:href="#DejaVuSans-32"/>
       <use xlink:href="#DejaVuSans-30" transform="translate(63.623047 0)"/>
       <use xlink:href="#DejaVuSans-30" transform="translate(127.246094 0)"/>
      </g>
     </g>
    </g>
    <g id="xtick_3">
     <g id="line2d_3">
      <g>
       <use xlink:href="#mf6f7937d2f" x="169.144495" y="160.97726" style="fill: #ffffff; stroke: #ffffff; stroke-width: 0.8"/>
      </g>
     </g>
     <g id="text_3">
      <!-- 400 -->
      <g style="fill: #ffffff" transform="translate(159.600745 175.575697) scale(0.1 -0.1)">
       <defs>
        <path id="DejaVuSans-34" d="M 2419 4116 
L 825 1625 
L 2419 1625 
L 2419 4116 
z
M 2253 4666 
L 3047 4666 
L 3047 1625 
L 3713 1625 
L 3713 1100 
L 3047 1100 
L 3047 0 
L 2419 0 
L 2419 1100 
L 313 1100 
L 313 1709 
L 2253 4666 
z
" transform="scale(0.015625)"/>
       </defs>
       <use xlink:href="#DejaVuSans-34"/>
       <use xlink:href="#DejaVuSans-30" transform="translate(63.623047 0)"/>
       <use xlink:href="#DejaVuSans-30" transform="translate(127.246094 0)"/>
      </g>
     </g>
    </g>
    <g id="xtick_4">
     <g id="line2d_4">
      <g>
       <use xlink:href="#mf6f7937d2f" x="200.826118" y="160.97726" style="fill: #ffffff; stroke: #ffffff; stroke-width: 0.8"/>
      </g>
     </g>
     <g id="text_4">
      <!-- 600 -->
      <g style="fill: #ffffff" transform="translate(191.282368 175.575697) scale(0.1 -0.1)">
       <defs>
        <path id="DejaVuSans-36" d="M 2113 2584 
Q 1688 2584 1439 2293 
Q 1191 2003 1191 1497 
Q 1191 994 1439 701 
Q 1688 409 2113 409 
Q 2538 409 2786 701 
Q 3034 994 3034 1497 
Q 3034 2003 2786 2293 
Q 2538 2584 2113 2584 
z
M 3366 4563 
L 3366 3988 
Q 3128 4100 2886 4159 
Q 2644 4219 2406 4219 
Q 1781 4219 1451 3797 
Q 1122 3375 1075 2522 
Q 1259 2794 1537 2939 
Q 1816 3084 2150 3084 
Q 2853 3084 3261 2657 
Q 3669 2231 3669 1497 
Q 3669 778 3244 343 
Q 2819 -91 2113 -91 
Q 1303 -91 875 529 
Q 447 1150 447 2328 
Q 447 3434 972 4092 
Q 1497 4750 2381 4750 
Q 2619 4750 2861 4703 
Q 3103 4656 3366 4563 
z
" transform="scale(0.015625)"/>
       </defs>
       <use xlink:href="#DejaVuSans-36"/>
       <use xlink:href="#DejaVuSans-30" transform="translate(63.623047 0)"/>
       <use xlink:href="#DejaVuSans-30" transform="translate(127.246094 0)"/>
      </g>
     </g>
    </g>
    <g id="xtick_5">
     <g id="line2d_5">
      <g>
       <use xlink:href="#mf6f7937d2f" x="232.507741" y="160.97726" style="fill: #ffffff; stroke: #ffffff; stroke-width: 0.8"/>
      </g>
     </g>
     <g id="text_5">
      <!-- 800 -->
      <g style="fill: #ffffff" transform="translate(222.963991 175.575697) scale(0.1 -0.1)">
       <defs>
        <path id="DejaVuSans-38" d="M 2034 2216 
Q 1584 2216 1326 1975 
Q 1069 1734 1069 1313 
Q 1069 891 1326 650 
Q 1584 409 2034 409 
Q 2484 409 2743 651 
Q 3003 894 3003 1313 
Q 3003 1734 2745 1975 
Q 2488 2216 2034 2216 
z
M 1403 2484 
Q 997 2584 770 2862 
Q 544 3141 544 3541 
Q 544 4100 942 4425 
Q 1341 4750 2034 4750 
Q 2731 4750 3128 4425 
Q 3525 4100 3525 3541 
Q 3525 3141 3298 2862 
Q 3072 2584 2669 2484 
Q 3125 2378 3379 2068 
Q 3634 1759 3634 1313 
Q 3634 634 3220 271 
Q 2806 -91 2034 -91 
Q 1263 -91 848 271 
Q 434 634 434 1313 
Q 434 1759 690 2068 
Q 947 2378 1403 2484 
z
M 1172 3481 
Q 1172 3119 1398 2916 
Q 1625 2713 2034 2713 
Q 2441 2713 2670 2916 
Q 2900 3119 2900 3481 
Q 2900 3844 2670 4047 
Q 2441 4250 2034 4250 
Q 1625 4250 1398 4047 
Q 1172 3844 1172 3481 
z
" transform="scale(0.015625)"/>
       </defs>
       <use xlink:href="#DejaVuSans-38"/>
       <use xlink:href="#DejaVuSans-30" transform="translate(63.623047 0)"/>
       <use xlink:href="#DejaVuSans-30" transform="translate(127.246094 0)"/>
      </g>
     </g>
    </g>
    <g id="xtick_6">
     <g id="line2d_6">
      <g>
       <use xlink:href="#mf6f7937d2f" x="264.189364" y="160.97726" style="fill: #ffffff; stroke: #ffffff; stroke-width: 0.8"/>
      </g>
     </g>
     <g id="text_6">
      <!-- 1000 -->
      <g style="fill: #ffffff" transform="translate(251.464364 175.575697) scale(0.1 -0.1)">
       <defs>
        <path id="DejaVuSans-31" d="M 794 531 
L 1825 531 
L 1825 4091 
L 703 3866 
L 703 4441 
L 1819 4666 
L 2450 4666 
L 2450 531 
L 3481 531 
L 3481 0 
L 794 0 
L 794 531 
z
" transform="scale(0.015625)"/>
       </defs>
       <use xlink:href="#DejaVuSans-31"/>
       <use xlink:href="#DejaVuSans-30" transform="translate(63.623047 0)"/>
       <use xlink:href="#DejaVuSans-30" transform="translate(127.246094 0)"/>
       <use xlink:href="#DejaVuSans-30" transform="translate(190.869141 0)"/>
      </g>
     </g>
    </g>
    <g id="text_7">
     <!-- Exergy in W -->
     <g style="fill: #ffffff" transform="translate(155.164994 189.253822) scale(0.1 -0.1)">
      <defs>
       <path id="DejaVuSans-45" d="M 628 4666 
L 3578 4666 
L 3578 4134 
L 1259 4134 
L 1259 2753 
L 3481 2753 
L 3481 2222 
L 1259 2222 
L 1259 531 
L 3634 531 
L 3634 0 
L 628 0 
L 628 4666 
z
" transform="scale(0.015625)"/>
       <path id="DejaVuSans-78" d="M 3513 3500 
L 2247 1797 
L 3578 0 
L 2900 0 
L 1881 1375 
L 863 0 
L 184 0 
L 1544 1831 
L 300 3500 
L 978 3500 
L 1906 2253 
L 2834 3500 
L 3513 3500 
z
" transform="scale(0.015625)"/>
       <path id="DejaVuSans-65" d="M 3597 1894 
L 3597 1613 
L 953 1613 
Q 991 1019 1311 708 
Q 1631 397 2203 397 
Q 2534 397 2845 478 
Q 3156 559 3463 722 
L 3463 178 
Q 3153 47 2828 -22 
Q 2503 -91 2169 -91 
Q 1331 -91 842 396 
Q 353 884 353 1716 
Q 353 2575 817 3079 
Q 1281 3584 2069 3584 
Q 2775 3584 3186 3129 
Q 3597 2675 3597 1894 
z
M 3022 2063 
Q 3016 2534 2758 2815 
Q 2500 3097 2075 3097 
Q 1594 3097 1305 2825 
Q 1016 2553 972 2059 
L 3022 2063 
z
" transform="scale(0.015625)"/>
       <path id="DejaVuSans-72" d="M 2631 2963 
Q 2534 3019 2420 3045 
Q 2306 3072 2169 3072 
Q 1681 3072 1420 2755 
Q 1159 2438 1159 1844 
L 1159 0 
L 581 0 
L 581 3500 
L 1159 3500 
L 1159 2956 
Q 1341 3275 1631 3429 
Q 1922 3584 2338 3584 
Q 2397 3584 2469 3576 
Q 2541 3569 2628 3553 
L 2631 2963 
z
" transform="scale(0.015625)"/>
       <path id="DejaVuSans-67" d="M 2906 1791 
Q 2906 2416 2648 2759 
Q 2391 3103 1925 3103 
Q 1463 3103 1205 2759 
Q 947 2416 947 1791 
Q 947 1169 1205 825 
Q 1463 481 1925 481 
Q 2391 481 2648 825 
Q 2906 1169 2906 1791 
z
M 3481 434 
Q 3481 -459 3084 -895 
Q 2688 -1331 1869 -1331 
Q 1566 -1331 1297 -1286 
Q 1028 -1241 775 -1147 
L 775 -588 
Q 1028 -725 1275 -790 
Q 1522 -856 1778 -856 
Q 2344 -856 2625 -561 
Q 2906 -266 2906 331 
L 2906 616 
Q 2728 306 2450 153 
Q 2172 0 1784 0 
Q 1141 0 747 490 
Q 353 981 353 1791 
Q 353 2603 747 3093 
Q 1141 3584 1784 3584 
Q 2172 3584 2450 3431 
Q 2728 3278 2906 2969 
L 2906 3500 
L 3481 3500 
L 3481 434 
z
" transform="scale(0.015625)"/>
       <path id="DejaVuSans-79" d="M 2059 -325 
Q 1816 -950 1584 -1140 
Q 1353 -1331 966 -1331 
L 506 -1331 
L 506 -850 
L 844 -850 
Q 1081 -850 1212 -737 
Q 1344 -625 1503 -206 
L 1606 56 
L 191 3500 
L 800 3500 
L 1894 763 
L 2988 3500 
L 3597 3500 
L 2059 -325 
z
" transform="scale(0.015625)"/>
       <path id="DejaVuSans-20" transform="scale(0.015625)"/>
       <path id="DejaVuSans-69" d="M 603 3500 
L 1178 3500 
L 1178 0 
L 603 0 
L 603 3500 
z
M 603 4863 
L 1178 4863 
L 1178 4134 
L 603 4134 
L 603 4863 
z
" transform="scale(0.015625)"/>
       <path id="DejaVuSans-6e" d="M 3513 2113 
L 3513 0 
L 2938 0 
L 2938 2094 
Q 2938 2591 2744 2837 
Q 2550 3084 2163 3084 
Q 1697 3084 1428 2787 
Q 1159 2491 1159 1978 
L 1159 0 
L 581 0 
L 581 3500 
L 1159 3500 
L 1159 2956 
Q 1366 3272 1645 3428 
Q 1925 3584 2291 3584 
Q 2894 3584 3203 3211 
Q 3513 2838 3513 2113 
z
" transform="scale(0.015625)"/>
       <path id="DejaVuSans-57" d="M 213 4666 
L 850 4666 
L 1831 722 
L 2809 4666 
L 3519 4666 
L 4500 722 
L 5478 4666 
L 6119 4666 
L 4947 0 
L 4153 0 
L 3169 4050 
L 2175 0 
L 1381 0 
L 213 4666 
z
" transform="scale(0.015625)"/>
      </defs>
      <use xlink:href="#DejaVuSans-45"/>
      <use xlink:href="#DejaVuSans-78" transform="translate(63.183594 0)"/>
      <use xlink:href="#DejaVuSans-65" transform="translate(119.238281 0)"/>
      <use xlink:href="#DejaVuSans-72" transform="translate(180.761719 0)"/>
      <use xlink:href="#DejaVuSans-67" transform="translate(220.125 0)"/>
      <use xlink:href="#DejaVuSans-79" transform="translate(283.601562 0)"/>
      <use xlink:href="#DejaVuSans-20" transform="translate(342.78125 0)"/>
      <use xlink:href="#DejaVuSans-69" transform="translate(374.568359 0)"/>
      <use xlink:href="#DejaVuSans-6e" transform="translate(402.351562 0)"/>
      <use xlink:href="#DejaVuSans-20" transform="translate(465.730469 0)"/>
      <use xlink:href="#DejaVuSans-57" transform="translate(497.517578 0)"/>
     </g>
    </g>
   </g>
   <g id="matplotlib.axis_2">
    <g id="ytick_1">
     <g id="line2d_7">
      <defs>
       <path id="m0f88c5899d" d="M 0 0 
L -3.5 0 
" style="stroke: #ffffff; stroke-width: 0.8"/>
      </defs>
      <g>
       <use xlink:href="#m0f88c5899d" x="105.78125" y="53.651518" style="fill: #ffffff; stroke: #ffffff; stroke-width: 0.8"/>
      </g>
     </g>
     <g id="text_8">
      <!-- E_F -->
      <g style="fill: #ffffff" transform="translate(81.710938 57.311675) scale(0.1 -0.1)">
       <defs>
        <path id="DejaVuSans-5f" d="M 3263 -1063 
L 3263 -1509 
L -63 -1509 
L -63 -1063 
L 3263 -1063 
z
" transform="scale(0.015625)"/>
        <path id="DejaVuSans-46" d="M 628 4666 
L 3309 4666 
L 3309 4134 
L 1259 4134 
L 1259 2759 
L 3109 2759 
L 3109 2228 
L 1259 2228 
L 1259 0 
L 628 0 
L 628 4666 
z
" transform="scale(0.015625)"/>
       </defs>
       <use xlink:href="#DejaVuSans-45"/>
       <use xlink:href="#DejaVuSans-5f" transform="translate(63.183594 0)"/>
       <use xlink:href="#DejaVuSans-46" transform="translate(113.183594 0)"/>
      </g>
     </g>
    </g>
    <g id="ytick_2">
     <g id="line2d_8">
      <g>
       <use xlink:href="#m0f88c5899d" x="105.78125" y="69.575219" style="fill: #ffffff; stroke: #ffffff; stroke-width: 0.8"/>
      </g>
     </g>
     <g id="text_9">
      <!-- compressor -->
      <g style="fill: #ffffff" transform="translate(40.3875 73.374438) scale(0.1 -0.1)">
       <defs>
        <path id="DejaVuSans-63" d="M 3122 3366 
L 3122 2828 
Q 2878 2963 2633 3030 
Q 2388 3097 2138 3097 
Q 1578 3097 1268 2742 
Q 959 2388 959 1747 
Q 959 1106 1268 751 
Q 1578 397 2138 397 
Q 2388 397 2633 464 
Q 2878 531 3122 666 
L 3122 134 
Q 2881 22 2623 -34 
Q 2366 -91 2075 -91 
Q 1284 -91 818 406 
Q 353 903 353 1747 
Q 353 2603 823 3093 
Q 1294 3584 2113 3584 
Q 2378 3584 2631 3529 
Q 2884 3475 3122 3366 
z
" transform="scale(0.015625)"/>
        <path id="DejaVuSans-6f" d="M 1959 3097 
Q 1497 3097 1228 2736 
Q 959 2375 959 1747 
Q 959 1119 1226 758 
Q 1494 397 1959 397 
Q 2419 397 2687 759 
Q 2956 1122 2956 1747 
Q 2956 2369 2687 2733 
Q 2419 3097 1959 3097 
z
M 1959 3584 
Q 2709 3584 3137 3096 
Q 3566 2609 3566 1747 
Q 3566 888 3137 398 
Q 2709 -91 1959 -91 
Q 1206 -91 779 398 
Q 353 888 353 1747 
Q 353 2609 779 3096 
Q 1206 3584 1959 3584 
z
" transform="scale(0.015625)"/>
        <path id="DejaVuSans-6d" d="M 3328 2828 
Q 3544 3216 3844 3400 
Q 4144 3584 4550 3584 
Q 5097 3584 5394 3201 
Q 5691 2819 5691 2113 
L 5691 0 
L 5113 0 
L 5113 2094 
Q 5113 2597 4934 2840 
Q 4756 3084 4391 3084 
Q 3944 3084 3684 2787 
Q 3425 2491 3425 1978 
L 3425 0 
L 2847 0 
L 2847 2094 
Q 2847 2600 2669 2842 
Q 2491 3084 2119 3084 
Q 1678 3084 1418 2786 
Q 1159 2488 1159 1978 
L 1159 0 
L 581 0 
L 581 3500 
L 1159 3500 
L 1159 2956 
Q 1356 3278 1631 3431 
Q 1906 3584 2284 3584 
Q 2666 3584 2933 3390 
Q 3200 3197 3328 2828 
z
" transform="scale(0.015625)"/>
        <path id="DejaVuSans-70" d="M 1159 525 
L 1159 -1331 
L 581 -1331 
L 581 3500 
L 1159 3500 
L 1159 2969 
Q 1341 3281 1617 3432 
Q 1894 3584 2278 3584 
Q 2916 3584 3314 3078 
Q 3713 2572 3713 1747 
Q 3713 922 3314 415 
Q 2916 -91 2278 -91 
Q 1894 -91 1617 61 
Q 1341 213 1159 525 
z
M 3116 1747 
Q 3116 2381 2855 2742 
Q 2594 3103 2138 3103 
Q 1681 3103 1420 2742 
Q 1159 2381 1159 1747 
Q 1159 1113 1420 752 
Q 1681 391 2138 391 
Q 2594 391 2855 752 
Q 3116 1113 3116 1747 
z
" transform="scale(0.015625)"/>
        <path id="DejaVuSans-73" d="M 2834 3397 
L 2834 2853 
Q 2591 2978 2328 3040 
Q 2066 3103 1784 3103 
Q 1356 3103 1142 2972 
Q 928 2841 928 2578 
Q 928 2378 1081 2264 
Q 1234 2150 1697 2047 
L 1894 2003 
Q 2506 1872 2764 1633 
Q 3022 1394 3022 966 
Q 3022 478 2636 193 
Q 2250 -91 1575 -91 
Q 1294 -91 989 -36 
Q 684 19 347 128 
L 347 722 
Q 666 556 975 473 
Q 1284 391 1588 391 
Q 1994 391 2212 530 
Q 2431 669 2431 922 
Q 2431 1156 2273 1281 
Q 2116 1406 1581 1522 
L 1381 1569 
Q 847 1681 609 1914 
Q 372 2147 372 2553 
Q 372 3047 722 3315 
Q 1072 3584 1716 3584 
Q 2034 3584 2315 3537 
Q 2597 3491 2834 3397 
z
" transform="scale(0.015625)"/>
       </defs>
       <use xlink:href="#DejaVuSans-63"/>
       <use xlink:href="#DejaVuSans-6f" transform="translate(54.980469 0)"/>
       <use xlink:href="#DejaVuSans-6d" transform="translate(116.162109 0)"/>
       <use xlink:href="#DejaVuSans-70" transform="translate(213.574219 0)"/>
       <use xlink:href="#DejaVuSans-72" transform="translate(277.050781 0)"/>
       <use xlink:href="#DejaVuSans-65" transform="translate(315.914062 0)"/>
       <use xlink:href="#DejaVuSans-73" transform="translate(377.4375 0)"/>
       <use xlink:href="#DejaVuSans-73" transform="translate(429.537109 0)"/>
       <use xlink:href="#DejaVuSans-6f" transform="translate(481.636719 0)"/>
       <use xlink:href="#DejaVuSans-72" transform="translate(542.818359 0)"/>
      </g>
     </g>
    </g>
    <g id="ytick_3">
     <g id="line2d_9">
      <g>
       <use xlink:href="#m0f88c5899d" x="105.78125" y="85.498919" style="fill: #ffffff; stroke: #ffffff; stroke-width: 0.8"/>
      </g>
     </g>
     <g id="text_10">
      <!-- condenser -->
      <g style="fill: #ffffff" transform="translate(46.514063 89.298138) scale(0.1 -0.1)">
       <defs>
        <path id="DejaVuSans-64" d="M 2906 2969 
L 2906 4863 
L 3481 4863 
L 3481 0 
L 2906 0 
L 2906 525 
Q 2725 213 2448 61 
Q 2172 -91 1784 -91 
Q 1150 -91 751 415 
Q 353 922 353 1747 
Q 353 2572 751 3078 
Q 1150 3584 1784 3584 
Q 2172 3584 2448 3432 
Q 2725 3281 2906 2969 
z
M 947 1747 
Q 947 1113 1208 752 
Q 1469 391 1925 391 
Q 2381 391 2643 752 
Q 2906 1113 2906 1747 
Q 2906 2381 2643 2742 
Q 2381 3103 1925 3103 
Q 1469 3103 1208 2742 
Q 947 2381 947 1747 
z
" transform="scale(0.015625)"/>
       </defs>
       <use xlink:href="#DejaVuSans-63"/>
       <use xlink:href="#DejaVuSans-6f" transform="translate(54.980469 0)"/>
       <use xlink:href="#DejaVuSans-6e" transform="translate(116.162109 0)"/>
       <use xlink:href="#DejaVuSans-64" transform="translate(179.541016 0)"/>
       <use xlink:href="#DejaVuSans-65" transform="translate(243.017578 0)"/>
       <use xlink:href="#DejaVuSans-6e" transform="translate(304.541016 0)"/>
       <use xlink:href="#DejaVuSans-73" transform="translate(367.919922 0)"/>
       <use xlink:href="#DejaVuSans-65" transform="translate(420.019531 0)"/>
       <use xlink:href="#DejaVuSans-72" transform="translate(481.542969 0)"/>
      </g>
     </g>
    </g>
    <g id="ytick_4">
     <g id="line2d_10">
      <g>
       <use xlink:href="#m0f88c5899d" x="105.78125" y="101.42262" style="fill: #ffffff; stroke: #ffffff; stroke-width: 0.8"/>
      </g>
     </g>
     <g id="text_11">
      <!-- evaporator -->
      <g style="fill: #ffffff" transform="translate(43.725 105.221839) scale(0.1 -0.1)">
       <defs>
        <path id="DejaVuSans-76" d="M 191 3500 
L 800 3500 
L 1894 563 
L 2988 3500 
L 3597 3500 
L 2284 0 
L 1503 0 
L 191 3500 
z
" transform="scale(0.015625)"/>
        <path id="DejaVuSans-61" d="M 2194 1759 
Q 1497 1759 1228 1600 
Q 959 1441 959 1056 
Q 959 750 1161 570 
Q 1363 391 1709 391 
Q 2188 391 2477 730 
Q 2766 1069 2766 1631 
L 2766 1759 
L 2194 1759 
z
M 3341 1997 
L 3341 0 
L 2766 0 
L 2766 531 
Q 2569 213 2275 61 
Q 1981 -91 1556 -91 
Q 1019 -91 701 211 
Q 384 513 384 1019 
Q 384 1609 779 1909 
Q 1175 2209 1959 2209 
L 2766 2209 
L 2766 2266 
Q 2766 2663 2505 2880 
Q 2244 3097 1772 3097 
Q 1472 3097 1187 3025 
Q 903 2953 641 2809 
L 641 3341 
Q 956 3463 1253 3523 
Q 1550 3584 1831 3584 
Q 2591 3584 2966 3190 
Q 3341 2797 3341 1997 
z
" transform="scale(0.015625)"/>
        <path id="DejaVuSans-74" d="M 1172 4494 
L 1172 3500 
L 2356 3500 
L 2356 3053 
L 1172 3053 
L 1172 1153 
Q 1172 725 1289 603 
Q 1406 481 1766 481 
L 2356 481 
L 2356 0 
L 1766 0 
Q 1100 0 847 248 
Q 594 497 594 1153 
L 594 3053 
L 172 3053 
L 172 3500 
L 594 3500 
L 594 4494 
L 1172 4494 
z
" transform="scale(0.015625)"/>
       </defs>
       <use xlink:href="#DejaVuSans-65"/>
       <use xlink:href="#DejaVuSans-76" transform="translate(61.523438 0)"/>
       <use xlink:href="#DejaVuSans-61" transform="translate(120.703125 0)"/>
       <use xlink:href="#DejaVuSans-70" transform="translate(181.982422 0)"/>
       <use xlink:href="#DejaVuSans-6f" transform="translate(245.458984 0)"/>
       <use xlink:href="#DejaVuSans-72" transform="translate(306.640625 0)"/>
       <use xlink:href="#DejaVuSans-61" transform="translate(347.753906 0)"/>
       <use xlink:href="#DejaVuSans-74" transform="translate(409.033203 0)"/>
       <use xlink:href="#DejaVuSans-6f" transform="translate(448.242188 0)"/>
       <use xlink:href="#DejaVuSans-72" transform="translate(509.423828 0)"/>
      </g>
     </g>
    </g>
    <g id="ytick_5">
     <g id="line2d_11">
      <g>
       <use xlink:href="#m0f88c5899d" x="105.78125" y="117.346321" style="fill: #ffffff; stroke: #ffffff; stroke-width: 0.8"/>
      </g>
     </g>
     <g id="text_12">
      <!-- motor compressor -->
      <g style="fill: #ffffff" transform="translate(7.2 121.145539) scale(0.1 -0.1)">
       <use xlink:href="#DejaVuSans-6d"/>
       <use xlink:href="#DejaVuSans-6f" transform="translate(97.412109 0)"/>
       <use xlink:href="#DejaVuSans-74" transform="translate(158.59375 0)"/>
       <use xlink:href="#DejaVuSans-6f" transform="translate(197.802734 0)"/>
       <use xlink:href="#DejaVuSans-72" transform="translate(258.984375 0)"/>
       <use xlink:href="#DejaVuSans-20" transform="translate(300.097656 0)"/>
       <use xlink:href="#DejaVuSans-63" transform="translate(331.884766 0)"/>
       <use xlink:href="#DejaVuSans-6f" transform="translate(386.865234 0)"/>
       <use xlink:href="#DejaVuSans-6d" transform="translate(448.046875 0)"/>
       <use xlink:href="#DejaVuSans-70" transform="translate(545.458984 0)"/>
       <use xlink:href="#DejaVuSans-72" transform="translate(608.935547 0)"/>
       <use xlink:href="#DejaVuSans-65" transform="translate(647.798828 0)"/>
       <use xlink:href="#DejaVuSans-73" transform="translate(709.322266 0)"/>
       <use xlink:href="#DejaVuSans-73" transform="translate(761.421875 0)"/>
       <use xlink:href="#DejaVuSans-6f" transform="translate(813.521484 0)"/>
       <use xlink:href="#DejaVuSans-72" transform="translate(874.703125 0)"/>
      </g>
     </g>
    </g>
    <g id="ytick_6">
     <g id="line2d_12">
      <g>
       <use xlink:href="#m0f88c5899d" x="105.78125" y="133.270021" style="fill: #ffffff; stroke: #ffffff; stroke-width: 0.8"/>
      </g>
     </g>
     <g id="text_13">
      <!-- valve -->
      <g style="fill: #ffffff" transform="translate(71.884375 137.06924) scale(0.1 -0.1)">
       <defs>
        <path id="DejaVuSans-6c" d="M 603 4863 
L 1178 4863 
L 1178 0 
L 603 0 
L 603 4863 
z
" transform="scale(0.015625)"/>
       </defs>
       <use xlink:href="#DejaVuSans-76"/>
       <use xlink:href="#DejaVuSans-61" transform="translate(59.179688 0)"/>
       <use xlink:href="#DejaVuSans-6c" transform="translate(120.458984 0)"/>
       <use xlink:href="#DejaVuSans-76" transform="translate(148.242188 0)"/>
       <use xlink:href="#DejaVuSans-65" transform="translate(207.421875 0)"/>
      </g>
     </g>
    </g>
    <g id="ytick_7">
     <g id="line2d_13">
      <g>
       <use xlink:href="#m0f88c5899d" x="105.78125" y="149.193722" style="fill: #ffffff; stroke: #ffffff; stroke-width: 0.8"/>
      </g>
     </g>
     <g id="text_14">
      <!-- E_P -->
      <g style="fill: #ffffff" transform="translate(81.432813 152.853878) scale(0.1 -0.1)">
       <defs>
        <path id="DejaVuSans-50" d="M 1259 4147 
L 1259 2394 
L 2053 2394 
Q 2494 2394 2734 2622 
Q 2975 2850 2975 3272 
Q 2975 3691 2734 3919 
Q 2494 4147 2053 4147 
L 1259 4147 
z
M 628 4666 
L 2053 4666 
Q 2838 4666 3239 4311 
Q 3641 3956 3641 3272 
Q 3641 2581 3239 2228 
Q 2838 1875 2053 1875 
L 1259 1875 
L 1259 0 
L 628 0 
L 628 4666 
z
" transform="scale(0.015625)"/>
       </defs>
       <use xlink:href="#DejaVuSans-45"/>
       <use xlink:href="#DejaVuSans-5f" transform="translate(63.183594 0)"/>
       <use xlink:href="#DejaVuSans-50" transform="translate(113.183594 0)"/>
      </g>
     </g>
    </g>
   </g>
   <g id="patch_17">
    <path d="M 105.78125 160.97726 
L 105.78125 41.86798 
" style="fill: none; stroke: #ffffff; stroke-width: 0.8; stroke-linejoin: miter; stroke-linecap: square"/>
   </g>
   <g id="patch_18">
    <path d="M 264.189364 160.97726 
L 264.189364 41.86798 
" style="fill: none; stroke: #ffffff; stroke-width: 0.8; stroke-linejoin: miter; stroke-linecap: square"/>
   </g>
   <g id="patch_19">
    <path d="M 105.78125 160.97726 
L 264.189364 160.97726 
" style="fill: none; stroke: #ffffff; stroke-width: 0.8; stroke-linejoin: miter; stroke-linecap: square"/>
   </g>
   <g id="patch_20">
    <path d="M 105.78125 41.86798 
L 264.189364 41.86798 
" style="fill: none; stroke: #ffffff; stroke-width: 0.8; stroke-linejoin: miter; stroke-linecap: square"/>
   </g>
   <g id="text_15">
    <!-- NH3 -->
    <g style="fill: #ffffff" transform="translate(172.166869 35.86798) scale(0.12 -0.12)">
     <defs>
      <path id="DejaVuSans-4e" d="M 628 4666 
L 1478 4666 
L 3547 763 
L 3547 4666 
L 4159 4666 
L 4159 0 
L 3309 0 
L 1241 3903 
L 1241 0 
L 628 0 
L 628 4666 
z
" transform="scale(0.015625)"/>
      <path id="DejaVuSans-48" d="M 628 4666 
L 1259 4666 
L 1259 2753 
L 3553 2753 
L 3553 4666 
L 4184 4666 
L 4184 0 
L 3553 0 
L 3553 2222 
L 1259 2222 
L 1259 0 
L 628 0 
L 628 4666 
z
" transform="scale(0.015625)"/>
      <path id="DejaVuSans-33" d="M 2597 2516 
Q 3050 2419 3304 2112 
Q 3559 1806 3559 1356 
Q 3559 666 3084 287 
Q 2609 -91 1734 -91 
Q 1441 -91 1130 -33 
Q 819 25 488 141 
L 488 750 
Q 750 597 1062 519 
Q 1375 441 1716 441 
Q 2309 441 2620 675 
Q 2931 909 2931 1356 
Q 2931 1769 2642 2001 
Q 2353 2234 1838 2234 
L 1294 2234 
L 1294 2753 
L 1863 2753 
Q 2328 2753 2575 2939 
Q 2822 3125 2822 3475 
Q 2822 3834 2567 4026 
Q 2313 4219 1838 4219 
Q 1578 4219 1281 4162 
Q 984 4106 628 3988 
L 628 4550 
Q 988 4650 1302 4700 
Q 1616 4750 1894 4750 
Q 2613 4750 3031 4423 
Q 3450 4097 3450 3541 
Q 3450 3153 3228 2886 
Q 3006 2619 2597 2516 
z
" transform="scale(0.015625)"/>
     </defs>
     <use xlink:href="#DejaVuSans-4e"/>
     <use xlink:href="#DejaVuSans-48" transform="translate(74.804688 0)"/>
     <use xlink:href="#DejaVuSans-33" transform="translate(150 0)"/>
    </g>
   </g>
  </g>
  <g id="axes_2">
   <g id="patch_21">
    <path d="M 290.866406 160.97726 
L 449.27452 160.97726 
L 449.27452 41.86798 
L 290.866406 41.86798 
z
"/>
   </g>
   <g id="patch_22">
    <path d="M 290.866406 47.282038 
L 435.133358 47.282038 
L 435.133358 60.020999 
L 290.866406 60.020999 
z
" clip-path="url(#p144b159b5e)" style="fill: #3a9dce"/>
   </g>
   <g id="patch_23">
    <path d="M 290.866406 63.205739 
L 414.596685 63.205739 
L 414.596685 75.944699 
L 290.866406 75.944699 
z
" clip-path="url(#p144b159b5e)" style="fill: #f08e2b"/>
   </g>
   <g id="patch_24">
    <path d="M 290.866406 79.129439 
L 401.043158 79.129439 
L 401.043158 91.8684 
L 290.866406 91.8684 
z
" clip-path="url(#p144b159b5e)" style="fill: #f08e2b"/>
   </g>
   <g id="patch_25">
    <path d="M 290.866406 95.05314 
L 388.524091 95.05314 
L 388.524091 107.7921 
L 290.866406 107.7921 
z
" clip-path="url(#p144b159b5e)" style="fill: #f08e2b"/>
   </g>
   <g id="patch_26">
    <path d="M 290.866406 110.97684 
L 383.409486 110.97684 
L 383.409486 123.715801 
L 290.866406 123.715801 
z
" clip-path="url(#p144b159b5e)" style="fill: #f08e2b"/>
   </g>
   <g id="patch_27">
    <path d="M 290.866406 126.900541 
L 365.357899 126.900541 
L 365.357899 139.639501 
L 290.866406 139.639501 
z
" clip-path="url(#p144b159b5e)" style="fill: #db5252"/>
   </g>
   <g id="patch_28">
    <path d="M 290.866406 142.824241 
L 365.357899 142.824241 
L 365.357899 155.563202 
L 290.866406 155.563202 
z
" clip-path="url(#p144b159b5e)" style="fill: #3a9dce"/>
   </g>
   <g id="patch_29">
    <path d="M 435.133358 47.282038 
L 435.133358 47.282038 
L 435.133358 60.020999 
L 435.133358 60.020999 
z
" clip-path="url(#p144b159b5e)" style="fill: #6ed880"/>
   </g>
   <g id="patch_30">
    <path d="M 414.596685 63.205739 
L 435.133358 63.205739 
L 435.133358 75.944699 
L 414.596685 75.944699 
z
" clip-path="url(#p144b159b5e)" style="fill: #6ed880"/>
   </g>
   <g id="patch_31">
    <path d="M 401.043158 79.129439 
L 414.596685 79.129439 
L 414.596685 91.8684 
L 401.043158 91.8684 
z
" clip-path="url(#p144b159b5e)" style="fill: #6ed880"/>
   </g>
   <g id="patch_32">
    <path d="M 388.524091 95.05314 
L 401.043158 95.05314 
L 401.043158 107.7921 
L 388.524091 107.7921 
z
" clip-path="url(#p144b159b5e)" style="fill: #6ed880"/>
   </g>
   <g id="patch_33">
    <path d="M 383.409486 110.97684 
L 388.524091 110.97684 
L 388.524091 123.715801 
L 383.409486 123.715801 
z
" clip-path="url(#p144b159b5e)" style="fill: #6ed880"/>
   </g>
   <g id="patch_34">
    <path d="M 365.357899 126.900541 
L 383.409486 126.900541 
L 383.409486 139.639501 
L 365.357899 139.639501 
z
" clip-path="url(#p144b159b5e)" style="fill: #6ed880"/>
   </g>
   <g id="patch_35">
    <path d="M 365.357899 142.824241 
L 365.357899 142.824241 
L 365.357899 155.563202 
L 365.357899 155.563202 
z
" clip-path="url(#p144b159b5e)" style="fill: #6ed880"/>
   </g>
   <g id="matplotlib.axis_3">
    <g id="xtick_7">
     <g id="line2d_14">
      <g>
       <use xlink:href="#mf6f7937d2f" x="290.866406" y="160.97726" style="fill: #ffffff; stroke: #ffffff; stroke-width: 0.8"/>
      </g>
     </g>
     <g id="text_16">
      <!-- 0 -->
      <g style="fill: #ffffff" transform="translate(287.685156 175.575697) scale(0.1 -0.1)">
       <use xlink:href="#DejaVuSans-30"/>
      </g>
     </g>
    </g>
    <g id="xtick_8">
     <g id="line2d_15">
      <g>
       <use xlink:href="#mf6f7937d2f" x="322.548029" y="160.97726" style="fill: #ffffff; stroke: #ffffff; stroke-width: 0.8"/>
      </g>
     </g>
     <g id="text_17">
      <!-- 200 -->
      <g style="fill: #ffffff" transform="translate(313.004279 175.575697) scale(0.1 -0.1)">
       <use xlink:href="#DejaVuSans-32"/>
       <use xlink:href="#DejaVuSans-30" transform="translate(63.623047 0)"/>
       <use xlink:href="#DejaVuSans-30" transform="translate(127.246094 0)"/>
      </g>
     </g>
    </g>
    <g id="xtick_9">
     <g id="line2d_16">
      <g>
       <use xlink:href="#mf6f7937d2f" x="354.229652" y="160.97726" style="fill: #ffffff; stroke: #ffffff; stroke-width: 0.8"/>
      </g>
     </g>
     <g id="text_18">
      <!-- 400 -->
      <g style="fill: #ffffff" transform="translate(344.685902 175.575697) scale(0.1 -0.1)">
       <use xlink:href="#DejaVuSans-34"/>
       <use xlink:href="#DejaVuSans-30" transform="translate(63.623047 0)"/>
       <use xlink:href="#DejaVuSans-30" transform="translate(127.246094 0)"/>
      </g>
     </g>
    </g>
    <g id="xtick_10">
     <g id="line2d_17">
      <g>
       <use xlink:href="#mf6f7937d2f" x="385.911274" y="160.97726" style="fill: #ffffff; stroke: #ffffff; stroke-width: 0.8"/>
      </g>
     </g>
     <g id="text_19">
      <!-- 600 -->
      <g style="fill: #ffffff" transform="translate(376.367524 175.575697) scale(0.1 -0.1)">
       <use xlink:href="#DejaVuSans-36"/>
       <use xlink:href="#DejaVuSans-30" transform="translate(63.623047 0)"/>
       <use xlink:href="#DejaVuSans-30" transform="translate(127.246094 0)"/>
      </g>
     </g>
    </g>
    <g id="xtick_11">
     <g id="line2d_18">
      <g>
       <use xlink:href="#mf6f7937d2f" x="417.592897" y="160.97726" style="fill: #ffffff; stroke: #ffffff; stroke-width: 0.8"/>
      </g>
     </g>
     <g id="text_20">
      <!-- 800 -->
      <g style="fill: #ffffff" transform="translate(408.049147 175.575697) scale(0.1 -0.1)">
       <use xlink:href="#DejaVuSans-38"/>
       <use xlink:href="#DejaVuSans-30" transform="translate(63.623047 0)"/>
       <use xlink:href="#DejaVuSans-30" transform="translate(127.246094 0)"/>
      </g>
     </g>
    </g>
    <g id="xtick_12">
     <g id="line2d_19">
      <g>
       <use xlink:href="#mf6f7937d2f" x="449.27452" y="160.97726" style="fill: #ffffff; stroke: #ffffff; stroke-width: 0.8"/>
      </g>
     </g>
     <g id="text_21">
      <!-- 1000 -->
      <g style="fill: #ffffff" transform="translate(436.54952 175.575697) scale(0.1 -0.1)">
       <use xlink:href="#DejaVuSans-31"/>
       <use xlink:href="#DejaVuSans-30" transform="translate(63.623047 0)"/>
       <use xlink:href="#DejaVuSans-30" transform="translate(127.246094 0)"/>
       <use xlink:href="#DejaVuSans-30" transform="translate(190.869141 0)"/>
      </g>
     </g>
    </g>
    <g id="text_22">
     <!-- Exergy in W -->
     <g style="fill: #ffffff" transform="translate(340.250151 189.253822) scale(0.1 -0.1)">
      <use xlink:href="#DejaVuSans-45"/>
      <use xlink:href="#DejaVuSans-78" transform="translate(63.183594 0)"/>
      <use xlink:href="#DejaVuSans-65" transform="translate(119.238281 0)"/>
      <use xlink:href="#DejaVuSans-72" transform="translate(180.761719 0)"/>
      <use xlink:href="#DejaVuSans-67" transform="translate(220.125 0)"/>
      <use xlink:href="#DejaVuSans-79" transform="translate(283.601562 0)"/>
      <use xlink:href="#DejaVuSans-20" transform="translate(342.78125 0)"/>
      <use xlink:href="#DejaVuSans-69" transform="translate(374.568359 0)"/>
      <use xlink:href="#DejaVuSans-6e" transform="translate(402.351562 0)"/>
      <use xlink:href="#DejaVuSans-20" transform="translate(465.730469 0)"/>
      <use xlink:href="#DejaVuSans-57" transform="translate(497.517578 0)"/>
     </g>
    </g>
   </g>
   <g id="matplotlib.axis_4">
    <g id="ytick_8">
     <g id="line2d_20">
      <g>
       <use xlink:href="#m0f88c5899d" x="290.866406" y="53.651518" style="fill: #ffffff; stroke: #ffffff; stroke-width: 0.8"/>
      </g>
     </g>
    </g>
    <g id="ytick_9">
     <g id="line2d_21">
      <g>
       <use xlink:href="#m0f88c5899d" x="290.866406" y="69.575219" style="fill: #ffffff; stroke: #ffffff; stroke-width: 0.8"/>
      </g>
     </g>
    </g>
    <g id="ytick_10">
     <g id="line2d_22">
      <g>
       <use xlink:href="#m0f88c5899d" x="290.866406" y="85.498919" style="fill: #ffffff; stroke: #ffffff; stroke-width: 0.8"/>
      </g>
     </g>
    </g>
    <g id="ytick_11">
     <g id="line2d_23">
      <g>
       <use xlink:href="#m0f88c5899d" x="290.866406" y="101.42262" style="fill: #ffffff; stroke: #ffffff; stroke-width: 0.8"/>
      </g>
     </g>
    </g>
    <g id="ytick_12">
     <g id="line2d_24">
      <g>
       <use xlink:href="#m0f88c5899d" x="290.866406" y="117.346321" style="fill: #ffffff; stroke: #ffffff; stroke-width: 0.8"/>
      </g>
     </g>
    </g>
    <g id="ytick_13">
     <g id="line2d_25">
      <g>
       <use xlink:href="#m0f88c5899d" x="290.866406" y="133.270021" style="fill: #ffffff; stroke: #ffffff; stroke-width: 0.8"/>
      </g>
     </g>
    </g>
    <g id="ytick_14">
     <g id="line2d_26">
      <g>
       <use xlink:href="#m0f88c5899d" x="290.866406" y="149.193722" style="fill: #ffffff; stroke: #ffffff; stroke-width: 0.8"/>
      </g>
     </g>
    </g>
   </g>
   <g id="patch_36">
    <path d="M 290.866406 160.97726 
L 290.866406 41.86798 
" style="fill: none; stroke: #ffffff; stroke-width: 0.8; stroke-linejoin: miter; stroke-linecap: square"/>
   </g>
   <g id="patch_37">
    <path d="M 449.27452 160.97726 
L 449.27452 41.86798 
" style="fill: none; stroke: #ffffff; stroke-width: 0.8; stroke-linejoin: miter; stroke-linecap: square"/>
   </g>
   <g id="patch_38">
    <path d="M 290.866406 160.97726 
L 449.27452 160.97726 
" style="fill: none; stroke: #ffffff; stroke-width: 0.8; stroke-linejoin: miter; stroke-linecap: square"/>
   </g>
   <g id="patch_39">
    <path d="M 290.866406 41.86798 
L 449.27452 41.86798 
" style="fill: none; stroke: #ffffff; stroke-width: 0.8; stroke-linejoin: miter; stroke-linecap: square"/>
   </g>
   <g id="text_23">
    <!-- R290 -->
    <g style="fill: #ffffff" transform="translate(354.448901 35.86798) scale(0.12 -0.12)">
     <defs>
      <path id="DejaVuSans-52" d="M 2841 2188 
Q 3044 2119 3236 1894 
Q 3428 1669 3622 1275 
L 4263 0 
L 3584 0 
L 2988 1197 
Q 2756 1666 2539 1819 
Q 2322 1972 1947 1972 
L 1259 1972 
L 1259 0 
L 628 0 
L 628 4666 
L 2053 4666 
Q 2853 4666 3247 4331 
Q 3641 3997 3641 3322 
Q 3641 2881 3436 2590 
Q 3231 2300 2841 2188 
z
M 1259 4147 
L 1259 2491 
L 2053 2491 
Q 2509 2491 2742 2702 
Q 2975 2913 2975 3322 
Q 2975 3731 2742 3939 
Q 2509 4147 2053 4147 
L 1259 4147 
z
" transform="scale(0.015625)"/>
      <path id="DejaVuSans-39" d="M 703 97 
L 703 672 
Q 941 559 1184 500 
Q 1428 441 1663 441 
Q 2288 441 2617 861 
Q 2947 1281 2994 2138 
Q 2813 1869 2534 1725 
Q 2256 1581 1919 1581 
Q 1219 1581 811 2004 
Q 403 2428 403 3163 
Q 403 3881 828 4315 
Q 1253 4750 1959 4750 
Q 2769 4750 3195 4129 
Q 3622 3509 3622 2328 
Q 3622 1225 3098 567 
Q 2575 -91 1691 -91 
Q 1453 -91 1209 -44 
Q 966 3 703 97 
z
M 1959 2075 
Q 2384 2075 2632 2365 
Q 2881 2656 2881 3163 
Q 2881 3666 2632 3958 
Q 2384 4250 1959 4250 
Q 1534 4250 1286 3958 
Q 1038 3666 1038 3163 
Q 1038 2656 1286 2365 
Q 1534 2075 1959 2075 
z
" transform="scale(0.015625)"/>
     </defs>
     <use xlink:href="#DejaVuSans-52"/>
     <use xlink:href="#DejaVuSans-32" transform="translate(69.482422 0)"/>
     <use xlink:href="#DejaVuSans-39" transform="translate(133.105469 0)"/>
     <use xlink:href="#DejaVuSans-30" transform="translate(196.728516 0)"/>
    </g>
   </g>
  </g>
  <g id="axes_3">
   <g id="patch_40">
    <path d="M 105.78125 316.44327 
L 264.189364 316.44327 
L 264.189364 197.33399 
L 105.78125 197.33399 
z
"/>
   </g>
   <g id="patch_41">
    <path d="M 105.78125 202.748048 
L 264.189364 202.748048 
L 264.189364 215.487009 
L 105.78125 215.487009 
z
" clip-path="url(#p4da66a99bb)" style="fill: #3a9dce"/>
   </g>
   <g id="patch_42">
    <path d="M 105.78125 218.671749 
L 245.070797 218.671749 
L 245.070797 231.410709 
L 105.78125 231.410709 
z
" clip-path="url(#p4da66a99bb)" style="fill: #f08e2b"/>
   </g>
   <g id="patch_43">
    <path d="M 105.78125 234.595449 
L 220.895187 234.595449 
L 220.895187 247.33441 
L 105.78125 247.33441 
z
" clip-path="url(#p4da66a99bb)" style="fill: #f08e2b"/>
   </g>
   <g id="patch_44">
    <path d="M 105.78125 250.51915 
L 206.408492 250.51915 
L 206.408492 263.25811 
L 105.78125 263.25811 
z
" clip-path="url(#p4da66a99bb)" style="fill: #f08e2b"/>
   </g>
   <g id="patch_45">
    <path d="M 105.78125 266.44285 
L 200.8475 266.44285 
L 200.8475 279.181811 
L 105.78125 279.181811 
z
" clip-path="url(#p4da66a99bb)" style="fill: #f08e2b"/>
   </g>
   <g id="patch_46">
    <path d="M 105.78125 282.366551 
L 192.456097 282.366551 
L 192.456097 295.105511 
L 105.78125 295.105511 
z
" clip-path="url(#p4da66a99bb)" style="fill: #db5252"/>
   </g>
   <g id="patch_47">
    <path d="M 105.78125 298.290251 
L 192.456097 298.290251 
L 192.456097 311.029212 
L 105.78125 311.029212 
z
" clip-path="url(#p4da66a99bb)" style="fill: #3a9dce"/>
   </g>
   <g id="patch_48">
    <path d="M 264.189364 202.748048 
L 264.189364 202.748048 
L 264.189364 215.487009 
L 264.189364 215.487009 
z
" clip-path="url(#p4da66a99bb)" style="fill: #6ed880"/>
   </g>
   <g id="patch_49">
    <path d="M 245.070797 218.671749 
L 264.189364 218.671749 
L 264.189364 231.410709 
L 245.070797 231.410709 
z
" clip-path="url(#p4da66a99bb)" style="fill: #6ed880"/>
   </g>
   <g id="patch_50">
    <path d="M 220.895187 234.595449 
L 245.070797 234.595449 
L 245.070797 247.33441 
L 220.895187 247.33441 
z
" clip-path="url(#p4da66a99bb)" style="fill: #6ed880"/>
   </g>
   <g id="patch_51">
    <path d="M 206.408492 250.51915 
L 220.895187 250.51915 
L 220.895187 263.25811 
L 206.408492 263.25811 
z
" clip-path="url(#p4da66a99bb)" style="fill: #6ed880"/>
   </g>
   <g id="patch_52">
    <path d="M 200.8475 266.44285 
L 206.408492 266.44285 
L 206.408492 279.181811 
L 200.8475 279.181811 
z
" clip-path="url(#p4da66a99bb)" style="fill: #6ed880"/>
   </g>
   <g id="patch_53">
    <path d="M 192.456097 282.366551 
L 200.8475 282.366551 
L 200.8475 295.105511 
L 192.456097 295.105511 
z
" clip-path="url(#p4da66a99bb)" style="fill: #6ed880"/>
   </g>
   <g id="patch_54">
    <path d="M 192.456097 298.290251 
L 192.456097 298.290251 
L 192.456097 311.029212 
L 192.456097 311.029212 
z
" clip-path="url(#p4da66a99bb)" style="fill: #6ed880"/>
   </g>
   <g id="matplotlib.axis_5">
    <g id="xtick_13">
     <g id="line2d_27">
      <g>
       <use xlink:href="#mf6f7937d2f" x="105.78125" y="316.44327" style="fill: #ffffff; stroke: #ffffff; stroke-width: 0.8"/>
      </g>
     </g>
     <g id="text_24">
      <!-- 0.0 -->
      <g style="fill: #ffffff" transform="translate(97.829688 331.041707) scale(0.1 -0.1)">
       <defs>
        <path id="DejaVuSans-2e" d="M 684 794 
L 1344 794 
L 1344 0 
L 684 0 
L 684 794 
z
" transform="scale(0.015625)"/>
       </defs>
       <use xlink:href="#DejaVuSans-30"/>
       <use xlink:href="#DejaVuSans-2e" transform="translate(63.623047 0)"/>
       <use xlink:href="#DejaVuSans-30" transform="translate(95.410156 0)"/>
      </g>
     </g>
    </g>
    <g id="xtick_14">
     <g id="line2d_28">
      <g>
       <use xlink:href="#mf6f7937d2f" x="137.462873" y="316.44327" style="fill: #ffffff; stroke: #ffffff; stroke-width: 0.8"/>
      </g>
     </g>
     <g id="text_25">
      <!-- 0.2 -->
      <g style="fill: #ffffff" transform="translate(129.51131 331.041707) scale(0.1 -0.1)">
       <use xlink:href="#DejaVuSans-30"/>
       <use xlink:href="#DejaVuSans-2e" transform="translate(63.623047 0)"/>
       <use xlink:href="#DejaVuSans-32" transform="translate(95.410156 0)"/>
      </g>
     </g>
    </g>
    <g id="xtick_15">
     <g id="line2d_29">
      <g>
       <use xlink:href="#mf6f7937d2f" x="169.144495" y="316.44327" style="fill: #ffffff; stroke: #ffffff; stroke-width: 0.8"/>
      </g>
     </g>
     <g id="text_26">
      <!-- 0.4 -->
      <g style="fill: #ffffff" transform="translate(161.192933 331.041707) scale(0.1 -0.1)">
       <use xlink:href="#DejaVuSans-30"/>
       <use xlink:href="#DejaVuSans-2e" transform="translate(63.623047 0)"/>
       <use xlink:href="#DejaVuSans-34" transform="translate(95.410156 0)"/>
      </g>
     </g>
    </g>
    <g id="xtick_16">
     <g id="line2d_30">
      <g>
       <use xlink:href="#mf6f7937d2f" x="200.826118" y="316.44327" style="fill: #ffffff; stroke: #ffffff; stroke-width: 0.8"/>
      </g>
     </g>
     <g id="text_27">
      <!-- 0.6 -->
      <g style="fill: #ffffff" transform="translate(192.874556 331.041707) scale(0.1 -0.1)">
       <use xlink:href="#DejaVuSans-30"/>
       <use xlink:href="#DejaVuSans-2e" transform="translate(63.623047 0)"/>
       <use xlink:href="#DejaVuSans-36" transform="translate(95.410156 0)"/>
      </g>
     </g>
    </g>
    <g id="xtick_17">
     <g id="line2d_31">
      <g>
       <use xlink:href="#mf6f7937d2f" x="232.507741" y="316.44327" style="fill: #ffffff; stroke: #ffffff; stroke-width: 0.8"/>
      </g>
     </g>
     <g id="text_28">
      <!-- 0.8 -->
      <g style="fill: #ffffff" transform="translate(224.556178 331.041707) scale(0.1 -0.1)">
       <use xlink:href="#DejaVuSans-30"/>
       <use xlink:href="#DejaVuSans-2e" transform="translate(63.623047 0)"/>
       <use xlink:href="#DejaVuSans-38" transform="translate(95.410156 0)"/>
      </g>
     </g>
    </g>
    <g id="xtick_18">
     <g id="line2d_32">
      <g>
       <use xlink:href="#mf6f7937d2f" x="264.189364" y="316.44327" style="fill: #ffffff; stroke: #ffffff; stroke-width: 0.8"/>
      </g>
     </g>
     <g id="text_29">
      <!-- 1.0 -->
      <g style="fill: #ffffff" transform="translate(256.237801 331.041707) scale(0.1 -0.1)">
       <use xlink:href="#DejaVuSans-31"/>
       <use xlink:href="#DejaVuSans-2e" transform="translate(63.623047 0)"/>
       <use xlink:href="#DejaVuSans-30" transform="translate(95.410156 0)"/>
      </g>
     </g>
    </g>
    <g id="text_30">
     <!-- $\epsilon$ -->
     <g style="fill: #ffffff" transform="translate(182.235307 344.719832) scale(0.1 -0.1)">
      <defs>
       <path id="DejaVuSans-Oblique-3b5" d="M 1263 1888 
Q 925 1963 778 2166 
Q 669 2309 669 2503 
Q 669 3034 1175 3344 
Q 1575 3588 2188 3588 
Q 2425 3588 2684 3550 
Q 2944 3513 3234 3438 
L 3134 2916 
Q 2847 3006 2606 3047 
Q 2359 3088 2138 3088 
Q 1766 3088 1522 2944 
Q 1228 2772 1228 2522 
Q 1228 2356 1381 2241 
Q 1563 2103 1925 2103 
L 2409 2103 
L 2319 1628 
L 1856 1628 
Q 1425 1628 1172 1469 
Q 828 1253 828 916 
Q 828 703 1013 563 
Q 1244 388 1716 388 
Q 2006 388 2284 444 
Q 2563 503 2806 619 
L 2700 84 
Q 2403 -3 2131 -47 
Q 1859 -91 1609 -91 
Q 866 -91 516 194 
Q 250 413 250 781 
Q 250 1278 600 1584 
Q 859 1813 1263 1888 
z
" transform="scale(0.015625)"/>
      </defs>
      <use xlink:href="#DejaVuSans-Oblique-3b5" transform="translate(0 0.9375)"/>
     </g>
    </g>
   </g>
   <g id="matplotlib.axis_6">
    <g id="ytick_15">
     <g id="line2d_33">
      <g>
       <use xlink:href="#m0f88c5899d" x="105.78125" y="209.117528" style="fill: #ffffff; stroke: #ffffff; stroke-width: 0.8"/>
      </g>
     </g>
     <g id="text_31">
      <!-- E_F -->
      <g style="fill: #ffffff" transform="translate(81.710938 212.777685) scale(0.1 -0.1)">
       <use xlink:href="#DejaVuSans-45"/>
       <use xlink:href="#DejaVuSans-5f" transform="translate(63.183594 0)"/>
       <use xlink:href="#DejaVuSans-46" transform="translate(113.183594 0)"/>
      </g>
     </g>
    </g>
    <g id="ytick_16">
     <g id="line2d_34">
      <g>
       <use xlink:href="#m0f88c5899d" x="105.78125" y="225.041229" style="fill: #ffffff; stroke: #ffffff; stroke-width: 0.8"/>
      </g>
     </g>
     <g id="text_32">
      <!-- compressor -->
      <g style="fill: #ffffff" transform="translate(40.3875 228.840448) scale(0.1 -0.1)">
       <use xlink:href="#DejaVuSans-63"/>
       <use xlink:href="#DejaVuSans-6f" transform="translate(54.980469 0)"/>
       <use xlink:href="#DejaVuSans-6d" transform="translate(116.162109 0)"/>
       <use xlink:href="#DejaVuSans-70" transform="translate(213.574219 0)"/>
       <use xlink:href="#DejaVuSans-72" transform="translate(277.050781 0)"/>
       <use xlink:href="#DejaVuSans-65" transform="translate(315.914062 0)"/>
       <use xlink:href="#DejaVuSans-73" transform="translate(377.4375 0)"/>
       <use xlink:href="#DejaVuSans-73" transform="translate(429.537109 0)"/>
       <use xlink:href="#DejaVuSans-6f" transform="translate(481.636719 0)"/>
       <use xlink:href="#DejaVuSans-72" transform="translate(542.818359 0)"/>
      </g>
     </g>
    </g>
    <g id="ytick_17">
     <g id="line2d_35">
      <g>
       <use xlink:href="#m0f88c5899d" x="105.78125" y="240.964929" style="fill: #ffffff; stroke: #ffffff; stroke-width: 0.8"/>
      </g>
     </g>
     <g id="text_33">
      <!-- condenser -->
      <g style="fill: #ffffff" transform="translate(46.514063 244.764148) scale(0.1 -0.1)">
       <use xlink:href="#DejaVuSans-63"/>
       <use xlink:href="#DejaVuSans-6f" transform="translate(54.980469 0)"/>
       <use xlink:href="#DejaVuSans-6e" transform="translate(116.162109 0)"/>
       <use xlink:href="#DejaVuSans-64" transform="translate(179.541016 0)"/>
       <use xlink:href="#DejaVuSans-65" transform="translate(243.017578 0)"/>
       <use xlink:href="#DejaVuSans-6e" transform="translate(304.541016 0)"/>
       <use xlink:href="#DejaVuSans-73" transform="translate(367.919922 0)"/>
       <use xlink:href="#DejaVuSans-65" transform="translate(420.019531 0)"/>
       <use xlink:href="#DejaVuSans-72" transform="translate(481.542969 0)"/>
      </g>
     </g>
    </g>
    <g id="ytick_18">
     <g id="line2d_36">
      <g>
       <use xlink:href="#m0f88c5899d" x="105.78125" y="256.88863" style="fill: #ffffff; stroke: #ffffff; stroke-width: 0.8"/>
      </g>
     </g>
     <g id="text_34">
      <!-- evaporator -->
      <g style="fill: #ffffff" transform="translate(43.725 260.687849) scale(0.1 -0.1)">
       <use xlink:href="#DejaVuSans-65"/>
       <use xlink:href="#DejaVuSans-76" transform="translate(61.523438 0)"/>
       <use xlink:href="#DejaVuSans-61" transform="translate(120.703125 0)"/>
       <use xlink:href="#DejaVuSans-70" transform="translate(181.982422 0)"/>
       <use xlink:href="#DejaVuSans-6f" transform="translate(245.458984 0)"/>
       <use xlink:href="#DejaVuSans-72" transform="translate(306.640625 0)"/>
       <use xlink:href="#DejaVuSans-61" transform="translate(347.753906 0)"/>
       <use xlink:href="#DejaVuSans-74" transform="translate(409.033203 0)"/>
       <use xlink:href="#DejaVuSans-6f" transform="translate(448.242188 0)"/>
       <use xlink:href="#DejaVuSans-72" transform="translate(509.423828 0)"/>
      </g>
     </g>
    </g>
    <g id="ytick_19">
     <g id="line2d_37">
      <g>
       <use xlink:href="#m0f88c5899d" x="105.78125" y="272.812331" style="fill: #ffffff; stroke: #ffffff; stroke-width: 0.8"/>
      </g>
     </g>
     <g id="text_35">
      <!-- motor compressor -->
      <g style="fill: #ffffff" transform="translate(7.2 276.611549) scale(0.1 -0.1)">
       <use xlink:href="#DejaVuSans-6d"/>
       <use xlink:href="#DejaVuSans-6f" transform="translate(97.412109 0)"/>
       <use xlink:href="#DejaVuSans-74" transform="translate(158.59375 0)"/>
       <use xlink:href="#DejaVuSans-6f" transform="translate(197.802734 0)"/>
       <use xlink:href="#DejaVuSans-72" transform="translate(258.984375 0)"/>
       <use xlink:href="#DejaVuSans-20" transform="translate(300.097656 0)"/>
       <use xlink:href="#DejaVuSans-63" transform="translate(331.884766 0)"/>
       <use xlink:href="#DejaVuSans-6f" transform="translate(386.865234 0)"/>
       <use xlink:href="#DejaVuSans-6d" transform="translate(448.046875 0)"/>
       <use xlink:href="#DejaVuSans-70" transform="translate(545.458984 0)"/>
       <use xlink:href="#DejaVuSans-72" transform="translate(608.935547 0)"/>
       <use xlink:href="#DejaVuSans-65" transform="translate(647.798828 0)"/>
       <use xlink:href="#DejaVuSans-73" transform="translate(709.322266 0)"/>
       <use xlink:href="#DejaVuSans-73" transform="translate(761.421875 0)"/>
       <use xlink:href="#DejaVuSans-6f" transform="translate(813.521484 0)"/>
       <use xlink:href="#DejaVuSans-72" transform="translate(874.703125 0)"/>
      </g>
     </g>
    </g>
    <g id="ytick_20">
     <g id="line2d_38">
      <g>
       <use xlink:href="#m0f88c5899d" x="105.78125" y="288.736031" style="fill: #ffffff; stroke: #ffffff; stroke-width: 0.8"/>
      </g>
     </g>
     <g id="text_36">
      <!-- valve -->
      <g style="fill: #ffffff" transform="translate(71.884375 292.53525) scale(0.1 -0.1)">
       <use xlink:href="#DejaVuSans-76"/>
       <use xlink:href="#DejaVuSans-61" transform="translate(59.179688 0)"/>
       <use xlink:href="#DejaVuSans-6c" transform="translate(120.458984 0)"/>
       <use xlink:href="#DejaVuSans-76" transform="translate(148.242188 0)"/>
       <use xlink:href="#DejaVuSans-65" transform="translate(207.421875 0)"/>
      </g>
     </g>
    </g>
    <g id="ytick_21">
     <g id="line2d_39">
      <g>
       <use xlink:href="#m0f88c5899d" x="105.78125" y="304.659732" style="fill: #ffffff; stroke: #ffffff; stroke-width: 0.8"/>
      </g>
     </g>
     <g id="text_37">
      <!-- E_P -->
      <g style="fill: #ffffff" transform="translate(81.432813 308.319888) scale(0.1 -0.1)">
       <use xlink:href="#DejaVuSans-45"/>
       <use xlink:href="#DejaVuSans-5f" transform="translate(63.183594 0)"/>
       <use xlink:href="#DejaVuSans-50" transform="translate(113.183594 0)"/>
      </g>
     </g>
    </g>
   </g>
   <g id="patch_55">
    <path d="M 105.78125 316.44327 
L 105.78125 197.33399 
" style="fill: none; stroke: #ffffff; stroke-width: 0.8; stroke-linejoin: miter; stroke-linecap: square"/>
   </g>
   <g id="patch_56">
    <path d="M 264.189364 316.44327 
L 264.189364 197.33399 
" style="fill: none; stroke: #ffffff; stroke-width: 0.8; stroke-linejoin: miter; stroke-linecap: square"/>
   </g>
   <g id="patch_57">
    <path d="M 105.78125 316.44327 
L 264.189364 316.44327 
" style="fill: none; stroke: #ffffff; stroke-width: 0.8; stroke-linejoin: miter; stroke-linecap: square"/>
   </g>
   <g id="patch_58">
    <path d="M 105.78125 197.33399 
L 264.189364 197.33399 
" style="fill: none; stroke: #ffffff; stroke-width: 0.8; stroke-linejoin: miter; stroke-linecap: square"/>
   </g>
  </g>
  <g id="axes_4">
   <g id="patch_59">
    <path d="M 290.866406 316.44327 
L 449.27452 316.44327 
L 449.27452 197.33399 
L 290.866406 197.33399 
z
"/>
   </g>
   <g id="patch_60">
    <path d="M 290.866406 202.748048 
L 449.27452 202.748048 
L 449.27452 215.487009 
L 290.866406 215.487009 
z
" clip-path="url(#pd6ad0c61d3)" style="fill: #3a9dce"/>
   </g>
   <g id="patch_61">
    <path d="M 290.866406 218.671749 
L 426.724826 218.671749 
L 426.724826 231.410709 
L 290.866406 231.410709 
z
" clip-path="url(#pd6ad0c61d3)" style="fill: #f08e2b"/>
   </g>
   <g id="patch_62">
    <path d="M 290.866406 234.595449 
L 411.842772 234.595449 
L 411.842772 247.33441 
L 290.866406 247.33441 
z
" clip-path="url(#pd6ad0c61d3)" style="fill: #f08e2b"/>
   </g>
   <g id="patch_63">
    <path d="M 290.866406 250.51915 
L 398.096575 250.51915 
L 398.096575 263.25811 
L 290.866406 263.25811 
z
" clip-path="url(#pd6ad0c61d3)" style="fill: #f08e2b"/>
   </g>
   <g id="patch_64">
    <path d="M 290.866406 266.44285 
L 392.480633 266.44285 
L 392.480633 279.181811 
L 290.866406 279.181811 
z
" clip-path="url(#pd6ad0c61d3)" style="fill: #f08e2b"/>
   </g>
   <g id="patch_65">
    <path d="M 290.866406 282.366551 
L 372.659614 282.366551 
L 372.659614 295.105511 
L 290.866406 295.105511 
z
" clip-path="url(#pd6ad0c61d3)" style="fill: #db5252"/>
   </g>
   <g id="patch_66">
    <path d="M 290.866406 298.290251 
L 372.659614 298.290251 
L 372.659614 311.029212 
L 290.866406 311.029212 
z
" clip-path="url(#pd6ad0c61d3)" style="fill: #3a9dce"/>
   </g>
   <g id="patch_67">
    <path d="M 449.27452 202.748048 
L 449.27452 202.748048 
L 449.27452 215.487009 
L 449.27452 215.487009 
z
" clip-path="url(#pd6ad0c61d3)" style="fill: #6ed880"/>
   </g>
   <g id="patch_68">
    <path d="M 426.724826 218.671749 
L 449.27452 218.671749 
L 449.27452 231.410709 
L 426.724826 231.410709 
z
" clip-path="url(#pd6ad0c61d3)" style="fill: #6ed880"/>
   </g>
   <g id="patch_69">
    <path d="M 411.842772 234.595449 
L 426.724826 234.595449 
L 426.724826 247.33441 
L 411.842772 247.33441 
z
" clip-path="url(#pd6ad0c61d3)" style="fill: #6ed880"/>
   </g>
   <g id="patch_70">
    <path d="M 398.096575 250.51915 
L 411.842772 250.51915 
L 411.842772 263.25811 
L 398.096575 263.25811 
z
" clip-path="url(#pd6ad0c61d3)" style="fill: #6ed880"/>
   </g>
   <g id="patch_71">
    <path d="M 392.480633 266.44285 
L 398.096575 266.44285 
L 398.096575 279.181811 
L 392.480633 279.181811 
z
" clip-path="url(#pd6ad0c61d3)" style="fill: #6ed880"/>
   </g>
   <g id="patch_72">
    <path d="M 372.659614 282.366551 
L 392.480633 282.366551 
L 392.480633 295.105511 
L 372.659614 295.105511 
z
" clip-path="url(#pd6ad0c61d3)" style="fill: #6ed880"/>
   </g>
   <g id="patch_73">
    <path d="M 372.659614 298.290251 
L 372.659614 298.290251 
L 372.659614 311.029212 
L 372.659614 311.029212 
z
" clip-path="url(#pd6ad0c61d3)" style="fill: #6ed880"/>
   </g>
   <g id="matplotlib.axis_7">
    <g id="xtick_19">
     <g id="line2d_40">
      <g>
       <use xlink:href="#mf6f7937d2f" x="290.866406" y="316.44327" style="fill: #ffffff; stroke: #ffffff; stroke-width: 0.8"/>
      </g>
     </g>
     <g id="text_38">
      <!-- 0.0 -->
      <g style="fill: #ffffff" transform="translate(282.914844 331.041707) scale(0.1 -0.1)">
       <use xlink:href="#DejaVuSans-30"/>
       <use xlink:href="#DejaVuSans-2e" transform="translate(63.623047 0)"/>
       <use xlink:href="#DejaVuSans-30" transform="translate(95.410156 0)"/>
      </g>
     </g>
    </g>
    <g id="xtick_20">
     <g id="line2d_41">
      <g>
       <use xlink:href="#mf6f7937d2f" x="322.548029" y="316.44327" style="fill: #ffffff; stroke: #ffffff; stroke-width: 0.8"/>
      </g>
     </g>
     <g id="text_39">
      <!-- 0.2 -->
      <g style="fill: #ffffff" transform="translate(314.596466 331.041707) scale(0.1 -0.1)">
       <use xlink:href="#DejaVuSans-30"/>
       <use xlink:href="#DejaVuSans-2e" transform="translate(63.623047 0)"/>
       <use xlink:href="#DejaVuSans-32" transform="translate(95.410156 0)"/>
      </g>
     </g>
    </g>
    <g id="xtick_21">
     <g id="line2d_42">
      <g>
       <use xlink:href="#mf6f7937d2f" x="354.229652" y="316.44327" style="fill: #ffffff; stroke: #ffffff; stroke-width: 0.8"/>
      </g>
     </g>
     <g id="text_40">
      <!-- 0.4 -->
      <g style="fill: #ffffff" transform="translate(346.278089 331.041707) scale(0.1 -0.1)">
       <use xlink:href="#DejaVuSans-30"/>
       <use xlink:href="#DejaVuSans-2e" transform="translate(63.623047 0)"/>
       <use xlink:href="#DejaVuSans-34" transform="translate(95.410156 0)"/>
      </g>
     </g>
    </g>
    <g id="xtick_22">
     <g id="line2d_43">
      <g>
       <use xlink:href="#mf6f7937d2f" x="385.911274" y="316.44327" style="fill: #ffffff; stroke: #ffffff; stroke-width: 0.8"/>
      </g>
     </g>
     <g id="text_41">
      <!-- 0.6 -->
      <g style="fill: #ffffff" transform="translate(377.959712 331.041707) scale(0.1 -0.1)">
       <use xlink:href="#DejaVuSans-30"/>
       <use xlink:href="#DejaVuSans-2e" transform="translate(63.623047 0)"/>
       <use xlink:href="#DejaVuSans-36" transform="translate(95.410156 0)"/>
      </g>
     </g>
    </g>
    <g id="xtick_23">
     <g id="line2d_44">
      <g>
       <use xlink:href="#mf6f7937d2f" x="417.592897" y="316.44327" style="fill: #ffffff; stroke: #ffffff; stroke-width: 0.8"/>
      </g>
     </g>
     <g id="text_42">
      <!-- 0.8 -->
      <g style="fill: #ffffff" transform="translate(409.641335 331.041707) scale(0.1 -0.1)">
       <use xlink:href="#DejaVuSans-30"/>
       <use xlink:href="#DejaVuSans-2e" transform="translate(63.623047 0)"/>
       <use xlink:href="#DejaVuSans-38" transform="translate(95.410156 0)"/>
      </g>
     </g>
    </g>
    <g id="xtick_24">
     <g id="line2d_45">
      <g>
       <use xlink:href="#mf6f7937d2f" x="449.27452" y="316.44327" style="fill: #ffffff; stroke: #ffffff; stroke-width: 0.8"/>
      </g>
     </g>
     <g id="text_43">
      <!-- 1.0 -->
      <g style="fill: #ffffff" transform="translate(441.322957 331.041707) scale(0.1 -0.1)">
       <use xlink:href="#DejaVuSans-31"/>
       <use xlink:href="#DejaVuSans-2e" transform="translate(63.623047 0)"/>
       <use xlink:href="#DejaVuSans-30" transform="translate(95.410156 0)"/>
      </g>
     </g>
    </g>
    <g id="text_44">
     <!-- $\epsilon$ -->
     <g style="fill: #ffffff" transform="translate(367.320463 344.719832) scale(0.1 -0.1)">
      <use xlink:href="#DejaVuSans-Oblique-3b5" transform="translate(0 0.9375)"/>
     </g>
    </g>
   </g>
   <g id="matplotlib.axis_8">
    <g id="ytick_22">
     <g id="line2d_46">
      <g>
       <use xlink:href="#m0f88c5899d" x="290.866406" y="209.117528" style="fill: #ffffff; stroke: #ffffff; stroke-width: 0.8"/>
      </g>
     </g>
    </g>
    <g id="ytick_23">
     <g id="line2d_47">
      <g>
       <use xlink:href="#m0f88c5899d" x="290.866406" y="225.041229" style="fill: #ffffff; stroke: #ffffff; stroke-width: 0.8"/>
      </g>
     </g>
    </g>
    <g id="ytick_24">
     <g id="line2d_48">
      <g>
       <use xlink:href="#m0f88c5899d" x="290.866406" y="240.964929" style="fill: #ffffff; stroke: #ffffff; stroke-width: 0.8"/>
      </g>
     </g>
    </g>
    <g id="ytick_25">
     <g id="line2d_49">
      <g>
       <use xlink:href="#m0f88c5899d" x="290.866406" y="256.88863" style="fill: #ffffff; stroke: #ffffff; stroke-width: 0.8"/>
      </g>
     </g>
    </g>
    <g id="ytick_26">
     <g id="line2d_50">
      <g>
       <use xlink:href="#m0f88c5899d" x="290.866406" y="272.812331" style="fill: #ffffff; stroke: #ffffff; stroke-width: 0.8"/>
      </g>
     </g>
    </g>
    <g id="ytick_27">
     <g id="line2d_51">
      <g>
       <use xlink:href="#m0f88c5899d" x="290.866406" y="288.736031" style="fill: #ffffff; stroke: #ffffff; stroke-width: 0.8"/>
      </g>
     </g>
    </g>
    <g id="ytick_28">
     <g id="line2d_52">
      <g>
       <use xlink:href="#m0f88c5899d" x="290.866406" y="304.659732" style="fill: #ffffff; stroke: #ffffff; stroke-width: 0.8"/>
      </g>
     </g>
    </g>
   </g>
   <g id="patch_74">
    <path d="M 290.866406 316.44327 
L 290.866406 197.33399 
" style="fill: none; stroke: #ffffff; stroke-width: 0.8; stroke-linejoin: miter; stroke-linecap: square"/>
   </g>
   <g id="patch_75">
    <path d="M 449.27452 316.44327 
L 449.27452 197.33399 
" style="fill: none; stroke: #ffffff; stroke-width: 0.8; stroke-linejoin: miter; stroke-linecap: square"/>
   </g>
   <g id="patch_76">
    <path d="M 290.866406 316.44327 
L 449.27452 316.44327 
" style="fill: none; stroke: #ffffff; stroke-width: 0.8; stroke-linejoin: miter; stroke-linecap: square"/>
   </g>
   <g id="patch_77">
    <path d="M 290.866406 197.33399 
L 449.27452 197.33399 
" style="fill: none; stroke: #ffffff; stroke-width: 0.8; stroke-linejoin: miter; stroke-linecap: square"/>
   </g>
  </g>
  <g id="text_45">
   <!-- Component Exergy Destruction -->
   <g style="fill: #ffffff" transform="translate(124.853979 17.837812) scale(0.14 -0.14)">
    <defs>
     <path id="DejaVuSans-43" d="M 4122 4306 
L 4122 3641 
Q 3803 3938 3442 4084 
Q 3081 4231 2675 4231 
Q 1875 4231 1450 3742 
Q 1025 3253 1025 2328 
Q 1025 1406 1450 917 
Q 1875 428 2675 428 
Q 3081 428 3442 575 
Q 3803 722 4122 1019 
L 4122 359 
Q 3791 134 3420 21 
Q 3050 -91 2638 -91 
Q 1578 -91 968 557 
Q 359 1206 359 2328 
Q 359 3453 968 4101 
Q 1578 4750 2638 4750 
Q 3056 4750 3426 4639 
Q 3797 4528 4122 4306 
z
" transform="scale(0.015625)"/>
     <path id="DejaVuSans-44" d="M 1259 4147 
L 1259 519 
L 2022 519 
Q 2988 519 3436 956 
Q 3884 1394 3884 2338 
Q 3884 3275 3436 3711 
Q 2988 4147 2022 4147 
L 1259 4147 
z
M 628 4666 
L 1925 4666 
Q 3281 4666 3915 4102 
Q 4550 3538 4550 2338 
Q 4550 1131 3912 565 
Q 3275 0 1925 0 
L 628 0 
L 628 4666 
z
" transform="scale(0.015625)"/>
     <path id="DejaVuSans-75" d="M 544 1381 
L 544 3500 
L 1119 3500 
L 1119 1403 
Q 1119 906 1312 657 
Q 1506 409 1894 409 
Q 2359 409 2629 706 
Q 2900 1003 2900 1516 
L 2900 3500 
L 3475 3500 
L 3475 0 
L 2900 0 
L 2900 538 
Q 2691 219 2414 64 
Q 2138 -91 1772 -91 
Q 1169 -91 856 284 
Q 544 659 544 1381 
z
M 1991 3584 
L 1991 3584 
z
" transform="scale(0.015625)"/>
    </defs>
    <use xlink:href="#DejaVuSans-43"/>
    <use xlink:href="#DejaVuSans-6f" transform="translate(69.824219 0)"/>
    <use xlink:href="#DejaVuSans-6d" transform="translate(131.005859 0)"/>
    <use xlink:href="#DejaVuSans-70" transform="translate(228.417969 0)"/>
    <use xlink:href="#DejaVuSans-6f" transform="translate(291.894531 0)"/>
    <use xlink:href="#DejaVuSans-6e" transform="translate(353.076172 0)"/>
    <use xlink:href="#DejaVuSans-65" transform="translate(416.455078 0)"/>
    <use xlink:href="#DejaVuSans-6e" transform="translate(477.978516 0)"/>
    <use xlink:href="#DejaVuSans-74" transform="translate(541.357422 0)"/>
    <use xlink:href="#DejaVuSans-20" transform="translate(580.566406 0)"/>
    <use xlink:href="#DejaVuSans-45" transform="translate(612.353516 0)"/>
    <use xlink:href="#DejaVuSans-78" transform="translate(675.537109 0)"/>
    <use xlink:href="#DejaVuSans-65" transform="translate(731.591797 0)"/>
    <use xlink:href="#DejaVuSans-72" transform="translate(793.115234 0)"/>
    <use xlink:href="#DejaVuSans-67" transform="translate(832.478516 0)"/>
    <use xlink:href="#DejaVuSans-79" transform="translate(895.955078 0)"/>
    <use xlink:href="#DejaVuSans-20" transform="translate(955.134766 0)"/>
    <use xlink:href="#DejaVuSans-44" transform="translate(986.921875 0)"/>
    <use xlink:href="#DejaVuSans-65" transform="translate(1063.923828 0)"/>
    <use xlink:href="#DejaVuSans-73" transform="translate(1125.447266 0)"/>
    <use xlink:href="#DejaVuSans-74" transform="translate(1177.546875 0)"/>
    <use xlink:href="#DejaVuSans-72" transform="translate(1216.755859 0)"/>
    <use xlink:href="#DejaVuSans-75" transform="translate(1257.869141 0)"/>
    <use xlink:href="#DejaVuSans-63" transform="translate(1321.248047 0)"/>
    <use xlink:href="#DejaVuSans-74" transform="translate(1376.228516 0)"/>
    <use xlink:href="#DejaVuSans-69" transform="translate(1415.4375 0)"/>
    <use xlink:href="#DejaVuSans-6f" transform="translate(1443.220703 0)"/>
    <use xlink:href="#DejaVuSans-6e" transform="translate(1504.402344 0)"/>
   </g>
  </g>
  <g id="legend_1">
   <g id="patch_78">
    <path d="M 222.914385 358.777885 
L 273.933135 358.777885 
Q 275.933135 358.777885 275.933135 356.777885 
L 275.933135 342.821635 
Q 275.933135 340.821635 273.933135 340.821635 
L 222.914385 340.821635 
Q 220.914385 340.821635 220.914385 342.821635 
L 220.914385 356.777885 
Q 220.914385 358.777885 222.914385 358.777885 
z
" style="opacity: 0.8; stroke: #cccccc; stroke-linejoin: miter"/>
   </g>
   <g id="patch_79">
    <path d="M 224.914385 352.420072 
L 244.914385 352.420072 
L 244.914385 345.420072 
L 224.914385 345.420072 
z
" style="fill: #6ed880"/>
   </g>
   <g id="text_46">
    <!-- E_D -->
    <g style="fill: #ffffff" transform="translate(252.914385 352.420072) scale(0.1 -0.1)">
     <use xlink:href="#DejaVuSans-45"/>
     <use xlink:href="#DejaVuSans-5f" transform="translate(63.183594 0)"/>
     <use xlink:href="#DejaVuSans-44" transform="translate(113.183594 0)"/>
    </g>
   </g>
  </g>
 </g>
 <defs>
  <clipPath id="p92d95d55d7">
   <rect x="105.78125" y="41.86798" width="158.408114" height="119.10928"/>
  </clipPath>
  <clipPath id="p144b159b5e">
   <rect x="290.866406" y="41.86798" width="158.408114" height="119.10928"/>
  </clipPath>
  <clipPath id="p4da66a99bb">
   <rect x="105.78125" y="197.33399" width="158.408114" height="119.10928"/>
  </clipPath>
  <clipPath id="pd6ad0c61d3">
   <rect x="290.866406" y="197.33399" width="158.408114" height="119.10928"/>
  </clipPath>
 </defs>
</svg>
