<?xml version="1.0" encoding="utf-8" standalone="no"?>
<!DOCTYPE svg PUBLIC "-//W3C//DTD SVG 1.1//EN"
  "http://www.w3.org/Graphics/SVG/1.1/DTD/svg11.dtd">
<svg xmlns:xlink="http://www.w3.org/1999/xlink" width="469.19952pt" height="391.55976pt" viewBox="0 0 469.19952 391.55976" xmlns="http://www.w3.org/2000/svg" version="1.1">
 <metadata>
  <rdf:RDF xmlns:dc="http://purl.org/dc/elements/1.1/" xmlns:cc="http://creativecommons.org/ns#" xmlns:rdf="http://www.w3.org/1999/02/22-rdf-syntax-ns#">
   <cc:Work>
    <dc:type rdf:resource="http://purl.org/dc/dcmitype/StillImage"/>
    <dc:date>2022-09-07T09:09:51.669444</dc:date>
    <dc:format>image/svg+xml</dc:format>
    <dc:creator>
     <cc:Agent>
      <dc:title>Matplotlib v3.5.3, https://matplotlib.org/</dc:title>
     </cc:Agent>
    </dc:creator>
   </cc:Work>
  </rdf:RDF>
 </metadata>
 <defs>
  <style type="text/css">*{stroke-linejoin: round; stroke-linecap: butt}</style>
 </defs>
 <g id="figure_1">
  <g id="patch_1">
   <path d="M 0 391.55976 
L 469.19952 391.55976 
L 469.19952 0 
L 0 0 
z
" style="fill: #ffffff"/>
  </g>
  <g id="axes_1">
   <g id="patch_2">
    <path d="M 56.50625 171.040151 
L 253.071395 171.040151 
L 253.071395 39.958605 
L 56.50625 39.958605 
z
" style="fill: #ffffff"/>
   </g>
   <g id="matplotlib.axis_1">
    <g id="xtick_1">
     <g id="line2d_1">
      <defs>
       <path id="m7e23bcaa54" d="M 0 0 
L 0 3.5 
" style="stroke: #000000; stroke-width: 0.8"/>
      </defs>
      <g>
       <use xlink:href="#m7e23bcaa54" x="56.50625" y="171.040151" style="stroke: #000000; stroke-width: 0.8"/>
      </g>
     </g>
    </g>
    <g id="xtick_2">
     <g id="line2d_2">
      <g>
       <use xlink:href="#m7e23bcaa54" x="92.245367" y="171.040151" style="stroke: #000000; stroke-width: 0.8"/>
      </g>
     </g>
    </g>
    <g id="xtick_3">
     <g id="line2d_3">
      <g>
       <use xlink:href="#m7e23bcaa54" x="127.984485" y="171.040151" style="stroke: #000000; stroke-width: 0.8"/>
      </g>
     </g>
    </g>
    <g id="xtick_4">
     <g id="line2d_4">
      <g>
       <use xlink:href="#m7e23bcaa54" x="163.723602" y="171.040151" style="stroke: #000000; stroke-width: 0.8"/>
      </g>
     </g>
    </g>
    <g id="xtick_5">
     <g id="line2d_5">
      <g>
       <use xlink:href="#m7e23bcaa54" x="199.462719" y="171.040151" style="stroke: #000000; stroke-width: 0.8"/>
      </g>
     </g>
    </g>
    <g id="xtick_6">
     <g id="line2d_6">
      <g>
       <use xlink:href="#m7e23bcaa54" x="235.201836" y="171.040151" style="stroke: #000000; stroke-width: 0.8"/>
      </g>
     </g>
    </g>
   </g>
   <g id="matplotlib.axis_2">
    <g id="ytick_1">
     <g id="line2d_7">
      <defs>
       <path id="mbfd4a419f2" d="M 0 0 
L -3.5 0 
" style="stroke: #000000; stroke-width: 0.8"/>
      </defs>
      <g>
       <use xlink:href="#mbfd4a419f2" x="56.50625" y="165.998553" style="stroke: #000000; stroke-width: 0.8"/>
      </g>
     </g>
     <g id="text_1">
      <!-- 0.425 -->
      <g transform="translate(20.878125 169.797771)scale(0.1 -0.1)">
       <defs>
        <path id="DejaVuSans-30" d="M 2034 4250 
Q 1547 4250 1301 3770 
Q 1056 3291 1056 2328 
Q 1056 1369 1301 889 
Q 1547 409 2034 409 
Q 2525 409 2770 889 
Q 3016 1369 3016 2328 
Q 3016 3291 2770 3770 
Q 2525 4250 2034 4250 
z
M 2034 4750 
Q 2819 4750 3233 4129 
Q 3647 3509 3647 2328 
Q 3647 1150 3233 529 
Q 2819 -91 2034 -91 
Q 1250 -91 836 529 
Q 422 1150 422 2328 
Q 422 3509 836 4129 
Q 1250 4750 2034 4750 
z
" transform="scale(0.015625)"/>
        <path id="DejaVuSans-2e" d="M 684 794 
L 1344 794 
L 1344 0 
L 684 0 
L 684 794 
z
" transform="scale(0.015625)"/>
        <path id="DejaVuSans-34" d="M 2419 4116 
L 825 1625 
L 2419 1625 
L 2419 4116 
z
M 2253 4666 
L 3047 4666 
L 3047 1625 
L 3713 1625 
L 3713 1100 
L 3047 1100 
L 3047 0 
L 2419 0 
L 2419 1100 
L 313 1100 
L 313 1709 
L 2253 4666 
z
" transform="scale(0.015625)"/>
        <path id="DejaVuSans-32" d="M 1228 531 
L 3431 531 
L 3431 0 
L 469 0 
L 469 531 
Q 828 903 1448 1529 
Q 2069 2156 2228 2338 
Q 2531 2678 2651 2914 
Q 2772 3150 2772 3378 
Q 2772 3750 2511 3984 
Q 2250 4219 1831 4219 
Q 1534 4219 1204 4116 
Q 875 4013 500 3803 
L 500 4441 
Q 881 4594 1212 4672 
Q 1544 4750 1819 4750 
Q 2544 4750 2975 4387 
Q 3406 4025 3406 3419 
Q 3406 3131 3298 2873 
Q 3191 2616 2906 2266 
Q 2828 2175 2409 1742 
Q 1991 1309 1228 531 
z
" transform="scale(0.015625)"/>
        <path id="DejaVuSans-35" d="M 691 4666 
L 3169 4666 
L 3169 4134 
L 1269 4134 
L 1269 2991 
Q 1406 3038 1543 3061 
Q 1681 3084 1819 3084 
Q 2600 3084 3056 2656 
Q 3513 2228 3513 1497 
Q 3513 744 3044 326 
Q 2575 -91 1722 -91 
Q 1428 -91 1123 -41 
Q 819 9 494 109 
L 494 744 
Q 775 591 1075 516 
Q 1375 441 1709 441 
Q 2250 441 2565 725 
Q 2881 1009 2881 1497 
Q 2881 1984 2565 2268 
Q 2250 2553 1709 2553 
Q 1456 2553 1204 2497 
Q 953 2441 691 2322 
L 691 4666 
z
" transform="scale(0.015625)"/>
       </defs>
       <use xlink:href="#DejaVuSans-30"/>
       <use xlink:href="#DejaVuSans-2e" x="63.623047"/>
       <use xlink:href="#DejaVuSans-34" x="95.410156"/>
       <use xlink:href="#DejaVuSans-32" x="159.033203"/>
       <use xlink:href="#DejaVuSans-35" x="222.65625"/>
      </g>
     </g>
    </g>
    <g id="ytick_2">
     <g id="line2d_8">
      <g>
       <use xlink:href="#mbfd4a419f2" x="56.50625" y="140.790563" style="stroke: #000000; stroke-width: 0.8"/>
      </g>
     </g>
     <g id="text_2">
      <!-- 0.450 -->
      <g transform="translate(20.878125 144.589782)scale(0.1 -0.1)">
       <use xlink:href="#DejaVuSans-30"/>
       <use xlink:href="#DejaVuSans-2e" x="63.623047"/>
       <use xlink:href="#DejaVuSans-34" x="95.410156"/>
       <use xlink:href="#DejaVuSans-35" x="159.033203"/>
       <use xlink:href="#DejaVuSans-30" x="222.65625"/>
      </g>
     </g>
    </g>
    <g id="ytick_3">
     <g id="line2d_9">
      <g>
       <use xlink:href="#mbfd4a419f2" x="56.50625" y="115.582574" style="stroke: #000000; stroke-width: 0.8"/>
      </g>
     </g>
     <g id="text_3">
      <!-- 0.475 -->
      <g transform="translate(20.878125 119.381792)scale(0.1 -0.1)">
       <defs>
        <path id="DejaVuSans-37" d="M 525 4666 
L 3525 4666 
L 3525 4397 
L 1831 0 
L 1172 0 
L 2766 4134 
L 525 4134 
L 525 4666 
z
" transform="scale(0.015625)"/>
       </defs>
       <use xlink:href="#DejaVuSans-30"/>
       <use xlink:href="#DejaVuSans-2e" x="63.623047"/>
       <use xlink:href="#DejaVuSans-34" x="95.410156"/>
       <use xlink:href="#DejaVuSans-37" x="159.033203"/>
       <use xlink:href="#DejaVuSans-35" x="222.65625"/>
      </g>
     </g>
    </g>
    <g id="ytick_4">
     <g id="line2d_10">
      <g>
       <use xlink:href="#mbfd4a419f2" x="56.50625" y="90.374584" style="stroke: #000000; stroke-width: 0.8"/>
      </g>
     </g>
     <g id="text_4">
      <!-- 0.500 -->
      <g transform="translate(20.878125 94.173803)scale(0.1 -0.1)">
       <use xlink:href="#DejaVuSans-30"/>
       <use xlink:href="#DejaVuSans-2e" x="63.623047"/>
       <use xlink:href="#DejaVuSans-35" x="95.410156"/>
       <use xlink:href="#DejaVuSans-30" x="159.033203"/>
       <use xlink:href="#DejaVuSans-30" x="222.65625"/>
      </g>
     </g>
    </g>
    <g id="ytick_5">
     <g id="line2d_11">
      <g>
       <use xlink:href="#mbfd4a419f2" x="56.50625" y="65.166595" style="stroke: #000000; stroke-width: 0.8"/>
      </g>
     </g>
     <g id="text_5">
      <!-- 0.525 -->
      <g transform="translate(20.878125 68.965813)scale(0.1 -0.1)">
       <use xlink:href="#DejaVuSans-30"/>
       <use xlink:href="#DejaVuSans-2e" x="63.623047"/>
       <use xlink:href="#DejaVuSans-35" x="95.410156"/>
       <use xlink:href="#DejaVuSans-32" x="159.033203"/>
       <use xlink:href="#DejaVuSans-35" x="222.65625"/>
      </g>
     </g>
    </g>
    <g id="ytick_6">
     <g id="line2d_12">
      <g>
       <use xlink:href="#mbfd4a419f2" x="56.50625" y="39.958605" style="stroke: #000000; stroke-width: 0.8"/>
      </g>
     </g>
     <g id="text_6">
      <!-- 0.550 -->
      <g transform="translate(20.878125 43.757824)scale(0.1 -0.1)">
       <use xlink:href="#DejaVuSans-30"/>
       <use xlink:href="#DejaVuSans-2e" x="63.623047"/>
       <use xlink:href="#DejaVuSans-35" x="95.410156"/>
       <use xlink:href="#DejaVuSans-35" x="159.033203"/>
       <use xlink:href="#DejaVuSans-30" x="222.65625"/>
      </g>
     </g>
    </g>
    <g id="text_7">
     <!-- $\epsilon$ -->
     <g transform="translate(14.798438 108.249378)rotate(-90)scale(0.1 -0.1)">
      <defs>
       <path id="DejaVuSans-Oblique-3b5" d="M 1263 1888 
Q 925 1963 778 2166 
Q 669 2309 669 2503 
Q 669 3034 1175 3344 
Q 1575 3588 2188 3588 
Q 2425 3588 2684 3550 
Q 2944 3513 3234 3438 
L 3134 2916 
Q 2847 3006 2606 3047 
Q 2359 3088 2138 3088 
Q 1766 3088 1522 2944 
Q 1228 2772 1228 2522 
Q 1228 2356 1381 2241 
Q 1563 2103 1925 2103 
L 2409 2103 
L 2319 1628 
L 1856 1628 
Q 1425 1628 1172 1469 
Q 828 1253 828 916 
Q 828 703 1013 563 
Q 1244 388 1716 388 
Q 2006 388 2284 444 
Q 2563 503 2806 619 
L 2700 84 
Q 2403 -3 2131 -47 
Q 1859 -91 1609 -91 
Q 866 -91 516 194 
Q 250 413 250 781 
Q 250 1278 600 1584 
Q 859 1813 1263 1888 
z
" transform="scale(0.015625)"/>
      </defs>
      <use xlink:href="#DejaVuSans-Oblique-3b5" transform="translate(0 0.9375)"/>
     </g>
    </g>
   </g>
   <g id="line2d_13">
    <defs>
     <path id="m024ac7f227" d="M -3.5 3.5 
L 3.5 -3.5 
M -3.5 -3.5 
L 3.5 3.5 
" style="stroke: #00395b"/>
    </defs>
    <g clip-path="url(#pea4e2435cd)">
     <use xlink:href="#m024ac7f227" x="244.136616" y="53.023166" style="fill: #00395b; stroke: #00395b"/>
     <use xlink:href="#m024ac7f227" x="154.788823" y="64.21028" style="fill: #00395b; stroke: #00395b"/>
     <use xlink:href="#m024ac7f227" x="65.441029" y="84.578554" style="fill: #00395b; stroke: #00395b"/>
    </g>
   </g>
   <g id="line2d_14">
    <defs>
     <path id="m3f5179e3f5" d="M -3.5 3.5 
L 3.5 -3.5 
M -3.5 -3.5 
L 3.5 3.5 
" style="stroke: #74adc1"/>
    </defs>
    <g clip-path="url(#pea4e2435cd)">
     <use xlink:href="#m3f5179e3f5" x="244.136616" y="63.788028" style="fill: #74adc1; stroke: #74adc1"/>
     <use xlink:href="#m3f5179e3f5" x="154.788823" y="73.845238" style="fill: #74adc1; stroke: #74adc1"/>
     <use xlink:href="#m3f5179e3f5" x="65.441029" y="93.190065" style="fill: #74adc1; stroke: #74adc1"/>
    </g>
   </g>
   <g id="line2d_15">
    <defs>
     <path id="mbd6225c104" d="M -3.5 3.5 
L 3.5 -3.5 
M -3.5 -3.5 
L 3.5 3.5 
" style="stroke: #b54036"/>
    </defs>
    <g clip-path="url(#pea4e2435cd)">
     <use xlink:href="#mbd6225c104" x="244.136616" y="74.702945" style="fill: #b54036; stroke: #b54036"/>
     <use xlink:href="#mbd6225c104" x="154.788823" y="84.981126" style="fill: #b54036; stroke: #b54036"/>
     <use xlink:href="#mbd6225c104" x="65.441029" y="102.060573" style="fill: #b54036; stroke: #b54036"/>
    </g>
   </g>
   <g id="patch_3">
    <path d="M 56.50625 171.040151 
L 56.50625 39.958605 
" style="fill: none; stroke: #000000; stroke-width: 0.8; stroke-linejoin: miter; stroke-linecap: square"/>
   </g>
   <g id="patch_4">
    <path d="M 253.071395 171.040151 
L 253.071395 39.958605 
" style="fill: none; stroke: #000000; stroke-width: 0.8; stroke-linejoin: miter; stroke-linecap: square"/>
   </g>
   <g id="patch_5">
    <path d="M 56.50625 171.040151 
L 253.071395 171.040151 
" style="fill: none; stroke: #000000; stroke-width: 0.8; stroke-linejoin: miter; stroke-linecap: square"/>
   </g>
   <g id="patch_6">
    <path d="M 56.50625 39.958605 
L 253.071395 39.958605 
" style="fill: none; stroke: #000000; stroke-width: 0.8; stroke-linejoin: miter; stroke-linecap: square"/>
   </g>
   <g id="text_8">
    <!-- NH3 -->
    <g transform="translate(141.970385 33.958605)scale(0.12 -0.12)">
     <defs>
      <path id="DejaVuSans-4e" d="M 628 4666 
L 1478 4666 
L 3547 763 
L 3547 4666 
L 4159 4666 
L 4159 0 
L 3309 0 
L 1241 3903 
L 1241 0 
L 628 0 
L 628 4666 
z
" transform="scale(0.015625)"/>
      <path id="DejaVuSans-48" d="M 628 4666 
L 1259 4666 
L 1259 2753 
L 3553 2753 
L 3553 4666 
L 4184 4666 
L 4184 0 
L 3553 0 
L 3553 2222 
L 1259 2222 
L 1259 0 
L 628 0 
L 628 4666 
z
" transform="scale(0.015625)"/>
      <path id="DejaVuSans-33" d="M 2597 2516 
Q 3050 2419 3304 2112 
Q 3559 1806 3559 1356 
Q 3559 666 3084 287 
Q 2609 -91 1734 -91 
Q 1441 -91 1130 -33 
Q 819 25 488 141 
L 488 750 
Q 750 597 1062 519 
Q 1375 441 1716 441 
Q 2309 441 2620 675 
Q 2931 909 2931 1356 
Q 2931 1769 2642 2001 
Q 2353 2234 1838 2234 
L 1294 2234 
L 1294 2753 
L 1863 2753 
Q 2328 2753 2575 2939 
Q 2822 3125 2822 3475 
Q 2822 3834 2567 4026 
Q 2313 4219 1838 4219 
Q 1578 4219 1281 4162 
Q 984 4106 628 3988 
L 628 4550 
Q 988 4650 1302 4700 
Q 1616 4750 1894 4750 
Q 2613 4750 3031 4423 
Q 3450 4097 3450 3541 
Q 3450 3153 3228 2886 
Q 3006 2619 2597 2516 
z
" transform="scale(0.015625)"/>
     </defs>
     <use xlink:href="#DejaVuSans-4e"/>
     <use xlink:href="#DejaVuSans-48" x="74.804688"/>
     <use xlink:href="#DejaVuSans-33" x="150"/>
    </g>
   </g>
  </g>
  <g id="axes_2">
   <g id="patch_7">
    <path d="M 265.434375 171.040151 
L 461.99952 171.040151 
L 461.99952 39.958605 
L 265.434375 39.958605 
z
" style="fill: #ffffff"/>
   </g>
   <g id="matplotlib.axis_3">
    <g id="xtick_7">
     <g id="line2d_16">
      <g>
       <use xlink:href="#m7e23bcaa54" x="265.434375" y="171.040151" style="stroke: #000000; stroke-width: 0.8"/>
      </g>
     </g>
    </g>
    <g id="xtick_8">
     <g id="line2d_17">
      <g>
       <use xlink:href="#m7e23bcaa54" x="301.173492" y="171.040151" style="stroke: #000000; stroke-width: 0.8"/>
      </g>
     </g>
    </g>
    <g id="xtick_9">
     <g id="line2d_18">
      <g>
       <use xlink:href="#m7e23bcaa54" x="336.91261" y="171.040151" style="stroke: #000000; stroke-width: 0.8"/>
      </g>
     </g>
    </g>
    <g id="xtick_10">
     <g id="line2d_19">
      <g>
       <use xlink:href="#m7e23bcaa54" x="372.651727" y="171.040151" style="stroke: #000000; stroke-width: 0.8"/>
      </g>
     </g>
    </g>
    <g id="xtick_11">
     <g id="line2d_20">
      <g>
       <use xlink:href="#m7e23bcaa54" x="408.390844" y="171.040151" style="stroke: #000000; stroke-width: 0.8"/>
      </g>
     </g>
    </g>
    <g id="xtick_12">
     <g id="line2d_21">
      <g>
       <use xlink:href="#m7e23bcaa54" x="444.129961" y="171.040151" style="stroke: #000000; stroke-width: 0.8"/>
      </g>
     </g>
    </g>
   </g>
   <g id="matplotlib.axis_4">
    <g id="ytick_7">
     <g id="line2d_22">
      <g>
       <use xlink:href="#mbfd4a419f2" x="265.434375" y="165.998553" style="stroke: #000000; stroke-width: 0.8"/>
      </g>
     </g>
    </g>
    <g id="ytick_8">
     <g id="line2d_23">
      <g>
       <use xlink:href="#mbfd4a419f2" x="265.434375" y="140.790563" style="stroke: #000000; stroke-width: 0.8"/>
      </g>
     </g>
    </g>
    <g id="ytick_9">
     <g id="line2d_24">
      <g>
       <use xlink:href="#mbfd4a419f2" x="265.434375" y="115.582574" style="stroke: #000000; stroke-width: 0.8"/>
      </g>
     </g>
    </g>
    <g id="ytick_10">
     <g id="line2d_25">
      <g>
       <use xlink:href="#mbfd4a419f2" x="265.434375" y="90.374584" style="stroke: #000000; stroke-width: 0.8"/>
      </g>
     </g>
    </g>
    <g id="ytick_11">
     <g id="line2d_26">
      <g>
       <use xlink:href="#mbfd4a419f2" x="265.434375" y="65.166595" style="stroke: #000000; stroke-width: 0.8"/>
      </g>
     </g>
    </g>
    <g id="ytick_12">
     <g id="line2d_27">
      <g>
       <use xlink:href="#mbfd4a419f2" x="265.434375" y="39.958605" style="stroke: #000000; stroke-width: 0.8"/>
      </g>
     </g>
    </g>
   </g>
   <g id="line2d_28">
    <g clip-path="url(#pf6fe5be577)">
     <use xlink:href="#m024ac7f227" x="453.064741" y="114.271996" style="fill: #00395b; stroke: #00395b"/>
     <use xlink:href="#m024ac7f227" x="363.716947" y="112.890187" style="fill: #00395b; stroke: #00395b"/>
     <use xlink:href="#m024ac7f227" x="274.369154" y="124.347867" style="fill: #00395b; stroke: #00395b"/>
    </g>
   </g>
   <g id="line2d_29">
    <g clip-path="url(#pf6fe5be577)">
     <use xlink:href="#m3f5179e3f5" x="453.064741" y="125.008109" style="fill: #74adc1; stroke: #74adc1"/>
     <use xlink:href="#m3f5179e3f5" x="363.716947" y="123.085322" style="fill: #74adc1; stroke: #74adc1"/>
     <use xlink:href="#m3f5179e3f5" x="274.369154" y="133.99251" style="fill: #74adc1; stroke: #74adc1"/>
    </g>
   </g>
   <g id="line2d_30">
    <g clip-path="url(#pf6fe5be577)">
     <use xlink:href="#mbd6225c104" x="453.064741" y="136.265688" style="fill: #b54036; stroke: #b54036"/>
     <use xlink:href="#mbd6225c104" x="363.716947" y="134.473666" style="fill: #b54036; stroke: #b54036"/>
     <use xlink:href="#mbd6225c104" x="274.369154" y="143.400117" style="fill: #b54036; stroke: #b54036"/>
    </g>
   </g>
   <g id="patch_8">
    <path d="M 265.434375 171.040151 
L 265.434375 39.958605 
" style="fill: none; stroke: #000000; stroke-width: 0.8; stroke-linejoin: miter; stroke-linecap: square"/>
   </g>
   <g id="patch_9">
    <path d="M 461.99952 171.040151 
L 461.99952 39.958605 
" style="fill: none; stroke: #000000; stroke-width: 0.8; stroke-linejoin: miter; stroke-linecap: square"/>
   </g>
   <g id="patch_10">
    <path d="M 265.434375 171.040151 
L 461.99952 171.040151 
" style="fill: none; stroke: #000000; stroke-width: 0.8; stroke-linejoin: miter; stroke-linecap: square"/>
   </g>
   <g id="patch_11">
    <path d="M 265.434375 39.958605 
L 461.99952 39.958605 
" style="fill: none; stroke: #000000; stroke-width: 0.8; stroke-linejoin: miter; stroke-linecap: square"/>
   </g>
   <g id="text_9">
    <!-- R410A -->
    <g transform="translate(343.99101 33.958605)scale(0.12 -0.12)">
     <defs>
      <path id="DejaVuSans-52" d="M 2841 2188 
Q 3044 2119 3236 1894 
Q 3428 1669 3622 1275 
L 4263 0 
L 3584 0 
L 2988 1197 
Q 2756 1666 2539 1819 
Q 2322 1972 1947 1972 
L 1259 1972 
L 1259 0 
L 628 0 
L 628 4666 
L 2053 4666 
Q 2853 4666 3247 4331 
Q 3641 3997 3641 3322 
Q 3641 2881 3436 2590 
Q 3231 2300 2841 2188 
z
M 1259 4147 
L 1259 2491 
L 2053 2491 
Q 2509 2491 2742 2702 
Q 2975 2913 2975 3322 
Q 2975 3731 2742 3939 
Q 2509 4147 2053 4147 
L 1259 4147 
z
" transform="scale(0.015625)"/>
      <path id="DejaVuSans-31" d="M 794 531 
L 1825 531 
L 1825 4091 
L 703 3866 
L 703 4441 
L 1819 4666 
L 2450 4666 
L 2450 531 
L 3481 531 
L 3481 0 
L 794 0 
L 794 531 
z
" transform="scale(0.015625)"/>
      <path id="DejaVuSans-41" d="M 2188 4044 
L 1331 1722 
L 3047 1722 
L 2188 4044 
z
M 1831 4666 
L 2547 4666 
L 4325 0 
L 3669 0 
L 3244 1197 
L 1141 1197 
L 716 0 
L 50 0 
L 1831 4666 
z
" transform="scale(0.015625)"/>
     </defs>
     <use xlink:href="#DejaVuSans-52"/>
     <use xlink:href="#DejaVuSans-34" x="69.482422"/>
     <use xlink:href="#DejaVuSans-31" x="133.105469"/>
     <use xlink:href="#DejaVuSans-30" x="196.728516"/>
     <use xlink:href="#DejaVuSans-41" x="260.351562"/>
    </g>
   </g>
  </g>
  <g id="axes_3">
   <g id="patch_12">
    <path d="M 56.50625 315.421395 
L 253.071395 315.421395 
L 253.071395 184.339849 
L 56.50625 184.339849 
z
" style="fill: #ffffff"/>
   </g>
   <g id="matplotlib.axis_5">
    <g id="xtick_13">
     <g id="line2d_31">
      <g>
       <use xlink:href="#m7e23bcaa54" x="56.50625" y="315.421395" style="stroke: #000000; stroke-width: 0.8"/>
      </g>
     </g>
     <g id="text_10">
      <!-- 32 -->
      <g transform="translate(50.14375 330.019833)scale(0.1 -0.1)">
       <use xlink:href="#DejaVuSans-33"/>
       <use xlink:href="#DejaVuSans-32" x="63.623047"/>
      </g>
     </g>
    </g>
    <g id="xtick_14">
     <g id="line2d_32">
      <g>
       <use xlink:href="#m7e23bcaa54" x="92.245367" y="315.421395" style="stroke: #000000; stroke-width: 0.8"/>
      </g>
     </g>
     <g id="text_11">
      <!-- 34 -->
      <g transform="translate(85.882867 330.019833)scale(0.1 -0.1)">
       <use xlink:href="#DejaVuSans-33"/>
       <use xlink:href="#DejaVuSans-34" x="63.623047"/>
      </g>
     </g>
    </g>
    <g id="xtick_15">
     <g id="line2d_33">
      <g>
       <use xlink:href="#m7e23bcaa54" x="127.984485" y="315.421395" style="stroke: #000000; stroke-width: 0.8"/>
      </g>
     </g>
     <g id="text_12">
      <!-- 36 -->
      <g transform="translate(121.621985 330.019833)scale(0.1 -0.1)">
       <defs>
        <path id="DejaVuSans-36" d="M 2113 2584 
Q 1688 2584 1439 2293 
Q 1191 2003 1191 1497 
Q 1191 994 1439 701 
Q 1688 409 2113 409 
Q 2538 409 2786 701 
Q 3034 994 3034 1497 
Q 3034 2003 2786 2293 
Q 2538 2584 2113 2584 
z
M 3366 4563 
L 3366 3988 
Q 3128 4100 2886 4159 
Q 2644 4219 2406 4219 
Q 1781 4219 1451 3797 
Q 1122 3375 1075 2522 
Q 1259 2794 1537 2939 
Q 1816 3084 2150 3084 
Q 2853 3084 3261 2657 
Q 3669 2231 3669 1497 
Q 3669 778 3244 343 
Q 2819 -91 2113 -91 
Q 1303 -91 875 529 
Q 447 1150 447 2328 
Q 447 3434 972 4092 
Q 1497 4750 2381 4750 
Q 2619 4750 2861 4703 
Q 3103 4656 3366 4563 
z
" transform="scale(0.015625)"/>
       </defs>
       <use xlink:href="#DejaVuSans-33"/>
       <use xlink:href="#DejaVuSans-36" x="63.623047"/>
      </g>
     </g>
    </g>
    <g id="xtick_16">
     <g id="line2d_34">
      <g>
       <use xlink:href="#m7e23bcaa54" x="163.723602" y="315.421395" style="stroke: #000000; stroke-width: 0.8"/>
      </g>
     </g>
     <g id="text_13">
      <!-- 38 -->
      <g transform="translate(157.361102 330.019833)scale(0.1 -0.1)">
       <defs>
        <path id="DejaVuSans-38" d="M 2034 2216 
Q 1584 2216 1326 1975 
Q 1069 1734 1069 1313 
Q 1069 891 1326 650 
Q 1584 409 2034 409 
Q 2484 409 2743 651 
Q 3003 894 3003 1313 
Q 3003 1734 2745 1975 
Q 2488 2216 2034 2216 
z
M 1403 2484 
Q 997 2584 770 2862 
Q 544 3141 544 3541 
Q 544 4100 942 4425 
Q 1341 4750 2034 4750 
Q 2731 4750 3128 4425 
Q 3525 4100 3525 3541 
Q 3525 3141 3298 2862 
Q 3072 2584 2669 2484 
Q 3125 2378 3379 2068 
Q 3634 1759 3634 1313 
Q 3634 634 3220 271 
Q 2806 -91 2034 -91 
Q 1263 -91 848 271 
Q 434 634 434 1313 
Q 434 1759 690 2068 
Q 947 2378 1403 2484 
z
M 1172 3481 
Q 1172 3119 1398 2916 
Q 1625 2713 2034 2713 
Q 2441 2713 2670 2916 
Q 2900 3119 2900 3481 
Q 2900 3844 2670 4047 
Q 2441 4250 2034 4250 
Q 1625 4250 1398 4047 
Q 1172 3844 1172 3481 
z
" transform="scale(0.015625)"/>
       </defs>
       <use xlink:href="#DejaVuSans-33"/>
       <use xlink:href="#DejaVuSans-38" x="63.623047"/>
      </g>
     </g>
    </g>
    <g id="xtick_17">
     <g id="line2d_35">
      <g>
       <use xlink:href="#m7e23bcaa54" x="199.462719" y="315.421395" style="stroke: #000000; stroke-width: 0.8"/>
      </g>
     </g>
     <g id="text_14">
      <!-- 40 -->
      <g transform="translate(193.100219 330.019833)scale(0.1 -0.1)">
       <use xlink:href="#DejaVuSans-34"/>
       <use xlink:href="#DejaVuSans-30" x="63.623047"/>
      </g>
     </g>
    </g>
    <g id="xtick_18">
     <g id="line2d_36">
      <g>
       <use xlink:href="#m7e23bcaa54" x="235.201836" y="315.421395" style="stroke: #000000; stroke-width: 0.8"/>
      </g>
     </g>
     <g id="text_15">
      <!-- 42 -->
      <g transform="translate(228.839336 330.019833)scale(0.1 -0.1)">
       <use xlink:href="#DejaVuSans-34"/>
       <use xlink:href="#DejaVuSans-32" x="63.623047"/>
      </g>
     </g>
    </g>
    <g id="text_16">
     <!-- $T_{heating system}$ in °C -->
     <g transform="translate(111.888822 343.69952)scale(0.1 -0.1)">
      <defs>
       <path id="DejaVuSans-Oblique-54" d="M 378 4666 
L 4325 4666 
L 4225 4134 
L 2559 4134 
L 1759 0 
L 1125 0 
L 1925 4134 
L 275 4134 
L 378 4666 
z
" transform="scale(0.015625)"/>
       <path id="DejaVuSans-Oblique-68" d="M 3566 2113 
L 3156 0 
L 2578 0 
L 2988 2091 
Q 3016 2238 3031 2350 
Q 3047 2463 3047 2528 
Q 3047 2791 2881 2937 
Q 2716 3084 2419 3084 
Q 1956 3084 1617 2771 
Q 1278 2459 1178 1941 
L 800 0 
L 225 0 
L 1172 4863 
L 1747 4863 
L 1375 2950 
Q 1594 3244 1934 3414 
Q 2275 3584 2650 3584 
Q 3113 3584 3367 3334 
Q 3622 3084 3622 2631 
Q 3622 2519 3608 2391 
Q 3594 2263 3566 2113 
z
" transform="scale(0.015625)"/>
       <path id="DejaVuSans-Oblique-65" d="M 3078 2063 
Q 3088 2113 3092 2166 
Q 3097 2219 3097 2272 
Q 3097 2653 2873 2875 
Q 2650 3097 2266 3097 
Q 1838 3097 1509 2826 
Q 1181 2556 1013 2059 
L 3078 2063 
z
M 3578 1613 
L 903 1613 
Q 884 1494 878 1425 
Q 872 1356 872 1306 
Q 872 872 1139 634 
Q 1406 397 1894 397 
Q 2269 397 2603 481 
Q 2938 566 3225 728 
L 3116 159 
Q 2806 34 2476 -28 
Q 2147 -91 1806 -91 
Q 1078 -91 686 257 
Q 294 606 294 1247 
Q 294 1794 489 2264 
Q 684 2734 1063 3103 
Q 1306 3334 1642 3459 
Q 1978 3584 2356 3584 
Q 2950 3584 3301 3228 
Q 3653 2872 3653 2272 
Q 3653 2128 3634 1964 
Q 3616 1800 3578 1613 
z
" transform="scale(0.015625)"/>
       <path id="DejaVuSans-Oblique-61" d="M 3438 1997 
L 3047 0 
L 2472 0 
L 2578 531 
Q 2325 219 2001 64 
Q 1678 -91 1281 -91 
Q 834 -91 548 182 
Q 263 456 263 884 
Q 263 1497 752 1853 
Q 1241 2209 2100 2209 
L 2900 2209 
L 2931 2363 
Q 2938 2388 2941 2417 
Q 2944 2447 2944 2509 
Q 2944 2788 2717 2942 
Q 2491 3097 2081 3097 
Q 1800 3097 1504 3025 
Q 1209 2953 897 2809 
L 997 3341 
Q 1322 3463 1633 3523 
Q 1944 3584 2234 3584 
Q 2853 3584 3176 3315 
Q 3500 3047 3500 2534 
Q 3500 2431 3484 2292 
Q 3469 2153 3438 1997 
z
M 2816 1759 
L 2241 1759 
Q 1534 1759 1195 1570 
Q 856 1381 856 984 
Q 856 709 1029 553 
Q 1203 397 1509 397 
Q 1978 397 2328 733 
Q 2678 1069 2791 1631 
L 2816 1759 
z
" transform="scale(0.015625)"/>
       <path id="DejaVuSans-Oblique-74" d="M 2706 3500 
L 2619 3053 
L 1472 3053 
L 1100 1153 
Q 1081 1047 1072 975 
Q 1063 903 1063 863 
Q 1063 663 1183 572 
Q 1303 481 1569 481 
L 2150 481 
L 2053 0 
L 1503 0 
Q 991 0 739 200 
Q 488 400 488 806 
Q 488 878 497 964 
Q 506 1050 525 1153 
L 897 3053 
L 409 3053 
L 500 3500 
L 978 3500 
L 1172 4494 
L 1747 4494 
L 1556 3500 
L 2706 3500 
z
" transform="scale(0.015625)"/>
       <path id="DejaVuSans-Oblique-69" d="M 1172 4863 
L 1747 4863 
L 1606 4134 
L 1031 4134 
L 1172 4863 
z
M 909 3500 
L 1484 3500 
L 800 0 
L 225 0 
L 909 3500 
z
" transform="scale(0.015625)"/>
       <path id="DejaVuSans-Oblique-6e" d="M 3566 2113 
L 3156 0 
L 2578 0 
L 2988 2091 
Q 3016 2238 3031 2350 
Q 3047 2463 3047 2528 
Q 3047 2791 2881 2937 
Q 2716 3084 2419 3084 
Q 1956 3084 1622 2776 
Q 1288 2469 1184 1941 
L 800 0 
L 225 0 
L 903 3500 
L 1478 3500 
L 1363 2950 
Q 1603 3253 1940 3418 
Q 2278 3584 2650 3584 
Q 3113 3584 3367 3334 
Q 3622 3084 3622 2631 
Q 3622 2519 3608 2391 
Q 3594 2263 3566 2113 
z
" transform="scale(0.015625)"/>
       <path id="DejaVuSans-Oblique-67" d="M 3816 3500 
L 3219 434 
Q 3047 -456 2561 -893 
Q 2075 -1331 1253 -1331 
Q 950 -1331 690 -1286 
Q 431 -1241 206 -1147 
L 313 -588 
Q 525 -725 762 -790 
Q 1000 -856 1269 -856 
Q 1816 -856 2167 -557 
Q 2519 -259 2631 300 
L 2681 563 
Q 2441 288 2122 144 
Q 1803 0 1434 0 
Q 903 0 598 351 
Q 294 703 294 1319 
Q 294 1803 478 2267 
Q 663 2731 997 3091 
Q 1219 3328 1514 3456 
Q 1809 3584 2131 3584 
Q 2484 3584 2746 3420 
Q 3009 3256 3138 2956 
L 3238 3500 
L 3816 3500 
z
M 2950 2216 
Q 2950 2641 2750 2872 
Q 2550 3103 2181 3103 
Q 1953 3103 1747 3012 
Q 1541 2922 1394 2759 
Q 1156 2491 1023 2127 
Q 891 1763 891 1375 
Q 891 944 1092 712 
Q 1294 481 1672 481 
Q 2219 481 2584 976 
Q 2950 1472 2950 2216 
z
" transform="scale(0.015625)"/>
       <path id="DejaVuSans-Oblique-73" d="M 3200 3397 
L 3091 2853 
Q 2863 2978 2609 3040 
Q 2356 3103 2088 3103 
Q 1634 3103 1373 2948 
Q 1113 2794 1113 2528 
Q 1113 2219 1719 2053 
Q 1766 2041 1788 2034 
L 1972 1978 
Q 2547 1819 2739 1644 
Q 2931 1469 2931 1166 
Q 2931 609 2489 259 
Q 2047 -91 1331 -91 
Q 1053 -91 747 -37 
Q 441 16 72 128 
L 184 722 
Q 500 559 806 475 
Q 1113 391 1394 391 
Q 1816 391 2080 572 
Q 2344 753 2344 1031 
Q 2344 1331 1650 1516 
L 1591 1531 
L 1394 1581 
Q 956 1697 753 1886 
Q 550 2075 550 2369 
Q 550 2928 970 3256 
Q 1391 3584 2113 3584 
Q 2397 3584 2667 3537 
Q 2938 3491 3200 3397 
z
" transform="scale(0.015625)"/>
       <path id="DejaVuSans-Oblique-79" d="M 1588 -325 
Q 1188 -997 936 -1164 
Q 684 -1331 294 -1331 
L -159 -1331 
L -63 -850 
L 269 -850 
Q 509 -850 678 -719 
Q 847 -588 1056 -206 
L 1234 128 
L 459 3500 
L 1069 3500 
L 1650 819 
L 3256 3500 
L 3859 3500 
L 1588 -325 
z
" transform="scale(0.015625)"/>
       <path id="DejaVuSans-Oblique-6d" d="M 5747 2113 
L 5338 0 
L 4763 0 
L 5166 2094 
Q 5191 2228 5203 2325 
Q 5216 2422 5216 2491 
Q 5216 2772 5059 2928 
Q 4903 3084 4622 3084 
Q 4203 3084 3875 2770 
Q 3547 2456 3450 1953 
L 3066 0 
L 2491 0 
L 2900 2094 
Q 2925 2209 2937 2307 
Q 2950 2406 2950 2484 
Q 2950 2769 2794 2926 
Q 2638 3084 2363 3084 
Q 1938 3084 1609 2770 
Q 1281 2456 1184 1953 
L 800 0 
L 225 0 
L 909 3500 
L 1484 3500 
L 1375 2956 
Q 1609 3263 1923 3423 
Q 2238 3584 2597 3584 
Q 2978 3584 3223 3384 
Q 3469 3184 3519 2828 
Q 3781 3197 4126 3390 
Q 4472 3584 4856 3584 
Q 5306 3584 5551 3325 
Q 5797 3066 5797 2591 
Q 5797 2488 5784 2364 
Q 5772 2241 5747 2113 
z
" transform="scale(0.015625)"/>
       <path id="DejaVuSans-20" transform="scale(0.015625)"/>
       <path id="DejaVuSans-69" d="M 603 3500 
L 1178 3500 
L 1178 0 
L 603 0 
L 603 3500 
z
M 603 4863 
L 1178 4863 
L 1178 4134 
L 603 4134 
L 603 4863 
z
" transform="scale(0.015625)"/>
       <path id="DejaVuSans-6e" d="M 3513 2113 
L 3513 0 
L 2938 0 
L 2938 2094 
Q 2938 2591 2744 2837 
Q 2550 3084 2163 3084 
Q 1697 3084 1428 2787 
Q 1159 2491 1159 1978 
L 1159 0 
L 581 0 
L 581 3500 
L 1159 3500 
L 1159 2956 
Q 1366 3272 1645 3428 
Q 1925 3584 2291 3584 
Q 2894 3584 3203 3211 
Q 3513 2838 3513 2113 
z
" transform="scale(0.015625)"/>
       <path id="DejaVuSans-b0" d="M 1600 4347 
Q 1350 4347 1178 4173 
Q 1006 4000 1006 3750 
Q 1006 3503 1178 3333 
Q 1350 3163 1600 3163 
Q 1850 3163 2022 3333 
Q 2194 3503 2194 3750 
Q 2194 3997 2020 4172 
Q 1847 4347 1600 4347 
z
M 1600 4750 
Q 1800 4750 1984 4673 
Q 2169 4597 2303 4453 
Q 2447 4313 2519 4134 
Q 2591 3956 2591 3750 
Q 2591 3338 2302 3052 
Q 2013 2766 1594 2766 
Q 1172 2766 890 3047 
Q 609 3328 609 3750 
Q 609 4169 896 4459 
Q 1184 4750 1600 4750 
z
" transform="scale(0.015625)"/>
       <path id="DejaVuSans-43" d="M 4122 4306 
L 4122 3641 
Q 3803 3938 3442 4084 
Q 3081 4231 2675 4231 
Q 1875 4231 1450 3742 
Q 1025 3253 1025 2328 
Q 1025 1406 1450 917 
Q 1875 428 2675 428 
Q 3081 428 3442 575 
Q 3803 722 4122 1019 
L 4122 359 
Q 3791 134 3420 21 
Q 3050 -91 2638 -91 
Q 1578 -91 968 557 
Q 359 1206 359 2328 
Q 359 3453 968 4101 
Q 1578 4750 2638 4750 
Q 3056 4750 3426 4639 
Q 3797 4528 4122 4306 
z
" transform="scale(0.015625)"/>
      </defs>
      <use xlink:href="#DejaVuSans-Oblique-54" transform="translate(0 0.015625)"/>
      <use xlink:href="#DejaVuSans-Oblique-68" transform="translate(61.083984 -16.390625)scale(0.7)"/>
      <use xlink:href="#DejaVuSans-Oblique-65" transform="translate(105.449219 -16.390625)scale(0.7)"/>
      <use xlink:href="#DejaVuSans-Oblique-61" transform="translate(148.515625 -16.390625)scale(0.7)"/>
      <use xlink:href="#DejaVuSans-Oblique-74" transform="translate(191.411133 -16.390625)scale(0.7)"/>
      <use xlink:href="#DejaVuSans-Oblique-69" transform="translate(218.857422 -16.390625)scale(0.7)"/>
      <use xlink:href="#DejaVuSans-Oblique-6e" transform="translate(238.305664 -16.390625)scale(0.7)"/>
      <use xlink:href="#DejaVuSans-Oblique-67" transform="translate(282.670898 -16.390625)scale(0.7)"/>
      <use xlink:href="#DejaVuSans-Oblique-73" transform="translate(327.104492 -16.390625)scale(0.7)"/>
      <use xlink:href="#DejaVuSans-Oblique-79" transform="translate(363.574219 -16.390625)scale(0.7)"/>
      <use xlink:href="#DejaVuSans-Oblique-73" transform="translate(405 -16.390625)scale(0.7)"/>
      <use xlink:href="#DejaVuSans-Oblique-74" transform="translate(441.469727 -16.390625)scale(0.7)"/>
      <use xlink:href="#DejaVuSans-Oblique-65" transform="translate(468.916016 -16.390625)scale(0.7)"/>
      <use xlink:href="#DejaVuSans-Oblique-6d" transform="translate(511.982422 -16.390625)scale(0.7)"/>
      <use xlink:href="#DejaVuSans-20" transform="translate(582.905273 0.015625)"/>
      <use xlink:href="#DejaVuSans-69" transform="translate(614.692383 0.015625)"/>
      <use xlink:href="#DejaVuSans-6e" transform="translate(642.475586 0.015625)"/>
      <use xlink:href="#DejaVuSans-20" transform="translate(705.854492 0.015625)"/>
      <use xlink:href="#DejaVuSans-b0" transform="translate(737.641602 0.015625)"/>
      <use xlink:href="#DejaVuSans-43" transform="translate(787.641602 0.015625)"/>
     </g>
    </g>
   </g>
   <g id="matplotlib.axis_6">
    <g id="ytick_13">
     <g id="line2d_37">
      <g>
       <use xlink:href="#mbfd4a419f2" x="56.50625" y="315.421395" style="stroke: #000000; stroke-width: 0.8"/>
      </g>
     </g>
     <g id="text_17">
      <!-- 3.5 -->
      <g transform="translate(33.603125 319.220614)scale(0.1 -0.1)">
       <use xlink:href="#DejaVuSans-33"/>
       <use xlink:href="#DejaVuSans-2e" x="63.623047"/>
       <use xlink:href="#DejaVuSans-35" x="95.410156"/>
      </g>
     </g>
    </g>
    <g id="ytick_14">
     <g id="line2d_38">
      <g>
       <use xlink:href="#mbfd4a419f2" x="56.50625" y="293.574471" style="stroke: #000000; stroke-width: 0.8"/>
      </g>
     </g>
     <g id="text_18">
      <!-- 4.0 -->
      <g transform="translate(33.603125 297.373689)scale(0.1 -0.1)">
       <use xlink:href="#DejaVuSans-34"/>
       <use xlink:href="#DejaVuSans-2e" x="63.623047"/>
       <use xlink:href="#DejaVuSans-30" x="95.410156"/>
      </g>
     </g>
    </g>
    <g id="ytick_15">
     <g id="line2d_39">
      <g>
       <use xlink:href="#mbfd4a419f2" x="56.50625" y="271.727546" style="stroke: #000000; stroke-width: 0.8"/>
      </g>
     </g>
     <g id="text_19">
      <!-- 4.5 -->
      <g transform="translate(33.603125 275.526765)scale(0.1 -0.1)">
       <use xlink:href="#DejaVuSans-34"/>
       <use xlink:href="#DejaVuSans-2e" x="63.623047"/>
       <use xlink:href="#DejaVuSans-35" x="95.410156"/>
      </g>
     </g>
    </g>
    <g id="ytick_16">
     <g id="line2d_40">
      <g>
       <use xlink:href="#mbfd4a419f2" x="56.50625" y="249.880622" style="stroke: #000000; stroke-width: 0.8"/>
      </g>
     </g>
     <g id="text_20">
      <!-- 5.0 -->
      <g transform="translate(33.603125 253.679841)scale(0.1 -0.1)">
       <use xlink:href="#DejaVuSans-35"/>
       <use xlink:href="#DejaVuSans-2e" x="63.623047"/>
       <use xlink:href="#DejaVuSans-30" x="95.410156"/>
      </g>
     </g>
    </g>
    <g id="ytick_17">
     <g id="line2d_41">
      <g>
       <use xlink:href="#mbfd4a419f2" x="56.50625" y="228.033698" style="stroke: #000000; stroke-width: 0.8"/>
      </g>
     </g>
     <g id="text_21">
      <!-- 5.5 -->
      <g transform="translate(33.603125 231.832917)scale(0.1 -0.1)">
       <use xlink:href="#DejaVuSans-35"/>
       <use xlink:href="#DejaVuSans-2e" x="63.623047"/>
       <use xlink:href="#DejaVuSans-35" x="95.410156"/>
      </g>
     </g>
    </g>
    <g id="ytick_18">
     <g id="line2d_42">
      <g>
       <use xlink:href="#mbfd4a419f2" x="56.50625" y="206.186774" style="stroke: #000000; stroke-width: 0.8"/>
      </g>
     </g>
     <g id="text_22">
      <!-- 6.0 -->
      <g transform="translate(33.603125 209.985992)scale(0.1 -0.1)">
       <use xlink:href="#DejaVuSans-36"/>
       <use xlink:href="#DejaVuSans-2e" x="63.623047"/>
       <use xlink:href="#DejaVuSans-30" x="95.410156"/>
      </g>
     </g>
    </g>
    <g id="ytick_19">
     <g id="line2d_43">
      <g>
       <use xlink:href="#mbfd4a419f2" x="56.50625" y="184.339849" style="stroke: #000000; stroke-width: 0.8"/>
      </g>
     </g>
     <g id="text_23">
      <!-- 6.5 -->
      <g transform="translate(33.603125 188.139068)scale(0.1 -0.1)">
       <use xlink:href="#DejaVuSans-36"/>
       <use xlink:href="#DejaVuSans-2e" x="63.623047"/>
       <use xlink:href="#DejaVuSans-35" x="95.410156"/>
      </g>
     </g>
    </g>
    <g id="text_24">
     <!-- COP -->
     <g transform="translate(27.523438 260.32281)rotate(-90)scale(0.1 -0.1)">
      <defs>
       <path id="DejaVuSans-4f" d="M 2522 4238 
Q 1834 4238 1429 3725 
Q 1025 3213 1025 2328 
Q 1025 1447 1429 934 
Q 1834 422 2522 422 
Q 3209 422 3611 934 
Q 4013 1447 4013 2328 
Q 4013 3213 3611 3725 
Q 3209 4238 2522 4238 
z
M 2522 4750 
Q 3503 4750 4090 4092 
Q 4678 3434 4678 2328 
Q 4678 1225 4090 567 
Q 3503 -91 2522 -91 
Q 1538 -91 948 565 
Q 359 1222 359 2328 
Q 359 3434 948 4092 
Q 1538 4750 2522 4750 
z
" transform="scale(0.015625)"/>
       <path id="DejaVuSans-50" d="M 1259 4147 
L 1259 2394 
L 2053 2394 
Q 2494 2394 2734 2622 
Q 2975 2850 2975 3272 
Q 2975 3691 2734 3919 
Q 2494 4147 2053 4147 
L 1259 4147 
z
M 628 4666 
L 2053 4666 
Q 2838 4666 3239 4311 
Q 3641 3956 3641 3272 
Q 3641 2581 3239 2228 
Q 2838 1875 2053 1875 
L 1259 1875 
L 1259 0 
L 628 0 
L 628 4666 
z
" transform="scale(0.015625)"/>
      </defs>
      <use xlink:href="#DejaVuSans-43"/>
      <use xlink:href="#DejaVuSans-4f" x="69.824219"/>
      <use xlink:href="#DejaVuSans-50" x="148.535156"/>
     </g>
    </g>
   </g>
   <g id="line2d_44">
    <g clip-path="url(#pccdd92dc5a)">
     <use xlink:href="#m024ac7f227" x="244.136616" y="253.200316" style="fill: #00395b; stroke: #00395b"/>
     <use xlink:href="#m024ac7f227" x="154.788823" y="228.735076" style="fill: #00395b; stroke: #00395b"/>
     <use xlink:href="#m024ac7f227" x="65.441029" y="197.76453" style="fill: #00395b; stroke: #00395b"/>
    </g>
   </g>
   <g id="line2d_45">
    <g clip-path="url(#pccdd92dc5a)">
     <use xlink:href="#m3f5179e3f5" x="244.136616" y="262.700474" style="fill: #74adc1; stroke: #74adc1"/>
     <use xlink:href="#m3f5179e3f5" x="154.788823" y="240.401539" style="fill: #74adc1; stroke: #74adc1"/>
     <use xlink:href="#m3f5179e3f5" x="65.441029" y="212.463392" style="fill: #74adc1; stroke: #74adc1"/>
    </g>
   </g>
   <g id="line2d_46">
    <g clip-path="url(#pccdd92dc5a)">
     <use xlink:href="#mbd6225c104" x="244.136616" y="271.515164" style="fill: #b54036; stroke: #b54036"/>
     <use xlink:href="#mbd6225c104" x="154.788823" y="251.180837" style="fill: #b54036; stroke: #b54036"/>
     <use xlink:href="#mbd6225c104" x="65.441029" y="225.945431" style="fill: #b54036; stroke: #b54036"/>
    </g>
   </g>
   <g id="patch_13">
    <path d="M 56.50625 315.421395 
L 56.50625 184.339849 
" style="fill: none; stroke: #000000; stroke-width: 0.8; stroke-linejoin: miter; stroke-linecap: square"/>
   </g>
   <g id="patch_14">
    <path d="M 253.071395 315.421395 
L 253.071395 184.339849 
" style="fill: none; stroke: #000000; stroke-width: 0.8; stroke-linejoin: miter; stroke-linecap: square"/>
   </g>
   <g id="patch_15">
    <path d="M 56.50625 315.421395 
L 253.071395 315.421395 
" style="fill: none; stroke: #000000; stroke-width: 0.8; stroke-linejoin: miter; stroke-linecap: square"/>
   </g>
   <g id="patch_16">
    <path d="M 56.50625 184.339849 
L 253.071395 184.339849 
" style="fill: none; stroke: #000000; stroke-width: 0.8; stroke-linejoin: miter; stroke-linecap: square"/>
   </g>
  </g>
  <g id="axes_4">
   <g id="patch_17">
    <path d="M 265.434375 315.421395 
L 461.99952 315.421395 
L 461.99952 184.339849 
L 265.434375 184.339849 
z
" style="fill: #ffffff"/>
   </g>
   <g id="matplotlib.axis_7">
    <g id="xtick_19">
     <g id="line2d_47">
      <g>
       <use xlink:href="#m7e23bcaa54" x="265.434375" y="315.421395" style="stroke: #000000; stroke-width: 0.8"/>
      </g>
     </g>
     <g id="text_25">
      <!-- 32 -->
      <g transform="translate(259.071875 330.019833)scale(0.1 -0.1)">
       <use xlink:href="#DejaVuSans-33"/>
       <use xlink:href="#DejaVuSans-32" x="63.623047"/>
      </g>
     </g>
    </g>
    <g id="xtick_20">
     <g id="line2d_48">
      <g>
       <use xlink:href="#m7e23bcaa54" x="301.173492" y="315.421395" style="stroke: #000000; stroke-width: 0.8"/>
      </g>
     </g>
     <g id="text_26">
      <!-- 34 -->
      <g transform="translate(294.810992 330.019833)scale(0.1 -0.1)">
       <use xlink:href="#DejaVuSans-33"/>
       <use xlink:href="#DejaVuSans-34" x="63.623047"/>
      </g>
     </g>
    </g>
    <g id="xtick_21">
     <g id="line2d_49">
      <g>
       <use xlink:href="#m7e23bcaa54" x="336.91261" y="315.421395" style="stroke: #000000; stroke-width: 0.8"/>
      </g>
     </g>
     <g id="text_27">
      <!-- 36 -->
      <g transform="translate(330.55011 330.019833)scale(0.1 -0.1)">
       <use xlink:href="#DejaVuSans-33"/>
       <use xlink:href="#DejaVuSans-36" x="63.623047"/>
      </g>
     </g>
    </g>
    <g id="xtick_22">
     <g id="line2d_50">
      <g>
       <use xlink:href="#m7e23bcaa54" x="372.651727" y="315.421395" style="stroke: #000000; stroke-width: 0.8"/>
      </g>
     </g>
     <g id="text_28">
      <!-- 38 -->
      <g transform="translate(366.289227 330.019833)scale(0.1 -0.1)">
       <use xlink:href="#DejaVuSans-33"/>
       <use xlink:href="#DejaVuSans-38" x="63.623047"/>
      </g>
     </g>
    </g>
    <g id="xtick_23">
     <g id="line2d_51">
      <g>
       <use xlink:href="#m7e23bcaa54" x="408.390844" y="315.421395" style="stroke: #000000; stroke-width: 0.8"/>
      </g>
     </g>
     <g id="text_29">
      <!-- 40 -->
      <g transform="translate(402.028344 330.019833)scale(0.1 -0.1)">
       <use xlink:href="#DejaVuSans-34"/>
       <use xlink:href="#DejaVuSans-30" x="63.623047"/>
      </g>
     </g>
    </g>
    <g id="xtick_24">
     <g id="line2d_52">
      <g>
       <use xlink:href="#m7e23bcaa54" x="444.129961" y="315.421395" style="stroke: #000000; stroke-width: 0.8"/>
      </g>
     </g>
     <g id="text_30">
      <!-- 42 -->
      <g transform="translate(437.767461 330.019833)scale(0.1 -0.1)">
       <use xlink:href="#DejaVuSans-34"/>
       <use xlink:href="#DejaVuSans-32" x="63.623047"/>
      </g>
     </g>
    </g>
    <g id="text_31">
     <!-- $T_{heating system}$ in °C -->
     <g transform="translate(320.816947 343.69952)scale(0.1 -0.1)">
      <use xlink:href="#DejaVuSans-Oblique-54" transform="translate(0 0.015625)"/>
      <use xlink:href="#DejaVuSans-Oblique-68" transform="translate(61.083984 -16.390625)scale(0.7)"/>
      <use xlink:href="#DejaVuSans-Oblique-65" transform="translate(105.449219 -16.390625)scale(0.7)"/>
      <use xlink:href="#DejaVuSans-Oblique-61" transform="translate(148.515625 -16.390625)scale(0.7)"/>
      <use xlink:href="#DejaVuSans-Oblique-74" transform="translate(191.411133 -16.390625)scale(0.7)"/>
      <use xlink:href="#DejaVuSans-Oblique-69" transform="translate(218.857422 -16.390625)scale(0.7)"/>
      <use xlink:href="#DejaVuSans-Oblique-6e" transform="translate(238.305664 -16.390625)scale(0.7)"/>
      <use xlink:href="#DejaVuSans-Oblique-67" transform="translate(282.670898 -16.390625)scale(0.7)"/>
      <use xlink:href="#DejaVuSans-Oblique-73" transform="translate(327.104492 -16.390625)scale(0.7)"/>
      <use xlink:href="#DejaVuSans-Oblique-79" transform="translate(363.574219 -16.390625)scale(0.7)"/>
      <use xlink:href="#DejaVuSans-Oblique-73" transform="translate(405 -16.390625)scale(0.7)"/>
      <use xlink:href="#DejaVuSans-Oblique-74" transform="translate(441.469727 -16.390625)scale(0.7)"/>
      <use xlink:href="#DejaVuSans-Oblique-65" transform="translate(468.916016 -16.390625)scale(0.7)"/>
      <use xlink:href="#DejaVuSans-Oblique-6d" transform="translate(511.982422 -16.390625)scale(0.7)"/>
      <use xlink:href="#DejaVuSans-20" transform="translate(582.905273 0.015625)"/>
      <use xlink:href="#DejaVuSans-69" transform="translate(614.692383 0.015625)"/>
      <use xlink:href="#DejaVuSans-6e" transform="translate(642.475586 0.015625)"/>
      <use xlink:href="#DejaVuSans-20" transform="translate(705.854492 0.015625)"/>
      <use xlink:href="#DejaVuSans-b0" transform="translate(737.641602 0.015625)"/>
      <use xlink:href="#DejaVuSans-43" transform="translate(787.641602 0.015625)"/>
     </g>
    </g>
   </g>
   <g id="matplotlib.axis_8">
    <g id="ytick_20">
     <g id="line2d_53">
      <g>
       <use xlink:href="#mbfd4a419f2" x="265.434375" y="315.421395" style="stroke: #000000; stroke-width: 0.8"/>
      </g>
     </g>
    </g>
    <g id="ytick_21">
     <g id="line2d_54">
      <g>
       <use xlink:href="#mbfd4a419f2" x="265.434375" y="293.574471" style="stroke: #000000; stroke-width: 0.8"/>
      </g>
     </g>
    </g>
    <g id="ytick_22">
     <g id="line2d_55">
      <g>
       <use xlink:href="#mbfd4a419f2" x="265.434375" y="271.727546" style="stroke: #000000; stroke-width: 0.8"/>
      </g>
     </g>
    </g>
    <g id="ytick_23">
     <g id="line2d_56">
      <g>
       <use xlink:href="#mbfd4a419f2" x="265.434375" y="249.880622" style="stroke: #000000; stroke-width: 0.8"/>
      </g>
     </g>
    </g>
    <g id="ytick_24">
     <g id="line2d_57">
      <g>
       <use xlink:href="#mbfd4a419f2" x="265.434375" y="228.033698" style="stroke: #000000; stroke-width: 0.8"/>
      </g>
     </g>
    </g>
    <g id="ytick_25">
     <g id="line2d_58">
      <g>
       <use xlink:href="#mbfd4a419f2" x="265.434375" y="206.186774" style="stroke: #000000; stroke-width: 0.8"/>
      </g>
     </g>
    </g>
    <g id="ytick_26">
     <g id="line2d_59">
      <g>
       <use xlink:href="#mbfd4a419f2" x="265.434375" y="184.339849" style="stroke: #000000; stroke-width: 0.8"/>
      </g>
     </g>
    </g>
   </g>
   <g id="line2d_60">
    <g clip-path="url(#p75d8f469c7)">
     <use xlink:href="#m024ac7f227" x="453.064741" y="280.039525" style="fill: #00395b; stroke: #00395b"/>
     <use xlink:href="#m024ac7f227" x="363.716947" y="253.620765" style="fill: #00395b; stroke: #00395b"/>
     <use xlink:href="#m024ac7f227" x="274.369154" y="221.849097" style="fill: #00395b; stroke: #00395b"/>
    </g>
   </g>
   <g id="line2d_61">
    <g clip-path="url(#p75d8f469c7)">
     <use xlink:href="#m3f5179e3f5" x="453.064741" y="288.07634" style="fill: #74adc1; stroke: #74adc1"/>
     <use xlink:href="#m3f5179e3f5" x="363.716947" y="263.956098" style="fill: #74adc1; stroke: #74adc1"/>
     <use xlink:href="#m3f5179e3f5" x="274.369154" y="235.305804" style="fill: #74adc1; stroke: #74adc1"/>
    </g>
   </g>
   <g id="line2d_62">
    <g clip-path="url(#p75d8f469c7)">
     <use xlink:href="#mbd6225c104" x="453.064741" y="295.472384" style="fill: #b54036; stroke: #b54036"/>
     <use xlink:href="#mbd6225c104" x="363.716947" y="273.490372" style="fill: #b54036; stroke: #b54036"/>
     <use xlink:href="#mbd6225c104" x="274.369154" y="247.436075" style="fill: #b54036; stroke: #b54036"/>
    </g>
   </g>
   <g id="patch_18">
    <path d="M 265.434375 315.421395 
L 265.434375 184.339849 
" style="fill: none; stroke: #000000; stroke-width: 0.8; stroke-linejoin: miter; stroke-linecap: square"/>
   </g>
   <g id="patch_19">
    <path d="M 461.99952 315.421395 
L 461.99952 184.339849 
" style="fill: none; stroke: #000000; stroke-width: 0.8; stroke-linejoin: miter; stroke-linecap: square"/>
   </g>
   <g id="patch_20">
    <path d="M 265.434375 315.421395 
L 461.99952 315.421395 
" style="fill: none; stroke: #000000; stroke-width: 0.8; stroke-linejoin: miter; stroke-linecap: square"/>
   </g>
   <g id="patch_21">
    <path d="M 265.434375 184.339849 
L 461.99952 184.339849 
" style="fill: none; stroke: #000000; stroke-width: 0.8; stroke-linejoin: miter; stroke-linecap: square"/>
   </g>
  </g>
  <g id="text_32">
   <!-- COP and $\epsilon$ depending heating and geothermal mean temperature -->
   <g transform="translate(36.71976 16.32)scale(0.12 -0.12)">
    <defs>
     <path id="DejaVuSans-61" d="M 2194 1759 
Q 1497 1759 1228 1600 
Q 959 1441 959 1056 
Q 959 750 1161 570 
Q 1363 391 1709 391 
Q 2188 391 2477 730 
Q 2766 1069 2766 1631 
L 2766 1759 
L 2194 1759 
z
M 3341 1997 
L 3341 0 
L 2766 0 
L 2766 531 
Q 2569 213 2275 61 
Q 1981 -91 1556 -91 
Q 1019 -91 701 211 
Q 384 513 384 1019 
Q 384 1609 779 1909 
Q 1175 2209 1959 2209 
L 2766 2209 
L 2766 2266 
Q 2766 2663 2505 2880 
Q 2244 3097 1772 3097 
Q 1472 3097 1187 3025 
Q 903 2953 641 2809 
L 641 3341 
Q 956 3463 1253 3523 
Q 1550 3584 1831 3584 
Q 2591 3584 2966 3190 
Q 3341 2797 3341 1997 
z
" transform="scale(0.015625)"/>
     <path id="DejaVuSans-64" d="M 2906 2969 
L 2906 4863 
L 3481 4863 
L 3481 0 
L 2906 0 
L 2906 525 
Q 2725 213 2448 61 
Q 2172 -91 1784 -91 
Q 1150 -91 751 415 
Q 353 922 353 1747 
Q 353 2572 751 3078 
Q 1150 3584 1784 3584 
Q 2172 3584 2448 3432 
Q 2725 3281 2906 2969 
z
M 947 1747 
Q 947 1113 1208 752 
Q 1469 391 1925 391 
Q 2381 391 2643 752 
Q 2906 1113 2906 1747 
Q 2906 2381 2643 2742 
Q 2381 3103 1925 3103 
Q 1469 3103 1208 2742 
Q 947 2381 947 1747 
z
" transform="scale(0.015625)"/>
     <path id="DejaVuSans-65" d="M 3597 1894 
L 3597 1613 
L 953 1613 
Q 991 1019 1311 708 
Q 1631 397 2203 397 
Q 2534 397 2845 478 
Q 3156 559 3463 722 
L 3463 178 
Q 3153 47 2828 -22 
Q 2503 -91 2169 -91 
Q 1331 -91 842 396 
Q 353 884 353 1716 
Q 353 2575 817 3079 
Q 1281 3584 2069 3584 
Q 2775 3584 3186 3129 
Q 3597 2675 3597 1894 
z
M 3022 2063 
Q 3016 2534 2758 2815 
Q 2500 3097 2075 3097 
Q 1594 3097 1305 2825 
Q 1016 2553 972 2059 
L 3022 2063 
z
" transform="scale(0.015625)"/>
     <path id="DejaVuSans-70" d="M 1159 525 
L 1159 -1331 
L 581 -1331 
L 581 3500 
L 1159 3500 
L 1159 2969 
Q 1341 3281 1617 3432 
Q 1894 3584 2278 3584 
Q 2916 3584 3314 3078 
Q 3713 2572 3713 1747 
Q 3713 922 3314 415 
Q 2916 -91 2278 -91 
Q 1894 -91 1617 61 
Q 1341 213 1159 525 
z
M 3116 1747 
Q 3116 2381 2855 2742 
Q 2594 3103 2138 3103 
Q 1681 3103 1420 2742 
Q 1159 2381 1159 1747 
Q 1159 1113 1420 752 
Q 1681 391 2138 391 
Q 2594 391 2855 752 
Q 3116 1113 3116 1747 
z
" transform="scale(0.015625)"/>
     <path id="DejaVuSans-67" d="M 2906 1791 
Q 2906 2416 2648 2759 
Q 2391 3103 1925 3103 
Q 1463 3103 1205 2759 
Q 947 2416 947 1791 
Q 947 1169 1205 825 
Q 1463 481 1925 481 
Q 2391 481 2648 825 
Q 2906 1169 2906 1791 
z
M 3481 434 
Q 3481 -459 3084 -895 
Q 2688 -1331 1869 -1331 
Q 1566 -1331 1297 -1286 
Q 1028 -1241 775 -1147 
L 775 -588 
Q 1028 -725 1275 -790 
Q 1522 -856 1778 -856 
Q 2344 -856 2625 -561 
Q 2906 -266 2906 331 
L 2906 616 
Q 2728 306 2450 153 
Q 2172 0 1784 0 
Q 1141 0 747 490 
Q 353 981 353 1791 
Q 353 2603 747 3093 
Q 1141 3584 1784 3584 
Q 2172 3584 2450 3431 
Q 2728 3278 2906 2969 
L 2906 3500 
L 3481 3500 
L 3481 434 
z
" transform="scale(0.015625)"/>
     <path id="DejaVuSans-68" d="M 3513 2113 
L 3513 0 
L 2938 0 
L 2938 2094 
Q 2938 2591 2744 2837 
Q 2550 3084 2163 3084 
Q 1697 3084 1428 2787 
Q 1159 2491 1159 1978 
L 1159 0 
L 581 0 
L 581 4863 
L 1159 4863 
L 1159 2956 
Q 1366 3272 1645 3428 
Q 1925 3584 2291 3584 
Q 2894 3584 3203 3211 
Q 3513 2838 3513 2113 
z
" transform="scale(0.015625)"/>
     <path id="DejaVuSans-74" d="M 1172 4494 
L 1172 3500 
L 2356 3500 
L 2356 3053 
L 1172 3053 
L 1172 1153 
Q 1172 725 1289 603 
Q 1406 481 1766 481 
L 2356 481 
L 2356 0 
L 1766 0 
Q 1100 0 847 248 
Q 594 497 594 1153 
L 594 3053 
L 172 3053 
L 172 3500 
L 594 3500 
L 594 4494 
L 1172 4494 
z
" transform="scale(0.015625)"/>
     <path id="DejaVuSans-6f" d="M 1959 3097 
Q 1497 3097 1228 2736 
Q 959 2375 959 1747 
Q 959 1119 1226 758 
Q 1494 397 1959 397 
Q 2419 397 2687 759 
Q 2956 1122 2956 1747 
Q 2956 2369 2687 2733 
Q 2419 3097 1959 3097 
z
M 1959 3584 
Q 2709 3584 3137 3096 
Q 3566 2609 3566 1747 
Q 3566 888 3137 398 
Q 2709 -91 1959 -91 
Q 1206 -91 779 398 
Q 353 888 353 1747 
Q 353 2609 779 3096 
Q 1206 3584 1959 3584 
z
" transform="scale(0.015625)"/>
     <path id="DejaVuSans-72" d="M 2631 2963 
Q 2534 3019 2420 3045 
Q 2306 3072 2169 3072 
Q 1681 3072 1420 2755 
Q 1159 2438 1159 1844 
L 1159 0 
L 581 0 
L 581 3500 
L 1159 3500 
L 1159 2956 
Q 1341 3275 1631 3429 
Q 1922 3584 2338 3584 
Q 2397 3584 2469 3576 
Q 2541 3569 2628 3553 
L 2631 2963 
z
" transform="scale(0.015625)"/>
     <path id="DejaVuSans-6d" d="M 3328 2828 
Q 3544 3216 3844 3400 
Q 4144 3584 4550 3584 
Q 5097 3584 5394 3201 
Q 5691 2819 5691 2113 
L 5691 0 
L 5113 0 
L 5113 2094 
Q 5113 2597 4934 2840 
Q 4756 3084 4391 3084 
Q 3944 3084 3684 2787 
Q 3425 2491 3425 1978 
L 3425 0 
L 2847 0 
L 2847 2094 
Q 2847 2600 2669 2842 
Q 2491 3084 2119 3084 
Q 1678 3084 1418 2786 
Q 1159 2488 1159 1978 
L 1159 0 
L 581 0 
L 581 3500 
L 1159 3500 
L 1159 2956 
Q 1356 3278 1631 3431 
Q 1906 3584 2284 3584 
Q 2666 3584 2933 3390 
Q 3200 3197 3328 2828 
z
" transform="scale(0.015625)"/>
     <path id="DejaVuSans-6c" d="M 603 4863 
L 1178 4863 
L 1178 0 
L 603 0 
L 603 4863 
z
" transform="scale(0.015625)"/>
     <path id="DejaVuSans-75" d="M 544 1381 
L 544 3500 
L 1119 3500 
L 1119 1403 
Q 1119 906 1312 657 
Q 1506 409 1894 409 
Q 2359 409 2629 706 
Q 2900 1003 2900 1516 
L 2900 3500 
L 3475 3500 
L 3475 0 
L 2900 0 
L 2900 538 
Q 2691 219 2414 64 
Q 2138 -91 1772 -91 
Q 1169 -91 856 284 
Q 544 659 544 1381 
z
M 1991 3584 
L 1991 3584 
z
" transform="scale(0.015625)"/>
    </defs>
    <use xlink:href="#DejaVuSans-43" transform="translate(0 0.015625)"/>
    <use xlink:href="#DejaVuSans-4f" transform="translate(69.824219 0.015625)"/>
    <use xlink:href="#DejaVuSans-50" transform="translate(148.535156 0.015625)"/>
    <use xlink:href="#DejaVuSans-20" transform="translate(208.837891 0.015625)"/>
    <use xlink:href="#DejaVuSans-61" transform="translate(240.625 0.015625)"/>
    <use xlink:href="#DejaVuSans-6e" transform="translate(301.904297 0.015625)"/>
    <use xlink:href="#DejaVuSans-64" transform="translate(365.283203 0.015625)"/>
    <use xlink:href="#DejaVuSans-20" transform="translate(428.759766 0.015625)"/>
    <use xlink:href="#DejaVuSans-Oblique-3b5" transform="translate(460.546875 0.015625)"/>
    <use xlink:href="#DejaVuSans-20" transform="translate(514.599609 0.015625)"/>
    <use xlink:href="#DejaVuSans-64" transform="translate(546.386719 0.015625)"/>
    <use xlink:href="#DejaVuSans-65" transform="translate(609.863281 0.015625)"/>
    <use xlink:href="#DejaVuSans-70" transform="translate(671.386719 0.015625)"/>
    <use xlink:href="#DejaVuSans-65" transform="translate(734.863281 0.015625)"/>
    <use xlink:href="#DejaVuSans-6e" transform="translate(796.386719 0.015625)"/>
    <use xlink:href="#DejaVuSans-64" transform="translate(859.765625 0.015625)"/>
    <use xlink:href="#DejaVuSans-69" transform="translate(923.242188 0.015625)"/>
    <use xlink:href="#DejaVuSans-6e" transform="translate(951.025391 0.015625)"/>
    <use xlink:href="#DejaVuSans-67" transform="translate(1014.404297 0.015625)"/>
    <use xlink:href="#DejaVuSans-20" transform="translate(1077.880859 0.015625)"/>
    <use xlink:href="#DejaVuSans-68" transform="translate(1109.667969 0.015625)"/>
    <use xlink:href="#DejaVuSans-65" transform="translate(1173.046875 0.015625)"/>
    <use xlink:href="#DejaVuSans-61" transform="translate(1234.570312 0.015625)"/>
    <use xlink:href="#DejaVuSans-74" transform="translate(1295.849609 0.015625)"/>
    <use xlink:href="#DejaVuSans-69" transform="translate(1335.058594 0.015625)"/>
    <use xlink:href="#DejaVuSans-6e" transform="translate(1362.841797 0.015625)"/>
    <use xlink:href="#DejaVuSans-67" transform="translate(1426.220703 0.015625)"/>
    <use xlink:href="#DejaVuSans-20" transform="translate(1489.697266 0.015625)"/>
    <use xlink:href="#DejaVuSans-61" transform="translate(1521.484375 0.015625)"/>
    <use xlink:href="#DejaVuSans-6e" transform="translate(1582.763672 0.015625)"/>
    <use xlink:href="#DejaVuSans-64" transform="translate(1646.142578 0.015625)"/>
    <use xlink:href="#DejaVuSans-20" transform="translate(1709.619141 0.015625)"/>
    <use xlink:href="#DejaVuSans-67" transform="translate(1741.40625 0.015625)"/>
    <use xlink:href="#DejaVuSans-65" transform="translate(1804.882812 0.015625)"/>
    <use xlink:href="#DejaVuSans-6f" transform="translate(1866.40625 0.015625)"/>
    <use xlink:href="#DejaVuSans-74" transform="translate(1927.587891 0.015625)"/>
    <use xlink:href="#DejaVuSans-68" transform="translate(1966.796875 0.015625)"/>
    <use xlink:href="#DejaVuSans-65" transform="translate(2030.175781 0.015625)"/>
    <use xlink:href="#DejaVuSans-72" transform="translate(2091.699219 0.015625)"/>
    <use xlink:href="#DejaVuSans-6d" transform="translate(2132.8125 0.015625)"/>
    <use xlink:href="#DejaVuSans-61" transform="translate(2230.224609 0.015625)"/>
    <use xlink:href="#DejaVuSans-6c" transform="translate(2291.503906 0.015625)"/>
    <use xlink:href="#DejaVuSans-20" transform="translate(2319.287109 0.015625)"/>
    <use xlink:href="#DejaVuSans-6d" transform="translate(2351.074219 0.015625)"/>
    <use xlink:href="#DejaVuSans-65" transform="translate(2448.486328 0.015625)"/>
    <use xlink:href="#DejaVuSans-61" transform="translate(2510.009766 0.015625)"/>
    <use xlink:href="#DejaVuSans-6e" transform="translate(2571.289062 0.015625)"/>
    <use xlink:href="#DejaVuSans-20" transform="translate(2634.667969 0.015625)"/>
    <use xlink:href="#DejaVuSans-74" transform="translate(2666.455078 0.015625)"/>
    <use xlink:href="#DejaVuSans-65" transform="translate(2705.664062 0.015625)"/>
    <use xlink:href="#DejaVuSans-6d" transform="translate(2767.1875 0.015625)"/>
    <use xlink:href="#DejaVuSans-70" transform="translate(2864.599609 0.015625)"/>
    <use xlink:href="#DejaVuSans-65" transform="translate(2928.076172 0.015625)"/>
    <use xlink:href="#DejaVuSans-72" transform="translate(2989.599609 0.015625)"/>
    <use xlink:href="#DejaVuSans-61" transform="translate(3030.712891 0.015625)"/>
    <use xlink:href="#DejaVuSans-74" transform="translate(3091.992188 0.015625)"/>
    <use xlink:href="#DejaVuSans-75" transform="translate(3131.201172 0.015625)"/>
    <use xlink:href="#DejaVuSans-72" transform="translate(3194.580078 0.015625)"/>
    <use xlink:href="#DejaVuSans-65" transform="translate(3235.693359 0.015625)"/>
   </g>
  </g>
  <g id="legend_1">
   <g id="patch_22">
    <path d="M 43.06376 384.35976 
L 453.78376 384.35976 
Q 455.78376 384.35976 455.78376 382.35976 
L 455.78376 367.661322 
Q 455.78376 365.661322 453.78376 365.661322 
L 43.06376 365.661322 
Q 41.06376 365.661322 41.06376 367.661322 
L 41.06376 382.35976 
Q 41.06376 384.35976 43.06376 384.35976 
z
" style="fill: #ffffff; opacity: 0.8; stroke: #cccccc; stroke-linejoin: miter"/>
   </g>
   <g id="line2d_63">
    <g>
     <use xlink:href="#m024ac7f227" x="55.06376" y="373.75976" style="fill: #00395b; stroke: #00395b"/>
    </g>
   </g>
   <g id="text_33">
    <!-- $T_{geo}$ = 10.5 °C -->
    <g transform="translate(73.06376 377.25976)scale(0.1 -0.1)">
     <defs>
      <path id="DejaVuSans-Oblique-6f" d="M 1625 -91 
Q 1009 -91 651 289 
Q 294 669 294 1325 
Q 294 1706 417 2101 
Q 541 2497 738 2766 
Q 1047 3184 1428 3384 
Q 1809 3584 2291 3584 
Q 2888 3584 3255 3212 
Q 3622 2841 3622 2241 
Q 3622 1825 3500 1412 
Q 3378 1000 3181 728 
Q 2875 309 2494 109 
Q 2113 -91 1625 -91 
z
M 891 1344 
Q 891 869 1089 633 
Q 1288 397 1691 397 
Q 2269 397 2648 901 
Q 3028 1406 3028 2181 
Q 3028 2634 2825 2865 
Q 2622 3097 2228 3097 
Q 1903 3097 1650 2945 
Q 1397 2794 1197 2484 
Q 1050 2253 970 1956 
Q 891 1659 891 1344 
z
" transform="scale(0.015625)"/>
      <path id="DejaVuSans-3d" d="M 678 2906 
L 4684 2906 
L 4684 2381 
L 678 2381 
L 678 2906 
z
M 678 1631 
L 4684 1631 
L 4684 1100 
L 678 1100 
L 678 1631 
z
" transform="scale(0.015625)"/>
     </defs>
     <use xlink:href="#DejaVuSans-Oblique-54" transform="translate(0 0.78125)"/>
     <use xlink:href="#DejaVuSans-Oblique-67" transform="translate(61.083984 -15.625)scale(0.7)"/>
     <use xlink:href="#DejaVuSans-Oblique-65" transform="translate(105.517578 -15.625)scale(0.7)"/>
     <use xlink:href="#DejaVuSans-Oblique-6f" transform="translate(148.583984 -15.625)scale(0.7)"/>
     <use xlink:href="#DejaVuSans-20" transform="translate(194.145508 0.78125)"/>
     <use xlink:href="#DejaVuSans-3d" transform="translate(225.932617 0.78125)"/>
     <use xlink:href="#DejaVuSans-20" transform="translate(309.72168 0.78125)"/>
     <use xlink:href="#DejaVuSans-31" transform="translate(341.508789 0.78125)"/>
     <use xlink:href="#DejaVuSans-30" transform="translate(405.131836 0.78125)"/>
     <use xlink:href="#DejaVuSans-2e" transform="translate(468.754883 0.78125)"/>
     <use xlink:href="#DejaVuSans-35" transform="translate(500.541992 0.78125)"/>
     <use xlink:href="#DejaVuSans-20" transform="translate(564.165039 0.78125)"/>
     <use xlink:href="#DejaVuSans-b0" transform="translate(595.952148 0.78125)"/>
     <use xlink:href="#DejaVuSans-43" transform="translate(645.952148 0.78125)"/>
    </g>
   </g>
   <g id="line2d_64">
    <g>
     <use xlink:href="#m3f5179e3f5" x="214.92376" y="373.75976" style="fill: #74adc1; stroke: #74adc1"/>
    </g>
   </g>
   <g id="text_34">
    <!-- $T_{geo}$ = 8.5 °C -->
    <g transform="translate(232.92376 377.25976)scale(0.1 -0.1)">
     <use xlink:href="#DejaVuSans-Oblique-54" transform="translate(0 0.78125)"/>
     <use xlink:href="#DejaVuSans-Oblique-67" transform="translate(61.083984 -15.625)scale(0.7)"/>
     <use xlink:href="#DejaVuSans-Oblique-65" transform="translate(105.517578 -15.625)scale(0.7)"/>
     <use xlink:href="#DejaVuSans-Oblique-6f" transform="translate(148.583984 -15.625)scale(0.7)"/>
     <use xlink:href="#DejaVuSans-20" transform="translate(194.145508 0.78125)"/>
     <use xlink:href="#DejaVuSans-3d" transform="translate(225.932617 0.78125)"/>
     <use xlink:href="#DejaVuSans-20" transform="translate(309.72168 0.78125)"/>
     <use xlink:href="#DejaVuSans-38" transform="translate(341.508789 0.78125)"/>
     <use xlink:href="#DejaVuSans-2e" transform="translate(405.131836 0.78125)"/>
     <use xlink:href="#DejaVuSans-35" transform="translate(436.918945 0.78125)"/>
     <use xlink:href="#DejaVuSans-20" transform="translate(500.541992 0.78125)"/>
     <use xlink:href="#DejaVuSans-b0" transform="translate(532.329102 0.78125)"/>
     <use xlink:href="#DejaVuSans-43" transform="translate(582.329102 0.78125)"/>
    </g>
   </g>
   <g id="line2d_65">
    <g>
     <use xlink:href="#mbd6225c104" x="368.48376" y="373.75976" style="fill: #b54036; stroke: #b54036"/>
    </g>
   </g>
   <g id="text_35">
    <!-- $T_{geo}$ = 6.5 °C -->
    <g transform="translate(386.48376 377.25976)scale(0.1 -0.1)">
     <use xlink:href="#DejaVuSans-Oblique-54" transform="translate(0 0.78125)"/>
     <use xlink:href="#DejaVuSans-Oblique-67" transform="translate(61.083984 -15.625)scale(0.7)"/>
     <use xlink:href="#DejaVuSans-Oblique-65" transform="translate(105.517578 -15.625)scale(0.7)"/>
     <use xlink:href="#DejaVuSans-Oblique-6f" transform="translate(148.583984 -15.625)scale(0.7)"/>
     <use xlink:href="#DejaVuSans-20" transform="translate(194.145508 0.78125)"/>
     <use xlink:href="#DejaVuSans-3d" transform="translate(225.932617 0.78125)"/>
     <use xlink:href="#DejaVuSans-20" transform="translate(309.72168 0.78125)"/>
     <use xlink:href="#DejaVuSans-36" transform="translate(341.508789 0.78125)"/>
     <use xlink:href="#DejaVuSans-2e" transform="translate(405.131836 0.78125)"/>
     <use xlink:href="#DejaVuSans-35" transform="translate(436.918945 0.78125)"/>
     <use xlink:href="#DejaVuSans-20" transform="translate(500.541992 0.78125)"/>
     <use xlink:href="#DejaVuSans-b0" transform="translate(532.329102 0.78125)"/>
     <use xlink:href="#DejaVuSans-43" transform="translate(582.329102 0.78125)"/>
    </g>
   </g>
  </g>
 </g>
 <defs>
  <clipPath id="pea4e2435cd">
   <rect x="56.50625" y="39.958605" width="196.565145" height="131.081546"/>
  </clipPath>
  <clipPath id="pf6fe5be577">
   <rect x="265.434375" y="39.958605" width="196.565145" height="131.081546"/>
  </clipPath>
  <clipPath id="pccdd92dc5a">
   <rect x="56.50625" y="184.339849" width="196.565145" height="131.081546"/>
  </clipPath>
  <clipPath id="p75d8f469c7">
   <rect x="265.434375" y="184.339849" width="196.565145" height="131.081546"/>
  </clipPath>
 </defs>
</svg>
