<?xml version="1.0" encoding="utf-8" standalone="no"?>
<!DOCTYPE svg PUBLIC "-//W3C//DTD SVG 1.1//EN"
  "http://www.w3.org/Graphics/SVG/1.1/DTD/svg11.dtd">
<svg xmlns:xlink="http://www.w3.org/1999/xlink" width="469.19952pt" height="365.977885pt" viewBox="0 0 469.19952 365.977885" xmlns="http://www.w3.org/2000/svg" version="1.1">
 <metadata>
  <rdf:RDF xmlns:dc="http://purl.org/dc/elements/1.1/" xmlns:cc="http://creativecommons.org/ns#" xmlns:rdf="http://www.w3.org/1999/02/22-rdf-syntax-ns#">
   <cc:Work>
    <dc:type rdf:resource="http://purl.org/dc/dcmitype/StillImage"/>
    <dc:date>2022-09-07T09:09:50.566835</dc:date>
    <dc:format>image/svg+xml</dc:format>
    <dc:creator>
     <cc:Agent>
      <dc:title>Matplotlib v3.5.3, https://matplotlib.org/</dc:title>
     </cc:Agent>
    </dc:creator>
   </cc:Work>
  </rdf:RDF>
 </metadata>
 <defs>
  <style type="text/css">*{stroke-linejoin: round; stroke-linecap: butt}</style>
 </defs>
 <g id="figure_1">
  <g id="patch_1">
   <path d="M 0 365.977885 
L 469.19952 365.977885 
L 469.19952 0 
L 0 0 
z
" style="fill: #ffffff"/>
  </g>
  <g id="axes_1">
   <g id="patch_2">
    <path d="M 72.59375 160.97726 
L 247.595614 160.97726 
L 247.595614 41.86798 
L 72.59375 41.86798 
z
" style="fill: #ffffff"/>
   </g>
   <g id="patch_3">
    <path d="M 72.59375 47.282038 
L 222.400271 47.282038 
L 222.400271 62.217371 
L 72.59375 62.217371 
z
" clip-path="url(#p9aec09bc3e)" style="fill: #3a9dce"/>
   </g>
   <g id="patch_4">
    <path d="M 72.59375 65.951204 
L 197.268179 65.951204 
L 197.268179 80.886537 
L 72.59375 80.886537 
z
" clip-path="url(#p9aec09bc3e)" style="fill: #f08e2b"/>
   </g>
   <g id="patch_5">
    <path d="M 72.59375 84.62037 
L 188.775747 84.62037 
L 188.775747 99.555703 
L 72.59375 99.555703 
z
" clip-path="url(#p9aec09bc3e)" style="fill: #f08e2b"/>
   </g>
   <g id="patch_6">
    <path d="M 72.59375 103.289537 
L 174.976465 103.289537 
L 174.976465 118.22487 
L 72.59375 118.22487 
z
" clip-path="url(#p9aec09bc3e)" style="fill: #f08e2b"/>
   </g>
   <g id="patch_7">
    <path d="M 72.59375 121.958703 
L 156.2775 121.958703 
L 156.2775 136.894036 
L 72.59375 136.894036 
z
" clip-path="url(#p9aec09bc3e)" style="fill: #f08e2b"/>
   </g>
   <g id="patch_8">
    <path d="M 72.59375 140.627869 
L 156.2775 140.627869 
L 156.2775 155.563202 
L 72.59375 155.563202 
z
" clip-path="url(#p9aec09bc3e)" style="fill: #db5252"/>
   </g>
   <g id="patch_9">
    <path d="M 222.400271 47.282038 
L 222.400271 47.282038 
L 222.400271 62.217371 
L 222.400271 62.217371 
z
" clip-path="url(#p9aec09bc3e)" style="fill: #6ed880"/>
   </g>
   <g id="patch_10">
    <path d="M 197.268179 65.951204 
L 222.400271 65.951204 
L 222.400271 80.886537 
L 197.268179 80.886537 
z
" clip-path="url(#p9aec09bc3e)" style="fill: #6ed880"/>
   </g>
   <g id="patch_11">
    <path d="M 188.775747 84.62037 
L 197.268179 84.62037 
L 197.268179 99.555703 
L 188.775747 99.555703 
z
" clip-path="url(#p9aec09bc3e)" style="fill: #6ed880"/>
   </g>
   <g id="patch_12">
    <path d="M 174.976465 103.289537 
L 188.775747 103.289537 
L 188.775747 118.22487 
L 174.976465 118.22487 
z
" clip-path="url(#p9aec09bc3e)" style="fill: #6ed880"/>
   </g>
   <g id="patch_13">
    <path d="M 156.2775 121.958703 
L 174.976465 121.958703 
L 174.976465 136.894036 
L 156.2775 136.894036 
z
" clip-path="url(#p9aec09bc3e)" style="fill: #6ed880"/>
   </g>
   <g id="patch_14">
    <path d="M 156.2775 140.627869 
L 156.2775 140.627869 
L 156.2775 155.563202 
L 156.2775 155.563202 
z
" clip-path="url(#p9aec09bc3e)" style="fill: #6ed880"/>
   </g>
   <g id="matplotlib.axis_1">
    <g id="xtick_1">
     <g id="line2d_1">
      <defs>
       <path id="mb4fc6a95ca" d="M 0 0 
L 0 3.5 
" style="stroke: #000000; stroke-width: 0.8"/>
      </defs>
      <g>
       <use xlink:href="#mb4fc6a95ca" x="72.59375" y="160.97726" style="stroke: #000000; stroke-width: 0.8"/>
      </g>
     </g>
     <g id="text_1">
      <!-- 0 -->
      <g transform="translate(69.4125 175.575697)scale(0.1 -0.1)">
       <defs>
        <path id="DejaVuSans-30" d="M 2034 4250 
Q 1547 4250 1301 3770 
Q 1056 3291 1056 2328 
Q 1056 1369 1301 889 
Q 1547 409 2034 409 
Q 2525 409 2770 889 
Q 3016 1369 3016 2328 
Q 3016 3291 2770 3770 
Q 2525 4250 2034 4250 
z
M 2034 4750 
Q 2819 4750 3233 4129 
Q 3647 3509 3647 2328 
Q 3647 1150 3233 529 
Q 2819 -91 2034 -91 
Q 1250 -91 836 529 
Q 422 1150 422 2328 
Q 422 3509 836 4129 
Q 1250 4750 2034 4750 
z
" transform="scale(0.015625)"/>
       </defs>
       <use xlink:href="#DejaVuSans-30"/>
      </g>
     </g>
    </g>
    <g id="xtick_2">
     <g id="line2d_2">
      <g>
       <use xlink:href="#mb4fc6a95ca" x="107.594123" y="160.97726" style="stroke: #000000; stroke-width: 0.8"/>
      </g>
     </g>
     <g id="text_2">
      <!-- 200 -->
      <g transform="translate(98.050373 175.575697)scale(0.1 -0.1)">
       <defs>
        <path id="DejaVuSans-32" d="M 1228 531 
L 3431 531 
L 3431 0 
L 469 0 
L 469 531 
Q 828 903 1448 1529 
Q 2069 2156 2228 2338 
Q 2531 2678 2651 2914 
Q 2772 3150 2772 3378 
Q 2772 3750 2511 3984 
Q 2250 4219 1831 4219 
Q 1534 4219 1204 4116 
Q 875 4013 500 3803 
L 500 4441 
Q 881 4594 1212 4672 
Q 1544 4750 1819 4750 
Q 2544 4750 2975 4387 
Q 3406 4025 3406 3419 
Q 3406 3131 3298 2873 
Q 3191 2616 2906 2266 
Q 2828 2175 2409 1742 
Q 1991 1309 1228 531 
z
" transform="scale(0.015625)"/>
       </defs>
       <use xlink:href="#DejaVuSans-32"/>
       <use xlink:href="#DejaVuSans-30" x="63.623047"/>
       <use xlink:href="#DejaVuSans-30" x="127.246094"/>
      </g>
     </g>
    </g>
    <g id="xtick_3">
     <g id="line2d_3">
      <g>
       <use xlink:href="#mb4fc6a95ca" x="142.594495" y="160.97726" style="stroke: #000000; stroke-width: 0.8"/>
      </g>
     </g>
     <g id="text_3">
      <!-- 400 -->
      <g transform="translate(133.050745 175.575697)scale(0.1 -0.1)">
       <defs>
        <path id="DejaVuSans-34" d="M 2419 4116 
L 825 1625 
L 2419 1625 
L 2419 4116 
z
M 2253 4666 
L 3047 4666 
L 3047 1625 
L 3713 1625 
L 3713 1100 
L 3047 1100 
L 3047 0 
L 2419 0 
L 2419 1100 
L 313 1100 
L 313 1709 
L 2253 4666 
z
" transform="scale(0.015625)"/>
       </defs>
       <use xlink:href="#DejaVuSans-34"/>
       <use xlink:href="#DejaVuSans-30" x="63.623047"/>
       <use xlink:href="#DejaVuSans-30" x="127.246094"/>
      </g>
     </g>
    </g>
    <g id="xtick_4">
     <g id="line2d_4">
      <g>
       <use xlink:href="#mb4fc6a95ca" x="177.594868" y="160.97726" style="stroke: #000000; stroke-width: 0.8"/>
      </g>
     </g>
     <g id="text_4">
      <!-- 600 -->
      <g transform="translate(168.051118 175.575697)scale(0.1 -0.1)">
       <defs>
        <path id="DejaVuSans-36" d="M 2113 2584 
Q 1688 2584 1439 2293 
Q 1191 2003 1191 1497 
Q 1191 994 1439 701 
Q 1688 409 2113 409 
Q 2538 409 2786 701 
Q 3034 994 3034 1497 
Q 3034 2003 2786 2293 
Q 2538 2584 2113 2584 
z
M 3366 4563 
L 3366 3988 
Q 3128 4100 2886 4159 
Q 2644 4219 2406 4219 
Q 1781 4219 1451 3797 
Q 1122 3375 1075 2522 
Q 1259 2794 1537 2939 
Q 1816 3084 2150 3084 
Q 2853 3084 3261 2657 
Q 3669 2231 3669 1497 
Q 3669 778 3244 343 
Q 2819 -91 2113 -91 
Q 1303 -91 875 529 
Q 447 1150 447 2328 
Q 447 3434 972 4092 
Q 1497 4750 2381 4750 
Q 2619 4750 2861 4703 
Q 3103 4656 3366 4563 
z
" transform="scale(0.015625)"/>
       </defs>
       <use xlink:href="#DejaVuSans-36"/>
       <use xlink:href="#DejaVuSans-30" x="63.623047"/>
       <use xlink:href="#DejaVuSans-30" x="127.246094"/>
      </g>
     </g>
    </g>
    <g id="xtick_5">
     <g id="line2d_5">
      <g>
       <use xlink:href="#mb4fc6a95ca" x="212.595241" y="160.97726" style="stroke: #000000; stroke-width: 0.8"/>
      </g>
     </g>
     <g id="text_5">
      <!-- 800 -->
      <g transform="translate(203.051491 175.575697)scale(0.1 -0.1)">
       <defs>
        <path id="DejaVuSans-38" d="M 2034 2216 
Q 1584 2216 1326 1975 
Q 1069 1734 1069 1313 
Q 1069 891 1326 650 
Q 1584 409 2034 409 
Q 2484 409 2743 651 
Q 3003 894 3003 1313 
Q 3003 1734 2745 1975 
Q 2488 2216 2034 2216 
z
M 1403 2484 
Q 997 2584 770 2862 
Q 544 3141 544 3541 
Q 544 4100 942 4425 
Q 1341 4750 2034 4750 
Q 2731 4750 3128 4425 
Q 3525 4100 3525 3541 
Q 3525 3141 3298 2862 
Q 3072 2584 2669 2484 
Q 3125 2378 3379 2068 
Q 3634 1759 3634 1313 
Q 3634 634 3220 271 
Q 2806 -91 2034 -91 
Q 1263 -91 848 271 
Q 434 634 434 1313 
Q 434 1759 690 2068 
Q 947 2378 1403 2484 
z
M 1172 3481 
Q 1172 3119 1398 2916 
Q 1625 2713 2034 2713 
Q 2441 2713 2670 2916 
Q 2900 3119 2900 3481 
Q 2900 3844 2670 4047 
Q 2441 4250 2034 4250 
Q 1625 4250 1398 4047 
Q 1172 3844 1172 3481 
z
" transform="scale(0.015625)"/>
       </defs>
       <use xlink:href="#DejaVuSans-38"/>
       <use xlink:href="#DejaVuSans-30" x="63.623047"/>
       <use xlink:href="#DejaVuSans-30" x="127.246094"/>
      </g>
     </g>
    </g>
    <g id="xtick_6">
     <g id="line2d_6">
      <g>
       <use xlink:href="#mb4fc6a95ca" x="247.595614" y="160.97726" style="stroke: #000000; stroke-width: 0.8"/>
      </g>
     </g>
     <g id="text_6">
      <!-- 1000 -->
      <g transform="translate(234.870614 175.575697)scale(0.1 -0.1)">
       <defs>
        <path id="DejaVuSans-31" d="M 794 531 
L 1825 531 
L 1825 4091 
L 703 3866 
L 703 4441 
L 1819 4666 
L 2450 4666 
L 2450 531 
L 3481 531 
L 3481 0 
L 794 0 
L 794 531 
z
" transform="scale(0.015625)"/>
       </defs>
       <use xlink:href="#DejaVuSans-31"/>
       <use xlink:href="#DejaVuSans-30" x="63.623047"/>
       <use xlink:href="#DejaVuSans-30" x="127.246094"/>
       <use xlink:href="#DejaVuSans-30" x="190.869141"/>
      </g>
     </g>
    </g>
    <g id="text_7">
     <!-- Exergy in W -->
     <g transform="translate(130.274369 189.253822)scale(0.1 -0.1)">
      <defs>
       <path id="DejaVuSans-45" d="M 628 4666 
L 3578 4666 
L 3578 4134 
L 1259 4134 
L 1259 2753 
L 3481 2753 
L 3481 2222 
L 1259 2222 
L 1259 531 
L 3634 531 
L 3634 0 
L 628 0 
L 628 4666 
z
" transform="scale(0.015625)"/>
       <path id="DejaVuSans-78" d="M 3513 3500 
L 2247 1797 
L 3578 0 
L 2900 0 
L 1881 1375 
L 863 0 
L 184 0 
L 1544 1831 
L 300 3500 
L 978 3500 
L 1906 2253 
L 2834 3500 
L 3513 3500 
z
" transform="scale(0.015625)"/>
       <path id="DejaVuSans-65" d="M 3597 1894 
L 3597 1613 
L 953 1613 
Q 991 1019 1311 708 
Q 1631 397 2203 397 
Q 2534 397 2845 478 
Q 3156 559 3463 722 
L 3463 178 
Q 3153 47 2828 -22 
Q 2503 -91 2169 -91 
Q 1331 -91 842 396 
Q 353 884 353 1716 
Q 353 2575 817 3079 
Q 1281 3584 2069 3584 
Q 2775 3584 3186 3129 
Q 3597 2675 3597 1894 
z
M 3022 2063 
Q 3016 2534 2758 2815 
Q 2500 3097 2075 3097 
Q 1594 3097 1305 2825 
Q 1016 2553 972 2059 
L 3022 2063 
z
" transform="scale(0.015625)"/>
       <path id="DejaVuSans-72" d="M 2631 2963 
Q 2534 3019 2420 3045 
Q 2306 3072 2169 3072 
Q 1681 3072 1420 2755 
Q 1159 2438 1159 1844 
L 1159 0 
L 581 0 
L 581 3500 
L 1159 3500 
L 1159 2956 
Q 1341 3275 1631 3429 
Q 1922 3584 2338 3584 
Q 2397 3584 2469 3576 
Q 2541 3569 2628 3553 
L 2631 2963 
z
" transform="scale(0.015625)"/>
       <path id="DejaVuSans-67" d="M 2906 1791 
Q 2906 2416 2648 2759 
Q 2391 3103 1925 3103 
Q 1463 3103 1205 2759 
Q 947 2416 947 1791 
Q 947 1169 1205 825 
Q 1463 481 1925 481 
Q 2391 481 2648 825 
Q 2906 1169 2906 1791 
z
M 3481 434 
Q 3481 -459 3084 -895 
Q 2688 -1331 1869 -1331 
Q 1566 -1331 1297 -1286 
Q 1028 -1241 775 -1147 
L 775 -588 
Q 1028 -725 1275 -790 
Q 1522 -856 1778 -856 
Q 2344 -856 2625 -561 
Q 2906 -266 2906 331 
L 2906 616 
Q 2728 306 2450 153 
Q 2172 0 1784 0 
Q 1141 0 747 490 
Q 353 981 353 1791 
Q 353 2603 747 3093 
Q 1141 3584 1784 3584 
Q 2172 3584 2450 3431 
Q 2728 3278 2906 2969 
L 2906 3500 
L 3481 3500 
L 3481 434 
z
" transform="scale(0.015625)"/>
       <path id="DejaVuSans-79" d="M 2059 -325 
Q 1816 -950 1584 -1140 
Q 1353 -1331 966 -1331 
L 506 -1331 
L 506 -850 
L 844 -850 
Q 1081 -850 1212 -737 
Q 1344 -625 1503 -206 
L 1606 56 
L 191 3500 
L 800 3500 
L 1894 763 
L 2988 3500 
L 3597 3500 
L 2059 -325 
z
" transform="scale(0.015625)"/>
       <path id="DejaVuSans-20" transform="scale(0.015625)"/>
       <path id="DejaVuSans-69" d="M 603 3500 
L 1178 3500 
L 1178 0 
L 603 0 
L 603 3500 
z
M 603 4863 
L 1178 4863 
L 1178 4134 
L 603 4134 
L 603 4863 
z
" transform="scale(0.015625)"/>
       <path id="DejaVuSans-6e" d="M 3513 2113 
L 3513 0 
L 2938 0 
L 2938 2094 
Q 2938 2591 2744 2837 
Q 2550 3084 2163 3084 
Q 1697 3084 1428 2787 
Q 1159 2491 1159 1978 
L 1159 0 
L 581 0 
L 581 3500 
L 1159 3500 
L 1159 2956 
Q 1366 3272 1645 3428 
Q 1925 3584 2291 3584 
Q 2894 3584 3203 3211 
Q 3513 2838 3513 2113 
z
" transform="scale(0.015625)"/>
       <path id="DejaVuSans-57" d="M 213 4666 
L 850 4666 
L 1831 722 
L 2809 4666 
L 3519 4666 
L 4500 722 
L 5478 4666 
L 6119 4666 
L 4947 0 
L 4153 0 
L 3169 4050 
L 2175 0 
L 1381 0 
L 213 4666 
z
" transform="scale(0.015625)"/>
      </defs>
      <use xlink:href="#DejaVuSans-45"/>
      <use xlink:href="#DejaVuSans-78" x="63.183594"/>
      <use xlink:href="#DejaVuSans-65" x="119.238281"/>
      <use xlink:href="#DejaVuSans-72" x="180.761719"/>
      <use xlink:href="#DejaVuSans-67" x="220.125"/>
      <use xlink:href="#DejaVuSans-79" x="283.601562"/>
      <use xlink:href="#DejaVuSans-20" x="342.78125"/>
      <use xlink:href="#DejaVuSans-69" x="374.568359"/>
      <use xlink:href="#DejaVuSans-6e" x="402.351562"/>
      <use xlink:href="#DejaVuSans-20" x="465.730469"/>
      <use xlink:href="#DejaVuSans-57" x="497.517578"/>
     </g>
    </g>
   </g>
   <g id="matplotlib.axis_2">
    <g id="ytick_1">
     <g id="line2d_7">
      <defs>
       <path id="m75a9f96718" d="M 0 0 
L -3.5 0 
" style="stroke: #000000; stroke-width: 0.8"/>
      </defs>
      <g>
       <use xlink:href="#m75a9f96718" x="72.59375" y="54.749705" style="stroke: #000000; stroke-width: 0.8"/>
      </g>
     </g>
     <g id="text_8">
      <!-- E_F -->
      <g transform="translate(48.523438 58.409861)scale(0.1 -0.1)">
       <defs>
        <path id="DejaVuSans-5f" d="M 3263 -1063 
L 3263 -1509 
L -63 -1509 
L -63 -1063 
L 3263 -1063 
z
" transform="scale(0.015625)"/>
        <path id="DejaVuSans-46" d="M 628 4666 
L 3309 4666 
L 3309 4134 
L 1259 4134 
L 1259 2759 
L 3109 2759 
L 3109 2228 
L 1259 2228 
L 1259 0 
L 628 0 
L 628 4666 
z
" transform="scale(0.015625)"/>
       </defs>
       <use xlink:href="#DejaVuSans-45"/>
       <use xlink:href="#DejaVuSans-5f" x="63.183594"/>
       <use xlink:href="#DejaVuSans-46" x="113.183594"/>
      </g>
     </g>
    </g>
    <g id="ytick_2">
     <g id="line2d_8">
      <g>
       <use xlink:href="#m75a9f96718" x="72.59375" y="73.418871" style="stroke: #000000; stroke-width: 0.8"/>
      </g>
     </g>
     <g id="text_9">
      <!-- condenser -->
      <g transform="translate(13.326562 77.21809)scale(0.1 -0.1)">
       <defs>
        <path id="DejaVuSans-63" d="M 3122 3366 
L 3122 2828 
Q 2878 2963 2633 3030 
Q 2388 3097 2138 3097 
Q 1578 3097 1268 2742 
Q 959 2388 959 1747 
Q 959 1106 1268 751 
Q 1578 397 2138 397 
Q 2388 397 2633 464 
Q 2878 531 3122 666 
L 3122 134 
Q 2881 22 2623 -34 
Q 2366 -91 2075 -91 
Q 1284 -91 818 406 
Q 353 903 353 1747 
Q 353 2603 823 3093 
Q 1294 3584 2113 3584 
Q 2378 3584 2631 3529 
Q 2884 3475 3122 3366 
z
" transform="scale(0.015625)"/>
        <path id="DejaVuSans-6f" d="M 1959 3097 
Q 1497 3097 1228 2736 
Q 959 2375 959 1747 
Q 959 1119 1226 758 
Q 1494 397 1959 397 
Q 2419 397 2687 759 
Q 2956 1122 2956 1747 
Q 2956 2369 2687 2733 
Q 2419 3097 1959 3097 
z
M 1959 3584 
Q 2709 3584 3137 3096 
Q 3566 2609 3566 1747 
Q 3566 888 3137 398 
Q 2709 -91 1959 -91 
Q 1206 -91 779 398 
Q 353 888 353 1747 
Q 353 2609 779 3096 
Q 1206 3584 1959 3584 
z
" transform="scale(0.015625)"/>
        <path id="DejaVuSans-64" d="M 2906 2969 
L 2906 4863 
L 3481 4863 
L 3481 0 
L 2906 0 
L 2906 525 
Q 2725 213 2448 61 
Q 2172 -91 1784 -91 
Q 1150 -91 751 415 
Q 353 922 353 1747 
Q 353 2572 751 3078 
Q 1150 3584 1784 3584 
Q 2172 3584 2448 3432 
Q 2725 3281 2906 2969 
z
M 947 1747 
Q 947 1113 1208 752 
Q 1469 391 1925 391 
Q 2381 391 2643 752 
Q 2906 1113 2906 1747 
Q 2906 2381 2643 2742 
Q 2381 3103 1925 3103 
Q 1469 3103 1208 2742 
Q 947 2381 947 1747 
z
" transform="scale(0.015625)"/>
        <path id="DejaVuSans-73" d="M 2834 3397 
L 2834 2853 
Q 2591 2978 2328 3040 
Q 2066 3103 1784 3103 
Q 1356 3103 1142 2972 
Q 928 2841 928 2578 
Q 928 2378 1081 2264 
Q 1234 2150 1697 2047 
L 1894 2003 
Q 2506 1872 2764 1633 
Q 3022 1394 3022 966 
Q 3022 478 2636 193 
Q 2250 -91 1575 -91 
Q 1294 -91 989 -36 
Q 684 19 347 128 
L 347 722 
Q 666 556 975 473 
Q 1284 391 1588 391 
Q 1994 391 2212 530 
Q 2431 669 2431 922 
Q 2431 1156 2273 1281 
Q 2116 1406 1581 1522 
L 1381 1569 
Q 847 1681 609 1914 
Q 372 2147 372 2553 
Q 372 3047 722 3315 
Q 1072 3584 1716 3584 
Q 2034 3584 2315 3537 
Q 2597 3491 2834 3397 
z
" transform="scale(0.015625)"/>
       </defs>
       <use xlink:href="#DejaVuSans-63"/>
       <use xlink:href="#DejaVuSans-6f" x="54.980469"/>
       <use xlink:href="#DejaVuSans-6e" x="116.162109"/>
       <use xlink:href="#DejaVuSans-64" x="179.541016"/>
       <use xlink:href="#DejaVuSans-65" x="243.017578"/>
       <use xlink:href="#DejaVuSans-6e" x="304.541016"/>
       <use xlink:href="#DejaVuSans-73" x="367.919922"/>
       <use xlink:href="#DejaVuSans-65" x="420.019531"/>
       <use xlink:href="#DejaVuSans-72" x="481.542969"/>
      </g>
     </g>
    </g>
    <g id="ytick_3">
     <g id="line2d_9">
      <g>
       <use xlink:href="#m75a9f96718" x="72.59375" y="92.088037" style="stroke: #000000; stroke-width: 0.8"/>
      </g>
     </g>
     <g id="text_10">
      <!-- valve -->
      <g transform="translate(38.696875 95.887256)scale(0.1 -0.1)">
       <defs>
        <path id="DejaVuSans-76" d="M 191 3500 
L 800 3500 
L 1894 563 
L 2988 3500 
L 3597 3500 
L 2284 0 
L 1503 0 
L 191 3500 
z
" transform="scale(0.015625)"/>
        <path id="DejaVuSans-61" d="M 2194 1759 
Q 1497 1759 1228 1600 
Q 959 1441 959 1056 
Q 959 750 1161 570 
Q 1363 391 1709 391 
Q 2188 391 2477 730 
Q 2766 1069 2766 1631 
L 2766 1759 
L 2194 1759 
z
M 3341 1997 
L 3341 0 
L 2766 0 
L 2766 531 
Q 2569 213 2275 61 
Q 1981 -91 1556 -91 
Q 1019 -91 701 211 
Q 384 513 384 1019 
Q 384 1609 779 1909 
Q 1175 2209 1959 2209 
L 2766 2209 
L 2766 2266 
Q 2766 2663 2505 2880 
Q 2244 3097 1772 3097 
Q 1472 3097 1187 3025 
Q 903 2953 641 2809 
L 641 3341 
Q 956 3463 1253 3523 
Q 1550 3584 1831 3584 
Q 2591 3584 2966 3190 
Q 3341 2797 3341 1997 
z
" transform="scale(0.015625)"/>
        <path id="DejaVuSans-6c" d="M 603 4863 
L 1178 4863 
L 1178 0 
L 603 0 
L 603 4863 
z
" transform="scale(0.015625)"/>
       </defs>
       <use xlink:href="#DejaVuSans-76"/>
       <use xlink:href="#DejaVuSans-61" x="59.179688"/>
       <use xlink:href="#DejaVuSans-6c" x="120.458984"/>
       <use xlink:href="#DejaVuSans-76" x="148.242188"/>
       <use xlink:href="#DejaVuSans-65" x="207.421875"/>
      </g>
     </g>
    </g>
    <g id="ytick_4">
     <g id="line2d_10">
      <g>
       <use xlink:href="#m75a9f96718" x="72.59375" y="110.757203" style="stroke: #000000; stroke-width: 0.8"/>
      </g>
     </g>
     <g id="text_11">
      <!-- evaporator -->
      <g transform="translate(10.5375 114.556422)scale(0.1 -0.1)">
       <defs>
        <path id="DejaVuSans-70" d="M 1159 525 
L 1159 -1331 
L 581 -1331 
L 581 3500 
L 1159 3500 
L 1159 2969 
Q 1341 3281 1617 3432 
Q 1894 3584 2278 3584 
Q 2916 3584 3314 3078 
Q 3713 2572 3713 1747 
Q 3713 922 3314 415 
Q 2916 -91 2278 -91 
Q 1894 -91 1617 61 
Q 1341 213 1159 525 
z
M 3116 1747 
Q 3116 2381 2855 2742 
Q 2594 3103 2138 3103 
Q 1681 3103 1420 2742 
Q 1159 2381 1159 1747 
Q 1159 1113 1420 752 
Q 1681 391 2138 391 
Q 2594 391 2855 752 
Q 3116 1113 3116 1747 
z
" transform="scale(0.015625)"/>
        <path id="DejaVuSans-74" d="M 1172 4494 
L 1172 3500 
L 2356 3500 
L 2356 3053 
L 1172 3053 
L 1172 1153 
Q 1172 725 1289 603 
Q 1406 481 1766 481 
L 2356 481 
L 2356 0 
L 1766 0 
Q 1100 0 847 248 
Q 594 497 594 1153 
L 594 3053 
L 172 3053 
L 172 3500 
L 594 3500 
L 594 4494 
L 1172 4494 
z
" transform="scale(0.015625)"/>
       </defs>
       <use xlink:href="#DejaVuSans-65"/>
       <use xlink:href="#DejaVuSans-76" x="61.523438"/>
       <use xlink:href="#DejaVuSans-61" x="120.703125"/>
       <use xlink:href="#DejaVuSans-70" x="181.982422"/>
       <use xlink:href="#DejaVuSans-6f" x="245.458984"/>
       <use xlink:href="#DejaVuSans-72" x="306.640625"/>
       <use xlink:href="#DejaVuSans-61" x="347.753906"/>
       <use xlink:href="#DejaVuSans-74" x="409.033203"/>
       <use xlink:href="#DejaVuSans-6f" x="448.242188"/>
       <use xlink:href="#DejaVuSans-72" x="509.423828"/>
      </g>
     </g>
    </g>
    <g id="ytick_5">
     <g id="line2d_11">
      <g>
       <use xlink:href="#m75a9f96718" x="72.59375" y="129.426369" style="stroke: #000000; stroke-width: 0.8"/>
      </g>
     </g>
     <g id="text_12">
      <!-- compressor -->
      <g transform="translate(7.2 133.225588)scale(0.1 -0.1)">
       <defs>
        <path id="DejaVuSans-6d" d="M 3328 2828 
Q 3544 3216 3844 3400 
Q 4144 3584 4550 3584 
Q 5097 3584 5394 3201 
Q 5691 2819 5691 2113 
L 5691 0 
L 5113 0 
L 5113 2094 
Q 5113 2597 4934 2840 
Q 4756 3084 4391 3084 
Q 3944 3084 3684 2787 
Q 3425 2491 3425 1978 
L 3425 0 
L 2847 0 
L 2847 2094 
Q 2847 2600 2669 2842 
Q 2491 3084 2119 3084 
Q 1678 3084 1418 2786 
Q 1159 2488 1159 1978 
L 1159 0 
L 581 0 
L 581 3500 
L 1159 3500 
L 1159 2956 
Q 1356 3278 1631 3431 
Q 1906 3584 2284 3584 
Q 2666 3584 2933 3390 
Q 3200 3197 3328 2828 
z
" transform="scale(0.015625)"/>
       </defs>
       <use xlink:href="#DejaVuSans-63"/>
       <use xlink:href="#DejaVuSans-6f" x="54.980469"/>
       <use xlink:href="#DejaVuSans-6d" x="116.162109"/>
       <use xlink:href="#DejaVuSans-70" x="213.574219"/>
       <use xlink:href="#DejaVuSans-72" x="277.050781"/>
       <use xlink:href="#DejaVuSans-65" x="315.914062"/>
       <use xlink:href="#DejaVuSans-73" x="377.4375"/>
       <use xlink:href="#DejaVuSans-73" x="429.537109"/>
       <use xlink:href="#DejaVuSans-6f" x="481.636719"/>
       <use xlink:href="#DejaVuSans-72" x="542.818359"/>
      </g>
     </g>
    </g>
    <g id="ytick_6">
     <g id="line2d_12">
      <g>
       <use xlink:href="#m75a9f96718" x="72.59375" y="148.095535" style="stroke: #000000; stroke-width: 0.8"/>
      </g>
     </g>
     <g id="text_13">
      <!-- E_P -->
      <g transform="translate(48.245312 151.755692)scale(0.1 -0.1)">
       <defs>
        <path id="DejaVuSans-50" d="M 1259 4147 
L 1259 2394 
L 2053 2394 
Q 2494 2394 2734 2622 
Q 2975 2850 2975 3272 
Q 2975 3691 2734 3919 
Q 2494 4147 2053 4147 
L 1259 4147 
z
M 628 4666 
L 2053 4666 
Q 2838 4666 3239 4311 
Q 3641 3956 3641 3272 
Q 3641 2581 3239 2228 
Q 2838 1875 2053 1875 
L 1259 1875 
L 1259 0 
L 628 0 
L 628 4666 
z
" transform="scale(0.015625)"/>
       </defs>
       <use xlink:href="#DejaVuSans-45"/>
       <use xlink:href="#DejaVuSans-5f" x="63.183594"/>
       <use xlink:href="#DejaVuSans-50" x="113.183594"/>
      </g>
     </g>
    </g>
   </g>
   <g id="patch_15">
    <path d="M 72.59375 160.97726 
L 72.59375 41.86798 
" style="fill: none; stroke: #000000; stroke-width: 0.8; stroke-linejoin: miter; stroke-linecap: square"/>
   </g>
   <g id="patch_16">
    <path d="M 247.595614 160.97726 
L 247.595614 41.86798 
" style="fill: none; stroke: #000000; stroke-width: 0.8; stroke-linejoin: miter; stroke-linecap: square"/>
   </g>
   <g id="patch_17">
    <path d="M 72.59375 160.97726 
L 247.595614 160.97726 
" style="fill: none; stroke: #000000; stroke-width: 0.8; stroke-linejoin: miter; stroke-linecap: square"/>
   </g>
   <g id="patch_18">
    <path d="M 72.59375 41.86798 
L 247.595614 41.86798 
" style="fill: none; stroke: #000000; stroke-width: 0.8; stroke-linejoin: miter; stroke-linecap: square"/>
   </g>
   <g id="text_14">
    <!-- NH3 -->
    <g transform="translate(147.276244 35.86798)scale(0.12 -0.12)">
     <defs>
      <path id="DejaVuSans-4e" d="M 628 4666 
L 1478 4666 
L 3547 763 
L 3547 4666 
L 4159 4666 
L 4159 0 
L 3309 0 
L 1241 3903 
L 1241 0 
L 628 0 
L 628 4666 
z
" transform="scale(0.015625)"/>
      <path id="DejaVuSans-48" d="M 628 4666 
L 1259 4666 
L 1259 2753 
L 3553 2753 
L 3553 4666 
L 4184 4666 
L 4184 0 
L 3553 0 
L 3553 2222 
L 1259 2222 
L 1259 0 
L 628 0 
L 628 4666 
z
" transform="scale(0.015625)"/>
      <path id="DejaVuSans-33" d="M 2597 2516 
Q 3050 2419 3304 2112 
Q 3559 1806 3559 1356 
Q 3559 666 3084 287 
Q 2609 -91 1734 -91 
Q 1441 -91 1130 -33 
Q 819 25 488 141 
L 488 750 
Q 750 597 1062 519 
Q 1375 441 1716 441 
Q 2309 441 2620 675 
Q 2931 909 2931 1356 
Q 2931 1769 2642 2001 
Q 2353 2234 1838 2234 
L 1294 2234 
L 1294 2753 
L 1863 2753 
Q 2328 2753 2575 2939 
Q 2822 3125 2822 3475 
Q 2822 3834 2567 4026 
Q 2313 4219 1838 4219 
Q 1578 4219 1281 4162 
Q 984 4106 628 3988 
L 628 4550 
Q 988 4650 1302 4700 
Q 1616 4750 1894 4750 
Q 2613 4750 3031 4423 
Q 3450 4097 3450 3541 
Q 3450 3153 3228 2886 
Q 3006 2619 2597 2516 
z
" transform="scale(0.015625)"/>
     </defs>
     <use xlink:href="#DejaVuSans-4e"/>
     <use xlink:href="#DejaVuSans-48" x="74.804688"/>
     <use xlink:href="#DejaVuSans-33" x="150"/>
    </g>
   </g>
  </g>
  <g id="axes_2">
   <g id="patch_19">
    <path d="M 274.272656 160.97726 
L 449.27452 160.97726 
L 449.27452 41.86798 
L 274.272656 41.86798 
z
" style="fill: #ffffff"/>
   </g>
   <g id="patch_20">
    <path d="M 274.272656 47.282038 
L 439.47912 47.282038 
L 439.47912 62.217371 
L 274.272656 62.217371 
z
" clip-path="url(#p39d1779824)" style="fill: #3a9dce"/>
   </g>
   <g id="patch_21">
    <path d="M 274.272656 65.951204 
L 419.83312 65.951204 
L 419.83312 80.886537 
L 274.272656 80.886537 
z
" clip-path="url(#p39d1779824)" style="fill: #f08e2b"/>
   </g>
   <g id="patch_22">
    <path d="M 274.272656 84.62037 
L 395.730909 84.62037 
L 395.730909 99.555703 
L 274.272656 99.555703 
z
" clip-path="url(#p39d1779824)" style="fill: #f08e2b"/>
   </g>
   <g id="patch_23">
    <path d="M 274.272656 103.289537 
L 382.117082 103.289537 
L 382.117082 118.22487 
L 274.272656 118.22487 
z
" clip-path="url(#p39d1779824)" style="fill: #f08e2b"/>
   </g>
   <g id="patch_24">
    <path d="M 274.272656 121.958703 
L 358.586152 121.958703 
L 358.586152 136.894036 
L 274.272656 136.894036 
z
" clip-path="url(#p39d1779824)" style="fill: #f08e2b"/>
   </g>
   <g id="patch_25">
    <path d="M 274.272656 140.627869 
L 358.586152 140.627869 
L 358.586152 155.563202 
L 274.272656 155.563202 
z
" clip-path="url(#p39d1779824)" style="fill: #db5252"/>
   </g>
   <g id="patch_26">
    <path d="M 439.47912 47.282038 
L 439.47912 47.282038 
L 439.47912 62.217371 
L 439.47912 62.217371 
z
" clip-path="url(#p39d1779824)" style="fill: #6ed880"/>
   </g>
   <g id="patch_27">
    <path d="M 419.83312 65.951204 
L 439.47912 65.951204 
L 439.47912 80.886537 
L 419.83312 80.886537 
z
" clip-path="url(#p39d1779824)" style="fill: #6ed880"/>
   </g>
   <g id="patch_28">
    <path d="M 395.730909 84.62037 
L 419.83312 84.62037 
L 419.83312 99.555703 
L 395.730909 99.555703 
z
" clip-path="url(#p39d1779824)" style="fill: #6ed880"/>
   </g>
   <g id="patch_29">
    <path d="M 382.117082 103.289537 
L 395.730909 103.289537 
L 395.730909 118.22487 
L 382.117082 118.22487 
z
" clip-path="url(#p39d1779824)" style="fill: #6ed880"/>
   </g>
   <g id="patch_30">
    <path d="M 358.586152 121.958703 
L 382.117082 121.958703 
L 382.117082 136.894036 
L 358.586152 136.894036 
z
" clip-path="url(#p39d1779824)" style="fill: #6ed880"/>
   </g>
   <g id="patch_31">
    <path d="M 358.586152 140.627869 
L 358.586152 140.627869 
L 358.586152 155.563202 
L 358.586152 155.563202 
z
" clip-path="url(#p39d1779824)" style="fill: #6ed880"/>
   </g>
   <g id="matplotlib.axis_3">
    <g id="xtick_7">
     <g id="line2d_13">
      <g>
       <use xlink:href="#mb4fc6a95ca" x="274.272656" y="160.97726" style="stroke: #000000; stroke-width: 0.8"/>
      </g>
     </g>
     <g id="text_15">
      <!-- 0 -->
      <g transform="translate(271.091406 175.575697)scale(0.1 -0.1)">
       <use xlink:href="#DejaVuSans-30"/>
      </g>
     </g>
    </g>
    <g id="xtick_8">
     <g id="line2d_14">
      <g>
       <use xlink:href="#mb4fc6a95ca" x="309.273029" y="160.97726" style="stroke: #000000; stroke-width: 0.8"/>
      </g>
     </g>
     <g id="text_16">
      <!-- 200 -->
      <g transform="translate(299.729279 175.575697)scale(0.1 -0.1)">
       <use xlink:href="#DejaVuSans-32"/>
       <use xlink:href="#DejaVuSans-30" x="63.623047"/>
       <use xlink:href="#DejaVuSans-30" x="127.246094"/>
      </g>
     </g>
    </g>
    <g id="xtick_9">
     <g id="line2d_15">
      <g>
       <use xlink:href="#mb4fc6a95ca" x="344.273402" y="160.97726" style="stroke: #000000; stroke-width: 0.8"/>
      </g>
     </g>
     <g id="text_17">
      <!-- 400 -->
      <g transform="translate(334.729652 175.575697)scale(0.1 -0.1)">
       <use xlink:href="#DejaVuSans-34"/>
       <use xlink:href="#DejaVuSans-30" x="63.623047"/>
       <use xlink:href="#DejaVuSans-30" x="127.246094"/>
      </g>
     </g>
    </g>
    <g id="xtick_10">
     <g id="line2d_16">
      <g>
       <use xlink:href="#mb4fc6a95ca" x="379.273774" y="160.97726" style="stroke: #000000; stroke-width: 0.8"/>
      </g>
     </g>
     <g id="text_18">
      <!-- 600 -->
      <g transform="translate(369.730024 175.575697)scale(0.1 -0.1)">
       <use xlink:href="#DejaVuSans-36"/>
       <use xlink:href="#DejaVuSans-30" x="63.623047"/>
       <use xlink:href="#DejaVuSans-30" x="127.246094"/>
      </g>
     </g>
    </g>
    <g id="xtick_11">
     <g id="line2d_17">
      <g>
       <use xlink:href="#mb4fc6a95ca" x="414.274147" y="160.97726" style="stroke: #000000; stroke-width: 0.8"/>
      </g>
     </g>
     <g id="text_19">
      <!-- 800 -->
      <g transform="translate(404.730397 175.575697)scale(0.1 -0.1)">
       <use xlink:href="#DejaVuSans-38"/>
       <use xlink:href="#DejaVuSans-30" x="63.623047"/>
       <use xlink:href="#DejaVuSans-30" x="127.246094"/>
      </g>
     </g>
    </g>
    <g id="xtick_12">
     <g id="line2d_18">
      <g>
       <use xlink:href="#mb4fc6a95ca" x="449.27452" y="160.97726" style="stroke: #000000; stroke-width: 0.8"/>
      </g>
     </g>
     <g id="text_20">
      <!-- 1000 -->
      <g transform="translate(436.54952 175.575697)scale(0.1 -0.1)">
       <use xlink:href="#DejaVuSans-31"/>
       <use xlink:href="#DejaVuSans-30" x="63.623047"/>
       <use xlink:href="#DejaVuSans-30" x="127.246094"/>
       <use xlink:href="#DejaVuSans-30" x="190.869141"/>
      </g>
     </g>
    </g>
    <g id="text_21">
     <!-- Exergy in W -->
     <g transform="translate(331.953276 189.253822)scale(0.1 -0.1)">
      <use xlink:href="#DejaVuSans-45"/>
      <use xlink:href="#DejaVuSans-78" x="63.183594"/>
      <use xlink:href="#DejaVuSans-65" x="119.238281"/>
      <use xlink:href="#DejaVuSans-72" x="180.761719"/>
      <use xlink:href="#DejaVuSans-67" x="220.125"/>
      <use xlink:href="#DejaVuSans-79" x="283.601562"/>
      <use xlink:href="#DejaVuSans-20" x="342.78125"/>
      <use xlink:href="#DejaVuSans-69" x="374.568359"/>
      <use xlink:href="#DejaVuSans-6e" x="402.351562"/>
      <use xlink:href="#DejaVuSans-20" x="465.730469"/>
      <use xlink:href="#DejaVuSans-57" x="497.517578"/>
     </g>
    </g>
   </g>
   <g id="matplotlib.axis_4">
    <g id="ytick_7">
     <g id="line2d_19">
      <g>
       <use xlink:href="#m75a9f96718" x="274.272656" y="54.749705" style="stroke: #000000; stroke-width: 0.8"/>
      </g>
     </g>
    </g>
    <g id="ytick_8">
     <g id="line2d_20">
      <g>
       <use xlink:href="#m75a9f96718" x="274.272656" y="73.418871" style="stroke: #000000; stroke-width: 0.8"/>
      </g>
     </g>
    </g>
    <g id="ytick_9">
     <g id="line2d_21">
      <g>
       <use xlink:href="#m75a9f96718" x="274.272656" y="92.088037" style="stroke: #000000; stroke-width: 0.8"/>
      </g>
     </g>
    </g>
    <g id="ytick_10">
     <g id="line2d_22">
      <g>
       <use xlink:href="#m75a9f96718" x="274.272656" y="110.757203" style="stroke: #000000; stroke-width: 0.8"/>
      </g>
     </g>
    </g>
    <g id="ytick_11">
     <g id="line2d_23">
      <g>
       <use xlink:href="#m75a9f96718" x="274.272656" y="129.426369" style="stroke: #000000; stroke-width: 0.8"/>
      </g>
     </g>
    </g>
    <g id="ytick_12">
     <g id="line2d_24">
      <g>
       <use xlink:href="#m75a9f96718" x="274.272656" y="148.095535" style="stroke: #000000; stroke-width: 0.8"/>
      </g>
     </g>
    </g>
   </g>
   <g id="patch_32">
    <path d="M 274.272656 160.97726 
L 274.272656 41.86798 
" style="fill: none; stroke: #000000; stroke-width: 0.8; stroke-linejoin: miter; stroke-linecap: square"/>
   </g>
   <g id="patch_33">
    <path d="M 449.27452 160.97726 
L 449.27452 41.86798 
" style="fill: none; stroke: #000000; stroke-width: 0.8; stroke-linejoin: miter; stroke-linecap: square"/>
   </g>
   <g id="patch_34">
    <path d="M 274.272656 160.97726 
L 449.27452 160.97726 
" style="fill: none; stroke: #000000; stroke-width: 0.8; stroke-linejoin: miter; stroke-linecap: square"/>
   </g>
   <g id="patch_35">
    <path d="M 274.272656 41.86798 
L 449.27452 41.86798 
" style="fill: none; stroke: #000000; stroke-width: 0.8; stroke-linejoin: miter; stroke-linecap: square"/>
   </g>
   <g id="text_22">
    <!-- R410A -->
    <g transform="translate(342.047651 35.86798)scale(0.12 -0.12)">
     <defs>
      <path id="DejaVuSans-52" d="M 2841 2188 
Q 3044 2119 3236 1894 
Q 3428 1669 3622 1275 
L 4263 0 
L 3584 0 
L 2988 1197 
Q 2756 1666 2539 1819 
Q 2322 1972 1947 1972 
L 1259 1972 
L 1259 0 
L 628 0 
L 628 4666 
L 2053 4666 
Q 2853 4666 3247 4331 
Q 3641 3997 3641 3322 
Q 3641 2881 3436 2590 
Q 3231 2300 2841 2188 
z
M 1259 4147 
L 1259 2491 
L 2053 2491 
Q 2509 2491 2742 2702 
Q 2975 2913 2975 3322 
Q 2975 3731 2742 3939 
Q 2509 4147 2053 4147 
L 1259 4147 
z
" transform="scale(0.015625)"/>
      <path id="DejaVuSans-41" d="M 2188 4044 
L 1331 1722 
L 3047 1722 
L 2188 4044 
z
M 1831 4666 
L 2547 4666 
L 4325 0 
L 3669 0 
L 3244 1197 
L 1141 1197 
L 716 0 
L 50 0 
L 1831 4666 
z
" transform="scale(0.015625)"/>
     </defs>
     <use xlink:href="#DejaVuSans-52"/>
     <use xlink:href="#DejaVuSans-34" x="69.482422"/>
     <use xlink:href="#DejaVuSans-31" x="133.105469"/>
     <use xlink:href="#DejaVuSans-30" x="196.728516"/>
     <use xlink:href="#DejaVuSans-41" x="260.351562"/>
    </g>
   </g>
  </g>
  <g id="axes_3">
   <g id="patch_36">
    <path d="M 72.59375 316.44327 
L 247.595614 316.44327 
L 247.595614 197.33399 
L 72.59375 197.33399 
z
" style="fill: #ffffff"/>
   </g>
   <g id="patch_37">
    <path d="M 72.59375 202.748048 
L 247.595614 202.748048 
L 247.595614 217.683381 
L 72.59375 217.683381 
z
" clip-path="url(#pf4004c995f)" style="fill: #3a9dce"/>
   </g>
   <g id="patch_38">
    <path d="M 72.59375 221.417214 
L 218.236659 221.417214 
L 218.236659 236.352547 
L 72.59375 236.352547 
z
" clip-path="url(#pf4004c995f)" style="fill: #f08e2b"/>
   </g>
   <g id="patch_39">
    <path d="M 72.59375 240.08638 
L 208.31592 240.08638 
L 208.31592 255.021713 
L 72.59375 255.021713 
z
" clip-path="url(#pf4004c995f)" style="fill: #f08e2b"/>
   </g>
   <g id="patch_40">
    <path d="M 72.59375 258.755547 
L 192.195794 258.755547 
L 192.195794 273.69088 
L 72.59375 273.69088 
z
" clip-path="url(#pf4004c995f)" style="fill: #f08e2b"/>
   </g>
   <g id="patch_41">
    <path d="M 72.59375 277.424713 
L 170.351926 277.424713 
L 170.351926 292.360046 
L 72.59375 292.360046 
z
" clip-path="url(#pf4004c995f)" style="fill: #f08e2b"/>
   </g>
   <g id="patch_42">
    <path d="M 72.59375 296.093879 
L 170.351926 296.093879 
L 170.351926 311.029212 
L 72.59375 311.029212 
z
" clip-path="url(#pf4004c995f)" style="fill: #db5252"/>
   </g>
   <g id="patch_43">
    <path d="M 247.595614 202.748048 
L 247.595614 202.748048 
L 247.595614 217.683381 
L 247.595614 217.683381 
z
" clip-path="url(#pf4004c995f)" style="fill: #6ed880"/>
   </g>
   <g id="patch_44">
    <path d="M 218.236659 221.417214 
L 247.595614 221.417214 
L 247.595614 236.352547 
L 218.236659 236.352547 
z
" clip-path="url(#pf4004c995f)" style="fill: #6ed880"/>
   </g>
   <g id="patch_45">
    <path d="M 208.31592 240.08638 
L 218.236659 240.08638 
L 218.236659 255.021713 
L 208.31592 255.021713 
z
" clip-path="url(#pf4004c995f)" style="fill: #6ed880"/>
   </g>
   <g id="patch_46">
    <path d="M 192.195794 258.755547 
L 208.31592 258.755547 
L 208.31592 273.69088 
L 192.195794 273.69088 
z
" clip-path="url(#pf4004c995f)" style="fill: #6ed880"/>
   </g>
   <g id="patch_47">
    <path d="M 170.351926 277.424713 
L 192.195794 277.424713 
L 192.195794 292.360046 
L 170.351926 292.360046 
z
" clip-path="url(#pf4004c995f)" style="fill: #6ed880"/>
   </g>
   <g id="patch_48">
    <path d="M 170.351926 296.093879 
L 170.351926 296.093879 
L 170.351926 311.029212 
L 170.351926 311.029212 
z
" clip-path="url(#pf4004c995f)" style="fill: #6ed880"/>
   </g>
   <g id="matplotlib.axis_5">
    <g id="xtick_13">
     <g id="line2d_25">
      <g>
       <use xlink:href="#mb4fc6a95ca" x="72.59375" y="316.44327" style="stroke: #000000; stroke-width: 0.8"/>
      </g>
     </g>
     <g id="text_23">
      <!-- 0.0 -->
      <g transform="translate(64.642188 331.041707)scale(0.1 -0.1)">
       <defs>
        <path id="DejaVuSans-2e" d="M 684 794 
L 1344 794 
L 1344 0 
L 684 0 
L 684 794 
z
" transform="scale(0.015625)"/>
       </defs>
       <use xlink:href="#DejaVuSans-30"/>
       <use xlink:href="#DejaVuSans-2e" x="63.623047"/>
       <use xlink:href="#DejaVuSans-30" x="95.410156"/>
      </g>
     </g>
    </g>
    <g id="xtick_14">
     <g id="line2d_26">
      <g>
       <use xlink:href="#mb4fc6a95ca" x="107.594123" y="316.44327" style="stroke: #000000; stroke-width: 0.8"/>
      </g>
     </g>
     <g id="text_24">
      <!-- 0.2 -->
      <g transform="translate(99.64256 331.041707)scale(0.1 -0.1)">
       <use xlink:href="#DejaVuSans-30"/>
       <use xlink:href="#DejaVuSans-2e" x="63.623047"/>
       <use xlink:href="#DejaVuSans-32" x="95.410156"/>
      </g>
     </g>
    </g>
    <g id="xtick_15">
     <g id="line2d_27">
      <g>
       <use xlink:href="#mb4fc6a95ca" x="142.594495" y="316.44327" style="stroke: #000000; stroke-width: 0.8"/>
      </g>
     </g>
     <g id="text_25">
      <!-- 0.4 -->
      <g transform="translate(134.642933 331.041707)scale(0.1 -0.1)">
       <use xlink:href="#DejaVuSans-30"/>
       <use xlink:href="#DejaVuSans-2e" x="63.623047"/>
       <use xlink:href="#DejaVuSans-34" x="95.410156"/>
      </g>
     </g>
    </g>
    <g id="xtick_16">
     <g id="line2d_28">
      <g>
       <use xlink:href="#mb4fc6a95ca" x="177.594868" y="316.44327" style="stroke: #000000; stroke-width: 0.8"/>
      </g>
     </g>
     <g id="text_26">
      <!-- 0.6 -->
      <g transform="translate(169.643306 331.041707)scale(0.1 -0.1)">
       <use xlink:href="#DejaVuSans-30"/>
       <use xlink:href="#DejaVuSans-2e" x="63.623047"/>
       <use xlink:href="#DejaVuSans-36" x="95.410156"/>
      </g>
     </g>
    </g>
    <g id="xtick_17">
     <g id="line2d_29">
      <g>
       <use xlink:href="#mb4fc6a95ca" x="212.595241" y="316.44327" style="stroke: #000000; stroke-width: 0.8"/>
      </g>
     </g>
     <g id="text_27">
      <!-- 0.8 -->
      <g transform="translate(204.643678 331.041707)scale(0.1 -0.1)">
       <use xlink:href="#DejaVuSans-30"/>
       <use xlink:href="#DejaVuSans-2e" x="63.623047"/>
       <use xlink:href="#DejaVuSans-38" x="95.410156"/>
      </g>
     </g>
    </g>
    <g id="xtick_18">
     <g id="line2d_30">
      <g>
       <use xlink:href="#mb4fc6a95ca" x="247.595614" y="316.44327" style="stroke: #000000; stroke-width: 0.8"/>
      </g>
     </g>
     <g id="text_28">
      <!-- 1.0 -->
      <g transform="translate(239.644051 331.041707)scale(0.1 -0.1)">
       <use xlink:href="#DejaVuSans-31"/>
       <use xlink:href="#DejaVuSans-2e" x="63.623047"/>
       <use xlink:href="#DejaVuSans-30" x="95.410156"/>
      </g>
     </g>
    </g>
    <g id="text_29">
     <!-- $\epsilon$ -->
     <g transform="translate(157.344682 344.719832)scale(0.1 -0.1)">
      <defs>
       <path id="DejaVuSans-Oblique-3b5" d="M 1263 1888 
Q 925 1963 778 2166 
Q 669 2309 669 2503 
Q 669 3034 1175 3344 
Q 1575 3588 2188 3588 
Q 2425 3588 2684 3550 
Q 2944 3513 3234 3438 
L 3134 2916 
Q 2847 3006 2606 3047 
Q 2359 3088 2138 3088 
Q 1766 3088 1522 2944 
Q 1228 2772 1228 2522 
Q 1228 2356 1381 2241 
Q 1563 2103 1925 2103 
L 2409 2103 
L 2319 1628 
L 1856 1628 
Q 1425 1628 1172 1469 
Q 828 1253 828 916 
Q 828 703 1013 563 
Q 1244 388 1716 388 
Q 2006 388 2284 444 
Q 2563 503 2806 619 
L 2700 84 
Q 2403 -3 2131 -47 
Q 1859 -91 1609 -91 
Q 866 -91 516 194 
Q 250 413 250 781 
Q 250 1278 600 1584 
Q 859 1813 1263 1888 
z
" transform="scale(0.015625)"/>
      </defs>
      <use xlink:href="#DejaVuSans-Oblique-3b5" transform="translate(0 0.9375)"/>
     </g>
    </g>
   </g>
   <g id="matplotlib.axis_6">
    <g id="ytick_13">
     <g id="line2d_31">
      <g>
       <use xlink:href="#m75a9f96718" x="72.59375" y="210.215715" style="stroke: #000000; stroke-width: 0.8"/>
      </g>
     </g>
     <g id="text_30">
      <!-- E_F -->
      <g transform="translate(48.523438 213.875871)scale(0.1 -0.1)">
       <use xlink:href="#DejaVuSans-45"/>
       <use xlink:href="#DejaVuSans-5f" x="63.183594"/>
       <use xlink:href="#DejaVuSans-46" x="113.183594"/>
      </g>
     </g>
    </g>
    <g id="ytick_14">
     <g id="line2d_32">
      <g>
       <use xlink:href="#m75a9f96718" x="72.59375" y="228.884881" style="stroke: #000000; stroke-width: 0.8"/>
      </g>
     </g>
     <g id="text_31">
      <!-- condenser -->
      <g transform="translate(13.326562 232.6841)scale(0.1 -0.1)">
       <use xlink:href="#DejaVuSans-63"/>
       <use xlink:href="#DejaVuSans-6f" x="54.980469"/>
       <use xlink:href="#DejaVuSans-6e" x="116.162109"/>
       <use xlink:href="#DejaVuSans-64" x="179.541016"/>
       <use xlink:href="#DejaVuSans-65" x="243.017578"/>
       <use xlink:href="#DejaVuSans-6e" x="304.541016"/>
       <use xlink:href="#DejaVuSans-73" x="367.919922"/>
       <use xlink:href="#DejaVuSans-65" x="420.019531"/>
       <use xlink:href="#DejaVuSans-72" x="481.542969"/>
      </g>
     </g>
    </g>
    <g id="ytick_15">
     <g id="line2d_33">
      <g>
       <use xlink:href="#m75a9f96718" x="72.59375" y="247.554047" style="stroke: #000000; stroke-width: 0.8"/>
      </g>
     </g>
     <g id="text_32">
      <!-- valve -->
      <g transform="translate(38.696875 251.353266)scale(0.1 -0.1)">
       <use xlink:href="#DejaVuSans-76"/>
       <use xlink:href="#DejaVuSans-61" x="59.179688"/>
       <use xlink:href="#DejaVuSans-6c" x="120.458984"/>
       <use xlink:href="#DejaVuSans-76" x="148.242188"/>
       <use xlink:href="#DejaVuSans-65" x="207.421875"/>
      </g>
     </g>
    </g>
    <g id="ytick_16">
     <g id="line2d_34">
      <g>
       <use xlink:href="#m75a9f96718" x="72.59375" y="266.223213" style="stroke: #000000; stroke-width: 0.8"/>
      </g>
     </g>
     <g id="text_33">
      <!-- evaporator -->
      <g transform="translate(10.5375 270.022432)scale(0.1 -0.1)">
       <use xlink:href="#DejaVuSans-65"/>
       <use xlink:href="#DejaVuSans-76" x="61.523438"/>
       <use xlink:href="#DejaVuSans-61" x="120.703125"/>
       <use xlink:href="#DejaVuSans-70" x="181.982422"/>
       <use xlink:href="#DejaVuSans-6f" x="245.458984"/>
       <use xlink:href="#DejaVuSans-72" x="306.640625"/>
       <use xlink:href="#DejaVuSans-61" x="347.753906"/>
       <use xlink:href="#DejaVuSans-74" x="409.033203"/>
       <use xlink:href="#DejaVuSans-6f" x="448.242188"/>
       <use xlink:href="#DejaVuSans-72" x="509.423828"/>
      </g>
     </g>
    </g>
    <g id="ytick_17">
     <g id="line2d_35">
      <g>
       <use xlink:href="#m75a9f96718" x="72.59375" y="284.892379" style="stroke: #000000; stroke-width: 0.8"/>
      </g>
     </g>
     <g id="text_34">
      <!-- compressor -->
      <g transform="translate(7.2 288.691598)scale(0.1 -0.1)">
       <use xlink:href="#DejaVuSans-63"/>
       <use xlink:href="#DejaVuSans-6f" x="54.980469"/>
       <use xlink:href="#DejaVuSans-6d" x="116.162109"/>
       <use xlink:href="#DejaVuSans-70" x="213.574219"/>
       <use xlink:href="#DejaVuSans-72" x="277.050781"/>
       <use xlink:href="#DejaVuSans-65" x="315.914062"/>
       <use xlink:href="#DejaVuSans-73" x="377.4375"/>
       <use xlink:href="#DejaVuSans-73" x="429.537109"/>
       <use xlink:href="#DejaVuSans-6f" x="481.636719"/>
       <use xlink:href="#DejaVuSans-72" x="542.818359"/>
      </g>
     </g>
    </g>
    <g id="ytick_18">
     <g id="line2d_36">
      <g>
       <use xlink:href="#m75a9f96718" x="72.59375" y="303.561545" style="stroke: #000000; stroke-width: 0.8"/>
      </g>
     </g>
     <g id="text_35">
      <!-- E_P -->
      <g transform="translate(48.245312 307.221702)scale(0.1 -0.1)">
       <use xlink:href="#DejaVuSans-45"/>
       <use xlink:href="#DejaVuSans-5f" x="63.183594"/>
       <use xlink:href="#DejaVuSans-50" x="113.183594"/>
      </g>
     </g>
    </g>
   </g>
   <g id="patch_49">
    <path d="M 72.59375 316.44327 
L 72.59375 197.33399 
" style="fill: none; stroke: #000000; stroke-width: 0.8; stroke-linejoin: miter; stroke-linecap: square"/>
   </g>
   <g id="patch_50">
    <path d="M 247.595614 316.44327 
L 247.595614 197.33399 
" style="fill: none; stroke: #000000; stroke-width: 0.8; stroke-linejoin: miter; stroke-linecap: square"/>
   </g>
   <g id="patch_51">
    <path d="M 72.59375 316.44327 
L 247.595614 316.44327 
" style="fill: none; stroke: #000000; stroke-width: 0.8; stroke-linejoin: miter; stroke-linecap: square"/>
   </g>
   <g id="patch_52">
    <path d="M 72.59375 197.33399 
L 247.595614 197.33399 
" style="fill: none; stroke: #000000; stroke-width: 0.8; stroke-linejoin: miter; stroke-linecap: square"/>
   </g>
  </g>
  <g id="axes_4">
   <g id="patch_53">
    <path d="M 274.272656 316.44327 
L 449.27452 316.44327 
L 449.27452 197.33399 
L 274.272656 197.33399 
z
" style="fill: #ffffff"/>
   </g>
   <g id="patch_54">
    <path d="M 274.272656 202.748048 
L 449.27452 202.748048 
L 449.27452 217.683381 
L 274.272656 217.683381 
z
" clip-path="url(#p909af01851)" style="fill: #3a9dce"/>
   </g>
   <g id="patch_55">
    <path d="M 274.272656 221.417214 
L 428.463671 221.417214 
L 428.463671 236.352547 
L 274.272656 236.352547 
z
" clip-path="url(#p909af01851)" style="fill: #f08e2b"/>
   </g>
   <g id="patch_56">
    <path d="M 274.272656 240.08638 
L 402.932396 240.08638 
L 402.932396 255.021713 
L 274.272656 255.021713 
z
" clip-path="url(#p909af01851)" style="fill: #f08e2b"/>
   </g>
   <g id="patch_57">
    <path d="M 274.272656 258.755547 
L 388.51138 258.755547 
L 388.51138 273.69088 
L 274.272656 273.69088 
z
" clip-path="url(#p909af01851)" style="fill: #f08e2b"/>
   </g>
   <g id="patch_58">
    <path d="M 274.272656 277.424713 
L 363.585257 277.424713 
L 363.585257 292.360046 
L 274.272656 292.360046 
z
" clip-path="url(#p909af01851)" style="fill: #f08e2b"/>
   </g>
   <g id="patch_59">
    <path d="M 274.272656 296.093879 
L 363.585257 296.093879 
L 363.585257 311.029212 
L 274.272656 311.029212 
z
" clip-path="url(#p909af01851)" style="fill: #db5252"/>
   </g>
   <g id="patch_60">
    <path d="M 449.27452 202.748048 
L 449.27452 202.748048 
L 449.27452 217.683381 
L 449.27452 217.683381 
z
" clip-path="url(#p909af01851)" style="fill: #6ed880"/>
   </g>
   <g id="patch_61">
    <path d="M 428.463671 221.417214 
L 449.27452 221.417214 
L 449.27452 236.352547 
L 428.463671 236.352547 
z
" clip-path="url(#p909af01851)" style="fill: #6ed880"/>
   </g>
   <g id="patch_62">
    <path d="M 402.932396 240.08638 
L 428.463671 240.08638 
L 428.463671 255.021713 
L 402.932396 255.021713 
z
" clip-path="url(#p909af01851)" style="fill: #6ed880"/>
   </g>
   <g id="patch_63">
    <path d="M 388.51138 258.755547 
L 402.932396 258.755547 
L 402.932396 273.69088 
L 388.51138 273.69088 
z
" clip-path="url(#p909af01851)" style="fill: #6ed880"/>
   </g>
   <g id="patch_64">
    <path d="M 363.585257 277.424713 
L 388.51138 277.424713 
L 388.51138 292.360046 
L 363.585257 292.360046 
z
" clip-path="url(#p909af01851)" style="fill: #6ed880"/>
   </g>
   <g id="patch_65">
    <path d="M 363.585257 296.093879 
L 363.585257 296.093879 
L 363.585257 311.029212 
L 363.585257 311.029212 
z
" clip-path="url(#p909af01851)" style="fill: #6ed880"/>
   </g>
   <g id="matplotlib.axis_7">
    <g id="xtick_19">
     <g id="line2d_37">
      <g>
       <use xlink:href="#mb4fc6a95ca" x="274.272656" y="316.44327" style="stroke: #000000; stroke-width: 0.8"/>
      </g>
     </g>
     <g id="text_36">
      <!-- 0.0 -->
      <g transform="translate(266.321094 331.041707)scale(0.1 -0.1)">
       <use xlink:href="#DejaVuSans-30"/>
       <use xlink:href="#DejaVuSans-2e" x="63.623047"/>
       <use xlink:href="#DejaVuSans-30" x="95.410156"/>
      </g>
     </g>
    </g>
    <g id="xtick_20">
     <g id="line2d_38">
      <g>
       <use xlink:href="#mb4fc6a95ca" x="309.273029" y="316.44327" style="stroke: #000000; stroke-width: 0.8"/>
      </g>
     </g>
     <g id="text_37">
      <!-- 0.2 -->
      <g transform="translate(301.321466 331.041707)scale(0.1 -0.1)">
       <use xlink:href="#DejaVuSans-30"/>
       <use xlink:href="#DejaVuSans-2e" x="63.623047"/>
       <use xlink:href="#DejaVuSans-32" x="95.410156"/>
      </g>
     </g>
    </g>
    <g id="xtick_21">
     <g id="line2d_39">
      <g>
       <use xlink:href="#mb4fc6a95ca" x="344.273402" y="316.44327" style="stroke: #000000; stroke-width: 0.8"/>
      </g>
     </g>
     <g id="text_38">
      <!-- 0.4 -->
      <g transform="translate(336.321839 331.041707)scale(0.1 -0.1)">
       <use xlink:href="#DejaVuSans-30"/>
       <use xlink:href="#DejaVuSans-2e" x="63.623047"/>
       <use xlink:href="#DejaVuSans-34" x="95.410156"/>
      </g>
     </g>
    </g>
    <g id="xtick_22">
     <g id="line2d_40">
      <g>
       <use xlink:href="#mb4fc6a95ca" x="379.273775" y="316.44327" style="stroke: #000000; stroke-width: 0.8"/>
      </g>
     </g>
     <g id="text_39">
      <!-- 0.6 -->
      <g transform="translate(371.322212 331.041707)scale(0.1 -0.1)">
       <use xlink:href="#DejaVuSans-30"/>
       <use xlink:href="#DejaVuSans-2e" x="63.623047"/>
       <use xlink:href="#DejaVuSans-36" x="95.410156"/>
      </g>
     </g>
    </g>
    <g id="xtick_23">
     <g id="line2d_41">
      <g>
       <use xlink:href="#mb4fc6a95ca" x="414.274147" y="316.44327" style="stroke: #000000; stroke-width: 0.8"/>
      </g>
     </g>
     <g id="text_40">
      <!-- 0.8 -->
      <g transform="translate(406.322585 331.041707)scale(0.1 -0.1)">
       <use xlink:href="#DejaVuSans-30"/>
       <use xlink:href="#DejaVuSans-2e" x="63.623047"/>
       <use xlink:href="#DejaVuSans-38" x="95.410156"/>
      </g>
     </g>
    </g>
    <g id="xtick_24">
     <g id="line2d_42">
      <g>
       <use xlink:href="#mb4fc6a95ca" x="449.27452" y="316.44327" style="stroke: #000000; stroke-width: 0.8"/>
      </g>
     </g>
     <g id="text_41">
      <!-- 1.0 -->
      <g transform="translate(441.322957 331.041707)scale(0.1 -0.1)">
       <use xlink:href="#DejaVuSans-31"/>
       <use xlink:href="#DejaVuSans-2e" x="63.623047"/>
       <use xlink:href="#DejaVuSans-30" x="95.410156"/>
      </g>
     </g>
    </g>
    <g id="text_42">
     <!-- $\epsilon$ -->
     <g transform="translate(359.023588 344.719832)scale(0.1 -0.1)">
      <use xlink:href="#DejaVuSans-Oblique-3b5" transform="translate(0 0.9375)"/>
     </g>
    </g>
   </g>
   <g id="matplotlib.axis_8">
    <g id="ytick_19">
     <g id="line2d_43">
      <g>
       <use xlink:href="#m75a9f96718" x="274.272656" y="210.215715" style="stroke: #000000; stroke-width: 0.8"/>
      </g>
     </g>
    </g>
    <g id="ytick_20">
     <g id="line2d_44">
      <g>
       <use xlink:href="#m75a9f96718" x="274.272656" y="228.884881" style="stroke: #000000; stroke-width: 0.8"/>
      </g>
     </g>
    </g>
    <g id="ytick_21">
     <g id="line2d_45">
      <g>
       <use xlink:href="#m75a9f96718" x="274.272656" y="247.554047" style="stroke: #000000; stroke-width: 0.8"/>
      </g>
     </g>
    </g>
    <g id="ytick_22">
     <g id="line2d_46">
      <g>
       <use xlink:href="#m75a9f96718" x="274.272656" y="266.223213" style="stroke: #000000; stroke-width: 0.8"/>
      </g>
     </g>
    </g>
    <g id="ytick_23">
     <g id="line2d_47">
      <g>
       <use xlink:href="#m75a9f96718" x="274.272656" y="284.892379" style="stroke: #000000; stroke-width: 0.8"/>
      </g>
     </g>
    </g>
    <g id="ytick_24">
     <g id="line2d_48">
      <g>
       <use xlink:href="#m75a9f96718" x="274.272656" y="303.561545" style="stroke: #000000; stroke-width: 0.8"/>
      </g>
     </g>
    </g>
   </g>
   <g id="patch_66">
    <path d="M 274.272656 316.44327 
L 274.272656 197.33399 
" style="fill: none; stroke: #000000; stroke-width: 0.8; stroke-linejoin: miter; stroke-linecap: square"/>
   </g>
   <g id="patch_67">
    <path d="M 449.27452 316.44327 
L 449.27452 197.33399 
" style="fill: none; stroke: #000000; stroke-width: 0.8; stroke-linejoin: miter; stroke-linecap: square"/>
   </g>
   <g id="patch_68">
    <path d="M 274.272656 316.44327 
L 449.27452 316.44327 
" style="fill: none; stroke: #000000; stroke-width: 0.8; stroke-linejoin: miter; stroke-linecap: square"/>
   </g>
   <g id="patch_69">
    <path d="M 274.272656 197.33399 
L 449.27452 197.33399 
" style="fill: none; stroke: #000000; stroke-width: 0.8; stroke-linejoin: miter; stroke-linecap: square"/>
   </g>
  </g>
  <g id="text_43">
   <!-- Component Exergy Destruction -->
   <g transform="translate(124.853979 17.837812)scale(0.14 -0.14)">
    <defs>
     <path id="DejaVuSans-43" d="M 4122 4306 
L 4122 3641 
Q 3803 3938 3442 4084 
Q 3081 4231 2675 4231 
Q 1875 4231 1450 3742 
Q 1025 3253 1025 2328 
Q 1025 1406 1450 917 
Q 1875 428 2675 428 
Q 3081 428 3442 575 
Q 3803 722 4122 1019 
L 4122 359 
Q 3791 134 3420 21 
Q 3050 -91 2638 -91 
Q 1578 -91 968 557 
Q 359 1206 359 2328 
Q 359 3453 968 4101 
Q 1578 4750 2638 4750 
Q 3056 4750 3426 4639 
Q 3797 4528 4122 4306 
z
" transform="scale(0.015625)"/>
     <path id="DejaVuSans-44" d="M 1259 4147 
L 1259 519 
L 2022 519 
Q 2988 519 3436 956 
Q 3884 1394 3884 2338 
Q 3884 3275 3436 3711 
Q 2988 4147 2022 4147 
L 1259 4147 
z
M 628 4666 
L 1925 4666 
Q 3281 4666 3915 4102 
Q 4550 3538 4550 2338 
Q 4550 1131 3912 565 
Q 3275 0 1925 0 
L 628 0 
L 628 4666 
z
" transform="scale(0.015625)"/>
     <path id="DejaVuSans-75" d="M 544 1381 
L 544 3500 
L 1119 3500 
L 1119 1403 
Q 1119 906 1312 657 
Q 1506 409 1894 409 
Q 2359 409 2629 706 
Q 2900 1003 2900 1516 
L 2900 3500 
L 3475 3500 
L 3475 0 
L 2900 0 
L 2900 538 
Q 2691 219 2414 64 
Q 2138 -91 1772 -91 
Q 1169 -91 856 284 
Q 544 659 544 1381 
z
M 1991 3584 
L 1991 3584 
z
" transform="scale(0.015625)"/>
    </defs>
    <use xlink:href="#DejaVuSans-43"/>
    <use xlink:href="#DejaVuSans-6f" x="69.824219"/>
    <use xlink:href="#DejaVuSans-6d" x="131.005859"/>
    <use xlink:href="#DejaVuSans-70" x="228.417969"/>
    <use xlink:href="#DejaVuSans-6f" x="291.894531"/>
    <use xlink:href="#DejaVuSans-6e" x="353.076172"/>
    <use xlink:href="#DejaVuSans-65" x="416.455078"/>
    <use xlink:href="#DejaVuSans-6e" x="477.978516"/>
    <use xlink:href="#DejaVuSans-74" x="541.357422"/>
    <use xlink:href="#DejaVuSans-20" x="580.566406"/>
    <use xlink:href="#DejaVuSans-45" x="612.353516"/>
    <use xlink:href="#DejaVuSans-78" x="675.537109"/>
    <use xlink:href="#DejaVuSans-65" x="731.591797"/>
    <use xlink:href="#DejaVuSans-72" x="793.115234"/>
    <use xlink:href="#DejaVuSans-67" x="832.478516"/>
    <use xlink:href="#DejaVuSans-79" x="895.955078"/>
    <use xlink:href="#DejaVuSans-20" x="955.134766"/>
    <use xlink:href="#DejaVuSans-44" x="986.921875"/>
    <use xlink:href="#DejaVuSans-65" x="1063.923828"/>
    <use xlink:href="#DejaVuSans-73" x="1125.447266"/>
    <use xlink:href="#DejaVuSans-74" x="1177.546875"/>
    <use xlink:href="#DejaVuSans-72" x="1216.755859"/>
    <use xlink:href="#DejaVuSans-75" x="1257.869141"/>
    <use xlink:href="#DejaVuSans-63" x="1321.248047"/>
    <use xlink:href="#DejaVuSans-74" x="1376.228516"/>
    <use xlink:href="#DejaVuSans-69" x="1415.4375"/>
    <use xlink:href="#DejaVuSans-6f" x="1443.220703"/>
    <use xlink:href="#DejaVuSans-6e" x="1504.402344"/>
   </g>
  </g>
  <g id="legend_1">
   <g id="patch_70">
    <path d="M 222.914385 358.777885 
L 273.933135 358.777885 
Q 275.933135 358.777885 275.933135 356.777885 
L 275.933135 342.821635 
Q 275.933135 340.821635 273.933135 340.821635 
L 222.914385 340.821635 
Q 220.914385 340.821635 220.914385 342.821635 
L 220.914385 356.777885 
Q 220.914385 358.777885 222.914385 358.777885 
z
" style="fill: #ffffff; opacity: 0.8; stroke: #cccccc; stroke-linejoin: miter"/>
   </g>
   <g id="patch_71">
    <path d="M 224.914385 352.420072 
L 244.914385 352.420072 
L 244.914385 345.420072 
L 224.914385 345.420072 
z
" style="fill: #6ed880"/>
   </g>
   <g id="text_44">
    <!-- E_D -->
    <g transform="translate(252.914385 352.420072)scale(0.1 -0.1)">
     <use xlink:href="#DejaVuSans-45"/>
     <use xlink:href="#DejaVuSans-5f" x="63.183594"/>
     <use xlink:href="#DejaVuSans-44" x="113.183594"/>
    </g>
   </g>
  </g>
 </g>
 <defs>
  <clipPath id="p9aec09bc3e">
   <rect x="72.59375" y="41.86798" width="175.001864" height="119.10928"/>
  </clipPath>
  <clipPath id="p39d1779824">
   <rect x="274.272656" y="41.86798" width="175.001864" height="119.10928"/>
  </clipPath>
  <clipPath id="pf4004c995f">
   <rect x="72.59375" y="197.33399" width="175.001864" height="119.10928"/>
  </clipPath>
  <clipPath id="p909af01851">
   <rect x="274.272656" y="197.33399" width="175.001864" height="119.10928"/>
  </clipPath>
 </defs>
</svg>
