<?xml version="1.0" encoding="utf-8" standalone="no"?>
<!DOCTYPE svg PUBLIC "-//W3C//DTD SVG 1.1//EN"
  "http://www.w3.org/Graphics/SVG/1.1/DTD/svg11.dtd">
<svg xmlns:xlink="http://www.w3.org/1999/xlink" width="720pt" height="432pt" viewBox="0 0 720 432" xmlns="http://www.w3.org/2000/svg" version="1.1">
 <metadata>
  <rdf:RDF xmlns:dc="http://purl.org/dc/elements/1.1/" xmlns:cc="http://creativecommons.org/ns#" xmlns:rdf="http://www.w3.org/1999/02/22-rdf-syntax-ns#">
   <cc:Work>
    <dc:type rdf:resource="http://purl.org/dc/dcmitype/StillImage"/>
    <dc:date>2026-05-02T13:32:17.478855</dc:date>
    <dc:format>image/svg+xml</dc:format>
    <dc:creator>
     <cc:Agent>
      <dc:title>Matplotlib v3.10.9, https://matplotlib.org/</dc:title>
     </cc:Agent>
    </dc:creator>
   </cc:Work>
  </rdf:RDF>
 </metadata>
 <defs>
  <style type="text/css">*{stroke-linejoin: round; stroke-linecap: butt}</style>
 </defs>
 <g id="figure_1">
  <g id="patch_1">
   <path d="M 0 432 
L 720 432 
L 720 0 
L 0 0 
z
" style="fill: #ffffff"/>
  </g>
  <g id="axes_1">
   <g id="patch_2">
    <path d="M 49.912685 379.715 
L 709.2 379.715 
L 709.2 19.525702 
L 49.912685 19.525702 
z
" style="fill: #ffffff"/>
   </g>
   <g id="matplotlib.axis_1">
    <g id="xtick_1">
     <g id="line2d_1">
      <defs>
       <path id="mcbb6a4a8d6" d="M 0 0 
L 0 3.5 
" style="stroke: #000000; stroke-width: 0.8"/>
      </defs>
      <g>
       <use xlink:href="#mcbb6a4a8d6" x="123.784563" y="379.715" style="stroke: #000000; stroke-width: 0.8"/>
      </g>
     </g>
     <g id="text_1">
      <!-- 600 -->
      <g transform="translate(114.240813 394.313438) scale(0.1 -0.1)">
       <defs>
        <path id="DejaVuSans-36" d="M 2113 2584 
Q 1688 2584 1439 2293 
Q 1191 2003 1191 1497 
Q 1191 994 1439 701 
Q 1688 409 2113 409 
Q 2538 409 2786 701 
Q 3034 994 3034 1497 
Q 3034 2003 2786 2293 
Q 2538 2584 2113 2584 
z
M 3366 4563 
L 3366 3988 
Q 3128 4100 2886 4159 
Q 2644 4219 2406 4219 
Q 1781 4219 1451 3797 
Q 1122 3375 1075 2522 
Q 1259 2794 1537 2939 
Q 1816 3084 2150 3084 
Q 2853 3084 3261 2657 
Q 3669 2231 3669 1497 
Q 3669 778 3244 343 
Q 2819 -91 2113 -91 
Q 1303 -91 875 529 
Q 447 1150 447 2328 
Q 447 3434 972 4092 
Q 1497 4750 2381 4750 
Q 2619 4750 2861 4703 
Q 3103 4656 3366 4563 
z
" transform="scale(0.015625)"/>
        <path id="DejaVuSans-30" d="M 2034 4250 
Q 1547 4250 1301 3770 
Q 1056 3291 1056 2328 
Q 1056 1369 1301 889 
Q 1547 409 2034 409 
Q 2525 409 2770 889 
Q 3016 1369 3016 2328 
Q 3016 3291 2770 3770 
Q 2525 4250 2034 4250 
z
M 2034 4750 
Q 2819 4750 3233 4129 
Q 3647 3509 3647 2328 
Q 3647 1150 3233 529 
Q 2819 -91 2034 -91 
Q 1250 -91 836 529 
Q 422 1150 422 2328 
Q 422 3509 836 4129 
Q 1250 4750 2034 4750 
z
" transform="scale(0.015625)"/>
       </defs>
       <use xlink:href="#DejaVuSans-36"/>
       <use xlink:href="#DejaVuSans-30" transform="translate(63.623047 0)"/>
       <use xlink:href="#DejaVuSans-30" transform="translate(127.246094 0)"/>
      </g>
     </g>
    </g>
    <g id="xtick_2">
     <g id="line2d_2">
      <g>
       <use xlink:href="#mcbb6a4a8d6" x="208.380464" y="379.715" style="stroke: #000000; stroke-width: 0.8"/>
      </g>
     </g>
     <g id="text_2">
      <!-- 800 -->
      <g transform="translate(198.836714 394.313438) scale(0.1 -0.1)">
       <defs>
        <path id="DejaVuSans-38" d="M 2034 2216 
Q 1584 2216 1326 1975 
Q 1069 1734 1069 1313 
Q 1069 891 1326 650 
Q 1584 409 2034 409 
Q 2484 409 2743 651 
Q 3003 894 3003 1313 
Q 3003 1734 2745 1975 
Q 2488 2216 2034 2216 
z
M 1403 2484 
Q 997 2584 770 2862 
Q 544 3141 544 3541 
Q 544 4100 942 4425 
Q 1341 4750 2034 4750 
Q 2731 4750 3128 4425 
Q 3525 4100 3525 3541 
Q 3525 3141 3298 2862 
Q 3072 2584 2669 2484 
Q 3125 2378 3379 2068 
Q 3634 1759 3634 1313 
Q 3634 634 3220 271 
Q 2806 -91 2034 -91 
Q 1263 -91 848 271 
Q 434 634 434 1313 
Q 434 1759 690 2068 
Q 947 2378 1403 2484 
z
M 1172 3481 
Q 1172 3119 1398 2916 
Q 1625 2713 2034 2713 
Q 2441 2713 2670 2916 
Q 2900 3119 2900 3481 
Q 2900 3844 2670 4047 
Q 2441 4250 2034 4250 
Q 1625 4250 1398 4047 
Q 1172 3844 1172 3481 
z
" transform="scale(0.015625)"/>
       </defs>
       <use xlink:href="#DejaVuSans-38"/>
       <use xlink:href="#DejaVuSans-30" transform="translate(63.623047 0)"/>
       <use xlink:href="#DejaVuSans-30" transform="translate(127.246094 0)"/>
      </g>
     </g>
    </g>
    <g id="xtick_3">
     <g id="line2d_3">
      <g>
       <use xlink:href="#mcbb6a4a8d6" x="292.976365" y="379.715" style="stroke: #000000; stroke-width: 0.8"/>
      </g>
     </g>
     <g id="text_3">
      <!-- 1000 -->
      <g transform="translate(280.251365 394.313438) scale(0.1 -0.1)">
       <defs>
        <path id="DejaVuSans-31" d="M 794 531 
L 1825 531 
L 1825 4091 
L 703 3866 
L 703 4441 
L 1819 4666 
L 2450 4666 
L 2450 531 
L 3481 531 
L 3481 0 
L 794 0 
L 794 531 
z
" transform="scale(0.015625)"/>
       </defs>
       <use xlink:href="#DejaVuSans-31"/>
       <use xlink:href="#DejaVuSans-30" transform="translate(63.623047 0)"/>
       <use xlink:href="#DejaVuSans-30" transform="translate(127.246094 0)"/>
       <use xlink:href="#DejaVuSans-30" transform="translate(190.869141 0)"/>
      </g>
     </g>
    </g>
    <g id="xtick_4">
     <g id="line2d_4">
      <g>
       <use xlink:href="#mcbb6a4a8d6" x="377.572266" y="379.715" style="stroke: #000000; stroke-width: 0.8"/>
      </g>
     </g>
     <g id="text_4">
      <!-- 1200 -->
      <g transform="translate(364.847266 394.313438) scale(0.1 -0.1)">
       <defs>
        <path id="DejaVuSans-32" d="M 1228 531 
L 3431 531 
L 3431 0 
L 469 0 
L 469 531 
Q 828 903 1448 1529 
Q 2069 2156 2228 2338 
Q 2531 2678 2651 2914 
Q 2772 3150 2772 3378 
Q 2772 3750 2511 3984 
Q 2250 4219 1831 4219 
Q 1534 4219 1204 4116 
Q 875 4013 500 3803 
L 500 4441 
Q 881 4594 1212 4672 
Q 1544 4750 1819 4750 
Q 2544 4750 2975 4387 
Q 3406 4025 3406 3419 
Q 3406 3131 3298 2873 
Q 3191 2616 2906 2266 
Q 2828 2175 2409 1742 
Q 1991 1309 1228 531 
z
" transform="scale(0.015625)"/>
       </defs>
       <use xlink:href="#DejaVuSans-31"/>
       <use xlink:href="#DejaVuSans-32" transform="translate(63.623047 0)"/>
       <use xlink:href="#DejaVuSans-30" transform="translate(127.246094 0)"/>
       <use xlink:href="#DejaVuSans-30" transform="translate(190.869141 0)"/>
      </g>
     </g>
    </g>
    <g id="xtick_5">
     <g id="line2d_5">
      <g>
       <use xlink:href="#mcbb6a4a8d6" x="462.168166" y="379.715" style="stroke: #000000; stroke-width: 0.8"/>
      </g>
     </g>
     <g id="text_5">
      <!-- 1400 -->
      <g transform="translate(449.443166 394.313438) scale(0.1 -0.1)">
       <defs>
        <path id="DejaVuSans-34" d="M 2419 4116 
L 825 1625 
L 2419 1625 
L 2419 4116 
z
M 2253 4666 
L 3047 4666 
L 3047 1625 
L 3713 1625 
L 3713 1100 
L 3047 1100 
L 3047 0 
L 2419 0 
L 2419 1100 
L 313 1100 
L 313 1709 
L 2253 4666 
z
" transform="scale(0.015625)"/>
       </defs>
       <use xlink:href="#DejaVuSans-31"/>
       <use xlink:href="#DejaVuSans-34" transform="translate(63.623047 0)"/>
       <use xlink:href="#DejaVuSans-30" transform="translate(127.246094 0)"/>
       <use xlink:href="#DejaVuSans-30" transform="translate(190.869141 0)"/>
      </g>
     </g>
    </g>
    <g id="xtick_6">
     <g id="line2d_6">
      <g>
       <use xlink:href="#mcbb6a4a8d6" x="546.764067" y="379.715" style="stroke: #000000; stroke-width: 0.8"/>
      </g>
     </g>
     <g id="text_6">
      <!-- 1600 -->
      <g transform="translate(534.039067 394.313438) scale(0.1 -0.1)">
       <use xlink:href="#DejaVuSans-31"/>
       <use xlink:href="#DejaVuSans-36" transform="translate(63.623047 0)"/>
       <use xlink:href="#DejaVuSans-30" transform="translate(127.246094 0)"/>
       <use xlink:href="#DejaVuSans-30" transform="translate(190.869141 0)"/>
      </g>
     </g>
    </g>
    <g id="xtick_7">
     <g id="line2d_7">
      <g>
       <use xlink:href="#mcbb6a4a8d6" x="631.359968" y="379.715" style="stroke: #000000; stroke-width: 0.8"/>
      </g>
     </g>
     <g id="text_7">
      <!-- 1800 -->
      <g transform="translate(618.634968 394.313438) scale(0.1 -0.1)">
       <use xlink:href="#DejaVuSans-31"/>
       <use xlink:href="#DejaVuSans-38" transform="translate(63.623047 0)"/>
       <use xlink:href="#DejaVuSans-30" transform="translate(127.246094 0)"/>
       <use xlink:href="#DejaVuSans-30" transform="translate(190.869141 0)"/>
      </g>
     </g>
    </g>
    <g id="text_8">
     <!-- h in $\frac{\text{kJ}}{\text{kg}}$ -->
     <g transform="translate(363.756342 411.493125) scale(0.1 -0.1)">
      <defs>
       <path id="DejaVuSans-68" d="M 3513 2113 
L 3513 0 
L 2938 0 
L 2938 2094 
Q 2938 2591 2744 2837 
Q 2550 3084 2163 3084 
Q 1697 3084 1428 2787 
Q 1159 2491 1159 1978 
L 1159 0 
L 581 0 
L 581 4863 
L 1159 4863 
L 1159 2956 
Q 1366 3272 1645 3428 
Q 1925 3584 2291 3584 
Q 2894 3584 3203 3211 
Q 3513 2838 3513 2113 
z
" transform="scale(0.015625)"/>
       <path id="DejaVuSans-20" transform="scale(0.015625)"/>
       <path id="DejaVuSans-69" d="M 603 3500 
L 1178 3500 
L 1178 0 
L 603 0 
L 603 3500 
z
M 603 4863 
L 1178 4863 
L 1178 4134 
L 603 4134 
L 603 4863 
z
" transform="scale(0.015625)"/>
       <path id="DejaVuSans-6e" d="M 3513 2113 
L 3513 0 
L 2938 0 
L 2938 2094 
Q 2938 2591 2744 2837 
Q 2550 3084 2163 3084 
Q 1697 3084 1428 2787 
Q 1159 2491 1159 1978 
L 1159 0 
L 581 0 
L 581 3500 
L 1159 3500 
L 1159 2956 
Q 1366 3272 1645 3428 
Q 1925 3584 2291 3584 
Q 2894 3584 3203 3211 
Q 3513 2838 3513 2113 
z
" transform="scale(0.015625)"/>
       <path id="DejaVuSans-6b" d="M 581 4863 
L 1159 4863 
L 1159 1991 
L 2875 3500 
L 3609 3500 
L 1753 1863 
L 3688 0 
L 2938 0 
L 1159 1709 
L 1159 0 
L 581 0 
L 581 4863 
z
" transform="scale(0.015625)"/>
       <path id="DejaVuSans-4a" d="M 628 4666 
L 1259 4666 
L 1259 325 
Q 1259 -519 939 -900 
Q 619 -1281 -91 -1281 
L -331 -1281 
L -331 -750 
L -134 -750 
Q 284 -750 456 -515 
Q 628 -281 628 325 
L 628 4666 
z
" transform="scale(0.015625)"/>
       <path id="DejaVuSans-67" d="M 2906 1791 
Q 2906 2416 2648 2759 
Q 2391 3103 1925 3103 
Q 1463 3103 1205 2759 
Q 947 2416 947 1791 
Q 947 1169 1205 825 
Q 1463 481 1925 481 
Q 2391 481 2648 825 
Q 2906 1169 2906 1791 
z
M 3481 434 
Q 3481 -459 3084 -895 
Q 2688 -1331 1869 -1331 
Q 1566 -1331 1297 -1286 
Q 1028 -1241 775 -1147 
L 775 -588 
Q 1028 -725 1275 -790 
Q 1522 -856 1778 -856 
Q 2344 -856 2625 -561 
Q 2906 -266 2906 331 
L 2906 616 
Q 2728 306 2450 153 
Q 2172 0 1784 0 
Q 1141 0 747 490 
Q 353 981 353 1791 
Q 353 2603 747 3093 
Q 1141 3584 1784 3584 
Q 2172 3584 2450 3431 
Q 2728 3278 2906 2969 
L 2906 3500 
L 3481 3500 
L 3481 434 
z
" transform="scale(0.015625)"/>
      </defs>
      <use xlink:href="#DejaVuSans-68" transform="translate(0 0.003125)"/>
      <use xlink:href="#DejaVuSans-20" transform="translate(63.378906 0.003125)"/>
      <use xlink:href="#DejaVuSans-69" transform="translate(95.166016 0.003125)"/>
      <use xlink:href="#DejaVuSans-6e" transform="translate(122.949219 0.003125)"/>
      <use xlink:href="#DejaVuSans-20" transform="translate(186.328125 0.003125)"/>
      <use xlink:href="#DejaVuSans-6b" transform="translate(230.115234 57.810938) scale(0.7)"/>
      <use xlink:href="#DejaVuSans-4a" transform="translate(270.652344 57.810938) scale(0.7)"/>
      <use xlink:href="#DejaVuSans-6b" transform="translate(218.115234 -40.639062) scale(0.7)"/>
      <use xlink:href="#DejaVuSans-67" transform="translate(258.652344 -40.639062) scale(0.7)"/>
      <path d="M 218.115234 18.8 
L 218.115234 25.05 
L 303.085938 25.05 
L 303.085938 18.8 
L 218.115234 18.8 
z
"/>
     </g>
    </g>
   </g>
   <g id="matplotlib.axis_2">
    <g id="ytick_1">
     <g id="line2d_8">
      <defs>
       <path id="m4faf6b9bf8" d="M 0 0 
L -3.5 0 
" style="stroke: #000000; stroke-width: 0.8"/>
      </defs>
      <g>
       <use xlink:href="#m4faf6b9bf8" x="49.912685" y="280.605933" style="stroke: #000000; stroke-width: 0.8"/>
      </g>
     </g>
     <g id="text_9">
      <!-- $\mathdefault{10^{1}}$ -->
      <g transform="translate(25.312685 284.405151) scale(0.1 -0.1)">
       <use xlink:href="#DejaVuSans-31" transform="translate(0 0.684375)"/>
       <use xlink:href="#DejaVuSans-30" transform="translate(63.623047 0.684375)"/>
       <use xlink:href="#DejaVuSans-31" transform="translate(128.203125 38.965625) scale(0.7)"/>
      </g>
     </g>
    </g>
    <g id="ytick_2">
     <g id="line2d_9">
      <g>
       <use xlink:href="#m4faf6b9bf8" x="49.912685" y="61.692892" style="stroke: #000000; stroke-width: 0.8"/>
      </g>
     </g>
     <g id="text_10">
      <!-- $\mathdefault{10^{2}}$ -->
      <g transform="translate(25.312685 65.492111) scale(0.1 -0.1)">
       <use xlink:href="#DejaVuSans-31" transform="translate(0 0.765625)"/>
       <use xlink:href="#DejaVuSans-30" transform="translate(63.623047 0.765625)"/>
       <use xlink:href="#DejaVuSans-32" transform="translate(128.203125 39.046875) scale(0.7)"/>
      </g>
     </g>
    </g>
    <g id="ytick_3">
     <g id="line2d_10">
      <defs>
       <path id="m4d07facb7d" d="M 0 0 
L -2 0 
" style="stroke: #000000; stroke-width: 0.6"/>
      </defs>
      <g>
       <use xlink:href="#m4d07facb7d" x="49.912685" y="367.72019" style="stroke: #000000; stroke-width: 0.6"/>
      </g>
     </g>
    </g>
    <g id="ytick_4">
     <g id="line2d_11">
      <g>
       <use xlink:href="#m4d07facb7d" x="49.912685" y="346.505324" style="stroke: #000000; stroke-width: 0.6"/>
      </g>
     </g>
    </g>
    <g id="ytick_5">
     <g id="line2d_12">
      <g>
       <use xlink:href="#m4d07facb7d" x="49.912685" y="329.171517" style="stroke: #000000; stroke-width: 0.6"/>
      </g>
     </g>
    </g>
    <g id="ytick_6">
     <g id="line2d_13">
      <g>
       <use xlink:href="#m4d07facb7d" x="49.912685" y="314.515992" style="stroke: #000000; stroke-width: 0.6"/>
      </g>
     </g>
    </g>
    <g id="ytick_7">
     <g id="line2d_14">
      <g>
       <use xlink:href="#m4d07facb7d" x="49.912685" y="301.820798" style="stroke: #000000; stroke-width: 0.6"/>
      </g>
     </g>
    </g>
    <g id="ytick_8">
     <g id="line2d_15">
      <g>
       <use xlink:href="#m4d07facb7d" x="49.912685" y="290.622844" style="stroke: #000000; stroke-width: 0.6"/>
      </g>
     </g>
    </g>
    <g id="ytick_9">
     <g id="line2d_16">
      <g>
       <use xlink:href="#m4d07facb7d" x="49.912685" y="214.706541" style="stroke: #000000; stroke-width: 0.6"/>
      </g>
     </g>
    </g>
    <g id="ytick_10">
     <g id="line2d_17">
      <g>
       <use xlink:href="#m4d07facb7d" x="49.912685" y="176.157868" style="stroke: #000000; stroke-width: 0.6"/>
      </g>
     </g>
    </g>
    <g id="ytick_11">
     <g id="line2d_18">
      <g>
       <use xlink:href="#m4d07facb7d" x="49.912685" y="148.807149" style="stroke: #000000; stroke-width: 0.6"/>
      </g>
     </g>
    </g>
    <g id="ytick_12">
     <g id="line2d_19">
      <g>
       <use xlink:href="#m4d07facb7d" x="49.912685" y="127.592284" style="stroke: #000000; stroke-width: 0.6"/>
      </g>
     </g>
    </g>
    <g id="ytick_13">
     <g id="line2d_20">
      <g>
       <use xlink:href="#m4d07facb7d" x="49.912685" y="110.258477" style="stroke: #000000; stroke-width: 0.6"/>
      </g>
     </g>
    </g>
    <g id="ytick_14">
     <g id="line2d_21">
      <g>
       <use xlink:href="#m4d07facb7d" x="49.912685" y="95.602951" style="stroke: #000000; stroke-width: 0.6"/>
      </g>
     </g>
    </g>
    <g id="ytick_15">
     <g id="line2d_22">
      <g>
       <use xlink:href="#m4d07facb7d" x="49.912685" y="82.907758" style="stroke: #000000; stroke-width: 0.6"/>
      </g>
     </g>
    </g>
    <g id="ytick_16">
     <g id="line2d_23">
      <g>
       <use xlink:href="#m4d07facb7d" x="49.912685" y="71.709804" style="stroke: #000000; stroke-width: 0.6"/>
      </g>
     </g>
    </g>
    <g id="text_11">
     <!-- p in bar -->
     <g transform="translate(19.232997 218.824257) rotate(-90) scale(0.1 -0.1)">
      <defs>
       <path id="DejaVuSans-70" d="M 1159 525 
L 1159 -1331 
L 581 -1331 
L 581 3500 
L 1159 3500 
L 1159 2969 
Q 1341 3281 1617 3432 
Q 1894 3584 2278 3584 
Q 2916 3584 3314 3078 
Q 3713 2572 3713 1747 
Q 3713 922 3314 415 
Q 2916 -91 2278 -91 
Q 1894 -91 1617 61 
Q 1341 213 1159 525 
z
M 3116 1747 
Q 3116 2381 2855 2742 
Q 2594 3103 2138 3103 
Q 1681 3103 1420 2742 
Q 1159 2381 1159 1747 
Q 1159 1113 1420 752 
Q 1681 391 2138 391 
Q 2594 391 2855 752 
Q 3116 1113 3116 1747 
z
" transform="scale(0.015625)"/>
       <path id="DejaVuSans-62" d="M 3116 1747 
Q 3116 2381 2855 2742 
Q 2594 3103 2138 3103 
Q 1681 3103 1420 2742 
Q 1159 2381 1159 1747 
Q 1159 1113 1420 752 
Q 1681 391 2138 391 
Q 2594 391 2855 752 
Q 3116 1113 3116 1747 
z
M 1159 2969 
Q 1341 3281 1617 3432 
Q 1894 3584 2278 3584 
Q 2916 3584 3314 3078 
Q 3713 2572 3713 1747 
Q 3713 922 3314 415 
Q 2916 -91 2278 -91 
Q 1894 -91 1617 61 
Q 1341 213 1159 525 
L 1159 0 
L 581 0 
L 581 4863 
L 1159 4863 
L 1159 2969 
z
" transform="scale(0.015625)"/>
       <path id="DejaVuSans-61" d="M 2194 1759 
Q 1497 1759 1228 1600 
Q 959 1441 959 1056 
Q 959 750 1161 570 
Q 1363 391 1709 391 
Q 2188 391 2477 730 
Q 2766 1069 2766 1631 
L 2766 1759 
L 2194 1759 
z
M 3341 1997 
L 3341 0 
L 2766 0 
L 2766 531 
Q 2569 213 2275 61 
Q 1981 -91 1556 -91 
Q 1019 -91 701 211 
Q 384 513 384 1019 
Q 384 1609 779 1909 
Q 1175 2209 1959 2209 
L 2766 2209 
L 2766 2266 
Q 2766 2663 2505 2880 
Q 2244 3097 1772 3097 
Q 1472 3097 1187 3025 
Q 903 2953 641 2809 
L 641 3341 
Q 956 3463 1253 3523 
Q 1550 3584 1831 3584 
Q 2591 3584 2966 3190 
Q 3341 2797 3341 1997 
z
" transform="scale(0.015625)"/>
       <path id="DejaVuSans-72" d="M 2631 2963 
Q 2534 3019 2420 3045 
Q 2306 3072 2169 3072 
Q 1681 3072 1420 2755 
Q 1159 2438 1159 1844 
L 1159 0 
L 581 0 
L 581 3500 
L 1159 3500 
L 1159 2956 
Q 1341 3275 1631 3429 
Q 1922 3584 2338 3584 
Q 2397 3584 2469 3576 
Q 2541 3569 2628 3553 
L 2631 2963 
z
" transform="scale(0.015625)"/>
      </defs>
      <use xlink:href="#DejaVuSans-70"/>
      <use xlink:href="#DejaVuSans-20" transform="translate(63.476562 0)"/>
      <use xlink:href="#DejaVuSans-69" transform="translate(95.263672 0)"/>
      <use xlink:href="#DejaVuSans-6e" transform="translate(123.046875 0)"/>
      <use xlink:href="#DejaVuSans-20" transform="translate(186.425781 0)"/>
      <use xlink:href="#DejaVuSans-62" transform="translate(218.212891 0)"/>
      <use xlink:href="#DejaVuSans-61" transform="translate(281.689453 0)"/>
      <use xlink:href="#DejaVuSans-72" transform="translate(342.96875 0)"/>
     </g>
    </g>
   </g>
   <g id="line2d_24">
    <path d="M 48.028133 313.557092 
L 50.969512 309.129428 
L 53.952193 304.701764 
L 56.977119 300.2741 
L 60.04526 295.846436 
L 63.157618 291.418772 
L 66.315222 286.991109 
L 69.519136 282.563445 
L 72.770454 278.135781 
L 76.070305 273.708117 
L 79.419854 269.280453 
L 82.8203 264.852789 
L 86.272883 260.425126 
L 89.778878 255.997462 
L 93.339604 251.569798 
L 96.956419 247.142134 
L 100.630728 242.71447 
L 104.363977 238.286806 
L 108.157663 233.859143 
L 112.013328 229.431479 
L 115.932567 225.003815 
L 119.917028 220.576151 
L 123.968413 216.148487 
L 128.088482 211.720823 
L 132.279054 207.29316 
L 136.542013 202.865496 
L 140.879306 198.437832 
L 145.292951 194.010168 
L 149.785037 189.582504 
L 154.357733 185.15484 
L 159.013285 180.727177 
L 163.754028 176.299513 
L 168.582389 171.871849 
L 173.500891 167.444185 
L 178.512165 163.016521 
L 183.618955 158.588857 
L 188.824129 154.161194 
L 194.130691 149.73353 
L 199.541794 145.305866 
L 205.060756 140.878202 
L 210.69108 136.450538 
L 216.436477 132.022874 
L 222.300893 127.59521 
L 228.288546 123.167547 
L 234.403966 118.739883 
L 240.652047 114.312219 
L 247.038117 109.884555 
L 253.568016 105.456891 
L 260.248203 101.029227 
L 267.085889 96.601564 
L 274.089205 92.1739 
L 281.267433 87.746236 
L 288.631313 83.318572 
L 296.1935 78.890908 
L 303.96927 74.463244 
L 311.977757 70.035581 
L 320.244273 65.607917 
L 328.805175 61.180253 
L 337.718742 56.752589 
L 338.098585 56.136841 
L 338.479379 55.521092 
L 338.861161 54.905344 
L 339.243969 54.289596 
L 339.627839 53.673847 
L 340.012809 53.058099 
L 340.398916 52.442351 
L 340.786196 51.826602 
L 341.174686 51.210854 
L 341.564422 50.595105 
L 341.955439 49.979357 
L 342.347773 49.363609 
L 342.741459 48.74786 
L 343.136532 48.132112 
L 343.533026 47.516364 
L 343.930975 46.900615 
L 344.330412 46.284867 
L 344.73137 45.669118 
L 345.133881 45.05337 
L 345.537978 44.437622 
L 345.943691 43.821873 
L 346.351051 43.206125 
L 346.760089 42.590377 
L 347.170833 41.974628 
L 347.583314 41.35888 
L 347.997559 40.743132 
L 348.413597 40.127383 
L 348.831454 39.511635 
L 349.251157 38.895886 
L 349.672733 38.280138 
L 350.096207 37.66439 
L 350.521604 37.048641 
L 350.948948 36.432893 
L 351.378263 35.817145 
L 351.809573 35.201396 
L 352.2429 34.585648 
L 352.678267 33.969899 
L 353.115695 33.354151 
L 353.555206 32.738403 
L 353.996821 32.122654 
L 354.440559 31.506906 
L 354.886441 30.891158 
L 355.334486 30.275409 
L 355.784714 29.659661 
L 356.237143 29.043913 
L 356.691792 28.428164 
L 357.148679 27.812416 
L 357.607821 27.196667 
L 358.069236 26.580919 
L 358.532942 25.965171 
L 358.998955 25.349422 
L 359.467292 24.733674 
L 359.937969 24.117926 
L 360.411003 23.502177 
L 360.886411 22.886429 
L 361.364208 22.270681 
L 361.84441 21.654932 
L 362.327033 21.039184 
L 362.812092 20.423435 
L 363.299604 19.807687 
L 363.789584 19.191939 
" clip-path="url(#p516a4424af)" style="fill: none; stroke-dasharray: 0.5,0.825; stroke-dashoffset: 0; stroke: #363636; stroke-width: 0.5"/>
   </g>
   <g id="line2d_25">
    <path d="M 49.698126 336.491662 
L 56.383782 327.911278 
L 63.319671 319.330893 
L 70.520762 310.750508 
L 78.003109 302.170123 
L 85.783935 293.589739 
L 93.881732 285.009354 
L 102.316356 276.428969 
L 111.109147 267.848584 
L 120.283051 259.2682 
L 129.862756 250.687815 
L 139.874845 242.10743 
L 150.347967 233.527045 
L 161.313024 224.946661 
L 172.803391 216.366276 
L 184.855154 207.785891 
L 197.507402 199.205506 
L 210.802546 190.625122 
L 224.786719 182.044737 
L 239.510237 173.464352 
L 255.028172 164.883967 
L 271.401066 156.303583 
L 288.695831 147.723198 
L 297.71185 143.433005 
L 306.986928 139.142813 
L 316.53181 134.852621 
L 326.357938 130.562428 
L 336.477538 126.272236 
L 346.903725 121.982044 
L 357.650629 117.691851 
L 368.733554 113.401659 
L 380.16918 109.111466 
L 391.975816 104.821274 
L 404.173739 100.531082 
L 416.785621 96.240889 
L 429.837119 91.950697 
L 443.357687 87.660505 
L 457.381751 83.370312 
L 471.950521 79.08012 
L 487.114965 74.789927 
L 502.940953 70.499735 
L 515.162142 64.462868 
L 527.909235 58.426 
L 541.220655 52.389133 
L 553.377604 47.106874 
L 566.054299 41.824615 
L 579.299872 36.542356 
L 593.170919 31.260097 
L 607.731218 25.977838 
L 620.813323 21.450187 
L 627.578542 19.186362 
L 627.578542 19.186362 
" clip-path="url(#p516a4424af)" style="fill: none; stroke-dasharray: 0.5,0.825; stroke-dashoffset: 0; stroke: #363636; stroke-width: 0.5"/>
   </g>
   <g id="line2d_26">
    <path d="M 47.378332 383.151206 
L 50.639525 379.62491 
L 53.963823 376.098614 
L 57.352969 372.572318 
L 60.80876 369.046022 
L 64.333046 365.519726 
L 67.927736 361.99343 
L 71.594796 358.467134 
L 75.336256 354.940838 
L 79.154206 351.414543 
L 83.0508 347.888247 
L 87.028263 344.361951 
L 91.088884 340.835655 
L 95.235026 337.309359 
L 99.469127 333.783063 
L 103.793699 330.256767 
L 108.211332 326.730471 
L 112.724699 323.204175 
L 117.336557 319.677879 
L 122.049747 316.151583 
L 126.867204 312.625287 
L 131.791951 309.098991 
L 136.82711 305.572695 
L 141.9759 302.046399 
L 147.241644 298.520103 
L 152.627769 294.993807 
L 158.137813 291.467511 
L 163.775425 287.941215 
L 169.544373 284.414919 
L 175.448547 280.888623 
L 181.491959 277.362327 
L 187.678754 273.836031 
L 194.013209 270.309735 
L 200.499743 266.783439 
L 207.142916 263.257144 
L 213.947439 259.730848 
L 220.918178 256.204552 
L 228.06016 252.678256 
L 235.378577 249.15196 
L 242.878795 245.625664 
L 250.566359 242.099368 
L 258.447001 238.573072 
L 266.526645 235.046776 
L 274.811417 231.52048 
L 283.307653 227.994184 
L 292.021906 224.467888 
L 300.960956 220.941592 
L 310.131818 217.415296 
L 319.541754 213.889 
L 329.198286 210.362704 
L 339.109199 206.836408 
L 349.282563 203.310112 
L 359.726739 199.783816 
L 370.450398 196.25752 
L 381.462531 192.731224 
L 392.772469 189.204928 
L 404.389899 185.678632 
L 416.324881 182.152336 
L 428.587872 178.62604 
L 441.189744 175.099745 
L 454.141813 171.573449 
L 467.45586 168.047153 
L 481.144164 164.520857 
L 495.21953 160.994561 
L 509.695328 157.468265 
L 524.585532 153.941969 
L 539.904758 150.415673 
L 555.66832 146.889377 
L 559.548141 145.363156 
L 563.477414 143.836935 
L 567.457293 142.310714 
L 571.489039 140.784493 
L 575.574022 139.258272 
L 579.713725 137.732051 
L 583.909742 136.20583 
L 588.163782 134.679609 
L 592.477665 133.153388 
L 596.853323 131.627167 
L 601.292799 130.100946 
L 605.798235 128.574725 
L 610.371875 127.048504 
L 615.016055 125.522283 
L 619.733203 123.996062 
L 624.52583 122.469841 
L 629.396527 120.94362 
L 634.347961 119.417399 
L 639.382865 117.891178 
L 644.504036 116.364957 
L 649.714331 114.838736 
L 655.016658 113.312515 
L 660.41398 111.786294 
L 665.909303 110.260074 
L 671.505681 108.733853 
L 677.206209 107.207632 
L 683.014025 105.681411 
L 688.932305 104.15519 
L 694.964269 102.628969 
L 701.113173 101.102748 
L 707.382319 99.576527 
L 713.775051 98.050306 
" clip-path="url(#p516a4424af)" style="fill: none; stroke-dasharray: 0.5,0.825; stroke-dashoffset: 0; stroke: #363636; stroke-width: 0.5"/>
   </g>
   <g id="line2d_27">
    <path d="M 158.542363 380.334544 
L 163.292843 377.902209 
L 168.129391 375.469873 
L 173.053827 373.037538 
L 178.068007 370.605203 
L 183.17383 368.172867 
L 188.373236 365.740532 
L 193.668207 363.308197 
L 199.060769 360.875862 
L 204.552994 358.443526 
L 210.146997 356.011191 
L 215.84494 353.578856 
L 221.649034 351.14652 
L 227.561538 348.714185 
L 233.58476 346.28185 
L 239.72106 343.849515 
L 245.97285 341.417179 
L 252.342594 338.984844 
L 258.832812 336.552509 
L 265.446078 334.120173 
L 272.185026 331.687838 
L 279.052346 329.255503 
L 286.050788 326.823168 
L 293.183162 324.390832 
L 300.452344 321.958497 
L 307.86127 319.526162 
L 315.412943 317.093826 
L 323.110434 314.661491 
L 330.956881 312.229156 
L 338.955492 309.796821 
L 347.109549 307.364485 
L 355.422404 304.93215 
L 363.897488 302.499815 
L 372.538305 300.067479 
L 381.34844 297.635144 
L 390.33156 295.202809 
L 399.491412 292.770474 
L 408.831828 290.338138 
L 418.356729 287.905803 
L 428.070121 285.473468 
L 437.976105 283.041132 
L 448.078871 280.608797 
L 458.382707 278.176462 
L 468.891998 275.744127 
L 479.611229 273.311791 
L 490.544988 270.879456 
L 501.697968 268.447121 
L 513.074969 266.014785 
L 524.680903 263.58245 
L 536.520794 261.150115 
L 548.599783 258.71778 
L 560.923129 256.285444 
L 567.85375 253.654213 
L 574.950476 251.022981 
L 582.222001 248.391749 
L 589.678413 245.760517 
L 597.331148 243.129286 
L 605.192885 240.498054 
L 613.277413 237.866822 
L 621.599476 235.23559 
L 630.174606 232.604359 
L 639.018972 229.973127 
L 648.149238 227.341895 
L 657.582458 224.710663 
L 667.335996 222.079432 
L 677.427474 219.4482 
L 687.87476 216.816968 
L 698.695969 214.185736 
L 709.909501 211.554505 
" clip-path="url(#p516a4424af)" style="fill: none; stroke-dasharray: 0.5,0.825; stroke-dashoffset: 0; stroke: #363636; stroke-width: 0.5"/>
   </g>
   <g id="line2d_28">
    <path d="M 466.38813 380.821659 
L 472.884263 379.472826 
L 479.454706 378.123993 
L 486.100356 376.77516 
L 492.82212 375.426327 
L 499.620918 374.077494 
L 506.49768 372.728661 
L 513.453348 371.379828 
L 520.488875 370.030995 
L 527.605225 368.682162 
L 534.803377 367.333328 
L 542.084317 365.984495 
L 549.449047 364.635662 
L 558.6466 360.909984 
L 568.191399 357.184305 
L 578.108603 353.458627 
L 588.427611 349.732949 
L 599.181908 346.00727 
L 610.408614 342.281592 
L 622.147866 338.555913 
L 634.442179 334.830235 
L 647.335914 331.104557 
L 660.87491 327.378878 
L 675.106315 323.6532 
L 690.078588 319.927521 
L 705.841658 316.201843 
L 721 312.800862 
" clip-path="url(#p516a4424af)" style="fill: none; stroke-dasharray: 0.5,0.825; stroke-dashoffset: 0; stroke: #363636; stroke-width: 0.5"/>
   </g>
   <g id="line2d_29">
    <path d="M 553.271556 380.67959 
L 553.059136 379.281479 
L 552.843027 377.883369 
L 552.623153 376.485259 
L 552.399439 375.087148 
L 552.171806 373.689038 
L 551.940175 372.290928 
L 551.704462 370.892817 
L 551.464583 369.494707 
L 551.220452 368.096596 
L 550.971978 366.698486 
L 550.719072 365.300376 
L 550.461639 363.902265 
L 550.199581 362.504155 
L 549.932801 361.106044 
L 549.914477 361.010924 
L 532.124337 361.010924 
L 514.334197 361.010924 
L 496.544057 361.010924 
L 478.753916 361.010924 
L 460.963776 361.010924 
L 443.173636 361.010924 
L 425.383496 361.010924 
L 407.593356 361.010924 
L 389.803216 361.010924 
L 372.013076 361.010924 
L 354.222936 361.010924 
L 336.432796 361.010924 
L 318.642656 361.010924 
L 300.852516 361.010924 
L 283.062376 361.010924 
L 265.272236 361.010924 
L 247.482096 361.010924 
L 229.691956 361.010924 
L 211.901816 361.010924 
L 194.111675 361.010924 
L 176.321535 361.010924 
L 158.531395 361.010924 
L 140.741255 361.010924 
L 122.951115 361.010924 
L 105.160975 361.010924 
L 87.370835 361.010924 
L 69.580695 361.010924 
L 51.790555 361.010924 
L 34.000415 361.010924 
" clip-path="url(#p516a4424af)" style="fill: none; stroke-dasharray: 1.85,0.8; stroke-dashoffset: 0; stroke: #363636; stroke-width: 0.5"/>
   </g>
   <g id="line2d_30">
    <path d="M 584.252158 381.608467 
L 582.807396 367.459206 
L 581.407818 355.668156 
L 579.798922 343.877105 
L 577.94481 332.086054 
L 576.2559 322.653214 
L 574.35531 313.220374 
L 572.210864 303.787533 
L 569.783721 294.354693 
L 567.749655 287.280062 
L 565.505927 280.205432 
L 563.023807 273.130802 
L 560.229596 265.961051 
L 76.092613 265.961051 
L 76.092778 265.866026 
L 76.351203 178.489621 
L 76.720043 122.886454 
L 77.188147 83.169906 
L 77.776687 51.396668 
L 78.410344 27.566739 
L 78.81122 15.651775 
L 78.81122 15.651775 
" clip-path="url(#p516a4424af)" style="fill: none; stroke-dasharray: 1.85,0.8; stroke-dashoffset: 0; stroke: #363636; stroke-width: 0.5"/>
   </g>
   <g id="line2d_31">
    <path d="M 613.515259 380.456345 
L 612.368956 364.79021 
L 611.003071 349.124074 
L 609.722026 336.591166 
L 608.243298 324.058258 
L 606.533088 311.52535 
L 604.550597 298.992442 
L 602.855534 289.59276 
L 600.954465 280.193079 
L 598.817776 270.793398 
L 596.410213 261.393717 
L 593.689348 251.994036 
L 591.676296 245.727582 
L 589.483033 239.461128 
L 587.088378 233.194674 
L 584.467481 226.928219 
L 581.590859 220.661765 
L 578.423089 214.395311 
L 574.920958 208.128857 
L 571.030788 201.862403 
L 566.68442 195.595949 
L 564.31342 192.462722 
L 561.713882 189.234375 
L 139.66553 189.139349 
L 139.110261 24.226714 
L 139.141869 18.540071 
L 139.141869 18.540071 
" clip-path="url(#p516a4424af)" style="fill: none; stroke-dasharray: 1.85,0.8; stroke-dashoffset: 0; stroke: #363636; stroke-width: 0.5"/>
   </g>
   <g id="line2d_32">
    <path d="M 642.655608 382.401671 
L 641.613699 363.511783 
L 640.332768 344.621896 
L 639.09758 329.509986 
L 637.636172 314.398076 
L 635.904021 299.286166 
L 634.394826 287.952233 
L 632.675182 276.618301 
L 630.712385 265.284368 
L 628.46752 253.950436 
L 626.791552 246.394481 
L 624.953473 238.838526 
L 622.934775 231.282571 
L 620.714167 223.726616 
L 618.266979 216.170661 
L 615.564396 208.614706 
L 612.572435 201.058751 
L 609.25057 193.502796 
L 605.549835 185.946841 
L 601.410125 178.390886 
L 599.15289 174.612909 
L 596.756245 170.834931 
L 594.207451 167.056954 
L 591.491898 163.278976 
L 588.592687 159.500999 
L 585.490083 155.723021 
L 582.160774 151.945044 
L 578.576874 148.167066 
L 574.704512 144.389089 
L 570.50182 140.611111 
L 565.915916 136.833134 
L 560.878246 133.055156 
L 555.296992 129.277179 
L 548.876335 125.404081 
L 210.205749 125.309056 
L 208.418406 92.930167 
L 205.5348 45.314154 
L 203.94308 18.649187 
L 203.94308 18.649187 
" clip-path="url(#p516a4424af)" style="fill: none; stroke-dasharray: 1.85,0.8; stroke-dashoffset: 0; stroke: #363636; stroke-width: 0.5"/>
   </g>
   <g id="line2d_33">
    <path d="M 671.882933 382.558106 
L 670.920857 360.898686 
L 669.705346 339.239266 
L 668.504555 321.91173 
L 667.053004 304.584194 
L 665.767052 291.588542 
L 664.281157 278.59289 
L 662.562022 265.597238 
L 660.570005 252.601586 
L 659.067309 243.937818 
L 657.406003 235.27405 
L 655.567397 226.610282 
L 653.530117 217.946515 
L 651.269588 209.282747 
L 648.757379 200.618979 
L 645.960375 191.955211 
L 642.839684 183.291443 
L 639.349192 174.627675 
L 635.433606 165.963907 
L 633.295965 161.632023 
L 631.025731 157.300139 
L 628.612008 152.968255 
L 626.042578 148.636371 
L 623.303658 144.304487 
L 620.379608 139.972603 
L 617.252547 135.640719 
L 613.901875 131.308835 
L 610.303638 126.976951 
L 606.429696 122.645067 
L 602.246589 118.313183 
L 597.713979 113.981299 
L 592.782435 109.649415 
L 587.390183 105.317531 
L 581.458191 100.985647 
L 574.882345 96.653763 
L 567.520341 92.321879 
L 559.16806 87.989995 
L 549.51275 83.658111 
L 538.026808 79.326227 
L 523.669383 74.994343 
L 503.05472 70.567339 
L 299.885821 70.472314 
L 297.662316 67.17766 
L 295.696068 63.883007 
L 293.36264 59.490136 
L 291.27387 55.097264 
L 288.91961 49.606175 
L 286.379263 43.016868 
L 284.077216 36.427561 
L 281.627291 28.740036 
L 279.077065 19.954293 
L 278.774522 18.856075 
L 278.774522 18.856075 
" clip-path="url(#p516a4424af)" style="fill: none; stroke-dasharray: 1.85,0.8; stroke-dashoffset: 0; stroke: #363636; stroke-width: 0.5"/>
   </g>
   <g id="line2d_34">
    <path d="M 701.460103 379.899585 
L 701.28203 374.698742 
L 701.093785 369.497899 
L 700.894779 364.297056 
L 700.684386 359.096213 
L 700.461942 353.89537 
L 700.226742 348.694527 
L 699.978042 343.493684 
L 699.715047 338.292841 
L 699.436918 333.091998 
L 699.142762 327.891155 
L 698.831632 322.690312 
L 698.502521 317.489469 
L 698.154358 312.288626 
L 697.786009 307.087783 
L 697.396262 301.88694 
L 696.983832 296.686097 
L 696.547351 291.485254 
L 696.08536 286.284411 
L 695.596308 281.083568 
L 695.078539 275.882725 
L 694.530289 270.681882 
L 693.949675 265.481039 
L 693.334687 260.280197 
L 692.683176 255.079354 
L 691.992846 249.878511 
L 691.261239 244.677668 
L 690.485724 239.476825 
L 689.663478 234.275982 
L 688.791477 229.075139 
L 687.866468 223.874296 
L 686.884958 218.673453 
L 685.843184 213.47261 
L 684.737091 208.271767 
L 683.562304 203.070924 
L 682.314094 197.870081 
L 680.98734 192.669238 
L 679.576489 187.468395 
L 678.075511 182.267552 
L 676.477839 177.066709 
L 674.776309 171.865866 
L 672.963086 166.665023 
L 671.029581 161.46418 
L 668.966349 156.263337 
L 666.762974 151.062494 
L 664.407926 145.861651 
L 661.888399 140.660808 
L 659.19011 135.459965 
L 656.29705 130.259122 
L 653.191193 125.058279 
L 649.852119 119.857437 
L 646.256557 114.656594 
L 642.37779 109.455751 
L 638.184905 104.254908 
L 633.641804 99.054065 
L 628.705895 93.853222 
L 623.326319 88.652379 
L 617.441507 83.451536 
L 614.996317 81.425339 
L 612.510546 79.44035 
L 609.984578 77.496558 
L 607.418825 75.593924 
L 604.813728 73.732389 
L 602.169758 71.91187 
L 599.487412 70.132258 
L 596.767214 68.393424 
L 594.009713 66.695213 
L 591.21548 65.03745 
L 588.385112 63.419934 
L 585.519225 61.842442 
L 582.618459 60.30473 
L 579.683468 58.806528 
L 576.714931 57.347545 
L 573.71354 55.927463 
L 570.680005 54.545944 
L 567.61505 53.202624 
L 564.519415 51.897113 
L 561.393853 50.628997 
L 558.239129 49.397834 
L 555.05602 48.203157 
L 551.845314 47.044467 
L 548.607808 45.92124 
L 545.344308 44.832917 
L 542.055629 43.778911 
L 538.742594 42.758598 
L 535.406031 41.771323 
L 532.046775 40.816391 
L 528.665665 39.893072 
L 525.263544 39.000594 
L 521.84126 38.138147 
L 518.399661 37.304875 
L 514.939597 36.499882 
L 511.461918 35.722225 
L 507.967473 34.970914 
L 504.45711 34.244912 
L 500.931672 33.543136 
L 497.392 32.86445 
L 493.838928 32.207669 
L 491.267643 31.746731 
L 488.630601 31.285792 
L 485.926653 30.824853 
L 483.155048 30.363914 
L 480.315555 29.902975 
L 477.408599 29.442036 
L 474.435421 28.981098 
L 471.398257 28.520159 
L 468.300523 28.05922 
L 465.147016 27.598281 
L 461.944104 27.137342 
L 458.699881 26.676403 
L 455.424284 26.215464 
L 452.129112 25.754526 
L 448.827932 25.293587 
L 445.53583 24.832648 
L 442.268988 24.371709 
L 439.04409 23.91077 
L 435.877603 23.449831 
L 432.784987 22.988893 
L 429.779958 22.527954 
L 426.873885 22.067015 
L 424.075409 21.606076 
L 421.390308 21.145137 
L 418.821608 20.684198 
L 416.369871 20.223259 
L 414.033599 19.762321 
L 411.809686 19.301382 
" clip-path="url(#p516a4424af)" style="fill: none; stroke-dasharray: 1.85,0.8; stroke-dashoffset: 0; stroke: #363636; stroke-width: 0.5"/>
   </g>
   <g id="line2d_35">
    <path d="M 709.757209 171.865866 
L 708.300346 166.665023 
L 706.752023 161.46418 
L 705.105817 156.263337 
L 703.354764 151.062494 
L 701.491292 145.861651 
L 699.507154 140.660808 
L 697.393353 135.459965 
L 695.140047 130.259122 
L 692.736444 125.058279 
L 690.17068 119.857437 
L 687.429677 114.656594 
L 684.49897 109.455751 
L 681.362509 104.254908 
L 678.00242 99.054065 
L 674.398721 93.853222 
L 670.528979 88.652379 
L 666.367889 83.451536 
L 665.053692 81.885546 
L 663.722394 80.334231 
L 662.374011 78.797625 
L 661.008563 77.27576 
L 659.626079 75.768664 
L 658.226593 74.276359 
L 656.810144 72.798865 
L 655.376776 71.336195 
L 653.926543 69.888359 
L 652.459499 68.455364 
L 650.975709 67.03721 
L 649.475241 65.633894 
L 647.958168 64.245407 
L 646.424572 62.871739 
L 644.874536 61.512872 
L 643.308151 60.168784 
L 641.725514 58.83945 
L 640.126726 57.52484 
L 638.511894 56.224918 
L 636.88113 54.939646 
L 635.23455 53.668978 
L 633.572276 52.412865 
L 631.894435 51.171256 
L 630.201158 49.94409 
L 628.492583 48.731306 
L 626.768849 47.532836 
L 625.030102 46.348607 
L 623.276492 45.178543 
L 621.508173 44.02256 
L 619.725304 42.880572 
L 617.928047 41.752487 
L 616.116568 40.638209 
L 614.291039 39.537635 
L 612.451633 38.450658 
L 610.59853 37.377165 
L 608.73191 36.31704 
L 606.851959 35.270159 
L 604.958867 34.236394 
L 603.052826 33.21561 
L 601.134032 32.207669 
L 600.244136 31.746731 
L 599.346321 31.285792 
L 598.440498 30.824853 
L 597.526574 30.363914 
L 596.604458 29.902975 
L 595.674057 29.442036 
L 594.735278 28.981098 
L 593.788028 28.520159 
L 592.832215 28.05922 
L 591.867743 27.598281 
L 590.89452 27.137342 
L 589.912451 26.676403 
L 588.921443 26.215464 
L 587.921403 25.754526 
L 586.912238 25.293587 
L 585.893856 24.832648 
L 584.866165 24.371709 
L 583.829074 23.91077 
L 582.782493 23.449831 
L 581.726335 22.988893 
L 580.660513 22.527954 
L 579.584942 22.067015 
L 578.499538 21.606076 
L 577.404221 21.145137 
L 576.298913 20.684198 
L 575.183539 20.223259 
L 574.058026 19.762321 
L 572.922307 19.301382 
" clip-path="url(#p516a4424af)" style="fill: none; stroke-dasharray: 1.85,0.8; stroke-dashoffset: 0; stroke: #363636; stroke-width: 0.5"/>
   </g>
   <g id="line2d_36">
    <path d="M 712.413013 88.652379 
L 709.169754 83.451536 
L 708.217967 81.988205 
L 707.254337 80.533991 
L 706.278837 79.088932 
L 705.291444 77.653063 
L 704.292135 76.226418 
L 703.280893 74.809029 
L 702.257702 73.400925 
L 701.22255 72.002133 
L 700.175427 70.61268 
L 699.116328 69.232589 
L 698.045248 67.861882 
L 696.962188 66.500577 
L 695.867151 65.148692 
L 694.760142 63.806241 
L 693.641169 62.473238 
L 692.510246 61.149693 
L 691.367387 59.835614 
L 690.212611 58.531007 
L 689.045938 57.235875 
L 687.867393 55.95022 
L 686.677003 54.674041 
L 685.4748 53.407334 
L 684.260815 52.150093 
L 683.035087 50.90231 
L 681.797655 49.663974 
L 680.54856 48.435073 
L 679.28785 47.21559 
L 678.015572 46.005507 
L 676.731779 44.804805 
L 675.436524 43.613458 
L 674.129866 42.431443 
L 672.811865 41.25873 
L 671.482584 40.095289 
L 670.142089 38.941087 
L 668.79045 37.796086 
L 667.427738 36.660249 
L 666.054027 35.533534 
L 664.669396 34.415898 
L 663.273924 33.307293 
L 661.867694 32.207669 
L 661.271603 31.746731 
L 660.671552 31.285792 
L 660.067515 30.824853 
L 659.45946 30.363914 
L 658.847359 29.902975 
L 658.231183 29.442036 
L 657.610903 28.981098 
L 656.986488 28.520159 
L 656.357909 28.05922 
L 655.725137 27.598281 
L 655.088141 27.137342 
L 654.446893 26.676403 
L 653.801362 26.215464 
L 653.151518 25.754526 
L 652.497333 25.293587 
L 651.838775 24.832648 
L 651.175815 24.371709 
L 650.508424 23.91077 
L 649.836572 23.449831 
L 649.160228 22.988893 
L 648.479364 22.527954 
L 647.793951 22.067015 
L 647.103958 21.606076 
L 646.409356 21.145137 
L 645.710118 20.684198 
L 645.006213 20.223259 
L 644.297613 19.762321 
L 643.584289 19.301382 
" clip-path="url(#p516a4424af)" style="fill: none; stroke-dasharray: 1.85,0.8; stroke-dashoffset: 0; stroke: #363636; stroke-width: 0.5"/>
   </g>
   <g id="line2d_37">
    <path d="M 48.632667 306.321965 
L 56.34086 294.483853 
L 64.098131 282.980179 
L 71.908064 271.795661 
L 79.774551 260.915846 
L 87.701822 250.327055 
L 95.69449 240.016333 
L 103.75759 229.971397 
L 111.896648 220.180594 
L 120.117754 210.632852 
L 128.427657 201.317643 
L 136.833888 192.224942 
L 145.344913 183.345182 
L 153.970329 174.669224 
L 162.721117 166.188315 
L 171.60997 157.894051 
L 180.651734 149.778343 
L 189.863984 141.833376 
L 199.267824 134.051572 
L 208.88899 126.425544 
L 218.759422 118.948052 
L 228.919563 111.611946 
L 239.421832 104.410093 
L 250.336078 97.335282 
L 261.758595 90.380091 
L 273.828007 83.536678 
L 286.75598 76.796461 
L 300.89508 70.149512 
L 302.112018 69.614012 
L 303.341458 69.079038 
L 304.583934 68.544582 
L 305.84002 68.010637 
L 307.11033 67.477194 
L 308.395527 66.944245 
L 309.696329 66.411779 
L 311.01351 65.879788 
L 312.347912 65.348263 
L 313.700453 64.817193 
L 315.072133 64.286567 
L 316.464049 63.756376 
L 317.877407 63.226607 
L 319.313535 62.697249 
L 320.773907 62.168289 
L 322.26016 61.639715 
L 323.774126 61.111512 
L 325.317858 60.583667 
L 326.893678 60.056164 
L 328.504218 59.528987 
L 330.152491 59.002119 
L 331.841963 58.475543 
L 333.576654 57.949239 
L 335.361269 57.423187 
L 337.201372 56.897365 
L 339.10361 56.371749 
L 341.076027 55.846314 
L 343.128506 55.321032 
L 345.27339 54.795873 
L 347.52641 54.270805 
L 349.908105 53.745792 
L 352.446087 53.220793 
L 355.178883 52.695765 
L 358.16288 52.170657 
L 361.486148 51.645413 
L 365.299758 51.119968 
L 369.904709 50.594244 
L 376.103036 50.068142 
L 397.791604 49.541477 
" clip-path="url(#p516a4424af)" style="fill: none; stroke: #363636; stroke-width: 0.5; stroke-linecap: square"/>
   </g>
   <g id="line2d_38">
    <path d="M 111.946791 385.349119 
L 118.299015 371.129408 
L 124.659103 357.356692 
L 131.027812 344.009379 
L 137.406022 331.06711 
L 143.79474 318.510679 
L 150.195101 306.321965 
L 156.608371 294.483853 
L 163.035955 282.980179 
L 169.479402 271.795661 
L 175.940418 260.915846 
L 182.420883 250.327055 
L 188.922865 240.016333 
L 195.448648 229.971397 
L 202.000759 220.180594 
L 208.582007 210.632852 
L 215.195527 201.317643 
L 221.844845 192.224942 
L 228.533947 183.345182 
L 235.267384 174.669224 
L 242.050393 166.188315 
L 248.88907 157.894051 
L 255.790588 149.778343 
L 262.763503 141.833376 
L 269.818161 134.051572 
L 276.967277 126.425544 
L 284.226761 118.948052 
L 291.616914 111.611946 
L 299.164227 104.410093 
L 306.904106 97.335282 
L 314.885277 90.380091 
L 323.177429 83.536678 
L 331.886061 76.796461 
L 341.185402 70.149512 
L 341.973971 69.614012 
L 342.768652 69.079038 
L 343.569707 68.544582 
L 344.377417 68.010637 
L 345.192082 67.477194 
L 346.014027 66.944245 
L 346.843602 66.411779 
L 347.681188 65.879788 
L 348.527196 65.348263 
L 349.382075 64.817193 
L 350.246316 64.286567 
L 351.120456 63.756376 
L 352.005084 63.226607 
L 352.900855 62.697249 
L 353.808489 62.168289 
L 354.728793 61.639715 
L 355.662665 61.111512 
L 356.611116 60.583667 
L 357.57529 60.056164 
L 358.556486 59.528987 
L 359.556191 59.002119 
L 360.576121 58.475543 
L 361.618268 57.949239 
L 362.684969 57.423187 
L 363.778993 56.897365 
L 364.903657 56.371749 
L 366.062986 55.846314 
L 367.261941 55.321032 
L 368.506737 54.795873 
L 369.805331 54.270805 
L 371.168156 53.745792 
L 372.609314 53.220793 
L 374.148606 52.695765 
L 375.815223 52.170657 
L 377.655166 51.645413 
L 379.74819 51.119968 
L 382.255305 50.594244 
L 385.612647 50.068142 
L 397.791604 49.541477 
" clip-path="url(#p516a4424af)" style="fill: none; stroke: #363636; stroke-width: 0.5; stroke-linecap: square"/>
   </g>
   <g id="line2d_39">
    <path d="M 220.645955 385.349119 
L 225.87642 371.129408 
L 231.08952 357.356692 
L 236.284704 344.009379 
L 241.461444 331.06711 
L 246.619222 318.510679 
L 251.757534 306.321965 
L 256.875883 294.483853 
L 261.97378 282.980179 
L 267.05074 271.795661 
L 272.106286 260.915846 
L 277.139944 250.327055 
L 282.15124 240.016333 
L 287.139706 229.971397 
L 292.10487 220.180594 
L 297.046259 210.632852 
L 301.963398 201.317643 
L 306.855802 192.224942 
L 311.722982 183.345182 
L 316.564439 174.669224 
L 321.37967 166.188315 
L 326.168169 157.894051 
L 330.929442 149.778343 
L 335.663022 141.833376 
L 340.368497 134.051572 
L 345.045564 126.425544 
L 349.694099 118.948052 
L 354.314266 111.611946 
L 358.906621 104.410093 
L 363.472134 97.335282 
L 368.011959 90.380091 
L 372.526852 83.536678 
L 377.016141 76.796461 
L 381.475724 70.149512 
L 381.835924 69.614012 
L 382.195846 69.079038 
L 382.55548 68.544582 
L 382.914814 68.010637 
L 383.273834 67.477194 
L 383.632526 66.944245 
L 383.990876 66.411779 
L 384.348866 65.879788 
L 384.70648 65.348263 
L 385.063698 64.817193 
L 385.420499 64.286567 
L 385.776862 63.756376 
L 386.132762 63.226607 
L 386.488175 62.697249 
L 386.843072 62.168289 
L 387.197425 61.639715 
L 387.551204 61.111512 
L 387.904374 60.583667 
L 388.256903 60.056164 
L 388.608754 59.528987 
L 388.959892 59.002119 
L 389.310279 58.475543 
L 389.659882 57.949239 
L 390.008669 57.423187 
L 390.356614 56.897365 
L 390.703704 56.371749 
L 391.049945 55.846314 
L 391.395375 55.321032 
L 391.740084 54.795873 
L 392.084251 54.270805 
L 392.428206 53.745792 
L 392.772542 53.220793 
L 393.118329 52.695765 
L 393.467567 52.170657 
L 393.824185 51.645413 
L 394.196622 51.119968 
L 394.605902 50.594244 
L 395.122258 50.068142 
L 397.791604 49.541477 
" clip-path="url(#p516a4424af)" style="fill: none; stroke: #363636; stroke-width: 0.5; stroke-linecap: square"/>
   </g>
   <g id="line2d_40">
    <path d="M 329.345119 385.349119 
L 333.453825 371.129408 
L 337.519936 357.356692 
L 341.541597 344.009379 
L 345.516866 331.06711 
L 349.443705 318.510679 
L 353.319968 306.321965 
L 357.143395 294.483853 
L 360.911604 282.980179 
L 364.622078 271.795661 
L 368.272154 260.915846 
L 371.859004 250.327055 
L 375.379615 240.016333 
L 378.830764 229.971397 
L 382.20898 220.180594 
L 385.510512 210.632852 
L 388.731268 201.317643 
L 391.866759 192.224942 
L 394.912016 183.345182 
L 397.861494 174.669224 
L 400.708946 166.188315 
L 403.447269 157.894051 
L 406.068297 149.778343 
L 408.562541 141.833376 
L 410.918834 134.051572 
L 413.123852 126.425544 
L 415.161438 118.948052 
L 417.011617 111.611946 
L 418.649016 104.410093 
L 420.040163 97.335282 
L 421.138641 90.380091 
L 421.876274 83.536678 
L 422.146222 76.796461 
L 421.766045 70.149512 
L 421.697877 69.614012 
L 421.62304 69.079038 
L 421.541253 68.544582 
L 421.452211 68.010637 
L 421.355586 67.477194 
L 421.251025 66.944245 
L 421.138149 66.411779 
L 421.016544 65.879788 
L 420.885764 65.348263 
L 420.74532 64.817193 
L 420.594682 64.286567 
L 420.433268 63.756376 
L 420.26044 63.226607 
L 420.075495 62.697249 
L 419.877655 62.168289 
L 419.666058 61.639715 
L 419.439743 61.111512 
L 419.197632 60.583667 
L 418.938515 60.056164 
L 418.661022 59.528987 
L 418.363592 59.002119 
L 418.044438 58.475543 
L 417.701497 57.949239 
L 417.332369 57.423187 
L 416.934235 56.897365 
L 416.503752 56.371749 
L 416.036904 55.846314 
L 415.528809 55.321032 
L 414.97343 54.795873 
L 414.363171 54.270805 
L 413.688257 53.745792 
L 412.935769 53.220793 
L 412.088052 52.695765 
L 411.11991 52.170657 
L 409.993203 51.645413 
L 408.645055 51.119968 
L 406.956499 50.594244 
L 404.631869 50.068142 
L 397.791604 49.541477 
" clip-path="url(#p516a4424af)" style="fill: none; stroke: #363636; stroke-width: 0.5; stroke-linecap: square"/>
   </g>
   <g id="line2d_41">
    <path d="M 438.044283 385.349119 
L 441.031231 371.129408 
L 443.950352 357.356692 
L 446.798489 344.009379 
L 449.572289 331.06711 
L 452.268188 318.510679 
L 454.882401 306.321965 
L 457.410906 294.483853 
L 459.849428 282.980179 
L 462.193416 271.795661 
L 464.438022 260.915846 
L 466.578065 250.327055 
L 468.607991 240.016333 
L 470.521821 229.971397 
L 472.313091 220.180594 
L 473.974764 210.632852 
L 475.499138 201.317643 
L 476.877716 192.224942 
L 478.10105 183.345182 
L 479.158549 174.669224 
L 480.038223 166.188315 
L 480.726368 157.894051 
L 481.207151 149.778343 
L 481.46206 141.833376 
L 481.469171 134.051572 
L 481.202139 126.425544 
L 480.628777 118.948052 
L 479.708968 111.611946 
L 478.39141 104.410093 
L 476.608191 97.335282 
L 474.265323 90.380091 
L 471.225696 83.536678 
L 467.276303 76.796461 
L 462.056367 70.149512 
L 461.55983 69.614012 
L 461.050235 69.079038 
L 460.527026 68.544582 
L 459.989607 68.010637 
L 459.437337 67.477194 
L 458.869525 66.944245 
L 458.285423 66.411779 
L 457.684223 65.879788 
L 457.065048 65.348263 
L 456.426942 64.817193 
L 455.768865 64.286567 
L 455.089675 63.756376 
L 454.388118 63.226607 
L 453.662815 62.697249 
L 452.912238 62.168289 
L 452.134691 61.639715 
L 451.328281 61.111512 
L 450.49089 60.583667 
L 449.620128 60.056164 
L 448.71329 59.528987 
L 447.767292 59.002119 
L 446.778596 58.475543 
L 445.743111 57.949239 
L 444.656069 57.423187 
L 443.511856 56.897365 
L 442.303799 56.371749 
L 441.023863 55.846314 
L 439.662243 55.321032 
L 438.206777 54.795873 
L 436.642092 54.270805 
L 434.948307 53.745792 
L 433.098996 53.220793 
L 431.057776 52.695765 
L 428.772254 52.170657 
L 426.162221 51.645413 
L 423.093487 51.119968 
L 419.307096 50.594244 
L 414.141479 50.068142 
L 397.791604 49.541477 
" clip-path="url(#p516a4424af)" style="fill: none; stroke: #363636; stroke-width: 0.5; stroke-linecap: square"/>
   </g>
   <g id="line2d_42">
    <path d="M 546.743446 385.349119 
L 548.608636 371.129408 
L 550.380768 357.356692 
L 552.055382 344.009379 
L 553.627711 331.06711 
L 555.092671 318.510679 
L 556.444835 306.321965 
L 557.678418 294.483853 
L 558.787252 282.980179 
L 559.764754 271.795661 
L 560.60389 260.915846 
L 561.297126 250.327055 
L 561.836366 240.016333 
L 562.212879 229.971397 
L 562.417202 220.180594 
L 562.439017 210.632852 
L 562.267009 201.317643 
L 561.888673 192.224942 
L 561.290085 183.345182 
L 560.455604 174.669224 
L 559.367499 166.188315 
L 558.005467 157.894051 
L 556.346005 149.778343 
L 554.361579 141.833376 
L 552.019508 134.051572 
L 549.280427 126.425544 
L 546.096116 118.948052 
L 542.406319 111.611946 
L 538.133805 104.410093 
L 533.176219 97.335282 
L 527.392006 90.380091 
L 520.575119 83.536678 
L 512.406384 76.796461 
L 502.346688 70.149512 
L 501.421783 69.614012 
L 500.477429 69.079038 
L 499.512799 68.544582 
L 498.527004 68.010637 
L 497.519089 67.477194 
L 496.488024 66.944245 
L 495.432696 66.411779 
L 494.351901 65.879788 
L 493.244332 65.348263 
L 492.108565 64.817193 
L 490.943048 64.286567 
L 489.746081 63.756376 
L 488.515796 63.226607 
L 487.250135 62.697249 
L 485.946821 62.168289 
L 484.603323 61.639715 
L 483.21682 61.111512 
L 481.784148 60.583667 
L 480.30174 60.056164 
L 478.765557 59.528987 
L 477.170992 59.002119 
L 475.512754 58.475543 
L 473.784725 57.949239 
L 471.979768 57.423187 
L 470.089477 56.897365 
L 468.103846 56.371749 
L 466.010822 55.846314 
L 463.795678 55.321032 
L 461.440124 54.795873 
L 458.921012 54.270805 
L 456.208358 53.745792 
L 453.262223 53.220793 
L 450.027499 52.695765 
L 446.424597 52.170657 
L 442.331239 51.645413 
L 437.54192 51.119968 
L 431.657692 50.594244 
L 423.65109 50.068142 
L 397.791604 49.541477 
" clip-path="url(#p516a4424af)" style="fill: none; stroke: #363636; stroke-width: 0.5; stroke-linecap: square"/>
   </g>
   <g id="patch_3">
    <path d="M 49.912685 379.715 
L 49.912685 19.525702 
" style="fill: none; stroke: #000000; stroke-width: 0.8; stroke-linejoin: miter; stroke-linecap: square"/>
   </g>
   <g id="patch_4">
    <path d="M 709.2 379.715 
L 709.2 19.525702 
" style="fill: none; stroke: #000000; stroke-width: 0.8; stroke-linejoin: miter; stroke-linecap: square"/>
   </g>
   <g id="patch_5">
    <path d="M 49.912685 379.715 
L 709.2 379.715 
" style="fill: none; stroke: #000000; stroke-width: 0.8; stroke-linejoin: miter; stroke-linecap: square"/>
   </g>
   <g id="patch_6">
    <path d="M 49.912685 19.525702 
L 709.2 19.525702 
" style="fill: none; stroke: #000000; stroke-width: 0.8; stroke-linejoin: miter; stroke-linecap: square"/>
   </g>
   <g id="text_12">
    <g id="patch_7">
     <path d="M 345.035555 52.819663 
L 356.650499 33.900544 
L 350.131073 29.898097 
L 338.516129 48.817216 
z
" style="fill: #ffffff; stroke: #ffffff; stroke-linejoin: miter"/>
    </g>
    <!-- 0.003 $\frac{\text{m3}}{\text{kg}}$ -->
    <g transform="translate(342.64936 51.354715) rotate(-58.453144) scale(0.05 -0.05)">
     <defs>
      <path id="DejaVuSans-2e" d="M 684 794 
L 1344 794 
L 1344 0 
L 684 0 
L 684 794 
z
" transform="scale(0.015625)"/>
      <path id="DejaVuSans-33" d="M 2597 2516 
Q 3050 2419 3304 2112 
Q 3559 1806 3559 1356 
Q 3559 666 3084 287 
Q 2609 -91 1734 -91 
Q 1441 -91 1130 -33 
Q 819 25 488 141 
L 488 750 
Q 750 597 1062 519 
Q 1375 441 1716 441 
Q 2309 441 2620 675 
Q 2931 909 2931 1356 
Q 2931 1769 2642 2001 
Q 2353 2234 1838 2234 
L 1294 2234 
L 1294 2753 
L 1863 2753 
Q 2328 2753 2575 2939 
Q 2822 3125 2822 3475 
Q 2822 3834 2567 4026 
Q 2313 4219 1838 4219 
Q 1578 4219 1281 4162 
Q 984 4106 628 3988 
L 628 4550 
Q 988 4650 1302 4700 
Q 1616 4750 1894 4750 
Q 2613 4750 3031 4423 
Q 3450 4097 3450 3541 
Q 3450 3153 3228 2886 
Q 3006 2619 2597 2516 
z
" transform="scale(0.015625)"/>
      <path id="DejaVuSans-6d" d="M 3328 2828 
Q 3544 3216 3844 3400 
Q 4144 3584 4550 3584 
Q 5097 3584 5394 3201 
Q 5691 2819 5691 2113 
L 5691 0 
L 5113 0 
L 5113 2094 
Q 5113 2597 4934 2840 
Q 4756 3084 4391 3084 
Q 3944 3084 3684 2787 
Q 3425 2491 3425 1978 
L 3425 0 
L 2847 0 
L 2847 2094 
Q 2847 2600 2669 2842 
Q 2491 3084 2119 3084 
Q 1678 3084 1418 2786 
Q 1159 2488 1159 1978 
L 1159 0 
L 581 0 
L 581 3500 
L 1159 3500 
L 1159 2956 
Q 1356 3278 1631 3431 
Q 1906 3584 2284 3584 
Q 2666 3584 2933 3390 
Q 3200 3197 3328 2828 
z
" transform="scale(0.015625)"/>
     </defs>
     <use xlink:href="#DejaVuSans-30" transform="translate(0 0.254688)"/>
     <use xlink:href="#DejaVuSans-2e" transform="translate(63.623047 0.254688)"/>
     <use xlink:href="#DejaVuSans-30" transform="translate(95.410156 0.254688)"/>
     <use xlink:href="#DejaVuSans-30" transform="translate(159.033203 0.254688)"/>
     <use xlink:href="#DejaVuSans-33" transform="translate(222.65625 0.254688)"/>
     <use xlink:href="#DejaVuSans-20" transform="translate(286.279297 0.254688)"/>
     <use xlink:href="#DejaVuSans-6d" transform="translate(318.066406 45.046875) scale(0.7)"/>
     <use xlink:href="#DejaVuSans-33" transform="translate(386.254883 45.046875) scale(0.7)"/>
     <use xlink:href="#DejaVuSans-6b" transform="translate(332.066406 -40.3875) scale(0.7)"/>
     <use xlink:href="#DejaVuSans-67" transform="translate(372.603516 -40.3875) scale(0.7)"/>
     <path d="M 318.066406 19.051563 
L 318.066406 25.301563 
L 430.791016 25.301563 
L 430.791016 19.051563 
L 318.066406 19.051563 
z
"/>
    </g>
   </g>
   <g id="text_13">
    <g id="patch_8">
     <path d="M 541.16139 56.897111 
L 558.329136 48.756564 
L 555.051494 41.844287 
L 537.883749 49.984835 
z
" style="fill: #ffffff; stroke: #ffffff; stroke-linejoin: miter"/>
    </g>
    <!-- 0.01 $\frac{\text{m3}}{\text{kg}}$ -->
    <g transform="translate(539.961731 54.367127) rotate(-25.369225) scale(0.05 -0.05)">
     <use xlink:href="#DejaVuSans-30" transform="translate(0 0.254688)"/>
     <use xlink:href="#DejaVuSans-2e" transform="translate(63.623047 0.254688)"/>
     <use xlink:href="#DejaVuSans-30" transform="translate(95.410156 0.254688)"/>
     <use xlink:href="#DejaVuSans-31" transform="translate(159.033203 0.254688)"/>
     <use xlink:href="#DejaVuSans-20" transform="translate(222.65625 0.254688)"/>
     <use xlink:href="#DejaVuSans-6d" transform="translate(254.443359 45.046875) scale(0.7)"/>
     <use xlink:href="#DejaVuSans-33" transform="translate(322.631836 45.046875) scale(0.7)"/>
     <use xlink:href="#DejaVuSans-6b" transform="translate(268.443359 -40.3875) scale(0.7)"/>
     <use xlink:href="#DejaVuSans-67" transform="translate(308.980469 -40.3875) scale(0.7)"/>
     <path d="M 254.443359 19.051563 
L 254.443359 25.301563 
L 367.167969 25.301563 
L 367.167969 19.051563 
L 254.443359 19.051563 
z
"/>
    </g>
   </g>
   <g id="text_14">
    <g id="patch_9">
     <path d="M 556.223199 151.065834 
L 573.71686 143.651536 
L 570.731629 136.608035 
L 553.237968 144.022334 
z
" style="fill: #ffffff; stroke: #ffffff; stroke-linejoin: miter"/>
    </g>
    <!-- 0.03 $\frac{\text{m3}}{\text{kg}}$ -->
    <g transform="translate(555.130566 148.487821) rotate(-22.968578) scale(0.05 -0.05)">
     <use xlink:href="#DejaVuSans-30" transform="translate(0 0.254688)"/>
     <use xlink:href="#DejaVuSans-2e" transform="translate(63.623047 0.254688)"/>
     <use xlink:href="#DejaVuSans-30" transform="translate(95.410156 0.254688)"/>
     <use xlink:href="#DejaVuSans-33" transform="translate(159.033203 0.254688)"/>
     <use xlink:href="#DejaVuSans-20" transform="translate(222.65625 0.254688)"/>
     <use xlink:href="#DejaVuSans-6d" transform="translate(254.443359 45.046875) scale(0.7)"/>
     <use xlink:href="#DejaVuSans-33" transform="translate(322.631836 45.046875) scale(0.7)"/>
     <use xlink:href="#DejaVuSans-6b" transform="translate(268.443359 -40.3875) scale(0.7)"/>
     <use xlink:href="#DejaVuSans-67" transform="translate(308.980469 -40.3875) scale(0.7)"/>
     <path d="M 254.443359 19.051563 
L 254.443359 25.301563 
L 367.167969 25.301563 
L 367.167969 19.051563 
L 254.443359 19.051563 
z
"/>
    </g>
   </g>
   <g id="text_15">
    <g id="patch_10">
     <path d="M 506.226158 271.540184 
L 521.661719 267.939358 
L 519.92378 260.489386 
L 504.488219 264.090213 
z
" style="fill: #ffffff; stroke: #ffffff; stroke-linejoin: miter"/>
    </g>
    <!-- 0.1 $\frac{\text{m3}}{\text{kg}}$ -->
    <g transform="translate(505.590049 268.813398) rotate(-13.131192) scale(0.05 -0.05)">
     <use xlink:href="#DejaVuSans-30" transform="translate(0 0.254688)"/>
     <use xlink:href="#DejaVuSans-2e" transform="translate(63.623047 0.254688)"/>
     <use xlink:href="#DejaVuSans-31" transform="translate(95.410156 0.254688)"/>
     <use xlink:href="#DejaVuSans-20" transform="translate(159.033203 0.254688)"/>
     <use xlink:href="#DejaVuSans-6d" transform="translate(190.820312 45.046875) scale(0.7)"/>
     <use xlink:href="#DejaVuSans-33" transform="translate(259.008789 45.046875) scale(0.7)"/>
     <use xlink:href="#DejaVuSans-6b" transform="translate(204.820312 -40.3875) scale(0.7)"/>
     <use xlink:href="#DejaVuSans-67" transform="translate(245.357422 -40.3875) scale(0.7)"/>
     <path d="M 190.820312 19.051563 
L 190.820312 25.301563 
L 303.544922 25.301563 
L 303.544922 19.051563 
L 190.820312 19.051563 
z
"/>
    </g>
   </g>
   <g id="text_16">
    <g id="patch_11">
     <path d="M 593.121366 352.387402 
L 607.947442 346.782942 
L 605.24245 339.627139 
L 590.416374 345.231598 
z
" style="fill: #ffffff; stroke: #ffffff; stroke-linejoin: miter"/>
    </g>
    <!-- 0.3 $\frac{\text{m3}}{\text{kg}}$ -->
    <g transform="translate(592.131303 349.768284) rotate(-20.707279) scale(0.05 -0.05)">
     <use xlink:href="#DejaVuSans-30" transform="translate(0 0.254688)"/>
     <use xlink:href="#DejaVuSans-2e" transform="translate(63.623047 0.254688)"/>
     <use xlink:href="#DejaVuSans-33" transform="translate(95.410156 0.254688)"/>
     <use xlink:href="#DejaVuSans-20" transform="translate(159.033203 0.254688)"/>
     <use xlink:href="#DejaVuSans-6d" transform="translate(190.820312 45.046875) scale(0.7)"/>
     <use xlink:href="#DejaVuSans-33" transform="translate(259.008789 45.046875) scale(0.7)"/>
     <use xlink:href="#DejaVuSans-6b" transform="translate(204.820312 -40.3875) scale(0.7)"/>
     <use xlink:href="#DejaVuSans-67" transform="translate(245.357422 -40.3875) scale(0.7)"/>
     <path d="M 190.820312 19.051563 
L 190.820312 25.301563 
L 303.544922 25.301563 
L 303.544922 19.051563 
L 190.820312 19.051563 
z
"/>
    </g>
   </g>
   <g id="text_17">
    <g id="patch_12">
     <path d="M 76.142319 363.430455 
L 98.599351 363.430455 
L 98.599351 358.591393 
L 76.142319 358.591393 
z
" style="fill: #ffffff; stroke: #ffffff; stroke-linejoin: miter"/>
    </g>
    <!-- 0.0 degC -->
    <g transform="translate(76.142319 362.390612) scale(0.05 -0.05)">
     <defs>
      <path id="DejaVuSans-64" d="M 2906 2969 
L 2906 4863 
L 3481 4863 
L 3481 0 
L 2906 0 
L 2906 525 
Q 2725 213 2448 61 
Q 2172 -91 1784 -91 
Q 1150 -91 751 415 
Q 353 922 353 1747 
Q 353 2572 751 3078 
Q 1150 3584 1784 3584 
Q 2172 3584 2448 3432 
Q 2725 3281 2906 2969 
z
M 947 1747 
Q 947 1113 1208 752 
Q 1469 391 1925 391 
Q 2381 391 2643 752 
Q 2906 1113 2906 1747 
Q 2906 2381 2643 2742 
Q 2381 3103 1925 3103 
Q 1469 3103 1208 2742 
Q 947 2381 947 1747 
z
" transform="scale(0.015625)"/>
      <path id="DejaVuSans-65" d="M 3597 1894 
L 3597 1613 
L 953 1613 
Q 991 1019 1311 708 
Q 1631 397 2203 397 
Q 2534 397 2845 478 
Q 3156 559 3463 722 
L 3463 178 
Q 3153 47 2828 -22 
Q 2503 -91 2169 -91 
Q 1331 -91 842 396 
Q 353 884 353 1716 
Q 353 2575 817 3079 
Q 1281 3584 2069 3584 
Q 2775 3584 3186 3129 
Q 3597 2675 3597 1894 
z
M 3022 2063 
Q 3016 2534 2758 2815 
Q 2500 3097 2075 3097 
Q 1594 3097 1305 2825 
Q 1016 2553 972 2059 
L 3022 2063 
z
" transform="scale(0.015625)"/>
      <path id="DejaVuSans-43" d="M 4122 4306 
L 4122 3641 
Q 3803 3938 3442 4084 
Q 3081 4231 2675 4231 
Q 1875 4231 1450 3742 
Q 1025 3253 1025 2328 
Q 1025 1406 1450 917 
Q 1875 428 2675 428 
Q 3081 428 3442 575 
Q 3803 722 4122 1019 
L 4122 359 
Q 3791 134 3420 21 
Q 3050 -91 2638 -91 
Q 1578 -91 968 557 
Q 359 1206 359 2328 
Q 359 3453 968 4101 
Q 1578 4750 2638 4750 
Q 3056 4750 3426 4639 
Q 3797 4528 4122 4306 
z
" transform="scale(0.015625)"/>
     </defs>
     <use xlink:href="#DejaVuSans-30"/>
     <use xlink:href="#DejaVuSans-2e" transform="translate(63.623047 0)"/>
     <use xlink:href="#DejaVuSans-30" transform="translate(95.410156 0)"/>
     <use xlink:href="#DejaVuSans-20" transform="translate(159.033203 0)"/>
     <use xlink:href="#DejaVuSans-64" transform="translate(190.820312 0)"/>
     <use xlink:href="#DejaVuSans-65" transform="translate(254.296875 0)"/>
     <use xlink:href="#DejaVuSans-67" transform="translate(315.820312 0)"/>
     <use xlink:href="#DejaVuSans-43" transform="translate(379.296875 0)"/>
    </g>
   </g>
   <g id="text_18">
    <g id="patch_13">
     <path d="M 80.015147 60.292732 
L 80.560651 34.660254 
L 75.722684 34.557294 
L 75.17718 60.189771 
z
" style="fill: #ffffff; stroke: #ffffff; stroke-linejoin: miter"/>
    </g>
    <!-- 30.0 degC -->
    <g transform="translate(78.975539 60.270607) rotate(-88.78083) scale(0.05 -0.05)">
     <use xlink:href="#DejaVuSans-33"/>
     <use xlink:href="#DejaVuSans-30" transform="translate(63.623047 0)"/>
     <use xlink:href="#DejaVuSans-2e" transform="translate(127.246094 0)"/>
     <use xlink:href="#DejaVuSans-30" transform="translate(159.033203 0)"/>
     <use xlink:href="#DejaVuSans-20" transform="translate(222.65625 0)"/>
     <use xlink:href="#DejaVuSans-64" transform="translate(254.443359 0)"/>
     <use xlink:href="#DejaVuSans-65" transform="translate(317.919922 0)"/>
     <use xlink:href="#DejaVuSans-67" transform="translate(379.443359 0)"/>
     <use xlink:href="#DejaVuSans-43" transform="translate(442.919922 0)"/>
    </g>
   </g>
   <g id="text_19">
    <g id="patch_14">
     <path d="M 141.483258 54.106486 
L 141.49072 28.468206 
L 136.651658 28.466797 
L 136.644195 54.105077 
z
" style="fill: #ffffff; stroke: #ffffff; stroke-linejoin: miter"/>
    </g>
    <!-- 60.0 degC -->
    <g transform="translate(140.443414 54.106183) rotate(-89.983323) scale(0.05 -0.05)">
     <use xlink:href="#DejaVuSans-36"/>
     <use xlink:href="#DejaVuSans-30" transform="translate(63.623047 0)"/>
     <use xlink:href="#DejaVuSans-2e" transform="translate(127.246094 0)"/>
     <use xlink:href="#DejaVuSans-30" transform="translate(159.033203 0)"/>
     <use xlink:href="#DejaVuSans-20" transform="translate(222.65625 0)"/>
     <use xlink:href="#DejaVuSans-64" transform="translate(254.443359 0)"/>
     <use xlink:href="#DejaVuSans-65" transform="translate(317.919922 0)"/>
     <use xlink:href="#DejaVuSans-67" transform="translate(379.443359 0)"/>
     <use xlink:href="#DejaVuSans-43" transform="translate(442.919922 0)"/>
    </g>
   </g>
   <g id="text_20">
    <g id="patch_15">
     <path d="M 201.716734 21.220234 
L 203.131641 46.819443 
L 207.963329 46.552388 
L 206.548422 20.953179 
z
" style="fill: #ffffff; stroke: #ffffff; stroke-linejoin: miter"/>
    </g>
    <!-- 90.0 degC -->
    <g transform="translate(202.754993 21.162848) rotate(-273.163606) scale(0.05 -0.05)">
     <defs>
      <path id="DejaVuSans-39" d="M 703 97 
L 703 672 
Q 941 559 1184 500 
Q 1428 441 1663 441 
Q 2288 441 2617 861 
Q 2947 1281 2994 2138 
Q 2813 1869 2534 1725 
Q 2256 1581 1919 1581 
Q 1219 1581 811 2004 
Q 403 2428 403 3163 
Q 403 3881 828 4315 
Q 1253 4750 1959 4750 
Q 2769 4750 3195 4129 
Q 3622 3509 3622 2328 
Q 3622 1225 3098 567 
Q 2575 -91 1691 -91 
Q 1453 -91 1209 -44 
Q 966 3 703 97 
z
M 1959 2075 
Q 2384 2075 2632 2365 
Q 2881 2656 2881 3163 
Q 2881 3666 2632 3958 
Q 2384 4250 1959 4250 
Q 1534 4250 1286 3958 
Q 1038 3666 1038 3163 
Q 1038 2656 1286 2365 
Q 1534 2075 1959 2075 
z
" transform="scale(0.015625)"/>
     </defs>
     <use xlink:href="#DejaVuSans-39"/>
     <use xlink:href="#DejaVuSans-30" transform="translate(63.623047 0)"/>
     <use xlink:href="#DejaVuSans-2e" transform="translate(127.246094 0)"/>
     <use xlink:href="#DejaVuSans-30" transform="translate(159.033203 0)"/>
     <use xlink:href="#DejaVuSans-20" transform="translate(222.65625 0)"/>
     <use xlink:href="#DejaVuSans-64" transform="translate(254.443359 0)"/>
     <use xlink:href="#DejaVuSans-65" transform="translate(317.919922 0)"/>
     <use xlink:href="#DejaVuSans-67" transform="translate(379.443359 0)"/>
     <use xlink:href="#DejaVuSans-43" transform="translate(442.919922 0)"/>
    </g>
   </g>
   <g id="text_21">
    <g id="patch_16">
     <path d="M 275.113304 14.402418 
L 282.813627 42.174173 
L 287.476758 40.881219 
L 279.776435 13.109463 
z
" style="fill: #ffffff; stroke: #ffffff; stroke-linejoin: miter"/>
    </g>
    <!-- 120.0 degC -->
    <g transform="translate(276.115343 14.124581) rotate(-285.49719) scale(0.05 -0.05)">
     <use xlink:href="#DejaVuSans-31"/>
     <use xlink:href="#DejaVuSans-32" transform="translate(63.623047 0)"/>
     <use xlink:href="#DejaVuSans-30" transform="translate(127.246094 0)"/>
     <use xlink:href="#DejaVuSans-2e" transform="translate(190.869141 0)"/>
     <use xlink:href="#DejaVuSans-30" transform="translate(222.65625 0)"/>
     <use xlink:href="#DejaVuSans-20" transform="translate(286.279297 0)"/>
     <use xlink:href="#DejaVuSans-64" transform="translate(318.066406 0)"/>
     <use xlink:href="#DejaVuSans-65" transform="translate(381.542969 0)"/>
     <use xlink:href="#DejaVuSans-67" transform="translate(443.066406 0)"/>
     <use xlink:href="#DejaVuSans-43" transform="translate(506.542969 0)"/>
    </g>
   </g>
   <g id="text_22">
    <g id="patch_17">
     <path d="M 415.168476 22.535609 
L 443.592635 27.292974 
L 444.39144 22.520298 
L 415.967281 17.762933 
z
" style="fill: #ffffff; stroke: #ffffff; stroke-linejoin: miter"/>
    </g>
    <!-- 150.0 degC -->
    <g transform="translate(415.340127 21.510031) rotate(-350.498447) scale(0.05 -0.05)">
     <defs>
      <path id="DejaVuSans-35" d="M 691 4666 
L 3169 4666 
L 3169 4134 
L 1269 4134 
L 1269 2991 
Q 1406 3038 1543 3061 
Q 1681 3084 1819 3084 
Q 2600 3084 3056 2656 
Q 3513 2228 3513 1497 
Q 3513 744 3044 326 
Q 2575 -91 1722 -91 
Q 1428 -91 1123 -41 
Q 819 9 494 109 
L 494 744 
Q 775 591 1075 516 
Q 1375 441 1709 441 
Q 2250 441 2565 725 
Q 2881 1009 2881 1497 
Q 2881 1984 2565 2268 
Q 2250 2553 1709 2553 
Q 1456 2553 1204 2497 
Q 953 2441 691 2322 
L 691 4666 
z
" transform="scale(0.015625)"/>
     </defs>
     <use xlink:href="#DejaVuSans-31"/>
     <use xlink:href="#DejaVuSans-35" transform="translate(63.623047 0)"/>
     <use xlink:href="#DejaVuSans-30" transform="translate(127.246094 0)"/>
     <use xlink:href="#DejaVuSans-2e" transform="translate(190.869141 0)"/>
     <use xlink:href="#DejaVuSans-30" transform="translate(222.65625 0)"/>
     <use xlink:href="#DejaVuSans-20" transform="translate(286.279297 0)"/>
     <use xlink:href="#DejaVuSans-64" transform="translate(318.066406 0)"/>
     <use xlink:href="#DejaVuSans-65" transform="translate(381.542969 0)"/>
     <use xlink:href="#DejaVuSans-67" transform="translate(443.066406 0)"/>
     <use xlink:href="#DejaVuSans-43" transform="translate(506.542969 0)"/>
    </g>
   </g>
   <g id="text_23">
    <g id="patch_18">
     <path d="M 564.407972 17.743013 
L 590.556596 29.859731 
L 592.591104 25.469139 
L 566.44248 13.352421 
z
" style="fill: #ffffff; stroke: #ffffff; stroke-linejoin: miter"/>
    </g>
    <!-- 180.0 degC -->
    <g transform="translate(564.845158 16.799539) rotate(-335.137993) scale(0.05 -0.05)">
     <use xlink:href="#DejaVuSans-31"/>
     <use xlink:href="#DejaVuSans-38" transform="translate(63.623047 0)"/>
     <use xlink:href="#DejaVuSans-30" transform="translate(127.246094 0)"/>
     <use xlink:href="#DejaVuSans-2e" transform="translate(190.869141 0)"/>
     <use xlink:href="#DejaVuSans-30" transform="translate(222.65625 0)"/>
     <use xlink:href="#DejaVuSans-20" transform="translate(286.279297 0)"/>
     <use xlink:href="#DejaVuSans-64" transform="translate(318.066406 0)"/>
     <use xlink:href="#DejaVuSans-65" transform="translate(381.542969 0)"/>
     <use xlink:href="#DejaVuSans-67" transform="translate(443.066406 0)"/>
     <use xlink:href="#DejaVuSans-43" transform="translate(506.542969 0)"/>
    </g>
   </g>
   <g id="text_24">
    <g id="patch_19">
     <path d="M 633.318993 14.65377 
L 656.661689 31.555957 
L 659.49972 27.636505 
L 636.157024 10.734318 
z
" style="fill: #ffffff; stroke: #ffffff; stroke-linejoin: miter"/>
    </g>
    <!-- 210.0 degC -->
    <g transform="translate(633.928844 13.811537) rotate(-324.09212) scale(0.05 -0.05)">
     <use xlink:href="#DejaVuSans-32"/>
     <use xlink:href="#DejaVuSans-31" transform="translate(63.623047 0)"/>
     <use xlink:href="#DejaVuSans-30" transform="translate(127.246094 0)"/>
     <use xlink:href="#DejaVuSans-2e" transform="translate(190.869141 0)"/>
     <use xlink:href="#DejaVuSans-30" transform="translate(222.65625 0)"/>
     <use xlink:href="#DejaVuSans-20" transform="translate(286.279297 0)"/>
     <use xlink:href="#DejaVuSans-64" transform="translate(318.066406 0)"/>
     <use xlink:href="#DejaVuSans-65" transform="translate(381.542969 0)"/>
     <use xlink:href="#DejaVuSans-67" transform="translate(443.066406 0)"/>
     <use xlink:href="#DejaVuSans-43" transform="translate(506.542969 0)"/>
    </g>
   </g>
   <g id="text_25">
    <g id="patch_20">
     <path d="M 160.108647 172.472474 
L 168.849569 163.228969 
L 165.333586 159.904155 
L 156.592664 169.147661 
z
" style="fill: #ffffff; stroke: #ffffff; stroke-linejoin: miter"/>
    </g>
    <!-- 0.0 1 -->
    <g transform="translate(159.353114 171.758021) rotate(-46.600742) scale(0.05 -0.05)">
     <use xlink:href="#DejaVuSans-30"/>
     <use xlink:href="#DejaVuSans-2e" transform="translate(63.623047 0)"/>
     <use xlink:href="#DejaVuSans-30" transform="translate(95.410156 0)"/>
     <use xlink:href="#DejaVuSans-20" transform="translate(159.033203 0)"/>
     <use xlink:href="#DejaVuSans-31" transform="translate(190.820312 0)"/>
    </g>
   </g>
   <g id="text_26">
    <g id="patch_21">
     <path d="M 207.230334 217.302832 
L 214.024796 206.547304 
L 209.93368 203.962871 
L 203.139217 214.718399 
z
" style="fill: #ffffff; stroke: #ffffff; stroke-linejoin: miter"/>
    </g>
    <!-- 0.2 1 -->
    <g transform="translate(206.351212 216.747475) rotate(-57.718653) scale(0.05 -0.05)">
     <use xlink:href="#DejaVuSans-30"/>
     <use xlink:href="#DejaVuSans-2e" transform="translate(63.623047 0)"/>
     <use xlink:href="#DejaVuSans-32" transform="translate(95.410156 0)"/>
     <use xlink:href="#DejaVuSans-20" transform="translate(159.033203 0)"/>
     <use xlink:href="#DejaVuSans-31" transform="translate(190.820312 0)"/>
    </g>
   </g>
   <g id="text_27">
    <g id="patch_22">
     <path d="M 296.506372 217.416964 
L 301.958327 205.922518 
L 297.586146 203.848739 
L 292.134191 215.343185 
z
" style="fill: #ffffff; stroke: #ffffff; stroke-linejoin: miter"/>
    </g>
    <!-- 0.4 1 -->
    <g transform="translate(295.566854 216.971339) rotate(-64.624447) scale(0.05 -0.05)">
     <use xlink:href="#DejaVuSans-30"/>
     <use xlink:href="#DejaVuSans-2e" transform="translate(63.623047 0)"/>
     <use xlink:href="#DejaVuSans-34" transform="translate(95.410156 0)"/>
     <use xlink:href="#DejaVuSans-20" transform="translate(159.033203 0)"/>
     <use xlink:href="#DejaVuSans-31" transform="translate(190.820312 0)"/>
    </g>
   </g>
   <g id="text_28">
    <g id="patch_23">
     <path d="M 385.89536 217.427522 
L 389.738628 205.300058 
L 385.125663 203.838181 
L 381.282396 215.965646 
z
" style="fill: #ffffff; stroke: #ffffff; stroke-linejoin: miter"/>
    </g>
    <!-- 0.6 1 -->
    <g transform="translate(384.904102 217.113386) rotate(-72.416274) scale(0.05 -0.05)">
     <use xlink:href="#DejaVuSans-30"/>
     <use xlink:href="#DejaVuSans-2e" transform="translate(63.623047 0)"/>
     <use xlink:href="#DejaVuSans-36" transform="translate(95.410156 0)"/>
     <use xlink:href="#DejaVuSans-20" transform="translate(159.033203 0)"/>
     <use xlink:href="#DejaVuSans-31" transform="translate(190.820312 0)"/>
    </g>
   </g>
   <g id="text_29">
    <g id="patch_24">
     <path d="M 475.362188 217.295487 
L 477.365999 204.732412 
L 472.58734 203.970216 
L 470.583529 216.533291 
z
" style="fill: #ffffff; stroke: #ffffff; stroke-linejoin: miter"/>
    </g>
    <!-- 0.8 1 -->
    <g transform="translate(474.335324 217.131702) rotate(-80.937655) scale(0.05 -0.05)">
     <use xlink:href="#DejaVuSans-30"/>
     <use xlink:href="#DejaVuSans-2e" transform="translate(63.623047 0)"/>
     <use xlink:href="#DejaVuSans-38" transform="translate(95.410156 0)"/>
     <use xlink:href="#DejaVuSans-20" transform="translate(159.033203 0)"/>
     <use xlink:href="#DejaVuSans-31" transform="translate(190.820312 0)"/>
    </g>
   </g>
   <g id="text_30">
    <g id="patch_25">
     <path d="M 564.845223 216.998842 
L 564.871863 204.276995 
L 560.032811 204.266862 
L 560.006171 216.988709 
z
" style="fill: #ffffff; stroke: #ffffff; stroke-linejoin: miter"/>
    </g>
    <!-- 1.0 1 -->
    <g transform="translate(563.805382 216.996664) rotate(-89.880022) scale(0.05 -0.05)">
     <use xlink:href="#DejaVuSans-31"/>
     <use xlink:href="#DejaVuSans-2e" transform="translate(63.623047 0)"/>
     <use xlink:href="#DejaVuSans-30" transform="translate(95.410156 0)"/>
     <use xlink:href="#DejaVuSans-20" transform="translate(159.033203 0)"/>
     <use xlink:href="#DejaVuSans-31" transform="translate(190.820312 0)"/>
    </g>
   </g>
   <g id="line2d_43">
    <path d="M 654.25939 227.677717 
L 640.560499 227.716689 
L 627.517504 227.754107 
L 615.069877 227.790031 
L 603.160435 227.82452 
L 591.736662 227.857632 
L 580.752046 227.889421 
L 570.167129 227.919939 
L 562.269156 227.942601 
L 557.831926 227.949237 
L 539.029087 227.977364 
L 520.992743 228.004365 
L 503.691306 228.030285 
L 487.094511 228.055168 
L 471.17337 228.079055 
L 455.900105 228.101985 
L 441.248106 228.123997 
L 427.191871 228.145127 
L 413.706965 228.16541 
L 400.769972 228.184879 
L 388.35845 228.203569 
L 376.45089 228.221509 
L 365.026677 228.238729 
L 354.066052 228.255259 
L 343.550072 228.271125 
L 333.46058 228.286355 
L 323.780171 228.300973 
L 314.492156 228.315005 
L 305.580537 228.328473 
L 297.029975 228.341401 
L 288.825762 228.35381 
L 280.953796 228.36572 
L 273.400555 228.377152 
L 266.153073 228.388124 
L 259.198916 228.398656 
L 252.526159 228.408764 
L 246.123366 228.418467 
L 239.979573 228.427779 
L 234.084259 228.436717 
L 228.42734 228.445296 
L 222.999138 228.45353 
L 217.790376 228.461433 
L 212.792151 228.469018 
L 207.995928 228.476299 
L 203.393518 228.483286 
L 198.977064 228.489992 
L 194.739033 228.496429 
L 190.672197 228.502607 
L 186.769623 228.508536 
L 183.024658 228.514227 
L 179.430923 228.519689 
L 175.982297 228.524931 
L 172.672907 228.529963 
L 169.497119 228.534791 
L 166.44953 228.539426 
L 163.524953 228.543874 
L 160.718415 228.548143 
L 158.025142 228.55224 
L 155.440555 228.556173 
L 152.960262 228.559947 
L 150.580046 228.563569 
L 148.295864 228.567046 
L 146.103835 228.570382 
L 144.000236 228.573584 
L 141.981496 228.576658 
L 140.044185 228.579607 
L 138.185016 228.582438 
L 136.400833 228.585155 
L 134.688608 228.587763 
L 133.045436 228.590265 
L 131.468528 228.592667 
L 129.95521 228.594972 
L 128.502916 228.597184 
L 127.109181 228.599307 
L 125.771643 228.601345 
L 124.488033 228.603301 
L 123.256176 228.605178 
L 122.073984 228.606979 
L 120.939451 228.608708 
L 119.850657 228.610367 
L 118.805755 228.61196 
L 117.802974 228.613488 
L 116.840617 228.614955 
L 115.917052 228.616362 
L 115.030714 228.617713 
L 114.180102 228.61901 
L 113.363776 228.620254 
L 112.580352 228.621448 
L 111.828504 228.622595 
L 111.106959 228.623695 
L 110.414494 228.62475 
L 109.749938 228.625764 
L 109.112164 228.626736 
L 108.500093 228.627669 
L 107.912689 228.628565 
L 107.348957 228.629424 
L 106.807943 228.630249 
L 106.288731 228.631041 
L 105.790442 228.631801 
L 105.312233 228.63253 
L 104.853294 228.63323 
" clip-path="url(#p516a4424af)" style="fill: none; stroke: #d62728; stroke-width: 1.5; stroke-linecap: square"/>
   </g>
   <g id="line2d_44">
    <path d="M 104.853294 228.63323 
L 104.853294 229.069315 
L 104.853294 229.516537 
L 104.853294 229.975108 
L 104.853294 230.445239 
L 104.853294 230.927142 
L 104.853294 231.42103 
L 104.853294 231.927114 
L 104.853294 232.445606 
L 104.853294 232.976719 
L 104.853294 233.520663 
L 104.853294 234.077648 
L 104.853294 234.647884 
L 104.853294 235.231579 
L 104.853294 235.828939 
L 104.853294 236.44017 
L 104.853294 237.065474 
L 104.853294 237.705055 
L 104.853294 238.359109 
L 104.853294 239.027835 
L 104.853294 239.711426 
L 104.853294 240.410073 
L 104.853294 241.123965 
L 104.853294 241.853287 
L 104.853294 242.59822 
L 104.853294 243.358941 
L 104.853294 244.135626 
L 104.853294 244.928443 
L 104.853294 245.737559 
L 104.853294 246.563134 
L 104.853294 247.405326 
L 104.853294 248.264286 
L 104.853294 249.140162 
L 104.853294 250.033094 
L 104.853294 250.943221 
L 104.853294 251.870672 
L 104.853294 252.815575 
L 104.853294 253.778049 
L 104.853294 254.758208 
L 104.853294 255.756161 
L 104.853294 256.77201 
L 104.853294 257.805853 
L 104.853294 258.857779 
L 104.853294 259.927872 
L 104.853294 261.016211 
L 104.853294 262.122868 
L 104.853294 263.247907 
L 104.853294 264.391387 
L 104.853294 265.553361 
L 104.853294 266.733876 
L 104.853294 267.93297 
L 104.853294 269.150678 
L 104.853294 270.387025 
L 104.853294 271.642034 
L 104.853294 272.915718 
L 104.853294 274.208085 
L 104.853294 275.519138 
L 104.853294 276.848871 
L 104.853294 278.197275 
L 104.853294 279.564334 
L 104.853294 280.950024 
L 104.853294 282.354319 
L 104.853294 283.777184 
L 104.853294 285.21858 
L 104.853294 286.678463 
L 104.853294 288.156781 
L 104.853294 289.653481 
L 104.853294 291.1685 
L 104.853294 292.701774 
L 104.853294 294.253232 
L 104.853294 295.822799 
L 104.853294 297.410394 
L 104.853294 299.015935 
L 104.853294 300.639331 
L 104.853294 302.280492 
L 104.853294 303.939319 
L 104.853294 305.615712 
L 104.853294 307.309567 
L 104.853294 309.020776 
L 104.853294 310.749228 
L 104.853294 312.494808 
L 104.853294 314.257399 
L 104.853294 316.036879 
L 104.853294 317.833125 
L 104.853294 319.646011 
L 104.853294 321.475409 
L 104.853294 323.321186 
L 104.853294 325.183211 
L 104.853294 327.061347 
L 104.853294 328.955456 
L 104.853294 330.8654 
L 104.853294 332.791038 
L 104.853294 334.732226 
L 104.853294 336.688821 
L 104.853294 338.660678 
L 104.853294 340.647649 
L 104.853294 342.649587 
L 104.853294 344.666343 
L 104.853294 346.697769 
L 104.853294 348.743712 
" clip-path="url(#p516a4424af)" style="fill: none; stroke: #d62728; stroke-width: 1.5; stroke-linecap: square"/>
   </g>
   <g id="line2d_45">
    <path d="M 104.853294 348.743712 
L 106.459452 348.747043 
L 108.095918 348.750438 
L 109.763263 348.753896 
L 111.462067 348.757421 
L 113.192921 348.761012 
L 114.956429 348.764671 
L 116.753203 348.7684 
L 118.58387 348.772199 
L 120.449065 348.776071 
L 122.349437 348.780016 
L 124.285648 348.784036 
L 126.25837 348.788132 
L 128.268289 348.792306 
L 130.316104 348.796559 
L 132.402525 348.800893 
L 134.528277 348.805309 
L 136.694099 348.809809 
L 138.900742 348.814394 
L 141.148973 348.819067 
L 143.43957 348.823828 
L 145.773329 348.82868 
L 148.151058 348.833623 
L 150.573583 348.838661 
L 153.041743 348.843794 
L 155.556392 348.849024 
L 158.118402 348.854354 
L 160.72866 348.859786 
L 163.38807 348.86532 
L 166.097551 348.870959 
L 168.858041 348.876706 
L 171.670495 348.882562 
L 174.535885 348.888528 
L 177.455202 348.894609 
L 180.429453 348.900805 
L 183.459666 348.907118 
L 186.546887 348.913552 
L 189.692182 348.920108 
L 192.896635 348.926788 
L 196.161353 348.933595 
L 199.487459 348.940532 
L 202.8761 348.947601 
L 206.328443 348.954804 
L 209.845677 348.962144 
L 213.429013 348.969623 
L 217.079683 348.977245 
L 220.798942 348.985011 
L 224.588069 348.992926 
L 228.448366 349.000991 
L 232.381157 349.009209 
L 236.387794 349.017583 
L 240.46965 349.026117 
L 244.628125 349.034814 
L 248.864645 349.043675 
L 253.18066 349.052706 
L 257.577649 349.061908 
L 262.057115 349.071285 
L 266.620592 349.080841 
L 271.269638 349.090579 
L 276.005843 349.100502 
L 280.830823 349.110614 
L 285.746225 349.120919 
L 290.753725 349.13142 
L 295.85503 349.142121 
L 301.051878 349.153026 
L 306.346037 349.164139 
L 311.739308 349.175463 
L 317.233526 349.187003 
L 322.830556 349.198763 
L 328.532299 349.210747 
L 334.340689 349.22296 
L 340.257695 349.235406 
L 346.285323 349.248089 
L 352.425612 349.261013 
L 358.680639 349.274185 
L 365.05252 349.287607 
L 371.543405 349.301286 
L 378.155486 349.315225 
L 384.890992 349.329431 
L 391.752193 349.343908 
L 398.741398 349.358661 
L 405.860957 349.373696 
L 413.113264 349.389018 
L 420.500754 349.404632 
L 428.025903 349.420545 
L 435.691235 349.436762 
L 443.499315 349.453289 
L 451.452755 349.470132 
L 459.554212 349.487296 
L 467.80639 349.504789 
L 476.212041 349.522617 
L 484.773966 349.540785 
L 493.495011 349.559301 
L 502.378077 349.578171 
L 511.426111 349.597402 
L 520.642115 349.617002 
L 530.029139 349.636976 
L 539.590291 349.657333 
L 549.328728 349.678081 
L 551.349493 349.682386 
L 554.802415 349.699225 
" clip-path="url(#p516a4424af)" style="fill: none; stroke: #d62728; stroke-width: 1.5; stroke-linecap: square"/>
   </g>
   <g id="line2d_46">
    <path d="M 554.802415 349.699225 
L 555.652419 348.455179 
L 556.505313 347.211356 
L 557.361105 345.967756 
L 558.219804 344.724378 
L 559.08142 343.481219 
L 559.945962 342.23828 
L 560.813437 340.995559 
L 561.683856 339.753055 
L 562.557227 338.510767 
L 563.433558 337.268695 
L 564.31286 336.026838 
L 565.19514 334.785194 
L 566.080407 333.543764 
L 566.96867 332.302547 
L 567.859939 331.061543 
L 568.754221 329.82075 
L 569.651526 328.580169 
L 570.551862 327.3398 
L 571.455238 326.099642 
L 572.361663 324.859695 
L 573.271145 323.61996 
L 574.183692 322.380436 
L 575.099314 321.141123 
L 576.018019 319.902023 
L 576.939815 318.663134 
L 577.864711 317.424458 
L 578.792715 316.185995 
L 579.723835 314.947745 
L 580.65808 313.70971 
L 581.595458 312.47189 
L 582.535976 311.234285 
L 583.479645 309.996898 
L 584.42647 308.759728 
L 585.376461 307.522776 
L 586.329625 306.286045 
L 587.28597 305.049535 
L 588.245505 303.813247 
L 589.208236 302.577183 
L 590.174173 301.341343 
L 591.143321 300.105731 
L 592.11569 298.870346 
L 593.091286 297.635192 
L 594.070118 296.400268 
L 595.052192 295.165578 
L 596.037517 293.931122 
L 597.026099 292.696903 
L 598.017945 291.462923 
L 599.013064 290.229183 
L 600.011463 288.995685 
L 601.013148 287.762432 
L 602.018126 286.529425 
L 603.026405 285.296667 
L 604.037992 284.064159 
L 605.052893 282.831904 
L 606.071116 281.599904 
L 607.092668 280.368161 
L 608.117554 279.136677 
L 609.145783 277.905455 
L 610.17736 276.674496 
L 611.212293 275.443804 
L 612.250588 274.21338 
L 613.292251 272.983227 
L 614.33729 271.753346 
L 615.38571 270.523741 
L 616.437518 269.294414 
L 617.492721 268.065366 
L 618.551325 266.8366 
L 619.613336 265.608119 
L 620.678761 264.379924 
L 621.747606 263.152019 
L 622.819877 261.924405 
L 623.895581 260.697084 
L 624.974723 259.470058 
L 626.057311 258.243331 
L 627.143349 257.016904 
L 628.232845 255.790778 
L 629.325804 254.564958 
L 630.422232 253.339443 
L 631.522136 252.114237 
L 632.625522 250.889342 
L 633.732395 249.664758 
L 634.842762 248.44049 
L 635.956629 247.216538 
L 637.074002 245.992903 
L 638.194887 244.769589 
L 639.319289 243.546597 
L 640.447216 242.323929 
L 641.578672 241.101586 
L 642.713665 239.879569 
L 643.852199 238.657882 
L 644.994281 237.436524 
L 646.139917 236.215498 
L 647.289114 234.994805 
L 648.441876 233.774447 
L 649.59821 232.554424 
L 650.758123 231.334739 
L 651.92162 230.115391 
L 653.088707 228.896384 
L 654.25939 227.677717 
" clip-path="url(#p516a4424af)" style="fill: none; stroke: #d62728; stroke-width: 1.5; stroke-linecap: square"/>
   </g>
   <g id="PathCollection_1">
    <defs>
     <path id="m5b4f831ac4" d="M 0 3 
C 0.795609 3 1.55874 2.683901 2.12132 2.12132 
C 2.683901 1.55874 3 0.795609 3 0 
C 3 -0.795609 2.683901 -1.55874 2.12132 -2.12132 
C 1.55874 -2.683901 0.795609 -3 0 -3 
C -0.795609 -3 -1.55874 -2.683901 -2.12132 -2.12132 
C -2.683901 -1.55874 -3 -0.795609 -3 0 
C -3 0.795609 -2.683901 1.55874 -2.12132 2.12132 
C -1.55874 2.683901 -0.795609 3 0 3 
z
" style="stroke: #d62728"/>
    </defs>
    <g clip-path="url(#p516a4424af)">
     <use xlink:href="#m5b4f831ac4" x="654.25939" y="227.677717" style="fill: #d62728; stroke: #d62728"/>
    </g>
   </g>
   <g id="PathCollection_2">
    <g clip-path="url(#p516a4424af)">
     <use xlink:href="#m5b4f831ac4" x="104.853294" y="228.63323" style="fill: #d62728; stroke: #d62728"/>
    </g>
   </g>
   <g id="PathCollection_3">
    <g clip-path="url(#p516a4424af)">
     <use xlink:href="#m5b4f831ac4" x="104.853294" y="348.743712" style="fill: #d62728; stroke: #d62728"/>
    </g>
   </g>
   <g id="PathCollection_4">
    <g clip-path="url(#p516a4424af)">
     <use xlink:href="#m5b4f831ac4" x="554.802415" y="349.699225" style="fill: #d62728; stroke: #d62728"/>
    </g>
   </g>
   <g id="PathCollection_5">
    <g clip-path="url(#p516a4424af)">
     <use xlink:href="#m5b4f831ac4" x="654.25939" y="227.677717" style="fill: #d62728; stroke: #d62728"/>
    </g>
   </g>
  </g>
 </g>
 <defs>
  <clipPath id="p516a4424af">
   <rect x="49.912685" y="19.525702" width="659.287315" height="360.189298"/>
  </clipPath>
 </defs>
</svg>
