<?xml version="1.0" encoding="utf-8" standalone="no"?>
<!DOCTYPE svg PUBLIC "-//W3C//DTD SVG 1.1//EN"
  "http://www.w3.org/Graphics/SVG/1.1/DTD/svg11.dtd">
<!-- Created with matplotlib (http://matplotlib.org/) -->
<svg height="345.6pt" version="1.1" viewBox="0 0 460.8 345.6" width="460.8pt" xmlns="http://www.w3.org/2000/svg" xmlns:xlink="http://www.w3.org/1999/xlink">
 <defs>
  <style type="text/css">
*{stroke-linecap:butt;stroke-linejoin:round;}
  </style>
 </defs>
 <g id="figure_1">
  <g id="patch_1">
   <path d="M 0 345.6 
L 460.8 345.6 
L 460.8 0 
L 0 0 
z
" style="fill:#ffffff;"/>
  </g>
  <g id="axes_1">
   <g id="patch_2">
    <path d="M 61.555 289.415825 
L 442.035 289.415825 
L 442.035 14.76 
L 61.555 14.76 
z
" style="fill:#ffffff;"/>
   </g>
   <g id="matplotlib.axis_1">
    <g id="xtick_1">
     <g id="line2d_1">
      <path clip-path="url(#p3df639abfd)" d="M 61.555 289.415825 
L 61.555 14.76 
" style="fill:none;stroke:#b0b0b0;stroke-dasharray:0.8,1.32;stroke-dashoffset:0;stroke-width:0.8;"/>
     </g>
     <g id="line2d_2">
      <defs>
       <path d="M 0 0 
L 0 3.5 
" id="m10554a4948" style="stroke:#000000;stroke-width:0.8;"/>
      </defs>
      <g>
       <use style="stroke:#000000;stroke-width:0.8;" x="61.555" xlink:href="#m10554a4948" y="289.415825"/>
      </g>
     </g>
     <g id="text_1">
      <!-- 0.4 -->
      <defs>
       <path d="M 31.78125 66.40625 
Q 24.171875 66.40625 20.328125 58.90625 
Q 16.5 51.421875 16.5 36.375 
Q 16.5 21.390625 20.328125 13.890625 
Q 24.171875 6.390625 31.78125 6.390625 
Q 39.453125 6.390625 43.28125 13.890625 
Q 47.125 21.390625 47.125 36.375 
Q 47.125 51.421875 43.28125 58.90625 
Q 39.453125 66.40625 31.78125 66.40625 
z
M 31.78125 74.21875 
Q 44.046875 74.21875 50.515625 64.515625 
Q 56.984375 54.828125 56.984375 36.375 
Q 56.984375 17.96875 50.515625 8.265625 
Q 44.046875 -1.421875 31.78125 -1.421875 
Q 19.53125 -1.421875 13.0625 8.265625 
Q 6.59375 17.96875 6.59375 36.375 
Q 6.59375 54.828125 13.0625 64.515625 
Q 19.53125 74.21875 31.78125 74.21875 
z
" id="DejaVuSans-30"/>
       <path d="M 10.6875 12.40625 
L 21 12.40625 
L 21 0 
L 10.6875 0 
z
" id="DejaVuSans-2e"/>
       <path d="M 37.796875 64.3125 
L 12.890625 25.390625 
L 37.796875 25.390625 
z
M 35.203125 72.90625 
L 47.609375 72.90625 
L 47.609375 25.390625 
L 58.015625 25.390625 
L 58.015625 17.1875 
L 47.609375 17.1875 
L 47.609375 0 
L 37.796875 0 
L 37.796875 17.1875 
L 4.890625 17.1875 
L 4.890625 26.703125 
z
" id="DejaVuSans-34"/>
      </defs>
      <g transform="translate(53.603437 304.014262)scale(0.1 -0.1)">
       <use xlink:href="#DejaVuSans-30"/>
       <use x="63.623047" xlink:href="#DejaVuSans-2e"/>
       <use x="95.410156" xlink:href="#DejaVuSans-34"/>
      </g>
     </g>
    </g>
    <g id="xtick_2">
     <g id="line2d_3">
      <path clip-path="url(#p3df639abfd)" d="M 115.909286 289.415825 
L 115.909286 14.76 
" style="fill:none;stroke:#b0b0b0;stroke-dasharray:0.8,1.32;stroke-dashoffset:0;stroke-width:0.8;"/>
     </g>
     <g id="line2d_4">
      <g>
       <use style="stroke:#000000;stroke-width:0.8;" x="115.909286" xlink:href="#m10554a4948" y="289.415825"/>
      </g>
     </g>
     <g id="text_2">
      <!-- 0.5 -->
      <defs>
       <path d="M 10.796875 72.90625 
L 49.515625 72.90625 
L 49.515625 64.59375 
L 19.828125 64.59375 
L 19.828125 46.734375 
Q 21.96875 47.46875 24.109375 47.828125 
Q 26.265625 48.1875 28.421875 48.1875 
Q 40.625 48.1875 47.75 41.5 
Q 54.890625 34.8125 54.890625 23.390625 
Q 54.890625 11.625 47.5625 5.09375 
Q 40.234375 -1.421875 26.90625 -1.421875 
Q 22.3125 -1.421875 17.546875 -0.640625 
Q 12.796875 0.140625 7.71875 1.703125 
L 7.71875 11.625 
Q 12.109375 9.234375 16.796875 8.0625 
Q 21.484375 6.890625 26.703125 6.890625 
Q 35.15625 6.890625 40.078125 11.328125 
Q 45.015625 15.765625 45.015625 23.390625 
Q 45.015625 31 40.078125 35.4375 
Q 35.15625 39.890625 26.703125 39.890625 
Q 22.75 39.890625 18.8125 39.015625 
Q 14.890625 38.140625 10.796875 36.28125 
z
" id="DejaVuSans-35"/>
      </defs>
      <g transform="translate(107.957723 304.014262)scale(0.1 -0.1)">
       <use xlink:href="#DejaVuSans-30"/>
       <use x="63.623047" xlink:href="#DejaVuSans-2e"/>
       <use x="95.410156" xlink:href="#DejaVuSans-35"/>
      </g>
     </g>
    </g>
    <g id="xtick_3">
     <g id="line2d_5">
      <path clip-path="url(#p3df639abfd)" d="M 170.263571 289.415825 
L 170.263571 14.76 
" style="fill:none;stroke:#b0b0b0;stroke-dasharray:0.8,1.32;stroke-dashoffset:0;stroke-width:0.8;"/>
     </g>
     <g id="line2d_6">
      <g>
       <use style="stroke:#000000;stroke-width:0.8;" x="170.263571" xlink:href="#m10554a4948" y="289.415825"/>
      </g>
     </g>
     <g id="text_3">
      <!-- 0.6 -->
      <defs>
       <path d="M 33.015625 40.375 
Q 26.375 40.375 22.484375 35.828125 
Q 18.609375 31.296875 18.609375 23.390625 
Q 18.609375 15.53125 22.484375 10.953125 
Q 26.375 6.390625 33.015625 6.390625 
Q 39.65625 6.390625 43.53125 10.953125 
Q 47.40625 15.53125 47.40625 23.390625 
Q 47.40625 31.296875 43.53125 35.828125 
Q 39.65625 40.375 33.015625 40.375 
z
M 52.59375 71.296875 
L 52.59375 62.3125 
Q 48.875 64.0625 45.09375 64.984375 
Q 41.3125 65.921875 37.59375 65.921875 
Q 27.828125 65.921875 22.671875 59.328125 
Q 17.53125 52.734375 16.796875 39.40625 
Q 19.671875 43.65625 24.015625 45.921875 
Q 28.375 48.1875 33.59375 48.1875 
Q 44.578125 48.1875 50.953125 41.515625 
Q 57.328125 34.859375 57.328125 23.390625 
Q 57.328125 12.15625 50.6875 5.359375 
Q 44.046875 -1.421875 33.015625 -1.421875 
Q 20.359375 -1.421875 13.671875 8.265625 
Q 6.984375 17.96875 6.984375 36.375 
Q 6.984375 53.65625 15.1875 63.9375 
Q 23.390625 74.21875 37.203125 74.21875 
Q 40.921875 74.21875 44.703125 73.484375 
Q 48.484375 72.75 52.59375 71.296875 
z
" id="DejaVuSans-36"/>
      </defs>
      <g transform="translate(162.312009 304.014262)scale(0.1 -0.1)">
       <use xlink:href="#DejaVuSans-30"/>
       <use x="63.623047" xlink:href="#DejaVuSans-2e"/>
       <use x="95.410156" xlink:href="#DejaVuSans-36"/>
      </g>
     </g>
    </g>
    <g id="xtick_4">
     <g id="line2d_7">
      <path clip-path="url(#p3df639abfd)" d="M 224.617857 289.415825 
L 224.617857 14.76 
" style="fill:none;stroke:#b0b0b0;stroke-dasharray:0.8,1.32;stroke-dashoffset:0;stroke-width:0.8;"/>
     </g>
     <g id="line2d_8">
      <g>
       <use style="stroke:#000000;stroke-width:0.8;" x="224.617857" xlink:href="#m10554a4948" y="289.415825"/>
      </g>
     </g>
     <g id="text_4">
      <!-- 0.7 -->
      <defs>
       <path d="M 8.203125 72.90625 
L 55.078125 72.90625 
L 55.078125 68.703125 
L 28.609375 0 
L 18.3125 0 
L 43.21875 64.59375 
L 8.203125 64.59375 
z
" id="DejaVuSans-37"/>
      </defs>
      <g transform="translate(216.666295 304.014262)scale(0.1 -0.1)">
       <use xlink:href="#DejaVuSans-30"/>
       <use x="63.623047" xlink:href="#DejaVuSans-2e"/>
       <use x="95.410156" xlink:href="#DejaVuSans-37"/>
      </g>
     </g>
    </g>
    <g id="xtick_5">
     <g id="line2d_9">
      <path clip-path="url(#p3df639abfd)" d="M 278.972143 289.415825 
L 278.972143 14.76 
" style="fill:none;stroke:#b0b0b0;stroke-dasharray:0.8,1.32;stroke-dashoffset:0;stroke-width:0.8;"/>
     </g>
     <g id="line2d_10">
      <g>
       <use style="stroke:#000000;stroke-width:0.8;" x="278.972143" xlink:href="#m10554a4948" y="289.415825"/>
      </g>
     </g>
     <g id="text_5">
      <!-- 0.8 -->
      <defs>
       <path d="M 31.78125 34.625 
Q 24.75 34.625 20.71875 30.859375 
Q 16.703125 27.09375 16.703125 20.515625 
Q 16.703125 13.921875 20.71875 10.15625 
Q 24.75 6.390625 31.78125 6.390625 
Q 38.8125 6.390625 42.859375 10.171875 
Q 46.921875 13.96875 46.921875 20.515625 
Q 46.921875 27.09375 42.890625 30.859375 
Q 38.875 34.625 31.78125 34.625 
z
M 21.921875 38.8125 
Q 15.578125 40.375 12.03125 44.71875 
Q 8.5 49.078125 8.5 55.328125 
Q 8.5 64.0625 14.71875 69.140625 
Q 20.953125 74.21875 31.78125 74.21875 
Q 42.671875 74.21875 48.875 69.140625 
Q 55.078125 64.0625 55.078125 55.328125 
Q 55.078125 49.078125 51.53125 44.71875 
Q 48 40.375 41.703125 38.8125 
Q 48.828125 37.15625 52.796875 32.3125 
Q 56.78125 27.484375 56.78125 20.515625 
Q 56.78125 9.90625 50.3125 4.234375 
Q 43.84375 -1.421875 31.78125 -1.421875 
Q 19.734375 -1.421875 13.25 4.234375 
Q 6.78125 9.90625 6.78125 20.515625 
Q 6.78125 27.484375 10.78125 32.3125 
Q 14.796875 37.15625 21.921875 38.8125 
z
M 18.3125 54.390625 
Q 18.3125 48.734375 21.84375 45.5625 
Q 25.390625 42.390625 31.78125 42.390625 
Q 38.140625 42.390625 41.71875 45.5625 
Q 45.3125 48.734375 45.3125 54.390625 
Q 45.3125 60.0625 41.71875 63.234375 
Q 38.140625 66.40625 31.78125 66.40625 
Q 25.390625 66.40625 21.84375 63.234375 
Q 18.3125 60.0625 18.3125 54.390625 
z
" id="DejaVuSans-38"/>
      </defs>
      <g transform="translate(271.02058 304.014262)scale(0.1 -0.1)">
       <use xlink:href="#DejaVuSans-30"/>
       <use x="63.623047" xlink:href="#DejaVuSans-2e"/>
       <use x="95.410156" xlink:href="#DejaVuSans-38"/>
      </g>
     </g>
    </g>
    <g id="xtick_6">
     <g id="line2d_11">
      <path clip-path="url(#p3df639abfd)" d="M 333.326429 289.415825 
L 333.326429 14.76 
" style="fill:none;stroke:#b0b0b0;stroke-dasharray:0.8,1.32;stroke-dashoffset:0;stroke-width:0.8;"/>
     </g>
     <g id="line2d_12">
      <g>
       <use style="stroke:#000000;stroke-width:0.8;" x="333.326429" xlink:href="#m10554a4948" y="289.415825"/>
      </g>
     </g>
     <g id="text_6">
      <!-- 0.9 -->
      <defs>
       <path d="M 10.984375 1.515625 
L 10.984375 10.5 
Q 14.703125 8.734375 18.5 7.8125 
Q 22.3125 6.890625 25.984375 6.890625 
Q 35.75 6.890625 40.890625 13.453125 
Q 46.046875 20.015625 46.78125 33.40625 
Q 43.953125 29.203125 39.59375 26.953125 
Q 35.25 24.703125 29.984375 24.703125 
Q 19.046875 24.703125 12.671875 31.3125 
Q 6.296875 37.9375 6.296875 49.421875 
Q 6.296875 60.640625 12.9375 67.421875 
Q 19.578125 74.21875 30.609375 74.21875 
Q 43.265625 74.21875 49.921875 64.515625 
Q 56.59375 54.828125 56.59375 36.375 
Q 56.59375 19.140625 48.40625 8.859375 
Q 40.234375 -1.421875 26.421875 -1.421875 
Q 22.703125 -1.421875 18.890625 -0.6875 
Q 15.09375 0.046875 10.984375 1.515625 
z
M 30.609375 32.421875 
Q 37.25 32.421875 41.125 36.953125 
Q 45.015625 41.5 45.015625 49.421875 
Q 45.015625 57.28125 41.125 61.84375 
Q 37.25 66.40625 30.609375 66.40625 
Q 23.96875 66.40625 20.09375 61.84375 
Q 16.21875 57.28125 16.21875 49.421875 
Q 16.21875 41.5 20.09375 36.953125 
Q 23.96875 32.421875 30.609375 32.421875 
z
" id="DejaVuSans-39"/>
      </defs>
      <g transform="translate(325.374866 304.014262)scale(0.1 -0.1)">
       <use xlink:href="#DejaVuSans-30"/>
       <use x="63.623047" xlink:href="#DejaVuSans-2e"/>
       <use x="95.410156" xlink:href="#DejaVuSans-39"/>
      </g>
     </g>
    </g>
    <g id="xtick_7">
     <g id="line2d_13">
      <path clip-path="url(#p3df639abfd)" d="M 387.680714 289.415825 
L 387.680714 14.76 
" style="fill:none;stroke:#b0b0b0;stroke-dasharray:0.8,1.32;stroke-dashoffset:0;stroke-width:0.8;"/>
     </g>
     <g id="line2d_14">
      <g>
       <use style="stroke:#000000;stroke-width:0.8;" x="387.680714" xlink:href="#m10554a4948" y="289.415825"/>
      </g>
     </g>
     <g id="text_7">
      <!-- 1.0 -->
      <defs>
       <path d="M 12.40625 8.296875 
L 28.515625 8.296875 
L 28.515625 63.921875 
L 10.984375 60.40625 
L 10.984375 69.390625 
L 28.421875 72.90625 
L 38.28125 72.90625 
L 38.28125 8.296875 
L 54.390625 8.296875 
L 54.390625 0 
L 12.40625 0 
z
" id="DejaVuSans-31"/>
      </defs>
      <g transform="translate(379.729152 304.014262)scale(0.1 -0.1)">
       <use xlink:href="#DejaVuSans-31"/>
       <use x="63.623047" xlink:href="#DejaVuSans-2e"/>
       <use x="95.410156" xlink:href="#DejaVuSans-30"/>
      </g>
     </g>
    </g>
    <g id="xtick_8">
     <g id="line2d_15">
      <path clip-path="url(#p3df639abfd)" d="M 442.035 289.415825 
L 442.035 14.76 
" style="fill:none;stroke:#b0b0b0;stroke-dasharray:0.8,1.32;stroke-dashoffset:0;stroke-width:0.8;"/>
     </g>
     <g id="line2d_16">
      <g>
       <use style="stroke:#000000;stroke-width:0.8;" x="442.035" xlink:href="#m10554a4948" y="289.415825"/>
      </g>
     </g>
     <g id="text_8">
      <!-- 1.1 -->
      <g transform="translate(434.083437 304.014262)scale(0.1 -0.1)">
       <use xlink:href="#DejaVuSans-31"/>
       <use x="63.623047" xlink:href="#DejaVuSans-2e"/>
       <use x="95.410156" xlink:href="#DejaVuSans-31"/>
      </g>
     </g>
    </g>
    <g id="text_9">
     <!-- $\frac{\dot{m}_\mathrm{1} \cdot p_\mathrm{1,ref}}{\dot{m}_\mathrm{1,ref} \cdot p_\mathrm{1}} \cdot \sqrt{\frac{T_1}{T_\mathrm{1,ref}}}$ -->
     <defs>
      <path d="M -29.59375 75.984375 
L -20.609375 75.984375 
L -20.609375 64.59375 
L -29.59375 64.59375 
z
M -25 56 
z
" id="DejaVuSans-307"/>
      <path d="M 89.796875 33.015625 
L 83.40625 0 
L 74.421875 0 
L 80.71875 32.71875 
Q 81.109375 34.8125 81.296875 36.328125 
Q 81.5 37.84375 81.5 38.921875 
Q 81.5 43.3125 79.046875 45.75 
Q 76.609375 48.1875 72.21875 48.1875 
Q 65.671875 48.1875 60.546875 43.28125 
Q 55.421875 38.375 53.90625 30.515625 
L 47.90625 0 
L 38.921875 0 
L 45.3125 32.71875 
Q 45.703125 34.515625 45.890625 36.046875 
Q 46.09375 37.59375 46.09375 38.8125 
Q 46.09375 43.265625 43.65625 45.71875 
Q 41.21875 48.1875 36.921875 48.1875 
Q 30.28125 48.1875 25.140625 43.28125 
Q 20.015625 38.375 18.5 30.515625 
L 12.5 0 
L 3.515625 0 
L 14.203125 54.6875 
L 23.1875 54.6875 
L 21.484375 46.1875 
Q 25.140625 50.984375 30.046875 53.484375 
Q 34.96875 56 40.578125 56 
Q 46.53125 56 50.359375 52.875 
Q 54.203125 49.75 54.984375 44.1875 
Q 59.078125 49.953125 64.46875 52.96875 
Q 69.875 56 75.875 56 
Q 82.90625 56 86.734375 51.953125 
Q 90.578125 47.90625 90.578125 40.484375 
Q 90.578125 38.875 90.375 36.9375 
Q 90.1875 35.015625 89.796875 33.015625 
z
" id="DejaVuSans-Oblique-6d"/>
      <path d="M 10.6875 40.921875 
L 21 40.921875 
L 21 28.515625 
L 10.6875 28.515625 
z
" id="DejaVuSans-22c5"/>
      <path d="M 49.609375 33.6875 
Q 49.609375 40.875 46.484375 44.671875 
Q 43.359375 48.484375 37.5 48.484375 
Q 33.5 48.484375 29.859375 46.4375 
Q 26.21875 44.390625 23.390625 40.484375 
Q 20.609375 36.625 18.9375 31.15625 
Q 17.28125 25.6875 17.28125 20.3125 
Q 17.28125 13.484375 20.40625 9.796875 
Q 23.53125 6.109375 29.296875 6.109375 
Q 33.546875 6.109375 37.1875 8.109375 
Q 40.828125 10.109375 43.40625 13.921875 
Q 46.1875 17.921875 47.890625 23.34375 
Q 49.609375 28.765625 49.609375 33.6875 
z
M 21.78125 46.390625 
Q 25.390625 51.125 30.296875 53.5625 
Q 35.203125 56 41.21875 56 
Q 49.609375 56 54.25 50.5 
Q 58.890625 45.015625 58.890625 35.109375 
Q 58.890625 27 56 19.65625 
Q 53.125 12.3125 47.703125 6.5 
Q 44.09375 2.640625 39.546875 0.609375 
Q 35.015625 -1.421875 29.984375 -1.421875 
Q 24.171875 -1.421875 20.21875 1 
Q 16.265625 3.421875 14.3125 8.203125 
L 8.6875 -20.796875 
L -0.296875 -20.796875 
L 14.40625 54.6875 
L 23.390625 54.6875 
z
" id="DejaVuSans-Oblique-70"/>
      <path d="M 11.71875 12.40625 
L 22.015625 12.40625 
L 22.015625 4 
L 14.015625 -11.625 
L 7.71875 -11.625 
L 11.71875 4 
z
" id="DejaVuSans-2c"/>
      <path d="M 41.109375 46.296875 
Q 39.59375 47.171875 37.8125 47.578125 
Q 36.03125 48 33.890625 48 
Q 26.265625 48 22.1875 43.046875 
Q 18.109375 38.09375 18.109375 28.8125 
L 18.109375 0 
L 9.078125 0 
L 9.078125 54.6875 
L 18.109375 54.6875 
L 18.109375 46.1875 
Q 20.953125 51.171875 25.484375 53.578125 
Q 30.03125 56 36.53125 56 
Q 37.453125 56 38.578125 55.875 
Q 39.703125 55.765625 41.0625 55.515625 
z
" id="DejaVuSans-72"/>
      <path d="M 56.203125 29.59375 
L 56.203125 25.203125 
L 14.890625 25.203125 
Q 15.484375 15.921875 20.484375 11.0625 
Q 25.484375 6.203125 34.421875 6.203125 
Q 39.59375 6.203125 44.453125 7.46875 
Q 49.3125 8.734375 54.109375 11.28125 
L 54.109375 2.78125 
Q 49.265625 0.734375 44.1875 -0.34375 
Q 39.109375 -1.421875 33.890625 -1.421875 
Q 20.796875 -1.421875 13.15625 6.1875 
Q 5.515625 13.8125 5.515625 26.8125 
Q 5.515625 40.234375 12.765625 48.109375 
Q 20.015625 56 32.328125 56 
Q 43.359375 56 49.78125 48.890625 
Q 56.203125 41.796875 56.203125 29.59375 
z
M 47.21875 32.234375 
Q 47.125 39.59375 43.09375 43.984375 
Q 39.0625 48.390625 32.421875 48.390625 
Q 24.90625 48.390625 20.390625 44.140625 
Q 15.875 39.890625 15.1875 32.171875 
z
" id="DejaVuSans-65"/>
      <path d="M 37.109375 75.984375 
L 37.109375 68.5 
L 28.515625 68.5 
Q 23.6875 68.5 21.796875 66.546875 
Q 19.921875 64.59375 19.921875 59.515625 
L 19.921875 54.6875 
L 34.71875 54.6875 
L 34.71875 47.703125 
L 19.921875 47.703125 
L 19.921875 0 
L 10.890625 0 
L 10.890625 47.703125 
L 2.296875 47.703125 
L 2.296875 54.6875 
L 10.890625 54.6875 
L 10.890625 58.5 
Q 10.890625 67.625 15.140625 71.796875 
Q 19.390625 75.984375 28.609375 75.984375 
z
" id="DejaVuSans-66"/>
      <path d="M 108.90625 155.203125 
L 52.703125 -29.5 
L 48.5 -29.5 
L 25.40625 45.59375 
Q 24.296875 49.203125 22.890625 50.796875 
Q 21.5 52.40625 19.203125 52.40625 
Q 15.796875 52.40625 12.40625 49.703125 
L 11.203125 51.703125 
L 27.59375 64.296875 
L 30.09375 64.296875 
L 52.796875 -9.40625 
L 53.203125 -9.40625 
L 103.203125 155.203125 
z
" id="STIXSizeOneSym-Regular-221a"/>
      <path d="M 5.90625 72.90625 
L 67.578125 72.90625 
L 66.015625 64.59375 
L 39.984375 64.59375 
L 27.484375 0 
L 17.578125 0 
L 30.078125 64.59375 
L 4.296875 64.59375 
z
" id="DejaVuSans-Oblique-54"/>
     </defs>
     <g transform="translate(215.695 324.59395)scale(0.1 -0.1)">
      <use transform="translate(59.765869 70.470625)scale(0.7)" xlink:href="#DejaVuSans-307"/>
      <use transform="translate(0 61.72375)scale(0.7)" xlink:href="#DejaVuSans-Oblique-6d"/>
      <use transform="translate(68.858398 50.239375)scale(0.49)" xlink:href="#DejaVuSans-31"/>
      <use transform="translate(115.585449 61.72375)scale(0.7)" xlink:href="#DejaVuSans-22c5"/>
      <use transform="translate(151.474121 61.72375)scale(0.7)" xlink:href="#DejaVuSans-Oblique-70"/>
      <use transform="translate(195.907715 50.239375)scale(0.49)" xlink:href="#DejaVuSans-31"/>
      <use transform="translate(227.083008 50.239375)scale(0.49)" xlink:href="#DejaVuSans-2c"/>
      <use transform="translate(252.205078 50.239375)scale(0.49)" xlink:href="#DejaVuSans-72"/>
      <use transform="translate(272.350586 50.239375)scale(0.49)" xlink:href="#DejaVuSans-65"/>
      <use transform="translate(302.49707 50.239375)scale(0.49)" xlink:href="#DejaVuSans-66"/>
      <use transform="translate(59.765869 -39.899062)scale(0.7)" xlink:href="#DejaVuSans-307"/>
      <use transform="translate(0 -48.645938)scale(0.7)" xlink:href="#DejaVuSans-Oblique-6d"/>
      <use transform="translate(68.858398 -60.130313)scale(0.49)" xlink:href="#DejaVuSans-31"/>
      <use transform="translate(100.033691 -60.130313)scale(0.49)" xlink:href="#DejaVuSans-2c"/>
      <use transform="translate(125.155762 -60.130313)scale(0.49)" xlink:href="#DejaVuSans-72"/>
      <use transform="translate(145.30127 -60.130313)scale(0.49)" xlink:href="#DejaVuSans-65"/>
      <use transform="translate(175.447754 -60.130313)scale(0.49)" xlink:href="#DejaVuSans-66"/>
      <use transform="translate(208.25 -48.645938)scale(0.7)" xlink:href="#DejaVuSans-22c5"/>
      <use transform="translate(244.138672 -48.645938)scale(0.7)" xlink:href="#DejaVuSans-Oblique-70"/>
      <use transform="translate(288.572266 -60.130313)scale(0.49)" xlink:href="#DejaVuSans-31"/>
      <use transform="translate(353.644043 0.74625)" xlink:href="#DejaVuSans-22c5"/>
      <use transform="translate(404.913574 -23.953125)scale(1.046186)" xlink:href="#STIXSizeOneSym-Regular-221a"/>
      <use transform="translate(574.002182 55.715625)scale(0.7)" xlink:href="#DejaVuSans-Oblique-54"/>
      <use transform="translate(616.760971 44.23125)scale(0.49)" xlink:href="#DejaVuSans-31"/>
      <use transform="translate(528.002182 -38.053125)scale(0.7)" xlink:href="#DejaVuSans-Oblique-54"/>
      <use transform="translate(570.760971 -49.5375)scale(0.49)" xlink:href="#DejaVuSans-31"/>
      <use transform="translate(601.936264 -49.5375)scale(0.49)" xlink:href="#DejaVuSans-2c"/>
      <use transform="translate(627.058334 -49.5375)scale(0.49)" xlink:href="#DejaVuSans-72"/>
      <use transform="translate(647.203842 -49.5375)scale(0.49)" xlink:href="#DejaVuSans-65"/>
      <use transform="translate(677.350327 -49.5375)scale(0.49)" xlink:href="#DejaVuSans-66"/>
      <path d="M 0 19.543125 
L 0 25.793125 
L 321.661621 25.793125 
L 321.661621 19.543125 
L 0 19.543125 
z
"/>
      <path d="M 515.502182 132.5 
L 515.502182 138.75 
L 721.514877 138.75 
L 721.514877 132.5 
L 515.502182 132.5 
z
"/>
      <path d="M 528.002182 19.23125 
L 528.002182 25.48125 
L 696.514877 25.48125 
L 696.514877 19.23125 
L 528.002182 19.23125 
z
"/>
     </g>
    </g>
   </g>
   <g id="matplotlib.axis_2">
    <g id="ytick_1">
     <g id="line2d_17">
      <path clip-path="url(#p3df639abfd)" d="M 61.555 289.415825 
L 442.035 289.415825 
" style="fill:none;stroke:#b0b0b0;stroke-dasharray:0.8,1.32;stroke-dashoffset:0;stroke-width:0.8;"/>
     </g>
     <g id="line2d_18">
      <defs>
       <path d="M 0 0 
L -3.5 0 
" id="m0c55fae0a4" style="stroke:#000000;stroke-width:0.8;"/>
      </defs>
      <g>
       <use style="stroke:#000000;stroke-width:0.8;" x="61.555" xlink:href="#m0c55fae0a4" y="289.415825"/>
      </g>
     </g>
     <g id="text_10">
      <!-- 0.80 -->
      <g transform="translate(32.289375 293.215044)scale(0.1 -0.1)">
       <use xlink:href="#DejaVuSans-30"/>
       <use x="63.623047" xlink:href="#DejaVuSans-2e"/>
       <use x="95.410156" xlink:href="#DejaVuSans-38"/>
       <use x="159.033203" xlink:href="#DejaVuSans-30"/>
      </g>
     </g>
    </g>
    <g id="ytick_2">
     <g id="line2d_19">
      <path clip-path="url(#p3df639abfd)" d="M 61.555 243.639854 
L 442.035 243.639854 
" style="fill:none;stroke:#b0b0b0;stroke-dasharray:0.8,1.32;stroke-dashoffset:0;stroke-width:0.8;"/>
     </g>
     <g id="line2d_20">
      <g>
       <use style="stroke:#000000;stroke-width:0.8;" x="61.555" xlink:href="#m0c55fae0a4" y="243.639854"/>
      </g>
     </g>
     <g id="text_11">
      <!-- 0.85 -->
      <g transform="translate(32.289375 247.439073)scale(0.1 -0.1)">
       <use xlink:href="#DejaVuSans-30"/>
       <use x="63.623047" xlink:href="#DejaVuSans-2e"/>
       <use x="95.410156" xlink:href="#DejaVuSans-38"/>
       <use x="159.033203" xlink:href="#DejaVuSans-35"/>
      </g>
     </g>
    </g>
    <g id="ytick_3">
     <g id="line2d_21">
      <path clip-path="url(#p3df639abfd)" d="M 61.555 197.863883 
L 442.035 197.863883 
" style="fill:none;stroke:#b0b0b0;stroke-dasharray:0.8,1.32;stroke-dashoffset:0;stroke-width:0.8;"/>
     </g>
     <g id="line2d_22">
      <g>
       <use style="stroke:#000000;stroke-width:0.8;" x="61.555" xlink:href="#m0c55fae0a4" y="197.863883"/>
      </g>
     </g>
     <g id="text_12">
      <!-- 0.90 -->
      <g transform="translate(32.289375 201.663102)scale(0.1 -0.1)">
       <use xlink:href="#DejaVuSans-30"/>
       <use x="63.623047" xlink:href="#DejaVuSans-2e"/>
       <use x="95.410156" xlink:href="#DejaVuSans-39"/>
       <use x="159.033203" xlink:href="#DejaVuSans-30"/>
      </g>
     </g>
    </g>
    <g id="ytick_4">
     <g id="line2d_23">
      <path clip-path="url(#p3df639abfd)" d="M 61.555 152.087912 
L 442.035 152.087912 
" style="fill:none;stroke:#b0b0b0;stroke-dasharray:0.8,1.32;stroke-dashoffset:0;stroke-width:0.8;"/>
     </g>
     <g id="line2d_24">
      <g>
       <use style="stroke:#000000;stroke-width:0.8;" x="61.555" xlink:href="#m0c55fae0a4" y="152.087912"/>
      </g>
     </g>
     <g id="text_13">
      <!-- 0.95 -->
      <g transform="translate(32.289375 155.887131)scale(0.1 -0.1)">
       <use xlink:href="#DejaVuSans-30"/>
       <use x="63.623047" xlink:href="#DejaVuSans-2e"/>
       <use x="95.410156" xlink:href="#DejaVuSans-39"/>
       <use x="159.033203" xlink:href="#DejaVuSans-35"/>
      </g>
     </g>
    </g>
    <g id="ytick_5">
     <g id="line2d_25">
      <path clip-path="url(#p3df639abfd)" d="M 61.555 106.311942 
L 442.035 106.311942 
" style="fill:none;stroke:#b0b0b0;stroke-dasharray:0.8,1.32;stroke-dashoffset:0;stroke-width:0.8;"/>
     </g>
     <g id="line2d_26">
      <g>
       <use style="stroke:#000000;stroke-width:0.8;" x="61.555" xlink:href="#m0c55fae0a4" y="106.311942"/>
      </g>
     </g>
     <g id="text_14">
      <!-- 1.00 -->
      <g transform="translate(32.289375 110.11116)scale(0.1 -0.1)">
       <use xlink:href="#DejaVuSans-31"/>
       <use x="63.623047" xlink:href="#DejaVuSans-2e"/>
       <use x="95.410156" xlink:href="#DejaVuSans-30"/>
       <use x="159.033203" xlink:href="#DejaVuSans-30"/>
      </g>
     </g>
    </g>
    <g id="ytick_6">
     <g id="line2d_27">
      <path clip-path="url(#p3df639abfd)" d="M 61.555 60.535971 
L 442.035 60.535971 
" style="fill:none;stroke:#b0b0b0;stroke-dasharray:0.8,1.32;stroke-dashoffset:0;stroke-width:0.8;"/>
     </g>
     <g id="line2d_28">
      <g>
       <use style="stroke:#000000;stroke-width:0.8;" x="61.555" xlink:href="#m0c55fae0a4" y="60.535971"/>
      </g>
     </g>
     <g id="text_15">
      <!-- 1.05 -->
      <g transform="translate(32.289375 64.33519)scale(0.1 -0.1)">
       <use xlink:href="#DejaVuSans-31"/>
       <use x="63.623047" xlink:href="#DejaVuSans-2e"/>
       <use x="95.410156" xlink:href="#DejaVuSans-30"/>
       <use x="159.033203" xlink:href="#DejaVuSans-35"/>
      </g>
     </g>
    </g>
    <g id="ytick_7">
     <g id="line2d_29">
      <path clip-path="url(#p3df639abfd)" d="M 61.555 14.76 
L 442.035 14.76 
" style="fill:none;stroke:#b0b0b0;stroke-dasharray:0.8,1.32;stroke-dashoffset:0;stroke-width:0.8;"/>
     </g>
     <g id="line2d_30">
      <g>
       <use style="stroke:#000000;stroke-width:0.8;" x="61.555" xlink:href="#m0c55fae0a4" y="14.76"/>
      </g>
     </g>
     <g id="text_16">
      <!-- 1.10 -->
      <g transform="translate(32.289375 18.559219)scale(0.1 -0.1)">
       <use xlink:href="#DejaVuSans-31"/>
       <use x="63.623047" xlink:href="#DejaVuSans-2e"/>
       <use x="95.410156" xlink:href="#DejaVuSans-31"/>
       <use x="159.033203" xlink:href="#DejaVuSans-30"/>
      </g>
     </g>
    </g>
    <g id="text_17">
     <!-- $\frac{\eta}{\eta_\mathrm{ref}}$ -->
     <defs>
      <path d="M 57.859375 33.015625 
L 47.40625 -20.796875 
L 38.421875 -20.796875 
L 48.828125 32.71875 
Q 50.34375 40.484375 48.046875 44.34375 
Q 45.796875 48.1875 39.75 48.1875 
Q 32.46875 48.1875 27.34375 43.5625 
Q 22.265625 38.921875 20.703125 30.90625 
L 14.703125 0 
L 5.671875 0 
L 16.3125 54.6875 
L 25.34375 54.6875 
L 23.6875 46.1875 
Q 27.828125 51.125 32.71875 53.5625 
Q 37.546875 56 43.265625 56 
Q 52.6875 56 56.390625 50.203125 
Q 60.0625 44.34375 57.859375 33.015625 
z
" id="DejaVuSans-Oblique-3b7"/>
     </defs>
     <g transform="translate(24.089375 158.437912)rotate(-90)scale(0.1 -0.1)">
      <use transform="translate(35 58.8)scale(0.7)" xlink:href="#DejaVuSans-Oblique-3b7"/>
      <use transform="translate(0 -26.207812)scale(0.7)" xlink:href="#DejaVuSans-Oblique-3b7"/>
      <use transform="translate(44.365234 -37.692187)scale(0.49)" xlink:href="#DejaVuSans-72"/>
      <use transform="translate(64.510742 -37.692187)scale(0.49)" xlink:href="#DejaVuSans-65"/>
      <use transform="translate(94.657227 -37.692187)scale(0.49)" xlink:href="#DejaVuSans-66"/>
      <path d="M 0 19.242188 
L 0 25.492188 
L 113.821777 25.492188 
L 113.821777 19.242188 
L 0 19.242188 
z
"/>
     </g>
    </g>
   </g>
   <g id="line2d_31">
    <defs>
     <path d="M -3 3 
L 3 -3 
M -3 -3 
L 3 3 
" id="mad4f5c0bb9" style="stroke:#466b85;stroke-width:2;"/>
    </defs>
    <g clip-path="url(#p3df639abfd)">
     <use style="fill:#466b85;stroke:#466b85;stroke-width:2;" x="94.167571" xlink:href="#mad4f5c0bb9" y="223.498427"/>
     <use style="fill:#466b85;stroke:#466b85;stroke-width:2;" x="164.828143" xlink:href="#mad4f5c0bb9" y="209.765636"/>
     <use style="fill:#466b85;stroke:#466b85;stroke-width:2;" x="261.035229" xlink:href="#mad4f5c0bb9" y="206.103558"/>
     <use style="fill:#466b85;stroke:#466b85;stroke-width:2;" x="319.194314" xlink:href="#mad4f5c0bb9" y="127.368888"/>
     <use style="fill:#466b85;stroke:#466b85;stroke-width:2;" x="359.416486" xlink:href="#mad4f5c0bb9" y="146.594796"/>
     <use style="fill:#466b85;stroke:#466b85;stroke-width:2;" x="395.290314" xlink:href="#mad4f5c0bb9" y="153.918951"/>
     <use style="fill:#466b85;stroke:#466b85;stroke-width:2;" x="412.140143" xlink:href="#mad4f5c0bb9" y="217.089791"/>
    </g>
   </g>
   <g id="line2d_32">
    <g clip-path="url(#p3df639abfd)">
     <use style="fill:#466b85;stroke:#466b85;stroke-width:2;" x="105.491514" xlink:href="#mad4f5c0bb9" y="211.641899"/>
     <use style="fill:#466b85;stroke:#466b85;stroke-width:2;" x="172.740215" xlink:href="#mad4f5c0bb9" y="189.775523"/>
     <use style="fill:#466b85;stroke:#466b85;stroke-width:2;" x="268.034472" xlink:href="#mad4f5c0bb9" y="180.938121"/>
     <use style="fill:#466b85;stroke:#466b85;stroke-width:2;" x="330.310288" xlink:href="#mad4f5c0bb9" y="127.368888"/>
     <use style="fill:#466b85;stroke:#466b85;stroke-width:2;" x="368.89119" xlink:href="#mad4f5c0bb9" y="143.515444"/>
     <use style="fill:#466b85;stroke:#466b85;stroke-width:2;" x="399.224013" xlink:href="#mad4f5c0bb9" y="143.428184"/>
     <use style="fill:#466b85;stroke:#466b85;stroke-width:2;" x="412.910064" xlink:href="#mad4f5c0bb9" y="208.567824"/>
    </g>
   </g>
   <g id="line2d_33">
    <g clip-path="url(#p3df639abfd)">
     <use style="fill:#466b85;stroke:#466b85;stroke-width:2;" x="116.815456" xlink:href="#mad4f5c0bb9" y="199.785371"/>
     <use style="fill:#466b85;stroke:#466b85;stroke-width:2;" x="180.879875" xlink:href="#mad4f5c0bb9" y="170.127275"/>
     <use style="fill:#466b85;stroke:#466b85;stroke-width:2;" x="275.033715" xlink:href="#mad4f5c0bb9" y="155.772683"/>
     <use style="fill:#466b85;stroke:#466b85;stroke-width:2;" x="340.761011" xlink:href="#mad4f5c0bb9" y="124.074423"/>
     <use style="fill:#466b85;stroke:#466b85;stroke-width:2;" x="376.257041" xlink:href="#mad4f5c0bb9" y="134.434175"/>
     <use style="fill:#466b85;stroke:#466b85;stroke-width:2;" x="402.065939" xlink:href="#mad4f5c0bb9" y="140.744726"/>
     <use style="fill:#466b85;stroke:#466b85;stroke-width:2;" x="413.679985" xlink:href="#mad4f5c0bb9" y="200.045856"/>
    </g>
   </g>
   <g id="line2d_34">
    <g clip-path="url(#p3df639abfd)">
     <use style="fill:#466b85;stroke:#466b85;stroke-width:2;" x="128.139399" xlink:href="#mad4f5c0bb9" y="187.928843"/>
     <use style="fill:#466b85;stroke:#466b85;stroke-width:2;" x="191.768581" xlink:href="#mad4f5c0bb9" y="154.608432"/>
     <use style="fill:#466b85;stroke:#466b85;stroke-width:2;" x="282.032958" xlink:href="#mad4f5c0bb9" y="130.607246"/>
     <use style="fill:#466b85;stroke:#466b85;stroke-width:2;" x="348.570164" xlink:href="#mad4f5c0bb9" y="110.976346"/>
     <use style="fill:#466b85;stroke:#466b85;stroke-width:2;" x="381.662834" xlink:href="#mad4f5c0bb9" y="120.932449"/>
     <use style="fill:#466b85;stroke:#466b85;stroke-width:2;" x="402.80627" xlink:href="#mad4f5c0bb9" y="153.089837"/>
     <use style="fill:#466b85;stroke:#466b85;stroke-width:2;" x="414.449907" xlink:href="#mad4f5c0bb9" y="191.523889"/>
    </g>
   </g>
   <g id="line2d_35">
    <g clip-path="url(#p3df639abfd)">
     <use style="fill:#466b85;stroke:#466b85;stroke-width:2;" x="139.124848" xlink:href="#mad4f5c0bb9" y="175.249456"/>
     <use style="fill:#466b85;stroke:#466b85;stroke-width:2;" x="202.980844" xlink:href="#mad4f5c0bb9" y="140.024817"/>
     <use style="fill:#466b85;stroke:#466b85;stroke-width:2;" x="289.032201" xlink:href="#mad4f5c0bb9" y="105.441808"/>
     <use style="fill:#466b85;stroke:#466b85;stroke-width:2;" x="357.026868" xlink:href="#mad4f5c0bb9" y="100.226237"/>
     <use style="fill:#466b85;stroke:#466b85;stroke-width:2;" x="387.140284" xlink:href="#mad4f5c0bb9" y="107.525644"/>
     <use style="fill:#466b85;stroke:#466b85;stroke-width:2;" x="403.546601" xlink:href="#mad4f5c0bb9" y="165.434948"/>
     <use style="fill:#466b85;stroke:#466b85;stroke-width:2;" x="415.219828" xlink:href="#mad4f5c0bb9" y="183.001922"/>
    </g>
   </g>
   <g id="line2d_36">
    <g clip-path="url(#p3df639abfd)">
     <use style="fill:#466b85;stroke:#466b85;stroke-width:2;" x="149.693297" xlink:href="#mad4f5c0bb9" y="161.55636"/>
     <use style="fill:#466b85;stroke:#466b85;stroke-width:2;" x="216.527483" xlink:href="#mad4f5c0bb9" y="132.606694"/>
     <use style="fill:#466b85;stroke:#466b85;stroke-width:2;" x="303.486045" xlink:href="#mad4f5c0bb9" y="93.110111"/>
     <use style="fill:#466b85;stroke:#466b85;stroke-width:2;" x="366.526187" xlink:href="#mad4f5c0bb9" y="104.708205"/>
     <use style="fill:#466b85;stroke:#466b85;stroke-width:2;" x="390.439061" xlink:href="#mad4f5c0bb9" y="119.906112"/>
     <use style="fill:#466b85;stroke:#466b85;stroke-width:2;" x="404.286932" xlink:href="#mad4f5c0bb9" y="177.78006"/>
     <use style="fill:#466b85;stroke:#466b85;stroke-width:2;" x="415.976121" xlink:href="#mad4f5c0bb9" y="175.474794"/>
    </g>
   </g>
   <g id="line2d_37">
    <g clip-path="url(#p3df639abfd)">
     <use style="fill:#466b85;stroke:#466b85;stroke-width:2;" x="161.223815" xlink:href="#mad4f5c0bb9" y="156.839832"/>
     <use style="fill:#466b85;stroke:#466b85;stroke-width:2;" x="226.203504" xlink:href="#mad4f5c0bb9" y="138.803413"/>
     <use style="fill:#466b85;stroke:#466b85;stroke-width:2;" x="319.462759" xlink:href="#mad4f5c0bb9" y="92.880588"/>
     <use style="fill:#466b85;stroke:#466b85;stroke-width:2;" x="366.922933" xlink:href="#mad4f5c0bb9" y="123.419528"/>
     <use style="fill:#466b85;stroke:#466b85;stroke-width:2;" x="390.564788" xlink:href="#mad4f5c0bb9" y="136.191237"/>
     <use style="fill:#466b85;stroke:#466b85;stroke-width:2;" x="405.027264" xlink:href="#mad4f5c0bb9" y="190.125171"/>
     <use style="fill:#466b85;stroke:#466b85;stroke-width:2;" x="416.511869" xlink:href="#mad4f5c0bb9" y="184.047505"/>
    </g>
   </g>
   <g id="line2d_38">
    <g clip-path="url(#p3df639abfd)">
     <use style="fill:#466b85;stroke:#466b85;stroke-width:2;" x="169.338231" xlink:href="#mad4f5c0bb9" y="174.036008"/>
     <use style="fill:#466b85;stroke:#466b85;stroke-width:2;" x="229.817275" xlink:href="#mad4f5c0bb9" y="161.818358"/>
     <use style="fill:#466b85;stroke:#466b85;stroke-width:2;" x="321.3313" xlink:href="#mad4f5c0bb9" y="119.428141"/>
     <use style="fill:#466b85;stroke:#466b85;stroke-width:2;" x="367.319679" xlink:href="#mad4f5c0bb9" y="142.13085"/>
     <use style="fill:#466b85;stroke:#466b85;stroke-width:2;" x="390.690516" xlink:href="#mad4f5c0bb9" y="152.476362"/>
     <use style="fill:#466b85;stroke:#466b85;stroke-width:2;" x="405.767595" xlink:href="#mad4f5c0bb9" y="202.470282"/>
     <use style="fill:#466b85;stroke:#466b85;stroke-width:2;" x="417.047618" xlink:href="#mad4f5c0bb9" y="192.620215"/>
    </g>
   </g>
   <g id="line2d_39">
    <g clip-path="url(#p3df639abfd)">
     <use style="fill:#466b85;stroke:#466b85;stroke-width:2;" x="173.439883" xlink:href="#mad4f5c0bb9" y="195.35018"/>
     <use style="fill:#466b85;stroke:#466b85;stroke-width:2;" x="230.750595" xlink:href="#mad4f5c0bb9" y="185.791997"/>
     <use style="fill:#466b85;stroke:#466b85;stroke-width:2;" x="321.893436" xlink:href="#mad4f5c0bb9" y="147.20202"/>
     <use style="fill:#466b85;stroke:#466b85;stroke-width:2;" x="367.716425" xlink:href="#mad4f5c0bb9" y="160.842173"/>
     <use style="fill:#466b85;stroke:#466b85;stroke-width:2;" x="390.816244" xlink:href="#mad4f5c0bb9" y="168.761487"/>
     <use style="fill:#466b85;stroke:#466b85;stroke-width:2;" x="406.507926" xlink:href="#mad4f5c0bb9" y="214.815393"/>
     <use style="fill:#466b85;stroke:#466b85;stroke-width:2;" x="417.583366" xlink:href="#mad4f5c0bb9" y="201.192925"/>
    </g>
   </g>
   <g id="line2d_40">
    <g clip-path="url(#p3df639abfd)">
     <use style="fill:#466b85;stroke:#466b85;stroke-width:2;" x="176.786086" xlink:href="#mad4f5c0bb9" y="217.089791"/>
     <use style="fill:#466b85;stroke:#466b85;stroke-width:2;" x="231.683914" xlink:href="#mad4f5c0bb9" y="209.765636"/>
     <use style="fill:#466b85;stroke:#466b85;stroke-width:2;" x="322.455571" xlink:href="#mad4f5c0bb9" y="174.975898"/>
     <use style="fill:#466b85;stroke:#466b85;stroke-width:2;" x="368.113171" xlink:href="#mad4f5c0bb9" y="179.553495"/>
     <use style="fill:#466b85;stroke:#466b85;stroke-width:2;" x="390.941971" xlink:href="#mad4f5c0bb9" y="185.046611"/>
     <use style="fill:#466b85;stroke:#466b85;stroke-width:2;" x="407.248257" xlink:href="#mad4f5c0bb9" y="227.160505"/>
     <use style="fill:#466b85;stroke:#466b85;stroke-width:2;" x="418.119114" xlink:href="#mad4f5c0bb9" y="209.765636"/>
    </g>
   </g>
   <g id="patch_3">
    <path d="M 61.555 289.415825 
L 61.555 14.76 
" style="fill:none;stroke:#000000;stroke-linecap:square;stroke-linejoin:miter;stroke-width:0.8;"/>
   </g>
   <g id="patch_4">
    <path d="M 442.035 289.415825 
L 442.035 14.76 
" style="fill:none;stroke:#000000;stroke-linecap:square;stroke-linejoin:miter;stroke-width:0.8;"/>
   </g>
   <g id="patch_5">
    <path d="M 61.555 289.415825 
L 442.035 289.415825 
" style="fill:none;stroke:#000000;stroke-linecap:square;stroke-linejoin:miter;stroke-width:0.8;"/>
   </g>
   <g id="patch_6">
    <path d="M 61.555 14.76 
L 442.035 14.76 
" style="fill:none;stroke:#000000;stroke-linecap:square;stroke-linejoin:miter;stroke-width:0.8;"/>
   </g>
  </g>
 </g>
 <defs>
  <clipPath id="p3df639abfd">
   <rect height="274.655825" width="380.48" x="61.555" y="14.76"/>
  </clipPath>
 </defs>
</svg>
