<?xml version="1.0" encoding="utf-8" standalone="no"?>
<!DOCTYPE svg PUBLIC "-//W3C//DTD SVG 1.1//EN"
  "http://www.w3.org/Graphics/SVG/1.1/DTD/svg11.dtd">
<!-- Created with matplotlib (http://matplotlib.org/) -->
<svg height="345.6pt" version="1.1" viewBox="0 0 460.8 345.6" width="460.8pt" xmlns="http://www.w3.org/2000/svg" xmlns:xlink="http://www.w3.org/1999/xlink">
 <defs>
  <style type="text/css">
*{stroke-linecap:butt;stroke-linejoin:round;}
  </style>
 </defs>
 <g id="figure_1">
  <g id="patch_1">
   <path d="M 0 345.6 
L 460.8 345.6 
L 460.8 0 
L 0 0 
z
" style="fill:#ffffff;"/>
  </g>
  <g id="axes_1">
   <g id="patch_2">
    <path d="M 56.1442 289.415825 
L 447.48 289.415825 
L 447.48 13.32 
L 56.1442 13.32 
z
" style="fill:#ffffff;"/>
   </g>
   <g id="matplotlib.axis_1">
    <g id="xtick_1">
     <g id="line2d_1">
      <path clip-path="url(#p5c97ffad50)" d="M 97.808689 289.415825 
L 97.808689 13.32 
" style="fill:none;stroke:#b0b0b0;stroke-dasharray:0.8,1.32;stroke-dashoffset:0;stroke-width:0.8;"/>
     </g>
     <g id="line2d_2">
      <defs>
       <path d="M 0 0 
L 0 3.5 
" id="mc3077fceee" style="stroke:#000000;stroke-width:0.8;"/>
      </defs>
      <g>
       <use style="stroke:#000000;stroke-width:0.8;" x="97.808689" xlink:href="#mc3077fceee" y="289.415825"/>
      </g>
     </g>
     <g id="text_1">
      <!-- 0.5 -->
      <defs>
       <path d="M 31.78125 66.40625 
Q 24.171875 66.40625 20.328125 58.90625 
Q 16.5 51.421875 16.5 36.375 
Q 16.5 21.390625 20.328125 13.890625 
Q 24.171875 6.390625 31.78125 6.390625 
Q 39.453125 6.390625 43.28125 13.890625 
Q 47.125 21.390625 47.125 36.375 
Q 47.125 51.421875 43.28125 58.90625 
Q 39.453125 66.40625 31.78125 66.40625 
z
M 31.78125 74.21875 
Q 44.046875 74.21875 50.515625 64.515625 
Q 56.984375 54.828125 56.984375 36.375 
Q 56.984375 17.96875 50.515625 8.265625 
Q 44.046875 -1.421875 31.78125 -1.421875 
Q 19.53125 -1.421875 13.0625 8.265625 
Q 6.59375 17.96875 6.59375 36.375 
Q 6.59375 54.828125 13.0625 64.515625 
Q 19.53125 74.21875 31.78125 74.21875 
z
" id="DejaVuSans-30"/>
       <path d="M 10.6875 12.40625 
L 21 12.40625 
L 21 0 
L 10.6875 0 
z
" id="DejaVuSans-2e"/>
       <path d="M 10.796875 72.90625 
L 49.515625 72.90625 
L 49.515625 64.59375 
L 19.828125 64.59375 
L 19.828125 46.734375 
Q 21.96875 47.46875 24.109375 47.828125 
Q 26.265625 48.1875 28.421875 48.1875 
Q 40.625 48.1875 47.75 41.5 
Q 54.890625 34.8125 54.890625 23.390625 
Q 54.890625 11.625 47.5625 5.09375 
Q 40.234375 -1.421875 26.90625 -1.421875 
Q 22.3125 -1.421875 17.546875 -0.640625 
Q 12.796875 0.140625 7.71875 1.703125 
L 7.71875 11.625 
Q 12.109375 9.234375 16.796875 8.0625 
Q 21.484375 6.890625 26.703125 6.890625 
Q 35.15625 6.890625 40.078125 11.328125 
Q 45.015625 15.765625 45.015625 23.390625 
Q 45.015625 31 40.078125 35.4375 
Q 35.15625 39.890625 26.703125 39.890625 
Q 22.75 39.890625 18.8125 39.015625 
Q 14.890625 38.140625 10.796875 36.28125 
z
" id="DejaVuSans-35"/>
      </defs>
      <g transform="translate(89.857126 304.014262)scale(0.1 -0.1)">
       <use xlink:href="#DejaVuSans-30"/>
       <use x="63.623047" xlink:href="#DejaVuSans-2e"/>
       <use x="95.410156" xlink:href="#DejaVuSans-35"/>
      </g>
     </g>
    </g>
    <g id="xtick_2">
     <g id="line2d_3">
      <path clip-path="url(#p5c97ffad50)" d="M 157.499933 289.415825 
L 157.499933 13.32 
" style="fill:none;stroke:#b0b0b0;stroke-dasharray:0.8,1.32;stroke-dashoffset:0;stroke-width:0.8;"/>
     </g>
     <g id="line2d_4">
      <g>
       <use style="stroke:#000000;stroke-width:0.8;" x="157.499933" xlink:href="#mc3077fceee" y="289.415825"/>
      </g>
     </g>
     <g id="text_2">
      <!-- 0.6 -->
      <defs>
       <path d="M 33.015625 40.375 
Q 26.375 40.375 22.484375 35.828125 
Q 18.609375 31.296875 18.609375 23.390625 
Q 18.609375 15.53125 22.484375 10.953125 
Q 26.375 6.390625 33.015625 6.390625 
Q 39.65625 6.390625 43.53125 10.953125 
Q 47.40625 15.53125 47.40625 23.390625 
Q 47.40625 31.296875 43.53125 35.828125 
Q 39.65625 40.375 33.015625 40.375 
z
M 52.59375 71.296875 
L 52.59375 62.3125 
Q 48.875 64.0625 45.09375 64.984375 
Q 41.3125 65.921875 37.59375 65.921875 
Q 27.828125 65.921875 22.671875 59.328125 
Q 17.53125 52.734375 16.796875 39.40625 
Q 19.671875 43.65625 24.015625 45.921875 
Q 28.375 48.1875 33.59375 48.1875 
Q 44.578125 48.1875 50.953125 41.515625 
Q 57.328125 34.859375 57.328125 23.390625 
Q 57.328125 12.15625 50.6875 5.359375 
Q 44.046875 -1.421875 33.015625 -1.421875 
Q 20.359375 -1.421875 13.671875 8.265625 
Q 6.984375 17.96875 6.984375 36.375 
Q 6.984375 53.65625 15.1875 63.9375 
Q 23.390625 74.21875 37.203125 74.21875 
Q 40.921875 74.21875 44.703125 73.484375 
Q 48.484375 72.75 52.59375 71.296875 
z
" id="DejaVuSans-36"/>
      </defs>
      <g transform="translate(149.548371 304.014262)scale(0.1 -0.1)">
       <use xlink:href="#DejaVuSans-30"/>
       <use x="63.623047" xlink:href="#DejaVuSans-2e"/>
       <use x="95.410156" xlink:href="#DejaVuSans-36"/>
      </g>
     </g>
    </g>
    <g id="xtick_3">
     <g id="line2d_5">
      <path clip-path="url(#p5c97ffad50)" d="M 217.191178 289.415825 
L 217.191178 13.32 
" style="fill:none;stroke:#b0b0b0;stroke-dasharray:0.8,1.32;stroke-dashoffset:0;stroke-width:0.8;"/>
     </g>
     <g id="line2d_6">
      <g>
       <use style="stroke:#000000;stroke-width:0.8;" x="217.191178" xlink:href="#mc3077fceee" y="289.415825"/>
      </g>
     </g>
     <g id="text_3">
      <!-- 0.7 -->
      <defs>
       <path d="M 8.203125 72.90625 
L 55.078125 72.90625 
L 55.078125 68.703125 
L 28.609375 0 
L 18.3125 0 
L 43.21875 64.59375 
L 8.203125 64.59375 
z
" id="DejaVuSans-37"/>
      </defs>
      <g transform="translate(209.239616 304.014262)scale(0.1 -0.1)">
       <use xlink:href="#DejaVuSans-30"/>
       <use x="63.623047" xlink:href="#DejaVuSans-2e"/>
       <use x="95.410156" xlink:href="#DejaVuSans-37"/>
      </g>
     </g>
    </g>
    <g id="xtick_4">
     <g id="line2d_7">
      <path clip-path="url(#p5c97ffad50)" d="M 276.882423 289.415825 
L 276.882423 13.32 
" style="fill:none;stroke:#b0b0b0;stroke-dasharray:0.8,1.32;stroke-dashoffset:0;stroke-width:0.8;"/>
     </g>
     <g id="line2d_8">
      <g>
       <use style="stroke:#000000;stroke-width:0.8;" x="276.882423" xlink:href="#mc3077fceee" y="289.415825"/>
      </g>
     </g>
     <g id="text_4">
      <!-- 0.8 -->
      <defs>
       <path d="M 31.78125 34.625 
Q 24.75 34.625 20.71875 30.859375 
Q 16.703125 27.09375 16.703125 20.515625 
Q 16.703125 13.921875 20.71875 10.15625 
Q 24.75 6.390625 31.78125 6.390625 
Q 38.8125 6.390625 42.859375 10.171875 
Q 46.921875 13.96875 46.921875 20.515625 
Q 46.921875 27.09375 42.890625 30.859375 
Q 38.875 34.625 31.78125 34.625 
z
M 21.921875 38.8125 
Q 15.578125 40.375 12.03125 44.71875 
Q 8.5 49.078125 8.5 55.328125 
Q 8.5 64.0625 14.71875 69.140625 
Q 20.953125 74.21875 31.78125 74.21875 
Q 42.671875 74.21875 48.875 69.140625 
Q 55.078125 64.0625 55.078125 55.328125 
Q 55.078125 49.078125 51.53125 44.71875 
Q 48 40.375 41.703125 38.8125 
Q 48.828125 37.15625 52.796875 32.3125 
Q 56.78125 27.484375 56.78125 20.515625 
Q 56.78125 9.90625 50.3125 4.234375 
Q 43.84375 -1.421875 31.78125 -1.421875 
Q 19.734375 -1.421875 13.25 4.234375 
Q 6.78125 9.90625 6.78125 20.515625 
Q 6.78125 27.484375 10.78125 32.3125 
Q 14.796875 37.15625 21.921875 38.8125 
z
M 18.3125 54.390625 
Q 18.3125 48.734375 21.84375 45.5625 
Q 25.390625 42.390625 31.78125 42.390625 
Q 38.140625 42.390625 41.71875 45.5625 
Q 45.3125 48.734375 45.3125 54.390625 
Q 45.3125 60.0625 41.71875 63.234375 
Q 38.140625 66.40625 31.78125 66.40625 
Q 25.390625 66.40625 21.84375 63.234375 
Q 18.3125 60.0625 18.3125 54.390625 
z
" id="DejaVuSans-38"/>
      </defs>
      <g transform="translate(268.93086 304.014262)scale(0.1 -0.1)">
       <use xlink:href="#DejaVuSans-30"/>
       <use x="63.623047" xlink:href="#DejaVuSans-2e"/>
       <use x="95.410156" xlink:href="#DejaVuSans-38"/>
      </g>
     </g>
    </g>
    <g id="xtick_5">
     <g id="line2d_9">
      <path clip-path="url(#p5c97ffad50)" d="M 336.573667 289.415825 
L 336.573667 13.32 
" style="fill:none;stroke:#b0b0b0;stroke-dasharray:0.8,1.32;stroke-dashoffset:0;stroke-width:0.8;"/>
     </g>
     <g id="line2d_10">
      <g>
       <use style="stroke:#000000;stroke-width:0.8;" x="336.573667" xlink:href="#mc3077fceee" y="289.415825"/>
      </g>
     </g>
     <g id="text_5">
      <!-- 0.9 -->
      <defs>
       <path d="M 10.984375 1.515625 
L 10.984375 10.5 
Q 14.703125 8.734375 18.5 7.8125 
Q 22.3125 6.890625 25.984375 6.890625 
Q 35.75 6.890625 40.890625 13.453125 
Q 46.046875 20.015625 46.78125 33.40625 
Q 43.953125 29.203125 39.59375 26.953125 
Q 35.25 24.703125 29.984375 24.703125 
Q 19.046875 24.703125 12.671875 31.3125 
Q 6.296875 37.9375 6.296875 49.421875 
Q 6.296875 60.640625 12.9375 67.421875 
Q 19.578125 74.21875 30.609375 74.21875 
Q 43.265625 74.21875 49.921875 64.515625 
Q 56.59375 54.828125 56.59375 36.375 
Q 56.59375 19.140625 48.40625 8.859375 
Q 40.234375 -1.421875 26.421875 -1.421875 
Q 22.703125 -1.421875 18.890625 -0.6875 
Q 15.09375 0.046875 10.984375 1.515625 
z
M 30.609375 32.421875 
Q 37.25 32.421875 41.125 36.953125 
Q 45.015625 41.5 45.015625 49.421875 
Q 45.015625 57.28125 41.125 61.84375 
Q 37.25 66.40625 30.609375 66.40625 
Q 23.96875 66.40625 20.09375 61.84375 
Q 16.21875 57.28125 16.21875 49.421875 
Q 16.21875 41.5 20.09375 36.953125 
Q 23.96875 32.421875 30.609375 32.421875 
z
" id="DejaVuSans-39"/>
      </defs>
      <g transform="translate(328.622105 304.014262)scale(0.1 -0.1)">
       <use xlink:href="#DejaVuSans-30"/>
       <use x="63.623047" xlink:href="#DejaVuSans-2e"/>
       <use x="95.410156" xlink:href="#DejaVuSans-39"/>
      </g>
     </g>
    </g>
    <g id="xtick_6">
     <g id="line2d_11">
      <path clip-path="url(#p5c97ffad50)" d="M 396.264912 289.415825 
L 396.264912 13.32 
" style="fill:none;stroke:#b0b0b0;stroke-dasharray:0.8,1.32;stroke-dashoffset:0;stroke-width:0.8;"/>
     </g>
     <g id="line2d_12">
      <g>
       <use style="stroke:#000000;stroke-width:0.8;" x="396.264912" xlink:href="#mc3077fceee" y="289.415825"/>
      </g>
     </g>
     <g id="text_6">
      <!-- 1.0 -->
      <defs>
       <path d="M 12.40625 8.296875 
L 28.515625 8.296875 
L 28.515625 63.921875 
L 10.984375 60.40625 
L 10.984375 69.390625 
L 28.421875 72.90625 
L 38.28125 72.90625 
L 38.28125 8.296875 
L 54.390625 8.296875 
L 54.390625 0 
L 12.40625 0 
z
" id="DejaVuSans-31"/>
      </defs>
      <g transform="translate(388.31335 304.014262)scale(0.1 -0.1)">
       <use xlink:href="#DejaVuSans-31"/>
       <use x="63.623047" xlink:href="#DejaVuSans-2e"/>
       <use x="95.410156" xlink:href="#DejaVuSans-30"/>
      </g>
     </g>
    </g>
    <g id="text_7">
     <!-- $\frac{\dot{m}_\mathrm{1} \cdot p_\mathrm{1,ref}}{\dot{m}_\mathrm{1,ref} \cdot p_\mathrm{1}} \cdot \sqrt{\frac{T_1}{T_\mathrm{1,ref}}}$ -->
     <defs>
      <path d="M -29.59375 75.984375 
L -20.609375 75.984375 
L -20.609375 64.59375 
L -29.59375 64.59375 
z
M -25 56 
z
" id="DejaVuSans-307"/>
      <path d="M 89.796875 33.015625 
L 83.40625 0 
L 74.421875 0 
L 80.71875 32.71875 
Q 81.109375 34.8125 81.296875 36.328125 
Q 81.5 37.84375 81.5 38.921875 
Q 81.5 43.3125 79.046875 45.75 
Q 76.609375 48.1875 72.21875 48.1875 
Q 65.671875 48.1875 60.546875 43.28125 
Q 55.421875 38.375 53.90625 30.515625 
L 47.90625 0 
L 38.921875 0 
L 45.3125 32.71875 
Q 45.703125 34.515625 45.890625 36.046875 
Q 46.09375 37.59375 46.09375 38.8125 
Q 46.09375 43.265625 43.65625 45.71875 
Q 41.21875 48.1875 36.921875 48.1875 
Q 30.28125 48.1875 25.140625 43.28125 
Q 20.015625 38.375 18.5 30.515625 
L 12.5 0 
L 3.515625 0 
L 14.203125 54.6875 
L 23.1875 54.6875 
L 21.484375 46.1875 
Q 25.140625 50.984375 30.046875 53.484375 
Q 34.96875 56 40.578125 56 
Q 46.53125 56 50.359375 52.875 
Q 54.203125 49.75 54.984375 44.1875 
Q 59.078125 49.953125 64.46875 52.96875 
Q 69.875 56 75.875 56 
Q 82.90625 56 86.734375 51.953125 
Q 90.578125 47.90625 90.578125 40.484375 
Q 90.578125 38.875 90.375 36.9375 
Q 90.1875 35.015625 89.796875 33.015625 
z
" id="DejaVuSans-Oblique-6d"/>
      <path d="M 10.6875 40.921875 
L 21 40.921875 
L 21 28.515625 
L 10.6875 28.515625 
z
" id="DejaVuSans-22c5"/>
      <path d="M 49.609375 33.6875 
Q 49.609375 40.875 46.484375 44.671875 
Q 43.359375 48.484375 37.5 48.484375 
Q 33.5 48.484375 29.859375 46.4375 
Q 26.21875 44.390625 23.390625 40.484375 
Q 20.609375 36.625 18.9375 31.15625 
Q 17.28125 25.6875 17.28125 20.3125 
Q 17.28125 13.484375 20.40625 9.796875 
Q 23.53125 6.109375 29.296875 6.109375 
Q 33.546875 6.109375 37.1875 8.109375 
Q 40.828125 10.109375 43.40625 13.921875 
Q 46.1875 17.921875 47.890625 23.34375 
Q 49.609375 28.765625 49.609375 33.6875 
z
M 21.78125 46.390625 
Q 25.390625 51.125 30.296875 53.5625 
Q 35.203125 56 41.21875 56 
Q 49.609375 56 54.25 50.5 
Q 58.890625 45.015625 58.890625 35.109375 
Q 58.890625 27 56 19.65625 
Q 53.125 12.3125 47.703125 6.5 
Q 44.09375 2.640625 39.546875 0.609375 
Q 35.015625 -1.421875 29.984375 -1.421875 
Q 24.171875 -1.421875 20.21875 1 
Q 16.265625 3.421875 14.3125 8.203125 
L 8.6875 -20.796875 
L -0.296875 -20.796875 
L 14.40625 54.6875 
L 23.390625 54.6875 
z
" id="DejaVuSans-Oblique-70"/>
      <path d="M 11.71875 12.40625 
L 22.015625 12.40625 
L 22.015625 4 
L 14.015625 -11.625 
L 7.71875 -11.625 
L 11.71875 4 
z
" id="DejaVuSans-2c"/>
      <path d="M 41.109375 46.296875 
Q 39.59375 47.171875 37.8125 47.578125 
Q 36.03125 48 33.890625 48 
Q 26.265625 48 22.1875 43.046875 
Q 18.109375 38.09375 18.109375 28.8125 
L 18.109375 0 
L 9.078125 0 
L 9.078125 54.6875 
L 18.109375 54.6875 
L 18.109375 46.1875 
Q 20.953125 51.171875 25.484375 53.578125 
Q 30.03125 56 36.53125 56 
Q 37.453125 56 38.578125 55.875 
Q 39.703125 55.765625 41.0625 55.515625 
z
" id="DejaVuSans-72"/>
      <path d="M 56.203125 29.59375 
L 56.203125 25.203125 
L 14.890625 25.203125 
Q 15.484375 15.921875 20.484375 11.0625 
Q 25.484375 6.203125 34.421875 6.203125 
Q 39.59375 6.203125 44.453125 7.46875 
Q 49.3125 8.734375 54.109375 11.28125 
L 54.109375 2.78125 
Q 49.265625 0.734375 44.1875 -0.34375 
Q 39.109375 -1.421875 33.890625 -1.421875 
Q 20.796875 -1.421875 13.15625 6.1875 
Q 5.515625 13.8125 5.515625 26.8125 
Q 5.515625 40.234375 12.765625 48.109375 
Q 20.015625 56 32.328125 56 
Q 43.359375 56 49.78125 48.890625 
Q 56.203125 41.796875 56.203125 29.59375 
z
M 47.21875 32.234375 
Q 47.125 39.59375 43.09375 43.984375 
Q 39.0625 48.390625 32.421875 48.390625 
Q 24.90625 48.390625 20.390625 44.140625 
Q 15.875 39.890625 15.1875 32.171875 
z
" id="DejaVuSans-65"/>
      <path d="M 37.109375 75.984375 
L 37.109375 68.5 
L 28.515625 68.5 
Q 23.6875 68.5 21.796875 66.546875 
Q 19.921875 64.59375 19.921875 59.515625 
L 19.921875 54.6875 
L 34.71875 54.6875 
L 34.71875 47.703125 
L 19.921875 47.703125 
L 19.921875 0 
L 10.890625 0 
L 10.890625 47.703125 
L 2.296875 47.703125 
L 2.296875 54.6875 
L 10.890625 54.6875 
L 10.890625 58.5 
Q 10.890625 67.625 15.140625 71.796875 
Q 19.390625 75.984375 28.609375 75.984375 
z
" id="DejaVuSans-66"/>
      <path d="M 108.90625 155.203125 
L 52.703125 -29.5 
L 48.5 -29.5 
L 25.40625 45.59375 
Q 24.296875 49.203125 22.890625 50.796875 
Q 21.5 52.40625 19.203125 52.40625 
Q 15.796875 52.40625 12.40625 49.703125 
L 11.203125 51.703125 
L 27.59375 64.296875 
L 30.09375 64.296875 
L 52.796875 -9.40625 
L 53.203125 -9.40625 
L 103.203125 155.203125 
z
" id="STIXSizeOneSym-Regular-221a"/>
      <path d="M 5.90625 72.90625 
L 67.578125 72.90625 
L 66.015625 64.59375 
L 39.984375 64.59375 
L 27.484375 0 
L 17.578125 0 
L 30.078125 64.59375 
L 4.296875 64.59375 
z
" id="DejaVuSans-Oblique-54"/>
     </defs>
     <g transform="translate(215.7121 324.59395)scale(0.1 -0.1)">
      <use transform="translate(59.765869 70.470625)scale(0.7)" xlink:href="#DejaVuSans-307"/>
      <use transform="translate(0 61.72375)scale(0.7)" xlink:href="#DejaVuSans-Oblique-6d"/>
      <use transform="translate(68.858398 50.239375)scale(0.49)" xlink:href="#DejaVuSans-31"/>
      <use transform="translate(115.585449 61.72375)scale(0.7)" xlink:href="#DejaVuSans-22c5"/>
      <use transform="translate(151.474121 61.72375)scale(0.7)" xlink:href="#DejaVuSans-Oblique-70"/>
      <use transform="translate(195.907715 50.239375)scale(0.49)" xlink:href="#DejaVuSans-31"/>
      <use transform="translate(227.083008 50.239375)scale(0.49)" xlink:href="#DejaVuSans-2c"/>
      <use transform="translate(252.205078 50.239375)scale(0.49)" xlink:href="#DejaVuSans-72"/>
      <use transform="translate(272.350586 50.239375)scale(0.49)" xlink:href="#DejaVuSans-65"/>
      <use transform="translate(302.49707 50.239375)scale(0.49)" xlink:href="#DejaVuSans-66"/>
      <use transform="translate(59.765869 -39.899062)scale(0.7)" xlink:href="#DejaVuSans-307"/>
      <use transform="translate(0 -48.645938)scale(0.7)" xlink:href="#DejaVuSans-Oblique-6d"/>
      <use transform="translate(68.858398 -60.130313)scale(0.49)" xlink:href="#DejaVuSans-31"/>
      <use transform="translate(100.033691 -60.130313)scale(0.49)" xlink:href="#DejaVuSans-2c"/>
      <use transform="translate(125.155762 -60.130313)scale(0.49)" xlink:href="#DejaVuSans-72"/>
      <use transform="translate(145.30127 -60.130313)scale(0.49)" xlink:href="#DejaVuSans-65"/>
      <use transform="translate(175.447754 -60.130313)scale(0.49)" xlink:href="#DejaVuSans-66"/>
      <use transform="translate(208.25 -48.645938)scale(0.7)" xlink:href="#DejaVuSans-22c5"/>
      <use transform="translate(244.138672 -48.645938)scale(0.7)" xlink:href="#DejaVuSans-Oblique-70"/>
      <use transform="translate(288.572266 -60.130313)scale(0.49)" xlink:href="#DejaVuSans-31"/>
      <use transform="translate(353.644043 0.74625)" xlink:href="#DejaVuSans-22c5"/>
      <use transform="translate(404.913574 -23.953125)scale(1.046186)" xlink:href="#STIXSizeOneSym-Regular-221a"/>
      <use transform="translate(574.002182 55.715625)scale(0.7)" xlink:href="#DejaVuSans-Oblique-54"/>
      <use transform="translate(616.760971 44.23125)scale(0.49)" xlink:href="#DejaVuSans-31"/>
      <use transform="translate(528.002182 -38.053125)scale(0.7)" xlink:href="#DejaVuSans-Oblique-54"/>
      <use transform="translate(570.760971 -49.5375)scale(0.49)" xlink:href="#DejaVuSans-31"/>
      <use transform="translate(601.936264 -49.5375)scale(0.49)" xlink:href="#DejaVuSans-2c"/>
      <use transform="translate(627.058334 -49.5375)scale(0.49)" xlink:href="#DejaVuSans-72"/>
      <use transform="translate(647.203842 -49.5375)scale(0.49)" xlink:href="#DejaVuSans-65"/>
      <use transform="translate(677.350327 -49.5375)scale(0.49)" xlink:href="#DejaVuSans-66"/>
      <path d="M 0 19.543125 
L 0 25.793125 
L 321.661621 25.793125 
L 321.661621 19.543125 
L 0 19.543125 
z
"/>
      <path d="M 515.502182 132.5 
L 515.502182 138.75 
L 721.514877 138.75 
L 721.514877 132.5 
L 515.502182 132.5 
z
"/>
      <path d="M 528.002182 19.23125 
L 528.002182 25.48125 
L 696.514877 25.48125 
L 696.514877 19.23125 
L 528.002182 19.23125 
z
"/>
     </g>
    </g>
   </g>
   <g id="matplotlib.axis_2">
    <g id="ytick_1">
     <g id="line2d_13">
      <path clip-path="url(#p5c97ffad50)" d="M 56.1442 250.150539 
L 447.48 250.150539 
" style="fill:none;stroke:#b0b0b0;stroke-dasharray:0.8,1.32;stroke-dashoffset:0;stroke-width:0.8;"/>
     </g>
     <g id="line2d_14">
      <defs>
       <path d="M 0 0 
L -3.5 0 
" id="m28a77aea4e" style="stroke:#000000;stroke-width:0.8;"/>
      </defs>
      <g>
       <use style="stroke:#000000;stroke-width:0.8;" x="56.1442" xlink:href="#m28a77aea4e" y="250.150539"/>
      </g>
     </g>
     <g id="text_8">
      <!-- 0.4 -->
      <defs>
       <path d="M 37.796875 64.3125 
L 12.890625 25.390625 
L 37.796875 25.390625 
z
M 35.203125 72.90625 
L 47.609375 72.90625 
L 47.609375 25.390625 
L 58.015625 25.390625 
L 58.015625 17.1875 
L 47.609375 17.1875 
L 47.609375 0 
L 37.796875 0 
L 37.796875 17.1875 
L 4.890625 17.1875 
L 4.890625 26.703125 
z
" id="DejaVuSans-34"/>
      </defs>
      <g transform="translate(33.241075 253.949758)scale(0.1 -0.1)">
       <use xlink:href="#DejaVuSans-30"/>
       <use x="63.623047" xlink:href="#DejaVuSans-2e"/>
       <use x="95.410156" xlink:href="#DejaVuSans-34"/>
      </g>
     </g>
    </g>
    <g id="ytick_2">
     <g id="line2d_15">
      <path clip-path="url(#p5c97ffad50)" d="M 56.1442 207.061062 
L 447.48 207.061062 
" style="fill:none;stroke:#b0b0b0;stroke-dasharray:0.8,1.32;stroke-dashoffset:0;stroke-width:0.8;"/>
     </g>
     <g id="line2d_16">
      <g>
       <use style="stroke:#000000;stroke-width:0.8;" x="56.1442" xlink:href="#m28a77aea4e" y="207.061062"/>
      </g>
     </g>
     <g id="text_9">
      <!-- 0.6 -->
      <g transform="translate(33.241075 210.86028)scale(0.1 -0.1)">
       <use xlink:href="#DejaVuSans-30"/>
       <use x="63.623047" xlink:href="#DejaVuSans-2e"/>
       <use x="95.410156" xlink:href="#DejaVuSans-36"/>
      </g>
     </g>
    </g>
    <g id="ytick_3">
     <g id="line2d_17">
      <path clip-path="url(#p5c97ffad50)" d="M 56.1442 163.971585 
L 447.48 163.971585 
" style="fill:none;stroke:#b0b0b0;stroke-dasharray:0.8,1.32;stroke-dashoffset:0;stroke-width:0.8;"/>
     </g>
     <g id="line2d_18">
      <g>
       <use style="stroke:#000000;stroke-width:0.8;" x="56.1442" xlink:href="#m28a77aea4e" y="163.971585"/>
      </g>
     </g>
     <g id="text_10">
      <!-- 0.8 -->
      <g transform="translate(33.241075 167.770803)scale(0.1 -0.1)">
       <use xlink:href="#DejaVuSans-30"/>
       <use x="63.623047" xlink:href="#DejaVuSans-2e"/>
       <use x="95.410156" xlink:href="#DejaVuSans-38"/>
      </g>
     </g>
    </g>
    <g id="ytick_4">
     <g id="line2d_19">
      <path clip-path="url(#p5c97ffad50)" d="M 56.1442 120.882107 
L 447.48 120.882107 
" style="fill:none;stroke:#b0b0b0;stroke-dasharray:0.8,1.32;stroke-dashoffset:0;stroke-width:0.8;"/>
     </g>
     <g id="line2d_20">
      <g>
       <use style="stroke:#000000;stroke-width:0.8;" x="56.1442" xlink:href="#m28a77aea4e" y="120.882107"/>
      </g>
     </g>
     <g id="text_11">
      <!-- 1.0 -->
      <g transform="translate(33.241075 124.681326)scale(0.1 -0.1)">
       <use xlink:href="#DejaVuSans-31"/>
       <use x="63.623047" xlink:href="#DejaVuSans-2e"/>
       <use x="95.410156" xlink:href="#DejaVuSans-30"/>
      </g>
     </g>
    </g>
    <g id="ytick_5">
     <g id="line2d_21">
      <path clip-path="url(#p5c97ffad50)" d="M 56.1442 77.79263 
L 447.48 77.79263 
" style="fill:none;stroke:#b0b0b0;stroke-dasharray:0.8,1.32;stroke-dashoffset:0;stroke-width:0.8;"/>
     </g>
     <g id="line2d_22">
      <g>
       <use style="stroke:#000000;stroke-width:0.8;" x="56.1442" xlink:href="#m28a77aea4e" y="77.79263"/>
      </g>
     </g>
     <g id="text_12">
      <!-- 1.2 -->
      <defs>
       <path d="M 19.1875 8.296875 
L 53.609375 8.296875 
L 53.609375 0 
L 7.328125 0 
L 7.328125 8.296875 
Q 12.9375 14.109375 22.625 23.890625 
Q 32.328125 33.6875 34.8125 36.53125 
Q 39.546875 41.84375 41.421875 45.53125 
Q 43.3125 49.21875 43.3125 52.78125 
Q 43.3125 58.59375 39.234375 62.25 
Q 35.15625 65.921875 28.609375 65.921875 
Q 23.96875 65.921875 18.8125 64.3125 
Q 13.671875 62.703125 7.8125 59.421875 
L 7.8125 69.390625 
Q 13.765625 71.78125 18.9375 73 
Q 24.125 74.21875 28.421875 74.21875 
Q 39.75 74.21875 46.484375 68.546875 
Q 53.21875 62.890625 53.21875 53.421875 
Q 53.21875 48.921875 51.53125 44.890625 
Q 49.859375 40.875 45.40625 35.40625 
Q 44.1875 33.984375 37.640625 27.21875 
Q 31.109375 20.453125 19.1875 8.296875 
z
" id="DejaVuSans-32"/>
      </defs>
      <g transform="translate(33.241075 81.591849)scale(0.1 -0.1)">
       <use xlink:href="#DejaVuSans-31"/>
       <use x="63.623047" xlink:href="#DejaVuSans-2e"/>
       <use x="95.410156" xlink:href="#DejaVuSans-32"/>
      </g>
     </g>
    </g>
    <g id="ytick_6">
     <g id="line2d_23">
      <path clip-path="url(#p5c97ffad50)" d="M 56.1442 34.703153 
L 447.48 34.703153 
" style="fill:none;stroke:#b0b0b0;stroke-dasharray:0.8,1.32;stroke-dashoffset:0;stroke-width:0.8;"/>
     </g>
     <g id="line2d_24">
      <g>
       <use style="stroke:#000000;stroke-width:0.8;" x="56.1442" xlink:href="#m28a77aea4e" y="34.703153"/>
      </g>
     </g>
     <g id="text_13">
      <!-- 1.4 -->
      <g transform="translate(33.241075 38.502372)scale(0.1 -0.1)">
       <use xlink:href="#DejaVuSans-31"/>
       <use x="63.623047" xlink:href="#DejaVuSans-2e"/>
       <use x="95.410156" xlink:href="#DejaVuSans-34"/>
      </g>
     </g>
    </g>
    <g id="text_14">
     <!-- $\frac{p_2 \cdot p_\mathrm{1,ref}}{p_\mathrm{2,ref} \cdot p_\mathrm{1}}$ -->
     <g transform="translate(24.841075 166.867912)rotate(-90)scale(0.1 -0.1)">
      <use transform="translate(0 61.8)scale(0.7)" xlink:href="#DejaVuSans-Oblique-70"/>
      <use transform="translate(44.433594 50.315625)scale(0.49)" xlink:href="#DejaVuSans-32"/>
      <use transform="translate(91.160645 61.8)scale(0.7)" xlink:href="#DejaVuSans-22c5"/>
      <use transform="translate(127.049316 61.8)scale(0.7)" xlink:href="#DejaVuSans-Oblique-70"/>
      <use transform="translate(171.48291 50.315625)scale(0.49)" xlink:href="#DejaVuSans-31"/>
      <use transform="translate(202.658203 50.315625)scale(0.49)" xlink:href="#DejaVuSans-2c"/>
      <use transform="translate(227.780273 50.315625)scale(0.49)" xlink:href="#DejaVuSans-72"/>
      <use transform="translate(247.925781 50.315625)scale(0.49)" xlink:href="#DejaVuSans-65"/>
      <use transform="translate(278.072266 50.315625)scale(0.49)" xlink:href="#DejaVuSans-66"/>
      <use transform="translate(0 -25.830625)scale(0.7)" xlink:href="#DejaVuSans-Oblique-70"/>
      <use transform="translate(44.433594 -37.315)scale(0.49)" xlink:href="#DejaVuSans-32"/>
      <use transform="translate(75.608887 -37.315)scale(0.49)" xlink:href="#DejaVuSans-2c"/>
      <use transform="translate(100.730957 -37.315)scale(0.49)" xlink:href="#DejaVuSans-72"/>
      <use transform="translate(120.876465 -37.315)scale(0.49)" xlink:href="#DejaVuSans-65"/>
      <use transform="translate(151.022949 -37.315)scale(0.49)" xlink:href="#DejaVuSans-66"/>
      <use transform="translate(183.825195 -25.830625)scale(0.7)" xlink:href="#DejaVuSans-22c5"/>
      <use transform="translate(219.713867 -25.830625)scale(0.7)" xlink:href="#DejaVuSans-Oblique-70"/>
      <use transform="translate(264.147461 -37.315)scale(0.49)" xlink:href="#DejaVuSans-31"/>
      <path d="M 0 19.619375 
L 0 25.869375 
L 297.236816 25.869375 
L 297.236816 19.619375 
L 0 19.619375 
z
"/>
     </g>
    </g>
   </g>
   <g id="line2d_25">
    <defs>
     <path d="M -3 3 
L 3 -3 
M -3 -3 
L 3 3 
" id="mdf65189e6b" style="stroke:#466b85;stroke-width:2;"/>
    </defs>
    <g clip-path="url(#p5c97ffad50)">
     <use style="fill:#466b85;stroke:#466b85;stroke-width:2;" x="73.932191" xlink:href="#mdf65189e6b" y="228.174906"/>
     <use style="fill:#466b85;stroke:#466b85;stroke-width:2;" x="151.530809" xlink:href="#mdf65189e6b" y="196.288692"/>
     <use style="fill:#466b85;stroke:#466b85;stroke-width:2;" x="257.184312" xlink:href="#mdf65189e6b" y="135.747977"/>
     <use style="fill:#466b85;stroke:#466b85;stroke-width:2;" x="321.053944" xlink:href="#mdf65189e6b" y="110.109738"/>
     <use style="fill:#466b85;stroke:#466b85;stroke-width:2;" x="365.225465" xlink:href="#mdf65189e6b" y="78.869867"/>
     <use style="fill:#466b85;stroke:#466b85;stroke-width:2;" x="404.621686" xlink:href="#mdf65189e6b" y="47.629996"/>
     <use style="fill:#466b85;stroke:#466b85;stroke-width:2;" x="423.125972" xlink:href="#mdf65189e6b" y="25.86981"/>
    </g>
   </g>
   <g id="line2d_26">
    <g clip-path="url(#p5c97ffad50)">
     <use style="fill:#466b85;stroke:#466b85;stroke-width:2;" x="93.709609" xlink:href="#mdf65189e6b" y="230.007735"/>
     <use style="fill:#466b85;stroke:#466b85;stroke-width:2;" x="172.245629" xlink:href="#mdf65189e6b" y="199.153491"/>
     <use style="fill:#466b85;stroke:#466b85;stroke-width:2;" x="280.061514" xlink:href="#mdf65189e6b" y="138.765036"/>
     <use style="fill:#466b85;stroke:#466b85;stroke-width:2;" x="341.087846" xlink:href="#mdf65189e6b" y="116.514305"/>
     <use style="fill:#466b85;stroke:#466b85;stroke-width:2;" x="380.624415" xlink:href="#mdf65189e6b" y="88.265722"/>
     <use style="fill:#466b85;stroke:#466b85;stroke-width:2;" x="406.388727" xlink:href="#mdf65189e6b" y="61.342465"/>
     <use style="fill:#466b85;stroke:#466b85;stroke-width:2;" x="424.24002" xlink:href="#mdf65189e6b" y="41.092178"/>
    </g>
   </g>
   <g id="line2d_27">
    <g clip-path="url(#p5c97ffad50)">
     <use style="fill:#466b85;stroke:#466b85;stroke-width:2;" x="113.487027" xlink:href="#mdf65189e6b" y="231.840565"/>
     <use style="fill:#466b85;stroke:#466b85;stroke-width:2;" x="191.026697" xlink:href="#mdf65189e6b" y="203.498856"/>
     <use style="fill:#466b85;stroke:#466b85;stroke-width:2;" x="299.30162" xlink:href="#mdf65189e6b" y="143.83988"/>
     <use style="fill:#466b85;stroke:#466b85;stroke-width:2;" x="354.297768" xlink:href="#mdf65189e6b" y="124.834439"/>
     <use style="fill:#466b85;stroke:#466b85;stroke-width:2;" x="388.303815" xlink:href="#mdf65189e6b" y="98.842563"/>
     <use style="fill:#466b85;stroke:#466b85;stroke-width:2;" x="408.155768" xlink:href="#mdf65189e6b" y="75.054933"/>
     <use style="fill:#466b85;stroke:#466b85;stroke-width:2;" x="425.354068" xlink:href="#mdf65189e6b" y="56.314546"/>
    </g>
   </g>
   <g id="line2d_28">
    <g clip-path="url(#p5c97ffad50)">
     <use style="fill:#466b85;stroke:#466b85;stroke-width:2;" x="130.356842" xlink:href="#mdf65189e6b" y="235.783806"/>
     <use style="fill:#466b85;stroke:#466b85;stroke-width:2;" x="205.584584" xlink:href="#mdf65189e6b" y="209.506813"/>
     <use style="fill:#466b85;stroke:#466b85;stroke-width:2;" x="311.916702" xlink:href="#mdf65189e6b" y="151.334264"/>
     <use style="fill:#466b85;stroke:#466b85;stroke-width:2;" x="362.05267" xlink:href="#mdf65189e6b" y="134.056176"/>
     <use style="fill:#466b85;stroke:#466b85;stroke-width:2;" x="392.987632" xlink:href="#mdf65189e6b" y="109.644659"/>
     <use style="fill:#466b85;stroke:#466b85;stroke-width:2;" x="409.922809" xlink:href="#mdf65189e6b" y="88.767401"/>
     <use style="fill:#466b85;stroke:#466b85;stroke-width:2;" x="426.468115" xlink:href="#mdf65189e6b" y="71.536913"/>
    </g>
   </g>
   <g id="line2d_29">
    <g clip-path="url(#p5c97ffad50)">
     <use style="fill:#466b85;stroke:#466b85;stroke-width:2;" x="144.050372" xlink:href="#mdf65189e6b" y="241.020662"/>
     <use style="fill:#466b85;stroke:#466b85;stroke-width:2;" x="216.267061" xlink:href="#mdf65189e6b" y="216.575585"/>
     <use style="fill:#466b85;stroke:#466b85;stroke-width:2;" x="318.818021" xlink:href="#mdf65189e6b" y="159.765127"/>
     <use style="fill:#466b85;stroke:#466b85;stroke-width:2;" x="368.320079" xlink:href="#mdf65189e6b" y="143.446228"/>
     <use style="fill:#466b85;stroke:#466b85;stroke-width:2;" x="396.159579" xlink:href="#mdf65189e6b" y="120.520931"/>
     <use style="fill:#466b85;stroke:#466b85;stroke-width:2;" x="411.68985" xlink:href="#mdf65189e6b" y="102.47987"/>
     <use style="fill:#466b85;stroke:#466b85;stroke-width:2;" x="427.417781" xlink:href="#mdf65189e6b" y="86.760385"/>
    </g>
   </g>
   <g id="line2d_30">
    <g clip-path="url(#p5c97ffad50)">
     <use style="fill:#466b85;stroke:#466b85;stroke-width:2;" x="151.502082" xlink:href="#mdf65189e6b" y="247.861534"/>
     <use style="fill:#466b85;stroke:#466b85;stroke-width:2;" x="219.120405" xlink:href="#mdf65189e6b" y="224.507144"/>
     <use style="fill:#466b85;stroke:#466b85;stroke-width:2;" x="321.977969" xlink:href="#mdf65189e6b" y="168.474449"/>
     <use style="fill:#466b85;stroke:#466b85;stroke-width:2;" x="373.077088" xlink:href="#mdf65189e6b" y="152.915848"/>
     <use style="fill:#466b85;stroke:#466b85;stroke-width:2;" x="397.632288" xlink:href="#mdf65189e6b" y="131.443773"/>
     <use style="fill:#466b85;stroke:#466b85;stroke-width:2;" x="412.926675" xlink:href="#mdf65189e6b" y="116.199826"/>
     <use style="fill:#466b85;stroke:#466b85;stroke-width:2;" x="427.872627" xlink:href="#mdf65189e6b" y="101.987177"/>
    </g>
   </g>
   <g id="line2d_31">
    <g clip-path="url(#p5c97ffad50)">
     <use style="fill:#466b85;stroke:#466b85;stroke-width:2;" x="157.153219" xlink:href="#mdf65189e6b" y="254.941116"/>
     <use style="fill:#466b85;stroke:#466b85;stroke-width:2;" x="222.153916" xlink:href="#mdf65189e6b" y="232.484305"/>
     <use style="fill:#466b85;stroke:#466b85;stroke-width:2;" x="323.183993" xlink:href="#mdf65189e6b" y="177.245674"/>
     <use style="fill:#466b85;stroke:#466b85;stroke-width:2;" x="373.501832" xlink:href="#mdf65189e6b" y="162.574098"/>
     <use style="fill:#466b85;stroke:#466b85;stroke-width:2;" x="399.046632" xlink:href="#mdf65189e6b" y="142.368215"/>
     <use style="fill:#466b85;stroke:#466b85;stroke-width:2;" x="414.133446" xlink:href="#mdf65189e6b" y="129.920206"/>
     <use style="fill:#466b85;stroke:#466b85;stroke-width:2;" x="428.327473" xlink:href="#mdf65189e6b" y="117.21397"/>
    </g>
   </g>
   <g id="line2d_32">
    <g clip-path="url(#p5c97ffad50)">
     <use style="fill:#466b85;stroke:#466b85;stroke-width:2;" x="160.71117" xlink:href="#mdf65189e6b" y="262.195328"/>
     <use style="fill:#466b85;stroke:#466b85;stroke-width:2;" x="223.284278" xlink:href="#mdf65189e6b" y="240.521299"/>
     <use style="fill:#466b85;stroke:#466b85;stroke-width:2;" x="323.667802" xlink:href="#mdf65189e6b" y="186.035084"/>
     <use style="fill:#466b85;stroke:#466b85;stroke-width:2;" x="373.926576" xlink:href="#mdf65189e6b" y="172.232349"/>
     <use style="fill:#466b85;stroke:#466b85;stroke-width:2;" x="399.428466" xlink:href="#mdf65189e6b" y="153.302644"/>
     <use style="fill:#466b85;stroke:#466b85;stroke-width:2;" x="415.340217" xlink:href="#mdf65189e6b" y="143.640587"/>
     <use style="fill:#466b85;stroke:#466b85;stroke-width:2;" x="428.782318" xlink:href="#mdf65189e6b" y="132.440762"/>
    </g>
   </g>
   <g id="line2d_33">
    <g clip-path="url(#p5c97ffad50)">
     <use style="fill:#466b85;stroke:#466b85;stroke-width:2;" x="162.687026" xlink:href="#mdf65189e6b" y="269.530671"/>
     <use style="fill:#466b85;stroke:#466b85;stroke-width:2;" x="224.117659" xlink:href="#mdf65189e6b" y="248.56763"/>
     <use style="fill:#466b85;stroke:#466b85;stroke-width:2;" x="324.15161" xlink:href="#mdf65189e6b" y="194.824494"/>
     <use style="fill:#466b85;stroke:#466b85;stroke-width:2;" x="374.35132" xlink:href="#mdf65189e6b" y="181.890599"/>
     <use style="fill:#466b85;stroke:#466b85;stroke-width:2;" x="399.637426" xlink:href="#mdf65189e6b" y="164.238746"/>
     <use style="fill:#466b85;stroke:#466b85;stroke-width:2;" x="416.546989" xlink:href="#mdf65189e6b" y="157.360968"/>
     <use style="fill:#466b85;stroke:#466b85;stroke-width:2;" x="429.237164" xlink:href="#mdf65189e6b" y="147.667555"/>
    </g>
   </g>
   <g id="line2d_34">
    <g clip-path="url(#p5c97ffad50)">
     <use style="fill:#466b85;stroke:#466b85;stroke-width:2;" x="164.662883" xlink:href="#mdf65189e6b" y="276.866015"/>
     <use style="fill:#466b85;stroke:#466b85;stroke-width:2;" x="224.95104" xlink:href="#mdf65189e6b" y="256.613961"/>
     <use style="fill:#466b85;stroke:#466b85;stroke-width:2;" x="324.635418" xlink:href="#mdf65189e6b" y="203.613904"/>
     <use style="fill:#466b85;stroke:#466b85;stroke-width:2;" x="374.776064" xlink:href="#mdf65189e6b" y="191.54885"/>
     <use style="fill:#466b85;stroke:#466b85;stroke-width:2;" x="399.846387" xlink:href="#mdf65189e6b" y="175.174849"/>
     <use style="fill:#466b85;stroke:#466b85;stroke-width:2;" x="417.75376" xlink:href="#mdf65189e6b" y="171.081348"/>
     <use style="fill:#466b85;stroke:#466b85;stroke-width:2;" x="429.692009" xlink:href="#mdf65189e6b" y="162.894348"/>
    </g>
   </g>
   <g id="patch_3">
    <path d="M 56.1442 289.415825 
L 56.1442 13.32 
" style="fill:none;stroke:#000000;stroke-linecap:square;stroke-linejoin:miter;stroke-width:0.8;"/>
   </g>
   <g id="patch_4">
    <path d="M 447.48 289.415825 
L 447.48 13.32 
" style="fill:none;stroke:#000000;stroke-linecap:square;stroke-linejoin:miter;stroke-width:0.8;"/>
   </g>
   <g id="patch_5">
    <path d="M 56.1442 289.415825 
L 447.48 289.415825 
" style="fill:none;stroke:#000000;stroke-linecap:square;stroke-linejoin:miter;stroke-width:0.8;"/>
   </g>
   <g id="patch_6">
    <path d="M 56.1442 13.32 
L 447.48 13.32 
" style="fill:none;stroke:#000000;stroke-linecap:square;stroke-linejoin:miter;stroke-width:0.8;"/>
   </g>
  </g>
 </g>
 <defs>
  <clipPath id="p5c97ffad50">
   <rect height="276.095825" width="391.3358" x="56.1442" y="13.32"/>
  </clipPath>
 </defs>
</svg>
