<?xml version="1.0" encoding="utf-8" standalone="no"?>
<!DOCTYPE svg PUBLIC "-//W3C//DTD SVG 1.1//EN"
  "http://www.w3.org/Graphics/SVG/1.1/DTD/svg11.dtd">
<!-- Created with matplotlib (http://matplotlib.org/) -->
<svg height="368.39625pt" version="1.1" viewBox="0 0 484.73625 368.39625" width="484.73625pt" xmlns="http://www.w3.org/2000/svg" xmlns:xlink="http://www.w3.org/1999/xlink">
 <defs>
  <style type="text/css">
*{stroke-linecap:butt;stroke-linejoin:round;}
  </style>
 </defs>
 <g id="figure_1">
  <g id="patch_1">
   <path d="M 0 368.39625 
L 484.73625 368.39625 
L 484.73625 0 
L 0 0 
z
" style="fill:#ffffff;"/>
  </g>
  <g id="axes_1">
   <g id="patch_2">
    <path d="M 48.703125 326.718125 
L 435.833125 326.718125 
L 435.833125 22.318125 
L 48.703125 22.318125 
z
" style="fill:#ffffff;"/>
   </g>
   <g id="matplotlib.axis_1">
    <g id="xtick_1">
     <g id="line2d_1">
      <defs>
       <path d="M 0 0 
L 0 3.5 
" id="m35a0349403" style="stroke:#000000;stroke-width:0.8;"/>
      </defs>
      <g>
       <use style="stroke:#000000;stroke-width:0.8;" x="89.919833" xlink:href="#m35a0349403" y="326.718125"/>
      </g>
     </g>
     <g id="text_1">
      <!-- 0.5 -->
      <defs>
       <path d="M 31.78125 66.40625 
Q 24.171875 66.40625 20.328125 58.90625 
Q 16.5 51.421875 16.5 36.375 
Q 16.5 21.390625 20.328125 13.890625 
Q 24.171875 6.390625 31.78125 6.390625 
Q 39.453125 6.390625 43.28125 13.890625 
Q 47.125 21.390625 47.125 36.375 
Q 47.125 51.421875 43.28125 58.90625 
Q 39.453125 66.40625 31.78125 66.40625 
z
M 31.78125 74.21875 
Q 44.046875 74.21875 50.515625 64.515625 
Q 56.984375 54.828125 56.984375 36.375 
Q 56.984375 17.96875 50.515625 8.265625 
Q 44.046875 -1.421875 31.78125 -1.421875 
Q 19.53125 -1.421875 13.0625 8.265625 
Q 6.59375 17.96875 6.59375 36.375 
Q 6.59375 54.828125 13.0625 64.515625 
Q 19.53125 74.21875 31.78125 74.21875 
z
" id="DejaVuSans-30"/>
       <path d="M 10.6875 12.40625 
L 21 12.40625 
L 21 0 
L 10.6875 0 
z
" id="DejaVuSans-2e"/>
       <path d="M 10.796875 72.90625 
L 49.515625 72.90625 
L 49.515625 64.59375 
L 19.828125 64.59375 
L 19.828125 46.734375 
Q 21.96875 47.46875 24.109375 47.828125 
Q 26.265625 48.1875 28.421875 48.1875 
Q 40.625 48.1875 47.75 41.5 
Q 54.890625 34.8125 54.890625 23.390625 
Q 54.890625 11.625 47.5625 5.09375 
Q 40.234375 -1.421875 26.90625 -1.421875 
Q 22.3125 -1.421875 17.546875 -0.640625 
Q 12.796875 0.140625 7.71875 1.703125 
L 7.71875 11.625 
Q 12.109375 9.234375 16.796875 8.0625 
Q 21.484375 6.890625 26.703125 6.890625 
Q 35.15625 6.890625 40.078125 11.328125 
Q 45.015625 15.765625 45.015625 23.390625 
Q 45.015625 31 40.078125 35.4375 
Q 35.15625 39.890625 26.703125 39.890625 
Q 22.75 39.890625 18.8125 39.015625 
Q 14.890625 38.140625 10.796875 36.28125 
z
" id="DejaVuSans-35"/>
      </defs>
      <g transform="translate(81.968271 341.316562)scale(0.1 -0.1)">
       <use xlink:href="#DejaVuSans-30"/>
       <use x="63.623047" xlink:href="#DejaVuSans-2e"/>
       <use x="95.410156" xlink:href="#DejaVuSans-35"/>
      </g>
     </g>
    </g>
    <g id="xtick_2">
     <g id="line2d_2">
      <g>
       <use style="stroke:#000000;stroke-width:0.8;" x="148.969559" xlink:href="#m35a0349403" y="326.718125"/>
      </g>
     </g>
     <g id="text_2">
      <!-- 0.6 -->
      <defs>
       <path d="M 33.015625 40.375 
Q 26.375 40.375 22.484375 35.828125 
Q 18.609375 31.296875 18.609375 23.390625 
Q 18.609375 15.53125 22.484375 10.953125 
Q 26.375 6.390625 33.015625 6.390625 
Q 39.65625 6.390625 43.53125 10.953125 
Q 47.40625 15.53125 47.40625 23.390625 
Q 47.40625 31.296875 43.53125 35.828125 
Q 39.65625 40.375 33.015625 40.375 
z
M 52.59375 71.296875 
L 52.59375 62.3125 
Q 48.875 64.0625 45.09375 64.984375 
Q 41.3125 65.921875 37.59375 65.921875 
Q 27.828125 65.921875 22.671875 59.328125 
Q 17.53125 52.734375 16.796875 39.40625 
Q 19.671875 43.65625 24.015625 45.921875 
Q 28.375 48.1875 33.59375 48.1875 
Q 44.578125 48.1875 50.953125 41.515625 
Q 57.328125 34.859375 57.328125 23.390625 
Q 57.328125 12.15625 50.6875 5.359375 
Q 44.046875 -1.421875 33.015625 -1.421875 
Q 20.359375 -1.421875 13.671875 8.265625 
Q 6.984375 17.96875 6.984375 36.375 
Q 6.984375 53.65625 15.1875 63.9375 
Q 23.390625 74.21875 37.203125 74.21875 
Q 40.921875 74.21875 44.703125 73.484375 
Q 48.484375 72.75 52.59375 71.296875 
z
" id="DejaVuSans-36"/>
      </defs>
      <g transform="translate(141.017996 341.316562)scale(0.1 -0.1)">
       <use xlink:href="#DejaVuSans-30"/>
       <use x="63.623047" xlink:href="#DejaVuSans-2e"/>
       <use x="95.410156" xlink:href="#DejaVuSans-36"/>
      </g>
     </g>
    </g>
    <g id="xtick_3">
     <g id="line2d_3">
      <g>
       <use style="stroke:#000000;stroke-width:0.8;" x="208.019284" xlink:href="#m35a0349403" y="326.718125"/>
      </g>
     </g>
     <g id="text_3">
      <!-- 0.7 -->
      <defs>
       <path d="M 8.203125 72.90625 
L 55.078125 72.90625 
L 55.078125 68.703125 
L 28.609375 0 
L 18.3125 0 
L 43.21875 64.59375 
L 8.203125 64.59375 
z
" id="DejaVuSans-37"/>
      </defs>
      <g transform="translate(200.067722 341.316562)scale(0.1 -0.1)">
       <use xlink:href="#DejaVuSans-30"/>
       <use x="63.623047" xlink:href="#DejaVuSans-2e"/>
       <use x="95.410156" xlink:href="#DejaVuSans-37"/>
      </g>
     </g>
    </g>
    <g id="xtick_4">
     <g id="line2d_4">
      <g>
       <use style="stroke:#000000;stroke-width:0.8;" x="267.06901" xlink:href="#m35a0349403" y="326.718125"/>
      </g>
     </g>
     <g id="text_4">
      <!-- 0.8 -->
      <defs>
       <path d="M 31.78125 34.625 
Q 24.75 34.625 20.71875 30.859375 
Q 16.703125 27.09375 16.703125 20.515625 
Q 16.703125 13.921875 20.71875 10.15625 
Q 24.75 6.390625 31.78125 6.390625 
Q 38.8125 6.390625 42.859375 10.171875 
Q 46.921875 13.96875 46.921875 20.515625 
Q 46.921875 27.09375 42.890625 30.859375 
Q 38.875 34.625 31.78125 34.625 
z
M 21.921875 38.8125 
Q 15.578125 40.375 12.03125 44.71875 
Q 8.5 49.078125 8.5 55.328125 
Q 8.5 64.0625 14.71875 69.140625 
Q 20.953125 74.21875 31.78125 74.21875 
Q 42.671875 74.21875 48.875 69.140625 
Q 55.078125 64.0625 55.078125 55.328125 
Q 55.078125 49.078125 51.53125 44.71875 
Q 48 40.375 41.703125 38.8125 
Q 48.828125 37.15625 52.796875 32.3125 
Q 56.78125 27.484375 56.78125 20.515625 
Q 56.78125 9.90625 50.3125 4.234375 
Q 43.84375 -1.421875 31.78125 -1.421875 
Q 19.734375 -1.421875 13.25 4.234375 
Q 6.78125 9.90625 6.78125 20.515625 
Q 6.78125 27.484375 10.78125 32.3125 
Q 14.796875 37.15625 21.921875 38.8125 
z
M 18.3125 54.390625 
Q 18.3125 48.734375 21.84375 45.5625 
Q 25.390625 42.390625 31.78125 42.390625 
Q 38.140625 42.390625 41.71875 45.5625 
Q 45.3125 48.734375 45.3125 54.390625 
Q 45.3125 60.0625 41.71875 63.234375 
Q 38.140625 66.40625 31.78125 66.40625 
Q 25.390625 66.40625 21.84375 63.234375 
Q 18.3125 60.0625 18.3125 54.390625 
z
" id="DejaVuSans-38"/>
      </defs>
      <g transform="translate(259.117447 341.316562)scale(0.1 -0.1)">
       <use xlink:href="#DejaVuSans-30"/>
       <use x="63.623047" xlink:href="#DejaVuSans-2e"/>
       <use x="95.410156" xlink:href="#DejaVuSans-38"/>
      </g>
     </g>
    </g>
    <g id="xtick_5">
     <g id="line2d_5">
      <g>
       <use style="stroke:#000000;stroke-width:0.8;" x="326.118735" xlink:href="#m35a0349403" y="326.718125"/>
      </g>
     </g>
     <g id="text_5">
      <!-- 0.9 -->
      <defs>
       <path d="M 10.984375 1.515625 
L 10.984375 10.5 
Q 14.703125 8.734375 18.5 7.8125 
Q 22.3125 6.890625 25.984375 6.890625 
Q 35.75 6.890625 40.890625 13.453125 
Q 46.046875 20.015625 46.78125 33.40625 
Q 43.953125 29.203125 39.59375 26.953125 
Q 35.25 24.703125 29.984375 24.703125 
Q 19.046875 24.703125 12.671875 31.3125 
Q 6.296875 37.9375 6.296875 49.421875 
Q 6.296875 60.640625 12.9375 67.421875 
Q 19.578125 74.21875 30.609375 74.21875 
Q 43.265625 74.21875 49.921875 64.515625 
Q 56.59375 54.828125 56.59375 36.375 
Q 56.59375 19.140625 48.40625 8.859375 
Q 40.234375 -1.421875 26.421875 -1.421875 
Q 22.703125 -1.421875 18.890625 -0.6875 
Q 15.09375 0.046875 10.984375 1.515625 
z
M 30.609375 32.421875 
Q 37.25 32.421875 41.125 36.953125 
Q 45.015625 41.5 45.015625 49.421875 
Q 45.015625 57.28125 41.125 61.84375 
Q 37.25 66.40625 30.609375 66.40625 
Q 23.96875 66.40625 20.09375 61.84375 
Q 16.21875 57.28125 16.21875 49.421875 
Q 16.21875 41.5 20.09375 36.953125 
Q 23.96875 32.421875 30.609375 32.421875 
z
" id="DejaVuSans-39"/>
      </defs>
      <g transform="translate(318.167173 341.316562)scale(0.1 -0.1)">
       <use xlink:href="#DejaVuSans-30"/>
       <use x="63.623047" xlink:href="#DejaVuSans-2e"/>
       <use x="95.410156" xlink:href="#DejaVuSans-39"/>
      </g>
     </g>
    </g>
    <g id="xtick_6">
     <g id="line2d_6">
      <g>
       <use style="stroke:#000000;stroke-width:0.8;" x="385.168461" xlink:href="#m35a0349403" y="326.718125"/>
      </g>
     </g>
     <g id="text_6">
      <!-- 1.0 -->
      <defs>
       <path d="M 12.40625 8.296875 
L 28.515625 8.296875 
L 28.515625 63.921875 
L 10.984375 60.40625 
L 10.984375 69.390625 
L 28.421875 72.90625 
L 38.28125 72.90625 
L 38.28125 8.296875 
L 54.390625 8.296875 
L 54.390625 0 
L 12.40625 0 
z
" id="DejaVuSans-31"/>
      </defs>
      <g transform="translate(377.216898 341.316562)scale(0.1 -0.1)">
       <use xlink:href="#DejaVuSans-31"/>
       <use x="63.623047" xlink:href="#DejaVuSans-2e"/>
       <use x="95.410156" xlink:href="#DejaVuSans-30"/>
      </g>
     </g>
    </g>
    <g id="text_7">
     <!-- $\frac{y}{y_0}$ -->
     <defs>
      <path d="M 24.8125 -5.078125 
Q 18.5625 -15.578125 14.625 -18.1875 
Q 10.6875 -20.796875 4.59375 -20.796875 
L -2.484375 -20.796875 
L -0.984375 -13.28125 
L 4.203125 -13.28125 
Q 7.953125 -13.28125 10.59375 -11.234375 
Q 13.234375 -9.1875 16.5 -3.21875 
L 19.28125 2 
L 7.171875 54.6875 
L 16.703125 54.6875 
L 25.78125 12.796875 
L 50.875 54.6875 
L 60.296875 54.6875 
z
" id="DejaVuSans-Oblique-79"/>
     </defs>
     <g transform="translate(237.868125 357.09625)scale(0.1 -0.1)">
      <use transform="translate(17 58.71875)scale(0.7)" xlink:href="#DejaVuSans-Oblique-79"/>
      <use transform="translate(0 -25.370312)scale(0.7)" xlink:href="#DejaVuSans-Oblique-79"/>
      <use transform="translate(41.425781 -36.854688)scale(0.49)" xlink:href="#DejaVuSans-30"/>
      <path d="M 0 19.160938 
L 0 25.410938 
L 74.515137 25.410938 
L 74.515137 19.160938 
L 0 19.160938 
z
"/>
     </g>
    </g>
   </g>
   <g id="matplotlib.axis_2">
    <g id="ytick_1">
     <g id="line2d_7">
      <defs>
       <path d="M 0 0 
L -3.5 0 
" id="mbb5363d797" style="stroke:#000000;stroke-width:0.8;"/>
      </defs>
      <g>
       <use style="stroke:#000000;stroke-width:0.8;" x="48.703125" xlink:href="#mbb5363d797" y="283.427528"/>
      </g>
     </g>
     <g id="text_8">
      <!-- 0.4 -->
      <defs>
       <path d="M 37.796875 64.3125 
L 12.890625 25.390625 
L 37.796875 25.390625 
z
M 35.203125 72.90625 
L 47.609375 72.90625 
L 47.609375 25.390625 
L 58.015625 25.390625 
L 58.015625 17.1875 
L 47.609375 17.1875 
L 47.609375 0 
L 37.796875 0 
L 37.796875 17.1875 
L 4.890625 17.1875 
L 4.890625 26.703125 
z
" id="DejaVuSans-34"/>
      </defs>
      <g transform="translate(25.8 287.226747)scale(0.1 -0.1)">
       <use xlink:href="#DejaVuSans-30"/>
       <use x="63.623047" xlink:href="#DejaVuSans-2e"/>
       <use x="95.410156" xlink:href="#DejaVuSans-34"/>
      </g>
     </g>
    </g>
    <g id="ytick_2">
     <g id="line2d_8">
      <g>
       <use style="stroke:#000000;stroke-width:0.8;" x="48.703125" xlink:href="#mbb5363d797" y="235.9207"/>
      </g>
     </g>
     <g id="text_9">
      <!-- 0.6 -->
      <g transform="translate(25.8 239.719919)scale(0.1 -0.1)">
       <use xlink:href="#DejaVuSans-30"/>
       <use x="63.623047" xlink:href="#DejaVuSans-2e"/>
       <use x="95.410156" xlink:href="#DejaVuSans-36"/>
      </g>
     </g>
    </g>
    <g id="ytick_3">
     <g id="line2d_9">
      <g>
       <use style="stroke:#000000;stroke-width:0.8;" x="48.703125" xlink:href="#mbb5363d797" y="188.413872"/>
      </g>
     </g>
     <g id="text_10">
      <!-- 0.8 -->
      <g transform="translate(25.8 192.213091)scale(0.1 -0.1)">
       <use xlink:href="#DejaVuSans-30"/>
       <use x="63.623047" xlink:href="#DejaVuSans-2e"/>
       <use x="95.410156" xlink:href="#DejaVuSans-38"/>
      </g>
     </g>
    </g>
    <g id="ytick_4">
     <g id="line2d_10">
      <g>
       <use style="stroke:#000000;stroke-width:0.8;" x="48.703125" xlink:href="#mbb5363d797" y="140.907044"/>
      </g>
     </g>
     <g id="text_11">
      <!-- 1.0 -->
      <g transform="translate(25.8 144.706263)scale(0.1 -0.1)">
       <use xlink:href="#DejaVuSans-31"/>
       <use x="63.623047" xlink:href="#DejaVuSans-2e"/>
       <use x="95.410156" xlink:href="#DejaVuSans-30"/>
      </g>
     </g>
    </g>
    <g id="ytick_5">
     <g id="line2d_11">
      <g>
       <use style="stroke:#000000;stroke-width:0.8;" x="48.703125" xlink:href="#mbb5363d797" y="93.400216"/>
      </g>
     </g>
     <g id="text_12">
      <!-- 1.2 -->
      <defs>
       <path d="M 19.1875 8.296875 
L 53.609375 8.296875 
L 53.609375 0 
L 7.328125 0 
L 7.328125 8.296875 
Q 12.9375 14.109375 22.625 23.890625 
Q 32.328125 33.6875 34.8125 36.53125 
Q 39.546875 41.84375 41.421875 45.53125 
Q 43.3125 49.21875 43.3125 52.78125 
Q 43.3125 58.59375 39.234375 62.25 
Q 35.15625 65.921875 28.609375 65.921875 
Q 23.96875 65.921875 18.8125 64.3125 
Q 13.671875 62.703125 7.8125 59.421875 
L 7.8125 69.390625 
Q 13.765625 71.78125 18.9375 73 
Q 24.125 74.21875 28.421875 74.21875 
Q 39.75 74.21875 46.484375 68.546875 
Q 53.21875 62.890625 53.21875 53.421875 
Q 53.21875 48.921875 51.53125 44.890625 
Q 49.859375 40.875 45.40625 35.40625 
Q 44.1875 33.984375 37.640625 27.21875 
Q 31.109375 20.453125 19.1875 8.296875 
z
" id="DejaVuSans-32"/>
      </defs>
      <g transform="translate(25.8 97.199435)scale(0.1 -0.1)">
       <use xlink:href="#DejaVuSans-31"/>
       <use x="63.623047" xlink:href="#DejaVuSans-2e"/>
       <use x="95.410156" xlink:href="#DejaVuSans-32"/>
      </g>
     </g>
    </g>
    <g id="ytick_6">
     <g id="line2d_12">
      <g>
       <use style="stroke:#000000;stroke-width:0.8;" x="48.703125" xlink:href="#mbb5363d797" y="45.893388"/>
      </g>
     </g>
     <g id="text_13">
      <!-- 1.4 -->
      <g transform="translate(25.8 49.692607)scale(0.1 -0.1)">
       <use xlink:href="#DejaVuSans-31"/>
       <use x="63.623047" xlink:href="#DejaVuSans-2e"/>
       <use x="95.410156" xlink:href="#DejaVuSans-34"/>
      </g>
     </g>
    </g>
    <g id="text_14">
     <!-- $\frac{z1}{z1_0}$ -->
     <defs>
      <path d="M 11.625 54.6875 
L 54.296875 54.6875 
L 52.6875 46.484375 
L 11.53125 7.171875 
L 45.515625 7.171875 
L 44.09375 0 
L -0.296875 0 
L 1.3125 8.203125 
L 42.484375 47.515625 
L 10.203125 47.515625 
z
" id="DejaVuSans-Oblique-7a"/>
     </defs>
     <g transform="translate(16.7 180.918125)rotate(-90)scale(0.1 -0.1)">
      <use transform="translate(17 43.965625)scale(0.7)" xlink:href="#DejaVuSans-Oblique-7a"/>
      <use transform="translate(53.743164 43.965625)scale(0.7)" xlink:href="#DejaVuSans-31"/>
      <use transform="translate(0 -38.31875)scale(0.7)" xlink:href="#DejaVuSans-Oblique-7a"/>
      <use transform="translate(36.743164 -38.31875)scale(0.7)" xlink:href="#DejaVuSans-31"/>
      <use transform="translate(81.949219 -49.803125)scale(0.49)" xlink:href="#DejaVuSans-30"/>
      <path d="M 0 18.965625 
L 0 25.215625 
L 115.038574 25.215625 
L 115.038574 18.965625 
L 0 18.965625 
z
"/>
     </g>
    </g>
   </g>
   <g id="line2d_13">
    <defs>
     <path d="M -3 3 
L 3 -3 
M -3 -3 
L 3 3 
" id="mf5e3cccae0" style="stroke:#1f77b4;stroke-width:2;"/>
    </defs>
    <g clip-path="url(#p3c9ce2fef2)">
     <use style="fill:#1f77b4;stroke:#1f77b4;stroke-width:2;" x="66.299943" xlink:href="#mf5e3cccae0" y="259.199046"/>
     <use style="fill:#1f77b4;stroke:#1f77b4;stroke-width:2;" x="143.064586" xlink:href="#mf5e3cccae0" y="224.043993"/>
     <use style="fill:#1f77b4;stroke:#1f77b4;stroke-width:2;" x="247.5826" xlink:href="#mf5e3cccae0" y="157.2969"/>
     <use style="fill:#1f77b4;stroke:#1f77b4;stroke-width:2;" x="310.765807" xlink:href="#mf5e3cccae0" y="129.030337"/>
     <use style="fill:#1f77b4;stroke:#1f77b4;stroke-width:2;" x="354.462603" xlink:href="#mf5e3cccae0" y="94.587887"/>
     <use style="fill:#1f77b4;stroke:#1f77b4;stroke-width:2;" x="393.435422" xlink:href="#mf5e3cccae0" y="60.145437"/>
     <use style="fill:#1f77b4;stroke:#1f77b4;stroke-width:2;" x="411.740837" xlink:href="#mf5e3cccae0" y="36.154489"/>
    </g>
   </g>
   <g id="line2d_14">
    <g clip-path="url(#p3c9ce2fef2)">
     <use style="fill:#1f77b4;stroke:#1f77b4;stroke-width:2;" x="78.700386" xlink:href="#mf5e3cccae0" y="261.336853"/>
     <use style="fill:#1f77b4;stroke:#1f77b4;stroke-width:2;" x="151.922045" xlink:href="#mf5e3cccae0" y="227.131937"/>
     <use style="fill:#1f77b4;stroke:#1f77b4;stroke-width:2;" x="270.021496" xlink:href="#mf5e3cccae0" y="160.622378"/>
     <use style="fill:#1f77b4;stroke:#1f77b4;stroke-width:2;" x="330.842713" xlink:href="#mf5e3cccae0" y="136.156361"/>
     <use style="fill:#1f77b4;stroke:#1f77b4;stroke-width:2;" x="369.815532" xlink:href="#mf5e3cccae0" y="105.039389"/>
     <use style="fill:#1f77b4;stroke:#1f77b4;stroke-width:2;" x="395.206914" xlink:href="#mf5e3cccae0" y="75.347622"/>
     <use style="fill:#1f77b4;stroke:#1f77b4;stroke-width:2;" x="412.921832" xlink:href="#mf5e3cccae0" y="53.019413"/>
    </g>
   </g>
   <g id="line2d_15">
    <g clip-path="url(#p3c9ce2fef2)">
     <use style="fill:#1f77b4;stroke:#1f77b4;stroke-width:2;" x="91.100828" xlink:href="#mf5e3cccae0" y="263.237126"/>
     <use style="fill:#1f77b4;stroke:#1f77b4;stroke-width:2;" x="160.779504" xlink:href="#mf5e3cccae0" y="231.88262"/>
     <use style="fill:#1f77b4;stroke:#1f77b4;stroke-width:2;" x="289.507905" xlink:href="#mf5e3cccae0" y="166.323197"/>
     <use style="fill:#1f77b4;stroke:#1f77b4;stroke-width:2;" x="343.833653" xlink:href="#mf5e3cccae0" y="145.182659"/>
     <use style="fill:#1f77b4;stroke:#1f77b4;stroke-width:2;" x="377.491996" xlink:href="#mf5e3cccae0" y="116.678562"/>
     <use style="fill:#1f77b4;stroke:#1f77b4;stroke-width:2;" x="396.978406" xlink:href="#mf5e3cccae0" y="90.312272"/>
     <use style="fill:#1f77b4;stroke:#1f77b4;stroke-width:2;" x="414.102826" xlink:href="#mf5e3cccae0" y="69.646802"/>
    </g>
   </g>
   <g id="line2d_16">
    <g clip-path="url(#p3c9ce2fef2)">
     <use style="fill:#1f77b4;stroke:#1f77b4;stroke-width:2;" x="103.50127" xlink:href="#mf5e3cccae0" y="267.512741"/>
     <use style="fill:#1f77b4;stroke:#1f77b4;stroke-width:2;" x="172.589449" xlink:href="#mf5e3cccae0" y="238.533576"/>
     <use style="fill:#1f77b4;stroke:#1f77b4;stroke-width:2;" x="301.908348" xlink:href="#mf5e3cccae0" y="174.399358"/>
     <use style="fill:#1f77b4;stroke:#1f77b4;stroke-width:2;" x="351.510117" xlink:href="#mf5e3cccae0" y="155.396627"/>
     <use style="fill:#1f77b4;stroke:#1f77b4;stroke-width:2;" x="382.215974" xlink:href="#mf5e3cccae0" y="128.555269"/>
     <use style="fill:#1f77b4;stroke:#1f77b4;stroke-width:2;" x="398.749897" xlink:href="#mf5e3cccae0" y="105.514457"/>
     <use style="fill:#1f77b4;stroke:#1f77b4;stroke-width:2;" x="415.283821" xlink:href="#mf5e3cccae0" y="86.511726"/>
    </g>
   </g>
   <g id="line2d_17">
    <g clip-path="url(#p3c9ce2fef2)">
     <use style="fill:#1f77b4;stroke:#1f77b4;stroke-width:2;" x="115.311215" xlink:href="#mf5e3cccae0" y="273.451094"/>
     <use style="fill:#1f77b4;stroke:#1f77b4;stroke-width:2;" x="184.399394" xlink:href="#mf5e3cccae0" y="246.372202"/>
     <use style="fill:#1f77b4;stroke:#1f77b4;stroke-width:2;" x="308.403817" xlink:href="#mf5e3cccae0" y="183.663189"/>
     <use style="fill:#1f77b4;stroke:#1f77b4;stroke-width:2;" x="357.41509" xlink:href="#mf5e3cccae0" y="165.848129"/>
     <use style="fill:#1f77b4;stroke:#1f77b4;stroke-width:2;" x="385.168461" xlink:href="#mf5e3cccae0" y="140.907044"/>
     <use style="fill:#1f77b4;stroke:#1f77b4;stroke-width:2;" x="400.521389" xlink:href="#mf5e3cccae0" y="120.716642"/>
     <use style="fill:#1f77b4;stroke:#1f77b4;stroke-width:2;" x="415.874318" xlink:href="#mf5e3cccae0" y="103.37665"/>
    </g>
   </g>
   <g id="line2d_18">
    <g clip-path="url(#p3c9ce2fef2)">
     <use style="fill:#1f77b4;stroke:#1f77b4;stroke-width:2;" x="126.530663" xlink:href="#mf5e3cccae0" y="280.814653"/>
     <use style="fill:#1f77b4;stroke:#1f77b4;stroke-width:2;" x="199.161825" xlink:href="#mf5e3cccae0" y="255.160965"/>
     <use style="fill:#1f77b4;stroke:#1f77b4;stroke-width:2;" x="311.946801" xlink:href="#mf5e3cccae0" y="193.402089"/>
     <use style="fill:#1f77b4;stroke:#1f77b4;stroke-width:2;" x="362.139068" xlink:href="#mf5e3cccae0" y="176.299631"/>
     <use style="fill:#1f77b4;stroke:#1f77b4;stroke-width:2;" x="386.349455" xlink:href="#mf5e3cccae0" y="152.546217"/>
     <use style="fill:#1f77b4;stroke:#1f77b4;stroke-width:2;" x="401.702384" xlink:href="#mf5e3cccae0" y="135.681293"/>
     <use style="fill:#1f77b4;stroke:#1f77b4;stroke-width:2;" x="416.464815" xlink:href="#mf5e3cccae0" y="120.00404"/>
    </g>
   </g>
   <g id="line2d_19">
    <g clip-path="url(#p3c9ce2fef2)">
     <use style="fill:#1f77b4;stroke:#1f77b4;stroke-width:2;" x="138.931105" xlink:href="#mf5e3cccae0" y="288.653279"/>
     <use style="fill:#1f77b4;stroke:#1f77b4;stroke-width:2;" x="209.790776" xlink:href="#mf5e3cccae0" y="263.949729"/>
     <use style="fill:#1f77b4;stroke:#1f77b4;stroke-width:2;" x="313.127796" xlink:href="#mf5e3cccae0" y="203.140989"/>
     <use style="fill:#1f77b4;stroke:#1f77b4;stroke-width:2;" x="362.729565" xlink:href="#mf5e3cccae0" y="186.988667"/>
     <use style="fill:#1f77b4;stroke:#1f77b4;stroke-width:2;" x="388.120947" xlink:href="#mf5e3cccae0" y="164.660458"/>
     <use style="fill:#1f77b4;stroke:#1f77b4;stroke-width:2;" x="402.883378" xlink:href="#mf5e3cccae0" y="150.883478"/>
     <use style="fill:#1f77b4;stroke:#1f77b4;stroke-width:2;" x="417.055312" xlink:href="#mf5e3cccae0" y="136.868964"/>
    </g>
   </g>
   <g id="line2d_20">
    <g clip-path="url(#p3c9ce2fef2)">
     <use style="fill:#1f77b4;stroke:#1f77b4;stroke-width:2;" x="147.788564" xlink:href="#mf5e3cccae0" y="296.72944"/>
     <use style="fill:#1f77b4;stroke:#1f77b4;stroke-width:2;" x="213.924257" xlink:href="#mf5e3cccae0" y="272.738492"/>
     <use style="fill:#1f77b4;stroke:#1f77b4;stroke-width:2;" x="313.127796" xlink:href="#mf5e3cccae0" y="212.642354"/>
     <use style="fill:#1f77b4;stroke:#1f77b4;stroke-width:2;" x="363.320062" xlink:href="#mf5e3cccae0" y="197.440169"/>
     <use style="fill:#1f77b4;stroke:#1f77b4;stroke-width:2;" x="388.120947" xlink:href="#mf5e3cccae0" y="176.537165"/>
     <use style="fill:#1f77b4;stroke:#1f77b4;stroke-width:2;" x="404.064373" xlink:href="#mf5e3cccae0" y="166.085663"/>
     <use style="fill:#1f77b4;stroke:#1f77b4;stroke-width:2;" x="417.055312" xlink:href="#mf5e3cccae0" y="153.733888"/>
    </g>
   </g>
   <g id="line2d_21">
    <g clip-path="url(#p3c9ce2fef2)">
     <use style="fill:#1f77b4;stroke:#1f77b4;stroke-width:2;" x="152.512542" xlink:href="#mf5e3cccae0" y="304.805601"/>
     <use style="fill:#1f77b4;stroke:#1f77b4;stroke-width:2;" x="214.514754" xlink:href="#mf5e3cccae0" y="281.764789"/>
     <use style="fill:#1f77b4;stroke:#1f77b4;stroke-width:2;" x="313.718293" xlink:href="#mf5e3cccae0" y="222.381254"/>
     <use style="fill:#1f77b4;stroke:#1f77b4;stroke-width:2;" x="363.320062" xlink:href="#mf5e3cccae0" y="208.129206"/>
     <use style="fill:#1f77b4;stroke:#1f77b4;stroke-width:2;" x="388.711444" xlink:href="#mf5e3cccae0" y="188.651406"/>
     <use style="fill:#1f77b4;stroke:#1f77b4;stroke-width:2;" x="405.245367" xlink:href="#mf5e3cccae0" y="181.050314"/>
     <use style="fill:#1f77b4;stroke:#1f77b4;stroke-width:2;" x="417.64581" xlink:href="#mf5e3cccae0" y="170.361278"/>
    </g>
   </g>
   <g id="line2d_22">
    <g clip-path="url(#p3c9ce2fef2)">
     <use style="fill:#1f77b4;stroke:#1f77b4;stroke-width:2;" x="156.055526" xlink:href="#mf5e3cccae0" y="312.881761"/>
     <use style="fill:#1f77b4;stroke:#1f77b4;stroke-width:2;" x="215.695749" xlink:href="#mf5e3cccae0" y="290.553552"/>
     <use style="fill:#1f77b4;stroke:#1f77b4;stroke-width:2;" x="314.30879" xlink:href="#mf5e3cccae0" y="232.120154"/>
     <use style="fill:#1f77b4;stroke:#1f77b4;stroke-width:2;" x="363.910559" xlink:href="#mf5e3cccae0" y="218.818242"/>
     <use style="fill:#1f77b4;stroke:#1f77b4;stroke-width:2;" x="388.711444" xlink:href="#mf5e3cccae0" y="200.765647"/>
     <use style="fill:#1f77b4;stroke:#1f77b4;stroke-width:2;" x="406.426362" xlink:href="#mf5e3cccae0" y="196.252499"/>
     <use style="fill:#1f77b4;stroke:#1f77b4;stroke-width:2;" x="418.236307" xlink:href="#mf5e3cccae0" y="187.226201"/>
    </g>
   </g>
   <g id="patch_3">
    <path d="M 48.703125 326.718125 
L 48.703125 22.318125 
" style="fill:none;stroke:#000000;stroke-linecap:square;stroke-linejoin:miter;stroke-width:0.8;"/>
   </g>
   <g id="patch_4">
    <path d="M 435.833125 326.718125 
L 435.833125 22.318125 
" style="fill:none;stroke:#000000;stroke-linecap:square;stroke-linejoin:miter;stroke-width:0.8;"/>
   </g>
   <g id="patch_5">
    <path d="M 48.703125 326.718125 
L 435.833125 326.718125 
" style="fill:none;stroke:#000000;stroke-linecap:square;stroke-linejoin:miter;stroke-width:0.8;"/>
   </g>
   <g id="patch_6">
    <path d="M 48.703125 22.318125 
L 435.833125 22.318125 
" style="fill:none;stroke:#000000;stroke-linecap:square;stroke-linejoin:miter;stroke-width:0.8;"/>
   </g>
   <g id="text_15">
    <!-- Characteristic map "DEFAULT" for parameter "char_map". -->
    <defs>
     <path d="M 64.40625 67.28125 
L 64.40625 56.890625 
Q 59.421875 61.53125 53.78125 63.8125 
Q 48.140625 66.109375 41.796875 66.109375 
Q 29.296875 66.109375 22.65625 58.46875 
Q 16.015625 50.828125 16.015625 36.375 
Q 16.015625 21.96875 22.65625 14.328125 
Q 29.296875 6.6875 41.796875 6.6875 
Q 48.140625 6.6875 53.78125 8.984375 
Q 59.421875 11.28125 64.40625 15.921875 
L 64.40625 5.609375 
Q 59.234375 2.09375 53.4375 0.328125 
Q 47.65625 -1.421875 41.21875 -1.421875 
Q 24.65625 -1.421875 15.125 8.703125 
Q 5.609375 18.84375 5.609375 36.375 
Q 5.609375 53.953125 15.125 64.078125 
Q 24.65625 74.21875 41.21875 74.21875 
Q 47.75 74.21875 53.53125 72.484375 
Q 59.328125 70.75 64.40625 67.28125 
z
" id="DejaVuSans-43"/>
     <path d="M 54.890625 33.015625 
L 54.890625 0 
L 45.90625 0 
L 45.90625 32.71875 
Q 45.90625 40.484375 42.875 44.328125 
Q 39.84375 48.1875 33.796875 48.1875 
Q 26.515625 48.1875 22.3125 43.546875 
Q 18.109375 38.921875 18.109375 30.90625 
L 18.109375 0 
L 9.078125 0 
L 9.078125 75.984375 
L 18.109375 75.984375 
L 18.109375 46.1875 
Q 21.34375 51.125 25.703125 53.5625 
Q 30.078125 56 35.796875 56 
Q 45.21875 56 50.046875 50.171875 
Q 54.890625 44.34375 54.890625 33.015625 
z
" id="DejaVuSans-68"/>
     <path d="M 34.28125 27.484375 
Q 23.390625 27.484375 19.1875 25 
Q 14.984375 22.515625 14.984375 16.5 
Q 14.984375 11.71875 18.140625 8.90625 
Q 21.296875 6.109375 26.703125 6.109375 
Q 34.1875 6.109375 38.703125 11.40625 
Q 43.21875 16.703125 43.21875 25.484375 
L 43.21875 27.484375 
z
M 52.203125 31.203125 
L 52.203125 0 
L 43.21875 0 
L 43.21875 8.296875 
Q 40.140625 3.328125 35.546875 0.953125 
Q 30.953125 -1.421875 24.3125 -1.421875 
Q 15.921875 -1.421875 10.953125 3.296875 
Q 6 8.015625 6 15.921875 
Q 6 25.140625 12.171875 29.828125 
Q 18.359375 34.515625 30.609375 34.515625 
L 43.21875 34.515625 
L 43.21875 35.40625 
Q 43.21875 41.609375 39.140625 45 
Q 35.0625 48.390625 27.6875 48.390625 
Q 23 48.390625 18.546875 47.265625 
Q 14.109375 46.140625 10.015625 43.890625 
L 10.015625 52.203125 
Q 14.9375 54.109375 19.578125 55.046875 
Q 24.21875 56 28.609375 56 
Q 40.484375 56 46.34375 49.84375 
Q 52.203125 43.703125 52.203125 31.203125 
z
" id="DejaVuSans-61"/>
     <path d="M 41.109375 46.296875 
Q 39.59375 47.171875 37.8125 47.578125 
Q 36.03125 48 33.890625 48 
Q 26.265625 48 22.1875 43.046875 
Q 18.109375 38.09375 18.109375 28.8125 
L 18.109375 0 
L 9.078125 0 
L 9.078125 54.6875 
L 18.109375 54.6875 
L 18.109375 46.1875 
Q 20.953125 51.171875 25.484375 53.578125 
Q 30.03125 56 36.53125 56 
Q 37.453125 56 38.578125 55.875 
Q 39.703125 55.765625 41.0625 55.515625 
z
" id="DejaVuSans-72"/>
     <path d="M 48.78125 52.59375 
L 48.78125 44.1875 
Q 44.96875 46.296875 41.140625 47.34375 
Q 37.3125 48.390625 33.40625 48.390625 
Q 24.65625 48.390625 19.8125 42.84375 
Q 14.984375 37.3125 14.984375 27.296875 
Q 14.984375 17.28125 19.8125 11.734375 
Q 24.65625 6.203125 33.40625 6.203125 
Q 37.3125 6.203125 41.140625 7.25 
Q 44.96875 8.296875 48.78125 10.40625 
L 48.78125 2.09375 
Q 45.015625 0.34375 40.984375 -0.53125 
Q 36.96875 -1.421875 32.421875 -1.421875 
Q 20.0625 -1.421875 12.78125 6.34375 
Q 5.515625 14.109375 5.515625 27.296875 
Q 5.515625 40.671875 12.859375 48.328125 
Q 20.21875 56 33.015625 56 
Q 37.15625 56 41.109375 55.140625 
Q 45.0625 54.296875 48.78125 52.59375 
z
" id="DejaVuSans-63"/>
     <path d="M 18.3125 70.21875 
L 18.3125 54.6875 
L 36.8125 54.6875 
L 36.8125 47.703125 
L 18.3125 47.703125 
L 18.3125 18.015625 
Q 18.3125 11.328125 20.140625 9.421875 
Q 21.96875 7.515625 27.59375 7.515625 
L 36.8125 7.515625 
L 36.8125 0 
L 27.59375 0 
Q 17.1875 0 13.234375 3.875 
Q 9.28125 7.765625 9.28125 18.015625 
L 9.28125 47.703125 
L 2.6875 47.703125 
L 2.6875 54.6875 
L 9.28125 54.6875 
L 9.28125 70.21875 
z
" id="DejaVuSans-74"/>
     <path d="M 56.203125 29.59375 
L 56.203125 25.203125 
L 14.890625 25.203125 
Q 15.484375 15.921875 20.484375 11.0625 
Q 25.484375 6.203125 34.421875 6.203125 
Q 39.59375 6.203125 44.453125 7.46875 
Q 49.3125 8.734375 54.109375 11.28125 
L 54.109375 2.78125 
Q 49.265625 0.734375 44.1875 -0.34375 
Q 39.109375 -1.421875 33.890625 -1.421875 
Q 20.796875 -1.421875 13.15625 6.1875 
Q 5.515625 13.8125 5.515625 26.8125 
Q 5.515625 40.234375 12.765625 48.109375 
Q 20.015625 56 32.328125 56 
Q 43.359375 56 49.78125 48.890625 
Q 56.203125 41.796875 56.203125 29.59375 
z
M 47.21875 32.234375 
Q 47.125 39.59375 43.09375 43.984375 
Q 39.0625 48.390625 32.421875 48.390625 
Q 24.90625 48.390625 20.390625 44.140625 
Q 15.875 39.890625 15.1875 32.171875 
z
" id="DejaVuSans-65"/>
     <path d="M 9.421875 54.6875 
L 18.40625 54.6875 
L 18.40625 0 
L 9.421875 0 
z
M 9.421875 75.984375 
L 18.40625 75.984375 
L 18.40625 64.59375 
L 9.421875 64.59375 
z
" id="DejaVuSans-69"/>
     <path d="M 44.28125 53.078125 
L 44.28125 44.578125 
Q 40.484375 46.53125 36.375 47.5 
Q 32.28125 48.484375 27.875 48.484375 
Q 21.1875 48.484375 17.84375 46.4375 
Q 14.5 44.390625 14.5 40.28125 
Q 14.5 37.15625 16.890625 35.375 
Q 19.28125 33.59375 26.515625 31.984375 
L 29.59375 31.296875 
Q 39.15625 29.25 43.1875 25.515625 
Q 47.21875 21.78125 47.21875 15.09375 
Q 47.21875 7.46875 41.1875 3.015625 
Q 35.15625 -1.421875 24.609375 -1.421875 
Q 20.21875 -1.421875 15.453125 -0.5625 
Q 10.6875 0.296875 5.421875 2 
L 5.421875 11.28125 
Q 10.40625 8.6875 15.234375 7.390625 
Q 20.0625 6.109375 24.8125 6.109375 
Q 31.15625 6.109375 34.5625 8.28125 
Q 37.984375 10.453125 37.984375 14.40625 
Q 37.984375 18.0625 35.515625 20.015625 
Q 33.0625 21.96875 24.703125 23.78125 
L 21.578125 24.515625 
Q 13.234375 26.265625 9.515625 29.90625 
Q 5.8125 33.546875 5.8125 39.890625 
Q 5.8125 47.609375 11.28125 51.796875 
Q 16.75 56 26.8125 56 
Q 31.78125 56 36.171875 55.265625 
Q 40.578125 54.546875 44.28125 53.078125 
z
" id="DejaVuSans-73"/>
     <path id="DejaVuSans-20"/>
     <path d="M 52 44.1875 
Q 55.375 50.25 60.0625 53.125 
Q 64.75 56 71.09375 56 
Q 79.640625 56 84.28125 50.015625 
Q 88.921875 44.046875 88.921875 33.015625 
L 88.921875 0 
L 79.890625 0 
L 79.890625 32.71875 
Q 79.890625 40.578125 77.09375 44.375 
Q 74.3125 48.1875 68.609375 48.1875 
Q 61.625 48.1875 57.5625 43.546875 
Q 53.515625 38.921875 53.515625 30.90625 
L 53.515625 0 
L 44.484375 0 
L 44.484375 32.71875 
Q 44.484375 40.625 41.703125 44.40625 
Q 38.921875 48.1875 33.109375 48.1875 
Q 26.21875 48.1875 22.15625 43.53125 
Q 18.109375 38.875 18.109375 30.90625 
L 18.109375 0 
L 9.078125 0 
L 9.078125 54.6875 
L 18.109375 54.6875 
L 18.109375 46.1875 
Q 21.1875 51.21875 25.484375 53.609375 
Q 29.78125 56 35.6875 56 
Q 41.65625 56 45.828125 52.96875 
Q 50 49.953125 52 44.1875 
z
" id="DejaVuSans-6d"/>
     <path d="M 18.109375 8.203125 
L 18.109375 -20.796875 
L 9.078125 -20.796875 
L 9.078125 54.6875 
L 18.109375 54.6875 
L 18.109375 46.390625 
Q 20.953125 51.265625 25.265625 53.625 
Q 29.59375 56 35.59375 56 
Q 45.5625 56 51.78125 48.09375 
Q 58.015625 40.1875 58.015625 27.296875 
Q 58.015625 14.40625 51.78125 6.484375 
Q 45.5625 -1.421875 35.59375 -1.421875 
Q 29.59375 -1.421875 25.265625 0.953125 
Q 20.953125 3.328125 18.109375 8.203125 
z
M 48.6875 27.296875 
Q 48.6875 37.203125 44.609375 42.84375 
Q 40.53125 48.484375 33.40625 48.484375 
Q 26.265625 48.484375 22.1875 42.84375 
Q 18.109375 37.203125 18.109375 27.296875 
Q 18.109375 17.390625 22.1875 11.75 
Q 26.265625 6.109375 33.40625 6.109375 
Q 40.53125 6.109375 44.609375 11.75 
Q 48.6875 17.390625 48.6875 27.296875 
z
" id="DejaVuSans-70"/>
     <path d="M 17.921875 72.90625 
L 17.921875 45.796875 
L 9.625 45.796875 
L 9.625 72.90625 
z
M 36.375 72.90625 
L 36.375 45.796875 
L 28.078125 45.796875 
L 28.078125 72.90625 
z
" id="DejaVuSans-22"/>
     <path d="M 19.671875 64.796875 
L 19.671875 8.109375 
L 31.59375 8.109375 
Q 46.6875 8.109375 53.6875 14.9375 
Q 60.6875 21.78125 60.6875 36.53125 
Q 60.6875 51.171875 53.6875 57.984375 
Q 46.6875 64.796875 31.59375 64.796875 
z
M 9.8125 72.90625 
L 30.078125 72.90625 
Q 51.265625 72.90625 61.171875 64.09375 
Q 71.09375 55.28125 71.09375 36.53125 
Q 71.09375 17.671875 61.125 8.828125 
Q 51.171875 0 30.078125 0 
L 9.8125 0 
z
" id="DejaVuSans-44"/>
     <path d="M 9.8125 72.90625 
L 55.90625 72.90625 
L 55.90625 64.59375 
L 19.671875 64.59375 
L 19.671875 43.015625 
L 54.390625 43.015625 
L 54.390625 34.71875 
L 19.671875 34.71875 
L 19.671875 8.296875 
L 56.78125 8.296875 
L 56.78125 0 
L 9.8125 0 
z
" id="DejaVuSans-45"/>
     <path d="M 9.8125 72.90625 
L 51.703125 72.90625 
L 51.703125 64.59375 
L 19.671875 64.59375 
L 19.671875 43.109375 
L 48.578125 43.109375 
L 48.578125 34.8125 
L 19.671875 34.8125 
L 19.671875 0 
L 9.8125 0 
z
" id="DejaVuSans-46"/>
     <path d="M 34.1875 63.1875 
L 20.796875 26.90625 
L 47.609375 26.90625 
z
M 28.609375 72.90625 
L 39.796875 72.90625 
L 67.578125 0 
L 57.328125 0 
L 50.6875 18.703125 
L 17.828125 18.703125 
L 11.1875 0 
L 0.78125 0 
z
" id="DejaVuSans-41"/>
     <path d="M 8.6875 72.90625 
L 18.609375 72.90625 
L 18.609375 28.609375 
Q 18.609375 16.890625 22.84375 11.734375 
Q 27.09375 6.59375 36.625 6.59375 
Q 46.09375 6.59375 50.34375 11.734375 
Q 54.59375 16.890625 54.59375 28.609375 
L 54.59375 72.90625 
L 64.5 72.90625 
L 64.5 27.390625 
Q 64.5 13.140625 57.4375 5.859375 
Q 50.390625 -1.421875 36.625 -1.421875 
Q 22.796875 -1.421875 15.734375 5.859375 
Q 8.6875 13.140625 8.6875 27.390625 
z
" id="DejaVuSans-55"/>
     <path d="M 9.8125 72.90625 
L 19.671875 72.90625 
L 19.671875 8.296875 
L 55.171875 8.296875 
L 55.171875 0 
L 9.8125 0 
z
" id="DejaVuSans-4c"/>
     <path d="M -0.296875 72.90625 
L 61.375 72.90625 
L 61.375 64.59375 
L 35.5 64.59375 
L 35.5 0 
L 25.59375 0 
L 25.59375 64.59375 
L -0.296875 64.59375 
z
" id="DejaVuSans-54"/>
     <path d="M 37.109375 75.984375 
L 37.109375 68.5 
L 28.515625 68.5 
Q 23.6875 68.5 21.796875 66.546875 
Q 19.921875 64.59375 19.921875 59.515625 
L 19.921875 54.6875 
L 34.71875 54.6875 
L 34.71875 47.703125 
L 19.921875 47.703125 
L 19.921875 0 
L 10.890625 0 
L 10.890625 47.703125 
L 2.296875 47.703125 
L 2.296875 54.6875 
L 10.890625 54.6875 
L 10.890625 58.5 
Q 10.890625 67.625 15.140625 71.796875 
Q 19.390625 75.984375 28.609375 75.984375 
z
" id="DejaVuSans-66"/>
     <path d="M 30.609375 48.390625 
Q 23.390625 48.390625 19.1875 42.75 
Q 14.984375 37.109375 14.984375 27.296875 
Q 14.984375 17.484375 19.15625 11.84375 
Q 23.34375 6.203125 30.609375 6.203125 
Q 37.796875 6.203125 41.984375 11.859375 
Q 46.1875 17.53125 46.1875 27.296875 
Q 46.1875 37.015625 41.984375 42.703125 
Q 37.796875 48.390625 30.609375 48.390625 
z
M 30.609375 56 
Q 42.328125 56 49.015625 48.375 
Q 55.71875 40.765625 55.71875 27.296875 
Q 55.71875 13.875 49.015625 6.21875 
Q 42.328125 -1.421875 30.609375 -1.421875 
Q 18.84375 -1.421875 12.171875 6.21875 
Q 5.515625 13.875 5.515625 27.296875 
Q 5.515625 40.765625 12.171875 48.375 
Q 18.84375 56 30.609375 56 
z
" id="DejaVuSans-6f"/>
     <path d="M 50.984375 -16.609375 
L 50.984375 -23.578125 
L -0.984375 -23.578125 
L -0.984375 -16.609375 
z
" id="DejaVuSans-5f"/>
    </defs>
    <g transform="translate(67.877188 16.318125)scale(0.12 -0.12)">
     <use xlink:href="#DejaVuSans-43"/>
     <use x="69.824219" xlink:href="#DejaVuSans-68"/>
     <use x="133.203125" xlink:href="#DejaVuSans-61"/>
     <use x="194.482422" xlink:href="#DejaVuSans-72"/>
     <use x="235.595703" xlink:href="#DejaVuSans-61"/>
     <use x="296.875" xlink:href="#DejaVuSans-63"/>
     <use x="351.855469" xlink:href="#DejaVuSans-74"/>
     <use x="391.064453" xlink:href="#DejaVuSans-65"/>
     <use x="452.587891" xlink:href="#DejaVuSans-72"/>
     <use x="493.701172" xlink:href="#DejaVuSans-69"/>
     <use x="521.484375" xlink:href="#DejaVuSans-73"/>
     <use x="573.583984" xlink:href="#DejaVuSans-74"/>
     <use x="612.792969" xlink:href="#DejaVuSans-69"/>
     <use x="640.576172" xlink:href="#DejaVuSans-63"/>
     <use x="695.556641" xlink:href="#DejaVuSans-20"/>
     <use x="727.34375" xlink:href="#DejaVuSans-6d"/>
     <use x="824.755859" xlink:href="#DejaVuSans-61"/>
     <use x="886.035156" xlink:href="#DejaVuSans-70"/>
     <use x="949.511719" xlink:href="#DejaVuSans-20"/>
     <use x="981.298828" xlink:href="#DejaVuSans-22"/>
     <use x="1027.294922" xlink:href="#DejaVuSans-44"/>
     <use x="1104.296875" xlink:href="#DejaVuSans-45"/>
     <use x="1167.480469" xlink:href="#DejaVuSans-46"/>
     <use x="1224.859375" xlink:href="#DejaVuSans-41"/>
     <use x="1293.267578" xlink:href="#DejaVuSans-55"/>
     <use x="1366.460938" xlink:href="#DejaVuSans-4c"/>
     <use x="1421.970703" xlink:href="#DejaVuSans-54"/>
     <use x="1483.054688" xlink:href="#DejaVuSans-22"/>
     <use x="1529.050781" xlink:href="#DejaVuSans-20"/>
     <use x="1560.837891" xlink:href="#DejaVuSans-66"/>
     <use x="1596.042969" xlink:href="#DejaVuSans-6f"/>
     <use x="1657.224609" xlink:href="#DejaVuSans-72"/>
     <use x="1698.337891" xlink:href="#DejaVuSans-20"/>
     <use x="1730.125" xlink:href="#DejaVuSans-70"/>
     <use x="1793.601562" xlink:href="#DejaVuSans-61"/>
     <use x="1854.880859" xlink:href="#DejaVuSans-72"/>
     <use x="1895.994141" xlink:href="#DejaVuSans-61"/>
     <use x="1957.273438" xlink:href="#DejaVuSans-6d"/>
     <use x="2054.685547" xlink:href="#DejaVuSans-65"/>
     <use x="2116.208984" xlink:href="#DejaVuSans-74"/>
     <use x="2155.417969" xlink:href="#DejaVuSans-65"/>
     <use x="2216.941406" xlink:href="#DejaVuSans-72"/>
     <use x="2258.054688" xlink:href="#DejaVuSans-20"/>
     <use x="2289.841797" xlink:href="#DejaVuSans-22"/>
     <use x="2335.837891" xlink:href="#DejaVuSans-63"/>
     <use x="2390.818359" xlink:href="#DejaVuSans-68"/>
     <use x="2454.197266" xlink:href="#DejaVuSans-61"/>
     <use x="2515.476562" xlink:href="#DejaVuSans-72"/>
     <use x="2556.589844" xlink:href="#DejaVuSans-5f"/>
     <use x="2606.589844" xlink:href="#DejaVuSans-6d"/>
     <use x="2704.001953" xlink:href="#DejaVuSans-61"/>
     <use x="2765.28125" xlink:href="#DejaVuSans-70"/>
     <use x="2828.757812" xlink:href="#DejaVuSans-22"/>
     <use x="2874.753906" xlink:href="#DejaVuSans-2e"/>
    </g>
   </g>
  </g>
  <g id="axes_2">
   <g id="matplotlib.axis_3">
    <g id="ytick_7">
     <g id="line2d_23">
      <path clip-path="url(#p3c9ce2fef2)" d="M 48.703125 283.427528 
L 435.833125 283.427528 
" style="fill:none;stroke:#b0b0b0;stroke-dasharray:0.8,1.32;stroke-dashoffset:0;stroke-width:0.8;"/>
     </g>
     <g id="line2d_24">
      <defs>
       <path d="M 0 0 
L 3.5 0 
" id="m2190513046" style="stroke:#000000;stroke-width:0.8;"/>
      </defs>
      <g>
       <use style="stroke:#000000;stroke-width:0.8;" x="435.833125" xlink:href="#m2190513046" y="283.427528"/>
      </g>
     </g>
     <g id="text_16">
      <!-- 0.4 -->
      <g transform="translate(442.833125 287.226747)scale(0.1 -0.1)">
       <use xlink:href="#DejaVuSans-30"/>
       <use x="63.623047" xlink:href="#DejaVuSans-2e"/>
       <use x="95.410156" xlink:href="#DejaVuSans-34"/>
      </g>
     </g>
    </g>
    <g id="ytick_8">
     <g id="line2d_25">
      <path clip-path="url(#p3c9ce2fef2)" d="M 48.703125 235.9207 
L 435.833125 235.9207 
" style="fill:none;stroke:#b0b0b0;stroke-dasharray:0.8,1.32;stroke-dashoffset:0;stroke-width:0.8;"/>
     </g>
     <g id="line2d_26">
      <g>
       <use style="stroke:#000000;stroke-width:0.8;" x="435.833125" xlink:href="#m2190513046" y="235.9207"/>
      </g>
     </g>
     <g id="text_17">
      <!-- 0.6 -->
      <g transform="translate(442.833125 239.719919)scale(0.1 -0.1)">
       <use xlink:href="#DejaVuSans-30"/>
       <use x="63.623047" xlink:href="#DejaVuSans-2e"/>
       <use x="95.410156" xlink:href="#DejaVuSans-36"/>
      </g>
     </g>
    </g>
    <g id="ytick_9">
     <g id="line2d_27">
      <path clip-path="url(#p3c9ce2fef2)" d="M 48.703125 188.413872 
L 435.833125 188.413872 
" style="fill:none;stroke:#b0b0b0;stroke-dasharray:0.8,1.32;stroke-dashoffset:0;stroke-width:0.8;"/>
     </g>
     <g id="line2d_28">
      <g>
       <use style="stroke:#000000;stroke-width:0.8;" x="435.833125" xlink:href="#m2190513046" y="188.413872"/>
      </g>
     </g>
     <g id="text_18">
      <!-- 0.8 -->
      <g transform="translate(442.833125 192.213091)scale(0.1 -0.1)">
       <use xlink:href="#DejaVuSans-30"/>
       <use x="63.623047" xlink:href="#DejaVuSans-2e"/>
       <use x="95.410156" xlink:href="#DejaVuSans-38"/>
      </g>
     </g>
    </g>
    <g id="ytick_10">
     <g id="line2d_29">
      <path clip-path="url(#p3c9ce2fef2)" d="M 48.703125 140.907044 
L 435.833125 140.907044 
" style="fill:none;stroke:#b0b0b0;stroke-dasharray:0.8,1.32;stroke-dashoffset:0;stroke-width:0.8;"/>
     </g>
     <g id="line2d_30">
      <g>
       <use style="stroke:#000000;stroke-width:0.8;" x="435.833125" xlink:href="#m2190513046" y="140.907044"/>
      </g>
     </g>
     <g id="text_19">
      <!-- 1.0 -->
      <g transform="translate(442.833125 144.706263)scale(0.1 -0.1)">
       <use xlink:href="#DejaVuSans-31"/>
       <use x="63.623047" xlink:href="#DejaVuSans-2e"/>
       <use x="95.410156" xlink:href="#DejaVuSans-30"/>
      </g>
     </g>
    </g>
    <g id="ytick_11">
     <g id="line2d_31">
      <path clip-path="url(#p3c9ce2fef2)" d="M 48.703125 93.400216 
L 435.833125 93.400216 
" style="fill:none;stroke:#b0b0b0;stroke-dasharray:0.8,1.32;stroke-dashoffset:0;stroke-width:0.8;"/>
     </g>
     <g id="line2d_32">
      <g>
       <use style="stroke:#000000;stroke-width:0.8;" x="435.833125" xlink:href="#m2190513046" y="93.400216"/>
      </g>
     </g>
     <g id="text_20">
      <!-- 1.2 -->
      <g transform="translate(442.833125 97.199435)scale(0.1 -0.1)">
       <use xlink:href="#DejaVuSans-31"/>
       <use x="63.623047" xlink:href="#DejaVuSans-2e"/>
       <use x="95.410156" xlink:href="#DejaVuSans-32"/>
      </g>
     </g>
    </g>
    <g id="ytick_12">
     <g id="line2d_33">
      <path clip-path="url(#p3c9ce2fef2)" d="M 48.703125 45.893388 
L 435.833125 45.893388 
" style="fill:none;stroke:#b0b0b0;stroke-dasharray:0.8,1.32;stroke-dashoffset:0;stroke-width:0.8;"/>
     </g>
     <g id="line2d_34">
      <g>
       <use style="stroke:#000000;stroke-width:0.8;" x="435.833125" xlink:href="#m2190513046" y="45.893388"/>
      </g>
     </g>
     <g id="text_21">
      <!-- 1.4 -->
      <g transform="translate(442.833125 49.692607)scale(0.1 -0.1)">
       <use xlink:href="#DejaVuSans-31"/>
       <use x="63.623047" xlink:href="#DejaVuSans-2e"/>
       <use x="95.410156" xlink:href="#DejaVuSans-34"/>
      </g>
     </g>
    </g>
    <g id="text_22">
     <!-- $\frac{z2}{z2_0}$ -->
     <g transform="translate(472.33625 180.918125)rotate(-90)scale(0.1 -0.1)">
      <use transform="translate(17 44.046875)scale(0.7)" xlink:href="#DejaVuSans-Oblique-7a"/>
      <use transform="translate(53.743164 44.046875)scale(0.7)" xlink:href="#DejaVuSans-32"/>
      <use transform="translate(0 -39.15625)scale(0.7)" xlink:href="#DejaVuSans-Oblique-7a"/>
      <use transform="translate(36.743164 -39.15625)scale(0.7)" xlink:href="#DejaVuSans-32"/>
      <use transform="translate(81.949219 -50.640625)scale(0.49)" xlink:href="#DejaVuSans-30"/>
      <path d="M 0 19.046875 
L 0 25.296875 
L 115.038574 25.296875 
L 115.038574 19.046875 
L 0 19.046875 
z
"/>
     </g>
    </g>
   </g>
   <g id="line2d_35">
    <defs>
     <path d="M -3 3 
L 3 -3 
M -3 -3 
L 3 3 
" id="m537a94ffb5" style="stroke:#ff0000;stroke-width:2;"/>
    </defs>
    <g clip-path="url(#p3c9ce2fef2)">
     <use style="fill:#ff0000;stroke:#ff0000;stroke-width:2;" x="66.299943" xlink:href="#m537a94ffb5" y="171.311414"/>
     <use style="fill:#ff0000;stroke:#ff0000;stroke-width:2;" x="143.064586" xlink:href="#m537a94ffb5" y="167.748402"/>
     <use style="fill:#ff0000;stroke:#ff0000;stroke-width:2;" x="247.5826" xlink:href="#m537a94ffb5" y="166.798265"/>
     <use style="fill:#ff0000;stroke:#ff0000;stroke-width:2;" x="310.765807" xlink:href="#m537a94ffb5" y="146.370329"/>
     <use style="fill:#ff0000;stroke:#ff0000;stroke-width:2;" x="354.462603" xlink:href="#m537a94ffb5" y="151.358546"/>
     <use style="fill:#ff0000;stroke:#ff0000;stroke-width:2;" x="393.435422" xlink:href="#m537a94ffb5" y="153.258819"/>
     <use style="fill:#ff0000;stroke:#ff0000;stroke-width:2;" x="411.740837" xlink:href="#m537a94ffb5" y="169.648675"/>
    </g>
   </g>
   <g id="line2d_36">
    <g clip-path="url(#p3c9ce2fef2)">
     <use style="fill:#ff0000;stroke:#ff0000;stroke-width:2;" x="78.700386" xlink:href="#m537a94ffb5" y="168.22347"/>
     <use style="fill:#ff0000;stroke:#ff0000;stroke-width:2;" x="151.922045" xlink:href="#m537a94ffb5" y="162.522651"/>
     <use style="fill:#ff0000;stroke:#ff0000;stroke-width:2;" x="270.021496" xlink:href="#m537a94ffb5" y="160.384844"/>
     <use style="fill:#ff0000;stroke:#ff0000;stroke-width:2;" x="330.842713" xlink:href="#m537a94ffb5" y="146.370329"/>
     <use style="fill:#ff0000;stroke:#ff0000;stroke-width:2;" x="369.815532" xlink:href="#m537a94ffb5" y="150.645944"/>
     <use style="fill:#ff0000;stroke:#ff0000;stroke-width:2;" x="395.206914" xlink:href="#m537a94ffb5" y="150.645944"/>
     <use style="fill:#ff0000;stroke:#ff0000;stroke-width:2;" x="412.921832" xlink:href="#m537a94ffb5" y="167.510868"/>
    </g>
   </g>
   <g id="line2d_37">
    <g clip-path="url(#p3c9ce2fef2)">
     <use style="fill:#ff0000;stroke:#ff0000;stroke-width:2;" x="91.100828" xlink:href="#m537a94ffb5" y="165.135526"/>
     <use style="fill:#ff0000;stroke:#ff0000;stroke-width:2;" x="160.779504" xlink:href="#m537a94ffb5" y="157.534434"/>
     <use style="fill:#ff0000;stroke:#ff0000;stroke-width:2;" x="289.507905" xlink:href="#m537a94ffb5" y="153.733888"/>
     <use style="fill:#ff0000;stroke:#ff0000;stroke-width:2;" x="343.833653" xlink:href="#m537a94ffb5" y="145.420193"/>
     <use style="fill:#ff0000;stroke:#ff0000;stroke-width:2;" x="377.491996" xlink:href="#m537a94ffb5" y="148.270603"/>
     <use style="fill:#ff0000;stroke:#ff0000;stroke-width:2;" x="396.978406" xlink:href="#m537a94ffb5" y="149.933342"/>
     <use style="fill:#ff0000;stroke:#ff0000;stroke-width:2;" x="414.102826" xlink:href="#m537a94ffb5" y="165.135526"/>
    </g>
   </g>
   <g id="line2d_38">
    <g clip-path="url(#p3c9ce2fef2)">
     <use style="fill:#ff0000;stroke:#ff0000;stroke-width:2;" x="103.50127" xlink:href="#m537a94ffb5" y="162.047583"/>
     <use style="fill:#ff0000;stroke:#ff0000;stroke-width:2;" x="172.589449" xlink:href="#m537a94ffb5" y="153.496354"/>
     <use style="fill:#ff0000;stroke:#ff0000;stroke-width:2;" x="301.908348" xlink:href="#m537a94ffb5" y="147.320466"/>
     <use style="fill:#ff0000;stroke:#ff0000;stroke-width:2;" x="351.510117" xlink:href="#m537a94ffb5" y="142.094715"/>
     <use style="fill:#ff0000;stroke:#ff0000;stroke-width:2;" x="382.215974" xlink:href="#m537a94ffb5" y="144.70759"/>
     <use style="fill:#ff0000;stroke:#ff0000;stroke-width:2;" x="398.749897" xlink:href="#m537a94ffb5" y="153.021285"/>
     <use style="fill:#ff0000;stroke:#ff0000;stroke-width:2;" x="415.283821" xlink:href="#m537a94ffb5" y="162.997719"/>
    </g>
   </g>
   <g id="line2d_39">
    <g clip-path="url(#p3c9ce2fef2)">
     <use style="fill:#ff0000;stroke:#ff0000;stroke-width:2;" x="115.311215" xlink:href="#m537a94ffb5" y="158.722105"/>
     <use style="fill:#ff0000;stroke:#ff0000;stroke-width:2;" x="184.399394" xlink:href="#m537a94ffb5" y="149.695807"/>
     <use style="fill:#ff0000;stroke:#ff0000;stroke-width:2;" x="308.403817" xlink:href="#m537a94ffb5" y="140.66951"/>
     <use style="fill:#ff0000;stroke:#ff0000;stroke-width:2;" x="357.41509" xlink:href="#m537a94ffb5" y="139.244305"/>
     <use style="fill:#ff0000;stroke:#ff0000;stroke-width:2;" x="385.168461" xlink:href="#m537a94ffb5" y="140.907044"/>
     <use style="fill:#ff0000;stroke:#ff0000;stroke-width:2;" x="400.521389" xlink:href="#m537a94ffb5" y="156.346763"/>
     <use style="fill:#ff0000;stroke:#ff0000;stroke-width:2;" x="415.874318" xlink:href="#m537a94ffb5" y="160.859912"/>
    </g>
   </g>
   <g id="line2d_40">
    <g clip-path="url(#p3c9ce2fef2)">
     <use style="fill:#ff0000;stroke:#ff0000;stroke-width:2;" x="126.530663" xlink:href="#m537a94ffb5" y="155.159093"/>
     <use style="fill:#ff0000;stroke:#ff0000;stroke-width:2;" x="199.161825" xlink:href="#m537a94ffb5" y="147.795534"/>
     <use style="fill:#ff0000;stroke:#ff0000;stroke-width:2;" x="311.946801" xlink:href="#m537a94ffb5" y="137.581566"/>
     <use style="fill:#ff0000;stroke:#ff0000;stroke-width:2;" x="362.139068" xlink:href="#m537a94ffb5" y="140.431976"/>
     <use style="fill:#ff0000;stroke:#ff0000;stroke-width:2;" x="386.349455" xlink:href="#m537a94ffb5" y="144.470056"/>
     <use style="fill:#ff0000;stroke:#ff0000;stroke-width:2;" x="401.702384" xlink:href="#m537a94ffb5" y="159.434707"/>
     <use style="fill:#ff0000;stroke:#ff0000;stroke-width:2;" x="416.464815" xlink:href="#m537a94ffb5" y="158.959639"/>
    </g>
   </g>
   <g id="line2d_41">
    <g clip-path="url(#p3c9ce2fef2)">
     <use style="fill:#ff0000;stroke:#ff0000;stroke-width:2;" x="138.931105" xlink:href="#m537a94ffb5" y="153.971422"/>
     <use style="fill:#ff0000;stroke:#ff0000;stroke-width:2;" x="209.790776" xlink:href="#m537a94ffb5" y="149.220739"/>
     <use style="fill:#ff0000;stroke:#ff0000;stroke-width:2;" x="313.127796" xlink:href="#m537a94ffb5" y="137.344032"/>
     <use style="fill:#ff0000;stroke:#ff0000;stroke-width:2;" x="362.729565" xlink:href="#m537a94ffb5" y="145.420193"/>
     <use style="fill:#ff0000;stroke:#ff0000;stroke-width:2;" x="388.120947" xlink:href="#m537a94ffb5" y="148.745671"/>
     <use style="fill:#ff0000;stroke:#ff0000;stroke-width:2;" x="402.883378" xlink:href="#m537a94ffb5" y="162.760185"/>
     <use style="fill:#ff0000;stroke:#ff0000;stroke-width:2;" x="417.055312" xlink:href="#m537a94ffb5" y="161.097446"/>
    </g>
   </g>
   <g id="line2d_42">
    <g clip-path="url(#p3c9ce2fef2)">
     <use style="fill:#ff0000;stroke:#ff0000;stroke-width:2;" x="147.788564" xlink:href="#m537a94ffb5" y="158.484571"/>
     <use style="fill:#ff0000;stroke:#ff0000;stroke-width:2;" x="213.924257" xlink:href="#m537a94ffb5" y="155.396627"/>
     <use style="fill:#ff0000;stroke:#ff0000;stroke-width:2;" x="313.127796" xlink:href="#m537a94ffb5" y="144.232522"/>
     <use style="fill:#ff0000;stroke:#ff0000;stroke-width:2;" x="363.320062" xlink:href="#m537a94ffb5" y="150.170876"/>
     <use style="fill:#ff0000;stroke:#ff0000;stroke-width:2;" x="388.120947" xlink:href="#m537a94ffb5" y="152.783751"/>
     <use style="fill:#ff0000;stroke:#ff0000;stroke-width:2;" x="404.064373" xlink:href="#m537a94ffb5" y="165.848129"/>
     <use style="fill:#ff0000;stroke:#ff0000;stroke-width:2;" x="417.055312" xlink:href="#m537a94ffb5" y="163.235253"/>
    </g>
   </g>
   <g id="line2d_43">
    <g clip-path="url(#p3c9ce2fef2)">
     <use style="fill:#ff0000;stroke:#ff0000;stroke-width:2;" x="152.512542" xlink:href="#m537a94ffb5" y="163.947856"/>
     <use style="fill:#ff0000;stroke:#ff0000;stroke-width:2;" x="214.514754" xlink:href="#m537a94ffb5" y="161.572514"/>
     <use style="fill:#ff0000;stroke:#ff0000;stroke-width:2;" x="313.718293" xlink:href="#m537a94ffb5" y="151.596081"/>
     <use style="fill:#ff0000;stroke:#ff0000;stroke-width:2;" x="363.320062" xlink:href="#m537a94ffb5" y="155.159093"/>
     <use style="fill:#ff0000;stroke:#ff0000;stroke-width:2;" x="388.711444" xlink:href="#m537a94ffb5" y="157.059366"/>
     <use style="fill:#ff0000;stroke:#ff0000;stroke-width:2;" x="405.245367" xlink:href="#m537a94ffb5" y="169.173607"/>
     <use style="fill:#ff0000;stroke:#ff0000;stroke-width:2;" x="417.64581" xlink:href="#m537a94ffb5" y="165.610595"/>
    </g>
   </g>
   <g id="line2d_44">
    <g clip-path="url(#p3c9ce2fef2)">
     <use style="fill:#ff0000;stroke:#ff0000;stroke-width:2;" x="156.055526" xlink:href="#m537a94ffb5" y="169.648675"/>
     <use style="fill:#ff0000;stroke:#ff0000;stroke-width:2;" x="215.695749" xlink:href="#m537a94ffb5" y="167.748402"/>
     <use style="fill:#ff0000;stroke:#ff0000;stroke-width:2;" x="314.30879" xlink:href="#m537a94ffb5" y="158.722105"/>
     <use style="fill:#ff0000;stroke:#ff0000;stroke-width:2;" x="363.910559" xlink:href="#m537a94ffb5" y="159.909775"/>
     <use style="fill:#ff0000;stroke:#ff0000;stroke-width:2;" x="388.711444" xlink:href="#m537a94ffb5" y="161.33498"/>
     <use style="fill:#ff0000;stroke:#ff0000;stroke-width:2;" x="406.426362" xlink:href="#m537a94ffb5" y="172.261551"/>
     <use style="fill:#ff0000;stroke:#ff0000;stroke-width:2;" x="418.236307" xlink:href="#m537a94ffb5" y="167.748402"/>
    </g>
   </g>
   <g id="patch_7">
    <path d="M 48.703125 326.718125 
L 48.703125 22.318125 
" style="fill:none;stroke:#000000;stroke-linecap:square;stroke-linejoin:miter;stroke-width:0.8;"/>
   </g>
   <g id="patch_8">
    <path d="M 435.833125 326.718125 
L 435.833125 22.318125 
" style="fill:none;stroke:#000000;stroke-linecap:square;stroke-linejoin:miter;stroke-width:0.8;"/>
   </g>
   <g id="patch_9">
    <path d="M 48.703125 326.718125 
L 435.833125 326.718125 
" style="fill:none;stroke:#000000;stroke-linecap:square;stroke-linejoin:miter;stroke-width:0.8;"/>
   </g>
   <g id="patch_10">
    <path d="M 48.703125 22.318125 
L 435.833125 22.318125 
" style="fill:none;stroke:#000000;stroke-linecap:square;stroke-linejoin:miter;stroke-width:0.8;"/>
   </g>
  </g>
 </g>
 <defs>
  <clipPath id="p3c9ce2fef2">
   <rect height="304.4" width="387.13" x="48.703125" y="22.318125"/>
  </clipPath>
 </defs>
</svg>
