<?xml version="1.0" encoding="utf-8" standalone="no"?>
<!DOCTYPE svg PUBLIC "-//W3C//DTD SVG 1.1//EN"
  "http://www.w3.org/Graphics/SVG/1.1/DTD/svg11.dtd">
<!-- Created with matplotlib (http://matplotlib.org/) -->
<svg height="432pt" version="1.1" viewBox="0 0 576 432" width="576pt" xmlns="http://www.w3.org/2000/svg" xmlns:xlink="http://www.w3.org/1999/xlink">
 <defs>
  <style type="text/css">
*{stroke-linecap:butt;stroke-linejoin:round;stroke-miterlimit:100000;}
  </style>
 </defs>
 <g id="figure_1">
  <g id="patch_1">
   <path d="M 0 432 
L 576 432 
L 576 0 
L 0 0 
z
" style="fill:#ffffff;"/>
  </g>
  <g id="axes_1">
   <g id="patch_2">
    <path d="M 72 388.8 
L 518.4 388.8 
L 518.4 43.2 
L 72 43.2 
z
" style="fill:#ffffff;"/>
   </g>
   <g id="line2d_1">
    <path clip-path="url(#p84a4358751)" d="M 415.198221 86.4 
L 401.032831 100.8 
L 372.836704 129.6 
L 345.232448 158.4 
L 317.113331 187.2 
L 288.444222 216 
" style="fill:none;stroke:#00395b;stroke-linecap:square;stroke-width:2.0;"/>
    <defs>
     <path d="M 0 3.75 
C 0.994512 3.75 1.948425 3.354876 2.65165 2.65165 
C 3.354876 1.948425 3.75 0.994512 3.75 0 
C 3.75 -0.994512 3.354876 -1.948425 2.65165 -2.65165 
C 1.948425 -3.354876 0.994512 -3.75 0 -3.75 
C -0.994512 -3.75 -1.948425 -3.354876 -2.65165 -2.65165 
C -3.354876 -1.948425 -3.75 -0.994512 -3.75 0 
C -3.75 0.994512 -3.354876 1.948425 -2.65165 2.65165 
C -1.948425 3.354876 -0.994512 3.75 0 3.75 
z
" id="m17a1c46ca4" style="stroke:#00395b;stroke-width:0.5;"/>
    </defs>
    <g clip-path="url(#p84a4358751)">
     <use style="fill:#00395b;stroke:#00395b;stroke-width:0.5;" x="415.198220679" xlink:href="#m17a1c46ca4" y="86.4"/>
     <use style="fill:#00395b;stroke:#00395b;stroke-width:0.5;" x="401.032831171" xlink:href="#m17a1c46ca4" y="100.8"/>
     <use style="fill:#00395b;stroke:#00395b;stroke-width:0.5;" x="372.836704011" xlink:href="#m17a1c46ca4" y="129.6"/>
     <use style="fill:#00395b;stroke:#00395b;stroke-width:0.5;" x="345.23244831" xlink:href="#m17a1c46ca4" y="158.4"/>
     <use style="fill:#00395b;stroke:#00395b;stroke-width:0.5;" x="317.113330925" xlink:href="#m17a1c46ca4" y="187.2"/>
     <use style="fill:#00395b;stroke:#00395b;stroke-width:0.5;" x="288.444221695" xlink:href="#m17a1c46ca4" y="216.0"/>
    </g>
   </g>
   <g id="line2d_2">
    <path clip-path="url(#p84a4358751)" d="M 431.603405 86.4 
L 417.540514 100.8 
L 389.301549 129.6 
L 360.578774 158.4 
L 331.276609 187.2 
L 301.275661 216 
" style="fill:none;stroke:#74adc1;stroke-linecap:square;stroke-width:2.0;"/>
    <defs>
     <path d="M 0 3.75 
C 0.994512 3.75 1.948425 3.354876 2.65165 2.65165 
C 3.354876 1.948425 3.75 0.994512 3.75 0 
C 3.75 -0.994512 3.354876 -1.948425 2.65165 -2.65165 
C 1.948425 -3.354876 0.994512 -3.75 0 -3.75 
C -0.994512 -3.75 -1.948425 -3.354876 -2.65165 -2.65165 
C -3.354876 -1.948425 -3.75 -0.994512 -3.75 0 
C -3.75 0.994512 -3.354876 1.948425 -2.65165 2.65165 
C -1.948425 3.354876 -0.994512 3.75 0 3.75 
z
" id="mb0d931593c" style="stroke:#74adc1;stroke-width:0.5;"/>
    </defs>
    <g clip-path="url(#p84a4358751)">
     <use style="fill:#74adc1;stroke:#74adc1;stroke-width:0.5;" x="431.60340527" xlink:href="#mb0d931593c" y="86.4"/>
     <use style="fill:#74adc1;stroke:#74adc1;stroke-width:0.5;" x="417.540513842" xlink:href="#mb0d931593c" y="100.8"/>
     <use style="fill:#74adc1;stroke:#74adc1;stroke-width:0.5;" x="389.301548571" xlink:href="#mb0d931593c" y="129.6"/>
     <use style="fill:#74adc1;stroke:#74adc1;stroke-width:0.5;" x="360.578774301" xlink:href="#mb0d931593c" y="158.4"/>
     <use style="fill:#74adc1;stroke:#74adc1;stroke-width:0.5;" x="331.276608897" xlink:href="#mb0d931593c" y="187.2"/>
     <use style="fill:#74adc1;stroke:#74adc1;stroke-width:0.5;" x="301.275660595" xlink:href="#mb0d931593c" y="216.0"/>
    </g>
   </g>
   <g id="line2d_3">
    <path clip-path="url(#p84a4358751)" d="M 450.942262 86.4 
L 436.355017 100.8 
L 406.82716 129.6 
L 377.059601 158.4 
L 346.945762 187.2 
L 316.321253 216 
" style="fill:none;stroke:#bfbfbf;stroke-linecap:square;stroke-width:2.0;"/>
    <defs>
     <path d="M 0 3.75 
C 0.994512 3.75 1.948425 3.354876 2.65165 2.65165 
C 3.354876 1.948425 3.75 0.994512 3.75 0 
C 3.75 -0.994512 3.354876 -1.948425 2.65165 -2.65165 
C 1.948425 -3.354876 0.994512 -3.75 0 -3.75 
C -0.994512 -3.75 -1.948425 -3.354876 -2.65165 -2.65165 
C -3.354876 -1.948425 -3.75 -0.994512 -3.75 0 
C -3.75 0.994512 -3.354876 1.948425 -2.65165 2.65165 
C -1.948425 3.354876 -0.994512 3.75 0 3.75 
z
" id="m253e713187" style="stroke:#bfbfbf;stroke-width:0.5;"/>
    </defs>
    <g clip-path="url(#p84a4358751)">
     <use style="fill:#bfbfbf;stroke:#bfbfbf;stroke-width:0.5;" x="450.942261963" xlink:href="#m253e713187" y="86.4"/>
     <use style="fill:#bfbfbf;stroke:#bfbfbf;stroke-width:0.5;" x="436.355016747" xlink:href="#m253e713187" y="100.8"/>
     <use style="fill:#bfbfbf;stroke:#bfbfbf;stroke-width:0.5;" x="406.82715974" xlink:href="#m253e713187" y="129.6"/>
     <use style="fill:#bfbfbf;stroke:#bfbfbf;stroke-width:0.5;" x="377.059601051" xlink:href="#m253e713187" y="158.4"/>
     <use style="fill:#bfbfbf;stroke:#bfbfbf;stroke-width:0.5;" x="346.945761747" xlink:href="#m253e713187" y="187.2"/>
     <use style="fill:#bfbfbf;stroke:#bfbfbf;stroke-width:0.5;" x="316.321252897" xlink:href="#m253e713187" y="216.0"/>
    </g>
   </g>
   <g id="line2d_4">
    <path clip-path="url(#p84a4358751)" d="M 472.414701 86.4 
L 457.276814 100.8 
L 427.309791 129.6 
L 396.756156 158.4 
L 365.505169 187.2 
L 333.395471 216 
" style="fill:none;stroke:#b54036;stroke-linecap:square;stroke-width:2.0;"/>
    <defs>
     <path d="M 0 3.75 
C 0.994512 3.75 1.948425 3.354876 2.65165 2.65165 
C 3.354876 1.948425 3.75 0.994512 3.75 0 
C 3.75 -0.994512 3.354876 -1.948425 2.65165 -2.65165 
C 1.948425 -3.354876 0.994512 -3.75 0 -3.75 
C -0.994512 -3.75 -1.948425 -3.354876 -2.65165 -2.65165 
C -3.354876 -1.948425 -3.75 -0.994512 -3.75 0 
C -3.75 0.994512 -3.354876 1.948425 -2.65165 2.65165 
C -1.948425 3.354876 -0.994512 3.75 0 3.75 
z
" id="m2910a3e5c5" style="stroke:#b54036;stroke-width:0.5;"/>
    </defs>
    <g clip-path="url(#p84a4358751)">
     <use style="fill:#b54036;stroke:#b54036;stroke-width:0.5;" x="472.414700579" xlink:href="#m2910a3e5c5" y="86.4"/>
     <use style="fill:#b54036;stroke:#b54036;stroke-width:0.5;" x="457.276814408" xlink:href="#m2910a3e5c5" y="100.8"/>
     <use style="fill:#b54036;stroke:#b54036;stroke-width:0.5;" x="427.309790961" xlink:href="#m2910a3e5c5" y="129.6"/>
     <use style="fill:#b54036;stroke:#b54036;stroke-width:0.5;" x="396.756156279" xlink:href="#m2910a3e5c5" y="158.4"/>
     <use style="fill:#b54036;stroke:#b54036;stroke-width:0.5;" x="365.505169242" xlink:href="#m2910a3e5c5" y="187.2"/>
     <use style="fill:#b54036;stroke:#b54036;stroke-width:0.5;" x="333.395471013" xlink:href="#m2910a3e5c5" y="216.0"/>
    </g>
   </g>
   <g id="line2d_5">
    <path clip-path="url(#p84a4358751)" d="M 497.603982 86.4 
L 482.029454 100.8 
L 450.500405 129.6 
L 418.392073 158.4 
L 385.928631 187.2 
L 352.669642 216 
" style="fill:none;stroke:#ec6707;stroke-linecap:square;stroke-width:2.0;"/>
    <defs>
     <path d="M 0 3.75 
C 0.994512 3.75 1.948425 3.354876 2.65165 2.65165 
C 3.354876 1.948425 3.75 0.994512 3.75 0 
C 3.75 -0.994512 3.354876 -1.948425 2.65165 -2.65165 
C 1.948425 -3.354876 0.994512 -3.75 0 -3.75 
C -0.994512 -3.75 -1.948425 -3.354876 -2.65165 -2.65165 
C -3.354876 -1.948425 -3.75 -0.994512 -3.75 0 
C -3.75 0.994512 -3.354876 1.948425 -2.65165 2.65165 
C -1.948425 3.354876 -0.994512 3.75 0 3.75 
z
" id="mea9fc46c6b" style="stroke:#ec6707;stroke-width:0.5;"/>
    </defs>
    <g clip-path="url(#p84a4358751)">
     <use style="fill:#ec6707;stroke:#ec6707;stroke-width:0.5;" x="497.603981645" xlink:href="#mea9fc46c6b" y="86.4"/>
     <use style="fill:#ec6707;stroke:#ec6707;stroke-width:0.5;" x="482.0294541" xlink:href="#mea9fc46c6b" y="100.8"/>
     <use style="fill:#ec6707;stroke:#ec6707;stroke-width:0.5;" x="450.500405414" xlink:href="#mea9fc46c6b" y="129.6"/>
     <use style="fill:#ec6707;stroke:#ec6707;stroke-width:0.5;" x="418.392072955" xlink:href="#mea9fc46c6b" y="158.4"/>
     <use style="fill:#ec6707;stroke:#ec6707;stroke-width:0.5;" x="385.928630743" xlink:href="#mea9fc46c6b" y="187.2"/>
     <use style="fill:#ec6707;stroke:#ec6707;stroke-width:0.5;" x="352.669641648" xlink:href="#mea9fc46c6b" y="216.0"/>
    </g>
   </g>
   <g id="patch_3">
    <path d="M 518.4 388.8 
L 518.4 43.2 
" style="fill:none;stroke:#000000;stroke-linecap:square;stroke-linejoin:miter;"/>
   </g>
   <g id="patch_4">
    <path d="M 72 388.8 
L 518.4 388.8 
" style="fill:none;stroke:#000000;stroke-linecap:square;stroke-linejoin:miter;"/>
   </g>
   <g id="patch_5">
    <path d="M 72 43.2 
L 518.4 43.2 
" style="fill:none;stroke:#000000;stroke-linecap:square;stroke-linejoin:miter;"/>
   </g>
   <g id="patch_6">
    <path d="M 72 388.8 
L 72 43.2 
" style="fill:none;stroke:#000000;stroke-linecap:square;stroke-linejoin:miter;"/>
   </g>
   <g id="matplotlib.axis_1">
    <g id="xtick_1">
     <g id="line2d_6">
      <defs>
       <path d="M 0 0 
L 0 -4 
" id="md06ae18ff3" style="stroke:#000000;stroke-width:0.5;"/>
      </defs>
      <g>
       <use style="stroke:#000000;stroke-width:0.5;" x="72.0" xlink:href="#md06ae18ff3" y="388.8"/>
      </g>
     </g>
     <g id="line2d_7">
      <defs>
       <path d="M 0 0 
L 0 4 
" id="ma0f68e5f22" style="stroke:#000000;stroke-width:0.5;"/>
      </defs>
      <g>
       <use style="stroke:#000000;stroke-width:0.5;" x="72.0" xlink:href="#ma0f68e5f22" y="43.2"/>
      </g>
     </g>
     <g id="text_1">
      <!-- 0.0 -->
      <defs>
       <path d="M 10.6875 12.40625 
L 21 12.40625 
L 21 0 
L 10.6875 0 
z
" id="BitstreamVeraSans-Roman-2e"/>
       <path d="M 31.78125 66.40625 
Q 24.171875 66.40625 20.328125 58.90625 
Q 16.5 51.421875 16.5 36.375 
Q 16.5 21.390625 20.328125 13.890625 
Q 24.171875 6.390625 31.78125 6.390625 
Q 39.453125 6.390625 43.28125 13.890625 
Q 47.125 21.390625 47.125 36.375 
Q 47.125 51.421875 43.28125 58.90625 
Q 39.453125 66.40625 31.78125 66.40625 
M 31.78125 74.21875 
Q 44.046875 74.21875 50.515625 64.515625 
Q 56.984375 54.828125 56.984375 36.375 
Q 56.984375 17.96875 50.515625 8.265625 
Q 44.046875 -1.421875 31.78125 -1.421875 
Q 19.53125 -1.421875 13.0625 8.265625 
Q 6.59375 17.96875 6.59375 36.375 
Q 6.59375 54.828125 13.0625 64.515625 
Q 19.53125 74.21875 31.78125 74.21875 
" id="BitstreamVeraSans-Roman-30"/>
      </defs>
      <g transform="translate(62.458125 401.918125)scale(0.12 -0.12)">
       <use xlink:href="#BitstreamVeraSans-Roman-30"/>
       <use x="63.623046875" xlink:href="#BitstreamVeraSans-Roman-2e"/>
       <use x="95.41015625" xlink:href="#BitstreamVeraSans-Roman-30"/>
      </g>
     </g>
    </g>
    <g id="xtick_2">
     <g id="line2d_8">
      <g>
       <use style="stroke:#000000;stroke-width:0.5;" x="135.771428571" xlink:href="#md06ae18ff3" y="388.8"/>
      </g>
     </g>
     <g id="line2d_9">
      <g>
       <use style="stroke:#000000;stroke-width:0.5;" x="135.771428571" xlink:href="#ma0f68e5f22" y="43.2"/>
      </g>
     </g>
     <g id="text_2">
      <!-- 0.2 -->
      <defs>
       <path d="M 19.1875 8.296875 
L 53.609375 8.296875 
L 53.609375 0 
L 7.328125 0 
L 7.328125 8.296875 
Q 12.9375 14.109375 22.625 23.890625 
Q 32.328125 33.6875 34.8125 36.53125 
Q 39.546875 41.84375 41.421875 45.53125 
Q 43.3125 49.21875 43.3125 52.78125 
Q 43.3125 58.59375 39.234375 62.25 
Q 35.15625 65.921875 28.609375 65.921875 
Q 23.96875 65.921875 18.8125 64.3125 
Q 13.671875 62.703125 7.8125 59.421875 
L 7.8125 69.390625 
Q 13.765625 71.78125 18.9375 73 
Q 24.125 74.21875 28.421875 74.21875 
Q 39.75 74.21875 46.484375 68.546875 
Q 53.21875 62.890625 53.21875 53.421875 
Q 53.21875 48.921875 51.53125 44.890625 
Q 49.859375 40.875 45.40625 35.40625 
Q 44.1875 33.984375 37.640625 27.21875 
Q 31.109375 20.453125 19.1875 8.296875 
" id="BitstreamVeraSans-Roman-32"/>
      </defs>
      <g transform="translate(126.229553571 401.918125)scale(0.12 -0.12)">
       <use xlink:href="#BitstreamVeraSans-Roman-30"/>
       <use x="63.623046875" xlink:href="#BitstreamVeraSans-Roman-2e"/>
       <use x="95.41015625" xlink:href="#BitstreamVeraSans-Roman-32"/>
      </g>
     </g>
    </g>
    <g id="xtick_3">
     <g id="line2d_10">
      <g>
       <use style="stroke:#000000;stroke-width:0.5;" x="199.542857143" xlink:href="#md06ae18ff3" y="388.8"/>
      </g>
     </g>
     <g id="line2d_11">
      <g>
       <use style="stroke:#000000;stroke-width:0.5;" x="199.542857143" xlink:href="#ma0f68e5f22" y="43.2"/>
      </g>
     </g>
     <g id="text_3">
      <!-- 0.4 -->
      <defs>
       <path d="M 37.796875 64.3125 
L 12.890625 25.390625 
L 37.796875 25.390625 
z
M 35.203125 72.90625 
L 47.609375 72.90625 
L 47.609375 25.390625 
L 58.015625 25.390625 
L 58.015625 17.1875 
L 47.609375 17.1875 
L 47.609375 0 
L 37.796875 0 
L 37.796875 17.1875 
L 4.890625 17.1875 
L 4.890625 26.703125 
z
" id="BitstreamVeraSans-Roman-34"/>
      </defs>
      <g transform="translate(190.000982143 401.918125)scale(0.12 -0.12)">
       <use xlink:href="#BitstreamVeraSans-Roman-30"/>
       <use x="63.623046875" xlink:href="#BitstreamVeraSans-Roman-2e"/>
       <use x="95.41015625" xlink:href="#BitstreamVeraSans-Roman-34"/>
      </g>
     </g>
    </g>
    <g id="xtick_4">
     <g id="line2d_12">
      <g>
       <use style="stroke:#000000;stroke-width:0.5;" x="263.314285714" xlink:href="#md06ae18ff3" y="388.8"/>
      </g>
     </g>
     <g id="line2d_13">
      <g>
       <use style="stroke:#000000;stroke-width:0.5;" x="263.314285714" xlink:href="#ma0f68e5f22" y="43.2"/>
      </g>
     </g>
     <g id="text_4">
      <!-- 0.6 -->
      <defs>
       <path d="M 33.015625 40.375 
Q 26.375 40.375 22.484375 35.828125 
Q 18.609375 31.296875 18.609375 23.390625 
Q 18.609375 15.53125 22.484375 10.953125 
Q 26.375 6.390625 33.015625 6.390625 
Q 39.65625 6.390625 43.53125 10.953125 
Q 47.40625 15.53125 47.40625 23.390625 
Q 47.40625 31.296875 43.53125 35.828125 
Q 39.65625 40.375 33.015625 40.375 
M 52.59375 71.296875 
L 52.59375 62.3125 
Q 48.875 64.0625 45.09375 64.984375 
Q 41.3125 65.921875 37.59375 65.921875 
Q 27.828125 65.921875 22.671875 59.328125 
Q 17.53125 52.734375 16.796875 39.40625 
Q 19.671875 43.65625 24.015625 45.921875 
Q 28.375 48.1875 33.59375 48.1875 
Q 44.578125 48.1875 50.953125 41.515625 
Q 57.328125 34.859375 57.328125 23.390625 
Q 57.328125 12.15625 50.6875 5.359375 
Q 44.046875 -1.421875 33.015625 -1.421875 
Q 20.359375 -1.421875 13.671875 8.265625 
Q 6.984375 17.96875 6.984375 36.375 
Q 6.984375 53.65625 15.1875 63.9375 
Q 23.390625 74.21875 37.203125 74.21875 
Q 40.921875 74.21875 44.703125 73.484375 
Q 48.484375 72.75 52.59375 71.296875 
" id="BitstreamVeraSans-Roman-36"/>
      </defs>
      <g transform="translate(253.772410714 401.918125)scale(0.12 -0.12)">
       <use xlink:href="#BitstreamVeraSans-Roman-30"/>
       <use x="63.623046875" xlink:href="#BitstreamVeraSans-Roman-2e"/>
       <use x="95.41015625" xlink:href="#BitstreamVeraSans-Roman-36"/>
      </g>
     </g>
    </g>
    <g id="xtick_5">
     <g id="line2d_14">
      <g>
       <use style="stroke:#000000;stroke-width:0.5;" x="327.085714286" xlink:href="#md06ae18ff3" y="388.8"/>
      </g>
     </g>
     <g id="line2d_15">
      <g>
       <use style="stroke:#000000;stroke-width:0.5;" x="327.085714286" xlink:href="#ma0f68e5f22" y="43.2"/>
      </g>
     </g>
     <g id="text_5">
      <!-- 0.8 -->
      <defs>
       <path d="M 31.78125 34.625 
Q 24.75 34.625 20.71875 30.859375 
Q 16.703125 27.09375 16.703125 20.515625 
Q 16.703125 13.921875 20.71875 10.15625 
Q 24.75 6.390625 31.78125 6.390625 
Q 38.8125 6.390625 42.859375 10.171875 
Q 46.921875 13.96875 46.921875 20.515625 
Q 46.921875 27.09375 42.890625 30.859375 
Q 38.875 34.625 31.78125 34.625 
M 21.921875 38.8125 
Q 15.578125 40.375 12.03125 44.71875 
Q 8.5 49.078125 8.5 55.328125 
Q 8.5 64.0625 14.71875 69.140625 
Q 20.953125 74.21875 31.78125 74.21875 
Q 42.671875 74.21875 48.875 69.140625 
Q 55.078125 64.0625 55.078125 55.328125 
Q 55.078125 49.078125 51.53125 44.71875 
Q 48 40.375 41.703125 38.8125 
Q 48.828125 37.15625 52.796875 32.3125 
Q 56.78125 27.484375 56.78125 20.515625 
Q 56.78125 9.90625 50.3125 4.234375 
Q 43.84375 -1.421875 31.78125 -1.421875 
Q 19.734375 -1.421875 13.25 4.234375 
Q 6.78125 9.90625 6.78125 20.515625 
Q 6.78125 27.484375 10.78125 32.3125 
Q 14.796875 37.15625 21.921875 38.8125 
M 18.3125 54.390625 
Q 18.3125 48.734375 21.84375 45.5625 
Q 25.390625 42.390625 31.78125 42.390625 
Q 38.140625 42.390625 41.71875 45.5625 
Q 45.3125 48.734375 45.3125 54.390625 
Q 45.3125 60.0625 41.71875 63.234375 
Q 38.140625 66.40625 31.78125 66.40625 
Q 25.390625 66.40625 21.84375 63.234375 
Q 18.3125 60.0625 18.3125 54.390625 
" id="BitstreamVeraSans-Roman-38"/>
      </defs>
      <g transform="translate(317.543839286 401.918125)scale(0.12 -0.12)">
       <use xlink:href="#BitstreamVeraSans-Roman-30"/>
       <use x="63.623046875" xlink:href="#BitstreamVeraSans-Roman-2e"/>
       <use x="95.41015625" xlink:href="#BitstreamVeraSans-Roman-38"/>
      </g>
     </g>
    </g>
    <g id="xtick_6">
     <g id="line2d_16">
      <g>
       <use style="stroke:#000000;stroke-width:0.5;" x="390.857142857" xlink:href="#md06ae18ff3" y="388.8"/>
      </g>
     </g>
     <g id="line2d_17">
      <g>
       <use style="stroke:#000000;stroke-width:0.5;" x="390.857142857" xlink:href="#ma0f68e5f22" y="43.2"/>
      </g>
     </g>
     <g id="text_6">
      <!-- 1.0 -->
      <defs>
       <path d="M 12.40625 8.296875 
L 28.515625 8.296875 
L 28.515625 63.921875 
L 10.984375 60.40625 
L 10.984375 69.390625 
L 28.421875 72.90625 
L 38.28125 72.90625 
L 38.28125 8.296875 
L 54.390625 8.296875 
L 54.390625 0 
L 12.40625 0 
z
" id="BitstreamVeraSans-Roman-31"/>
      </defs>
      <g transform="translate(381.315267857 401.918125)scale(0.12 -0.12)">
       <use xlink:href="#BitstreamVeraSans-Roman-31"/>
       <use x="63.623046875" xlink:href="#BitstreamVeraSans-Roman-2e"/>
       <use x="95.41015625" xlink:href="#BitstreamVeraSans-Roman-30"/>
      </g>
     </g>
    </g>
    <g id="xtick_7">
     <g id="line2d_18">
      <g>
       <use style="stroke:#000000;stroke-width:0.5;" x="454.628571429" xlink:href="#md06ae18ff3" y="388.8"/>
      </g>
     </g>
     <g id="line2d_19">
      <g>
       <use style="stroke:#000000;stroke-width:0.5;" x="454.628571429" xlink:href="#ma0f68e5f22" y="43.2"/>
      </g>
     </g>
     <g id="text_7">
      <!-- 1.2 -->
      <g transform="translate(445.086696429 401.918125)scale(0.12 -0.12)">
       <use xlink:href="#BitstreamVeraSans-Roman-31"/>
       <use x="63.623046875" xlink:href="#BitstreamVeraSans-Roman-2e"/>
       <use x="95.41015625" xlink:href="#BitstreamVeraSans-Roman-32"/>
      </g>
     </g>
    </g>
    <g id="xtick_8">
     <g id="line2d_20">
      <g>
       <use style="stroke:#000000;stroke-width:0.5;" x="518.4" xlink:href="#md06ae18ff3" y="388.8"/>
      </g>
     </g>
     <g id="line2d_21">
      <g>
       <use style="stroke:#000000;stroke-width:0.5;" x="518.4" xlink:href="#ma0f68e5f22" y="43.2"/>
      </g>
     </g>
     <g id="text_8">
      <!-- 1.4 -->
      <g transform="translate(508.858125 401.918125)scale(0.12 -0.12)">
       <use xlink:href="#BitstreamVeraSans-Roman-31"/>
       <use x="63.623046875" xlink:href="#BitstreamVeraSans-Roman-2e"/>
       <use x="95.41015625" xlink:href="#BitstreamVeraSans-Roman-34"/>
      </g>
     </g>
    </g>
    <g id="text_9">
     <!-- $\dot{Q}$ in W -->
     <defs>
      <path d="M 9.421875 54.6875 
L 18.40625 54.6875 
L 18.40625 0 
L 9.421875 0 
z
M 9.421875 75.984375 
L 18.40625 75.984375 
L 18.40625 64.59375 
L 9.421875 64.59375 
z
" id="BitstreamVeraSans-Roman-69"/>
      <path d="M 3.328125 72.90625 
L 13.28125 72.90625 
L 28.609375 11.28125 
L 43.890625 72.90625 
L 54.984375 72.90625 
L 70.3125 11.28125 
L 85.59375 72.90625 
L 95.609375 72.90625 
L 77.296875 0 
L 64.890625 0 
L 49.515625 63.28125 
L 33.984375 0 
L 21.578125 0 
z
" id="BitstreamVeraSans-Roman-57"/>
      <path d="M 54.890625 33.015625 
L 54.890625 0 
L 45.90625 0 
L 45.90625 32.71875 
Q 45.90625 40.484375 42.875 44.328125 
Q 39.84375 48.1875 33.796875 48.1875 
Q 26.515625 48.1875 22.3125 43.546875 
Q 18.109375 38.921875 18.109375 30.90625 
L 18.109375 0 
L 9.078125 0 
L 9.078125 54.6875 
L 18.109375 54.6875 
L 18.109375 46.1875 
Q 21.34375 51.125 25.703125 53.5625 
Q 30.078125 56 35.796875 56 
Q 45.21875 56 50.046875 50.171875 
Q 54.890625 44.34375 54.890625 33.015625 
" id="BitstreamVeraSans-Roman-6e"/>
      <path id="BitstreamVeraSans-Roman-20"/>
      <path d="M 8.40625 61.375 
Q 8.40625 63.578125 10.0625 65.234375 
Q 11.71875 66.890625 13.921875 66.890625 
Q 15.28125 66.890625 16.59375 66.15625 
Q 17.921875 65.4375 18.65625 64.109375 
Q 19.390625 62.796875 19.390625 61.375 
Q 19.390625 59.234375 17.765625 57.5625 
Q 16.15625 55.90625 13.921875 55.90625 
Q 11.71875 55.90625 10.0625 57.5625 
Q 8.40625 59.234375 8.40625 61.375 
" id="Cmr10-5f"/>
      <path d="M 30.421875 -2.203125 
Q 22.90625 -2.203125 17.09375 1.234375 
Q 11.28125 4.6875 8.125 10.8125 
Q 4.984375 16.9375 4.984375 24.421875 
Q 4.984375 35.296875 11.15625 46.09375 
Q 17.328125 56.890625 27.4375 63.703125 
Q 37.546875 70.515625 48.578125 70.515625 
Q 54.296875 70.515625 59.03125 68.453125 
Q 63.765625 66.40625 67.03125 62.765625 
Q 70.3125 59.125 72.09375 54.234375 
Q 73.875 49.359375 73.875 43.609375 
Q 73.875 36.96875 71.578125 30.25 
Q 69.28125 23.53125 65.171875 17.75 
Q 61.078125 11.96875 55.609375 7.5625 
Q 50.140625 3.171875 43.890625 0.59375 
Q 44.53125 -4 45.84375 -6.640625 
Q 47.171875 -9.28125 50.875 -9.28125 
Q 54.78125 -9.28125 58.21875 -6.4375 
Q 61.671875 -3.609375 62.59375 0.203125 
Q 62.796875 1.125 63.71875 1.125 
Q 64.796875 1.125 64.796875 -0.203125 
Q 64.0625 -3.421875 62.625 -6.71875 
Q 61.1875 -10.015625 59.15625 -12.859375 
Q 57.125 -15.71875 54.34375 -17.546875 
Q 51.5625 -19.390625 48.1875 -19.390625 
Q 39.796875 -19.390625 39.796875 -8.59375 
Q 39.796875 -7.953125 40.03125 -5.1875 
Q 40.28125 -2.4375 40.28125 -0.6875 
Q 35.453125 -2.203125 30.421875 -2.203125 
M 26.703125 4.6875 
Q 26.703125 0.6875 31.109375 0.6875 
Q 35.546875 0.6875 40.484375 2.875 
L 40.484375 3.8125 
Q 40.484375 7.859375 39.203125 10.125 
Q 37.9375 12.40625 34.28125 12.40625 
Q 32.46875 12.40625 30.6875 11.296875 
Q 28.90625 10.203125 27.796875 8.421875 
Q 26.703125 6.640625 26.703125 4.6875 
M 24.125 4.5 
Q 24.125 7.125 25.578125 9.5625 
Q 27.046875 12.015625 29.390625 13.5 
Q 31.734375 14.984375 34.421875 14.984375 
Q 38.765625 14.984375 40.734375 12.046875 
Q 42.71875 9.125 43.40625 4.390625 
Q 49.8125 8.203125 54.6875 15.28125 
Q 59.578125 22.359375 62.140625 30.828125 
Q 64.703125 39.3125 64.703125 46.921875 
Q 64.703125 52.4375 62.859375 57.125 
Q 61.03125 61.8125 57.25 64.6875 
Q 53.46875 67.578125 47.90625 67.578125 
Q 42.53125 67.578125 37.546875 64.9375 
Q 32.5625 62.3125 28.328125 57.90625 
Q 24.21875 53.65625 20.96875 47.375 
Q 17.71875 41.109375 15.953125 34.265625 
Q 14.203125 27.4375 14.203125 21.1875 
Q 14.203125 14.796875 16.6875 9.5625 
Q 19.1875 4.34375 24.515625 2 
Q 24.125 3.03125 24.125 4.5 
" id="Cmmi10-51"/>
     </defs>
     <g transform="translate(275.22 420.598125)scale(0.12 -0.12)">
      <use transform="translate(35.3447265625 27.109375)" xlink:href="#Cmr10-5f"/>
      <use xlink:href="#Cmmi10-51"/>
      <use transform="translate(79.00390625 0.0)" xlink:href="#BitstreamVeraSans-Roman-20"/>
      <use transform="translate(110.791015625 0.0)" xlink:href="#BitstreamVeraSans-Roman-69"/>
      <use transform="translate(138.57421875 0.0)" xlink:href="#BitstreamVeraSans-Roman-6e"/>
      <use transform="translate(201.953125 0.0)" xlink:href="#BitstreamVeraSans-Roman-20"/>
      <use transform="translate(233.740234375 0.0)" xlink:href="#BitstreamVeraSans-Roman-57"/>
     </g>
    </g>
    <g id="text_10">
     <!-- 1e7 -->
     <defs>
      <path d="M 56.203125 29.59375 
L 56.203125 25.203125 
L 14.890625 25.203125 
Q 15.484375 15.921875 20.484375 11.0625 
Q 25.484375 6.203125 34.421875 6.203125 
Q 39.59375 6.203125 44.453125 7.46875 
Q 49.3125 8.734375 54.109375 11.28125 
L 54.109375 2.78125 
Q 49.265625 0.734375 44.1875 -0.34375 
Q 39.109375 -1.421875 33.890625 -1.421875 
Q 20.796875 -1.421875 13.15625 6.1875 
Q 5.515625 13.8125 5.515625 26.8125 
Q 5.515625 40.234375 12.765625 48.109375 
Q 20.015625 56 32.328125 56 
Q 43.359375 56 49.78125 48.890625 
Q 56.203125 41.796875 56.203125 29.59375 
M 47.21875 32.234375 
Q 47.125 39.59375 43.09375 43.984375 
Q 39.0625 48.390625 32.421875 48.390625 
Q 24.90625 48.390625 20.390625 44.140625 
Q 15.875 39.890625 15.1875 32.171875 
z
" id="BitstreamVeraSans-Roman-65"/>
      <path d="M 8.203125 72.90625 
L 55.078125 72.90625 
L 55.078125 68.703125 
L 28.609375 0 
L 18.3125 0 
L 43.21875 64.59375 
L 8.203125 64.59375 
z
" id="BitstreamVeraSans-Roman-37"/>
     </defs>
     <g transform="translate(495.74625 416.531875)scale(0.12 -0.12)">
      <use xlink:href="#BitstreamVeraSans-Roman-31"/>
      <use x="63.623046875" xlink:href="#BitstreamVeraSans-Roman-65"/>
      <use x="125.146484375" xlink:href="#BitstreamVeraSans-Roman-37"/>
     </g>
    </g>
   </g>
   <g id="matplotlib.axis_2">
    <g id="ytick_1">
     <g id="line2d_22">
      <defs>
       <path d="M 0 0 
L 4 0 
" id="m99bcd88396" style="stroke:#000000;stroke-width:0.5;"/>
      </defs>
      <g>
       <use style="stroke:#000000;stroke-width:0.5;" x="72.0" xlink:href="#m99bcd88396" y="388.8"/>
      </g>
     </g>
     <g id="line2d_23">
      <defs>
       <path d="M 0 0 
L -4 0 
" id="m641b50eec8" style="stroke:#000000;stroke-width:0.5;"/>
      </defs>
      <g>
       <use style="stroke:#000000;stroke-width:0.5;" x="518.4" xlink:href="#m641b50eec8" y="388.8"/>
      </g>
     </g>
     <g id="text_11">
      <!-- 0 -->
      <g transform="translate(60.365 392.11125)scale(0.12 -0.12)">
       <use xlink:href="#BitstreamVeraSans-Roman-30"/>
      </g>
     </g>
    </g>
    <g id="ytick_2">
     <g id="line2d_24">
      <g>
       <use style="stroke:#000000;stroke-width:0.5;" x="72.0" xlink:href="#m99bcd88396" y="331.2"/>
      </g>
     </g>
     <g id="line2d_25">
      <g>
       <use style="stroke:#000000;stroke-width:0.5;" x="518.4" xlink:href="#m641b50eec8" y="331.2"/>
      </g>
     </g>
     <g id="text_12">
      <!-- 1000000 -->
      <g transform="translate(14.555 334.51125)scale(0.12 -0.12)">
       <use xlink:href="#BitstreamVeraSans-Roman-31"/>
       <use x="63.623046875" xlink:href="#BitstreamVeraSans-Roman-30"/>
       <use x="127.24609375" xlink:href="#BitstreamVeraSans-Roman-30"/>
       <use x="190.869140625" xlink:href="#BitstreamVeraSans-Roman-30"/>
       <use x="254.4921875" xlink:href="#BitstreamVeraSans-Roman-30"/>
       <use x="318.115234375" xlink:href="#BitstreamVeraSans-Roman-30"/>
       <use x="381.73828125" xlink:href="#BitstreamVeraSans-Roman-30"/>
      </g>
     </g>
    </g>
    <g id="ytick_3">
     <g id="line2d_26">
      <g>
       <use style="stroke:#000000;stroke-width:0.5;" x="72.0" xlink:href="#m99bcd88396" y="273.6"/>
      </g>
     </g>
     <g id="line2d_27">
      <g>
       <use style="stroke:#000000;stroke-width:0.5;" x="518.4" xlink:href="#m641b50eec8" y="273.6"/>
      </g>
     </g>
     <g id="text_13">
      <!-- 2000000 -->
      <g transform="translate(14.555 276.91125)scale(0.12 -0.12)">
       <use xlink:href="#BitstreamVeraSans-Roman-32"/>
       <use x="63.623046875" xlink:href="#BitstreamVeraSans-Roman-30"/>
       <use x="127.24609375" xlink:href="#BitstreamVeraSans-Roman-30"/>
       <use x="190.869140625" xlink:href="#BitstreamVeraSans-Roman-30"/>
       <use x="254.4921875" xlink:href="#BitstreamVeraSans-Roman-30"/>
       <use x="318.115234375" xlink:href="#BitstreamVeraSans-Roman-30"/>
       <use x="381.73828125" xlink:href="#BitstreamVeraSans-Roman-30"/>
      </g>
     </g>
    </g>
    <g id="ytick_4">
     <g id="line2d_28">
      <g>
       <use style="stroke:#000000;stroke-width:0.5;" x="72.0" xlink:href="#m99bcd88396" y="216.0"/>
      </g>
     </g>
     <g id="line2d_29">
      <g>
       <use style="stroke:#000000;stroke-width:0.5;" x="518.4" xlink:href="#m641b50eec8" y="216.0"/>
      </g>
     </g>
     <g id="text_14">
      <!-- 3000000 -->
      <defs>
       <path d="M 40.578125 39.3125 
Q 47.65625 37.796875 51.625 33 
Q 55.609375 28.21875 55.609375 21.1875 
Q 55.609375 10.40625 48.1875 4.484375 
Q 40.765625 -1.421875 27.09375 -1.421875 
Q 22.515625 -1.421875 17.65625 -0.515625 
Q 12.796875 0.390625 7.625 2.203125 
L 7.625 11.71875 
Q 11.71875 9.328125 16.59375 8.109375 
Q 21.484375 6.890625 26.8125 6.890625 
Q 36.078125 6.890625 40.9375 10.546875 
Q 45.796875 14.203125 45.796875 21.1875 
Q 45.796875 27.640625 41.28125 31.265625 
Q 36.765625 34.90625 28.71875 34.90625 
L 20.21875 34.90625 
L 20.21875 43.015625 
L 29.109375 43.015625 
Q 36.375 43.015625 40.234375 45.921875 
Q 44.09375 48.828125 44.09375 54.296875 
Q 44.09375 59.90625 40.109375 62.90625 
Q 36.140625 65.921875 28.71875 65.921875 
Q 24.65625 65.921875 20.015625 65.03125 
Q 15.375 64.15625 9.8125 62.3125 
L 9.8125 71.09375 
Q 15.4375 72.65625 20.34375 73.4375 
Q 25.25 74.21875 29.59375 74.21875 
Q 40.828125 74.21875 47.359375 69.109375 
Q 53.90625 64.015625 53.90625 55.328125 
Q 53.90625 49.265625 50.4375 45.09375 
Q 46.96875 40.921875 40.578125 39.3125 
" id="BitstreamVeraSans-Roman-33"/>
      </defs>
      <g transform="translate(14.555 219.31125)scale(0.12 -0.12)">
       <use xlink:href="#BitstreamVeraSans-Roman-33"/>
       <use x="63.623046875" xlink:href="#BitstreamVeraSans-Roman-30"/>
       <use x="127.24609375" xlink:href="#BitstreamVeraSans-Roman-30"/>
       <use x="190.869140625" xlink:href="#BitstreamVeraSans-Roman-30"/>
       <use x="254.4921875" xlink:href="#BitstreamVeraSans-Roman-30"/>
       <use x="318.115234375" xlink:href="#BitstreamVeraSans-Roman-30"/>
       <use x="381.73828125" xlink:href="#BitstreamVeraSans-Roman-30"/>
      </g>
     </g>
    </g>
    <g id="ytick_5">
     <g id="line2d_30">
      <g>
       <use style="stroke:#000000;stroke-width:0.5;" x="72.0" xlink:href="#m99bcd88396" y="158.4"/>
      </g>
     </g>
     <g id="line2d_31">
      <g>
       <use style="stroke:#000000;stroke-width:0.5;" x="518.4" xlink:href="#m641b50eec8" y="158.4"/>
      </g>
     </g>
     <g id="text_15">
      <!-- 4000000 -->
      <g transform="translate(14.555 161.71125)scale(0.12 -0.12)">
       <use xlink:href="#BitstreamVeraSans-Roman-34"/>
       <use x="63.623046875" xlink:href="#BitstreamVeraSans-Roman-30"/>
       <use x="127.24609375" xlink:href="#BitstreamVeraSans-Roman-30"/>
       <use x="190.869140625" xlink:href="#BitstreamVeraSans-Roman-30"/>
       <use x="254.4921875" xlink:href="#BitstreamVeraSans-Roman-30"/>
       <use x="318.115234375" xlink:href="#BitstreamVeraSans-Roman-30"/>
       <use x="381.73828125" xlink:href="#BitstreamVeraSans-Roman-30"/>
      </g>
     </g>
    </g>
    <g id="ytick_6">
     <g id="line2d_32">
      <g>
       <use style="stroke:#000000;stroke-width:0.5;" x="72.0" xlink:href="#m99bcd88396" y="100.8"/>
      </g>
     </g>
     <g id="line2d_33">
      <g>
       <use style="stroke:#000000;stroke-width:0.5;" x="518.4" xlink:href="#m641b50eec8" y="100.8"/>
      </g>
     </g>
     <g id="text_16">
      <!-- 5000000 -->
      <defs>
       <path d="M 10.796875 72.90625 
L 49.515625 72.90625 
L 49.515625 64.59375 
L 19.828125 64.59375 
L 19.828125 46.734375 
Q 21.96875 47.46875 24.109375 47.828125 
Q 26.265625 48.1875 28.421875 48.1875 
Q 40.625 48.1875 47.75 41.5 
Q 54.890625 34.8125 54.890625 23.390625 
Q 54.890625 11.625 47.5625 5.09375 
Q 40.234375 -1.421875 26.90625 -1.421875 
Q 22.3125 -1.421875 17.546875 -0.640625 
Q 12.796875 0.140625 7.71875 1.703125 
L 7.71875 11.625 
Q 12.109375 9.234375 16.796875 8.0625 
Q 21.484375 6.890625 26.703125 6.890625 
Q 35.15625 6.890625 40.078125 11.328125 
Q 45.015625 15.765625 45.015625 23.390625 
Q 45.015625 31 40.078125 35.4375 
Q 35.15625 39.890625 26.703125 39.890625 
Q 22.75 39.890625 18.8125 39.015625 
Q 14.890625 38.140625 10.796875 36.28125 
z
" id="BitstreamVeraSans-Roman-35"/>
      </defs>
      <g transform="translate(14.555 104.11125)scale(0.12 -0.12)">
       <use xlink:href="#BitstreamVeraSans-Roman-35"/>
       <use x="63.623046875" xlink:href="#BitstreamVeraSans-Roman-30"/>
       <use x="127.24609375" xlink:href="#BitstreamVeraSans-Roman-30"/>
       <use x="190.869140625" xlink:href="#BitstreamVeraSans-Roman-30"/>
       <use x="254.4921875" xlink:href="#BitstreamVeraSans-Roman-30"/>
       <use x="318.115234375" xlink:href="#BitstreamVeraSans-Roman-30"/>
       <use x="381.73828125" xlink:href="#BitstreamVeraSans-Roman-30"/>
      </g>
     </g>
    </g>
    <g id="ytick_7">
     <g id="line2d_34">
      <g>
       <use style="stroke:#000000;stroke-width:0.5;" x="72.0" xlink:href="#m99bcd88396" y="43.2"/>
      </g>
     </g>
     <g id="line2d_35">
      <g>
       <use style="stroke:#000000;stroke-width:0.5;" x="518.4" xlink:href="#m641b50eec8" y="43.2"/>
      </g>
     </g>
     <g id="text_17">
      <!-- 6000000 -->
      <g transform="translate(14.555 46.51125)scale(0.12 -0.12)">
       <use xlink:href="#BitstreamVeraSans-Roman-36"/>
       <use x="63.623046875" xlink:href="#BitstreamVeraSans-Roman-30"/>
       <use x="127.24609375" xlink:href="#BitstreamVeraSans-Roman-30"/>
       <use x="190.869140625" xlink:href="#BitstreamVeraSans-Roman-30"/>
       <use x="254.4921875" xlink:href="#BitstreamVeraSans-Roman-30"/>
       <use x="318.115234375" xlink:href="#BitstreamVeraSans-Roman-30"/>
       <use x="381.73828125" xlink:href="#BitstreamVeraSans-Roman-30"/>
      </g>
     </g>
    </g>
    <g id="text_18">
     <!-- $P$ in W -->
     <defs>
      <path d="M 4.890625 0 
Q 3.90625 0 3.90625 1.3125 
Q 3.953125 1.5625 4.09375 2.171875 
Q 4.25 2.78125 4.515625 3.140625 
Q 4.78125 3.515625 5.171875 3.515625 
Q 11.28125 3.515625 13.71875 4.203125 
Q 14.984375 4.640625 15.578125 6.890625 
L 29.296875 61.8125 
Q 29.5 62.796875 29.5 63.1875 
Q 29.5 64.265625 28.328125 64.40625 
Q 26.421875 64.796875 21.09375 64.796875 
Q 20.125 64.796875 20.125 66.109375 
Q 20.171875 66.359375 20.3125 66.96875 
Q 20.453125 67.578125 20.71875 67.9375 
Q 21 68.3125 21.390625 68.3125 
L 55.90625 68.3125 
Q 60.640625 68.3125 65.078125 66.625 
Q 69.53125 64.9375 72.359375 61.46875 
Q 75.203125 58.015625 75.203125 53.078125 
Q 75.203125 46.734375 70.734375 41.75 
Q 66.265625 36.765625 59.59375 33.984375 
Q 52.9375 31.203125 46.6875 31.203125 
L 30.421875 31.203125 
L 24.3125 6.5 
Q 24.125 5.515625 24.125 5.078125 
Q 24.125 4.6875 24.234375 4.421875 
Q 24.359375 4.15625 24.578125 4.078125 
Q 24.8125 4 25.296875 3.90625 
Q 27.203125 3.515625 32.515625 3.515625 
Q 33.5 3.515625 33.5 2.203125 
Q 33.15625 0.78125 32.953125 0.390625 
Q 32.765625 0 31.78125 0 
z
M 30.90625 34.1875 
L 44.921875 34.1875 
Q 54.640625 34.1875 59.71875 39.40625 
Q 62.3125 42 63.9375 46.875 
Q 65.578125 51.765625 65.578125 55.71875 
Q 65.578125 60.640625 61.8125 62.71875 
Q 58.0625 64.796875 52.484375 64.796875 
L 42.921875 64.796875 
Q 40.1875 64.796875 39.296875 64.328125 
Q 38.421875 63.875 37.703125 61.375 
z
" id="Cmmi10-50"/>
     </defs>
     <g transform="translate(7.059375 235.08)rotate(-90.0)scale(0.12 -0.12)">
      <use transform="translate(0.0 0.015625)" xlink:href="#Cmmi10-50"/>
      <use transform="translate(64.208984375 0.015625)" xlink:href="#BitstreamVeraSans-Roman-20"/>
      <use transform="translate(95.99609375 0.015625)" xlink:href="#BitstreamVeraSans-Roman-69"/>
      <use transform="translate(123.779296875 0.015625)" xlink:href="#BitstreamVeraSans-Roman-6e"/>
      <use transform="translate(187.158203125 0.015625)" xlink:href="#BitstreamVeraSans-Roman-20"/>
      <use transform="translate(218.9453125 0.015625)" xlink:href="#BitstreamVeraSans-Roman-57"/>
     </g>
    </g>
   </g>
   <g id="text_19">
    <!-- P-Q diagram for CHP with backpressure steam turbine -->
    <defs>
     <path d="M 45.40625 46.390625 
L 45.40625 75.984375 
L 54.390625 75.984375 
L 54.390625 0 
L 45.40625 0 
L 45.40625 8.203125 
Q 42.578125 3.328125 38.25 0.953125 
Q 33.9375 -1.421875 27.875 -1.421875 
Q 17.96875 -1.421875 11.734375 6.484375 
Q 5.515625 14.40625 5.515625 27.296875 
Q 5.515625 40.1875 11.734375 48.09375 
Q 17.96875 56 27.875 56 
Q 33.9375 56 38.25 53.625 
Q 42.578125 51.265625 45.40625 46.390625 
M 14.796875 27.296875 
Q 14.796875 17.390625 18.875 11.75 
Q 22.953125 6.109375 30.078125 6.109375 
Q 37.203125 6.109375 41.296875 11.75 
Q 45.40625 17.390625 45.40625 27.296875 
Q 45.40625 37.203125 41.296875 42.84375 
Q 37.203125 48.484375 30.078125 48.484375 
Q 22.953125 48.484375 18.875 42.84375 
Q 14.796875 37.203125 14.796875 27.296875 
" id="BitstreamVeraSans-Roman-64"/>
     <path d="M 44.28125 53.078125 
L 44.28125 44.578125 
Q 40.484375 46.53125 36.375 47.5 
Q 32.28125 48.484375 27.875 48.484375 
Q 21.1875 48.484375 17.84375 46.4375 
Q 14.5 44.390625 14.5 40.28125 
Q 14.5 37.15625 16.890625 35.375 
Q 19.28125 33.59375 26.515625 31.984375 
L 29.59375 31.296875 
Q 39.15625 29.25 43.1875 25.515625 
Q 47.21875 21.78125 47.21875 15.09375 
Q 47.21875 7.46875 41.1875 3.015625 
Q 35.15625 -1.421875 24.609375 -1.421875 
Q 20.21875 -1.421875 15.453125 -0.5625 
Q 10.6875 0.296875 5.421875 2 
L 5.421875 11.28125 
Q 10.40625 8.6875 15.234375 7.390625 
Q 20.0625 6.109375 24.8125 6.109375 
Q 31.15625 6.109375 34.5625 8.28125 
Q 37.984375 10.453125 37.984375 14.40625 
Q 37.984375 18.0625 35.515625 20.015625 
Q 33.0625 21.96875 24.703125 23.78125 
L 21.578125 24.515625 
Q 13.234375 26.265625 9.515625 29.90625 
Q 5.8125 33.546875 5.8125 39.890625 
Q 5.8125 47.609375 11.28125 51.796875 
Q 16.75 56 26.8125 56 
Q 31.78125 56 36.171875 55.265625 
Q 40.578125 54.546875 44.28125 53.078125 
" id="BitstreamVeraSans-Roman-73"/>
     <path d="M 48.6875 27.296875 
Q 48.6875 37.203125 44.609375 42.84375 
Q 40.53125 48.484375 33.40625 48.484375 
Q 26.265625 48.484375 22.1875 42.84375 
Q 18.109375 37.203125 18.109375 27.296875 
Q 18.109375 17.390625 22.1875 11.75 
Q 26.265625 6.109375 33.40625 6.109375 
Q 40.53125 6.109375 44.609375 11.75 
Q 48.6875 17.390625 48.6875 27.296875 
M 18.109375 46.390625 
Q 20.953125 51.265625 25.265625 53.625 
Q 29.59375 56 35.59375 56 
Q 45.5625 56 51.78125 48.09375 
Q 58.015625 40.1875 58.015625 27.296875 
Q 58.015625 14.40625 51.78125 6.484375 
Q 45.5625 -1.421875 35.59375 -1.421875 
Q 29.59375 -1.421875 25.265625 0.953125 
Q 20.953125 3.328125 18.109375 8.203125 
L 18.109375 0 
L 9.078125 0 
L 9.078125 75.984375 
L 18.109375 75.984375 
z
" id="BitstreamVeraSans-Roman-62"/>
     <path d="M 30.609375 48.390625 
Q 23.390625 48.390625 19.1875 42.75 
Q 14.984375 37.109375 14.984375 27.296875 
Q 14.984375 17.484375 19.15625 11.84375 
Q 23.34375 6.203125 30.609375 6.203125 
Q 37.796875 6.203125 41.984375 11.859375 
Q 46.1875 17.53125 46.1875 27.296875 
Q 46.1875 37.015625 41.984375 42.703125 
Q 37.796875 48.390625 30.609375 48.390625 
M 30.609375 56 
Q 42.328125 56 49.015625 48.375 
Q 55.71875 40.765625 55.71875 27.296875 
Q 55.71875 13.875 49.015625 6.21875 
Q 42.328125 -1.421875 30.609375 -1.421875 
Q 18.84375 -1.421875 12.171875 6.21875 
Q 5.515625 13.875 5.515625 27.296875 
Q 5.515625 40.765625 12.171875 48.375 
Q 18.84375 56 30.609375 56 
" id="BitstreamVeraSans-Roman-6f"/>
     <path d="M 19.671875 64.796875 
L 19.671875 37.40625 
L 32.078125 37.40625 
Q 38.96875 37.40625 42.71875 40.96875 
Q 46.484375 44.53125 46.484375 51.125 
Q 46.484375 57.671875 42.71875 61.234375 
Q 38.96875 64.796875 32.078125 64.796875 
z
M 9.8125 72.90625 
L 32.078125 72.90625 
Q 44.34375 72.90625 50.609375 67.359375 
Q 56.890625 61.8125 56.890625 51.125 
Q 56.890625 40.328125 50.609375 34.8125 
Q 44.34375 29.296875 32.078125 29.296875 
L 19.671875 29.296875 
L 19.671875 0 
L 9.8125 0 
z
" id="BitstreamVeraSans-Roman-50"/>
     <path d="M 48.78125 52.59375 
L 48.78125 44.1875 
Q 44.96875 46.296875 41.140625 47.34375 
Q 37.3125 48.390625 33.40625 48.390625 
Q 24.65625 48.390625 19.8125 42.84375 
Q 14.984375 37.3125 14.984375 27.296875 
Q 14.984375 17.28125 19.8125 11.734375 
Q 24.65625 6.203125 33.40625 6.203125 
Q 37.3125 6.203125 41.140625 7.25 
Q 44.96875 8.296875 48.78125 10.40625 
L 48.78125 2.09375 
Q 45.015625 0.34375 40.984375 -0.53125 
Q 36.96875 -1.421875 32.421875 -1.421875 
Q 20.0625 -1.421875 12.78125 6.34375 
Q 5.515625 14.109375 5.515625 27.296875 
Q 5.515625 40.671875 12.859375 48.328125 
Q 20.21875 56 33.015625 56 
Q 37.15625 56 41.109375 55.140625 
Q 45.0625 54.296875 48.78125 52.59375 
" id="BitstreamVeraSans-Roman-63"/>
     <path d="M 37.109375 75.984375 
L 37.109375 68.5 
L 28.515625 68.5 
Q 23.6875 68.5 21.796875 66.546875 
Q 19.921875 64.59375 19.921875 59.515625 
L 19.921875 54.6875 
L 34.71875 54.6875 
L 34.71875 47.703125 
L 19.921875 47.703125 
L 19.921875 0 
L 10.890625 0 
L 10.890625 47.703125 
L 2.296875 47.703125 
L 2.296875 54.6875 
L 10.890625 54.6875 
L 10.890625 58.5 
Q 10.890625 67.625 15.140625 71.796875 
Q 19.390625 75.984375 28.609375 75.984375 
z
" id="BitstreamVeraSans-Roman-66"/>
     <path d="M 8.5 21.578125 
L 8.5 54.6875 
L 17.484375 54.6875 
L 17.484375 21.921875 
Q 17.484375 14.15625 20.5 10.265625 
Q 23.53125 6.390625 29.59375 6.390625 
Q 36.859375 6.390625 41.078125 11.03125 
Q 45.3125 15.671875 45.3125 23.6875 
L 45.3125 54.6875 
L 54.296875 54.6875 
L 54.296875 0 
L 45.3125 0 
L 45.3125 8.40625 
Q 42.046875 3.421875 37.71875 1 
Q 33.40625 -1.421875 27.6875 -1.421875 
Q 18.265625 -1.421875 13.375 4.4375 
Q 8.5 10.296875 8.5 21.578125 
" id="BitstreamVeraSans-Roman-75"/>
     <path d="M 9.078125 75.984375 
L 18.109375 75.984375 
L 18.109375 31.109375 
L 44.921875 54.6875 
L 56.390625 54.6875 
L 27.390625 29.109375 
L 57.625 0 
L 45.90625 0 
L 18.109375 26.703125 
L 18.109375 0 
L 9.078125 0 
z
" id="BitstreamVeraSans-Roman-6b"/>
     <path d="M 18.3125 70.21875 
L 18.3125 54.6875 
L 36.8125 54.6875 
L 36.8125 47.703125 
L 18.3125 47.703125 
L 18.3125 18.015625 
Q 18.3125 11.328125 20.140625 9.421875 
Q 21.96875 7.515625 27.59375 7.515625 
L 36.8125 7.515625 
L 36.8125 0 
L 27.59375 0 
Q 17.1875 0 13.234375 3.875 
Q 9.28125 7.765625 9.28125 18.015625 
L 9.28125 47.703125 
L 2.6875 47.703125 
L 2.6875 54.6875 
L 9.28125 54.6875 
L 9.28125 70.21875 
z
" id="BitstreamVeraSans-Roman-74"/>
     <path d="M 9.8125 72.90625 
L 19.671875 72.90625 
L 19.671875 43.015625 
L 55.515625 43.015625 
L 55.515625 72.90625 
L 65.375 72.90625 
L 65.375 0 
L 55.515625 0 
L 55.515625 34.71875 
L 19.671875 34.71875 
L 19.671875 0 
L 9.8125 0 
z
" id="BitstreamVeraSans-Roman-48"/>
     <path d="M 34.28125 27.484375 
Q 23.390625 27.484375 19.1875 25 
Q 14.984375 22.515625 14.984375 16.5 
Q 14.984375 11.71875 18.140625 8.90625 
Q 21.296875 6.109375 26.703125 6.109375 
Q 34.1875 6.109375 38.703125 11.40625 
Q 43.21875 16.703125 43.21875 25.484375 
L 43.21875 27.484375 
z
M 52.203125 31.203125 
L 52.203125 0 
L 43.21875 0 
L 43.21875 8.296875 
Q 40.140625 3.328125 35.546875 0.953125 
Q 30.953125 -1.421875 24.3125 -1.421875 
Q 15.921875 -1.421875 10.953125 3.296875 
Q 6 8.015625 6 15.921875 
Q 6 25.140625 12.171875 29.828125 
Q 18.359375 34.515625 30.609375 34.515625 
L 43.21875 34.515625 
L 43.21875 35.40625 
Q 43.21875 41.609375 39.140625 45 
Q 35.0625 48.390625 27.6875 48.390625 
Q 23 48.390625 18.546875 47.265625 
Q 14.109375 46.140625 10.015625 43.890625 
L 10.015625 52.203125 
Q 14.9375 54.109375 19.578125 55.046875 
Q 24.21875 56 28.609375 56 
Q 40.484375 56 46.34375 49.84375 
Q 52.203125 43.703125 52.203125 31.203125 
" id="BitstreamVeraSans-Roman-61"/>
     <path d="M 64.40625 67.28125 
L 64.40625 56.890625 
Q 59.421875 61.53125 53.78125 63.8125 
Q 48.140625 66.109375 41.796875 66.109375 
Q 29.296875 66.109375 22.65625 58.46875 
Q 16.015625 50.828125 16.015625 36.375 
Q 16.015625 21.96875 22.65625 14.328125 
Q 29.296875 6.6875 41.796875 6.6875 
Q 48.140625 6.6875 53.78125 8.984375 
Q 59.421875 11.28125 64.40625 15.921875 
L 64.40625 5.609375 
Q 59.234375 2.09375 53.4375 0.328125 
Q 47.65625 -1.421875 41.21875 -1.421875 
Q 24.65625 -1.421875 15.125 8.703125 
Q 5.609375 18.84375 5.609375 36.375 
Q 5.609375 53.953125 15.125 64.078125 
Q 24.65625 74.21875 41.21875 74.21875 
Q 47.75 74.21875 53.53125 72.484375 
Q 59.328125 70.75 64.40625 67.28125 
" id="BitstreamVeraSans-Roman-43"/>
     <path d="M 18.109375 8.203125 
L 18.109375 -20.796875 
L 9.078125 -20.796875 
L 9.078125 54.6875 
L 18.109375 54.6875 
L 18.109375 46.390625 
Q 20.953125 51.265625 25.265625 53.625 
Q 29.59375 56 35.59375 56 
Q 45.5625 56 51.78125 48.09375 
Q 58.015625 40.1875 58.015625 27.296875 
Q 58.015625 14.40625 51.78125 6.484375 
Q 45.5625 -1.421875 35.59375 -1.421875 
Q 29.59375 -1.421875 25.265625 0.953125 
Q 20.953125 3.328125 18.109375 8.203125 
M 48.6875 27.296875 
Q 48.6875 37.203125 44.609375 42.84375 
Q 40.53125 48.484375 33.40625 48.484375 
Q 26.265625 48.484375 22.1875 42.84375 
Q 18.109375 37.203125 18.109375 27.296875 
Q 18.109375 17.390625 22.1875 11.75 
Q 26.265625 6.109375 33.40625 6.109375 
Q 40.53125 6.109375 44.609375 11.75 
Q 48.6875 17.390625 48.6875 27.296875 
" id="BitstreamVeraSans-Roman-70"/>
     <path d="M 54.890625 33.015625 
L 54.890625 0 
L 45.90625 0 
L 45.90625 32.71875 
Q 45.90625 40.484375 42.875 44.328125 
Q 39.84375 48.1875 33.796875 48.1875 
Q 26.515625 48.1875 22.3125 43.546875 
Q 18.109375 38.921875 18.109375 30.90625 
L 18.109375 0 
L 9.078125 0 
L 9.078125 75.984375 
L 18.109375 75.984375 
L 18.109375 46.1875 
Q 21.34375 51.125 25.703125 53.5625 
Q 30.078125 56 35.796875 56 
Q 45.21875 56 50.046875 50.171875 
Q 54.890625 44.34375 54.890625 33.015625 
" id="BitstreamVeraSans-Roman-68"/>
     <path d="M 39.40625 66.21875 
Q 28.65625 66.21875 22.328125 58.203125 
Q 16.015625 50.203125 16.015625 36.375 
Q 16.015625 22.609375 22.328125 14.59375 
Q 28.65625 6.59375 39.40625 6.59375 
Q 50.140625 6.59375 56.421875 14.59375 
Q 62.703125 22.609375 62.703125 36.375 
Q 62.703125 50.203125 56.421875 58.203125 
Q 50.140625 66.21875 39.40625 66.21875 
M 53.21875 1.3125 
L 66.21875 -12.890625 
L 54.296875 -12.890625 
L 43.5 -1.21875 
Q 41.890625 -1.3125 41.03125 -1.359375 
Q 40.1875 -1.421875 39.40625 -1.421875 
Q 24.03125 -1.421875 14.8125 8.859375 
Q 5.609375 19.140625 5.609375 36.375 
Q 5.609375 53.65625 14.8125 63.9375 
Q 24.03125 74.21875 39.40625 74.21875 
Q 54.734375 74.21875 63.90625 63.9375 
Q 73.09375 53.65625 73.09375 36.375 
Q 73.09375 23.6875 67.984375 14.640625 
Q 62.890625 5.609375 53.21875 1.3125 
" id="BitstreamVeraSans-Roman-51"/>
     <path d="M 4.203125 54.6875 
L 13.1875 54.6875 
L 24.421875 12.015625 
L 35.59375 54.6875 
L 46.1875 54.6875 
L 57.421875 12.015625 
L 68.609375 54.6875 
L 77.59375 54.6875 
L 63.28125 0 
L 52.6875 0 
L 40.921875 44.828125 
L 29.109375 0 
L 18.5 0 
z
" id="BitstreamVeraSans-Roman-77"/>
     <path d="M 45.40625 27.984375 
Q 45.40625 37.75 41.375 43.109375 
Q 37.359375 48.484375 30.078125 48.484375 
Q 22.859375 48.484375 18.828125 43.109375 
Q 14.796875 37.75 14.796875 27.984375 
Q 14.796875 18.265625 18.828125 12.890625 
Q 22.859375 7.515625 30.078125 7.515625 
Q 37.359375 7.515625 41.375 12.890625 
Q 45.40625 18.265625 45.40625 27.984375 
M 54.390625 6.78125 
Q 54.390625 -7.171875 48.1875 -13.984375 
Q 42 -20.796875 29.203125 -20.796875 
Q 24.46875 -20.796875 20.265625 -20.09375 
Q 16.0625 -19.390625 12.109375 -17.921875 
L 12.109375 -9.1875 
Q 16.0625 -11.328125 19.921875 -12.34375 
Q 23.78125 -13.375 27.78125 -13.375 
Q 36.625 -13.375 41.015625 -8.765625 
Q 45.40625 -4.15625 45.40625 5.171875 
L 45.40625 9.625 
Q 42.625 4.78125 38.28125 2.390625 
Q 33.9375 0 27.875 0 
Q 17.828125 0 11.671875 7.65625 
Q 5.515625 15.328125 5.515625 27.984375 
Q 5.515625 40.671875 11.671875 48.328125 
Q 17.828125 56 27.875 56 
Q 33.9375 56 38.28125 53.609375 
Q 42.625 51.21875 45.40625 46.390625 
L 45.40625 54.6875 
L 54.390625 54.6875 
z
" id="BitstreamVeraSans-Roman-67"/>
     <path d="M 52 44.1875 
Q 55.375 50.25 60.0625 53.125 
Q 64.75 56 71.09375 56 
Q 79.640625 56 84.28125 50.015625 
Q 88.921875 44.046875 88.921875 33.015625 
L 88.921875 0 
L 79.890625 0 
L 79.890625 32.71875 
Q 79.890625 40.578125 77.09375 44.375 
Q 74.3125 48.1875 68.609375 48.1875 
Q 61.625 48.1875 57.5625 43.546875 
Q 53.515625 38.921875 53.515625 30.90625 
L 53.515625 0 
L 44.484375 0 
L 44.484375 32.71875 
Q 44.484375 40.625 41.703125 44.40625 
Q 38.921875 48.1875 33.109375 48.1875 
Q 26.21875 48.1875 22.15625 43.53125 
Q 18.109375 38.875 18.109375 30.90625 
L 18.109375 0 
L 9.078125 0 
L 9.078125 54.6875 
L 18.109375 54.6875 
L 18.109375 46.1875 
Q 21.1875 51.21875 25.484375 53.609375 
Q 29.78125 56 35.6875 56 
Q 41.65625 56 45.828125 52.96875 
Q 50 49.953125 52 44.1875 
" id="BitstreamVeraSans-Roman-6d"/>
     <path d="M 4.890625 31.390625 
L 31.203125 31.390625 
L 31.203125 23.390625 
L 4.890625 23.390625 
z
" id="BitstreamVeraSans-Roman-2d"/>
     <path d="M 41.109375 46.296875 
Q 39.59375 47.171875 37.8125 47.578125 
Q 36.03125 48 33.890625 48 
Q 26.265625 48 22.1875 43.046875 
Q 18.109375 38.09375 18.109375 28.8125 
L 18.109375 0 
L 9.078125 0 
L 9.078125 54.6875 
L 18.109375 54.6875 
L 18.109375 46.1875 
Q 20.953125 51.171875 25.484375 53.578125 
Q 30.03125 56 36.53125 56 
Q 37.453125 56 38.578125 55.875 
Q 39.703125 55.765625 41.0625 55.515625 
z
" id="BitstreamVeraSans-Roman-72"/>
    </defs>
    <g transform="translate(99.815625 38.2)scale(0.144 -0.144)">
     <use xlink:href="#BitstreamVeraSans-Roman-50"/>
     <use x="60.271484375" xlink:href="#BitstreamVeraSans-Roman-2d"/>
     <use x="96.40234375" xlink:href="#BitstreamVeraSans-Roman-51"/>
     <use x="175.11328125" xlink:href="#BitstreamVeraSans-Roman-20"/>
     <use x="206.900390625" xlink:href="#BitstreamVeraSans-Roman-64"/>
     <use x="270.376953125" xlink:href="#BitstreamVeraSans-Roman-69"/>
     <use x="298.16015625" xlink:href="#BitstreamVeraSans-Roman-61"/>
     <use x="359.439453125" xlink:href="#BitstreamVeraSans-Roman-67"/>
     <use x="422.916015625" xlink:href="#BitstreamVeraSans-Roman-72"/>
     <use x="464.029296875" xlink:href="#BitstreamVeraSans-Roman-61"/>
     <use x="525.30859375" xlink:href="#BitstreamVeraSans-Roman-6d"/>
     <use x="622.720703125" xlink:href="#BitstreamVeraSans-Roman-20"/>
     <use x="654.5078125" xlink:href="#BitstreamVeraSans-Roman-66"/>
     <use x="689.712890625" xlink:href="#BitstreamVeraSans-Roman-6f"/>
     <use x="750.89453125" xlink:href="#BitstreamVeraSans-Roman-72"/>
     <use x="792.0078125" xlink:href="#BitstreamVeraSans-Roman-20"/>
     <use x="823.794921875" xlink:href="#BitstreamVeraSans-Roman-43"/>
     <use x="893.619140625" xlink:href="#BitstreamVeraSans-Roman-48"/>
     <use x="968.814453125" xlink:href="#BitstreamVeraSans-Roman-50"/>
     <use x="1029.1171875" xlink:href="#BitstreamVeraSans-Roman-20"/>
     <use x="1060.904296875" xlink:href="#BitstreamVeraSans-Roman-77"/>
     <use x="1142.69140625" xlink:href="#BitstreamVeraSans-Roman-69"/>
     <use x="1170.474609375" xlink:href="#BitstreamVeraSans-Roman-74"/>
     <use x="1209.68359375" xlink:href="#BitstreamVeraSans-Roman-68"/>
     <use x="1273.0625" xlink:href="#BitstreamVeraSans-Roman-20"/>
     <use x="1304.849609375" xlink:href="#BitstreamVeraSans-Roman-62"/>
     <use x="1368.326171875" xlink:href="#BitstreamVeraSans-Roman-61"/>
     <use x="1429.60546875" xlink:href="#BitstreamVeraSans-Roman-63"/>
     <use x="1484.5859375" xlink:href="#BitstreamVeraSans-Roman-6b"/>
     <use x="1542.49609375" xlink:href="#BitstreamVeraSans-Roman-70"/>
     <use x="1605.97265625" xlink:href="#BitstreamVeraSans-Roman-72"/>
     <use x="1647.0546875" xlink:href="#BitstreamVeraSans-Roman-65"/>
     <use x="1708.578125" xlink:href="#BitstreamVeraSans-Roman-73"/>
     <use x="1760.677734375" xlink:href="#BitstreamVeraSans-Roman-73"/>
     <use x="1812.77734375" xlink:href="#BitstreamVeraSans-Roman-75"/>
     <use x="1876.15625" xlink:href="#BitstreamVeraSans-Roman-72"/>
     <use x="1917.23828125" xlink:href="#BitstreamVeraSans-Roman-65"/>
     <use x="1978.76171875" xlink:href="#BitstreamVeraSans-Roman-20"/>
     <use x="2010.548828125" xlink:href="#BitstreamVeraSans-Roman-73"/>
     <use x="2062.6484375" xlink:href="#BitstreamVeraSans-Roman-74"/>
     <use x="2101.857421875" xlink:href="#BitstreamVeraSans-Roman-65"/>
     <use x="2163.380859375" xlink:href="#BitstreamVeraSans-Roman-61"/>
     <use x="2224.66015625" xlink:href="#BitstreamVeraSans-Roman-6d"/>
     <use x="2322.072265625" xlink:href="#BitstreamVeraSans-Roman-20"/>
     <use x="2353.859375" xlink:href="#BitstreamVeraSans-Roman-74"/>
     <use x="2393.068359375" xlink:href="#BitstreamVeraSans-Roman-75"/>
     <use x="2456.447265625" xlink:href="#BitstreamVeraSans-Roman-72"/>
     <use x="2497.560546875" xlink:href="#BitstreamVeraSans-Roman-62"/>
     <use x="2561.037109375" xlink:href="#BitstreamVeraSans-Roman-69"/>
     <use x="2588.8203125" xlink:href="#BitstreamVeraSans-Roman-6e"/>
     <use x="2652.19921875" xlink:href="#BitstreamVeraSans-Roman-65"/>
    </g>
   </g>
   <g id="legend_1">
    <g id="patch_7">
     <path d="M 79.2 381.6 
L 223.776 381.6 
L 223.776 271.5975 
L 79.2 271.5975 
z
" style="fill:#ffffff;stroke:#000000;stroke-linejoin:miter;"/>
    </g>
    <g id="line2d_36">
     <path d="M 89.28 283.25925 
L 109.44 283.25925 
" style="fill:none;stroke:#00395b;stroke-linecap:square;stroke-width:2.0;"/>
    </g>
    <g id="line2d_37">
     <g>
      <use style="fill:#00395b;stroke:#00395b;stroke-width:0.5;" x="89.28" xlink:href="#m17a1c46ca4" y="283.25925"/>
      <use style="fill:#00395b;stroke:#00395b;stroke-width:0.5;" x="109.44" xlink:href="#m17a1c46ca4" y="283.25925"/>
     </g>
    </g>
    <g id="text_20">
     <!-- $T_{VL}$ = 80 C -->
     <defs>
      <path d="M 22.015625 -1.125 
L 14.015625 62.59375 
Q 13.28125 64.796875 6.5 64.796875 
Q 5.515625 64.796875 5.515625 66.109375 
Q 5.71875 67.1875 6 67.75 
Q 6.296875 68.3125 7.171875 68.3125 
L 31.59375 68.3125 
Q 32.125 68.3125 32.375 67.921875 
Q 32.625 67.53125 32.625 67 
Q 32.234375 64.796875 31.296875 64.796875 
Q 23.484375 64.796875 23 62.109375 
L 29.59375 9.8125 
L 60.40625 58.984375 
Q 61.28125 60.640625 61.28125 61.625 
Q 61.28125 63.375 59.6875 64.078125 
Q 58.109375 64.796875 56 64.796875 
Q 54.984375 64.796875 54.984375 66.109375 
Q 55.171875 66.890625 55.3125 67.328125 
Q 55.46875 67.78125 55.765625 68.046875 
Q 56.0625 68.3125 56.6875 68.3125 
L 75.984375 68.3125 
Q 76.90625 68.3125 76.90625 67 
Q 76.515625 64.796875 75.59375 64.796875 
Q 68.0625 64.796875 63.8125 58.203125 
Q 63.625 58.015625 63.484375 58.015625 
L 26.609375 -1.125 
Q 25.875 -2.203125 24.703125 -2.203125 
L 23.296875 -2.203125 
Q 22.171875 -2.203125 22.015625 -1.125 
" id="Cmmi10-56"/>
      <path d="M 4.6875 0 
Q 3.71875 0 3.71875 1.3125 
Q 3.765625 1.5625 3.90625 2.171875 
Q 4.046875 2.78125 4.3125 3.140625 
Q 4.59375 3.515625 4.984375 3.515625 
Q 11.078125 3.515625 13.484375 4.203125 
Q 14.796875 4.640625 15.375 6.890625 
L 29.109375 61.8125 
Q 29.296875 62.796875 29.296875 63.1875 
Q 29.296875 64.265625 28.078125 64.40625 
Q 26.21875 64.796875 20.90625 64.796875 
Q 19.921875 64.796875 19.921875 66.109375 
Q 20.265625 67.390625 20.453125 67.84375 
Q 20.65625 68.3125 21.578125 68.3125 
L 51.125 68.3125 
Q 52 68.3125 52 67 
Q 51.859375 65.96875 51.65625 65.375 
Q 51.46875 64.796875 50.6875 64.796875 
Q 43.3125 64.796875 40.828125 64.3125 
Q 38.375 63.875 37.796875 61.375 
L 24.125 6.5 
Q 23.6875 5.28125 23.6875 4.296875 
Q 23.6875 3.515625 27.09375 3.515625 
L 36.375 3.515625 
Q 44.234375 3.515625 49.109375 6.640625 
Q 54 9.765625 56.34375 13.6875 
Q 58.6875 17.625 60.265625 21.84375 
Q 61.859375 26.078125 62.59375 26.21875 
L 63.484375 26.21875 
Q 64.5 26.21875 64.5 24.90625 
L 55.609375 0.6875 
Q 55.46875 0 54.6875 0 
z
" id="Cmmi10-4c"/>
      <path d="M 25 67.921875 
Q 21.09375 67.921875 18.40625 65.203125 
Q 15.71875 62.5 15.71875 58.59375 
Q 15.71875 54.734375 18.40625 52.078125 
Q 21.09375 49.421875 25 49.421875 
Q 28.90625 49.421875 31.59375 52.078125 
Q 34.28125 54.734375 34.28125 58.59375 
Q 34.28125 62.453125 31.5625 65.1875 
Q 28.859375 67.921875 25 67.921875 
M 25 74.21875 
Q 28.125 74.21875 31 73.015625 
Q 33.890625 71.828125 35.984375 69.578125 
Q 38.234375 67.390625 39.359375 64.59375 
Q 40.484375 61.8125 40.484375 58.59375 
Q 40.484375 52.15625 35.96875 47.6875 
Q 31.453125 43.21875 24.90625 43.21875 
Q 18.3125 43.21875 13.90625 47.609375 
Q 9.515625 52 9.515625 58.59375 
Q 9.515625 65.140625 14 69.671875 
Q 18.5 74.21875 25 74.21875 
" id="BitstreamVeraSans-Roman-b0"/>
      <path d="M 10.59375 45.40625 
L 73.1875 45.40625 
L 73.1875 37.203125 
L 10.59375 37.203125 
z
M 10.59375 25.484375 
L 73.1875 25.484375 
L 73.1875 17.1875 
L 10.59375 17.1875 
z
" id="BitstreamVeraSans-Roman-3d"/>
      <path d="M 4.59375 1.3125 
Q 4.640625 1.5625 4.8125 2.1875 
Q 4.984375 2.828125 5.25 3.171875 
Q 5.515625 3.515625 6 3.515625 
Q 14.59375 3.515625 17.390625 4 
Q 20.0625 4.6875 20.609375 6.890625 
L 34.28125 61.8125 
Q 34.71875 63.03125 34.71875 64.015625 
Q 34.71875 64.796875 31.203125 64.796875 
L 25.390625 64.796875 
Q 18.703125 64.796875 15.0625 62.734375 
Q 11.421875 60.6875 9.71875 57.3125 
Q 8.015625 53.953125 5.328125 46.296875 
Q 4.984375 45.40625 4.296875 45.40625 
L 3.421875 45.40625 
Q 2.390625 45.40625 2.390625 46.6875 
L 9.515625 67.390625 
Q 9.71875 68.3125 10.5 68.3125 
L 69.578125 68.3125 
Q 70.609375 68.3125 70.609375 67 
L 67.28125 46.296875 
Q 67.28125 46 66.9375 45.703125 
Q 66.609375 45.40625 66.3125 45.40625 
L 65.375 45.40625 
Q 64.40625 45.40625 64.40625 46.6875 
Q 65.484375 53.765625 65.484375 56.6875 
Q 65.484375 60.203125 64.015625 62 
Q 62.546875 63.8125 60.203125 64.296875 
Q 57.859375 64.796875 54.109375 64.796875 
L 48.1875 64.796875 
Q 45.515625 64.796875 44.578125 64.296875 
Q 43.65625 63.8125 43.015625 61.375 
L 29.296875 6.5 
Q 29.25 6.296875 29.21875 6.09375 
Q 29.203125 5.90625 29.109375 5.609375 
Q 29.109375 4.34375 30.609375 4 
Q 33.203125 3.515625 41.703125 3.515625 
Q 42.671875 3.515625 42.671875 2.203125 
Q 42.328125 0.78125 42.125 0.390625 
Q 41.9375 0 41.015625 0 
L 5.609375 0 
Q 4.59375 0 4.59375 1.3125 
" id="Cmmi10-54"/>
     </defs>
     <g transform="translate(125.28 288.29925)scale(0.144 -0.144)">
      <use transform="translate(0.0 0.78125)" xlink:href="#Cmmi10-54"/>
      <use transform="translate(58.3984375 -16.224999999999994)scale(0.7)" xlink:href="#Cmmi10-56"/>
      <use transform="translate(99.208984375 -16.224999999999994)scale(0.7)" xlink:href="#Cmmi10-4c"/>
      <use transform="translate(153.1986328125 0.78125)" xlink:href="#BitstreamVeraSans-Roman-20"/>
      <use transform="translate(184.9857421875 0.78125)" xlink:href="#BitstreamVeraSans-Roman-3d"/>
      <use transform="translate(268.7748046875 0.78125)" xlink:href="#BitstreamVeraSans-Roman-20"/>
      <use transform="translate(300.5619140625 0.78125)" xlink:href="#BitstreamVeraSans-Roman-38"/>
      <use transform="translate(364.1849609375 0.78125)" xlink:href="#BitstreamVeraSans-Roman-30"/>
      <use transform="translate(427.8080078125 0.78125)" xlink:href="#BitstreamVeraSans-Roman-20"/>
      <use transform="translate(459.5951171875 0.78125)" xlink:href="#BitstreamVeraSans-Roman-b0"/>
      <use transform="translate(509.5951171875 0.78125)" xlink:href="#BitstreamVeraSans-Roman-43"/>
     </g>
    </g>
    <g id="line2d_38">
     <path d="M 89.28 304.39575 
L 109.44 304.39575 
" style="fill:none;stroke:#74adc1;stroke-linecap:square;stroke-width:2.0;"/>
    </g>
    <g id="line2d_39">
     <g>
      <use style="fill:#74adc1;stroke:#74adc1;stroke-width:0.5;" x="89.28" xlink:href="#mb0d931593c" y="304.39575"/>
      <use style="fill:#74adc1;stroke:#74adc1;stroke-width:0.5;" x="109.44" xlink:href="#mb0d931593c" y="304.39575"/>
     </g>
    </g>
    <g id="text_21">
     <!-- $T_{VL}$ = 90 C -->
     <defs>
      <path d="M 10.984375 1.515625 
L 10.984375 10.5 
Q 14.703125 8.734375 18.5 7.8125 
Q 22.3125 6.890625 25.984375 6.890625 
Q 35.75 6.890625 40.890625 13.453125 
Q 46.046875 20.015625 46.78125 33.40625 
Q 43.953125 29.203125 39.59375 26.953125 
Q 35.25 24.703125 29.984375 24.703125 
Q 19.046875 24.703125 12.671875 31.3125 
Q 6.296875 37.9375 6.296875 49.421875 
Q 6.296875 60.640625 12.9375 67.421875 
Q 19.578125 74.21875 30.609375 74.21875 
Q 43.265625 74.21875 49.921875 64.515625 
Q 56.59375 54.828125 56.59375 36.375 
Q 56.59375 19.140625 48.40625 8.859375 
Q 40.234375 -1.421875 26.421875 -1.421875 
Q 22.703125 -1.421875 18.890625 -0.6875 
Q 15.09375 0.046875 10.984375 1.515625 
M 30.609375 32.421875 
Q 37.25 32.421875 41.125 36.953125 
Q 45.015625 41.5 45.015625 49.421875 
Q 45.015625 57.28125 41.125 61.84375 
Q 37.25 66.40625 30.609375 66.40625 
Q 23.96875 66.40625 20.09375 61.84375 
Q 16.21875 57.28125 16.21875 49.421875 
Q 16.21875 41.5 20.09375 36.953125 
Q 23.96875 32.421875 30.609375 32.421875 
" id="BitstreamVeraSans-Roman-39"/>
     </defs>
     <g transform="translate(125.28 309.43575)scale(0.144 -0.144)">
      <use transform="translate(0.0 0.78125)" xlink:href="#Cmmi10-54"/>
      <use transform="translate(58.3984375 -16.224999999999994)scale(0.7)" xlink:href="#Cmmi10-56"/>
      <use transform="translate(99.208984375 -16.224999999999994)scale(0.7)" xlink:href="#Cmmi10-4c"/>
      <use transform="translate(153.1986328125 0.78125)" xlink:href="#BitstreamVeraSans-Roman-20"/>
      <use transform="translate(184.9857421875 0.78125)" xlink:href="#BitstreamVeraSans-Roman-3d"/>
      <use transform="translate(268.7748046875 0.78125)" xlink:href="#BitstreamVeraSans-Roman-20"/>
      <use transform="translate(300.5619140625 0.78125)" xlink:href="#BitstreamVeraSans-Roman-39"/>
      <use transform="translate(364.1849609375 0.78125)" xlink:href="#BitstreamVeraSans-Roman-30"/>
      <use transform="translate(427.8080078125 0.78125)" xlink:href="#BitstreamVeraSans-Roman-20"/>
      <use transform="translate(459.5951171875 0.78125)" xlink:href="#BitstreamVeraSans-Roman-b0"/>
      <use transform="translate(509.5951171875 0.78125)" xlink:href="#BitstreamVeraSans-Roman-43"/>
     </g>
    </g>
    <g id="line2d_40">
     <path d="M 89.28 325.53225 
L 109.44 325.53225 
" style="fill:none;stroke:#bfbfbf;stroke-linecap:square;stroke-width:2.0;"/>
    </g>
    <g id="line2d_41">
     <g>
      <use style="fill:#bfbfbf;stroke:#bfbfbf;stroke-width:0.5;" x="89.28" xlink:href="#m253e713187" y="325.53225"/>
      <use style="fill:#bfbfbf;stroke:#bfbfbf;stroke-width:0.5;" x="109.44" xlink:href="#m253e713187" y="325.53225"/>
     </g>
    </g>
    <g id="text_22">
     <!-- $T_{VL}$ = 100 C -->
     <g transform="translate(125.28 330.57225)scale(0.144 -0.144)">
      <use transform="translate(0.0 0.78125)" xlink:href="#Cmmi10-54"/>
      <use transform="translate(58.3984375 -16.224999999999994)scale(0.7)" xlink:href="#Cmmi10-56"/>
      <use transform="translate(99.208984375 -16.224999999999994)scale(0.7)" xlink:href="#Cmmi10-4c"/>
      <use transform="translate(153.1986328125 0.78125)" xlink:href="#BitstreamVeraSans-Roman-20"/>
      <use transform="translate(184.9857421875 0.78125)" xlink:href="#BitstreamVeraSans-Roman-3d"/>
      <use transform="translate(268.7748046875 0.78125)" xlink:href="#BitstreamVeraSans-Roman-20"/>
      <use transform="translate(300.5619140625 0.78125)" xlink:href="#BitstreamVeraSans-Roman-31"/>
      <use transform="translate(364.1849609375 0.78125)" xlink:href="#BitstreamVeraSans-Roman-30"/>
      <use transform="translate(427.8080078125 0.78125)" xlink:href="#BitstreamVeraSans-Roman-30"/>
      <use transform="translate(491.4310546875 0.78125)" xlink:href="#BitstreamVeraSans-Roman-20"/>
      <use transform="translate(523.2181640625 0.78125)" xlink:href="#BitstreamVeraSans-Roman-b0"/>
      <use transform="translate(573.2181640625 0.78125)" xlink:href="#BitstreamVeraSans-Roman-43"/>
     </g>
    </g>
    <g id="line2d_42">
     <path d="M 89.28 346.66875 
L 109.44 346.66875 
" style="fill:none;stroke:#b54036;stroke-linecap:square;stroke-width:2.0;"/>
    </g>
    <g id="line2d_43">
     <g>
      <use style="fill:#b54036;stroke:#b54036;stroke-width:0.5;" x="89.28" xlink:href="#m2910a3e5c5" y="346.66875"/>
      <use style="fill:#b54036;stroke:#b54036;stroke-width:0.5;" x="109.44" xlink:href="#m2910a3e5c5" y="346.66875"/>
     </g>
    </g>
    <g id="text_23">
     <!-- $T_{VL}$ = 110 C -->
     <g transform="translate(125.28 351.70875)scale(0.144 -0.144)">
      <use transform="translate(0.0 0.78125)" xlink:href="#Cmmi10-54"/>
      <use transform="translate(58.3984375 -16.224999999999994)scale(0.7)" xlink:href="#Cmmi10-56"/>
      <use transform="translate(99.208984375 -16.224999999999994)scale(0.7)" xlink:href="#Cmmi10-4c"/>
      <use transform="translate(153.1986328125 0.78125)" xlink:href="#BitstreamVeraSans-Roman-20"/>
      <use transform="translate(184.9857421875 0.78125)" xlink:href="#BitstreamVeraSans-Roman-3d"/>
      <use transform="translate(268.7748046875 0.78125)" xlink:href="#BitstreamVeraSans-Roman-20"/>
      <use transform="translate(300.5619140625 0.78125)" xlink:href="#BitstreamVeraSans-Roman-31"/>
      <use transform="translate(364.1849609375 0.78125)" xlink:href="#BitstreamVeraSans-Roman-31"/>
      <use transform="translate(427.8080078125 0.78125)" xlink:href="#BitstreamVeraSans-Roman-30"/>
      <use transform="translate(491.4310546875 0.78125)" xlink:href="#BitstreamVeraSans-Roman-20"/>
      <use transform="translate(523.2181640625 0.78125)" xlink:href="#BitstreamVeraSans-Roman-b0"/>
      <use transform="translate(573.2181640625 0.78125)" xlink:href="#BitstreamVeraSans-Roman-43"/>
     </g>
    </g>
    <g id="line2d_44">
     <path d="M 89.28 367.80525 
L 109.44 367.80525 
" style="fill:none;stroke:#ec6707;stroke-linecap:square;stroke-width:2.0;"/>
    </g>
    <g id="line2d_45">
     <g>
      <use style="fill:#ec6707;stroke:#ec6707;stroke-width:0.5;" x="89.28" xlink:href="#mea9fc46c6b" y="367.80525"/>
      <use style="fill:#ec6707;stroke:#ec6707;stroke-width:0.5;" x="109.44" xlink:href="#mea9fc46c6b" y="367.80525"/>
     </g>
    </g>
    <g id="text_24">
     <!-- $T_{VL}$ = 120 C -->
     <g transform="translate(125.28 372.84525)scale(0.144 -0.144)">
      <use transform="translate(0.0 0.78125)" xlink:href="#Cmmi10-54"/>
      <use transform="translate(58.3984375 -16.224999999999994)scale(0.7)" xlink:href="#Cmmi10-56"/>
      <use transform="translate(99.208984375 -16.224999999999994)scale(0.7)" xlink:href="#Cmmi10-4c"/>
      <use transform="translate(153.1986328125 0.78125)" xlink:href="#BitstreamVeraSans-Roman-20"/>
      <use transform="translate(184.9857421875 0.78125)" xlink:href="#BitstreamVeraSans-Roman-3d"/>
      <use transform="translate(268.7748046875 0.78125)" xlink:href="#BitstreamVeraSans-Roman-20"/>
      <use transform="translate(300.5619140625 0.78125)" xlink:href="#BitstreamVeraSans-Roman-31"/>
      <use transform="translate(364.1849609375 0.78125)" xlink:href="#BitstreamVeraSans-Roman-32"/>
      <use transform="translate(427.8080078125 0.78125)" xlink:href="#BitstreamVeraSans-Roman-30"/>
      <use transform="translate(491.4310546875 0.78125)" xlink:href="#BitstreamVeraSans-Roman-20"/>
      <use transform="translate(523.2181640625 0.78125)" xlink:href="#BitstreamVeraSans-Roman-b0"/>
      <use transform="translate(573.2181640625 0.78125)" xlink:href="#BitstreamVeraSans-Roman-43"/>
     </g>
    </g>
   </g>
  </g>
 </g>
 <defs>
  <clipPath id="p84a4358751">
   <rect height="345.6" width="446.4" x="72.0" y="43.2"/>
  </clipPath>
 </defs>
</svg>
