<?xml version="1.0" encoding="UTF-8" standalone="no"?>
<svg
   inkscape:export-ydpi="1012"
   inkscape:export-xdpi="1012"
   sodipodi:docname="changelog_darkmode.svg"
   inkscape:version="1.3.2 (091e20e, 2023-11-25, custom)"
   id="svg8"
   version="1.1"
   viewBox="0 0 160 120"
   height="120mm"
   width="160mm"
   xmlns:inkscape="http://www.inkscape.org/namespaces/inkscape"
   xmlns:sodipodi="http://sodipodi.sourceforge.net/DTD/sodipodi-0.dtd"
   xmlns:xlink="http://www.w3.org/1999/xlink"
   xmlns="http://www.w3.org/2000/svg"
   xmlns:svg="http://www.w3.org/2000/svg"
   xmlns:rdf="http://www.w3.org/1999/02/22-rdf-syntax-ns#"
   xmlns:cc="http://creativecommons.org/ns#"
   xmlns:dc="http://purl.org/dc/elements/1.1/">
  <defs
     id="defs2">
    <linearGradient
       id="linearGradient2073"
       inkscape:collect="always">
      <stop
         id="stop2069"
         offset="0"
         style="stop-color:#000000;stop-opacity:1;" />
      <stop
         id="stop2071"
         offset="1"
         style="stop-color:#000000;stop-opacity:0;" />
    </linearGradient>
    <rect
       id="rect1009"
       height="0"
       width="12.5"
       y="-75"
       x="50" />
    <linearGradient
       gradientTransform="translate(0.29243162,-2.3779876)"
       gradientUnits="userSpaceOnUse"
       y2="204.98201"
       x2="223.36507"
       y1="204.98201"
       x1="221.6942"
       id="linearGradient2075"
       xlink:href="#linearGradient2073"
       inkscape:collect="always" />
  </defs>
  <sodipodi:namedview
     inkscape:window-maximized="1"
     inkscape:window-y="-12"
     inkscape:window-x="10068"
     inkscape:window-height="2054"
     inkscape:window-width="3840"
     inkscape:snap-to-guides="false"
     inkscape:guide-bbox="true"
     showguides="true"
     inkscape:bbox-nodes="false"
     inkscape:snap-grids="true"
     inkscape:snap-bbox="true"
     inkscape:snap-nodes="true"
     inkscape:object-paths="true"
     inkscape:snap-center="true"
     showgrid="true"
     inkscape:document-rotation="0"
     inkscape:current-layer="layer1"
     inkscape:document-units="mm"
     inkscape:cy="149.19953"
     inkscape:cx="259.50819"
     inkscape:zoom="0.70710678"
     inkscape:pageshadow="2"
     inkscape:pageopacity="0.0"
     borderopacity="1.0"
     bordercolor="#666666"
     pagecolor="#cfd0d0"
     id="base"
     fit-margin-top="5"
     fit-margin-left="5"
     fit-margin-right="5"
     fit-margin-bottom="5"
     inkscape:pagecheckerboard="0"
     inkscape:snap-intersection-paths="true"
     inkscape:bbox-paths="false"
     inkscape:snap-object-midpoints="true"
     inkscape:showpageshadow="2"
     inkscape:deskcolor="#d1d1d1">
    <inkscape:grid
       spacingy="1"
       spacingx="0.99999999"
       units="cm"
       dotted="true"
       enabled="true"
       id="grid835"
       type="xygrid"
       originx="0"
       originy="0"
       visible="true" />
  </sodipodi:namedview>
  <metadata
     id="metadata5">
    <rdf:RDF>
      <cc:Work
         rdf:about="">
        <dc:format>image/svg+xml</dc:format>
        <dc:type
           rdf:resource="http://purl.org/dc/dcmitype/StillImage" />
      </cc:Work>
    </rdf:RDF>
  </metadata>
  <g
     id="layer1"
     inkscape:groupmode="layer"
     inkscape:label="Ebene 1"
     transform="translate(-61.99998,-32.639073)">
    <g
       id="g2"
       transform="matrix(0.63194006,0,0,0.63194006,103.17358,57.639073)"
       style="fill:#cfd0d0">
      <path
         class="st0"
         d="m 52.86,15.96 -5.62,28.57 -5.7,-8.59 C 29.26,40.87 22.37,49 21.35,61.51 11.27,43.88 17.39,28.08 30.17,18.82 L 24.35,10.06 Z M 75.63,0 h 41.39 c 1.61,0 3.08,0.66 4.14,1.72 1.06,1.06 1.72,2.52 1.72,4.14 v 32.18 c 0,1.61 -0.66,3.08 -1.72,4.14 -0.12,0.12 -0.24,0.23 -0.37,0.33 -1.02,0.86 -2.34,1.39 -3.77,1.39 H 75.63 c -1.61,0 -3.08,-0.66 -4.14,-1.72 -1.06,-1.06 -1.72,-2.52 -1.72,-4.14 V 5.86 c 0,-1.6 0.66,-3.06 1.72,-4.13 L 71.5,1.72 C 72.55,0.66 74.02,0 75.63,0 Z M 5.86,66.87 h 41.39 c 1.61,0 3.08,0.66 4.14,1.72 1.06,1.06 1.72,2.52 1.72,4.14 v 32.18 c 0,1.61 -0.66,3.08 -1.72,4.14 -0.12,0.12 -0.24,0.23 -0.37,0.33 -1.02,0.86 -2.34,1.39 -3.77,1.39 H 5.86 c -1.61,0 -3.08,-0.66 -4.14,-1.72 C 0.66,107.99 0,106.52 0,104.9 V 72.72 c 0,-1.61 0.66,-3.08 1.72,-4.14 0.12,-0.12 0.26,-0.24 0.39,-0.34 1.02,-0.86 2.33,-1.37 3.75,-1.37 z m 39.39,7.84 H 7.85 v 28.2 H 45.26 V 74.71 Z M 115.03,7.85 h -37.4 v 28.2 h 37.41 V 7.85 Z M 71,101.54 l 5.62,-28.57 5.7,8.59 C 94.6,76.63 101.49,68.51 102.52,56 112.6,73.63 106.48,89.44 93.7,98.69 l 5.82,8.76 z"
         id="path1"
         style="clip-rule:evenodd;fill-rule:evenodd;fill:#cfd0d0" />
    </g>
  </g>
</svg>
