<?xml version="1.0" encoding="UTF-8" standalone="no"?>
<svg
   inkscape:export-ydpi="1012"
   inkscape:export-xdpi="1012"
   sodipodi:docname="solar.svg"
   inkscape:version="1.3.2 (091e20e, 2023-11-25, custom)"
   id="svg8"
   version="1.1"
   viewBox="0 0 160 120"
   height="120mm"
   width="160mm"
   xmlns:inkscape="http://www.inkscape.org/namespaces/inkscape"
   xmlns:sodipodi="http://sodipodi.sourceforge.net/DTD/sodipodi-0.dtd"
   xmlns:xlink="http://www.w3.org/1999/xlink"
   xmlns="http://www.w3.org/2000/svg"
   xmlns:svg="http://www.w3.org/2000/svg"
   xmlns:rdf="http://www.w3.org/1999/02/22-rdf-syntax-ns#"
   xmlns:cc="http://creativecommons.org/ns#"
   xmlns:dc="http://purl.org/dc/elements/1.1/">
  <defs
     id="defs2">
    <linearGradient
       id="linearGradient2073"
       inkscape:collect="always">
      <stop
         id="stop2069"
         offset="0"
         style="stop-color:#000000;stop-opacity:1;" />
      <stop
         id="stop2071"
         offset="1"
         style="stop-color:#000000;stop-opacity:0;" />
    </linearGradient>
    <rect
       id="rect1009"
       height="0"
       width="12.5"
       y="-75"
       x="50" />
    <linearGradient
       gradientTransform="translate(0.29243162,-2.3779876)"
       gradientUnits="userSpaceOnUse"
       y2="204.98201"
       x2="223.36507"
       y1="204.98201"
       x1="221.6942"
       id="linearGradient2075"
       xlink:href="#linearGradient2073"
       inkscape:collect="always" />
  </defs>
  <sodipodi:namedview
     inkscape:window-maximized="1"
     inkscape:window-y="-11"
     inkscape:window-x="10069"
     inkscape:window-height="2054"
     inkscape:window-width="3840"
     inkscape:snap-to-guides="false"
     inkscape:guide-bbox="true"
     showguides="true"
     inkscape:bbox-nodes="false"
     inkscape:snap-grids="true"
     inkscape:snap-bbox="true"
     inkscape:snap-nodes="true"
     inkscape:object-paths="true"
     inkscape:snap-center="true"
     showgrid="true"
     inkscape:document-rotation="0"
     inkscape:current-layer="g2"
     inkscape:document-units="mm"
     inkscape:cy="120.75"
     inkscape:cx="299.5"
     inkscape:zoom="2"
     inkscape:pageshadow="2"
     inkscape:pageopacity="0.0"
     borderopacity="1.0"
     bordercolor="#666666"
     pagecolor="#ffffff"
     id="base"
     fit-margin-top="5"
     fit-margin-left="5"
     fit-margin-right="5"
     fit-margin-bottom="5"
     inkscape:pagecheckerboard="0"
     inkscape:snap-intersection-paths="true"
     inkscape:bbox-paths="false"
     inkscape:snap-object-midpoints="true"
     inkscape:showpageshadow="2"
     inkscape:deskcolor="#d1d1d1">
    <inkscape:grid
       spacingy="1"
       spacingx="0.99999999"
       units="cm"
       dotted="true"
       enabled="true"
       id="grid835"
       type="xygrid"
       originx="0"
       originy="0"
       visible="true" />
  </sodipodi:namedview>
  <metadata
     id="metadata5">
    <rdf:RDF>
      <cc:Work
         rdf:about="">
        <dc:format>image/svg+xml</dc:format>
        <dc:type
           rdf:resource="http://purl.org/dc/dcmitype/StillImage" />
      </cc:Work>
    </rdf:RDF>
  </metadata>
  <g
     id="layer1"
     inkscape:groupmode="layer"
     inkscape:label="Ebene 1"
     transform="translate(-61.99998,-32.639073)">
    <g
       id="g2"
       transform="matrix(0.40690104,0,0,0.40690104,117.18309,67.639073)">
      <path
         d="m 22.895989,-1.2379997 c -1.246,-0.714 -1.666,-2.296 -0.952,-3.542 0.714,-1.246 2.296,-1.666 3.542,-0.952 l 5.782,3.332 c 1.246,0.714 1.666,2.29599995 0.952,3.542 -0.714,1.246 -2.296,1.666 -3.542,0.952 z m 53.494,35.1819997 1.232,12.39 h 23.100001 l -2.268001,-12.39 z m 28.098001,0 2.268,12.39 h 18.088 l -3.416,-12.39 z m 21.994,18.354 h -18.634 l 1.75,9.59 h 19.53 z m 4.298,15.582 h -20.076 l 1.75,9.59 h 20.958 z m 4.284,15.554 h -21.518 l 3.276,17.906 h 23.17 z m -24.29,17.906 -3.276,-17.906 H 81.289989 l 1.778,17.906 z m -33.698001,0 -1.778,-17.906 h -32.396 l -2.45,17.906 z m -42.616,0 2.45,-17.906 h -24.752 L 7.9999891,101.34 Z m -32.5639999,0 4.158,-17.906 H -13.098011 l -4.928,17.906 z M -11.446011,77.47 H 7.4399891 l 2.226,-9.59 h -18.48 z M -7.1620109,61.888 H 11.037989 l 2.226,-9.59 H -4.5160109 Z m 4.284,-15.554 H 14.649989 l 2.884,-12.39 H 0.53798911 Z m 26.5159999,-12.39 -2.884,12.39 h 21.21 l 1.694,-12.39 z m 25.998,0 c 0,0.112 -0.014,0.21 -0.028,0.322 l -1.652,12.068 h 23.688 l -1.232,-12.39 z m 91.672001,73.36 H 67.275989 v 27.566 h 22.806 v 12.586 h -58.198 V 134.87 h 22.806 v -27.566 h -74.032 c -0.434,0 -0.896,-0.07 -1.358,-0.196 -0.91,-0.252 -1.764,-0.742 -2.394,-1.4 -0.798,-0.826 -1.302,-1.89 -1.302,-3.094 0,-0.35 0.056,-0.728 0.168,-1.12 v 0 L -5.1460109,32.208 c 0.294,-1.05 0.784,-2.072 1.554,-2.842 0.854,-0.854 1.96,-1.386 3.34600001,-1.386 H 36.881989 c -2.128,-3.514 -3.36,-7.63 -3.36,-12.04 0,-6.4119997 2.604,-12.2219997 6.804,-16.43599975 4.2,-4.19999995 10.01,-6.80399995 16.436,-6.80399995 6.426,0 12.222,2.604 16.436,6.80399995 4.2,4.20000005 6.804,10.01000005 6.804,16.43599975 0,4.41 -1.232,8.526 -3.36,12.04 h 45.584001 c 1.26,0 2.282,0.448 3.094,1.176 0.084,0.07 0.168,0.14 0.238,0.21 0.77,0.77 1.26,1.792 1.554,2.842 l 19.096,69.3 c 0.112,0.406 0.168,0.77 0.168,1.106 0,1.204 -0.504,2.268 -1.302,3.08 -0.63,0.658 -1.498,1.148 -2.394,1.4 -0.476,0.14 -0.938,0.21 -1.372,0.21 z m -63.112001,-55.006 0.952,9.59 h 24.416001 l -1.75,-9.59 z m -58.814,0 -2.226,9.59 h 22.68 l 1.302,-9.59 z m 27.762,0 -1.302,9.59 h 27.342 l -0.952,-9.59 z m 32.606,15.582 0.952,9.59 h 25.718001 l -1.75,-9.59 z m -63.98,0 -2.226,9.59 h 24.178 l 1.302,-9.59 z m 29.246,0 -1.302,9.59 h 31.01 l -0.952,-9.59 z m -9.002,-83.734 c -0.714,-1.246 -0.294,-2.828 0.952,-3.542 1.246,-0.714 2.828,-0.294 3.542,0.952 l 3.332,5.768 c 0.714,1.246 0.294,2.8280003 -0.938,3.5420003 -1.246,0.714 -2.828,0.294 -3.542,-0.9520003 z m 18.662,-6.118 c 0,-1.442 1.162,-2.604 2.604,-2.604 1.442,0 2.604,1.162 2.604,2.604 v 6.664 c 0,1.442 -1.162,2.604 -2.604,2.604 -1.442,0 -2.604,-1.162 -2.604,-2.604 z m 19.25,4.06 c 0.714,-1.246 2.296,-1.666 3.542,-0.952 1.246,0.714 1.666,2.296 0.952,3.542 l -3.332,5.7820003 c -0.714,1.246 -2.296,1.666 -3.542,0.952 -1.246,-0.714 -1.666,-2.2960003 -0.952,-3.5420003 z m 14.616,13.1180003 c 1.246,-0.714 2.828,-0.294 3.542,0.952 0.714,1.246 0.294,2.828 -0.952,3.54199995 l -5.768,3.33200005 c -1.246,0.714 -2.828,0.294 -3.542,-0.938 -0.714,-1.24600005 -0.294,-2.82800005 0.952,-3.542 z m 6.118,18.6619997 c 1.442,0 2.604,1.162 2.604,2.604 0,1.442 -1.162,2.604 -2.604,2.604 h -6.664 c -1.442,0 -2.604,-1.162 -2.604,-2.604 0,-1.442 1.162,-2.604 2.604,-2.604 z m -75.824,4.144 c -1.442,0 -2.604,-1.162 -2.604,-2.604 0,-1.442 1.162,-2.604 2.604,-2.604 h 6.664 c 1.442,0 2.604,1.162 2.604,2.604 0,1.442 -1.162,2.604 -2.604,2.604 z"
         id="path1"
         style="stroke-width:1.4" />
    </g>
  </g>
</svg>
