<?xml version="1.0" encoding="UTF-8" standalone="no"?>
<svg
   inkscape:export-ydpi="1012"
   inkscape:export-xdpi="1012"
   sodipodi:docname="class_templates_workflow_darkmode.svg"
   inkscape:version="1.3.2 (091e20e, 2023-11-25, custom)"
   id="svg8"
   version="1.1"
   viewBox="0 0 160 120"
   height="120mm"
   width="160mm"
   xmlns:inkscape="http://www.inkscape.org/namespaces/inkscape"
   xmlns:sodipodi="http://sodipodi.sourceforge.net/DTD/sodipodi-0.dtd"
   xmlns:xlink="http://www.w3.org/1999/xlink"
   xmlns="http://www.w3.org/2000/svg"
   xmlns:svg="http://www.w3.org/2000/svg"
   xmlns:rdf="http://www.w3.org/1999/02/22-rdf-syntax-ns#"
   xmlns:cc="http://creativecommons.org/ns#"
   xmlns:dc="http://purl.org/dc/elements/1.1/">
  <defs
     id="defs2">
    <linearGradient
       id="linearGradient2073"
       inkscape:collect="always">
      <stop
         id="stop2069"
         offset="0"
         style="stop-color:#000000;stop-opacity:1;" />
      <stop
         id="stop2071"
         offset="1"
         style="stop-color:#000000;stop-opacity:0;" />
    </linearGradient>
    <rect
       id="rect1009"
       height="0"
       width="12.5"
       y="-75"
       x="50" />
    <linearGradient
       gradientTransform="translate(0.29243162,-2.3779876)"
       gradientUnits="userSpaceOnUse"
       y2="204.98201"
       x2="223.36507"
       y1="204.98201"
       x1="221.6942"
       id="linearGradient2075"
       xlink:href="#linearGradient2073"
       inkscape:collect="always" />
  </defs>
  <sodipodi:namedview
     inkscape:window-maximized="1"
     inkscape:window-y="-11"
     inkscape:window-x="10069"
     inkscape:window-height="2054"
     inkscape:window-width="3840"
     inkscape:snap-to-guides="false"
     inkscape:guide-bbox="true"
     showguides="true"
     inkscape:bbox-nodes="false"
     inkscape:snap-grids="true"
     inkscape:snap-bbox="true"
     inkscape:snap-nodes="true"
     inkscape:object-paths="true"
     inkscape:snap-center="true"
     showgrid="true"
     inkscape:document-rotation="0"
     inkscape:current-layer="layer1"
     inkscape:document-units="mm"
     inkscape:cy="120.75"
     inkscape:cx="299.75"
     inkscape:zoom="2"
     inkscape:pageshadow="2"
     inkscape:pageopacity="0.0"
     borderopacity="1.0"
     bordercolor="#666666"
     pagecolor="#ffffff"
     id="base"
     fit-margin-top="5"
     fit-margin-left="5"
     fit-margin-right="5"
     fit-margin-bottom="5"
     inkscape:pagecheckerboard="0"
     inkscape:snap-intersection-paths="true"
     inkscape:bbox-paths="false"
     inkscape:snap-object-midpoints="true"
     inkscape:showpageshadow="2"
     inkscape:deskcolor="#d1d1d1">
    <inkscape:grid
       spacingy="1"
       spacingx="0.99999999"
       units="cm"
       dotted="true"
       enabled="true"
       id="grid835"
       type="xygrid"
       originx="0"
       originy="0"
       visible="true" />
  </sodipodi:namedview>
  <metadata
     id="metadata5">
    <rdf:RDF>
      <cc:Work
         rdf:about="">
        <dc:format>image/svg+xml</dc:format>
        <dc:type
           rdf:resource="http://purl.org/dc/dcmitype/StillImage" />
      </cc:Work>
    </rdf:RDF>
  </metadata>
  <g
     id="layer1"
     inkscape:groupmode="layer"
     inkscape:label="Ebene 1"
     transform="translate(-61.99998,-32.639073)">
    <g
       id="g2"
       transform="matrix(0.56966146,0,0,0.56966146,113.16657,57.639073)"
       style="fill:#cfd0d0;fill-opacity:1">
      <path
         class="st0"
         d="m 23.46,93.89 c 3.54,0 6.41,2.88 6.41,6.41 0,3.55 -2.88,6.42 -6.41,6.42 -3.55,0 -6.42,-2.88 -6.42,-6.42 0.01,-3.54 2.88,-6.41 6.42,-6.41 z m 72.61,28.98 H 5.74 v 0.01 c -1.56,0 -3,-0.65 -4.05,-1.69 v 0 -0.01 H 1.68 L 1.67,121.17 C 0.64,120.13 0,118.7 0,117.14 v -96.9 c 0,-1.58 0.65,-3.02 1.69,-4.06 1.04,-1.04 2.48,-1.69 4.06,-1.69 h 14.92 v -2.82 c 0,-1.05 0.43,-2.01 1.13,-2.71 v 0 l 0.01,-0.01 0.01,-0.01 c 0.7,-0.69 1.66,-1.12 2.71,-1.12 h 8.81 V 4.27 c 0,-1.17 0.48,-2.23 1.25,-3.01 L 34.6,1.25 v 0 C 35.37,0.48 36.43,0 37.6,0 h 26.89 c 1.17,0 2.23,0.48 3.01,1.26 l 0.01,-0.01 c 0.77,0.77 1.25,1.84 1.25,3.02 v 3.56 h 7.94 c 1.05,0 2.01,0.43 2.71,1.13 l 0.01,0.01 0.01,0.01 0.01,0.01 c 0.69,0.7 1.12,1.66 1.12,2.71 v 2.82 h 14.92 c 1.57,0 3.01,0.65 4.05,1.69 l 0.01,-0.01 c 1.04,1.04 1.69,2.48 1.69,4.06 V 122.87 H 96.07 V 20.24 c 0,-0.16 -0.07,-0.3 -0.17,-0.41 l 0.01,-0.01 H 95.9 c -0.1,-0.1 -0.25,-0.16 -0.41,-0.16 H 80.57 v 5.17 c 0,1.05 -0.43,2.01 -1.13,2.71 h -0.01 l -0.01,0.01 -0.01,0.01 c -0.7,0.69 -1.66,1.12 -2.71,1.12 H 24.52 c -1.06,0 -2.03,-0.43 -2.72,-1.13 -0.08,-0.08 -0.16,-0.17 -0.22,-0.26 -0.56,-0.67 -0.91,-1.54 -0.91,-2.47 V 19.65 H 5.74 c -0.16,0 -0.3,0.07 -0.41,0.17 -0.11,0.11 -0.17,0.25 -0.17,0.41 v 96.89 c 0,0.16 0.06,0.31 0.17,0.41 v 0 l 0.01,0.01 c 0.1,0.1 0.25,0.17 0.41,0.17 v 0.01 l 90.31,0.01 v 5.14 z M 66.93,12.96 c -0.3,0 -0.59,-0.05 -0.85,-0.15 -1.41,0 -2.56,-1.15 -2.56,-2.56 V 5.18 H 38.58 v 5.07 c 0,1.33 -1.01,2.42 -2.32,2.55 -0.28,0.1 -0.58,0.16 -0.88,0.16 H 26 V 23.42 H 75.24 V 12.96 Z M 47.29,79.45 H 26.33 v 9.17 c 0,1.58 -1.28,2.86 -2.86,2.86 -1.58,0 -2.86,-1.28 -2.86,-2.86 V 77.45 c 0,-0.15 0.01,-0.29 0.03,-0.43 -0.02,-0.14 -0.03,-0.28 -0.03,-0.43 0,-1.58 1.28,-2.86 2.86,-2.86 h 23.66 l -0.09,-7.7 c -0.57,-0.17 -1.14,-0.36 -1.7,-0.59 -0.56,-0.24 -1.1,-0.49 -1.62,-0.79 l -1.78,1.96 c -0.33,0.34 -0.74,0.51 -1.21,0.53 -0.47,0.02 -0.89,-0.13 -1.24,-0.44 l -2.61,-2.45 c -0.35,-0.34 -0.55,-0.74 -0.57,-1.21 -0.02,-0.48 0.14,-0.88 0.47,-1.21 l 1.95,-2.11 c -0.3,-0.52 -0.58,-1.06 -0.8,-1.61 -0.23,-0.55 -0.43,-1.13 -0.6,-1.72 l -2.61,0.1 c -0.48,0.02 -0.89,-0.14 -1.25,-0.47 -0.35,-0.34 -0.53,-0.74 -0.55,-1.19 l -0.14,-3.58 c -0.02,-0.48 0.13,-0.89 0.45,-1.25 0.33,-0.35 0.72,-0.53 1.21,-0.55 l 2.85,-0.11 c 0.17,-0.59 0.36,-1.16 0.59,-1.72 0.23,-0.56 0.49,-1.1 0.79,-1.62 l -1.93,-1.78 c -0.35,-0.33 -0.55,-0.73 -0.57,-1.21 -0.02,-0.47 0.14,-0.89 0.47,-1.25 l 2.4,-2.61 c 0.34,-0.35 0.73,-0.55 1.21,-0.57 0.48,-0.02 0.88,0.15 1.21,0.47 L 43.61,41 c 0.49,-0.29 1.01,-0.57 1.57,-0.81 0.55,-0.23 1.13,-0.43 1.72,-0.6 l -0.1,-2.61 c -0.02,-0.48 0.14,-0.89 0.47,-1.25 0.34,-0.35 0.74,-0.53 1.19,-0.55 l 3.58,-0.13 c 0.48,-0.02 0.89,0.13 1.25,0.45 0.35,0.33 0.53,0.72 0.55,1.21 l 0.11,2.85 c 0.57,0.17 1.14,0.36 1.7,0.59 0.56,0.22 1.1,0.49 1.62,0.79 l 1.78,-1.92 c 0.33,-0.35 0.74,-0.55 1.21,-0.57 0.47,-0.02 0.89,0.14 1.25,0.47 l 0.04,0.03 2.61,2.4 c 0.35,0.34 0.55,0.73 0.57,1.21 0.02,0.48 -0.15,0.88 -0.47,1.21 l -1.95,2.15 c 0.29,0.51 0.57,1.03 0.81,1.6 0.23,0.57 0.43,1.13 0.6,1.7 l 2.61,-0.1 c 0.48,-0.02 0.89,0.14 1.25,0.47 0.35,0.34 0.53,0.74 0.55,1.19 l 0.14,3.58 c 0.02,0.48 -0.13,0.89 -0.45,1.25 -0.33,0.35 -0.72,0.53 -1.21,0.55 l -2.85,0.11 c -0.17,0.57 -0.36,1.14 -0.59,1.7 -0.24,0.56 -0.49,1.1 -0.79,1.62 l 1.96,1.78 c 0.34,0.33 0.51,0.74 0.53,1.21 0.02,0.47 -0.13,0.88 -0.44,1.24 l -2.45,2.62 c -0.31,0.35 -0.71,0.54 -1.19,0.57 -0.48,0.02 -0.89,-0.14 -1.23,-0.47 l -2.11,-1.95 c -0.52,0.3 -1.06,0.58 -1.62,0.8 -0.55,0.23 -1.13,0.43 -1.72,0.6 l 0.09,7.73 h 23.61 c 1.58,0 2.86,1.28 2.86,2.86 0,0.15 -0.01,0.29 -0.03,0.43 0.02,0.14 0.03,0.28 0.03,0.43 v 11.17 c 0,1.58 -1.28,2.86 -2.86,2.86 -1.58,0 -2.86,-1.28 -2.86,-2.86 V 79.45 H 54.16 v 8.25 c 0,1.9 -1.54,3.44 -3.44,3.44 -1.9,0 -3.44,-1.54 -3.44,-3.44 v -8.25 z m 2.92,-33.69 c 0.97,-0.04 1.88,0.1 2.76,0.44 0.87,0.34 1.63,0.8 2.3,1.41 0.65,0.61 1.18,1.34 1.59,2.18 0.41,0.86 0.62,1.75 0.66,2.72 0.04,0.97 -0.11,1.88 -0.44,2.76 -0.34,0.87 -0.81,1.63 -1.41,2.3 -0.61,0.65 -1.34,1.18 -2.18,1.59 -0.84,0.4 -1.75,0.62 -2.72,0.66 -0.97,0.04 -1.88,-0.11 -2.76,-0.44 -0.87,-0.34 -1.63,-0.81 -2.3,-1.41 -0.65,-0.61 -1.18,-1.34 -1.59,-2.18 -0.4,-0.84 -0.62,-1.75 -0.66,-2.72 -0.04,-0.97 0.11,-1.88 0.44,-2.76 0.34,-0.87 0.81,-1.63 1.41,-2.3 0.61,-0.65 1.34,-1.18 2.18,-1.59 0.86,-0.41 1.76,-0.62 2.72,-0.66 z m 27.56,48.13 c 3.55,0 6.42,2.88 6.42,6.41 0,3.55 -2.88,6.42 -6.42,6.42 -3.54,0 -6.41,-2.88 -6.41,-6.42 -0.01,-3.54 2.87,-6.41 6.41,-6.41 z m -27.27,0 c 3.55,0 6.42,2.88 6.42,6.41 0,3.55 -2.88,6.42 -6.42,6.42 -3.55,0 -6.42,-2.88 -6.42,-6.42 0.01,-3.54 2.88,-6.41 6.42,-6.41 z"
         id="path1"
         style="clip-rule:evenodd;fill-rule:evenodd;fill:#cfd0d0;fill-opacity:1" />
    </g>
  </g>
</svg>
