<?xml version="1.0" encoding="UTF-8" standalone="no"?>
<svg
   inkscape:export-ydpi="1012"
   inkscape:export-xdpi="1012"
   sodipodi:docname="exerpy.svg"
   inkscape:version="1.2.2 (b0a8486541, 2022-12-01)"
   id="svg8"
   version="1.1"
   viewBox="0 0 160 120"
   height="120mm"
   width="160mm"
   xmlns:inkscape="http://www.inkscape.org/namespaces/inkscape"
   xmlns:sodipodi="http://sodipodi.sourceforge.net/DTD/sodipodi-0.dtd"
   xmlns:xlink="http://www.w3.org/1999/xlink"
   xmlns="http://www.w3.org/2000/svg"
   xmlns:svg="http://www.w3.org/2000/svg"
   xmlns:rdf="http://www.w3.org/1999/02/22-rdf-syntax-ns#"
   xmlns:cc="http://creativecommons.org/ns#"
   xmlns:dc="http://purl.org/dc/elements/1.1/">
  <defs
     id="defs2">
    <linearGradient
       id="linearGradient2073"
       inkscape:collect="always">
      <stop
         id="stop2069"
         offset="0"
         style="stop-color:#000000;stop-opacity:1;" />
      <stop
         id="stop2071"
         offset="1"
         style="stop-color:#000000;stop-opacity:0;" />
    </linearGradient>
    <rect
       id="rect1009"
       height="0"
       width="12.5"
       y="-75"
       x="50" />
    <linearGradient
       gradientTransform="translate(0.29243162,-2.3779876)"
       gradientUnits="userSpaceOnUse"
       y2="204.98201"
       x2="223.36507"
       y1="204.98201"
       x1="221.6942"
       id="linearGradient2075"
       xlink:href="#linearGradient2073"
       inkscape:collect="always" />
  </defs>
  <sodipodi:namedview
     inkscape:window-maximized="1"
     inkscape:window-y="0"
     inkscape:window-x="0"
     inkscape:window-height="1131"
     inkscape:window-width="1854"
     inkscape:snap-to-guides="false"
     inkscape:guide-bbox="true"
     showguides="true"
     inkscape:bbox-nodes="false"
     inkscape:snap-grids="true"
     inkscape:snap-bbox="true"
     inkscape:snap-nodes="true"
     inkscape:object-paths="true"
     inkscape:snap-center="true"
     showgrid="true"
     inkscape:document-rotation="0"
     inkscape:current-layer="layer1"
     inkscape:document-units="mm"
     inkscape:cy="397.73396"
     inkscape:cx="145.08822"
     inkscape:zoom="1.0924388"
     inkscape:pageshadow="2"
     inkscape:pageopacity="0.0"
     borderopacity="1.0"
     bordercolor="#666666"
     pagecolor="#ffffff"
     id="base"
     fit-margin-top="5"
     fit-margin-left="5"
     fit-margin-right="5"
     fit-margin-bottom="5"
     inkscape:pagecheckerboard="0"
     inkscape:snap-intersection-paths="true"
     inkscape:bbox-paths="false"
     inkscape:snap-object-midpoints="true"
     inkscape:showpageshadow="2"
     inkscape:deskcolor="#d1d1d1">
    <inkscape:grid
       spacingy="1"
       spacingx="0.99999999"
       units="cm"
       dotted="true"
       enabled="true"
       id="grid835"
       type="xygrid"
       originx="0"
       originy="0"
       visible="true" />
  </sodipodi:namedview>
  <metadata
     id="metadata5">
    <rdf:RDF>
      <cc:Work
         rdf:about="">
        <dc:format>image/svg+xml</dc:format>
        <dc:type
           rdf:resource="http://purl.org/dc/dcmitype/StillImage" />
      </cc:Work>
    </rdf:RDF>
  </metadata>
  <g
     id="layer1"
     inkscape:groupmode="layer"
     inkscape:label="Ebene 1"
     transform="translate(-61.99998,-32.639073)">
    <g
       aria-label="open energy modelling framework"
       id="text3020-0"
       style="font-size:1.63951px;line-height:0%;letter-spacing:0px;word-spacing:0px;display:inline;stroke-width:0.136626">
      <path
         d="m 74.517721,136.11537 c -1.532949,0 -2.4713,1.01268 -2.4713,2.65711 0,1.65373 0.938351,2.65712 2.48059,2.65712 1.523659,0 2.48059,-1.01268 2.48059,-2.61995 0,-1.70018 -0.919769,-2.69428 -2.48988,-2.69428 z m 0.0093,1.04984 c 0.715376,0 1.179906,0.64105 1.179906,1.62586 0,0.93835 -0.483111,1.58869 -1.179906,1.58869 -0.706085,0 -1.179906,-0.65034 -1.179906,-1.60728 0,-0.95693 0.473821,-1.60727 1.179906,-1.60727 z"
         style="font-weight:600;font-size:9.2906px;-inkscape-font-specification:'FreeSans Semi-Bold'"
         id="path496" />
      <path
         d="m 77.936664,143.24126 h 0.78041 v -2.53633 c 0.408787,0.50169 0.864026,0.72467 1.495787,0.72467 1.254231,0 2.081094,-1.01268 2.081094,-2.56421 0,-1.63515 -0.798991,-2.65711 -2.090385,-2.65711 -0.659632,0 -1.189196,0.2973 -1.55153,0.87331 v -0.73395 h -0.715376 z m 2.136838,-6.30831 c 0.854735,0 1.412171,0.75253 1.412171,1.91386 0,1.10558 -0.566726,1.85812 -1.412171,1.85812 -0.817573,0 -1.356428,-0.74325 -1.356428,-1.88599 0,-1.14275 0.538855,-1.88599 1.356428,-1.88599 z"
         style="font-size:9.2906px;line-height:1.25;font-family:FreeSans;-inkscape-font-specification:FreeSans"
         id="path498" />
      <path
         d="m 87.245846,139.04191 c 0,-1.76521 -0.659633,-2.83363 -2.16471,-2.83363 -1.356428,0 -2.229744,1.04055 -2.229744,2.63853 0,1.59798 0.845444,2.58279 2.211163,2.58279 1.114872,0 1.885991,-0.63177 2.081094,-1.69089 h -0.78041 c -0.213684,0.64105 -0.650342,0.97551 -1.272813,0.97551 -0.901188,0 -1.412171,-0.67821 -1.430752,-1.67231 z m -3.567591,-0.63176 c 0.06503,-0.90119 0.61318,-1.4865 1.39359,-1.4865 0.798992,0 1.347137,0.65035 1.347137,1.4865 z"
         style="font-size:9.2906px;line-height:1.25;font-family:FreeSans;-inkscape-font-specification:FreeSans"
         id="path500" />
      <path
         d="m 88.007689,136.34764 v 4.86827 h 0.78041 v -2.68498 c 0,-0.9941 0.520273,-1.64444 1.319265,-1.64444 0.61318,0 1.003385,0.37163 1.003385,0.95693 v 3.37249 h 0.77112 v -3.67908 c 0,-0.80828 -0.603889,-1.32855 -1.54224,-1.32855 -0.724667,0 -1.189197,0.27872 -1.616564,0.95693 v -0.81757 z"
         style="font-size:9.2906px;line-height:1.25;font-family:FreeSans;-inkscape-font-specification:FreeSans"
         id="path502" />
      <path
         d="m 97.456235,136.11537 c -1.440043,0 -2.32265,1.04055 -2.32265,2.72215 0,1.60727 0.873316,2.59208 2.294778,2.59208 1.124163,0 2.034641,-0.64106 2.32265,-1.62586 H 98.46891 c -0.15794,0.3995 -0.520273,0.63176 -0.994094,0.63176 -0.873316,0 -1.012675,-0.64105 -1.040547,-1.31926 h 3.363197 c 0.0093,-0.11149 0.0093,-0.15794 0.0093,-0.22298 0,-2.22045 -1.347137,-2.77789 -2.350522,-2.77789 z m 0.994094,2.13684 H 96.45285 c 0.08362,-0.76183 0.408787,-1.14274 0.984804,-1.14274 0.603889,0 0.956932,0.40878 1.012675,1.14274 z"
         style="font-weight:600;font-size:9.2906px;-inkscape-font-specification:'FreeSans Semi-Bold'"
         id="path504" />
      <path
         d="m 100.73582,136.34764 v 4.86827 h 0.78041 v -2.68498 c 0,-0.9941 0.52027,-1.64444 1.31926,-1.64444 0.61318,0 1.00339,0.37163 1.00339,0.95693 v 3.37249 H 104.61 v -3.67908 c 0,-0.80828 -0.60389,-1.32855 -1.54224,-1.32855 -0.72467,0 -1.1892,0.27872 -1.61656,0.95693 v -0.81757 z"
         style="font-size:9.2906px;line-height:1.25;font-family:FreeSans;-inkscape-font-specification:FreeSans"
         id="path506" />
      <path
         d="m 109.7477,139.04191 c 0,-1.76521 -0.65963,-2.83363 -2.16471,-2.83363 -1.35642,0 -2.22974,1.04055 -2.22974,2.63853 0,1.59798 0.84544,2.58279 2.21116,2.58279 1.11487,0 1.88599,-0.63177 2.0811,-1.69089 h -0.78041 c -0.21369,0.64105 -0.65035,0.97551 -1.27282,0.97551 -0.90118,0 -1.41217,-0.67821 -1.43075,-1.67231 z m -3.56759,-0.63176 c 0.065,-0.90119 0.61318,-1.4865 1.39359,-1.4865 0.79899,0 1.34714,0.65035 1.34714,1.4865 z"
         style="font-size:9.2906px;line-height:1.25;font-family:FreeSans;-inkscape-font-specification:FreeSans"
         id="path508" />
      <path
         d="m 112.90651,137.02585 v -0.7897 c -0.13007,-0.0186 -0.1951,-0.0279 -0.2973,-0.0279 -0.50169,0 -0.88261,0.2973 -1.32855,1.02196 v -0.8826 h -0.71538 v 4.86827 h 0.78041 v -2.52704 c 0,-1.36572 0.62247,-1.64444 1.56082,-1.66302 z"
         style="font-size:9.2906px;line-height:1.25;font-family:FreeSans;-inkscape-font-specification:FreeSans"
         id="path510" />
      <path
         d="m 115.28491,141.4296 c 0.61318,0 1.04054,-0.26014 1.4772,-0.87332 v 0.25085 c 0,1.11487 -0.26013,1.78379 -1.35642,1.78379 -0.24156,0 -1.04984,-0.0279 -1.17991,-0.81757 h -0.7897 c 0.0836,0.91977 0.79899,1.46791 1.94173,1.46791 1.84883,0 2.174,-1.13345 2.174,-2.82434 v -4.06928 h -0.80828 l 0.0929,0.70608 c -0.39021,-0.57601 -0.86403,-0.84544 -1.4865,-0.84544 -1.23565,0 -2.0718,1.07771 -2.0718,2.65711 0,1.58869 0.90119,2.56421 2.00677,2.56421 z m 0.14865,-4.50595 c 0.83615,0 1.32855,0.70609 1.32855,1.92316 0,1.16132 -0.50169,1.86741 -1.31926,1.86741 -0.84545,0 -1.35643,-0.71538 -1.35643,-1.89528 0,-1.17062 0.52027,-1.89529 1.34714,-1.89529 z"
         style="font-size:9.2906px;line-height:1.25;font-family:FreeSans;-inkscape-font-specification:FreeSans"
         id="path512" />
      <path
         d="m 121.52818,136.34764 -1.34714,3.79056 -1.24494,-3.79056 h -0.82686 l 1.64444,4.88685 -0.2973,0.77112 c -0.13007,0.34376 -0.2973,0.47382 -0.62247,0.47382 -0.11149,0 -0.24156,-0.0186 -0.40879,-0.0557 v 0.69679 c 0.15794,0.0836 0.31588,0.12078 0.52027,0.12078 0.52957,0 0.98481,-0.28801 1.25424,-1.00338 l 2.16471,-5.89024 z"
         style="font-size:9.2906px;line-height:1.25;font-family:FreeSans;-inkscape-font-specification:FreeSans"
         id="path514" />
      <path
         d="m 125.38378,136.19899 v 5.01692 h 1.30069 v -3.01015 c 0,-0.61318 0.33446,-0.98481 0.8919,-0.98481 0.43665,0 0.70608,0.25085 0.70608,0.65035 v 3.34461 h 1.30069 v -3.01015 c 0,-0.61318 0.33446,-0.98481 0.89189,-0.98481 0.43666,0 0.70609,0.25085 0.70609,0.65035 v 3.34461 h 1.30068 v -3.54901 c 0,-0.97551 -0.5946,-1.55153 -1.59798,-1.55153 -0.63176,0 -1.07771,0.22298 -1.46791,0.74325 -0.24156,-0.47382 -0.74325,-0.74325 -1.36572,-0.74325 -0.57602,0 -0.94764,0.19511 -1.37501,0.70609 v -0.62247 z"
         style="font-weight:600;font-size:9.2906px;-inkscape-font-specification:'FreeSans Semi-Bold'"
         id="path516" />
      <path
         d="m 135.74279,136.11537 c -1.53295,0 -2.4713,1.01268 -2.4713,2.65711 0,1.65373 0.93835,2.65712 2.48059,2.65712 1.52366,0 2.48059,-1.01268 2.48059,-2.61995 0,-1.70018 -0.91977,-2.69428 -2.48988,-2.69428 z m 0.009,1.04984 c 0.71538,0 1.17991,0.64105 1.17991,1.62586 0,0.93835 -0.48311,1.58869 -1.17991,1.58869 -0.70608,0 -1.1799,-0.65034 -1.1799,-1.60728 0,-0.95693 0.47382,-1.60727 1.1799,-1.60727 z"
         style="font-weight:600;font-size:9.2906px;-inkscape-font-specification:'FreeSans Semi-Bold'"
         id="path518" />
      <path
         d="m 143.24031,134.44306 h -0.77112 v 2.51776 c -0.32517,-0.4924 -0.84544,-0.75254 -1.49579,-0.75254 -1.26352,0 -2.09038,1.01267 -2.09038,2.5642 0,1.64444 0.80828,2.65712 2.11826,2.65712 0.66892,0 1.13345,-0.25085 1.55153,-0.85474 v 0.64105 h 0.6875 z m -2.13684,2.48989 c 0.83616,0 1.36572,0.74324 1.36572,1.90457 0,1.12416 -0.53885,1.86741 -1.35643,1.86741 -0.85473,0 -1.42146,-0.75254 -1.42146,-1.88599 0,-1.13346 0.56673,-1.88599 1.41217,-1.88599 z"
         style="font-size:9.2906px;line-height:1.25;font-family:FreeSans;-inkscape-font-specification:FreeSans"
         id="path520" />
      <path
         d="m 148.37801,139.04191 c 0,-1.76521 -0.65964,-2.83363 -2.16471,-2.83363 -1.35643,0 -2.22975,1.04055 -2.22975,2.63853 0,1.59798 0.84545,2.58279 2.21116,2.58279 1.11488,0 1.886,-0.63177 2.0811,-1.69089 h -0.78041 c -0.21369,0.64105 -0.65034,0.97551 -1.27281,0.97551 -0.90119,0 -1.41217,-0.67821 -1.43076,-1.67231 z m -3.56759,-0.63176 c 0.065,-0.90119 0.61317,-1.4865 1.39359,-1.4865 0.79899,0 1.34713,0.65035 1.34713,1.4865 z"
         style="font-size:9.2906px;line-height:1.25;font-family:FreeSans;-inkscape-font-specification:FreeSans"
         id="path522" />
      <path
         d="m 149.94814,134.44306 h -0.78041 v 6.77285 h 0.78041 z"
         style="font-size:9.2906px;line-height:1.25;font-family:FreeSans;-inkscape-font-specification:FreeSans"
         id="path524" />
      <path
         d="m 151.86201,134.44306 h -0.78041 v 6.77285 h 0.78041 z"
         style="font-size:9.2906px;line-height:1.25;font-family:FreeSans;-inkscape-font-specification:FreeSans"
         id="path526" />
      <path
         d="m 153.83163,136.34764 h -0.77112 v 4.86827 h 0.77112 z m 0,-1.90458 h -0.78041 v 0.97552 h 0.78041 z"
         style="font-size:9.2906px;line-height:1.25;font-family:FreeSans;-inkscape-font-specification:FreeSans"
         id="path528" />
      <path
         d="m 155.05799,136.34764 v 4.86827 h 0.78041 v -2.68498 c 0,-0.9941 0.52028,-1.64444 1.31927,-1.64444 0.61318,0 1.00338,0.37163 1.00338,0.95693 v 3.37249 h 0.77112 v -3.67908 c 0,-0.80828 -0.60389,-1.32855 -1.54224,-1.32855 -0.72466,0 -1.18919,0.27872 -1.61656,0.95693 v -0.81757 z"
         style="font-size:9.2906px;line-height:1.25;font-family:FreeSans;-inkscape-font-specification:FreeSans"
         id="path530" />
      <path
         d="m 161.72866,141.4296 c 0.61318,0 1.04054,-0.26014 1.4772,-0.87332 v 0.25085 c 0,1.11487 -0.26014,1.78379 -1.35643,1.78379 -0.24155,0 -1.04983,-0.0279 -1.1799,-0.81757 h -0.7897 c 0.0836,0.91977 0.79899,1.46791 1.94173,1.46791 1.84883,0 2.174,-1.13345 2.174,-2.82434 v -4.06928 h -0.80828 l 0.0929,0.70608 c -0.39021,-0.57601 -0.86403,-0.84544 -1.4865,-0.84544 -1.23565,0 -2.0718,1.07771 -2.0718,2.65711 0,1.58869 0.90118,2.56421 2.00677,2.56421 z m 0.14865,-4.50595 c 0.83615,0 1.32855,0.70609 1.32855,1.92316 0,1.16132 -0.50169,1.86741 -1.31926,1.86741 -0.84545,0 -1.35643,-0.71538 -1.35643,-1.89528 0,-1.17062 0.52027,-1.89529 1.34714,-1.89529 z"
         style="font-size:9.2906px;line-height:1.25;font-family:FreeSans;-inkscape-font-specification:FreeSans"
         id="path532" />
      <path
         d="m 169.7836,136.30118 h -0.77112 v -0.4924 c 0,-0.26013 0.11149,-0.3902 0.35304,-0.3902 0.11149,0 0.26014,0.009 0.37163,0.0279 v -0.97551 c -0.24156,-0.0186 -0.56673,-0.0279 -0.74325,-0.0279 -0.86403,0 -1.28211,0.40879 -1.28211,1.25424 v 0.60388 h -0.70608 v 0.86403 h 0.70608 v 4.0507 h 1.30069 v -4.0507 h 0.77112 z"
         style="font-weight:600;font-size:9.2906px;-inkscape-font-specification:'FreeSans Semi-Bold'"
         id="path534" />
      <path
         d="m 172.96098,137.02585 v -0.7897 c -0.13006,-0.0186 -0.1951,-0.0279 -0.2973,-0.0279 -0.50169,0 -0.8826,0.2973 -1.32855,1.02196 v -0.8826 h -0.71538 v 4.86827 h 0.78041 v -2.52704 c 0,-1.36572 0.62247,-1.64444 1.56082,-1.66302 z"
         style="font-size:9.2906px;line-height:1.25;font-family:FreeSans;-inkscape-font-specification:FreeSans"
         id="path536" />
      <path
         d="m 173.5463,137.78768 h 0.78041 c 0.065,-0.5946 0.41808,-0.86403 1.14275,-0.86403 0.69679,0 1.087,0.26014 1.087,0.72467 v 0.20439 c 0,0.32518 -0.1951,0.46453 -0.80828,0.53886 -1.42147,0.18581 -2.41556,0.2973 -2.41556,1.59798 0,0.88261 0.61318,1.44005 1.59798,1.44005 0.61318,0 1.10558,-0.21369 1.65373,-0.71538 0.0557,0.4924 0.2973,0.71538 0.79899,0.71538 0.15794,0 0.27872,-0.0186 0.52957,-0.0836 v -0.58531 c -0.0836,0.0186 -0.12078,0.0186 -0.16724,0.0186 -0.26942,0 -0.41807,-0.13936 -0.41807,-0.38091 v -2.86151 c 0,-0.86402 -0.63176,-1.32855 -1.83025,-1.32855 -0.87332,0 -1.90457,0.26014 -1.95103,1.5794 z m 1.55153,2.9637 c -0.60389,0 -0.95693,-0.28801 -0.95693,-0.78041 0,-1.06842 1.62586,-0.79899 2.41556,-1.16132 v 0.87331 c 0,0.46453 -0.53886,1.06842 -1.45863,1.06842 z"
         style="font-size:9.2906px;line-height:1.25;font-family:FreeSans;-inkscape-font-specification:FreeSans"
         id="path538" />
      <path
         d="m 178.60967,136.34764 v 4.86827 h 0.78041 v -3.05661 c 0,-0.70608 0.51099,-1.27281 1.14275,-1.27281 0.57602,0 0.90119,0.35305 0.90119,0.97552 v 3.3539 h 0.78041 v -3.05661 c 0,-0.70608 0.51098,-1.27281 1.14274,-1.27281 0.56673,0 0.90119,0.36234 0.90119,0.97552 v 3.3539 h 0.78041 v -3.6512 c 0,-0.87332 -0.50169,-1.35643 -1.41217,-1.35643 -0.65034,0 -1.04055,0.1951 -1.49579,0.74325 -0.28801,-0.52028 -0.67821,-0.74325 -1.30997,-0.74325 -0.65034,0 -1.07771,0.24155 -1.49579,0.82686 v -0.6875 z"
         style="font-size:9.2906px;line-height:1.25;font-family:FreeSans;-inkscape-font-specification:FreeSans"
         id="path540" />
      <path
         d="m 190.17648,139.04191 c 0,-1.76521 -0.65964,-2.83363 -2.16471,-2.83363 -1.35643,0 -2.22975,1.04055 -2.22975,2.63853 0,1.59798 0.84545,2.58279 2.21116,2.58279 1.11488,0 1.886,-0.63177 2.0811,-1.69089 h -0.78041 c -0.21369,0.64105 -0.65034,0.97551 -1.27281,0.97551 -0.90119,0 -1.41218,-0.67821 -1.43076,-1.67231 z m -3.5676,-0.63176 c 0.065,-0.90119 0.61318,-1.4865 1.39359,-1.4865 0.799,0 1.34714,0.65035 1.34714,1.4865 z"
         style="font-size:9.2906px;line-height:1.25;font-family:FreeSans;-inkscape-font-specification:FreeSans"
         id="path542" />
      <path
         d="m 195.54645,141.21591 1.43075,-4.86827 h -0.87331 l -0.96622,3.79056 -0.95694,-3.79056 h -0.94764 l -0.92906,3.79056 -0.99409,-3.79056 h -0.85474 l 1.41217,4.86827 h 0.87332 l 0.93835,-3.81843 0.9848,3.81843 z"
         style="font-size:9.2906px;line-height:1.25;font-family:FreeSans;-inkscape-font-specification:FreeSans"
         id="path544" />
      <path
         d="m 199.4485,136.20828 c -1.36572,0 -2.19259,0.97551 -2.19259,2.61066 0,1.63514 0.81758,2.61066 2.20188,2.61066 1.36571,0 2.20187,-0.97552 2.20187,-2.5735 0,-1.6816 -0.80828,-2.64782 -2.21116,-2.64782 z m 0.009,0.71537 c 0.87331,0 1.39359,0.71538 1.39359,1.92316 0,1.14274 -0.53886,1.86741 -1.39359,1.86741 -0.86403,0 -1.39359,-0.71538 -1.39359,-1.89528 0,-1.17062 0.52956,-1.89529 1.39359,-1.89529 z"
         style="font-size:9.2906px;line-height:1.25;font-family:FreeSans;-inkscape-font-specification:FreeSans"
         id="path546" />
      <path
         d="m 204.79061,137.02585 v -0.7897 c -0.13007,-0.0186 -0.1951,-0.0279 -0.2973,-0.0279 -0.50169,0 -0.8826,0.2973 -1.32855,1.02196 v -0.8826 h -0.71538 v 4.86827 h 0.78041 v -2.52704 c 0,-1.36572 0.62247,-1.64444 1.56082,-1.66302 z"
         style="font-size:9.2906px;line-height:1.25;font-family:FreeSans;-inkscape-font-specification:FreeSans"
         id="path548" />
      <path
         d="m 206.30497,134.44306 h -0.77112 v 6.77285 h 0.77112 v -1.89528 l 0.75254,-0.74325 1.64444,2.63853 h 0.95693 l -1.98819,-3.18667 1.69089,-1.6816 h -0.99409 l -2.06252,2.06251 z"
         style="font-size:9.2906px;line-height:1.25;font-family:FreeSans;-inkscape-font-specification:FreeSans"
         id="path550" />
    </g>
    <g
       id="g3"
       transform="matrix(1.066663,0,0,1.066663,-6.7833992,79.170142)">
      <g
         aria-label="ɛ"
         id="text2997-0-2"
         style="font-size:4.52848px;line-height:0%;letter-spacing:0px;word-spacing:0px;display:inline;stroke-width:0.377373">
        <path
           d="m 145.41276,3.5427231 c -0.35662,2.5982205 -1.32459,5.196441 -6.52103,5.196441 -3.71902,0 -6.01157,-1.6812015 -6.01157,-4.177531 0,-1.935929 2.13972,-4.33036745 5.19645,-4.33036745 h 3.76996 V -3.6405923 h -3.15862 c -3.56618,0 -4.94171,-2.4963295 -4.94171,-4.381313 0,-2.4453837 2.19065,-4.0246947 5.65495,-4.0246947 3.41335,0 5.24739,1.47742 5.34928,4.2794222 h 4.4832 c -0.051,-5.2473862 -3.51524,-8.2022252 -9.67964,-8.2022252 -6.21536,0 -10.24005,3.209566 -10.24005,8.1512797 0,2.7001115 0.96796,4.381313 3.31146,5.705896 -3.00579,1.32458296 -4.38132,3.2605119 -4.38132,6.3172419 0,5.1454954 4.27943,8.4569534 11.00423,8.4569534 6.97954,0 10.44383,-2.9548395 10.64761,-9.1192449 z"
           style="font-size:50.9455px;line-height:1.25;font-family:FreeSans;-inkscape-font-specification:FreeSans"
           id="path456" />
      </g>
      <g
         style="display:inline"
         id="g3465-3-7"
         transform="matrix(0.301625,0,0,0.301625,91.727894,-281.70913)">
        <path
           id="path3981-2-1-6-7-5-0-4-4-8-3-3-1"
           style="display:inline;opacity:1;vector-effect:none;fill:none;stroke:#1f567d;stroke-width:48.2456"
           transform="rotate(90.00083)"
           d="m 1015.2362,-107.51498 a 100.26201,100.26201 0 0 1 -112.77912,46.714663 100.26201,100.26201 0 0 1 -74.31229,-96.845663 100.26201,100.26201 0 0 1 74.31229,-96.84566 100.26201,100.26201 0 0 1 112.77912,46.71465" />
      </g>
    </g>
    <g
       id="g4"
       transform="matrix(0.4846305,0,0,0.4846305,83.955704,119.61147)">
      <g
         aria-label=" "
         id="text3057"
         style="font-size:3.175px;line-height:0%;letter-spacing:0px;word-spacing:0px;display:inline;stroke-width:0.264583" />
      <g
         aria-label="['ɛksə.paɪ]"
         id="text2997-0-3"
         style="font-size:3.175px;line-height:0%;letter-spacing:0px;word-spacing:0px;display:inline;stroke-width:0.264583">
        <path
           d="m 115.88262,-12.075545 h -6.6437 v 33.61139 h 6.6437 v -2.571753 h -3.67904 V -9.5037914 h 3.67904 z"
           style="font-size:35.7188px;line-height:1.25;font-family:FreeSans;-inkscape-font-specification:FreeSans;fill:#b3b3b3"
           id="path460" />
        <path
           d="m 118.77584,-11.361169 v 3.9647868 l 0.9644,4.7863192 h 1.42876 l 0.9644,-4.7863192 v -3.9647868 z"
           style="font-size:35.7188px;line-height:1.25;font-family:FreeSans;-inkscape-font-specification:FreeSans;fill:#b3b3b3"
           id="path462" />
        <path
           d="m 137.13533,8.3913272 c -0.25003,1.8216588 -0.92869,3.6433178 -4.57201,3.6433178 -2.60747,0 -4.21482,-1.178721 -4.21482,-2.9289418 0,-1.3573144 1.50019,-3.0360979 3.64332,-3.0360979 h 2.64319 V 3.3549765 h -2.21456 c -2.50032,0 -3.46473,-1.7502212 -3.46473,-3.07181677 0,-1.71450243 1.53591,-2.82178513 3.96479,-2.82178513 2.39316,0 3.67903,1.0358451 3.75047,3.00037912 h 3.14326 c -0.0357,-3.67903632 -2.4646,-5.75072672 -6.78658,-5.75072672 -4.35769,0 -7.17947,2.2502844 -7.17947,5.71500792 0,1.89309638 0.67865,3.07181678 2.32172,4.00050558 -2.10741,0.9286888 -3.07182,2.2860032 -3.07182,4.4291311 0,3.6075984 3.00038,5.9293204 7.71526,5.9293204 4.89348,0 7.32236,-2.07169 7.46523,-6.3936648 z"
           style="font-size:35.7188px;line-height:1.25;font-family:FreeSans;-inkscape-font-specification:FreeSans;fill:#b3b3b3"
           id="path464" />
        <path
           d="m 146.45795,-12.075545 h -2.96466 V 13.96346 h 2.96466 V 6.6768249 l 2.89323,-2.857504 6.32222,10.1441391 h 3.67904 l -7.64382,-12.2515483 6.50082,-6.4651027 h -3.82191 l -7.92958,7.9295735 z"
           style="font-size:35.7188px;line-height:1.25;font-family:FreeSans;-inkscape-font-specification:FreeSans;fill:#b3b3b3"
           id="path466" />
        <path
           d="m 163.88876,8.3913272 h -3.14326 c 0.14288,4.3219748 2.57176,6.3936648 7.46523,6.3936648 4.71488,0 7.71526,-2.321722 7.71526,-5.9293204 0,-2.7860663 -1.57163,-4.3219747 -5.28638,-5.2149447 l -2.8575,-0.6786572 c -2.42888,-0.5715008 -3.46473,-1.3573144 -3.46473,-2.67890997 0,-1.71450243 1.53591,-2.82178513 3.96479,-2.82178513 2.39316,0 3.67904,1.0358451 3.75047,3.00037912 h 3.14326 c -0.0357,-3.67903632 -2.4646,-5.75072672 -6.78657,-5.75072672 -4.3577,0 -7.17948,2.2502844 -7.17948,5.71500792 0,2.92894158 1.50019,4.32197478 5.92932,5.39353878 l 2.78606,0.6786572 c 2.07169,0.5000631 2.89323,1.2501579 2.89323,2.6074723 0,1.7502208 -1.75022,2.9289418 -4.3577,2.9289418 -3.64331,0 -4.32197,-1.821659 -4.572,-3.6433178 z"
           style="font-size:35.7188px;line-height:1.25;font-family:FreeSans;-inkscape-font-specification:FreeSans;fill:#b3b3b3"
           id="path468" />
        <path
           d="m 178.212,3.8907585 c 0,6.7865715 2.53603,10.8942335 8.32248,10.8942335 5.21494,0 8.57251,-4.000505 8.57251,-10.1441387 0,-6.1436336 -3.25041,-9.9298263 -8.50107,-9.9298263 -4.28626,0 -7.25092,2.4288784 -8.00101,6.5008215 h 3.00037 c 0.82154,-2.4645972 2.50032,-3.7504739 4.89348,-3.7504739 3.46472,0 5.42926,2.60747233 5.50069,6.4293839 z m 13.71602,2.4288784 c -0.25003,3.4647235 -2.35744,5.7150081 -5.35782,5.7150081 -3.07182,0 -5.17923,-2.5003162 -5.17923,-5.7150081 z"
           style="font-size:35.7188px;line-height:1.25;font-family:FreeSans;-inkscape-font-specification:FreeSans;fill:#b3b3b3"
           id="path470" />
        <path
           d="m 202.75085,10.248705 h -3.71476 v 3.714755 h 3.71476 z"
           style="font-size:35.7188px;line-height:1.25;font-family:FreeSans;-inkscape-font-specification:FreeSans;fill:#b3b3b3"
           id="path472" />
        <path
           d="m 207.25141,21.750158 h 3.00038 v -9.751232 c 1.57163,1.928815 3.32185,2.786066 5.75073,2.786066 4.82204,0 8.00101,-3.893349 8.00101,-9.8583883 0,-6.2865088 -3.07182,-10.2155767 -8.03673,-10.2155767 -2.53604,0 -4.57201,1.1430016 -5.96504,3.3575672 V -4.753191 h -2.75035 z m 8.21533,-24.2530646 c 3.28613,0 5.42925,2.89322272 5.42925,7.3580727 0,4.2505371 -2.17884,7.1437599 -5.42925,7.1437599 -3.14326,0 -5.21495,-2.857504 -5.21495,-7.2509163 0,-4.39341238 2.07169,-7.2509163 5.21495,-7.2509163 z"
           style="font-size:35.7188px;line-height:1.25;font-family:FreeSans;-inkscape-font-specification:FreeSans;fill:#b3b3b3"
           id="path474" />
        <path
           d="m 226.78963,0.78322292 h 3.00038 c 0.25003,-2.28600322 1.60735,-3.32184832 4.39342,-3.32184832 2.67891,0 4.1791,1.0001263 4.1791,2.78606633 V 1.0332545 c 0,1.250158 -0.7501,1.78594 -3.10754,2.0716904 -5.46498,0.714376 -9.28689,1.1430016 -9.28689,6.1436335 0,3.3932856 2.35744,5.5364136 6.14364,5.5364136 2.35744,0 4.25053,-0.821532 6.35794,-2.750347 0.21431,1.893096 1.143,2.750347 3.07182,2.750347 0.60722,0 1.07156,-0.07144 2.03597,-0.321469 v -2.250284 c -0.32147,0.07144 -0.46434,0.07144 -0.64294,0.07144 -1.03584,0 -1.60734,-0.535782 -1.60734,-1.46447 V -0.18118467 c 0,-3.32184833 -2.42888,-5.10778833 -7.03661,-5.10778833 -3.35757,0 -7.32235,1.0001264 -7.50095,6.07219592 z M 232.75467,12.17752 c -2.32172,0 -3.67903,-1.107283 -3.67903,-3.0003792 0,-4.1076619 6.25079,-3.0718167 9.28689,-4.4648499 V 8.069858 c 0,1.78594 -2.0717,4.107662 -5.60786,4.107662 z"
           style="font-size:35.7188px;line-height:1.25;font-family:FreeSans;-inkscape-font-specification:FreeSans;fill:#b3b3b3"
           id="path476" />
        <path
           d="m 249.47104,-4.7889098 h -2.82178 V 13.96346 h 2.82178 z"
           style="font-size:35.7188px;line-height:1.25;font-family:FreeSans;-inkscape-font-specification:FreeSans;fill:#b3b3b3"
           id="path478" />
        <path
           d="m 252.57855,21.535845 h 6.64369 v -33.61139 h -6.64369 v 2.5717536 h 3.67903 V 18.964092 h -3.67903 z"
           style="font-size:35.7188px;line-height:1.25;font-family:FreeSans;-inkscape-font-specification:FreeSans;fill:#b3b3b3"
           id="path480" />
      </g>
      <g
         aria-label="exerpy"
         id="text2987-2-0-2"
         style="font-size:3.175px;line-height:0%;letter-spacing:5.29167px;word-spacing:0px;display:inline;stroke-width:0.264583">
        <path
           d="m -7.7163852,5.3255787 c 0,-6.7865719 -2.5360348,-10.8942339 -8.3224808,-10.8942339 -5.214944,0 -8.572511,4.0005056 -8.572511,10.1441391 0,6.1436331 3.25041,9.9298261 8.501074,9.9298261 4.286256,0 7.2509162,-2.428878 8.001011,-6.5008213 h -3.000379 c -0.821533,2.4645973 -2.500316,3.7504743 -4.893476,3.7504743 -3.464723,0 -5.429257,-2.6074727 -5.500695,-6.4293843 z M -21.432404,2.8967003 c 0.250031,-3.46472353 2.35744,-5.7150079 5.35782,-5.7150079 3.071816,0 5.179226,2.50031597 5.179226,5.7150079 z"
           style="font-size:35.7188px;line-height:0%;font-family:FreeSans;-inkscape-font-specification:FreeSans"
           id="path483" />
        <path
           d="M 8.3981463,4.0039831 14.684655,-5.0328732 H 11.327088 L 6.8265191,1.7536987 2.3259504,-5.0328732 h -3.393286 l 6.2507899,9.1797315 -6.6079779,9.5369197 h 3.393286 L 6.7193627,6.5042991 11.398525,13.683778 h 3.464724 z"
           style="font-size:35.7188px;line-height:0%;font-family:FreeSans;-inkscape-font-specification:FreeSans"
           id="path485" />
        <path
           d="m 38.050064,5.3255787 c 0,-6.7865719 -2.536035,-10.8942339 -8.322481,-10.8942339 -5.214944,0 -8.572511,4.0005056 -8.572511,10.1441391 0,6.1436331 3.25041,9.9298261 8.501074,9.9298261 4.286256,0 7.250916,-2.428878 8.001011,-6.5008213 h -3.000379 c -0.821533,2.4645973 -2.500316,3.7504743 -4.893476,3.7504743 -3.464723,0 -5.429257,-2.6074727 -5.500695,-6.4293843 z M 24.334045,2.8967003 c 0.250031,-3.46472353 2.35744,-5.7150079 5.35782,-5.7150079 3.071816,0 5.179226,2.50031597 5.179226,5.7150079 z"
           style="font-size:35.7188px;line-height:0%;font-family:FreeSans;-inkscape-font-specification:FreeSans"
           id="path487" />
        <path
           d="m 55.486127,-2.4254008 v -3.036098 c -0.500063,-0.071438 -0.750095,-0.1071564 -1.143001,-0.1071564 -1.928816,0 -3.393286,1.1430016 -5.107789,3.929068 v -3.393286 H 46.48499 V 13.683778 h 3.000379 V 3.9682643 c 0,-5.2506635 2.393159,-6.3222275 6.000758,-6.3936651 z"
           style="font-size:35.7188px;line-height:0%;font-family:FreeSans;-inkscape-font-specification:FreeSans"
           id="path489" />
        <path
           d="m 63.635327,21.470476 h 3.000379 v -9.751232 c 1.571627,1.928815 3.321848,2.786066 5.750727,2.786066 4.822038,0 8.001011,-3.893349 8.001011,-9.8583885 0,-6.2865087 -3.071817,-10.2155767 -8.03673,-10.2155767 -2.536035,0 -4.572006,1.1430016 -5.96504,3.3575672 v -2.8217852 h -2.750347 z m 8.215324,-24.2530648 c 3.286129,0 5.429257,2.89322276 5.429257,7.3580727 0,4.2505372 -2.178846,7.1437601 -5.429257,7.1437601 -3.143255,0 -5.214945,-2.8575041 -5.214945,-7.2509165 0,-4.39341234 2.07169,-7.2509163 5.214945,-7.2509163 z"
           style="font-size:35.7188px;line-height:0%;font-family:FreeSans;-inkscape-font-specification:FreeSans"
           id="path491" />
        <path
           d="M 99.895188,-5.0328732 94.715963,9.5403971 89.929643,-5.0328732 H 86.75067 l 6.322228,18.7880882 -1.143002,2.964661 c -0.500063,1.321595 -1.143001,1.821659 -2.393159,1.821659 -0.428626,0 -0.928689,-0.07144 -1.571628,-0.214313 v 2.67891 c 0.60722,0.321469 1.21444,0.464344 2.000253,0.464344 2.035972,0 3.786193,-1.107283 4.822038,-3.85763 l 8.32248,-22.6457192 z"
           style="font-size:35.7188px;line-height:0%;font-family:FreeSans;-inkscape-font-specification:FreeSans"
           id="path493" />
      </g>
    </g>
  </g>
</svg>
