<?xml version="1.0" encoding="UTF-8" standalone="no"?>
<svg
   inkscape:export-ydpi="1012"
   inkscape:export-xdpi="1012"
   sodipodi:docname="best_practices_darkmode.svg"
   inkscape:version="1.3.2 (091e20e, 2023-11-25, custom)"
   id="svg8"
   version="1.1"
   viewBox="0 0 160 120"
   height="120mm"
   width="160mm"
   xmlns:inkscape="http://www.inkscape.org/namespaces/inkscape"
   xmlns:sodipodi="http://sodipodi.sourceforge.net/DTD/sodipodi-0.dtd"
   xmlns:xlink="http://www.w3.org/1999/xlink"
   xmlns="http://www.w3.org/2000/svg"
   xmlns:svg="http://www.w3.org/2000/svg"
   xmlns:rdf="http://www.w3.org/1999/02/22-rdf-syntax-ns#"
   xmlns:cc="http://creativecommons.org/ns#"
   xmlns:dc="http://purl.org/dc/elements/1.1/">
  <defs
     id="defs2">
    <linearGradient
       id="linearGradient2073"
       inkscape:collect="always">
      <stop
         id="stop2069"
         offset="0"
         style="stop-color:#000000;stop-opacity:1;" />
      <stop
         id="stop2071"
         offset="1"
         style="stop-color:#000000;stop-opacity:0;" />
    </linearGradient>
    <rect
       id="rect1009"
       height="0"
       width="12.5"
       y="-75"
       x="50" />
    <linearGradient
       gradientTransform="translate(0.29243162,-2.3779876)"
       gradientUnits="userSpaceOnUse"
       y2="204.98201"
       x2="223.36507"
       y1="204.98201"
       x1="221.6942"
       id="linearGradient2075"
       xlink:href="#linearGradient2073"
       inkscape:collect="always" />
  </defs>
  <sodipodi:namedview
     inkscape:window-maximized="1"
     inkscape:window-y="-12"
     inkscape:window-x="10068"
     inkscape:window-height="2054"
     inkscape:window-width="3840"
     inkscape:snap-to-guides="false"
     inkscape:guide-bbox="true"
     showguides="true"
     inkscape:bbox-nodes="false"
     inkscape:snap-grids="true"
     inkscape:snap-bbox="true"
     inkscape:snap-nodes="true"
     inkscape:object-paths="true"
     inkscape:snap-center="true"
     showgrid="true"
     inkscape:document-rotation="0"
     inkscape:current-layer="layer1"
     inkscape:document-units="mm"
     inkscape:cy="120.75"
     inkscape:cx="299.75"
     inkscape:zoom="2"
     inkscape:pageshadow="2"
     inkscape:pageopacity="0.0"
     borderopacity="1.0"
     bordercolor="#666666"
     pagecolor="#ffffff"
     id="base"
     fit-margin-top="5"
     fit-margin-left="5"
     fit-margin-right="5"
     fit-margin-bottom="5"
     inkscape:pagecheckerboard="0"
     inkscape:snap-intersection-paths="true"
     inkscape:bbox-paths="false"
     inkscape:snap-object-midpoints="true"
     inkscape:showpageshadow="2"
     inkscape:deskcolor="#d1d1d1">
    <inkscape:grid
       spacingy="1"
       spacingx="0.99999999"
       units="cm"
       dotted="true"
       enabled="true"
       id="grid835"
       type="xygrid"
       originx="0"
       originy="0"
       visible="true" />
  </sodipodi:namedview>
  <metadata
     id="metadata5">
    <rdf:RDF>
      <cc:Work
         rdf:about="">
        <dc:format>image/svg+xml</dc:format>
        <dc:type
           rdf:resource="http://purl.org/dc/dcmitype/StillImage" />
      </cc:Work>
    </rdf:RDF>
  </metadata>
  <g
     id="layer1"
     inkscape:groupmode="layer"
     inkscape:label="Ebene 1"
     transform="translate(-61.99998,-32.639073)">
    <g
       id="g2"
       transform="matrix(0.59191612,0,0,0.59191612,105.62747,57.639073)"
       style="fill:#ffffff">
      <path
         d="M 9.77,9.18 C 8.69,9.18 7.82,8.31 7.82,7.23 7.82,6.15 8.69,5.28 9.77,5.28 H 61.68 V 1.95 C 61.68,0.87 62.55,0 63.63,0 c 1.08,0 1.95,0.87 1.95,1.95 v 3.33 h 48.32 c 1.08,0 1.95,0.87 1.95,1.95 0,1.08 -0.87,1.95 -1.95,1.95 h -4.49 v 49.8 h 4.7 c 1.08,0 1.95,0.87 1.95,1.95 0,1.08 -0.87,1.95 -1.95,1.95 H 65.85 v 5.53 c 0.1,0.07 0.17,0.14 0.24,0.21 l 11.95,11.36 c 0.77,0.73 0.8,1.99 0.07,2.75 -0.73,0.77 -1.99,0.8 -2.75,0.07 l -9.48,-9.02 v 9.89 c 0,1.08 -0.87,1.95 -1.95,1.95 -1.08,0 -1.95,-0.87 -1.95,-1.95 V 73.39 l -9.89,9.41 c -0.77,0.73 -2.02,0.73 -2.75,-0.07 -0.73,-0.77 -0.73,-2.02 0.07,-2.75 L 61.36,68.62 c 0.17,-0.17 0.42,-0.31 0.63,-0.42 V 62.88 H 35.51 c -1.08,0 -1.95,-0.87 -1.95,-1.95 0,-1.08 0.87,-1.95 1.95,-1.95 H 105.5 V 9.18 Z m 67.4,96.64 c -8.69,0 -2.97,0.68 -1.78,-8.76 1.77,-14.12 15.19,-14.12 17.17,0 1.27,9.08 6.72,8.76 -1.78,8.76 h -3.39 c -0.01,2.31 -0.37,3.49 2.03,4.79 1.22,0.66 3.5,1.16 5.45,1.92 2.97,-2.54 8.24,-0.87 8.79,-5.52 0.08,-0.71 -1.59,-3.41 -1.97,-4.71 -0.82,-1.31 -1.11,-3.38 -0.22,-4.77 0.36,-0.55 0.2,-2.55 0.2,-3.31 0,-7.52 13.18,-7.52 13.18,0 0,0.95 -0.22,2.7 0.3,3.45 0.86,1.25 0.42,3.47 -0.31,4.63 -0.47,1.36 -2.24,3.94 -2.09,4.71 1.28,6.51 10.15,-0.46 10.15,11.25 H 97.99 97.98 93.95 92.87 69.93 69.92 47.89 v 0 h -27.8 c 0,-11.91 11.24,-5.31 12.1,-12.61 0.09,-0.8 -1.78,-3.82 -2.21,-5.28 -0.92,-1.47 -1.25,-3.79 -0.24,-5.34 0.4,-0.62 0.23,-2.86 0.23,-3.71 0,-8.43 14.77,-8.43 14.77,0 0,1.07 -0.25,3.03 0.33,3.86 0.97,1.4 0.47,3.89 -0.35,5.19 -0.52,1.53 -2.51,4.41 -2.34,5.28 0.62,3.15 8.47,5.29 11.21,6.45 1.54,-0.79 2.79,-1.73 2.92,-2.82 0.07,-0.57 -1.27,-2.72 -1.57,-3.76 -0.65,-1.04 -0.89,-2.7 -0.17,-3.81 0.28,-0.44 0.16,-2.04 0.16,-2.64 0,-6 10.52,-6.01 10.52,0 0,0.76 -0.17,2.15 0.24,2.75 0.69,1 0.33,2.77 -0.25,3.69 -0.37,1.09 -1.79,3.14 -1.67,3.76 0.77,3.94 5.03,1.7 7.04,4.45 1.9,-1.5 5.68,-1.91 7.99,-3.29 2.11,-1.26 1.75,-2.53 1.74,-4.63 z M 0.01,46.73 C -0.27,41.3 4.19,39.87 10.25,40.25 l 7.66,8.53 7.49,-8.43 18.57,-0.1 c 7,0.8 5.54,8.15 0,8.43 H 31.82 L 28.96,65.85 26.8,77.02 c -0.56,1.85 -1.67,3.03 -3.31,3.66 L 12.93,80.75 C 10.8,80.44 9.55,79.18 9.17,76.99 L 7.53,67.74 C 3.21,68.16 1.75,65.09 1.29,60.67 L 0.05,46.7 Z M 17.47,17.02 c 5.19,0 9.41,4.22 9.41,9.41 0,5.19 -4.22,9.41 -9.41,9.41 -5.19,0 -9.41,-4.22 -9.41,-9.41 0,-5.19 4.21,-9.41 9.41,-9.41 z m 0.34,27.76 -5.96,-6.55 1.74,-1.39 c 2.58,1.08 5.16,1.08 7.7,0 l 2.4,1.43 z"
         id="path1"
         style="fill:#ffffff" />
    </g>
  </g>
</svg>
