<?xml version="1.0" encoding="UTF-8" standalone="no"?>
<svg
   inkscape:export-ydpi="1012"
   inkscape:export-xdpi="1012"
   sodipodi:docname="literature_darkmode.svg"
   inkscape:version="1.3.2 (091e20e, 2023-11-25, custom)"
   id="svg8"
   version="1.1"
   viewBox="0 0 160 120"
   height="120mm"
   width="160mm"
   xmlns:inkscape="http://www.inkscape.org/namespaces/inkscape"
   xmlns:sodipodi="http://sodipodi.sourceforge.net/DTD/sodipodi-0.dtd"
   xmlns:xlink="http://www.w3.org/1999/xlink"
   xmlns="http://www.w3.org/2000/svg"
   xmlns:svg="http://www.w3.org/2000/svg"
   xmlns:rdf="http://www.w3.org/1999/02/22-rdf-syntax-ns#"
   xmlns:cc="http://creativecommons.org/ns#"
   xmlns:dc="http://purl.org/dc/elements/1.1/">
  <defs
     id="defs2">
    <linearGradient
       id="linearGradient2073"
       inkscape:collect="always">
      <stop
         id="stop2069"
         offset="0"
         style="stop-color:#000000;stop-opacity:1;" />
      <stop
         id="stop2071"
         offset="1"
         style="stop-color:#000000;stop-opacity:0;" />
    </linearGradient>
    <rect
       id="rect1009"
       height="0"
       width="12.5"
       y="-75"
       x="50" />
    <linearGradient
       gradientTransform="translate(0.29243162,-2.3779876)"
       gradientUnits="userSpaceOnUse"
       y2="204.98201"
       x2="223.36507"
       y1="204.98201"
       x1="221.6942"
       id="linearGradient2075"
       xlink:href="#linearGradient2073"
       inkscape:collect="always" />
  </defs>
  <sodipodi:namedview
     inkscape:window-maximized="1"
     inkscape:window-y="-12"
     inkscape:window-x="10068"
     inkscape:window-height="2054"
     inkscape:window-width="3840"
     inkscape:snap-to-guides="false"
     inkscape:guide-bbox="true"
     showguides="true"
     inkscape:bbox-nodes="false"
     inkscape:snap-grids="true"
     inkscape:snap-bbox="true"
     inkscape:snap-nodes="true"
     inkscape:object-paths="true"
     inkscape:snap-center="true"
     showgrid="true"
     inkscape:document-rotation="0"
     inkscape:current-layer="layer1"
     inkscape:document-units="mm"
     inkscape:cy="120.75"
     inkscape:cx="299.75"
     inkscape:zoom="2"
     inkscape:pageshadow="2"
     inkscape:pageopacity="0.0"
     borderopacity="1.0"
     bordercolor="#666666"
     pagecolor="#cfd0d0"
     id="base"
     fit-margin-top="5"
     fit-margin-left="5"
     fit-margin-right="5"
     fit-margin-bottom="5"
     inkscape:pagecheckerboard="0"
     inkscape:snap-intersection-paths="true"
     inkscape:bbox-paths="false"
     inkscape:snap-object-midpoints="true"
     inkscape:showpageshadow="2"
     inkscape:deskcolor="#d1d1d1">
    <inkscape:grid
       spacingy="1"
       spacingx="0.99999999"
       units="cm"
       dotted="true"
       enabled="true"
       id="grid835"
       type="xygrid"
       originx="0"
       originy="0"
       visible="true" />
  </sodipodi:namedview>
  <metadata
     id="metadata5">
    <rdf:RDF>
      <cc:Work
         rdf:about="">
        <dc:format>image/svg+xml</dc:format>
        <dc:type
           rdf:resource="http://purl.org/dc/dcmitype/StillImage" />
      </cc:Work>
    </rdf:RDF>
  </metadata>
  <g
     id="layer1"
     inkscape:groupmode="layer"
     inkscape:label="Ebene 1"
     transform="translate(-61.99998,-32.639073)">
    <path
       fill-rule="nonzero"
       d="m 104.27883,101.85239 c 0.0808,-13.929367 0.15626,-27.853465 0.23879,-41.728399 0,-0.923591 0.66021,-1.694421 1.52937,-1.875276 v -0.0035 c 5.07976,-1.058793 13.03738,-0.790144 18.44899,1.280034 3.73826,1.432795 7.13062,3.71719 9.6064,7.007702 2.50388,-3.069271 5.84356,-5.278164 9.60289,-6.705692 5.13594,-1.947266 12.86355,-2.417841 18.4367,-1.601359 0.96222,0.138714 1.65052,0.963977 1.65052,1.906882 h 0.003 v 14.622921 a 26.030865,26.030865 0 0 0 -3.55565,-0.244067 l -0.30552,0.0018 V 61.842995 c -4.46168,-0.424923 -10.85658,0.06497 -14.87578,1.587313 -3.75582,1.424015 -6.9919,3.764598 -9.09544,7.118322 v 20.838738 c -2.23874,6.015632 -2.23874,12.796822 0.31957,18.959952 0.54432,1.31164 1.19224,2.5706 1.93322,3.76284 -1.04124,0.34942 -2.07896,0.75327 -3.11844,1.21331 a 1.9342733,1.9342733 0 0 1 -1.09567,0.31782 c -0.39156,0.007 -0.77258,-0.10536 -1.09566,-0.31782 -5.17632,-2.2879 -10.33509,-3.19394 -15.49385,-3.16057 -5.29221,0.0334 -12.42985,1.05528 -17.809857,2.59869 -0.19314,0.0667 -0.40385,0.10184 -0.62333,0.10184 -1.06582,0 -1.92971,-0.86389 -1.92971,-1.92795 V 68.496009 c 0,-1.065817 0.86389,-1.929708 1.92971,-1.929708 h 1.931457 v 43.842469 c 4.87256,-1.2572 11.55894,-2.06139 16.48768,-2.09124 4.54948,-0.0263 9.10071,0.60402 13.6572,2.14743 -2.83574,-2.29493 -5.99456,-3.97881 -9.36233,-5.07448 -4.24395,-1.38714 -10.63534,-1.84718 -15.33231,-1.44333 -1.06231,0.0843 -1.99467,-0.70059 -2.08246,-1.7629 -0.007,-0.11413 -0.007,-0.22475 0,-0.33186 z m 56.51638,-22.406737 c 5.73645,0 11.21478,2.272104 15.26383,6.324666 5.60301,5.59949 7.68547,13.853864 5.43093,21.435741 a 21.452945,21.452945 0 0 1 -2.19485,4.96386 l 7.38522,8.13146 c 0.38278,0.42141 0.35644,1.0746 -0.0632,1.46089 l -6.1403,5.60476 a 1.0254317,1.0254317 0 0 1 -1.45562,-0.065 l -7.01651,-7.81365 c -3.38885,2.06316 -7.24123,3.13775 -11.20952,3.13775 -5.73469,0 -11.20951,-2.26683 -15.26383,-6.32291 a 21.558999,21.558999 0 0 1 -4.68644,-7.00946 c -3.34669,-8.05947 -1.44508,-17.391951 4.68644,-23.523471 1.98414,-1.98414 4.35984,-3.589011 7.01122,-4.682921 2.54426,-1.058794 5.33259,-1.641745 8.25261,-1.641745 z m 12.18052,9.411496 c -4.9147,-4.919965 -12.36664,-6.396656 -18.77032,-3.743527 -11.49045,4.754912 -14.13129,19.570998 -5.59423,28.102798 4.92699,4.91294 12.36489,6.39841 18.77559,3.74528 6.44407,-2.67771 10.63359,-8.94794 10.63359,-15.92755 0,-2.33707 -0.46004,-4.563521 -1.29759,-6.586291 a 17.27431,17.27431 0 0 0 -3.74704,-5.59071 z M 167.09354,75.43172 v -8.865419 h 1.92971 c 1.06757,0 1.92971,0.863891 1.92971,1.929708 v 8.331633 c -1.24492,-0.565392 -2.53724,-1.032456 -3.85942,-1.395922 z m -27.66909,9.567769 a 1.3827525,1.3827525 0 0 1 0.5566,-1.63472 c 0.50745,-0.324837 1.05002,-0.635627 1.61892,-0.935882 -0.78663,0.81297 -1.51181,1.671594 -2.17552,2.570602 z m 2.07368,-9.955817 a 1.3860887,1.3860887 0 0 1 -1.91215,-0.426678 c -0.41087,-0.646163 -0.21772,-1.501275 0.42668,-1.910394 1.97361,-1.251939 4.50207,-2.349362 7.04985,-3.172868 2.71282,-0.872671 5.48009,-1.441574 7.66088,-1.564486 0.76205,-0.04039 1.41524,0.542566 1.45563,1.304616 0.0404,0.760295 -0.54257,1.413481 -1.30286,1.453866 -1.95254,0.11062 -4.47046,0.632115 -6.96908,1.438062 -2.32653,0.748004 -4.62674,1.747097 -6.40895,2.877882 z m -13.3271,19.012627 c 0.6409,0.416143 0.82175,1.274766 0.40736,1.912149 -0.41438,0.637384 -1.27301,0.82175 -1.91038,0.405608 -1.76467,-1.146588 -4.08417,-2.164996 -6.44758,-2.935826 -2.54251,-0.828773 -5.11312,-1.369583 -7.09199,-1.480203 -0.76029,-0.04038 -1.345,-0.693571 -1.30286,-1.453866 0.0404,-0.760294 0.69182,-1.345001 1.45387,-1.302859 2.22118,0.122911 5.04638,0.711129 7.79609,1.60487 2.56884,0.839309 5.12013,1.96307 7.09549,3.250127 z m -0.14749,-10.69153 a 1.3804699,1.3804699 0 0 1 0.42141,1.906881 c -0.40912,0.640895 -1.26423,0.83053 -1.90689,0.419655 -1.77167,-1.129029 -4.07714,-2.129878 -6.41947,-2.88666 -2.5074,-0.807703 -5.03411,-1.332711 -6.99015,-1.443331 -0.76029,-0.04038 -1.345,-0.691815 -1.30286,-1.453865 0.0404,-0.760295 0.69182,-1.345001 1.45387,-1.304616 2.18606,0.122911 4.96561,0.695327 7.68196,1.571509 2.54777,0.82175 5.07974,1.926196 7.06213,3.190427 z M 127.99014,72.7066 a 1.3820502,1.3820502 0 0 1 0.42668,1.910394 c -0.40912,0.646162 -1.26423,0.835797 -1.9104,0.426678 -1.78397,-1.130785 -4.08417,-2.129878 -6.40894,-2.877882 -2.49862,-0.805947 -5.01655,-1.327442 -6.96908,-1.438062 -0.76029,-0.04039 -1.345,-0.693571 -1.30286,-1.453866 0.0404,-0.76205 0.69182,-1.345001 1.45387,-1.304616 2.18255,0.122912 4.94981,0.691815 7.66089,1.564486 2.54953,0.823506 5.07799,1.920929 7.04984,3.172868 z m 4.11404,33.71282 V 70.49244 c -2.02453,-3.564428 -5.2887,-5.948908 -8.98307,-7.362389 -4.17898,-1.601359 -10.67397,-1.964826 -14.76867,-1.380119 l -0.21773,38.227182 c 4.46695,-0.161541 10.63534,0.407366 14.74936,1.747096 3.27471,1.06933 6.37559,2.62679 9.22011,4.69521 z"
       id="path1"
       style="stroke-width:0.175587;fill:#cfd0d0" />
  </g>
</svg>
