<?xml version="1.0" encoding="utf-8" standalone="no"?>
<!DOCTYPE svg PUBLIC "-//W3C//DTD SVG 1.1//EN"
  "http://www.w3.org/Graphics/SVG/1.1/DTD/svg11.dtd">
<svg xmlns:xlink="http://www.w3.org/1999/xlink" width="1440pt" height="720pt" viewBox="0 0 1440 720" xmlns="http://www.w3.org/2000/svg" version="1.1">
 <metadata>
  <rdf:RDF xmlns:dc="http://purl.org/dc/elements/1.1/" xmlns:cc="http://creativecommons.org/ns#" xmlns:rdf="http://www.w3.org/1999/02/22-rdf-syntax-ns#">
   <cc:Work>
    <dc:type rdf:resource="http://purl.org/dc/dcmitype/StillImage"/>
    <dc:date>2024-05-23T08:06:22.317888</dc:date>
    <dc:format>image/svg+xml</dc:format>
    <dc:creator>
     <cc:Agent>
      <dc:title>Matplotlib v3.7.2, https://matplotlib.org/</dc:title>
     </cc:Agent>
    </dc:creator>
   </cc:Work>
  </rdf:RDF>
 </metadata>
 <defs>
  <style type="text/css">*{stroke-linejoin: round; stroke-linecap: butt}</style>
 </defs>
 <g id="figure_1">
  <g id="patch_1">
   <path d="M 0 720 
L 1440 720 
L 1440 0 
L 0 0 
z
"/>
  </g>
  <g id="axes_1">
   <g id="patch_2">
    <path d="M 58.97 670.84 
L 1429.2 670.84 
L 1429.2 32.64 
L 58.97 32.64 
z
"/>
   </g>
   <g id="PathCollection_1">
    <defs>
     <path id="me55c96ed9b" d="M 0 3 
C 0.795609 3 1.55874 2.683901 2.12132 2.12132 
C 2.683901 1.55874 3 0.795609 3 0 
C 3 -0.795609 2.683901 -1.55874 2.12132 -2.12132 
C 1.55874 -2.683901 0.795609 -3 0 -3 
C -0.795609 -3 -1.55874 -2.683901 -2.12132 -2.12132 
C -2.683901 -1.55874 -3 -0.795609 -3 0 
C -3 0.795609 -2.683901 1.55874 -2.12132 2.12132 
C -1.55874 2.683901 -0.795609 3 0 3 
z
" style="stroke: #ff0000"/>
    </defs>
    <g clip-path="url(#pe9575fd1fd)">
     <use xlink:href="#me55c96ed9b" x="148.773977" y="637.457231" style="fill: #ff0000; stroke: #ff0000"/>
    </g>
   </g>
   <g id="PathCollection_2">
    <g clip-path="url(#pe9575fd1fd)">
     <use xlink:href="#me55c96ed9b" x="1279.313207" y="81.732308" style="fill: #ff0000; stroke: #ff0000"/>
    </g>
   </g>
   <g id="PathCollection_3">
    <g clip-path="url(#pe9575fd1fd)">
     <use xlink:href="#me55c96ed9b" x="152.072634" y="635.720111" style="fill: #ff0000; stroke: #ff0000"/>
    </g>
   </g>
   <g id="PathCollection_4">
    <g clip-path="url(#pe9575fd1fd)">
     <use xlink:href="#me55c96ed9b" x="1370.915849" y="637.457231" style="fill: #ff0000; stroke: #ff0000"/>
    </g>
   </g>
   <g id="matplotlib.axis_1">
    <g id="xtick_1">
     <g id="line2d_1">
      <defs>
       <path id="m3d07f5c03a" d="M 0 0 
L 0 3.5 
" style="stroke: #ffffff; stroke-width: 0.8"/>
      </defs>
      <g>
       <use xlink:href="#m3d07f5c03a" x="58.97" y="670.84" style="fill: #ffffff; stroke: #ffffff; stroke-width: 0.8"/>
      </g>
     </g>
     <g id="text_1">
      <!-- 0 -->
      <g style="fill: #ffffff" transform="translate(55.1525 686.958125) scale(0.12 -0.12)">
       <defs>
        <path id="DejaVuSans-30" d="M 2034 4250 
Q 1547 4250 1301 3770 
Q 1056 3291 1056 2328 
Q 1056 1369 1301 889 
Q 1547 409 2034 409 
Q 2525 409 2770 889 
Q 3016 1369 3016 2328 
Q 3016 3291 2770 3770 
Q 2525 4250 2034 4250 
z
M 2034 4750 
Q 2819 4750 3233 4129 
Q 3647 3509 3647 2328 
Q 3647 1150 3233 529 
Q 2819 -91 2034 -91 
Q 1250 -91 836 529 
Q 422 1150 422 2328 
Q 422 3509 836 4129 
Q 1250 4750 2034 4750 
z
" transform="scale(0.015625)"/>
       </defs>
       <use xlink:href="#DejaVuSans-30"/>
      </g>
     </g>
    </g>
    <g id="xtick_2">
     <g id="line2d_2">
      <g>
       <use xlink:href="#m3d07f5c03a" x="241.667333" y="670.84" style="fill: #ffffff; stroke: #ffffff; stroke-width: 0.8"/>
      </g>
     </g>
     <g id="text_2">
      <!-- 1000 -->
      <g style="fill: #ffffff" transform="translate(226.397333 686.958125) scale(0.12 -0.12)">
       <defs>
        <path id="DejaVuSans-31" d="M 794 531 
L 1825 531 
L 1825 4091 
L 703 3866 
L 703 4441 
L 1819 4666 
L 2450 4666 
L 2450 531 
L 3481 531 
L 3481 0 
L 794 0 
L 794 531 
z
" transform="scale(0.015625)"/>
       </defs>
       <use xlink:href="#DejaVuSans-31"/>
       <use xlink:href="#DejaVuSans-30" x="63.623047"/>
       <use xlink:href="#DejaVuSans-30" x="127.246094"/>
       <use xlink:href="#DejaVuSans-30" x="190.869141"/>
      </g>
     </g>
    </g>
    <g id="xtick_3">
     <g id="line2d_3">
      <g>
       <use xlink:href="#m3d07f5c03a" x="424.364667" y="670.84" style="fill: #ffffff; stroke: #ffffff; stroke-width: 0.8"/>
      </g>
     </g>
     <g id="text_3">
      <!-- 2000 -->
      <g style="fill: #ffffff" transform="translate(409.094667 686.958125) scale(0.12 -0.12)">
       <defs>
        <path id="DejaVuSans-32" d="M 1228 531 
L 3431 531 
L 3431 0 
L 469 0 
L 469 531 
Q 828 903 1448 1529 
Q 2069 2156 2228 2338 
Q 2531 2678 2651 2914 
Q 2772 3150 2772 3378 
Q 2772 3750 2511 3984 
Q 2250 4219 1831 4219 
Q 1534 4219 1204 4116 
Q 875 4013 500 3803 
L 500 4441 
Q 881 4594 1212 4672 
Q 1544 4750 1819 4750 
Q 2544 4750 2975 4387 
Q 3406 4025 3406 3419 
Q 3406 3131 3298 2873 
Q 3191 2616 2906 2266 
Q 2828 2175 2409 1742 
Q 1991 1309 1228 531 
z
" transform="scale(0.015625)"/>
       </defs>
       <use xlink:href="#DejaVuSans-32"/>
       <use xlink:href="#DejaVuSans-30" x="63.623047"/>
       <use xlink:href="#DejaVuSans-30" x="127.246094"/>
       <use xlink:href="#DejaVuSans-30" x="190.869141"/>
      </g>
     </g>
    </g>
    <g id="xtick_4">
     <g id="line2d_4">
      <g>
       <use xlink:href="#m3d07f5c03a" x="607.062" y="670.84" style="fill: #ffffff; stroke: #ffffff; stroke-width: 0.8"/>
      </g>
     </g>
     <g id="text_4">
      <!-- 3000 -->
      <g style="fill: #ffffff" transform="translate(591.792 686.958125) scale(0.12 -0.12)">
       <defs>
        <path id="DejaVuSans-33" d="M 2597 2516 
Q 3050 2419 3304 2112 
Q 3559 1806 3559 1356 
Q 3559 666 3084 287 
Q 2609 -91 1734 -91 
Q 1441 -91 1130 -33 
Q 819 25 488 141 
L 488 750 
Q 750 597 1062 519 
Q 1375 441 1716 441 
Q 2309 441 2620 675 
Q 2931 909 2931 1356 
Q 2931 1769 2642 2001 
Q 2353 2234 1838 2234 
L 1294 2234 
L 1294 2753 
L 1863 2753 
Q 2328 2753 2575 2939 
Q 2822 3125 2822 3475 
Q 2822 3834 2567 4026 
Q 2313 4219 1838 4219 
Q 1578 4219 1281 4162 
Q 984 4106 628 3988 
L 628 4550 
Q 988 4650 1302 4700 
Q 1616 4750 1894 4750 
Q 2613 4750 3031 4423 
Q 3450 4097 3450 3541 
Q 3450 3153 3228 2886 
Q 3006 2619 2597 2516 
z
" transform="scale(0.015625)"/>
       </defs>
       <use xlink:href="#DejaVuSans-33"/>
       <use xlink:href="#DejaVuSans-30" x="63.623047"/>
       <use xlink:href="#DejaVuSans-30" x="127.246094"/>
       <use xlink:href="#DejaVuSans-30" x="190.869141"/>
      </g>
     </g>
    </g>
    <g id="xtick_5">
     <g id="line2d_5">
      <g>
       <use xlink:href="#m3d07f5c03a" x="789.759333" y="670.84" style="fill: #ffffff; stroke: #ffffff; stroke-width: 0.8"/>
      </g>
     </g>
     <g id="text_5">
      <!-- 4000 -->
      <g style="fill: #ffffff" transform="translate(774.489333 686.958125) scale(0.12 -0.12)">
       <defs>
        <path id="DejaVuSans-34" d="M 2419 4116 
L 825 1625 
L 2419 1625 
L 2419 4116 
z
M 2253 4666 
L 3047 4666 
L 3047 1625 
L 3713 1625 
L 3713 1100 
L 3047 1100 
L 3047 0 
L 2419 0 
L 2419 1100 
L 313 1100 
L 313 1709 
L 2253 4666 
z
" transform="scale(0.015625)"/>
       </defs>
       <use xlink:href="#DejaVuSans-34"/>
       <use xlink:href="#DejaVuSans-30" x="63.623047"/>
       <use xlink:href="#DejaVuSans-30" x="127.246094"/>
       <use xlink:href="#DejaVuSans-30" x="190.869141"/>
      </g>
     </g>
    </g>
    <g id="xtick_6">
     <g id="line2d_6">
      <g>
       <use xlink:href="#m3d07f5c03a" x="972.456667" y="670.84" style="fill: #ffffff; stroke: #ffffff; stroke-width: 0.8"/>
      </g>
     </g>
     <g id="text_6">
      <!-- 5000 -->
      <g style="fill: #ffffff" transform="translate(957.186667 686.958125) scale(0.12 -0.12)">
       <defs>
        <path id="DejaVuSans-35" d="M 691 4666 
L 3169 4666 
L 3169 4134 
L 1269 4134 
L 1269 2991 
Q 1406 3038 1543 3061 
Q 1681 3084 1819 3084 
Q 2600 3084 3056 2656 
Q 3513 2228 3513 1497 
Q 3513 744 3044 326 
Q 2575 -91 1722 -91 
Q 1428 -91 1123 -41 
Q 819 9 494 109 
L 494 744 
Q 775 591 1075 516 
Q 1375 441 1709 441 
Q 2250 441 2565 725 
Q 2881 1009 2881 1497 
Q 2881 1984 2565 2268 
Q 2250 2553 1709 2553 
Q 1456 2553 1204 2497 
Q 953 2441 691 2322 
L 691 4666 
z
" transform="scale(0.015625)"/>
       </defs>
       <use xlink:href="#DejaVuSans-35"/>
       <use xlink:href="#DejaVuSans-30" x="63.623047"/>
       <use xlink:href="#DejaVuSans-30" x="127.246094"/>
       <use xlink:href="#DejaVuSans-30" x="190.869141"/>
      </g>
     </g>
    </g>
    <g id="xtick_7">
     <g id="line2d_7">
      <g>
       <use xlink:href="#m3d07f5c03a" x="1155.154" y="670.84" style="fill: #ffffff; stroke: #ffffff; stroke-width: 0.8"/>
      </g>
     </g>
     <g id="text_7">
      <!-- 6000 -->
      <g style="fill: #ffffff" transform="translate(1139.884 686.958125) scale(0.12 -0.12)">
       <defs>
        <path id="DejaVuSans-36" d="M 2113 2584 
Q 1688 2584 1439 2293 
Q 1191 2003 1191 1497 
Q 1191 994 1439 701 
Q 1688 409 2113 409 
Q 2538 409 2786 701 
Q 3034 994 3034 1497 
Q 3034 2003 2786 2293 
Q 2538 2584 2113 2584 
z
M 3366 4563 
L 3366 3988 
Q 3128 4100 2886 4159 
Q 2644 4219 2406 4219 
Q 1781 4219 1451 3797 
Q 1122 3375 1075 2522 
Q 1259 2794 1537 2939 
Q 1816 3084 2150 3084 
Q 2853 3084 3261 2657 
Q 3669 2231 3669 1497 
Q 3669 778 3244 343 
Q 2819 -91 2113 -91 
Q 1303 -91 875 529 
Q 447 1150 447 2328 
Q 447 3434 972 4092 
Q 1497 4750 2381 4750 
Q 2619 4750 2861 4703 
Q 3103 4656 3366 4563 
z
" transform="scale(0.015625)"/>
       </defs>
       <use xlink:href="#DejaVuSans-36"/>
       <use xlink:href="#DejaVuSans-30" x="63.623047"/>
       <use xlink:href="#DejaVuSans-30" x="127.246094"/>
       <use xlink:href="#DejaVuSans-30" x="190.869141"/>
      </g>
     </g>
    </g>
    <g id="xtick_8">
     <g id="line2d_8">
      <g>
       <use xlink:href="#m3d07f5c03a" x="1337.851333" y="670.84" style="fill: #ffffff; stroke: #ffffff; stroke-width: 0.8"/>
      </g>
     </g>
     <g id="text_8">
      <!-- 7000 -->
      <g style="fill: #ffffff" transform="translate(1322.581333 686.958125) scale(0.12 -0.12)">
       <defs>
        <path id="DejaVuSans-37" d="M 525 4666 
L 3525 4666 
L 3525 4397 
L 1831 0 
L 1172 0 
L 2766 4134 
L 525 4134 
L 525 4666 
z
" transform="scale(0.015625)"/>
       </defs>
       <use xlink:href="#DejaVuSans-37"/>
       <use xlink:href="#DejaVuSans-30" x="63.623047"/>
       <use xlink:href="#DejaVuSans-30" x="127.246094"/>
       <use xlink:href="#DejaVuSans-30" x="190.869141"/>
      </g>
     </g>
    </g>
    <g id="text_9">
     <!-- Entropy, s in J/kgK -->
     <g style="fill: #ffffff" transform="translate(671.36375 705.61125) scale(0.16 -0.16)">
      <defs>
       <path id="DejaVuSans-45" d="M 628 4666 
L 3578 4666 
L 3578 4134 
L 1259 4134 
L 1259 2753 
L 3481 2753 
L 3481 2222 
L 1259 2222 
L 1259 531 
L 3634 531 
L 3634 0 
L 628 0 
L 628 4666 
z
" transform="scale(0.015625)"/>
       <path id="DejaVuSans-6e" d="M 3513 2113 
L 3513 0 
L 2938 0 
L 2938 2094 
Q 2938 2591 2744 2837 
Q 2550 3084 2163 3084 
Q 1697 3084 1428 2787 
Q 1159 2491 1159 1978 
L 1159 0 
L 581 0 
L 581 3500 
L 1159 3500 
L 1159 2956 
Q 1366 3272 1645 3428 
Q 1925 3584 2291 3584 
Q 2894 3584 3203 3211 
Q 3513 2838 3513 2113 
z
" transform="scale(0.015625)"/>
       <path id="DejaVuSans-74" d="M 1172 4494 
L 1172 3500 
L 2356 3500 
L 2356 3053 
L 1172 3053 
L 1172 1153 
Q 1172 725 1289 603 
Q 1406 481 1766 481 
L 2356 481 
L 2356 0 
L 1766 0 
Q 1100 0 847 248 
Q 594 497 594 1153 
L 594 3053 
L 172 3053 
L 172 3500 
L 594 3500 
L 594 4494 
L 1172 4494 
z
" transform="scale(0.015625)"/>
       <path id="DejaVuSans-72" d="M 2631 2963 
Q 2534 3019 2420 3045 
Q 2306 3072 2169 3072 
Q 1681 3072 1420 2755 
Q 1159 2438 1159 1844 
L 1159 0 
L 581 0 
L 581 3500 
L 1159 3500 
L 1159 2956 
Q 1341 3275 1631 3429 
Q 1922 3584 2338 3584 
Q 2397 3584 2469 3576 
Q 2541 3569 2628 3553 
L 2631 2963 
z
" transform="scale(0.015625)"/>
       <path id="DejaVuSans-6f" d="M 1959 3097 
Q 1497 3097 1228 2736 
Q 959 2375 959 1747 
Q 959 1119 1226 758 
Q 1494 397 1959 397 
Q 2419 397 2687 759 
Q 2956 1122 2956 1747 
Q 2956 2369 2687 2733 
Q 2419 3097 1959 3097 
z
M 1959 3584 
Q 2709 3584 3137 3096 
Q 3566 2609 3566 1747 
Q 3566 888 3137 398 
Q 2709 -91 1959 -91 
Q 1206 -91 779 398 
Q 353 888 353 1747 
Q 353 2609 779 3096 
Q 1206 3584 1959 3584 
z
" transform="scale(0.015625)"/>
       <path id="DejaVuSans-70" d="M 1159 525 
L 1159 -1331 
L 581 -1331 
L 581 3500 
L 1159 3500 
L 1159 2969 
Q 1341 3281 1617 3432 
Q 1894 3584 2278 3584 
Q 2916 3584 3314 3078 
Q 3713 2572 3713 1747 
Q 3713 922 3314 415 
Q 2916 -91 2278 -91 
Q 1894 -91 1617 61 
Q 1341 213 1159 525 
z
M 3116 1747 
Q 3116 2381 2855 2742 
Q 2594 3103 2138 3103 
Q 1681 3103 1420 2742 
Q 1159 2381 1159 1747 
Q 1159 1113 1420 752 
Q 1681 391 2138 391 
Q 2594 391 2855 752 
Q 3116 1113 3116 1747 
z
" transform="scale(0.015625)"/>
       <path id="DejaVuSans-79" d="M 2059 -325 
Q 1816 -950 1584 -1140 
Q 1353 -1331 966 -1331 
L 506 -1331 
L 506 -850 
L 844 -850 
Q 1081 -850 1212 -737 
Q 1344 -625 1503 -206 
L 1606 56 
L 191 3500 
L 800 3500 
L 1894 763 
L 2988 3500 
L 3597 3500 
L 2059 -325 
z
" transform="scale(0.015625)"/>
       <path id="DejaVuSans-2c" d="M 750 794 
L 1409 794 
L 1409 256 
L 897 -744 
L 494 -744 
L 750 256 
L 750 794 
z
" transform="scale(0.015625)"/>
       <path id="DejaVuSans-20" transform="scale(0.015625)"/>
       <path id="DejaVuSans-73" d="M 2834 3397 
L 2834 2853 
Q 2591 2978 2328 3040 
Q 2066 3103 1784 3103 
Q 1356 3103 1142 2972 
Q 928 2841 928 2578 
Q 928 2378 1081 2264 
Q 1234 2150 1697 2047 
L 1894 2003 
Q 2506 1872 2764 1633 
Q 3022 1394 3022 966 
Q 3022 478 2636 193 
Q 2250 -91 1575 -91 
Q 1294 -91 989 -36 
Q 684 19 347 128 
L 347 722 
Q 666 556 975 473 
Q 1284 391 1588 391 
Q 1994 391 2212 530 
Q 2431 669 2431 922 
Q 2431 1156 2273 1281 
Q 2116 1406 1581 1522 
L 1381 1569 
Q 847 1681 609 1914 
Q 372 2147 372 2553 
Q 372 3047 722 3315 
Q 1072 3584 1716 3584 
Q 2034 3584 2315 3537 
Q 2597 3491 2834 3397 
z
" transform="scale(0.015625)"/>
       <path id="DejaVuSans-69" d="M 603 3500 
L 1178 3500 
L 1178 0 
L 603 0 
L 603 3500 
z
M 603 4863 
L 1178 4863 
L 1178 4134 
L 603 4134 
L 603 4863 
z
" transform="scale(0.015625)"/>
       <path id="DejaVuSans-4a" d="M 628 4666 
L 1259 4666 
L 1259 325 
Q 1259 -519 939 -900 
Q 619 -1281 -91 -1281 
L -331 -1281 
L -331 -750 
L -134 -750 
Q 284 -750 456 -515 
Q 628 -281 628 325 
L 628 4666 
z
" transform="scale(0.015625)"/>
       <path id="DejaVuSans-2f" d="M 1625 4666 
L 2156 4666 
L 531 -594 
L 0 -594 
L 1625 4666 
z
" transform="scale(0.015625)"/>
       <path id="DejaVuSans-6b" d="M 581 4863 
L 1159 4863 
L 1159 1991 
L 2875 3500 
L 3609 3500 
L 1753 1863 
L 3688 0 
L 2938 0 
L 1159 1709 
L 1159 0 
L 581 0 
L 581 4863 
z
" transform="scale(0.015625)"/>
       <path id="DejaVuSans-67" d="M 2906 1791 
Q 2906 2416 2648 2759 
Q 2391 3103 1925 3103 
Q 1463 3103 1205 2759 
Q 947 2416 947 1791 
Q 947 1169 1205 825 
Q 1463 481 1925 481 
Q 2391 481 2648 825 
Q 2906 1169 2906 1791 
z
M 3481 434 
Q 3481 -459 3084 -895 
Q 2688 -1331 1869 -1331 
Q 1566 -1331 1297 -1286 
Q 1028 -1241 775 -1147 
L 775 -588 
Q 1028 -725 1275 -790 
Q 1522 -856 1778 -856 
Q 2344 -856 2625 -561 
Q 2906 -266 2906 331 
L 2906 616 
Q 2728 306 2450 153 
Q 2172 0 1784 0 
Q 1141 0 747 490 
Q 353 981 353 1791 
Q 353 2603 747 3093 
Q 1141 3584 1784 3584 
Q 2172 3584 2450 3431 
Q 2728 3278 2906 2969 
L 2906 3500 
L 3481 3500 
L 3481 434 
z
" transform="scale(0.015625)"/>
       <path id="DejaVuSans-4b" d="M 628 4666 
L 1259 4666 
L 1259 2694 
L 3353 4666 
L 4166 4666 
L 1850 2491 
L 4331 0 
L 3500 0 
L 1259 2247 
L 1259 0 
L 628 0 
L 628 4666 
z
" transform="scale(0.015625)"/>
      </defs>
      <use xlink:href="#DejaVuSans-45"/>
      <use xlink:href="#DejaVuSans-6e" x="63.183594"/>
      <use xlink:href="#DejaVuSans-74" x="126.5625"/>
      <use xlink:href="#DejaVuSans-72" x="165.771484"/>
      <use xlink:href="#DejaVuSans-6f" x="204.634766"/>
      <use xlink:href="#DejaVuSans-70" x="265.816406"/>
      <use xlink:href="#DejaVuSans-79" x="329.292969"/>
      <use xlink:href="#DejaVuSans-2c" x="388.472656"/>
      <use xlink:href="#DejaVuSans-20" x="420.259766"/>
      <use xlink:href="#DejaVuSans-73" x="452.046875"/>
      <use xlink:href="#DejaVuSans-20" x="504.146484"/>
      <use xlink:href="#DejaVuSans-69" x="535.933594"/>
      <use xlink:href="#DejaVuSans-6e" x="563.716797"/>
      <use xlink:href="#DejaVuSans-20" x="627.095703"/>
      <use xlink:href="#DejaVuSans-4a" x="658.882812"/>
      <use xlink:href="#DejaVuSans-2f" x="688.375"/>
      <use xlink:href="#DejaVuSans-6b" x="722.066406"/>
      <use xlink:href="#DejaVuSans-67" x="779.976562"/>
      <use xlink:href="#DejaVuSans-4b" x="843.453125"/>
     </g>
    </g>
   </g>
   <g id="matplotlib.axis_2">
    <g id="ytick_1">
     <g id="line2d_9">
      <defs>
       <path id="m34ad76b632" d="M 0 0 
L -3.5 0 
" style="stroke: #ffffff; stroke-width: 0.8"/>
      </defs>
      <g>
       <use xlink:href="#m34ad76b632" x="58.97" y="670.84" style="fill: #ffffff; stroke: #ffffff; stroke-width: 0.8"/>
      </g>
     </g>
     <g id="text_10">
      <!-- 0 -->
      <g style="fill: #ffffff" transform="translate(44.335 675.399063) scale(0.12 -0.12)">
       <use xlink:href="#DejaVuSans-30"/>
      </g>
     </g>
    </g>
    <g id="ytick_2">
     <g id="line2d_10">
      <g>
       <use xlink:href="#m34ad76b632" x="58.97" y="572.655385" style="fill: #ffffff; stroke: #ffffff; stroke-width: 0.8"/>
      </g>
     </g>
     <g id="text_11">
      <!-- 100 -->
      <g style="fill: #ffffff" transform="translate(29.065 577.214447) scale(0.12 -0.12)">
       <use xlink:href="#DejaVuSans-31"/>
       <use xlink:href="#DejaVuSans-30" x="63.623047"/>
       <use xlink:href="#DejaVuSans-30" x="127.246094"/>
      </g>
     </g>
    </g>
    <g id="ytick_3">
     <g id="line2d_11">
      <g>
       <use xlink:href="#m34ad76b632" x="58.97" y="474.470769" style="fill: #ffffff; stroke: #ffffff; stroke-width: 0.8"/>
      </g>
     </g>
     <g id="text_12">
      <!-- 200 -->
      <g style="fill: #ffffff" transform="translate(29.065 479.029832) scale(0.12 -0.12)">
       <use xlink:href="#DejaVuSans-32"/>
       <use xlink:href="#DejaVuSans-30" x="63.623047"/>
       <use xlink:href="#DejaVuSans-30" x="127.246094"/>
      </g>
     </g>
    </g>
    <g id="ytick_4">
     <g id="line2d_12">
      <g>
       <use xlink:href="#m34ad76b632" x="58.97" y="376.286154" style="fill: #ffffff; stroke: #ffffff; stroke-width: 0.8"/>
      </g>
     </g>
     <g id="text_13">
      <!-- 300 -->
      <g style="fill: #ffffff" transform="translate(29.065 380.845216) scale(0.12 -0.12)">
       <use xlink:href="#DejaVuSans-33"/>
       <use xlink:href="#DejaVuSans-30" x="63.623047"/>
       <use xlink:href="#DejaVuSans-30" x="127.246094"/>
      </g>
     </g>
    </g>
    <g id="ytick_5">
     <g id="line2d_13">
      <g>
       <use xlink:href="#m34ad76b632" x="58.97" y="278.101538" style="fill: #ffffff; stroke: #ffffff; stroke-width: 0.8"/>
      </g>
     </g>
     <g id="text_14">
      <!-- 400 -->
      <g style="fill: #ffffff" transform="translate(29.065 282.660601) scale(0.12 -0.12)">
       <use xlink:href="#DejaVuSans-34"/>
       <use xlink:href="#DejaVuSans-30" x="63.623047"/>
       <use xlink:href="#DejaVuSans-30" x="127.246094"/>
      </g>
     </g>
    </g>
    <g id="ytick_6">
     <g id="line2d_14">
      <g>
       <use xlink:href="#m34ad76b632" x="58.97" y="179.916923" style="fill: #ffffff; stroke: #ffffff; stroke-width: 0.8"/>
      </g>
     </g>
     <g id="text_15">
      <!-- 500 -->
      <g style="fill: #ffffff" transform="translate(29.065 184.475986) scale(0.12 -0.12)">
       <use xlink:href="#DejaVuSans-35"/>
       <use xlink:href="#DejaVuSans-30" x="63.623047"/>
       <use xlink:href="#DejaVuSans-30" x="127.246094"/>
      </g>
     </g>
    </g>
    <g id="ytick_7">
     <g id="line2d_15">
      <g>
       <use xlink:href="#m34ad76b632" x="58.97" y="81.732308" style="fill: #ffffff; stroke: #ffffff; stroke-width: 0.8"/>
      </g>
     </g>
     <g id="text_16">
      <!-- 600 -->
      <g style="fill: #ffffff" transform="translate(29.065 86.29137) scale(0.12 -0.12)">
       <use xlink:href="#DejaVuSans-36"/>
       <use xlink:href="#DejaVuSans-30" x="63.623047"/>
       <use xlink:href="#DejaVuSans-30" x="127.246094"/>
      </g>
     </g>
    </g>
    <g id="text_17">
     <!-- Temperature, T in °C -->
     <g style="fill: #ffffff" transform="translate(21.7375 434.34625) rotate(-90) scale(0.16 -0.16)">
      <defs>
       <path id="DejaVuSans-54" d="M -19 4666 
L 3928 4666 
L 3928 4134 
L 2272 4134 
L 2272 0 
L 1638 0 
L 1638 4134 
L -19 4134 
L -19 4666 
z
" transform="scale(0.015625)"/>
       <path id="DejaVuSans-65" d="M 3597 1894 
L 3597 1613 
L 953 1613 
Q 991 1019 1311 708 
Q 1631 397 2203 397 
Q 2534 397 2845 478 
Q 3156 559 3463 722 
L 3463 178 
Q 3153 47 2828 -22 
Q 2503 -91 2169 -91 
Q 1331 -91 842 396 
Q 353 884 353 1716 
Q 353 2575 817 3079 
Q 1281 3584 2069 3584 
Q 2775 3584 3186 3129 
Q 3597 2675 3597 1894 
z
M 3022 2063 
Q 3016 2534 2758 2815 
Q 2500 3097 2075 3097 
Q 1594 3097 1305 2825 
Q 1016 2553 972 2059 
L 3022 2063 
z
" transform="scale(0.015625)"/>
       <path id="DejaVuSans-6d" d="M 3328 2828 
Q 3544 3216 3844 3400 
Q 4144 3584 4550 3584 
Q 5097 3584 5394 3201 
Q 5691 2819 5691 2113 
L 5691 0 
L 5113 0 
L 5113 2094 
Q 5113 2597 4934 2840 
Q 4756 3084 4391 3084 
Q 3944 3084 3684 2787 
Q 3425 2491 3425 1978 
L 3425 0 
L 2847 0 
L 2847 2094 
Q 2847 2600 2669 2842 
Q 2491 3084 2119 3084 
Q 1678 3084 1418 2786 
Q 1159 2488 1159 1978 
L 1159 0 
L 581 0 
L 581 3500 
L 1159 3500 
L 1159 2956 
Q 1356 3278 1631 3431 
Q 1906 3584 2284 3584 
Q 2666 3584 2933 3390 
Q 3200 3197 3328 2828 
z
" transform="scale(0.015625)"/>
       <path id="DejaVuSans-61" d="M 2194 1759 
Q 1497 1759 1228 1600 
Q 959 1441 959 1056 
Q 959 750 1161 570 
Q 1363 391 1709 391 
Q 2188 391 2477 730 
Q 2766 1069 2766 1631 
L 2766 1759 
L 2194 1759 
z
M 3341 1997 
L 3341 0 
L 2766 0 
L 2766 531 
Q 2569 213 2275 61 
Q 1981 -91 1556 -91 
Q 1019 -91 701 211 
Q 384 513 384 1019 
Q 384 1609 779 1909 
Q 1175 2209 1959 2209 
L 2766 2209 
L 2766 2266 
Q 2766 2663 2505 2880 
Q 2244 3097 1772 3097 
Q 1472 3097 1187 3025 
Q 903 2953 641 2809 
L 641 3341 
Q 956 3463 1253 3523 
Q 1550 3584 1831 3584 
Q 2591 3584 2966 3190 
Q 3341 2797 3341 1997 
z
" transform="scale(0.015625)"/>
       <path id="DejaVuSans-75" d="M 544 1381 
L 544 3500 
L 1119 3500 
L 1119 1403 
Q 1119 906 1312 657 
Q 1506 409 1894 409 
Q 2359 409 2629 706 
Q 2900 1003 2900 1516 
L 2900 3500 
L 3475 3500 
L 3475 0 
L 2900 0 
L 2900 538 
Q 2691 219 2414 64 
Q 2138 -91 1772 -91 
Q 1169 -91 856 284 
Q 544 659 544 1381 
z
M 1991 3584 
L 1991 3584 
z
" transform="scale(0.015625)"/>
       <path id="DejaVuSans-b0" d="M 1600 4347 
Q 1350 4347 1178 4173 
Q 1006 4000 1006 3750 
Q 1006 3503 1178 3333 
Q 1350 3163 1600 3163 
Q 1850 3163 2022 3333 
Q 2194 3503 2194 3750 
Q 2194 3997 2020 4172 
Q 1847 4347 1600 4347 
z
M 1600 4750 
Q 1800 4750 1984 4673 
Q 2169 4597 2303 4453 
Q 2447 4313 2519 4134 
Q 2591 3956 2591 3750 
Q 2591 3338 2302 3052 
Q 2013 2766 1594 2766 
Q 1172 2766 890 3047 
Q 609 3328 609 3750 
Q 609 4169 896 4459 
Q 1184 4750 1600 4750 
z
" transform="scale(0.015625)"/>
       <path id="DejaVuSans-43" d="M 4122 4306 
L 4122 3641 
Q 3803 3938 3442 4084 
Q 3081 4231 2675 4231 
Q 1875 4231 1450 3742 
Q 1025 3253 1025 2328 
Q 1025 1406 1450 917 
Q 1875 428 2675 428 
Q 3081 428 3442 575 
Q 3803 722 4122 1019 
L 4122 359 
Q 3791 134 3420 21 
Q 3050 -91 2638 -91 
Q 1578 -91 968 557 
Q 359 1206 359 2328 
Q 359 3453 968 4101 
Q 1578 4750 2638 4750 
Q 3056 4750 3426 4639 
Q 3797 4528 4122 4306 
z
" transform="scale(0.015625)"/>
      </defs>
      <use xlink:href="#DejaVuSans-54"/>
      <use xlink:href="#DejaVuSans-65" x="44.083984"/>
      <use xlink:href="#DejaVuSans-6d" x="105.607422"/>
      <use xlink:href="#DejaVuSans-70" x="203.019531"/>
      <use xlink:href="#DejaVuSans-65" x="266.496094"/>
      <use xlink:href="#DejaVuSans-72" x="328.019531"/>
      <use xlink:href="#DejaVuSans-61" x="369.132812"/>
      <use xlink:href="#DejaVuSans-74" x="430.412109"/>
      <use xlink:href="#DejaVuSans-75" x="469.621094"/>
      <use xlink:href="#DejaVuSans-72" x="533"/>
      <use xlink:href="#DejaVuSans-65" x="571.863281"/>
      <use xlink:href="#DejaVuSans-2c" x="633.386719"/>
      <use xlink:href="#DejaVuSans-20" x="665.173828"/>
      <use xlink:href="#DejaVuSans-54" x="696.960938"/>
      <use xlink:href="#DejaVuSans-20" x="758.044922"/>
      <use xlink:href="#DejaVuSans-69" x="789.832031"/>
      <use xlink:href="#DejaVuSans-6e" x="817.615234"/>
      <use xlink:href="#DejaVuSans-20" x="880.994141"/>
      <use xlink:href="#DejaVuSans-b0" x="912.78125"/>
      <use xlink:href="#DejaVuSans-43" x="962.78125"/>
     </g>
    </g>
   </g>
   <g id="line2d_16">
    <path d="M 211.625172 611.591975 
L 297.226665 573.042302 
L 1403.412079 573.042302 
L 1430.983712 544.87375 
L 1430.983712 544.87375 
" clip-path="url(#pe9575fd1fd)" style="fill: none; stroke-dasharray: 3.2,0.8,0.5,0.8; stroke-dashoffset: 0; stroke: #c1c1c1; stroke-width: 0.5"/>
   </g>
   <g id="line2d_17">
    <path d="M 211.809522 611.508832 
L 304.338266 569.523514 
L 338.771472 552.812184 
L 1361.034667 552.812184 
L 1372.583617 541.256052 
L 1413.057548 496.135792 
L 1441 460.562884 
L 1441 460.562884 
" clip-path="url(#pe9575fd1fd)" style="fill: none; stroke-dasharray: 3.2,0.8,0.5,0.8; stroke-dashoffset: 0; stroke: #c1c1c1; stroke-width: 0.5"/>
   </g>
   <g id="line2d_18">
    <path d="M 212.36091 611.259944 
L 304.69084 569.333348 
L 368.839579 537.438275 
L 399.042205 521.765239 
L 1305.08642 521.765239 
L 1333.966264 491.782433 
L 1374.452992 442.832527 
L 1415.572732 386.003676 
L 1441 346.686748 
L 1441 346.686748 
" clip-path="url(#pe9575fd1fd)" style="fill: none; stroke-dasharray: 3.2,0.8,0.5,0.8; stroke-dashoffset: 0; stroke: #c1c1c1; stroke-width: 0.5"/>
   </g>
   <g id="line2d_19">
    <path d="M 213.274418 610.846912 
L 305.277014 569.016808 
L 369.325642 537.140359 
L 419.816278 510.497781 
L 449.763899 494.22747 
L 1262.03484 494.22747 
L 1277.604844 479.245982 
L 1317.591468 433.949149 
L 1358.190344 379.765903 
L 1399.768554 316.728741 
L 1441 247.022139 
L 1441 247.022139 
" clip-path="url(#pe9575fd1fd)" style="fill: none; stroke-dasharray: 3.2,0.8,0.5,0.8; stroke-dashoffset: 0; stroke: #c1c1c1; stroke-width: 0.5"/>
   </g>
   <g id="line2d_20">
    <path d="M 215.081437 610.027348 
L 306.443982 568.385221 
L 370.294742 536.545231 
L 420.695128 509.902001 
L 462.506217 486.906942 
L 498.154149 466.786969 
L 505.985468 462.318238 
L 506.166803 462.318238 
L 506.411517 462.318238 
L 506.663127 462.318238 
L 506.921826 462.318238 
L 507.187815 462.318238 
L 507.461299 462.318238 
L 507.74249 462.318238 
L 508.031604 462.318238 
L 508.328864 462.318238 
L 508.6345 462.318238 
L 508.948749 462.318238 
L 509.271853 462.318238 
L 509.604061 462.318238 
L 509.94563 462.318238 
L 510.296824 462.318238 
L 510.657913 462.318238 
L 511.029178 462.318238 
L 511.410904 462.318238 
L 511.803386 462.318238 
L 512.206927 462.318238 
L 512.62184 462.318238 
L 513.048444 462.318238 
L 513.487068 462.318238 
L 513.938053 462.318238 
L 514.401745 462.318238 
L 514.878502 462.318238 
L 515.368694 462.318238 
L 515.872699 462.318238 
L 516.390905 462.318238 
L 516.923714 462.318238 
L 517.471536 462.318238 
L 518.034794 462.318238 
L 518.613924 462.318238 
L 519.209372 462.318238 
L 519.821599 462.318238 
L 520.451078 462.318238 
L 521.098293 462.318238 
L 521.763746 462.318238 
L 522.44795 462.318238 
L 523.151434 462.318238 
L 523.87474 462.318238 
L 524.618427 462.318238 
L 525.383071 462.318238 
L 526.16926 462.318238 
L 526.977602 462.318238 
L 527.808722 462.318238 
L 528.663261 462.318238 
L 529.541879 462.318238 
L 530.445255 462.318238 
L 531.374086 462.318238 
L 532.32909 462.318238 
L 533.311004 462.318238 
L 534.320586 462.318238 
L 535.358616 462.318238 
L 536.425895 462.318238 
L 537.523249 462.318238 
L 538.651523 462.318238 
L 539.81159 462.318238 
L 541.004346 462.318238 
L 542.23071 462.318238 
L 543.491631 462.318238 
L 544.788083 462.318238 
L 546.121065 462.318238 
L 547.491609 462.318238 
L 548.900771 462.318238 
L 550.349641 462.318238 
L 551.839337 462.318238 
L 553.37101 462.318238 
L 554.945841 462.318238 
L 556.565049 462.318238 
L 558.229882 462.318238 
L 559.941627 462.318238 
L 561.701606 462.318238 
L 563.511177 462.318238 
L 565.371738 462.318238 
L 567.284726 462.318238 
L 569.251618 462.318238 
L 571.273933 462.318238 
L 573.353232 462.318238 
L 575.491123 462.318238 
L 577.689254 462.318238 
L 579.949324 462.318238 
L 582.273079 462.318238 
L 584.662312 462.318238 
L 587.118868 462.318238 
L 589.644646 462.318238 
L 592.241594 462.318238 
L 594.91172 462.318238 
L 597.657084 462.318238 
L 600.479807 462.318238 
L 603.382068 462.318238 
L 606.366109 462.318238 
L 609.434234 462.318238 
L 612.588813 462.318238 
L 626.713611 462.318238 
L 642.571672 462.318238 
L 660.375683 462.318238 
L 680.364436 462.318238 
L 702.80602 462.318238 
L 728.001424 462.318238 
L 756.28857 462.318238 
L 788.046848 462.318238 
L 823.702203 462.318238 
L 863.732847 462.318238 
L 908.675675 462.318238 
L 959.133462 462.318238 
L 1015.782955 462.318238 
L 1079.383938 462.318238 
L 1150.789436 462.318238 
L 1217.089608 462.318238 
L 1223.574287 456.813414 
L 1262.560709 417.095618 
L 1302.197036 367.335766 
L 1342.947785 307.7345 
L 1385.030063 238.121438 
L 1428.582139 157.997478 
L 1441 132.853544 
" clip-path="url(#pe9575fd1fd)" style="fill: none; stroke-dasharray: 3.2,0.8,0.5,0.8; stroke-dashoffset: 0; stroke: #c1c1c1; stroke-width: 0.5"/>
   </g>
   <g id="line2d_21">
    <path d="M 220.352156 607.617363 
L 309.902937 566.502052 
L 373.178236 534.765361 
L 423.314277 508.118017 
L 464.995638 485.07008 
L 500.588245 464.867909 
L 531.503171 447.04989 
L 558.670618 431.296984 
L 582.745782 417.370172 
L 592.627915 411.690817 
L 592.919345 411.690817 
L 593.457334 411.690817 
L 594.010481 411.690817 
L 594.579216 411.690817 
L 595.163976 411.690817 
L 595.765213 411.690817 
L 596.383393 411.690817 
L 597.018991 411.690817 
L 597.672499 411.690817 
L 598.344421 411.690817 
L 599.035277 411.690817 
L 599.7456 411.690817 
L 600.475938 411.690817 
L 601.226856 411.690817 
L 601.998933 411.690817 
L 602.792765 411.690817 
L 603.608967 411.690817 
L 604.448167 411.690817 
L 605.311014 411.690817 
L 606.198174 411.690817 
L 607.110332 411.690817 
L 608.048194 411.690817 
L 609.012482 411.690817 
L 610.003942 411.690817 
L 611.023339 411.690817 
L 612.071461 411.690817 
L 613.149117 411.690817 
L 614.257139 411.690817 
L 615.396382 411.690817 
L 616.567728 411.690817 
L 617.772079 411.690817 
L 619.010366 411.690817 
L 620.283546 411.690817 
L 621.592602 411.690817 
L 622.938544 411.690817 
L 624.322412 411.690817 
L 625.745274 411.690817 
L 627.20823 411.690817 
L 628.712409 411.690817 
L 630.258973 411.690817 
L 631.849115 411.690817 
L 633.484065 411.690817 
L 635.165084 411.690817 
L 636.89347 411.690817 
L 638.67056 411.690817 
L 640.497723 411.690817 
L 642.376373 411.690817 
L 644.307959 411.690817 
L 646.293973 411.690817 
L 648.335949 411.690817 
L 650.435464 411.690817 
L 652.594139 411.690817 
L 654.813641 411.690817 
L 657.095683 411.690817 
L 659.442029 411.690817 
L 661.854491 411.690817 
L 664.33493 411.690817 
L 666.885264 411.690817 
L 669.50746 411.690817 
L 672.203545 411.690817 
L 674.975599 411.690817 
L 677.825765 411.690817 
L 680.756242 411.690817 
L 683.769294 411.690817 
L 686.867248 411.690817 
L 690.052496 411.690817 
L 693.327497 411.690817 
L 696.694782 411.690817 
L 700.156949 411.690817 
L 703.716673 411.690817 
L 707.376704 411.690817 
L 711.139866 411.690817 
L 715.009066 411.690817 
L 718.987293 411.690817 
L 723.077618 411.690817 
L 727.283199 411.690817 
L 731.607286 411.690817 
L 736.053216 411.690817 
L 740.624424 411.690817 
L 745.324439 411.690817 
L 750.15689 411.690817 
L 755.12551 411.690817 
L 760.234136 411.690817 
L 765.486713 411.690817 
L 770.887296 411.690817 
L 776.440056 411.690817 
L 782.149282 411.690817 
L 788.019383 411.690817 
L 794.05489 411.690817 
L 800.260466 411.690817 
L 806.640902 411.690817 
L 835.209654 411.690817 
L 867.284093 411.690817 
L 903.294405 411.690817 
L 943.723563 411.690817 
L 989.113806 411.690817 
L 1040.073913 411.690817 
L 1097.287363 411.690817 
L 1150.34362 411.690817 
L 1156.285946 407.67834 
L 1192.308202 377.642243 
L 1229.443339 337.31914 
L 1268.037594 286.177314 
L 1308.29588 223.83145 
L 1350.353082 149.859486 
L 1394.30212 63.657112 
L 1424.217531 -1 
" clip-path="url(#pe9575fd1fd)" style="fill: none; stroke-dasharray: 3.2,0.8,0.5,0.8; stroke-dashoffset: 0; stroke: #c1c1c1; stroke-width: 0.5"/>
   </g>
   <g id="line2d_22">
    <path d="M 228.690544 603.744368 
L 315.534801 563.399968 
L 377.90727 531.816568 
L 427.622987 505.155538 
L 469.097094 482.01634 
L 504.601375 461.675706 
L 535.505233 443.685007 
L 562.717924 427.731398 
L 586.883451 413.578869 
L 608.479153 401.039574 
L 627.870898 389.95823 
L 645.346531 380.20274 
L 661.137396 371.658061 
L 672.95142 365.488647 
L 673.133273 365.488647 
L 674.155756 365.488647 
L 675.207049 365.488647 
L 676.287966 365.488647 
L 677.399341 365.488647 
L 678.542032 365.488647 
L 679.716922 365.488647 
L 680.924918 365.488647 
L 682.166953 365.488647 
L 683.443985 365.488647 
L 684.757002 365.488647 
L 686.107017 365.488647 
L 687.495073 365.488647 
L 688.922241 365.488647 
L 690.389624 365.488647 
L 691.898355 365.488647 
L 693.449599 365.488647 
L 695.044553 365.488647 
L 696.68445 365.488647 
L 698.370556 365.488647 
L 700.104173 365.488647 
L 701.88664 365.488647 
L 703.719333 365.488647 
L 705.603668 365.488647 
L 707.541099 365.488647 
L 709.533124 365.488647 
L 711.581279 365.488647 
L 713.687147 365.488647 
L 715.852354 365.488647 
L 718.078573 365.488647 
L 720.367521 365.488647 
L 722.720968 365.488647 
L 725.14073 365.488647 
L 727.628675 365.488647 
L 730.186726 365.488647 
L 732.816858 365.488647 
L 735.521101 365.488647 
L 738.301544 365.488647 
L 741.160335 365.488647 
L 744.09968 365.488647 
L 747.12185 365.488647 
L 750.229179 365.488647 
L 753.424066 365.488647 
L 756.708978 365.488647 
L 760.086452 365.488647 
L 763.559097 365.488647 
L 767.129593 365.488647 
L 770.800699 365.488647 
L 774.575249 365.488647 
L 778.456158 365.488647 
L 782.446424 365.488647 
L 786.549126 365.488647 
L 790.767435 365.488647 
L 795.104607 365.488647 
L 799.563991 365.488647 
L 804.149032 365.488647 
L 808.863269 365.488647 
L 813.710345 365.488647 
L 818.694001 365.488647 
L 823.818086 365.488647 
L 829.086557 365.488647 
L 834.503483 365.488647 
L 840.073047 365.488647 
L 845.79955 365.488647 
L 851.687414 365.488647 
L 857.741186 365.488647 
L 863.965541 365.488647 
L 870.365286 365.488647 
L 876.945362 365.488647 
L 883.710851 365.488647 
L 890.666978 365.488647 
L 897.819114 365.488647 
L 905.172783 365.488647 
L 912.733663 365.488647 
L 920.507593 365.488647 
L 928.500577 365.488647 
L 936.718786 365.488647 
L 945.168568 365.488647 
L 953.856447 365.488647 
L 962.789133 365.488647 
L 971.973524 365.488647 
L 981.416712 365.488647 
L 991.12599 365.488647 
L 1001.108855 365.488647 
L 1011.373017 365.488647 
L 1021.926402 365.488647 
L 1032.77716 365.488647 
L 1081.362019 365.488647 
L 1084.98917 365.488647 
L 1113.989081 350.032934 
L 1146.596423 326.086678 
L 1180.887306 293.134222 
L 1217.003014 249.815444 
L 1255.10459 195.047659 
L 1295.331118 127.969591 
L 1337.778114 47.789054 
L 1360.962003 -1 
" clip-path="url(#pe9575fd1fd)" style="fill: none; stroke-dasharray: 3.2,0.8,0.5,0.8; stroke-dashoffset: 0; stroke: #c1c1c1; stroke-width: 0.5"/>
   </g>
   <g id="line2d_23">
    <path d="M 119.294381 648.346212 
L 257.906867 589.560229 
L 336.617591 551.380223 
L 395.951426 520.217583 
L 444.202621 493.428226 
L 484.945706 469.889307 
L 520.139524 448.978233 
L 551.009562 430.291269 
L 578.390404 413.537923 
L 602.884571 398.493869 
L 624.945741 384.977279 
L 644.926573 372.835632 
L 663.108305 361.937616 
L 679.720163 352.167737 
L 694.952615 343.422558 
L 708.966608 335.608133 
L 721.899953 328.63844 
L 733.87166 322.434637 
L 744.984919 316.924766 
L 755.329549 312.043308 
L 764.984573 307.730049 
L 774.021087 303.928281 
L 782.504861 300.583134 
L 790.497773 297.641072 
L 798.057591 295.051066 
L 805.236521 292.766803 
L 812.079823 290.748487 
L 818.625893 288.962874 
L 824.90832 287.381345 
L 830.958904 285.977313 
L 836.809756 284.724713 
L 842.493381 283.598191 
L 848.041152 282.574238 
L 853.481382 281.632261 
L 858.837887 280.755232 
L 864.129289 279.929936 
L 869.369145 279.146665 
L 874.566943 278.398126 
L 879.729788 277.677749 
L 884.864227 276.978114 
L 889.977496 276.290304 
L 895.07778 275.604444 
L 900.173679 274.910916 
L 905.273244 274.201667 
L 910.383239 273.470718 
L 915.509274 272.713521 
L 920.656176 271.926091 
L 925.828348 271.104263 
L 931.029999 270.243249 
L 936.265217 269.337502 
L 941.537966 268.38078 
L 946.85204 267.366287 
L 952.211043 266.286795 
L 957.618377 265.134742 
L 963.077267 263.902256 
L 968.590778 262.581158 
L 974.161851 261.162927 
L 979.793321 259.638663 
L 985.487933 257.999041 
L 991.248354 256.234267 
L 997.077175 254.334039 
L 1002.976919 252.287509 
L 1008.950037 250.083244 
L 1014.998919 247.70919 
L 1021.125893 245.152641 
L 1027.333237 242.400199 
L 1033.623188 239.437751 
L 1039.997949 236.250431 
L 1046.459702 232.822602 
L 1053.010624 229.137832 
L 1059.652893 225.178881 
L 1066.388706 220.927693 
L 1073.220291 216.365398 
L 1080.149919 211.47232 
L 1087.179914 206.228003 
L 1094.312668 200.611235 
L 1101.550648 194.600094 
L 1108.8964 188.172 
L 1116.352561 181.303779 
L 1123.921851 173.971731 
L 1131.607079 166.151716 
L 1139.411132 157.819237 
L 1147.336968 148.949533 
L 1155.387597 139.517668 
L 1163.56607 129.498629 
L 1171.875454 118.867414 
L 1180.318812 107.599113 
L 1188.899176 95.668988 
L 1197.619526 83.052539 
L 1206.482766 69.725563 
L 1215.491698 55.664193 
L 1224.649007 40.844937 
L 1233.957238 25.244688 
" clip-path="url(#pe9575fd1fd)" style="fill: none; stroke-dasharray: 3.2,0.8,0.5,0.8; stroke-dashoffset: 0; stroke: #c1c1c1; stroke-width: 0.5"/>
   </g>
   <g id="line2d_24">
    <path d="M 275.476542 576.04754 
L 302.846879 565.694937 
L 326.512723 557.222728 
L 336.344202 553.908506 
L 336.344573 554.016955 
L 336.47407 560.358154 
L 336.768107 565.896717 
L 337.285722 571.862406 
L 337.997546 577.635787 
L 339.06609 584.147543 
L 340.147821 589.405546 
L 341.499267 594.894613 
L 343.140307 600.538985 
L 345.084673 606.271508 
L 347.340466 612.035224 
L 349.910954 617.783506 
L 352.795456 623.47933 
L 355.990205 629.094117 
L 359.489118 634.60644 
L 363.284448 640.000761 
L 367.367322 645.266298 
L 371.728162 650.396041 
L 376.357018 655.385928 
L 381.243817 660.234176 
L 386.378548 664.940727 
L 391.751398 669.506812 
L 391.751398 669.506812 
" clip-path="url(#pe9575fd1fd)" style="fill: none; stroke-dasharray: 1.85,0.8; stroke-dashoffset: 0; stroke: #c1c1c1; stroke-width: 0.5"/>
   </g>
   <g id="line2d_25">
    <path d="M 415.157233 484.768585 
L 439.764206 473.935689 
L 461.478868 464.956562 
L 480.60702 457.702924 
L 497.410474 452.042375 
L 512.11495 447.840968 
L 524.914997 444.965617 
L 535.976407 443.286389 
L 539.336905 443.094689 
L 539.646825 451.375576 
L 540.14915 459.144864 
L 540.862081 466.839661 
L 541.805958 474.55205 
L 542.905256 481.737157 
L 543.79393 486.691712 
L 545.017005 492.676289 
L 546.460011 498.854553 
L 548.136866 505.177634 
L 550.058568 511.599212 
L 552.233159 518.076693 
L 554.665843 524.571928 
L 557.359194 531.051539 
L 560.313442 537.486951 
L 563.526789 543.854212 
L 566.995736 550.133664 
L 570.715402 556.309543 
L 574.679822 562.369533 
L 578.88221 568.304329 
L 583.315197 574.107203 
L 587.971031 579.773609 
L 592.841744 585.300826 
L 597.919285 590.68764 
L 603.195635 595.934058 
L 608.662891 601.041078 
L 614.313325 606.010475 
L 620.139439 610.844635 
L 626.133992 615.546403 
L 632.290028 620.118972 
L 638.60088 624.565775 
L 645.060186 628.890409 
L 651.66188 633.09657 
L 658.400192 637.188 
L 665.269642 641.168441 
L 672.265031 645.041608 
L 682.983533 650.658205 
L 693.958799 656.05367 
L 705.176484 661.239544 
L 716.623372 666.226822 
L 724.375914 669.446509 
L 724.375914 669.446509 
" clip-path="url(#pe9575fd1fd)" style="fill: none; stroke-dasharray: 1.85,0.8; stroke-dashoffset: 0; stroke: #c1c1c1; stroke-width: 0.5"/>
   </g>
   <g id="line2d_26">
    <path d="M 520.066262 392.240141 
L 543.269836 380.105869 
L 564.059184 369.81947 
L 582.69247 361.253115 
L 599.391941 354.278612 
L 614.35101 348.768179 
L 627.739547 344.595344 
L 639.707706 341.635999 
L 650.388574 339.769566 
L 659.899966 338.8801 
L 668.345732 338.857123 
L 675.816912 339.59602 
L 682.39302 340.997886 
L 688.143498 342.968874 
L 693.128989 345.419139 
L 697.401542 348.261402 
L 700.328394 350.884181 
L 701.18338 360.59481 
L 702.236832 369.952245 
L 703.527216 379.285137 
L 705.010962 388.271587 
L 706.621718 396.652156 
L 708.535537 405.331629 
L 710.477634 413.116534 
L 712.683739 421.03072 
L 715.164951 429.029854 
L 716.709681 433.622795 
L 720.229147 443.202245 
L 724.162482 452.7519 
L 728.512009 462.219907 
L 733.275749 471.562608 
L 738.447992 480.744248 
L 744.019921 489.736419 
L 749.980219 498.517339 
L 756.315656 507.071046 
L 763.011619 515.386598 
L 770.052579 523.457289 
L 777.42249 531.279927 
L 785.10513 538.854193 
L 793.08437 546.182065 
L 801.344387 553.267331 
L 809.869836 560.115169 
L 818.645965 566.731799 
L 827.658701 573.124187 
L 836.894699 579.299808 
L 846.34137 585.26645 
L 855.986889 591.032061 
L 865.820178 596.604621 
L 875.830892 601.992049 
L 886.009384 607.202127 
L 896.34667 612.242446 
L 906.834394 617.120366 
L 917.464784 621.842987 
L 928.230615 626.417133 
L 939.125169 630.84934 
L 950.142196 635.145854 
L 961.275881 639.31263 
L 972.520807 643.355336 
L 989.585827 649.198474 
L 1006.874235 654.791562 
L 1024.371924 660.15035 
L 1042.066133 665.289369 
L 1059.945295 670.222018 
L 1059.945295 670.222018 
" clip-path="url(#pe9575fd1fd)" style="fill: none; stroke-dasharray: 1.85,0.8; stroke-dashoffset: 0; stroke: #c1c1c1; stroke-width: 0.5"/>
   </g>
   <g id="line2d_27">
    <path d="M 605.790172 297.24102 
L 628.033038 283.420536 
L 648.159735 271.464634 
L 666.398064 261.245834 
L 682.944677 252.638773 
L 697.970939 245.520659 
L 711.627505 239.771682 
L 724.047826 235.275474 
L 735.350785 231.919641 
L 745.642658 229.596354 
L 755.018557 228.202935 
L 763.563538 227.642372 
L 771.353518 227.823671 
L 778.456117 228.662006 
L 784.931518 230.078655 
L 790.833374 232.000774 
L 796.209736 234.361065 
L 801.103968 237.097456 
L 805.555566 240.152824 
L 809.600846 243.474757 
L 813.273506 247.01528 
L 816.605066 250.730485 
L 819.625172 254.580082 
L 822.361673 258.526965 
L 824.840397 262.536854 
L 827.084618 266.577967 
L 829.114418 270.620604 
L 830.946397 274.636722 
L 832.594454 278.599978 
L 835.395115 286.280049 
L 837.656504 293.549466 
L 839.474095 300.218185 
L 840.738769 305.735286 
L 842.636358 314.480014 
L 844.939966 324.034722 
L 847.220217 332.596102 
L 849.783354 341.381698 
L 852.63553 350.318168 
L 855.784535 359.351225 
L 858.640297 366.919093 
L 861.709628 374.497922 
L 864.994307 382.065935 
L 868.495128 389.603485 
L 872.211955 397.093015 
L 875.472508 403.284287 
L 878.881281 409.423455 
L 882.436919 415.503447 
L 886.137742 421.51803 
L 889.981781 427.461761 
L 893.966804 433.329936 
L 898.090352 439.118537 
L 902.349762 444.824183 
L 906.742199 450.444078 
L 911.264685 455.975962 
L 915.914121 461.418065 
L 920.687313 466.769063 
L 925.580995 472.028031 
L 930.591849 477.194407 
L 935.716525 482.267955 
L 940.951658 487.248723 
L 946.293883 492.13702 
L 951.739849 496.933377 
L 957.286234 501.638525 
L 962.929755 506.253367 
L 968.667175 510.778953 
L 974.495314 515.216464 
L 980.411057 519.567188 
L 986.411357 523.832504 
L 992.493243 528.013867 
L 1004.890284 536.130848 
L 1017.580034 543.930779 
L 1030.54172 551.426758 
L 1043.755973 558.632063 
L 1057.204817 565.559941 
L 1070.871642 572.223448 
L 1084.741149 578.63533 
L 1098.799293 584.807936 
L 1113.033199 590.753154 
L 1127.431089 596.482374 
L 1141.982196 602.00646 
L 1156.676686 607.335747 
L 1171.505572 612.480031 
L 1186.460645 617.448587 
L 1201.5344 622.250174 
L 1224.352694 629.157436 
L 1239.694349 633.576725 
L 1255.133051 637.85594 
L 1278.462063 644.026669 
L 1301.982609 649.918173 
L 1325.680967 655.549584 
L 1349.544931 660.938361 
L 1373.563602 666.100449 
L 1389.657131 669.423149 
L 1389.657131 669.423149 
" clip-path="url(#pe9575fd1fd)" style="fill: none; stroke-dasharray: 1.85,0.8; stroke-dashoffset: 0; stroke: #c1c1c1; stroke-width: 0.5"/>
   </g>
   <g id="line2d_28">
    <path d="M 679.205205 199.568582 
L 700.687045 183.857192 
L 720.259341 170.041229 
L 738.126702 157.992519 
L 754.466038 147.586889 
L 769.431633 138.704436 
L 783.159192 131.229579 
L 795.769023 125.051048 
L 807.368484 120.061892 
L 818.053841 116.159604 
L 827.911638 113.246342 
L 837.019737 111.229237 
L 845.448107 110.020731 
L 853.25948 109.53887 
L 860.509944 109.707503 
L 867.249516 110.456356 
L 873.522723 111.720962 
L 879.369197 113.442463 
L 884.824269 115.56732 
L 889.919552 118.046937 
L 894.683498 120.837245 
L 899.141927 123.898268 
L 903.318494 127.193713 
L 907.235066 130.690651 
L 910.911992 134.359298 
L 914.368267 138.172891 
L 917.6216 142.107581 
L 920.688447 146.142309 
L 923.584039 150.258593 
L 926.322432 154.440256 
L 928.916569 158.673108 
L 931.378375 162.944636 
L 935.9481 171.560536 
L 940.109712 180.213028 
L 943.929527 188.843697 
L 947.463271 197.408955 
L 950.757161 205.877853 
L 955.329733 218.355814 
L 959.549178 230.525832 
L 964.76105 246.241317 
L 973.123729 272.339073 
L 982.043265 300.072824 
L 987.470422 316.332476 
L 988.530298 319.380903 
L 992.756633 328.00267 
L 997.333669 336.77378 
L 1002.238858 345.604017 
L 1006.390194 352.670487 
L 1010.737838 359.714432 
L 1015.277209 366.717993 
L 1016.441495 368.460801 
L 1021.415545 375.678686 
L 1026.586697 382.820507 
L 1031.950037 389.875643 
L 1037.500589 396.835416 
L 1043.233311 403.692796 
L 1049.143094 410.442157 
L 1055.224777 417.079079 
L 1061.473155 423.600181 
L 1067.882997 430.002975 
L 1074.449063 436.285744 
L 1081.16612 442.447436 
L 1088.028959 448.487574 
L 1095.03241 454.406174 
L 1102.171357 460.203676 
L 1109.440756 465.880882 
L 1116.835643 471.438907 
L 1124.351149 476.879123 
L 1131.982508 482.203126 
L 1139.725068 487.412695 
L 1147.574295 492.509761 
L 1155.525784 497.496377 
L 1163.575257 502.374696 
L 1171.718575 507.146946 
L 1179.951733 511.815413 
L 1188.270869 516.382423 
L 1196.672257 520.850328 
L 1205.152314 525.221492 
L 1213.707597 529.498284 
L 1231.030753 537.778174 
L 1248.616911 545.708648 
L 1266.443373 553.307914 
L 1284.489456 560.593591 
L 1302.736385 567.582603 
L 1321.167165 574.29112 
L 1339.766452 580.734522 
L 1358.520421 586.92738 
L 1377.416632 592.883458 
L 1396.443901 598.615729 
L 1415.592179 604.136394 
L 1434.852433 609.456909 
L 1434.852433 609.456909 
" clip-path="url(#pe9575fd1fd)" style="fill: none; stroke-dasharray: 1.85,0.8; stroke-dashoffset: 0; stroke: #c1c1c1; stroke-width: 0.5"/>
   </g>
   <g id="line2d_29">
    <path d="M 743.930497 99.348026 
L 764.77194 81.65121 
L 783.859124 65.889463 
L 801.377506 51.933353 
L 817.487613 39.659085 
L 832.329584 28.948482 
L 1013.736071 31.491475 
L 1016.597518 35.505708 
L 1019.360866 39.567963 
L 1022.033661 43.669599 
L 1024.622915 47.80284 
L 1027.135118 51.960709 
L 1029.57627 56.136965 
L 1031.951906 60.32604 
L 1034.267124 64.522966 
L 1036.526618 68.723323 
L 1038.734708 72.923176 
L 1040.895369 77.119024 
L 1043.012261 81.307751 
L 1045.088757 85.486582 
L 1047.127967 89.653048 
L 1049.132764 93.804949 
L 1051.105803 97.940323 
L 1053.049544 102.057425 
L 1054.96627 106.154698 
L 1056.858099 110.230755 
L 1058.727003 114.28436 
L 1060.57482 118.314416 
L 1062.403264 122.319945 
L 1064.213937 126.300079 
L 1066.008341 130.254046 
L 1067.787879 134.181165 
L 1069.553871 138.08083 
L 1071.307554 141.952508 
L 1073.050093 145.795725 
L 1074.782583 149.610065 
L 1076.506056 153.395163 
L 1078.221484 157.150695 
L 1079.929784 160.876378 
L 1081.631823 164.571963 
L 1083.328417 168.237231 
L 1085.020338 171.87199 
L 1086.708318 175.476071 
L 1088.393045 179.049327 
L 1090.075173 182.591627 
L 1091.755318 186.102857 
L 1093.434066 189.582916 
L 1095.111968 193.031714 
L 1096.789548 196.449174 
L 1098.467301 199.835225 
L 1100.145695 203.189805 
L 1101.825174 206.51286 
L 1103.506155 209.804341 
L 1105.189036 213.064205 
L 1106.874192 216.292414 
L 1108.561976 219.488933 
L 1110.252723 222.653734 
L 1111.946748 225.786791 
L 1113.644349 228.888081 
L 1115.345808 231.957588 
L 1117.051387 234.995295 
L 1118.761338 238.001191 
L 1120.475893 240.975269 
L 1122.195272 243.917524 
L 1123.919681 246.827955 
L 1125.649313 249.706563 
L 1127.38435 252.553356 
L 1129.124958 255.368342 
L 1130.871296 258.151535 
L 1132.623509 260.902952 
L 1134.381733 263.622614 
L 1136.146092 266.310546 
L 1137.916703 268.966777 
L 1139.693671 271.59134 
L 1147.165629 282.183626 
L 1154.754861 292.230779 
L 1162.464657 301.737739 
L 1170.296441 310.710922 
L 1178.250065 319.158287 
L 1186.324065 327.089375 
L 1194.515884 334.515338 
L 1202.822076 341.448934 
L 1211.238476 347.904506 
L 1219.760367 353.897917 
L 1228.382616 359.446458 
L 1237.099803 364.568709 
L 1245.906335 369.284368 
L 1254.796545 373.614045 
L 1263.764772 377.579028 
L 1272.805441 381.201035 
L 1281.913115 384.501956 
L 1291.082548 387.503608 
L 1300.308718 390.227495 
L 1309.586856 392.694605 
L 1318.912465 394.925222 
L 1328.281327 396.938782 
L 1337.689511 398.753759 
L 1347.133367 400.387585 
L 1356.609525 401.856597 
L 1366.114883 403.17602 
L 1375.646597 404.359962 
L 1385.202067 405.421438 
L 1394.778921 406.3724 
L 1404.375006 407.223786 
L 1413.988364 407.985574 
L 1423.617227 408.666837 
L 1433.259992 409.275805 
" clip-path="url(#pe9575fd1fd)" style="fill: none; stroke-dasharray: 1.85,0.8; stroke-dashoffset: 0; stroke: #c1c1c1; stroke-width: 0.5"/>
   </g>
   <g id="line2d_30">
    <path d="M 1182.335121 30.213199 
L 1184.375193 33.050434 
L 1186.413874 35.850721 
L 1188.451576 38.613899 
L 1190.488686 41.339835 
L 1192.525569 44.028421 
L 1194.562566 46.679573 
L 1196.599998 49.293231 
L 1198.638164 51.869357 
L 1200.677347 54.407936 
L 1202.717808 56.908974 
L 1204.759792 59.372499 
L 1206.803528 61.798559 
L 1208.849228 64.187219 
L 1210.897088 66.538567 
L 1212.947293 68.852707 
L 1215.000009 71.12976 
L 1217.055394 73.369868 
L 1219.113591 75.573186 
L 1221.174731 77.739887 
L 1223.238933 79.870158 
L 1225.306308 81.964204 
L 1227.376954 84.022242 
L 1229.450961 86.044504 
L 1231.52841 88.031234 
L 1240.220025 95.930211 
L 1248.976134 103.238277 
L 1257.798494 109.979242 
L 1266.687299 116.1793 
L 1275.641541 121.866408 
L 1284.659311 127.069704 
L 1293.738044 131.818974 
L 1302.874716 136.144176 
L 1312.066013 140.075026 
L 1321.308457 143.640645 
L 1330.598509 146.869271 
L 1339.932649 149.788027 
L 1349.307435 152.422754 
L 1358.719549 154.797888 
L 1368.165824 156.936384 
L 1377.643269 158.859682 
L 1387.149078 160.5877 
L 1396.680636 162.13886 
L 1406.23552 163.530126 
L 1415.811498 164.777062 
L 1425.406516 165.893904 
L 1435.018697 166.893632 
" clip-path="url(#pe9575fd1fd)" style="fill: none; stroke-dasharray: 1.85,0.8; stroke-dashoffset: 0; stroke: #c1c1c1; stroke-width: 0.5"/>
   </g>
   <g id="line2d_31">
    <path d="M 58.97 670.830182 
L 83.515511 662.128002 
L 107.208987 653.425823 
L 130.147562 644.723644 
L 152.400687 636.021465 
L 174.021986 627.319286 
L 195.055527 618.617107 
L 215.539417 609.914928 
L 235.507897 601.212749 
L 254.992568 592.51057 
L 274.023082 583.808391 
L 292.627536 575.106212 
L 310.832701 566.404033 
L 328.664161 557.701854 
L 346.146417 548.999675 
L 363.302974 540.297496 
L 380.156434 531.595317 
L 396.728597 522.893138 
L 413.040566 514.190959 
L 429.112871 505.48878 
L 444.965608 496.786601 
L 460.618586 488.084422 
L 476.091497 479.382243 
L 491.404111 470.680063 
L 506.576495 461.977884 
L 521.629278 453.275705 
L 536.583965 444.573526 
L 551.463341 435.871347 
L 566.291968 427.169168 
L 581.096851 418.466989 
L 595.908328 409.76481 
L 610.761296 401.062631 
L 625.696938 392.360452 
L 640.765238 383.658273 
L 656.028728 374.956094 
L 671.568316 366.253915 
L 687.492849 357.551736 
L 703.956334 348.849557 
L 721.194001 340.147378 
L 739.613959 331.445199 
L 760.071017 322.74302 
L 761.313182 322.25429 
L 762.568297 321.76556 
L 763.83697 321.27683 
L 765.119842 320.788101 
L 766.417594 320.299371 
L 767.730946 319.810641 
L 769.060662 319.321911 
L 770.407552 318.833181 
L 771.772473 318.344452 
L 773.156335 317.855722 
L 774.560105 317.366992 
L 775.984811 316.878262 
L 777.431549 316.389533 
L 778.901496 315.900803 
L 780.395914 315.412073 
L 781.916176 314.923343 
L 783.463784 314.434613 
L 785.0404 313.945884 
L 786.647895 313.457154 
L 788.288404 312.968424 
L 789.964414 312.479694 
L 791.678872 311.990964 
L 793.435337 311.502235 
L 795.238185 311.013505 
L 797.092882 310.524775 
L 799.006354 310.036045 
L 800.987495 309.547316 
L 803.04787 309.058586 
L 805.202713 308.569856 
L 807.472392 308.081126 
L 809.884582 307.592396 
L 812.477645 307.103667 
L 815.30596 306.614937 
L 818.448618 306.126207 
L 822.024051 305.637477 
L 826.217207 305.148748 
L 831.350071 304.660018 
L 838.234361 304.171288 
L 864.110186 303.682558 
" clip-path="url(#pe9575fd1fd)" style="fill: none; stroke: #c1c1c1; stroke-width: 2; stroke-linecap: square"/>
   </g>
   <g id="line2d_32">
    <path d="M 1441 588.872461 
L 1428.403757 583.808391 
L 1408.060061 575.106212 
L 1388.892061 566.404033 
L 1370.784183 557.701854 
L 1353.630506 548.999675 
L 1337.333954 540.297496 
L 1321.805567 531.595317 
L 1306.96378 522.893138 
L 1292.733672 514.190959 
L 1279.046153 505.48878 
L 1265.837117 496.786601 
L 1253.046575 488.084422 
L 1240.617784 479.382243 
L 1228.496396 470.680063 
L 1216.629628 461.977884 
L 1204.965433 453.275705 
L 1193.451628 444.573526 
L 1182.034946 435.871347 
L 1170.659927 427.169168 
L 1159.267566 418.466989 
L 1147.793581 409.76481 
L 1136.166089 401.062631 
L 1124.302382 392.360452 
L 1112.104313 383.658273 
L 1099.451477 374.956094 
L 1086.190677 366.253915 
L 1072.118708 357.551736 
L 1056.952174 348.849557 
L 1040.269299 340.147378 
L 1021.382148 331.445199 
L 998.994964 322.74302 
L 997.587016 322.25429 
L 996.158728 321.76556 
L 994.709205 321.27683 
L 993.237489 320.788101 
L 991.742546 320.299371 
L 990.22326 319.810641 
L 988.678423 319.321911 
L 987.106723 318.833181 
L 985.506735 318.344452 
L 983.8769 317.855722 
L 982.21551 317.366992 
L 980.520691 316.878262 
L 978.790374 316.389533 
L 977.022266 315.900803 
L 975.213819 315.412073 
L 973.362185 314.923343 
L 971.464168 314.434613 
L 969.516163 313.945884 
L 967.51408 313.457154 
L 965.453251 312.968424 
L 963.328317 312.479694 
L 961.133082 311.990964 
L 958.860333 311.502235 
L 956.501596 311.013505 
L 954.046836 310.524775 
L 951.484048 310.036045 
L 948.798705 309.547316 
L 945.973008 309.058586 
L 942.984824 308.569856 
L 939.806155 308.081126 
L 936.400851 307.592396 
L 932.72105 307.103667 
L 928.701361 306.614937 
L 924.248636 306.126207 
L 919.222134 305.637477 
L 913.388809 305.148748 
L 906.295902 304.660018 
L 896.723548 304.171288 
L 864.110186 303.682558 
" clip-path="url(#pe9575fd1fd)" style="fill: none; stroke: #c1c1c1; stroke-width: 2; stroke-linecap: square"/>
   </g>
   <g id="line2d_33">
    <path d="M 148.773977 637.457231 
L 148.807297 637.440054 
L 148.840617 637.422871 
L 148.873936 637.405679 
L 148.907256 637.388481 
L 148.940576 637.371274 
L 148.973896 637.35406 
L 149.007215 637.336839 
L 149.040535 637.31961 
L 149.073855 637.302374 
L 149.107175 637.28513 
L 149.140494 637.267879 
L 149.173814 637.25062 
L 149.207134 637.233354 
L 149.240454 637.21608 
L 149.273774 637.198799 
L 149.307093 637.18151 
L 149.340413 637.164213 
L 149.373733 637.146909 
L 149.407053 637.129598 
L 149.440372 637.112279 
L 149.473692 637.094952 
L 149.507012 637.077618 
L 149.540332 637.060277 
L 149.573651 637.042928 
L 149.606971 637.025571 
L 149.640291 637.008207 
L 149.673611 636.990835 
L 149.70693 636.973456 
L 149.74025 636.956069 
L 149.77357 636.938674 
L 149.80689 636.921272 
L 149.840209 636.903863 
L 149.873529 636.886446 
L 149.906849 636.869021 
L 149.940169 636.851589 
L 149.973489 636.834149 
L 150.006808 636.816702 
L 150.040128 636.799247 
L 150.073448 636.781785 
L 150.106768 636.764315 
L 150.140087 636.746837 
L 150.173407 636.729352 
L 150.206727 636.711859 
L 150.240047 636.694359 
L 150.273366 636.676851 
L 150.306686 636.659336 
L 150.340006 636.641813 
L 150.373326 636.624282 
L 150.406645 636.606744 
L 150.439965 636.589198 
L 150.473285 636.571644 
L 150.506605 636.554083 
L 150.539924 636.536515 
L 150.573244 636.518939 
L 150.606564 636.501355 
L 150.639884 636.483763 
L 150.673204 636.466164 
L 150.706523 636.448558 
L 150.739843 636.430944 
L 150.773163 636.413322 
L 150.806483 636.395692 
L 150.839802 636.378055 
L 150.873122 636.36041 
L 150.906442 636.342758 
L 150.939762 636.325098 
L 150.973081 636.307431 
L 151.006401 636.289755 
L 151.039721 636.272073 
L 151.073041 636.254382 
L 151.10636 636.236684 
L 151.13968 636.218978 
L 151.173 636.201265 
L 151.20632 636.183544 
L 151.239639 636.165815 
L 151.272959 636.148079 
L 151.306279 636.130335 
L 151.339599 636.112584 
L 151.372919 636.094825 
L 151.406238 636.077058 
L 151.439558 636.059283 
L 151.472878 636.041501 
L 151.506198 636.023711 
L 151.539517 636.005914 
L 151.572837 635.988109 
L 151.606157 635.970296 
L 151.639477 635.952475 
L 151.672796 635.934647 
L 151.706116 635.916811 
L 151.739436 635.898968 
L 151.772756 635.881117 
L 151.806075 635.863258 
L 151.839395 635.845391 
L 151.872715 635.827517 
L 151.906035 635.809635 
L 151.939354 635.791746 
L 151.972674 635.773849 
L 152.005994 635.755944 
L 152.039314 635.738031 
L 152.072634 635.720111 
" clip-path="url(#pe9575fd1fd)" style="fill: none; stroke: #ff0000; stroke-width: 2; stroke-linecap: square"/>
   </g>
   <g id="line2d_34">
    <path d="M 1279.313207 81.732308 
L 1280.238486 95.986054 
L 1281.163765 110.02298 
L 1282.089044 123.847839 
L 1283.014323 137.465059 
L 1283.939603 150.878765 
L 1284.864882 164.092811 
L 1285.790161 177.110801 
L 1286.71544 189.936113 
L 1287.64072 202.571916 
L 1288.565999 215.021192 
L 1289.491278 227.286747 
L 1290.416557 239.371231 
L 1291.341836 251.277145 
L 1292.267116 263.00686 
L 1293.192395 274.562622 
L 1294.117674 285.946562 
L 1295.042953 297.160707 
L 1295.968233 308.206987 
L 1296.893512 319.087239 
L 1297.818791 329.803215 
L 1298.74407 340.356588 
L 1299.669349 350.748953 
L 1300.594629 360.981836 
L 1301.519908 371.056692 
L 1302.445187 380.974913 
L 1303.370466 390.737826 
L 1304.295746 400.3467 
L 1305.221025 409.802743 
L 1306.146304 419.107106 
L 1307.071583 428.260879 
L 1307.996862 437.265092 
L 1308.922142 446.120708 
L 1309.847421 454.828611 
L 1310.7727 463.38959 
L 1311.697979 471.804304 
L 1312.623259 480.073229 
L 1313.548538 488.196568 
L 1314.473817 496.174107 
L 1315.399096 504.004983 
L 1316.324375 511.687321 
L 1317.249655 519.217678 
L 1318.174934 526.590213 
L 1319.100213 531.281938 
L 1320.025492 533.981016 
L 1320.950772 536.639021 
L 1321.876051 539.256824 
L 1322.80133 541.835276 
L 1323.726609 544.375212 
L 1324.651888 546.877446 
L 1325.577168 549.342778 
L 1326.502447 551.771986 
L 1327.427726 554.165834 
L 1328.353005 556.525067 
L 1329.278284 558.850413 
L 1330.203564 561.142583 
L 1331.128843 563.402273 
L 1332.054122 565.63016 
L 1332.979401 567.826908 
L 1333.904681 569.993163 
L 1334.82996 572.129558 
L 1335.755239 574.236708 
L 1336.680518 576.315216 
L 1337.605797 578.365669 
L 1338.531077 580.388641 
L 1339.456356 582.38469 
L 1340.381635 584.354364 
L 1341.306914 586.298193 
L 1342.232194 588.216699 
L 1343.157473 590.110389 
L 1344.082752 591.979756 
L 1345.008031 593.825285 
L 1345.93331 595.647446 
L 1346.85859 597.446699 
L 1347.783869 599.223492 
L 1348.709148 600.978263 
L 1349.634427 602.711439 
L 1350.559707 604.423436 
L 1351.484986 606.114661 
L 1352.410265 607.78551 
L 1353.335544 609.436371 
L 1354.260823 611.067621 
L 1355.186103 612.679628 
L 1356.111382 614.272753 
L 1357.036661 615.847346 
L 1357.96194 617.403751 
L 1358.88722 618.9423 
L 1359.812499 620.463322 
L 1360.737778 621.967135 
L 1361.663057 623.454049 
L 1362.588336 624.924369 
L 1363.513616 626.378392 
L 1364.438895 627.816406 
L 1365.364174 629.238695 
L 1366.289453 630.645535 
L 1367.214733 632.037196 
L 1368.140012 633.413942 
L 1369.065291 634.776029 
L 1369.99057 636.123711 
L 1370.915849 637.457231 
" clip-path="url(#pe9575fd1fd)" style="fill: none; stroke: #ff0000; stroke-width: 2; stroke-linecap: square"/>
   </g>
   <g id="line2d_35">
    <path d="M 152.072634 635.720111 
L 286.533674 576.923597 
L 366.535293 537.121926 
L 426.790166 504.808625 
L 475.475868 477.387036 
L 516.230564 453.700606 
L 551.086131 433.079734 
L 581.329687 415.072732 
L 607.844038 399.344239 
L 631.26831 385.629342 
L 652.083927 373.709584 
L 670.665176 363.398697 
L 687.31091 354.533465 
L 702.264877 346.968081 
L 715.728287 340.57145 
L 727.866961 335.226738 
L 738.815525 330.831455 
L 748.681268 327.295753 
L 750.233372 326.781997 
L 751.983923 326.798084 
L 754.149246 326.817972 
L 756.385115 326.838521 
L 758.693797 326.859754 
L 761.077626 326.881692 
L 763.53901 326.904361 
L 766.080434 326.927784 
L 768.704455 326.951986 
L 771.413714 326.976994 
L 774.210928 327.002834 
L 777.098901 327.029536 
L 780.080521 327.057127 
L 783.158767 327.085637 
L 786.336704 327.115098 
L 789.617493 327.145542 
L 793.004391 327.177 
L 796.50075 327.209509 
L 800.110026 327.243103 
L 803.835777 327.277818 
L 807.681667 327.313694 
L 811.651468 327.350768 
L 815.749066 327.389081 
L 819.978457 327.428676 
L 824.343759 327.469596 
L 828.849208 327.511885 
L 833.499162 327.55559 
L 838.298106 327.60076 
L 843.250654 327.647443 
L 848.361551 327.695693 
L 853.635677 327.745561 
L 859.078052 327.797103 
L 864.693832 327.850376 
L 870.488321 327.90544 
L 876.466968 327.962355 
L 882.635372 328.021185 
L 888.999284 328.081996 
L 895.564611 328.144856 
L 902.337418 328.209835 
L 909.323931 328.277005 
L 916.530539 328.346444 
L 923.963799 328.418228 
L 931.630435 328.492439 
L 939.537344 328.569161 
L 947.691594 328.648481 
L 956.10043 328.730489 
L 964.771274 328.815279 
L 973.711729 328.902948 
L 982.929574 328.993595 
L 992.432775 329.087326 
L 1002.229478 329.184249 
L 1012.328012 329.284474 
L 1016.320022 329.32403 
L 1020.553856 328.466728 
L 1027.534417 326.876821 
L 1034.609546 325.036156 
L 1041.783687 322.927436 
L 1049.060781 320.532148 
L 1056.444206 317.830527 
L 1063.936754 314.801545 
L 1071.540656 311.422948 
L 1079.257639 307.671327 
L 1087.089005 303.52223 
L 1095.035734 298.950314 
L 1103.098586 293.929534 
L 1111.278194 288.433366 
L 1119.575162 282.435054 
L 1127.990119 275.907883 
L 1136.523779 268.82546 
L 1145.176954 261.162005 
L 1153.950564 252.892629 
L 1162.845612 243.993602 
L 1171.863148 234.442586 
L 1181.004213 224.218831 
L 1190.269786 213.303334 
L 1199.660707 201.678945 
L 1209.177621 189.330428 
L 1218.820913 176.244481 
L 1228.590657 162.40972 
L 1238.486581 147.816633 
L 1248.508037 132.457512 
L 1258.653983 116.326378 
L 1268.922984 99.4189 
L 1279.313207 81.732308 
" clip-path="url(#pe9575fd1fd)" style="fill: none; stroke: #ff0000; stroke-width: 2; stroke-linecap: square"/>
   </g>
   <g id="line2d_36">
    <path d="M 1370.915849 637.457231 
L 1253.294569 637.457231 
L 1146.992882 637.457231 
L 1050.921416 637.457231 
L 964.095641 637.457231 
L 885.625772 637.457231 
L 814.707657 637.457231 
L 750.614534 637.457231 
L 692.68958 637.457231 
L 640.339187 637.457231 
L 593.026871 637.457231 
L 550.26778 637.457231 
L 511.623723 637.457231 
L 476.698678 637.457231 
L 445.134736 637.457231 
L 416.608434 637.457231 
L 390.827435 637.457231 
L 367.527538 637.457231 
L 346.469968 637.457231 
L 327.438929 637.457231 
L 310.239391 637.457231 
L 294.695096 637.457231 
L 280.646748 637.457231 
L 267.950379 637.457231 
L 256.475878 637.457231 
L 246.105657 637.457231 
L 236.73344 637.457231 
L 228.263184 637.457231 
L 220.608085 637.457231 
L 213.689695 637.457231 
L 207.437114 637.457231 
L 201.786266 637.457231 
L 196.679243 637.457231 
L 192.063707 637.457231 
L 187.89236 637.457231 
L 184.122453 637.457231 
L 180.715354 637.457231 
L 177.636145 637.457231 
L 174.853272 637.457231 
L 172.338216 637.457231 
L 170.065203 637.457231 
L 168.01094 637.457231 
L 166.154374 637.457231 
L 164.476479 637.457231 
L 162.960062 637.457231 
L 161.58958 637.457231 
L 160.35099 637.457231 
L 159.2316 637.457231 
L 158.219937 637.457231 
L 157.305634 637.457231 
L 156.479321 637.457231 
L 155.732531 637.457231 
L 155.057609 637.457231 
L 154.447641 637.457231 
L 153.896375 637.457231 
L 153.398161 637.457231 
L 152.947894 637.457231 
L 152.54096 637.457231 
L 152.173188 637.457231 
L 151.84081 637.457231 
L 151.540419 637.457231 
L 151.268937 637.457231 
L 151.023581 637.457231 
L 150.801838 637.457231 
L 150.601435 637.457231 
L 150.420319 637.457231 
L 150.256632 637.457231 
L 150.108699 637.457231 
L 149.975002 637.457231 
L 149.854172 637.457231 
L 149.74497 637.457231 
L 149.646278 637.457231 
L 149.557083 637.457231 
L 149.476473 637.457231 
L 149.40362 637.457231 
L 149.337778 637.457231 
L 149.278273 637.457231 
L 149.224494 637.457231 
L 149.175891 637.457231 
L 149.131966 637.457231 
L 149.092267 637.457231 
L 149.056389 637.457231 
L 149.023964 637.457231 
L 148.99466 637.457231 
L 148.968176 637.457231 
L 148.94424 637.457231 
L 148.922608 637.457231 
L 148.903058 637.457231 
L 148.885389 637.457231 
L 148.869421 637.457231 
L 148.854989 637.457231 
L 148.841946 637.457231 
L 148.830159 637.457231 
L 148.819506 637.457231 
L 148.809878 637.457231 
L 148.801176 637.457231 
L 148.793312 637.457231 
L 148.786205 637.457231 
L 148.779782 637.457231 
L 148.773977 637.457231 
" clip-path="url(#pe9575fd1fd)" style="fill: none; stroke: #ff0000; stroke-width: 2; stroke-linecap: square"/>
   </g>
   <g id="patch_3">
    <path d="M 58.97 670.84 
L 58.97 32.64 
" style="fill: none; stroke: #ffffff; stroke-width: 0.8; stroke-linejoin: miter; stroke-linecap: square"/>
   </g>
   <g id="patch_4">
    <path d="M 1429.2 670.84 
L 1429.2 32.64 
" style="fill: none; stroke: #ffffff; stroke-width: 0.8; stroke-linejoin: miter; stroke-linecap: square"/>
   </g>
   <g id="patch_5">
    <path d="M 58.97 670.84 
L 1429.2 670.84 
" style="fill: none; stroke: #ffffff; stroke-width: 0.8; stroke-linejoin: miter; stroke-linecap: square"/>
   </g>
   <g id="patch_6">
    <path d="M 58.97 32.64 
L 1429.2 32.64 
" style="fill: none; stroke: #ffffff; stroke-width: 0.8; stroke-linejoin: miter; stroke-linecap: square"/>
   </g>
   <g id="text_18">
    <g id="patch_7">
     <path d="M 383.86712 577.881364 
L 419.53587 577.881364 
L 419.53587 568.203239 
L 383.86712 568.203239 
z
" style="stroke: #000000; stroke-linejoin: miter"/>
    </g>
    <!-- 1.0 bar -->
    <g style="fill: #ffffff" transform="translate(383.86712 575.801677) scale(0.1 -0.1)">
     <defs>
      <path id="DejaVuSans-2e" d="M 684 794 
L 1344 794 
L 1344 0 
L 684 0 
L 684 794 
z
" transform="scale(0.015625)"/>
      <path id="DejaVuSans-62" d="M 3116 1747 
Q 3116 2381 2855 2742 
Q 2594 3103 2138 3103 
Q 1681 3103 1420 2742 
Q 1159 2381 1159 1747 
Q 1159 1113 1420 752 
Q 1681 391 2138 391 
Q 2594 391 2855 752 
Q 3116 1113 3116 1747 
z
M 1159 2969 
Q 1341 3281 1617 3432 
Q 1894 3584 2278 3584 
Q 2916 3584 3314 3078 
Q 3713 2572 3713 1747 
Q 3713 922 3314 415 
Q 2916 -91 2278 -91 
Q 1894 -91 1617 61 
Q 1341 213 1159 525 
L 1159 0 
L 581 0 
L 581 4863 
L 1159 4863 
L 1159 2969 
z
" transform="scale(0.015625)"/>
     </defs>
     <use xlink:href="#DejaVuSans-31"/>
     <use xlink:href="#DejaVuSans-2e" x="63.623047"/>
     <use xlink:href="#DejaVuSans-30" x="95.410156"/>
     <use xlink:href="#DejaVuSans-20" x="159.033203"/>
     <use xlink:href="#DejaVuSans-62" x="190.820312"/>
     <use xlink:href="#DejaVuSans-61" x="254.296875"/>
     <use xlink:href="#DejaVuSans-72" x="315.576172"/>
    </g>
   </g>
   <g id="text_19">
    <g id="patch_8">
     <path d="M 451.191088 557.651247 
L 486.859838 557.651247 
L 486.859838 547.973122 
L 451.191088 547.973122 
z
" style="stroke: #000000; stroke-linejoin: miter"/>
    </g>
    <!-- 2.0 bar -->
    <g style="fill: #ffffff" transform="translate(451.191088 555.571559) scale(0.1 -0.1)">
     <use xlink:href="#DejaVuSans-32"/>
     <use xlink:href="#DejaVuSans-2e" x="63.623047"/>
     <use xlink:href="#DejaVuSans-30" x="95.410156"/>
     <use xlink:href="#DejaVuSans-20" x="159.033203"/>
     <use xlink:href="#DejaVuSans-62" x="190.820312"/>
     <use xlink:href="#DejaVuSans-61" x="254.296875"/>
     <use xlink:href="#DejaVuSans-72" x="315.576172"/>
    </g>
   </g>
   <g id="text_20">
    <g id="patch_9">
     <path d="M 533.294971 526.604301 
L 568.963721 526.604301 
L 568.963721 516.926176 
L 533.294971 516.926176 
z
" style="stroke: #000000; stroke-linejoin: miter"/>
    </g>
    <!-- 5.0 bar -->
    <g style="fill: #ffffff" transform="translate(533.294971 524.524614) rotate(-0) scale(0.1 -0.1)">
     <use xlink:href="#DejaVuSans-35"/>
     <use xlink:href="#DejaVuSans-2e" x="63.623047"/>
     <use xlink:href="#DejaVuSans-30" x="95.410156"/>
     <use xlink:href="#DejaVuSans-20" x="159.033203"/>
     <use xlink:href="#DejaVuSans-62" x="190.820312"/>
     <use xlink:href="#DejaVuSans-61" x="254.296875"/>
     <use xlink:href="#DejaVuSans-72" x="315.576172"/>
    </g>
   </g>
   <g id="text_21">
    <g id="patch_10">
     <path d="M 574.419104 499.066532 
L 616.450354 499.066532 
L 616.450354 489.388407 
L 574.419104 489.388407 
z
" style="stroke: #000000; stroke-linejoin: miter"/>
    </g>
    <!-- 10.0 bar -->
    <g style="fill: #ffffff" transform="translate(574.419104 496.986845) rotate(-360) scale(0.1 -0.1)">
     <use xlink:href="#DejaVuSans-31"/>
     <use xlink:href="#DejaVuSans-30" x="63.623047"/>
     <use xlink:href="#DejaVuSans-2e" x="127.246094"/>
     <use xlink:href="#DejaVuSans-30" x="159.033203"/>
     <use xlink:href="#DejaVuSans-20" x="222.65625"/>
     <use xlink:href="#DejaVuSans-62" x="254.443359"/>
     <use xlink:href="#DejaVuSans-61" x="317.919922"/>
     <use xlink:href="#DejaVuSans-72" x="379.199219"/>
    </g>
   </g>
   <g id="text_22">
    <g id="patch_11">
     <path d="M 659.348811 467.157301 
L 701.380061 467.157301 
L 701.380061 457.479176 
L 659.348811 457.479176 
z
" style="stroke: #000000; stroke-linejoin: miter"/>
    </g>
    <!-- 20.0 bar -->
    <g style="fill: #ffffff" transform="translate(659.348811 465.077613) scale(0.1 -0.1)">
     <use xlink:href="#DejaVuSans-32"/>
     <use xlink:href="#DejaVuSans-30" x="63.623047"/>
     <use xlink:href="#DejaVuSans-2e" x="127.246094"/>
     <use xlink:href="#DejaVuSans-30" x="159.033203"/>
     <use xlink:href="#DejaVuSans-20" x="222.65625"/>
     <use xlink:href="#DejaVuSans-62" x="254.443359"/>
     <use xlink:href="#DejaVuSans-61" x="317.919922"/>
     <use xlink:href="#DejaVuSans-72" x="379.199219"/>
    </g>
   </g>
   <g id="text_23">
    <g id="patch_12">
     <path d="M 773.039265 416.52988 
L 815.070515 416.52988 
L 815.070515 406.851755 
L 773.039265 406.851755 
z
" style="stroke: #000000; stroke-linejoin: miter"/>
    </g>
    <!-- 50.0 bar -->
    <g style="fill: #ffffff" transform="translate(773.039265 414.450192) scale(0.1 -0.1)">
     <use xlink:href="#DejaVuSans-35"/>
     <use xlink:href="#DejaVuSans-30" x="63.623047"/>
     <use xlink:href="#DejaVuSans-2e" x="127.246094"/>
     <use xlink:href="#DejaVuSans-30" x="159.033203"/>
     <use xlink:href="#DejaVuSans-20" x="222.65625"/>
     <use xlink:href="#DejaVuSans-62" x="254.443359"/>
     <use xlink:href="#DejaVuSans-61" x="317.919922"/>
     <use xlink:href="#DejaVuSans-72" x="379.199219"/>
    </g>
   </g>
   <g id="text_24">
    <g id="patch_13">
     <path d="M 938.592258 370.32771 
L 986.986008 370.32771 
L 986.986008 360.649585 
L 938.592258 360.649585 
z
" style="stroke: #000000; stroke-linejoin: miter"/>
    </g>
    <!-- 100.0 bar -->
    <g style="fill: #ffffff" transform="translate(938.592258 368.248022) scale(0.1 -0.1)">
     <use xlink:href="#DejaVuSans-31"/>
     <use xlink:href="#DejaVuSans-30" x="63.623047"/>
     <use xlink:href="#DejaVuSans-30" x="127.246094"/>
     <use xlink:href="#DejaVuSans-2e" x="190.869141"/>
     <use xlink:href="#DejaVuSans-30" x="222.65625"/>
     <use xlink:href="#DejaVuSans-20" x="286.279297"/>
     <use xlink:href="#DejaVuSans-62" x="318.066406"/>
     <use xlink:href="#DejaVuSans-61" x="381.542969"/>
     <use xlink:href="#DejaVuSans-72" x="442.822266"/>
    </g>
   </g>
   <g id="text_25">
    <g id="patch_14">
     <path d="M 1102.483641 201.71354 
L 1137.004213 167.797686 
L 1130.22148 160.894017 
L 1095.700908 194.809871 
z
" style="stroke: #000000; stroke-linejoin: miter"/>
    </g>
    <!-- 300.0 bar -->
    <g style="fill: #ffffff" transform="translate(1101.026131 200.230042) rotate(-44.493735) scale(0.1 -0.1)">
     <use xlink:href="#DejaVuSans-33"/>
     <use xlink:href="#DejaVuSans-30" x="63.623047"/>
     <use xlink:href="#DejaVuSans-30" x="127.246094"/>
     <use xlink:href="#DejaVuSans-2e" x="190.869141"/>
     <use xlink:href="#DejaVuSans-30" x="222.65625"/>
     <use xlink:href="#DejaVuSans-20" x="286.279297"/>
     <use xlink:href="#DejaVuSans-62" x="318.066406"/>
     <use xlink:href="#DejaVuSans-61" x="381.542969"/>
     <use xlink:href="#DejaVuSans-72" x="442.822266"/>
    </g>
   </g>
   <g id="text_26">
    <g id="patch_15">
     <path d="M 336.896537 610.67268 
L 355.900119 647.678407 
L 370.755784 640.049566 
L 351.752202 603.043838 
z
" style="stroke: #000000; stroke-linejoin: miter"/>
    </g>
    <!-- 500.0 $\frac{kJ}{kg}$ -->
    <g style="fill: #ffffff" transform="translate(341.878077 608.114505) rotate(-297.181896) scale(0.1 -0.1)">
     <defs>
      <path id="DejaVuSans-Oblique-6b" d="M 1172 4863 
L 1747 4863 
L 1197 2028 
L 3169 3500 
L 3916 3500 
L 1716 1825 
L 3322 0 
L 2625 0 
L 1131 1709 
L 800 0 
L 225 0 
L 1172 4863 
z
" transform="scale(0.015625)"/>
      <path id="DejaVuSans-Oblique-4a" d="M 1069 4666 
L 1703 4666 
L 856 325 
Q 691 -522 298 -901 
Q -94 -1281 -800 -1281 
L -1050 -1281 
L -947 -750 
L -750 -750 
Q -328 -750 -109 -509 
Q 109 -269 225 325 
L 1069 4666 
z
" transform="scale(0.015625)"/>
      <path id="DejaVuSans-Oblique-67" d="M 3816 3500 
L 3219 434 
Q 3047 -456 2561 -893 
Q 2075 -1331 1253 -1331 
Q 950 -1331 690 -1286 
Q 431 -1241 206 -1147 
L 313 -588 
Q 525 -725 762 -790 
Q 1000 -856 1269 -856 
Q 1816 -856 2167 -557 
Q 2519 -259 2631 300 
L 2681 563 
Q 2441 288 2122 144 
Q 1803 0 1434 0 
Q 903 0 598 351 
Q 294 703 294 1319 
Q 294 1803 478 2267 
Q 663 2731 997 3091 
Q 1219 3328 1514 3456 
Q 1809 3584 2131 3584 
Q 2484 3584 2746 3420 
Q 3009 3256 3138 2956 
L 3238 3500 
L 3816 3500 
z
M 2950 2216 
Q 2950 2641 2750 2872 
Q 2550 3103 2181 3103 
Q 1953 3103 1747 3012 
Q 1541 2922 1394 2759 
Q 1156 2491 1023 2127 
Q 891 1763 891 1375 
Q 891 944 1092 712 
Q 1294 481 1672 481 
Q 2219 481 2584 976 
Q 2950 1472 2950 2216 
z
" transform="scale(0.015625)"/>
     </defs>
     <use xlink:href="#DejaVuSans-35" transform="translate(0 0.003125)"/>
     <use xlink:href="#DejaVuSans-30" transform="translate(63.623047 0.003125)"/>
     <use xlink:href="#DejaVuSans-30" transform="translate(127.246094 0.003125)"/>
     <use xlink:href="#DejaVuSans-2e" transform="translate(190.869141 0.003125)"/>
     <use xlink:href="#DejaVuSans-30" transform="translate(222.65625 0.003125)"/>
     <use xlink:href="#DejaVuSans-20" transform="translate(286.279297 0.003125)"/>
     <use xlink:href="#DejaVuSans-Oblique-6b" transform="translate(330.066406 57.810938) scale(0.7)"/>
     <use xlink:href="#DejaVuSans-Oblique-4a" transform="translate(370.603516 57.810938) scale(0.7)"/>
     <use xlink:href="#DejaVuSans-Oblique-6b" transform="translate(318.066406 -40.639062) scale(0.7)"/>
     <use xlink:href="#DejaVuSans-Oblique-67" transform="translate(358.603516 -40.639062) scale(0.7)"/>
     <path d="M 318.066406 18.8 
L 318.066406 25.05 
L 403.037109 25.05 
L 403.037109 18.8 
L 318.066406 18.8 
z
"/>
    </g>
   </g>
   <g id="text_27">
    <g id="patch_16">
     <path d="M 605.250268 609.333695 
L 642.678693 639.385534 
L 653.134228 626.363561 
L 615.705804 596.311722 
z
" style="stroke: #000000; stroke-linejoin: miter"/>
    </g>
    <!-- 1000.0 $\frac{kJ}{kg}$ -->
    <g style="fill: #ffffff" transform="translate(608.756316 604.967045) rotate(-321.238501) scale(0.1 -0.1)">
     <use xlink:href="#DejaVuSans-31" transform="translate(0 0.003125)"/>
     <use xlink:href="#DejaVuSans-30" transform="translate(63.623047 0.003125)"/>
     <use xlink:href="#DejaVuSans-30" transform="translate(127.246094 0.003125)"/>
     <use xlink:href="#DejaVuSans-30" transform="translate(190.869141 0.003125)"/>
     <use xlink:href="#DejaVuSans-2e" transform="translate(254.492188 0.003125)"/>
     <use xlink:href="#DejaVuSans-30" transform="translate(286.279297 0.003125)"/>
     <use xlink:href="#DejaVuSans-20" transform="translate(349.902344 0.003125)"/>
     <use xlink:href="#DejaVuSans-Oblique-6b" transform="translate(393.689453 57.810938) scale(0.7)"/>
     <use xlink:href="#DejaVuSans-Oblique-4a" transform="translate(434.226562 57.810938) scale(0.7)"/>
     <use xlink:href="#DejaVuSans-Oblique-6b" transform="translate(381.689453 -40.639062) scale(0.7)"/>
     <use xlink:href="#DejaVuSans-Oblique-67" transform="translate(422.226562 -40.639062) scale(0.7)"/>
     <path d="M 381.689453 18.8 
L 381.689453 25.05 
L 466.660156 25.05 
L 466.660156 18.8 
L 381.689453 18.8 
z
"/>
    </g>
   </g>
   <g id="text_28">
    <g id="patch_17">
     <path d="M 881.60931 614.051549 
L 924.707258 635.183677 
L 932.059478 620.189183 
L 888.961529 599.057054 
z
" style="stroke: #000000; stroke-linejoin: miter"/>
    </g>
    <!-- 1500.0 $\frac{kJ}{kg}$ -->
    <g style="fill: #ffffff" transform="translate(884.074725 609.023455) rotate(-333.879996) scale(0.1 -0.1)">
     <use xlink:href="#DejaVuSans-31" transform="translate(0 0.003125)"/>
     <use xlink:href="#DejaVuSans-35" transform="translate(63.623047 0.003125)"/>
     <use xlink:href="#DejaVuSans-30" transform="translate(127.246094 0.003125)"/>
     <use xlink:href="#DejaVuSans-30" transform="translate(190.869141 0.003125)"/>
     <use xlink:href="#DejaVuSans-2e" transform="translate(254.492188 0.003125)"/>
     <use xlink:href="#DejaVuSans-30" transform="translate(286.279297 0.003125)"/>
     <use xlink:href="#DejaVuSans-20" transform="translate(349.902344 0.003125)"/>
     <use xlink:href="#DejaVuSans-Oblique-6b" transform="translate(393.689453 57.810938) scale(0.7)"/>
     <use xlink:href="#DejaVuSans-Oblique-4a" transform="translate(434.226562 57.810938) scale(0.7)"/>
     <use xlink:href="#DejaVuSans-Oblique-6b" transform="translate(381.689453 -40.639062) scale(0.7)"/>
     <use xlink:href="#DejaVuSans-Oblique-67" transform="translate(422.226562 -40.639062) scale(0.7)"/>
     <path d="M 381.689453 18.8 
L 381.689453 25.05 
L 466.660156 25.05 
L 466.660156 18.8 
L 381.689453 18.8 
z
"/>
    </g>
   </g>
   <g id="text_29">
    <g id="patch_18">
     <path d="M 1146.097758 612.073269 
L 1191.174044 628.569584 
L 1196.913387 612.886793 
L 1151.8371 596.390478 
z
" style="stroke: #000000; stroke-linejoin: miter"/>
    </g>
    <!-- 2000.0 $\frac{kJ}{kg}$ -->
    <g style="fill: #ffffff" transform="translate(1148.022328 606.814369) rotate(-339.899174) scale(0.1 -0.1)">
     <use xlink:href="#DejaVuSans-32" transform="translate(0 0.003125)"/>
     <use xlink:href="#DejaVuSans-30" transform="translate(63.623047 0.003125)"/>
     <use xlink:href="#DejaVuSans-30" transform="translate(127.246094 0.003125)"/>
     <use xlink:href="#DejaVuSans-30" transform="translate(190.869141 0.003125)"/>
     <use xlink:href="#DejaVuSans-2e" transform="translate(254.492188 0.003125)"/>
     <use xlink:href="#DejaVuSans-30" transform="translate(286.279297 0.003125)"/>
     <use xlink:href="#DejaVuSans-20" transform="translate(349.902344 0.003125)"/>
     <use xlink:href="#DejaVuSans-Oblique-6b" transform="translate(393.689453 57.810938) scale(0.7)"/>
     <use xlink:href="#DejaVuSans-Oblique-4a" transform="translate(434.226562 57.810938) scale(0.7)"/>
     <use xlink:href="#DejaVuSans-Oblique-6b" transform="translate(381.689453 -40.639062) scale(0.7)"/>
     <use xlink:href="#DejaVuSans-Oblique-67" transform="translate(422.226562 -40.639062) scale(0.7)"/>
     <path d="M 381.689453 18.8 
L 381.689453 25.05 
L 466.660156 25.05 
L 466.660156 18.8 
L 381.689453 18.8 
z
"/>
    </g>
   </g>
   <g id="text_30">
    <g id="patch_19">
     <path d="M 1197.18175 530.071049 
L 1239.814022 552.127555 
L 1247.487848 537.295077 
L 1204.855576 515.238572 
z
" style="stroke: #000000; stroke-linejoin: miter"/>
    </g>
    <!-- 2500.0 $\frac{kJ}{kg}$ -->
    <g style="fill: #ffffff" transform="translate(1199.755009 525.097284) rotate(-332.644472) scale(0.1 -0.1)">
     <use xlink:href="#DejaVuSans-32" transform="translate(0 0.003125)"/>
     <use xlink:href="#DejaVuSans-35" transform="translate(63.623047 0.003125)"/>
     <use xlink:href="#DejaVuSans-30" transform="translate(127.246094 0.003125)"/>
     <use xlink:href="#DejaVuSans-30" transform="translate(190.869141 0.003125)"/>
     <use xlink:href="#DejaVuSans-2e" transform="translate(254.492188 0.003125)"/>
     <use xlink:href="#DejaVuSans-30" transform="translate(286.279297 0.003125)"/>
     <use xlink:href="#DejaVuSans-20" transform="translate(349.902344 0.003125)"/>
     <use xlink:href="#DejaVuSans-Oblique-6b" transform="translate(393.689453 57.810938) scale(0.7)"/>
     <use xlink:href="#DejaVuSans-Oblique-4a" transform="translate(434.226562 57.810938) scale(0.7)"/>
     <use xlink:href="#DejaVuSans-Oblique-6b" transform="translate(381.689453 -40.639062) scale(0.7)"/>
     <use xlink:href="#DejaVuSans-Oblique-67" transform="translate(422.226562 -40.639062) scale(0.7)"/>
     <path d="M 381.689453 18.8 
L 381.689453 25.05 
L 466.660156 25.05 
L 466.660156 18.8 
L 381.689453 18.8 
z
"/>
    </g>
   </g>
   <g id="text_31">
    <g id="patch_20">
     <path d="M 1247.454853 379.448832 
L 1291.593928 398.309958 
L 1298.156028 382.953238 
L 1254.016953 364.092112 
z
" style="stroke: #000000; stroke-linejoin: miter"/>
    </g>
    <!-- 3000.0 $\frac{kJ}{kg}$ -->
    <g style="fill: #ffffff" transform="translate(1249.655318 374.299273) rotate(-336.862434) scale(0.1 -0.1)">
     <use xlink:href="#DejaVuSans-33" transform="translate(0 0.003125)"/>
     <use xlink:href="#DejaVuSans-30" transform="translate(63.623047 0.003125)"/>
     <use xlink:href="#DejaVuSans-30" transform="translate(127.246094 0.003125)"/>
     <use xlink:href="#DejaVuSans-30" transform="translate(190.869141 0.003125)"/>
     <use xlink:href="#DejaVuSans-2e" transform="translate(254.492188 0.003125)"/>
     <use xlink:href="#DejaVuSans-30" transform="translate(286.279297 0.003125)"/>
     <use xlink:href="#DejaVuSans-20" transform="translate(349.902344 0.003125)"/>
     <use xlink:href="#DejaVuSans-Oblique-6b" transform="translate(393.689453 57.810938) scale(0.7)"/>
     <use xlink:href="#DejaVuSans-Oblique-4a" transform="translate(434.226562 57.810938) scale(0.7)"/>
     <use xlink:href="#DejaVuSans-Oblique-6b" transform="translate(381.689453 -40.639062) scale(0.7)"/>
     <use xlink:href="#DejaVuSans-Oblique-67" transform="translate(422.226562 -40.639062) scale(0.7)"/>
     <path d="M 381.689453 18.8 
L 381.689453 25.05 
L 466.660156 25.05 
L 466.660156 18.8 
L 381.689453 18.8 
z
"/>
    </g>
   </g>
   <g id="text_32">
    <g id="patch_21">
     <path d="M 1333.374127 156.623293 
L 1379.724608 169.098588 
L 1384.064971 152.972483 
L 1337.71449 140.497188 
z
" style="stroke: #000000; stroke-linejoin: miter"/>
    </g>
    <!-- 3500.0 $\frac{kJ}{kg}$ -->
    <g style="fill: #ffffff" transform="translate(1334.829578 151.215737) rotate(-344.935754) scale(0.1 -0.1)">
     <use xlink:href="#DejaVuSans-33" transform="translate(0 0.003125)"/>
     <use xlink:href="#DejaVuSans-35" transform="translate(63.623047 0.003125)"/>
     <use xlink:href="#DejaVuSans-30" transform="translate(127.246094 0.003125)"/>
     <use xlink:href="#DejaVuSans-30" transform="translate(190.869141 0.003125)"/>
     <use xlink:href="#DejaVuSans-2e" transform="translate(254.492188 0.003125)"/>
     <use xlink:href="#DejaVuSans-30" transform="translate(286.279297 0.003125)"/>
     <use xlink:href="#DejaVuSans-20" transform="translate(349.902344 0.003125)"/>
     <use xlink:href="#DejaVuSans-Oblique-6b" transform="translate(393.689453 57.810938) scale(0.7)"/>
     <use xlink:href="#DejaVuSans-Oblique-4a" transform="translate(434.226562 57.810938) scale(0.7)"/>
     <use xlink:href="#DejaVuSans-Oblique-6b" transform="translate(381.689453 -40.639062) scale(0.7)"/>
     <use xlink:href="#DejaVuSans-Oblique-67" transform="translate(422.226562 -40.639062) scale(0.7)"/>
     <path d="M 381.689453 18.8 
L 381.689453 25.05 
L 466.660156 25.05 
L 466.660156 18.8 
L 381.689453 18.8 
z
"/>
    </g>
   </g>
   <g id="text_33">
    <g id="patch_22">
     <path d="M 389.195349 532.658643 
L 408.991078 521.571593 
L 404.261845 513.127633 
L 384.466116 524.214683 
z
" style="stroke: #000000; stroke-linejoin: miter"/>
    </g>
    <!-- 0.0 - -->
    <g style="fill: #ffffff" transform="translate(388.179106 530.844159) rotate(-29.252004) scale(0.1 -0.1)">
     <defs>
      <path id="DejaVuSans-2d" d="M 313 2009 
L 1997 2009 
L 1997 1497 
L 313 1497 
L 313 2009 
z
" transform="scale(0.015625)"/>
     </defs>
     <use xlink:href="#DejaVuSans-30"/>
     <use xlink:href="#DejaVuSans-2e" x="63.623047"/>
     <use xlink:href="#DejaVuSans-30" x="95.410156"/>
     <use xlink:href="#DejaVuSans-20" x="159.033203"/>
     <use xlink:href="#DejaVuSans-2d" x="190.820312"/>
    </g>
   </g>
   <g id="text_34">
    <g id="patch_23">
     <path d="M 1216.547245 467.625113 
L 1234.56164 481.419138 
L 1240.445546 473.735014 
L 1222.431151 459.940989 
z
" style="stroke: #000000; stroke-linejoin: miter"/>
    </g>
    <!-- 1.0 - -->
    <g style="fill: #ffffff" transform="translate(1217.811611 465.973907) rotate(-322.557911) scale(0.1 -0.1)">
     <use xlink:href="#DejaVuSans-31"/>
     <use xlink:href="#DejaVuSans-2e" x="63.623047"/>
     <use xlink:href="#DejaVuSans-30" x="95.410156"/>
     <use xlink:href="#DejaVuSans-20" x="159.033203"/>
     <use xlink:href="#DejaVuSans-2d" x="190.820312"/>
    </g>
   </g>
   <g id="text_35">
    <!-- T-s Diagram of Rankine Cycle -->
    <g style="fill: #ffffff" transform="translate(597.206875 26.64) scale(0.2 -0.2)">
     <defs>
      <path id="DejaVuSans-44" d="M 1259 4147 
L 1259 519 
L 2022 519 
Q 2988 519 3436 956 
Q 3884 1394 3884 2338 
Q 3884 3275 3436 3711 
Q 2988 4147 2022 4147 
L 1259 4147 
z
M 628 4666 
L 1925 4666 
Q 3281 4666 3915 4102 
Q 4550 3538 4550 2338 
Q 4550 1131 3912 565 
Q 3275 0 1925 0 
L 628 0 
L 628 4666 
z
" transform="scale(0.015625)"/>
      <path id="DejaVuSans-66" d="M 2375 4863 
L 2375 4384 
L 1825 4384 
Q 1516 4384 1395 4259 
Q 1275 4134 1275 3809 
L 1275 3500 
L 2222 3500 
L 2222 3053 
L 1275 3053 
L 1275 0 
L 697 0 
L 697 3053 
L 147 3053 
L 147 3500 
L 697 3500 
L 697 3744 
Q 697 4328 969 4595 
Q 1241 4863 1831 4863 
L 2375 4863 
z
" transform="scale(0.015625)"/>
      <path id="DejaVuSans-52" d="M 2841 2188 
Q 3044 2119 3236 1894 
Q 3428 1669 3622 1275 
L 4263 0 
L 3584 0 
L 2988 1197 
Q 2756 1666 2539 1819 
Q 2322 1972 1947 1972 
L 1259 1972 
L 1259 0 
L 628 0 
L 628 4666 
L 2053 4666 
Q 2853 4666 3247 4331 
Q 3641 3997 3641 3322 
Q 3641 2881 3436 2590 
Q 3231 2300 2841 2188 
z
M 1259 4147 
L 1259 2491 
L 2053 2491 
Q 2509 2491 2742 2702 
Q 2975 2913 2975 3322 
Q 2975 3731 2742 3939 
Q 2509 4147 2053 4147 
L 1259 4147 
z
" transform="scale(0.015625)"/>
      <path id="DejaVuSans-63" d="M 3122 3366 
L 3122 2828 
Q 2878 2963 2633 3030 
Q 2388 3097 2138 3097 
Q 1578 3097 1268 2742 
Q 959 2388 959 1747 
Q 959 1106 1268 751 
Q 1578 397 2138 397 
Q 2388 397 2633 464 
Q 2878 531 3122 666 
L 3122 134 
Q 2881 22 2623 -34 
Q 2366 -91 2075 -91 
Q 1284 -91 818 406 
Q 353 903 353 1747 
Q 353 2603 823 3093 
Q 1294 3584 2113 3584 
Q 2378 3584 2631 3529 
Q 2884 3475 3122 3366 
z
" transform="scale(0.015625)"/>
      <path id="DejaVuSans-6c" d="M 603 4863 
L 1178 4863 
L 1178 0 
L 603 0 
L 603 4863 
z
" transform="scale(0.015625)"/>
     </defs>
     <use xlink:href="#DejaVuSans-54"/>
     <use xlink:href="#DejaVuSans-2d" x="51.958984"/>
     <use xlink:href="#DejaVuSans-73" x="88.042969"/>
     <use xlink:href="#DejaVuSans-20" x="140.142578"/>
     <use xlink:href="#DejaVuSans-44" x="171.929688"/>
     <use xlink:href="#DejaVuSans-69" x="248.931641"/>
     <use xlink:href="#DejaVuSans-61" x="276.714844"/>
     <use xlink:href="#DejaVuSans-67" x="337.994141"/>
     <use xlink:href="#DejaVuSans-72" x="401.470703"/>
     <use xlink:href="#DejaVuSans-61" x="442.583984"/>
     <use xlink:href="#DejaVuSans-6d" x="503.863281"/>
     <use xlink:href="#DejaVuSans-20" x="601.275391"/>
     <use xlink:href="#DejaVuSans-6f" x="633.0625"/>
     <use xlink:href="#DejaVuSans-66" x="694.244141"/>
     <use xlink:href="#DejaVuSans-20" x="729.449219"/>
     <use xlink:href="#DejaVuSans-52" x="761.236328"/>
     <use xlink:href="#DejaVuSans-61" x="828.46875"/>
     <use xlink:href="#DejaVuSans-6e" x="889.748047"/>
     <use xlink:href="#DejaVuSans-6b" x="953.126953"/>
     <use xlink:href="#DejaVuSans-69" x="1011.037109"/>
     <use xlink:href="#DejaVuSans-6e" x="1038.820312"/>
     <use xlink:href="#DejaVuSans-65" x="1102.199219"/>
     <use xlink:href="#DejaVuSans-20" x="1163.722656"/>
     <use xlink:href="#DejaVuSans-43" x="1195.509766"/>
     <use xlink:href="#DejaVuSans-79" x="1265.333984"/>
     <use xlink:href="#DejaVuSans-63" x="1324.513672"/>
     <use xlink:href="#DejaVuSans-6c" x="1379.494141"/>
     <use xlink:href="#DejaVuSans-65" x="1407.277344"/>
    </g>
   </g>
  </g>
 </g>
 <defs>
  <clipPath id="pe9575fd1fd">
   <rect x="58.97" y="32.64" width="1370.23" height="638.2"/>
  </clipPath>
 </defs>
</svg>
