<?xml version="1.0" encoding="utf-8" standalone="no"?>
<!DOCTYPE svg PUBLIC "-//W3C//DTD SVG 1.1//EN"
  "http://www.w3.org/Graphics/SVG/1.1/DTD/svg11.dtd">
<svg xmlns:xlink="http://www.w3.org/1999/xlink" width="1440pt" height="720pt" viewBox="0 0 1440 720" xmlns="http://www.w3.org/2000/svg" version="1.1">
 <metadata>
  <rdf:RDF xmlns:dc="http://purl.org/dc/elements/1.1/" xmlns:cc="http://creativecommons.org/ns#" xmlns:rdf="http://www.w3.org/1999/02/22-rdf-syntax-ns#">
   <cc:Work>
    <dc:type rdf:resource="http://purl.org/dc/dcmitype/StillImage"/>
    <dc:date>2024-05-20T18:24:50.389608</dc:date>
    <dc:format>image/svg+xml</dc:format>
    <dc:creator>
     <cc:Agent>
      <dc:title>Matplotlib v3.8.1, https://matplotlib.org/</dc:title>
     </cc:Agent>
    </dc:creator>
   </cc:Work>
  </rdf:RDF>
 </metadata>
 <defs>
  <style type="text/css">*{stroke-linejoin: round; stroke-linecap: butt}</style>
 </defs>
 <g id="figure_1">
  <g id="patch_1">
   <path d="M 0 720 
L 1440 720 
L 1440 0 
L 0 0 
z
" style="fill: #ffffff"/>
  </g>
  <g id="axes_1">
   <g id="patch_2">
    <path d="M 58.97 670.84 
L 1429.2 670.84 
L 1429.2 32.64 
L 58.97 32.64 
z
" style="fill: #ffffff"/>
   </g>
   <g id="PathCollection_1">
    <defs>
     <path id="me23714c944" d="M 0 3 
C 0.795609 3 1.55874 2.683901 2.12132 2.12132 
C 2.683901 1.55874 3 0.795609 3 0 
C 3 -0.795609 2.683901 -1.55874 2.12132 -2.12132 
C 1.55874 -2.683901 0.795609 -3 0 -3 
C -0.795609 -3 -1.55874 -2.683901 -2.12132 -2.12132 
C -2.683901 -1.55874 -3 -0.795609 -3 0 
C -3 0.795609 -2.683901 1.55874 -2.12132 2.12132 
C -1.55874 2.683901 -0.795609 3 0 3 
z
" style="stroke: #ff0000"/>
    </defs>
    <g clip-path="url(#ped9564d762)">
     <use xlink:href="#me23714c944" x="148.773977" y="637.457231" style="fill: #ff0000; stroke: #ff0000"/>
    </g>
   </g>
   <g id="PathCollection_2">
    <g clip-path="url(#ped9564d762)">
     <use xlink:href="#me23714c944" x="1279.313207" y="81.732308" style="fill: #ff0000; stroke: #ff0000"/>
    </g>
   </g>
   <g id="PathCollection_3">
    <g clip-path="url(#ped9564d762)">
     <use xlink:href="#me23714c944" x="152.072634" y="635.720111" style="fill: #ff0000; stroke: #ff0000"/>
    </g>
   </g>
   <g id="PathCollection_4">
    <g clip-path="url(#ped9564d762)">
     <use xlink:href="#me23714c944" x="1370.915849" y="637.457231" style="fill: #ff0000; stroke: #ff0000"/>
    </g>
   </g>
   <g id="matplotlib.axis_1">
    <g id="xtick_1">
     <g id="line2d_1">
      <defs>
       <path id="m76b4d6f676" d="M 0 0 
L 0 3.5 
" style="stroke: #000000; stroke-width: 0.8"/>
      </defs>
      <g>
       <use xlink:href="#m76b4d6f676" x="58.97" y="670.84" style="stroke: #000000; stroke-width: 0.8"/>
      </g>
     </g>
     <g id="text_1">
      <!-- 0 -->
      <g transform="translate(55.1525 686.958125) scale(0.12 -0.12)">
       <defs>
        <path id="DejaVuSans-30" d="M 2034 4250 
Q 1547 4250 1301 3770 
Q 1056 3291 1056 2328 
Q 1056 1369 1301 889 
Q 1547 409 2034 409 
Q 2525 409 2770 889 
Q 3016 1369 3016 2328 
Q 3016 3291 2770 3770 
Q 2525 4250 2034 4250 
z
M 2034 4750 
Q 2819 4750 3233 4129 
Q 3647 3509 3647 2328 
Q 3647 1150 3233 529 
Q 2819 -91 2034 -91 
Q 1250 -91 836 529 
Q 422 1150 422 2328 
Q 422 3509 836 4129 
Q 1250 4750 2034 4750 
z
" transform="scale(0.015625)"/>
       </defs>
       <use xlink:href="#DejaVuSans-30"/>
      </g>
     </g>
    </g>
    <g id="xtick_2">
     <g id="line2d_2">
      <g>
       <use xlink:href="#m76b4d6f676" x="241.667333" y="670.84" style="stroke: #000000; stroke-width: 0.8"/>
      </g>
     </g>
     <g id="text_2">
      <!-- 1000 -->
      <g transform="translate(226.397333 686.958125) scale(0.12 -0.12)">
       <defs>
        <path id="DejaVuSans-31" d="M 794 531 
L 1825 531 
L 1825 4091 
L 703 3866 
L 703 4441 
L 1819 4666 
L 2450 4666 
L 2450 531 
L 3481 531 
L 3481 0 
L 794 0 
L 794 531 
z
" transform="scale(0.015625)"/>
       </defs>
       <use xlink:href="#DejaVuSans-31"/>
       <use xlink:href="#DejaVuSans-30" x="63.623047"/>
       <use xlink:href="#DejaVuSans-30" x="127.246094"/>
       <use xlink:href="#DejaVuSans-30" x="190.869141"/>
      </g>
     </g>
    </g>
    <g id="xtick_3">
     <g id="line2d_3">
      <g>
       <use xlink:href="#m76b4d6f676" x="424.364667" y="670.84" style="stroke: #000000; stroke-width: 0.8"/>
      </g>
     </g>
     <g id="text_3">
      <!-- 2000 -->
      <g transform="translate(409.094667 686.958125) scale(0.12 -0.12)">
       <defs>
        <path id="DejaVuSans-32" d="M 1228 531 
L 3431 531 
L 3431 0 
L 469 0 
L 469 531 
Q 828 903 1448 1529 
Q 2069 2156 2228 2338 
Q 2531 2678 2651 2914 
Q 2772 3150 2772 3378 
Q 2772 3750 2511 3984 
Q 2250 4219 1831 4219 
Q 1534 4219 1204 4116 
Q 875 4013 500 3803 
L 500 4441 
Q 881 4594 1212 4672 
Q 1544 4750 1819 4750 
Q 2544 4750 2975 4387 
Q 3406 4025 3406 3419 
Q 3406 3131 3298 2873 
Q 3191 2616 2906 2266 
Q 2828 2175 2409 1742 
Q 1991 1309 1228 531 
z
" transform="scale(0.015625)"/>
       </defs>
       <use xlink:href="#DejaVuSans-32"/>
       <use xlink:href="#DejaVuSans-30" x="63.623047"/>
       <use xlink:href="#DejaVuSans-30" x="127.246094"/>
       <use xlink:href="#DejaVuSans-30" x="190.869141"/>
      </g>
     </g>
    </g>
    <g id="xtick_4">
     <g id="line2d_4">
      <g>
       <use xlink:href="#m76b4d6f676" x="607.062" y="670.84" style="stroke: #000000; stroke-width: 0.8"/>
      </g>
     </g>
     <g id="text_4">
      <!-- 3000 -->
      <g transform="translate(591.792 686.958125) scale(0.12 -0.12)">
       <defs>
        <path id="DejaVuSans-33" d="M 2597 2516 
Q 3050 2419 3304 2112 
Q 3559 1806 3559 1356 
Q 3559 666 3084 287 
Q 2609 -91 1734 -91 
Q 1441 -91 1130 -33 
Q 819 25 488 141 
L 488 750 
Q 750 597 1062 519 
Q 1375 441 1716 441 
Q 2309 441 2620 675 
Q 2931 909 2931 1356 
Q 2931 1769 2642 2001 
Q 2353 2234 1838 2234 
L 1294 2234 
L 1294 2753 
L 1863 2753 
Q 2328 2753 2575 2939 
Q 2822 3125 2822 3475 
Q 2822 3834 2567 4026 
Q 2313 4219 1838 4219 
Q 1578 4219 1281 4162 
Q 984 4106 628 3988 
L 628 4550 
Q 988 4650 1302 4700 
Q 1616 4750 1894 4750 
Q 2613 4750 3031 4423 
Q 3450 4097 3450 3541 
Q 3450 3153 3228 2886 
Q 3006 2619 2597 2516 
z
" transform="scale(0.015625)"/>
       </defs>
       <use xlink:href="#DejaVuSans-33"/>
       <use xlink:href="#DejaVuSans-30" x="63.623047"/>
       <use xlink:href="#DejaVuSans-30" x="127.246094"/>
       <use xlink:href="#DejaVuSans-30" x="190.869141"/>
      </g>
     </g>
    </g>
    <g id="xtick_5">
     <g id="line2d_5">
      <g>
       <use xlink:href="#m76b4d6f676" x="789.759333" y="670.84" style="stroke: #000000; stroke-width: 0.8"/>
      </g>
     </g>
     <g id="text_5">
      <!-- 4000 -->
      <g transform="translate(774.489333 686.958125) scale(0.12 -0.12)">
       <defs>
        <path id="DejaVuSans-34" d="M 2419 4116 
L 825 1625 
L 2419 1625 
L 2419 4116 
z
M 2253 4666 
L 3047 4666 
L 3047 1625 
L 3713 1625 
L 3713 1100 
L 3047 1100 
L 3047 0 
L 2419 0 
L 2419 1100 
L 313 1100 
L 313 1709 
L 2253 4666 
z
" transform="scale(0.015625)"/>
       </defs>
       <use xlink:href="#DejaVuSans-34"/>
       <use xlink:href="#DejaVuSans-30" x="63.623047"/>
       <use xlink:href="#DejaVuSans-30" x="127.246094"/>
       <use xlink:href="#DejaVuSans-30" x="190.869141"/>
      </g>
     </g>
    </g>
    <g id="xtick_6">
     <g id="line2d_6">
      <g>
       <use xlink:href="#m76b4d6f676" x="972.456667" y="670.84" style="stroke: #000000; stroke-width: 0.8"/>
      </g>
     </g>
     <g id="text_6">
      <!-- 5000 -->
      <g transform="translate(957.186667 686.958125) scale(0.12 -0.12)">
       <defs>
        <path id="DejaVuSans-35" d="M 691 4666 
L 3169 4666 
L 3169 4134 
L 1269 4134 
L 1269 2991 
Q 1406 3038 1543 3061 
Q 1681 3084 1819 3084 
Q 2600 3084 3056 2656 
Q 3513 2228 3513 1497 
Q 3513 744 3044 326 
Q 2575 -91 1722 -91 
Q 1428 -91 1123 -41 
Q 819 9 494 109 
L 494 744 
Q 775 591 1075 516 
Q 1375 441 1709 441 
Q 2250 441 2565 725 
Q 2881 1009 2881 1497 
Q 2881 1984 2565 2268 
Q 2250 2553 1709 2553 
Q 1456 2553 1204 2497 
Q 953 2441 691 2322 
L 691 4666 
z
" transform="scale(0.015625)"/>
       </defs>
       <use xlink:href="#DejaVuSans-35"/>
       <use xlink:href="#DejaVuSans-30" x="63.623047"/>
       <use xlink:href="#DejaVuSans-30" x="127.246094"/>
       <use xlink:href="#DejaVuSans-30" x="190.869141"/>
      </g>
     </g>
    </g>
    <g id="xtick_7">
     <g id="line2d_7">
      <g>
       <use xlink:href="#m76b4d6f676" x="1155.154" y="670.84" style="stroke: #000000; stroke-width: 0.8"/>
      </g>
     </g>
     <g id="text_7">
      <!-- 6000 -->
      <g transform="translate(1139.884 686.958125) scale(0.12 -0.12)">
       <defs>
        <path id="DejaVuSans-36" d="M 2113 2584 
Q 1688 2584 1439 2293 
Q 1191 2003 1191 1497 
Q 1191 994 1439 701 
Q 1688 409 2113 409 
Q 2538 409 2786 701 
Q 3034 994 3034 1497 
Q 3034 2003 2786 2293 
Q 2538 2584 2113 2584 
z
M 3366 4563 
L 3366 3988 
Q 3128 4100 2886 4159 
Q 2644 4219 2406 4219 
Q 1781 4219 1451 3797 
Q 1122 3375 1075 2522 
Q 1259 2794 1537 2939 
Q 1816 3084 2150 3084 
Q 2853 3084 3261 2657 
Q 3669 2231 3669 1497 
Q 3669 778 3244 343 
Q 2819 -91 2113 -91 
Q 1303 -91 875 529 
Q 447 1150 447 2328 
Q 447 3434 972 4092 
Q 1497 4750 2381 4750 
Q 2619 4750 2861 4703 
Q 3103 4656 3366 4563 
z
" transform="scale(0.015625)"/>
       </defs>
       <use xlink:href="#DejaVuSans-36"/>
       <use xlink:href="#DejaVuSans-30" x="63.623047"/>
       <use xlink:href="#DejaVuSans-30" x="127.246094"/>
       <use xlink:href="#DejaVuSans-30" x="190.869141"/>
      </g>
     </g>
    </g>
    <g id="xtick_8">
     <g id="line2d_8">
      <g>
       <use xlink:href="#m76b4d6f676" x="1337.851333" y="670.84" style="stroke: #000000; stroke-width: 0.8"/>
      </g>
     </g>
     <g id="text_8">
      <!-- 7000 -->
      <g transform="translate(1322.581333 686.958125) scale(0.12 -0.12)">
       <defs>
        <path id="DejaVuSans-37" d="M 525 4666 
L 3525 4666 
L 3525 4397 
L 1831 0 
L 1172 0 
L 2766 4134 
L 525 4134 
L 525 4666 
z
" transform="scale(0.015625)"/>
       </defs>
       <use xlink:href="#DejaVuSans-37"/>
       <use xlink:href="#DejaVuSans-30" x="63.623047"/>
       <use xlink:href="#DejaVuSans-30" x="127.246094"/>
       <use xlink:href="#DejaVuSans-30" x="190.869141"/>
      </g>
     </g>
    </g>
    <g id="text_9">
     <!-- Entropy, s [J/kg.K] -->
     <g transform="translate(672.41375 705.61125) scale(0.16 -0.16)">
      <defs>
       <path id="DejaVuSans-45" d="M 628 4666 
L 3578 4666 
L 3578 4134 
L 1259 4134 
L 1259 2753 
L 3481 2753 
L 3481 2222 
L 1259 2222 
L 1259 531 
L 3634 531 
L 3634 0 
L 628 0 
L 628 4666 
z
" transform="scale(0.015625)"/>
       <path id="DejaVuSans-6e" d="M 3513 2113 
L 3513 0 
L 2938 0 
L 2938 2094 
Q 2938 2591 2744 2837 
Q 2550 3084 2163 3084 
Q 1697 3084 1428 2787 
Q 1159 2491 1159 1978 
L 1159 0 
L 581 0 
L 581 3500 
L 1159 3500 
L 1159 2956 
Q 1366 3272 1645 3428 
Q 1925 3584 2291 3584 
Q 2894 3584 3203 3211 
Q 3513 2838 3513 2113 
z
" transform="scale(0.015625)"/>
       <path id="DejaVuSans-74" d="M 1172 4494 
L 1172 3500 
L 2356 3500 
L 2356 3053 
L 1172 3053 
L 1172 1153 
Q 1172 725 1289 603 
Q 1406 481 1766 481 
L 2356 481 
L 2356 0 
L 1766 0 
Q 1100 0 847 248 
Q 594 497 594 1153 
L 594 3053 
L 172 3053 
L 172 3500 
L 594 3500 
L 594 4494 
L 1172 4494 
z
" transform="scale(0.015625)"/>
       <path id="DejaVuSans-72" d="M 2631 2963 
Q 2534 3019 2420 3045 
Q 2306 3072 2169 3072 
Q 1681 3072 1420 2755 
Q 1159 2438 1159 1844 
L 1159 0 
L 581 0 
L 581 3500 
L 1159 3500 
L 1159 2956 
Q 1341 3275 1631 3429 
Q 1922 3584 2338 3584 
Q 2397 3584 2469 3576 
Q 2541 3569 2628 3553 
L 2631 2963 
z
" transform="scale(0.015625)"/>
       <path id="DejaVuSans-6f" d="M 1959 3097 
Q 1497 3097 1228 2736 
Q 959 2375 959 1747 
Q 959 1119 1226 758 
Q 1494 397 1959 397 
Q 2419 397 2687 759 
Q 2956 1122 2956 1747 
Q 2956 2369 2687 2733 
Q 2419 3097 1959 3097 
z
M 1959 3584 
Q 2709 3584 3137 3096 
Q 3566 2609 3566 1747 
Q 3566 888 3137 398 
Q 2709 -91 1959 -91 
Q 1206 -91 779 398 
Q 353 888 353 1747 
Q 353 2609 779 3096 
Q 1206 3584 1959 3584 
z
" transform="scale(0.015625)"/>
       <path id="DejaVuSans-70" d="M 1159 525 
L 1159 -1331 
L 581 -1331 
L 581 3500 
L 1159 3500 
L 1159 2969 
Q 1341 3281 1617 3432 
Q 1894 3584 2278 3584 
Q 2916 3584 3314 3078 
Q 3713 2572 3713 1747 
Q 3713 922 3314 415 
Q 2916 -91 2278 -91 
Q 1894 -91 1617 61 
Q 1341 213 1159 525 
z
M 3116 1747 
Q 3116 2381 2855 2742 
Q 2594 3103 2138 3103 
Q 1681 3103 1420 2742 
Q 1159 2381 1159 1747 
Q 1159 1113 1420 752 
Q 1681 391 2138 391 
Q 2594 391 2855 752 
Q 3116 1113 3116 1747 
z
" transform="scale(0.015625)"/>
       <path id="DejaVuSans-79" d="M 2059 -325 
Q 1816 -950 1584 -1140 
Q 1353 -1331 966 -1331 
L 506 -1331 
L 506 -850 
L 844 -850 
Q 1081 -850 1212 -737 
Q 1344 -625 1503 -206 
L 1606 56 
L 191 3500 
L 800 3500 
L 1894 763 
L 2988 3500 
L 3597 3500 
L 2059 -325 
z
" transform="scale(0.015625)"/>
       <path id="DejaVuSans-2c" d="M 750 794 
L 1409 794 
L 1409 256 
L 897 -744 
L 494 -744 
L 750 256 
L 750 794 
z
" transform="scale(0.015625)"/>
       <path id="DejaVuSans-20" transform="scale(0.015625)"/>
       <path id="DejaVuSans-73" d="M 2834 3397 
L 2834 2853 
Q 2591 2978 2328 3040 
Q 2066 3103 1784 3103 
Q 1356 3103 1142 2972 
Q 928 2841 928 2578 
Q 928 2378 1081 2264 
Q 1234 2150 1697 2047 
L 1894 2003 
Q 2506 1872 2764 1633 
Q 3022 1394 3022 966 
Q 3022 478 2636 193 
Q 2250 -91 1575 -91 
Q 1294 -91 989 -36 
Q 684 19 347 128 
L 347 722 
Q 666 556 975 473 
Q 1284 391 1588 391 
Q 1994 391 2212 530 
Q 2431 669 2431 922 
Q 2431 1156 2273 1281 
Q 2116 1406 1581 1522 
L 1381 1569 
Q 847 1681 609 1914 
Q 372 2147 372 2553 
Q 372 3047 722 3315 
Q 1072 3584 1716 3584 
Q 2034 3584 2315 3537 
Q 2597 3491 2834 3397 
z
" transform="scale(0.015625)"/>
       <path id="DejaVuSans-5b" d="M 550 4863 
L 1875 4863 
L 1875 4416 
L 1125 4416 
L 1125 -397 
L 1875 -397 
L 1875 -844 
L 550 -844 
L 550 4863 
z
" transform="scale(0.015625)"/>
       <path id="DejaVuSans-4a" d="M 628 4666 
L 1259 4666 
L 1259 325 
Q 1259 -519 939 -900 
Q 619 -1281 -91 -1281 
L -331 -1281 
L -331 -750 
L -134 -750 
Q 284 -750 456 -515 
Q 628 -281 628 325 
L 628 4666 
z
" transform="scale(0.015625)"/>
       <path id="DejaVuSans-2f" d="M 1625 4666 
L 2156 4666 
L 531 -594 
L 0 -594 
L 1625 4666 
z
" transform="scale(0.015625)"/>
       <path id="DejaVuSans-6b" d="M 581 4863 
L 1159 4863 
L 1159 1991 
L 2875 3500 
L 3609 3500 
L 1753 1863 
L 3688 0 
L 2938 0 
L 1159 1709 
L 1159 0 
L 581 0 
L 581 4863 
z
" transform="scale(0.015625)"/>
       <path id="DejaVuSans-67" d="M 2906 1791 
Q 2906 2416 2648 2759 
Q 2391 3103 1925 3103 
Q 1463 3103 1205 2759 
Q 947 2416 947 1791 
Q 947 1169 1205 825 
Q 1463 481 1925 481 
Q 2391 481 2648 825 
Q 2906 1169 2906 1791 
z
M 3481 434 
Q 3481 -459 3084 -895 
Q 2688 -1331 1869 -1331 
Q 1566 -1331 1297 -1286 
Q 1028 -1241 775 -1147 
L 775 -588 
Q 1028 -725 1275 -790 
Q 1522 -856 1778 -856 
Q 2344 -856 2625 -561 
Q 2906 -266 2906 331 
L 2906 616 
Q 2728 306 2450 153 
Q 2172 0 1784 0 
Q 1141 0 747 490 
Q 353 981 353 1791 
Q 353 2603 747 3093 
Q 1141 3584 1784 3584 
Q 2172 3584 2450 3431 
Q 2728 3278 2906 2969 
L 2906 3500 
L 3481 3500 
L 3481 434 
z
" transform="scale(0.015625)"/>
       <path id="DejaVuSans-2e" d="M 684 794 
L 1344 794 
L 1344 0 
L 684 0 
L 684 794 
z
" transform="scale(0.015625)"/>
       <path id="DejaVuSans-4b" d="M 628 4666 
L 1259 4666 
L 1259 2694 
L 3353 4666 
L 4166 4666 
L 1850 2491 
L 4331 0 
L 3500 0 
L 1259 2247 
L 1259 0 
L 628 0 
L 628 4666 
z
" transform="scale(0.015625)"/>
       <path id="DejaVuSans-5d" d="M 1947 4863 
L 1947 -844 
L 622 -844 
L 622 -397 
L 1369 -397 
L 1369 4416 
L 622 4416 
L 622 4863 
L 1947 4863 
z
" transform="scale(0.015625)"/>
      </defs>
      <use xlink:href="#DejaVuSans-45"/>
      <use xlink:href="#DejaVuSans-6e" x="63.183594"/>
      <use xlink:href="#DejaVuSans-74" x="126.5625"/>
      <use xlink:href="#DejaVuSans-72" x="165.771484"/>
      <use xlink:href="#DejaVuSans-6f" x="204.634766"/>
      <use xlink:href="#DejaVuSans-70" x="265.816406"/>
      <use xlink:href="#DejaVuSans-79" x="329.292969"/>
      <use xlink:href="#DejaVuSans-2c" x="388.472656"/>
      <use xlink:href="#DejaVuSans-20" x="420.259766"/>
      <use xlink:href="#DejaVuSans-73" x="452.046875"/>
      <use xlink:href="#DejaVuSans-20" x="504.146484"/>
      <use xlink:href="#DejaVuSans-5b" x="535.933594"/>
      <use xlink:href="#DejaVuSans-4a" x="574.947266"/>
      <use xlink:href="#DejaVuSans-2f" x="604.439453"/>
      <use xlink:href="#DejaVuSans-6b" x="638.130859"/>
      <use xlink:href="#DejaVuSans-67" x="696.041016"/>
      <use xlink:href="#DejaVuSans-2e" x="759.517578"/>
      <use xlink:href="#DejaVuSans-4b" x="791.304688"/>
      <use xlink:href="#DejaVuSans-5d" x="856.880859"/>
     </g>
    </g>
   </g>
   <g id="matplotlib.axis_2">
    <g id="ytick_1">
     <g id="line2d_9">
      <defs>
       <path id="m771cc1f904" d="M 0 0 
L -3.5 0 
" style="stroke: #000000; stroke-width: 0.8"/>
      </defs>
      <g>
       <use xlink:href="#m771cc1f904" x="58.97" y="670.84" style="stroke: #000000; stroke-width: 0.8"/>
      </g>
     </g>
     <g id="text_10">
      <!-- 0 -->
      <g transform="translate(44.335 675.399063) scale(0.12 -0.12)">
       <use xlink:href="#DejaVuSans-30"/>
      </g>
     </g>
    </g>
    <g id="ytick_2">
     <g id="line2d_10">
      <g>
       <use xlink:href="#m771cc1f904" x="58.97" y="572.655385" style="stroke: #000000; stroke-width: 0.8"/>
      </g>
     </g>
     <g id="text_11">
      <!-- 100 -->
      <g transform="translate(29.065 577.214447) scale(0.12 -0.12)">
       <use xlink:href="#DejaVuSans-31"/>
       <use xlink:href="#DejaVuSans-30" x="63.623047"/>
       <use xlink:href="#DejaVuSans-30" x="127.246094"/>
      </g>
     </g>
    </g>
    <g id="ytick_3">
     <g id="line2d_11">
      <g>
       <use xlink:href="#m771cc1f904" x="58.97" y="474.470769" style="stroke: #000000; stroke-width: 0.8"/>
      </g>
     </g>
     <g id="text_12">
      <!-- 200 -->
      <g transform="translate(29.065 479.029832) scale(0.12 -0.12)">
       <use xlink:href="#DejaVuSans-32"/>
       <use xlink:href="#DejaVuSans-30" x="63.623047"/>
       <use xlink:href="#DejaVuSans-30" x="127.246094"/>
      </g>
     </g>
    </g>
    <g id="ytick_4">
     <g id="line2d_12">
      <g>
       <use xlink:href="#m771cc1f904" x="58.97" y="376.286154" style="stroke: #000000; stroke-width: 0.8"/>
      </g>
     </g>
     <g id="text_13">
      <!-- 300 -->
      <g transform="translate(29.065 380.845216) scale(0.12 -0.12)">
       <use xlink:href="#DejaVuSans-33"/>
       <use xlink:href="#DejaVuSans-30" x="63.623047"/>
       <use xlink:href="#DejaVuSans-30" x="127.246094"/>
      </g>
     </g>
    </g>
    <g id="ytick_5">
     <g id="line2d_13">
      <g>
       <use xlink:href="#m771cc1f904" x="58.97" y="278.101538" style="stroke: #000000; stroke-width: 0.8"/>
      </g>
     </g>
     <g id="text_14">
      <!-- 400 -->
      <g transform="translate(29.065 282.660601) scale(0.12 -0.12)">
       <use xlink:href="#DejaVuSans-34"/>
       <use xlink:href="#DejaVuSans-30" x="63.623047"/>
       <use xlink:href="#DejaVuSans-30" x="127.246094"/>
      </g>
     </g>
    </g>
    <g id="ytick_6">
     <g id="line2d_14">
      <g>
       <use xlink:href="#m771cc1f904" x="58.97" y="179.916923" style="stroke: #000000; stroke-width: 0.8"/>
      </g>
     </g>
     <g id="text_15">
      <!-- 500 -->
      <g transform="translate(29.065 184.475986) scale(0.12 -0.12)">
       <use xlink:href="#DejaVuSans-35"/>
       <use xlink:href="#DejaVuSans-30" x="63.623047"/>
       <use xlink:href="#DejaVuSans-30" x="127.246094"/>
      </g>
     </g>
    </g>
    <g id="ytick_7">
     <g id="line2d_15">
      <g>
       <use xlink:href="#m771cc1f904" x="58.97" y="81.732308" style="stroke: #000000; stroke-width: 0.8"/>
      </g>
     </g>
     <g id="text_16">
      <!-- 600 -->
      <g transform="translate(29.065 86.29137) scale(0.12 -0.12)">
       <use xlink:href="#DejaVuSans-36"/>
       <use xlink:href="#DejaVuSans-30" x="63.623047"/>
       <use xlink:href="#DejaVuSans-30" x="127.246094"/>
      </g>
     </g>
    </g>
    <g id="text_17">
     <!-- Temperature, T [oC] -->
     <g transform="translate(21.7375 431.64875) rotate(-90) scale(0.16 -0.16)">
      <defs>
       <path id="DejaVuSans-54" d="M -19 4666 
L 3928 4666 
L 3928 4134 
L 2272 4134 
L 2272 0 
L 1638 0 
L 1638 4134 
L -19 4134 
L -19 4666 
z
" transform="scale(0.015625)"/>
       <path id="DejaVuSans-65" d="M 3597 1894 
L 3597 1613 
L 953 1613 
Q 991 1019 1311 708 
Q 1631 397 2203 397 
Q 2534 397 2845 478 
Q 3156 559 3463 722 
L 3463 178 
Q 3153 47 2828 -22 
Q 2503 -91 2169 -91 
Q 1331 -91 842 396 
Q 353 884 353 1716 
Q 353 2575 817 3079 
Q 1281 3584 2069 3584 
Q 2775 3584 3186 3129 
Q 3597 2675 3597 1894 
z
M 3022 2063 
Q 3016 2534 2758 2815 
Q 2500 3097 2075 3097 
Q 1594 3097 1305 2825 
Q 1016 2553 972 2059 
L 3022 2063 
z
" transform="scale(0.015625)"/>
       <path id="DejaVuSans-6d" d="M 3328 2828 
Q 3544 3216 3844 3400 
Q 4144 3584 4550 3584 
Q 5097 3584 5394 3201 
Q 5691 2819 5691 2113 
L 5691 0 
L 5113 0 
L 5113 2094 
Q 5113 2597 4934 2840 
Q 4756 3084 4391 3084 
Q 3944 3084 3684 2787 
Q 3425 2491 3425 1978 
L 3425 0 
L 2847 0 
L 2847 2094 
Q 2847 2600 2669 2842 
Q 2491 3084 2119 3084 
Q 1678 3084 1418 2786 
Q 1159 2488 1159 1978 
L 1159 0 
L 581 0 
L 581 3500 
L 1159 3500 
L 1159 2956 
Q 1356 3278 1631 3431 
Q 1906 3584 2284 3584 
Q 2666 3584 2933 3390 
Q 3200 3197 3328 2828 
z
" transform="scale(0.015625)"/>
       <path id="DejaVuSans-61" d="M 2194 1759 
Q 1497 1759 1228 1600 
Q 959 1441 959 1056 
Q 959 750 1161 570 
Q 1363 391 1709 391 
Q 2188 391 2477 730 
Q 2766 1069 2766 1631 
L 2766 1759 
L 2194 1759 
z
M 3341 1997 
L 3341 0 
L 2766 0 
L 2766 531 
Q 2569 213 2275 61 
Q 1981 -91 1556 -91 
Q 1019 -91 701 211 
Q 384 513 384 1019 
Q 384 1609 779 1909 
Q 1175 2209 1959 2209 
L 2766 2209 
L 2766 2266 
Q 2766 2663 2505 2880 
Q 2244 3097 1772 3097 
Q 1472 3097 1187 3025 
Q 903 2953 641 2809 
L 641 3341 
Q 956 3463 1253 3523 
Q 1550 3584 1831 3584 
Q 2591 3584 2966 3190 
Q 3341 2797 3341 1997 
z
" transform="scale(0.015625)"/>
       <path id="DejaVuSans-75" d="M 544 1381 
L 544 3500 
L 1119 3500 
L 1119 1403 
Q 1119 906 1312 657 
Q 1506 409 1894 409 
Q 2359 409 2629 706 
Q 2900 1003 2900 1516 
L 2900 3500 
L 3475 3500 
L 3475 0 
L 2900 0 
L 2900 538 
Q 2691 219 2414 64 
Q 2138 -91 1772 -91 
Q 1169 -91 856 284 
Q 544 659 544 1381 
z
M 1991 3584 
L 1991 3584 
z
" transform="scale(0.015625)"/>
       <path id="DejaVuSans-43" d="M 4122 4306 
L 4122 3641 
Q 3803 3938 3442 4084 
Q 3081 4231 2675 4231 
Q 1875 4231 1450 3742 
Q 1025 3253 1025 2328 
Q 1025 1406 1450 917 
Q 1875 428 2675 428 
Q 3081 428 3442 575 
Q 3803 722 4122 1019 
L 4122 359 
Q 3791 134 3420 21 
Q 3050 -91 2638 -91 
Q 1578 -91 968 557 
Q 359 1206 359 2328 
Q 359 3453 968 4101 
Q 1578 4750 2638 4750 
Q 3056 4750 3426 4639 
Q 3797 4528 4122 4306 
z
" transform="scale(0.015625)"/>
      </defs>
      <use xlink:href="#DejaVuSans-54"/>
      <use xlink:href="#DejaVuSans-65" x="44.083984"/>
      <use xlink:href="#DejaVuSans-6d" x="105.607422"/>
      <use xlink:href="#DejaVuSans-70" x="203.019531"/>
      <use xlink:href="#DejaVuSans-65" x="266.496094"/>
      <use xlink:href="#DejaVuSans-72" x="328.019531"/>
      <use xlink:href="#DejaVuSans-61" x="369.132812"/>
      <use xlink:href="#DejaVuSans-74" x="430.412109"/>
      <use xlink:href="#DejaVuSans-75" x="469.621094"/>
      <use xlink:href="#DejaVuSans-72" x="533"/>
      <use xlink:href="#DejaVuSans-65" x="571.863281"/>
      <use xlink:href="#DejaVuSans-2c" x="633.386719"/>
      <use xlink:href="#DejaVuSans-20" x="665.173828"/>
      <use xlink:href="#DejaVuSans-54" x="696.960938"/>
      <use xlink:href="#DejaVuSans-20" x="758.044922"/>
      <use xlink:href="#DejaVuSans-5b" x="789.832031"/>
      <use xlink:href="#DejaVuSans-6f" x="828.845703"/>
      <use xlink:href="#DejaVuSans-43" x="890.027344"/>
      <use xlink:href="#DejaVuSans-5d" x="959.851562"/>
     </g>
    </g>
   </g>
   <g id="line2d_16">
    <path d="M 224.586342 605.660026 
L 312.739042 564.945495 
L 375.554514 533.288272 
L 425.47733 506.63512 
L 467.053702 483.542029 
L 502.601555 463.27085 
L 533.510802 445.366564 
L 560.701048 429.513258 
L 584.82185 415.473423 
L 606.353526 403.05855 
L 625.663375 392.113212 
L 637.425274 385.578861 
L 637.679927 385.578861 
L 638.455229 385.578861 
L 639.252377 385.578861 
L 640.071987 385.578861 
L 640.914692 385.578861 
L 641.781143 385.578861 
L 642.672009 385.578861 
L 643.587977 385.578861 
L 644.529756 385.578861 
L 645.498072 385.578861 
L 646.493673 385.578861 
L 647.517328 385.578861 
L 648.569827 385.578861 
L 649.651984 385.578861 
L 650.764634 385.578861 
L 651.908636 385.578861 
L 653.084874 385.578861 
L 654.294255 385.578861 
L 655.537715 385.578861 
L 656.816213 385.578861 
L 658.130736 385.578861 
L 659.482299 385.578861 
L 660.871947 385.578861 
L 662.300753 385.578861 
L 663.769819 385.578861 
L 665.280281 385.578861 
L 666.833304 385.578861 
L 668.430088 385.578861 
L 670.071866 385.578861 
L 671.759907 385.578861 
L 673.495512 385.578861 
L 675.280024 385.578861 
L 677.114819 385.578861 
L 679.001316 385.578861 
L 680.94097 385.578861 
L 682.935279 385.578861 
L 684.985784 385.578861 
L 687.094068 385.578861 
L 689.261759 385.578861 
L 691.490531 385.578861 
L 693.782105 385.578861 
L 696.138251 385.578861 
L 698.560789 385.578861 
L 701.051589 385.578861 
L 703.612574 385.578861 
L 706.245723 385.578861 
L 708.953068 385.578861 
L 711.736701 385.578861 
L 714.598771 385.578861 
L 717.541488 385.578861 
L 720.567125 385.578861 
L 723.678018 385.578861 
L 726.87657 385.578861 
L 730.165251 385.578861 
L 733.546599 385.578861 
L 737.023228 385.578861 
L 740.59782 385.578861 
L 744.273137 385.578861 
L 748.052017 385.578861 
L 751.937378 385.578861 
L 755.932221 385.578861 
L 760.03963 385.578861 
L 764.262778 385.578861 
L 768.604925 385.578861 
L 773.069425 385.578861 
L 777.659725 385.578861 
L 782.379371 385.578861 
L 787.232006 385.578861 
L 792.221379 385.578861 
L 797.351343 385.578861 
L 802.625858 385.578861 
L 808.048998 385.578861 
L 813.624951 385.578861 
L 819.358023 385.578861 
L 825.252641 385.578861 
L 831.313358 385.578861 
L 837.544853 385.578861 
L 843.951939 385.578861 
L 850.539563 385.578861 
L 857.312813 385.578861 
L 864.27692 385.578861 
L 871.437261 385.578861 
L 878.799365 385.578861 
L 886.368919 385.578861 
L 894.151767 385.578861 
L 902.153919 385.578861 
L 910.381556 385.578861 
L 918.841031 385.578861 
L 927.538877 385.578861 
L 966.483954 385.578861 
L 1010.208005 385.578861 
L 1059.297458 385.578861 
L 1114.410707 385.578861 
L 1114.830924 385.578861 
L 1148.100327 363.689036 
L 1182.900047 332.601307 
L 1219.287802 291.292059 
L 1257.446236 238.850592 
L 1297.534667 174.607859 
L 1339.662234 97.939441 
L 1383.905225 8.116336 
" clip-path="url(#ped9564d762)" style="fill: none; stroke-dasharray: 3.2,0.8,0.5,0.8; stroke-dashoffset: 0; stroke: #363636; stroke-width: 0.5"/>
   </g>
   <g id="line2d_17">
    <path d="M 236.551351 600.02373 
L 321.01145 560.340075 
L 382.544661 528.88863 
L 431.863535 502.205971 
L 473.14089 478.97182 
L 508.561418 458.490977 
L 539.455324 440.327031 
L 566.711891 424.173074 
L 590.964264 409.796079 
L 612.683814 397.009601 
L 632.233347 385.658817 
L 649.899563 375.611469 
L 665.914071 366.75189 
L 680.467584 358.976894 
L 693.719605 352.19305 
L 705.804865 346.315172 
L 716.837264 341.265877 
L 726.912014 336.975847 
L 732.129042 334.896044 
L 732.832862 334.896044 
L 734.45036 334.896044 
L 736.113436 334.896044 
L 737.823373 334.896044 
L 739.581494 334.896044 
L 741.389155 334.896044 
L 743.247751 334.896044 
L 745.15872 334.896044 
L 747.123535 334.896044 
L 749.143715 334.896044 
L 751.22082 334.896044 
L 753.356453 334.896044 
L 755.552263 334.896044 
L 757.809948 334.896044 
L 760.131249 334.896044 
L 762.517959 334.896044 
L 764.971923 334.896044 
L 767.495034 334.896044 
L 770.089241 334.896044 
L 772.756547 334.896044 
L 775.499013 334.896044 
L 778.318755 334.896044 
L 781.217953 334.896044 
L 784.198844 334.896044 
L 787.26373 334.896044 
L 790.414978 334.896044 
L 793.655022 334.896044 
L 796.986364 334.896044 
L 800.411576 334.896044 
L 803.933304 334.896044 
L 807.554267 334.896044 
L 811.277261 334.896044 
L 815.105162 334.896044 
L 819.040925 334.896044 
L 823.087589 334.896044 
L 827.24828 334.896044 
L 831.526212 334.896044 
L 835.924686 334.896044 
L 840.4471 334.896044 
L 845.096947 334.896044 
L 849.877817 334.896044 
L 854.793402 334.896044 
L 859.847498 334.896044 
L 865.044009 334.896044 
L 870.386946 334.896044 
L 875.880436 334.896044 
L 881.528722 334.896044 
L 887.336164 334.896044 
L 893.307249 334.896044 
L 899.446586 334.896044 
L 905.758918 334.896044 
L 912.249118 334.896044 
L 918.922198 334.896044 
L 925.783312 334.896044 
L 932.837759 334.896044 
L 940.090985 334.896044 
L 947.548592 334.896044 
L 955.21634 334.896044 
L 963.100149 334.896044 
L 971.206107 334.896044 
L 979.540475 334.896044 
L 988.109688 334.896044 
L 996.920364 334.896044 
L 1005.979306 334.896044 
L 1015.293511 334.896044 
L 1024.870172 334.896044 
L 1029.19792 334.896044 
L 1032.719004 333.967403 
L 1039.099146 332.126666 
L 1045.559167 330.051655 
L 1052.103217 327.7284 
L 1058.735013 325.141939 
L 1065.457801 322.276279 
L 1072.274353 319.114394 
L 1079.187002 315.638249 
L 1086.197704 311.828847 
L 1093.308117 307.666312 
L 1100.519687 303.12998 
L 1107.833736 298.198516 
L 1115.251544 292.850053 
L 1122.774422 287.062329 
L 1130.403762 280.812846 
L 1138.141083 274.079024 
L 1171.570379 240.327989 
L 1207.051183 196.240723 
L 1244.745813 140.452622 
L 1284.794127 71.793485 
L 1322.255679 -1 
" clip-path="url(#ped9564d762)" style="fill: none; stroke-dasharray: 3.2,0.8,0.5,0.8; stroke-dashoffset: 0; stroke: #363636; stroke-width: 0.5"/>
   </g>
   <g id="line2d_18">
    <path d="M 72.431573 666.02927 
L 247.599006 594.677062 
L 328.959957 555.82172 
L 389.338939 524.533035 
L 438.10247 497.80437 
L 479.1028 474.421375 
L 514.405619 453.727141 
L 545.28653 435.30229 
L 572.60654 418.84837 
L 596.983122 404.136757 
L 618.878737 390.983255 
L 638.651248 379.234057 
L 656.584907 368.757169 
L 672.910575 359.436726 
L 687.819476 351.169037 
L 701.472712 343.85991 
L 714.007786 337.423055 
L 725.542904 331.779411 
L 736.179836 326.856978 
L 746.006253 322.590455 
L 755.098381 318.919997 
L 763.524302 315.789021 
L 771.347342 313.141907 
L 778.628469 310.922933 
L 785.42685 309.07727 
L 791.798662 307.553649 
L 797.795177 306.307141 
L 803.461599 305.30015 
L 808.837647 304.500595 
L 813.959545 303.878353 
L 818.861615 303.402849 
L 823.576162 303.043841 
L 828.132416 302.774466 
L 832.556329 302.573669 
L 836.871893 302.426155 
L 841.103112 302.320341 
L 845.275363 302.246268 
L 849.415199 302.194879 
L 853.548276 302.158373 
L 857.696665 302.130649 
L 861.877255 302.107407 
L 866.101594 302.085927 
L 870.3765 302.064661 
L 874.705498 302.042504 
L 879.090247 302.018039 
L 883.530803 301.989579 
L 888.026052 301.95511 
L 892.574141 301.91227 
L 897.172895 301.858343 
L 901.820156 301.790276 
L 906.51399 301.704686 
L 911.25284 301.597858 
L 916.035662 301.465736 
L 920.862022 301.303899 
L 925.73213 301.107564 
L 930.646819 300.871591 
L 935.607472 300.590501 
L 940.615927 300.258495 
L 945.674372 299.869472 
L 950.785251 299.417038 
L 955.951178 298.894517 
L 961.174865 298.29494 
L 966.459065 297.611036 
L 971.80653 296.83521 
L 977.219978 295.959513 
L 982.702069 294.975609 
L 988.255391 293.874733 
L 993.882447 292.647655 
L 999.585646 291.28463 
L 1005.367306 289.775358 
L 1011.229647 288.108938 
L 1017.174792 286.273827 
L 1023.204775 284.257798 
L 1029.321541 282.047906 
L 1035.526959 279.630451 
L 1041.822827 276.990951 
L 1048.210884 274.11412 
L 1054.692827 270.983847 
L 1061.270321 267.583194 
L 1067.94502 263.894387 
L 1074.718579 259.898833 
L 1081.592676 255.577138 
L 1088.569029 250.909138 
L 1095.649409 245.873946 
L 1102.835663 240.450011 
L 1110.129719 234.615186 
L 1117.533607 228.346815 
L 1125.049457 221.621821 
L 1132.679509 214.416815 
L 1140.426108 206.708198 
L 1148.291694 198.472276 
L 1156.278796 189.685365 
L 1164.39001 180.323904 
L 1172.627974 170.364544 
L 1180.99535 159.784242 
L 1189.494791 148.560331 
L 1198.128915 136.670578 
L 1206.900276 124.093226 
L 1215.811342 110.807019 
L 1224.864471 96.791211 
L 1234.061892 82.025557 
L 1273.967444 12.026547 
" clip-path="url(#ped9564d762)" style="fill: none; stroke-dasharray: 3.2,0.8,0.5,0.8; stroke-dashoffset: 0; stroke: #363636; stroke-width: 0.5"/>
   </g>
   <g id="line2d_19">
    <path d="M 119.294381 648.346212 
L 257.906867 589.560229 
L 336.617591 551.380223 
L 395.951426 520.217583 
L 444.202621 493.428226 
L 484.945706 469.889307 
L 520.139524 448.978233 
L 551.009562 430.291269 
L 578.390404 413.537923 
L 602.884571 398.493869 
L 624.945741 384.977279 
L 644.926573 372.835632 
L 663.108305 361.937616 
L 679.720163 352.167737 
L 694.952615 343.422558 
L 708.966608 335.608133 
L 721.899953 328.63844 
L 733.87166 322.434637 
L 744.984919 316.924766 
L 755.329549 312.043308 
L 764.984573 307.730049 
L 774.021087 303.928281 
L 782.504861 300.583134 
L 790.497773 297.641072 
L 798.057591 295.051066 
L 805.236521 292.766803 
L 812.079823 290.748487 
L 818.625893 288.962874 
L 824.90832 287.381345 
L 830.958904 285.977313 
L 836.809756 284.724713 
L 842.493381 283.598191 
L 848.041152 282.574238 
L 853.481382 281.632261 
L 858.837887 280.755232 
L 864.129289 279.929936 
L 869.369145 279.146665 
L 874.566943 278.398126 
L 879.729788 277.677749 
L 884.864227 276.978114 
L 889.977496 276.290304 
L 895.07778 275.604444 
L 900.173679 274.910916 
L 905.273244 274.201667 
L 910.383239 273.470718 
L 915.509274 272.713521 
L 920.656176 271.926091 
L 925.828348 271.104263 
L 931.029999 270.243249 
L 936.265217 269.337502 
L 941.537966 268.38078 
L 946.85204 267.366287 
L 952.211043 266.286795 
L 957.618377 265.134742 
L 963.077267 263.902256 
L 968.590778 262.581158 
L 974.161851 261.162927 
L 979.793321 259.638663 
L 985.487933 257.999041 
L 991.248354 256.234267 
L 997.077175 254.334039 
L 1002.976919 252.287509 
L 1008.950037 250.083244 
L 1014.998919 247.70919 
L 1021.125893 245.152641 
L 1027.333237 242.400199 
L 1033.623188 239.437751 
L 1039.997949 236.250431 
L 1046.459702 232.822602 
L 1053.010624 229.137832 
L 1059.652893 225.178881 
L 1066.388706 220.927693 
L 1073.220291 216.365398 
L 1080.149919 211.47232 
L 1087.179914 206.228003 
L 1094.312668 200.611235 
L 1101.550648 194.600094 
L 1108.8964 188.172 
L 1116.352561 181.303779 
L 1123.921851 173.971731 
L 1131.607079 166.151716 
L 1139.411132 157.819237 
L 1147.336968 148.949533 
L 1155.387597 139.517668 
L 1163.56607 129.498629 
L 1171.875454 118.867414 
L 1180.318812 107.599113 
L 1188.899176 95.668988 
L 1197.619526 83.052539 
L 1206.482766 69.725563 
L 1215.491698 55.664193 
L 1224.649007 40.844937 
L 1233.957238 25.244688 
" clip-path="url(#ped9564d762)" style="fill: none; stroke-dasharray: 3.2,0.8,0.5,0.8; stroke-dashoffset: 0; stroke: #363636; stroke-width: 0.5"/>
   </g>
   <g id="line2d_20">
    <path d="M 58.97 670.830182 
L 83.515511 662.128002 
L 107.208987 653.425823 
L 130.147562 644.723644 
L 152.400687 636.021465 
L 174.021986 627.319286 
L 195.055527 618.617107 
L 215.539417 609.914928 
L 235.507897 601.212749 
L 254.992568 592.51057 
L 274.023082 583.808391 
L 292.627536 575.106212 
L 310.832701 566.404033 
L 328.664161 557.701854 
L 346.146417 548.999675 
L 363.302974 540.297496 
L 380.156434 531.595317 
L 396.728597 522.893138 
L 413.040566 514.190959 
L 429.112871 505.48878 
L 444.965608 496.786601 
L 460.618586 488.084422 
L 476.091497 479.382243 
L 491.404111 470.680063 
L 506.576495 461.977884 
L 521.629278 453.275705 
L 536.583965 444.573526 
L 551.463341 435.871347 
L 566.291968 427.169168 
L 581.096851 418.466989 
L 595.908328 409.76481 
L 610.761296 401.062631 
L 625.696938 392.360452 
L 640.765238 383.658273 
L 656.028728 374.956094 
L 671.568316 366.253915 
L 687.492849 357.551736 
L 703.956334 348.849557 
L 721.194001 340.147378 
L 739.613959 331.445199 
L 760.071017 322.74302 
L 761.313182 322.25429 
L 762.568297 321.76556 
L 763.83697 321.27683 
L 765.119842 320.788101 
L 766.417594 320.299371 
L 767.730946 319.810641 
L 769.060662 319.321911 
L 770.407552 318.833181 
L 771.772473 318.344452 
L 773.156335 317.855722 
L 774.560105 317.366992 
L 775.984811 316.878262 
L 777.431549 316.389533 
L 778.901496 315.900803 
L 780.395914 315.412073 
L 781.916176 314.923343 
L 783.463784 314.434613 
L 785.0404 313.945884 
L 786.647895 313.457154 
L 788.288404 312.968424 
L 789.964414 312.479694 
L 791.678872 311.990964 
L 793.435337 311.502235 
L 795.238185 311.013505 
L 797.092882 310.524775 
L 799.006354 310.036045 
L 800.987495 309.547316 
L 803.04787 309.058586 
L 805.202713 308.569856 
L 807.472392 308.081126 
L 809.884582 307.592396 
L 812.477645 307.103667 
L 815.30596 306.614937 
L 818.448618 306.126207 
L 822.024051 305.637477 
L 826.217207 305.148748 
L 831.350071 304.660018 
L 838.234361 304.171288 
L 864.110186 303.682558 
" clip-path="url(#ped9564d762)" style="fill: none; stroke: #363636; stroke-width: 0.5; stroke-linecap: square"/>
   </g>
   <g id="line2d_21">
    <path d="M 1441 588.872461 
L 1428.403757 583.808391 
L 1408.060061 575.106212 
L 1388.892061 566.404033 
L 1370.784183 557.701854 
L 1353.630506 548.999675 
L 1337.333954 540.297496 
L 1321.805567 531.595317 
L 1306.96378 522.893138 
L 1292.733672 514.190959 
L 1279.046153 505.48878 
L 1265.837117 496.786601 
L 1253.046575 488.084422 
L 1240.617784 479.382243 
L 1228.496396 470.680063 
L 1216.629628 461.977884 
L 1204.965433 453.275705 
L 1193.451628 444.573526 
L 1182.034946 435.871347 
L 1170.659927 427.169168 
L 1159.267566 418.466989 
L 1147.793581 409.76481 
L 1136.166089 401.062631 
L 1124.302382 392.360452 
L 1112.104313 383.658273 
L 1099.451477 374.956094 
L 1086.190677 366.253915 
L 1072.118708 357.551736 
L 1056.952174 348.849557 
L 1040.269299 340.147378 
L 1021.382148 331.445199 
L 998.994964 322.74302 
L 997.587016 322.25429 
L 996.158728 321.76556 
L 994.709205 321.27683 
L 993.237489 320.788101 
L 991.742546 320.299371 
L 990.22326 319.810641 
L 988.678423 319.321911 
L 987.106723 318.833181 
L 985.506735 318.344452 
L 983.8769 317.855722 
L 982.21551 317.366992 
L 980.520691 316.878262 
L 978.790374 316.389533 
L 977.022266 315.900803 
L 975.213819 315.412073 
L 973.362185 314.923343 
L 971.464168 314.434613 
L 969.516163 313.945884 
L 967.51408 313.457154 
L 965.453251 312.968424 
L 963.328317 312.479694 
L 961.133082 311.990964 
L 958.860333 311.502235 
L 956.501596 311.013505 
L 954.046836 310.524775 
L 951.484048 310.036045 
L 948.798705 309.547316 
L 945.973008 309.058586 
L 942.984824 308.569856 
L 939.806155 308.081126 
L 936.400851 307.592396 
L 932.72105 307.103667 
L 928.701361 306.614937 
L 924.248636 306.126207 
L 919.222134 305.637477 
L 913.388809 305.148748 
L 906.295902 304.660018 
L 896.723548 304.171288 
L 864.110186 303.682558 
" clip-path="url(#ped9564d762)" style="fill: none; stroke: #363636; stroke-width: 0.5; stroke-linecap: square"/>
   </g>
   <g id="line2d_22">
    <path d="M 148.773977 637.457231 
L 148.807297 637.440054 
L 148.840617 637.422871 
L 148.873936 637.405679 
L 148.907256 637.388481 
L 148.940576 637.371274 
L 148.973896 637.35406 
L 149.007215 637.336839 
L 149.040535 637.31961 
L 149.073855 637.302374 
L 149.107175 637.28513 
L 149.140494 637.267879 
L 149.173814 637.25062 
L 149.207134 637.233354 
L 149.240454 637.21608 
L 149.273774 637.198799 
L 149.307093 637.18151 
L 149.340413 637.164213 
L 149.373733 637.146909 
L 149.407053 637.129598 
L 149.440372 637.112279 
L 149.473692 637.094952 
L 149.507012 637.077618 
L 149.540332 637.060277 
L 149.573651 637.042928 
L 149.606971 637.025571 
L 149.640291 637.008207 
L 149.673611 636.990835 
L 149.70693 636.973456 
L 149.74025 636.956069 
L 149.77357 636.938674 
L 149.80689 636.921272 
L 149.840209 636.903863 
L 149.873529 636.886446 
L 149.906849 636.869021 
L 149.940169 636.851589 
L 149.973489 636.834149 
L 150.006808 636.816702 
L 150.040128 636.799247 
L 150.073448 636.781785 
L 150.106768 636.764315 
L 150.140087 636.746837 
L 150.173407 636.729352 
L 150.206727 636.711859 
L 150.240047 636.694359 
L 150.273366 636.676851 
L 150.306686 636.659336 
L 150.340006 636.641813 
L 150.373326 636.624282 
L 150.406645 636.606744 
L 150.439965 636.589198 
L 150.473285 636.571644 
L 150.506605 636.554083 
L 150.539924 636.536515 
L 150.573244 636.518939 
L 150.606564 636.501355 
L 150.639884 636.483763 
L 150.673204 636.466164 
L 150.706523 636.448558 
L 150.739843 636.430944 
L 150.773163 636.413322 
L 150.806483 636.395692 
L 150.839802 636.378055 
L 150.873122 636.36041 
L 150.906442 636.342758 
L 150.939762 636.325098 
L 150.973081 636.307431 
L 151.006401 636.289755 
L 151.039721 636.272073 
L 151.073041 636.254382 
L 151.10636 636.236684 
L 151.13968 636.218978 
L 151.173 636.201265 
L 151.20632 636.183544 
L 151.239639 636.165815 
L 151.272959 636.148079 
L 151.306279 636.130335 
L 151.339599 636.112584 
L 151.372919 636.094825 
L 151.406238 636.077058 
L 151.439558 636.059283 
L 151.472878 636.041501 
L 151.506198 636.023711 
L 151.539517 636.005914 
L 151.572837 635.988109 
L 151.606157 635.970296 
L 151.639477 635.952475 
L 151.672796 635.934647 
L 151.706116 635.916811 
L 151.739436 635.898968 
L 151.772756 635.881117 
L 151.806075 635.863258 
L 151.839395 635.845391 
L 151.872715 635.827517 
L 151.906035 635.809635 
L 151.939354 635.791746 
L 151.972674 635.773849 
L 152.005994 635.755944 
L 152.039314 635.738031 
L 152.072634 635.720111 
" clip-path="url(#ped9564d762)" style="fill: none; stroke: #ff0000; stroke-width: 2; stroke-linecap: square"/>
   </g>
   <g id="line2d_23">
    <path d="M 1279.313207 81.732308 
L 1280.238486 95.986054 
L 1281.163765 110.02298 
L 1282.089044 123.847839 
L 1283.014323 137.465059 
L 1283.939603 150.878765 
L 1284.864882 164.092811 
L 1285.790161 177.110801 
L 1286.71544 189.936113 
L 1287.64072 202.571916 
L 1288.565999 215.021192 
L 1289.491278 227.286747 
L 1290.416557 239.371231 
L 1291.341836 251.277145 
L 1292.267116 263.00686 
L 1293.192395 274.562622 
L 1294.117674 285.946562 
L 1295.042953 297.160707 
L 1295.968233 308.206987 
L 1296.893512 319.087239 
L 1297.818791 329.803215 
L 1298.74407 340.356588 
L 1299.669349 350.748953 
L 1300.594629 360.981836 
L 1301.519908 371.056692 
L 1302.445187 380.974913 
L 1303.370466 390.737826 
L 1304.295746 400.3467 
L 1305.221025 409.802743 
L 1306.146304 419.107106 
L 1307.071583 428.260879 
L 1307.996862 437.265092 
L 1308.922142 446.120708 
L 1309.847421 454.828611 
L 1310.7727 463.38959 
L 1311.697979 471.804304 
L 1312.623259 480.073229 
L 1313.548538 488.196568 
L 1314.473817 496.174107 
L 1315.399096 504.004983 
L 1316.324375 511.687321 
L 1317.249655 519.217678 
L 1318.174934 526.590213 
L 1319.100213 531.281938 
L 1320.025492 533.981016 
L 1320.950772 536.639021 
L 1321.876051 539.256824 
L 1322.80133 541.835276 
L 1323.726609 544.375212 
L 1324.651888 546.877446 
L 1325.577168 549.342778 
L 1326.502447 551.771986 
L 1327.427726 554.165834 
L 1328.353005 556.525067 
L 1329.278284 558.850413 
L 1330.203564 561.142583 
L 1331.128843 563.402273 
L 1332.054122 565.63016 
L 1332.979401 567.826908 
L 1333.904681 569.993163 
L 1334.82996 572.129558 
L 1335.755239 574.236708 
L 1336.680518 576.315216 
L 1337.605797 578.365669 
L 1338.531077 580.388641 
L 1339.456356 582.38469 
L 1340.381635 584.354364 
L 1341.306914 586.298193 
L 1342.232194 588.216699 
L 1343.157473 590.110389 
L 1344.082752 591.979756 
L 1345.008031 593.825285 
L 1345.93331 595.647446 
L 1346.85859 597.446699 
L 1347.783869 599.223492 
L 1348.709148 600.978263 
L 1349.634427 602.711439 
L 1350.559707 604.423436 
L 1351.484986 606.114661 
L 1352.410265 607.78551 
L 1353.335544 609.436371 
L 1354.260823 611.067621 
L 1355.186103 612.679628 
L 1356.111382 614.272753 
L 1357.036661 615.847346 
L 1357.96194 617.403751 
L 1358.88722 618.9423 
L 1359.812499 620.463322 
L 1360.737778 621.967135 
L 1361.663057 623.454049 
L 1362.588336 624.924369 
L 1363.513616 626.378392 
L 1364.438895 627.816406 
L 1365.364174 629.238695 
L 1366.289453 630.645535 
L 1367.214733 632.037196 
L 1368.140012 633.413942 
L 1369.065291 634.776029 
L 1369.99057 636.123711 
L 1370.915849 637.457231 
" clip-path="url(#ped9564d762)" style="fill: none; stroke: #ff0000; stroke-width: 2; stroke-linecap: square"/>
   </g>
   <g id="line2d_24">
    <path d="M 152.072634 635.720111 
L 286.533674 576.923597 
L 366.535293 537.121926 
L 426.790166 504.808625 
L 475.475868 477.387036 
L 516.230564 453.700606 
L 551.086131 433.079734 
L 581.329687 415.072732 
L 607.844038 399.344239 
L 631.26831 385.629342 
L 652.083927 373.709584 
L 670.665176 363.398697 
L 687.31091 354.533465 
L 702.264877 346.968081 
L 715.728287 340.57145 
L 727.866961 335.226738 
L 738.815525 330.831455 
L 748.681268 327.295753 
L 750.233372 326.781997 
L 751.983923 326.798084 
L 754.149246 326.817972 
L 756.385115 326.838521 
L 758.693797 326.859754 
L 761.077626 326.881692 
L 763.53901 326.904361 
L 766.080434 326.927784 
L 768.704455 326.951986 
L 771.413714 326.976994 
L 774.210928 327.002834 
L 777.098901 327.029536 
L 780.080521 327.057127 
L 783.158767 327.085637 
L 786.336704 327.115098 
L 789.617493 327.145542 
L 793.004391 327.177 
L 796.50075 327.209509 
L 800.110026 327.243103 
L 803.835777 327.277818 
L 807.681667 327.313694 
L 811.651468 327.350768 
L 815.749066 327.389081 
L 819.978457 327.428676 
L 824.343759 327.469596 
L 828.849208 327.511885 
L 833.499162 327.55559 
L 838.298106 327.60076 
L 843.250654 327.647443 
L 848.361551 327.695693 
L 853.635677 327.745561 
L 859.078052 327.797103 
L 864.693832 327.850376 
L 870.488321 327.90544 
L 876.466968 327.962355 
L 882.635372 328.021185 
L 888.999284 328.081996 
L 895.564611 328.144856 
L 902.337418 328.209835 
L 909.323931 328.277005 
L 916.530539 328.346444 
L 923.963799 328.418228 
L 931.630435 328.492439 
L 939.537344 328.569161 
L 947.691594 328.648481 
L 956.10043 328.730489 
L 964.771274 328.815279 
L 973.711729 328.902948 
L 982.929574 328.993595 
L 992.432775 329.087326 
L 1002.229478 329.184249 
L 1012.328012 329.284474 
L 1016.320022 329.32403 
L 1020.553856 328.466728 
L 1027.534417 326.876821 
L 1034.609546 325.036156 
L 1041.783687 322.927436 
L 1049.060781 320.532148 
L 1056.444206 317.830527 
L 1063.936754 314.801545 
L 1071.540656 311.422948 
L 1079.257639 307.671327 
L 1087.089005 303.52223 
L 1095.035734 298.950314 
L 1103.098586 293.929534 
L 1111.278194 288.433366 
L 1119.575162 282.435054 
L 1127.990119 275.907883 
L 1136.523779 268.82546 
L 1145.176954 261.162005 
L 1153.950564 252.892629 
L 1162.845612 243.993602 
L 1171.863148 234.442586 
L 1181.004213 224.218831 
L 1190.269786 213.303334 
L 1199.660707 201.678945 
L 1209.177621 189.330428 
L 1218.820913 176.244481 
L 1228.590657 162.40972 
L 1238.486581 147.816633 
L 1248.508037 132.457512 
L 1258.653983 116.326378 
L 1268.922984 99.4189 
L 1279.313207 81.732308 
" clip-path="url(#ped9564d762)" style="fill: none; stroke: #ff0000; stroke-width: 2; stroke-linecap: square"/>
   </g>
   <g id="line2d_25">
    <path d="M 1370.915849 637.457231 
L 1253.294569 637.457231 
L 1146.992882 637.457231 
L 1050.921416 637.457231 
L 964.095641 637.457231 
L 885.625772 637.457231 
L 814.707657 637.457231 
L 750.614534 637.457231 
L 692.68958 637.457231 
L 640.339187 637.457231 
L 593.026871 637.457231 
L 550.26778 637.457231 
L 511.623723 637.457231 
L 476.698678 637.457231 
L 445.134736 637.457231 
L 416.608434 637.457231 
L 390.827435 637.457231 
L 367.527538 637.457231 
L 346.469968 637.457231 
L 327.438929 637.457231 
L 310.239391 637.457231 
L 294.695096 637.457231 
L 280.646748 637.457231 
L 267.950379 637.457231 
L 256.475878 637.457231 
L 246.105657 637.457231 
L 236.73344 637.457231 
L 228.263184 637.457231 
L 220.608085 637.457231 
L 213.689695 637.457231 
L 207.437114 637.457231 
L 201.786266 637.457231 
L 196.679243 637.457231 
L 192.063707 637.457231 
L 187.89236 637.457231 
L 184.122453 637.457231 
L 180.715354 637.457231 
L 177.636145 637.457231 
L 174.853272 637.457231 
L 172.338216 637.457231 
L 170.065203 637.457231 
L 168.01094 637.457231 
L 166.154374 637.457231 
L 164.476479 637.457231 
L 162.960062 637.457231 
L 161.58958 637.457231 
L 160.35099 637.457231 
L 159.2316 637.457231 
L 158.219937 637.457231 
L 157.305634 637.457231 
L 156.479321 637.457231 
L 155.732531 637.457231 
L 155.057609 637.457231 
L 154.447641 637.457231 
L 153.896375 637.457231 
L 153.398161 637.457231 
L 152.947894 637.457231 
L 152.54096 637.457231 
L 152.173188 637.457231 
L 151.84081 637.457231 
L 151.540419 637.457231 
L 151.268937 637.457231 
L 151.023581 637.457231 
L 150.801838 637.457231 
L 150.601435 637.457231 
L 150.420319 637.457231 
L 150.256632 637.457231 
L 150.108699 637.457231 
L 149.975002 637.457231 
L 149.854172 637.457231 
L 149.74497 637.457231 
L 149.646278 637.457231 
L 149.557083 637.457231 
L 149.476473 637.457231 
L 149.40362 637.457231 
L 149.337778 637.457231 
L 149.278273 637.457231 
L 149.224494 637.457231 
L 149.175891 637.457231 
L 149.131966 637.457231 
L 149.092267 637.457231 
L 149.056389 637.457231 
L 149.023964 637.457231 
L 148.99466 637.457231 
L 148.968176 637.457231 
L 148.94424 637.457231 
L 148.922608 637.457231 
L 148.903058 637.457231 
L 148.885389 637.457231 
L 148.869421 637.457231 
L 148.854989 637.457231 
L 148.841946 637.457231 
L 148.830159 637.457231 
L 148.819506 637.457231 
L 148.809878 637.457231 
L 148.801176 637.457231 
L 148.793312 637.457231 
L 148.786205 637.457231 
L 148.779782 637.457231 
L 148.773977 637.457231 
" clip-path="url(#ped9564d762)" style="fill: none; stroke: #ff0000; stroke-width: 2; stroke-linecap: square"/>
   </g>
   <g id="patch_3">
    <path d="M 58.97 670.84 
L 58.97 32.64 
" style="fill: none; stroke: #000000; stroke-width: 0.8; stroke-linejoin: miter; stroke-linecap: square"/>
   </g>
   <g id="patch_4">
    <path d="M 1429.2 670.84 
L 1429.2 32.64 
" style="fill: none; stroke: #000000; stroke-width: 0.8; stroke-linejoin: miter; stroke-linecap: square"/>
   </g>
   <g id="patch_5">
    <path d="M 58.97 670.84 
L 1429.2 670.84 
" style="fill: none; stroke: #000000; stroke-width: 0.8; stroke-linejoin: miter; stroke-linecap: square"/>
   </g>
   <g id="patch_6">
    <path d="M 58.97 32.64 
L 1429.2 32.64 
" style="fill: none; stroke: #000000; stroke-width: 0.8; stroke-linejoin: miter; stroke-linecap: square"/>
   </g>
   <g id="text_18">
    <g id="patch_7">
     <path d="M 865.353294 390.417924 
L 907.384544 390.417924 
L 907.384544 380.739799 
L 865.353294 380.739799 
z
" style="fill: #ffffff; stroke: #ffffff; stroke-linejoin: miter"/>
    </g>
    <!-- 75.0 bar -->
    <g transform="translate(865.353294 388.338236) scale(0.1 -0.1)">
     <defs>
      <path id="DejaVuSans-62" d="M 3116 1747 
Q 3116 2381 2855 2742 
Q 2594 3103 2138 3103 
Q 1681 3103 1420 2742 
Q 1159 2381 1159 1747 
Q 1159 1113 1420 752 
Q 1681 391 2138 391 
Q 2594 391 2855 752 
Q 3116 1113 3116 1747 
z
M 1159 2969 
Q 1341 3281 1617 3432 
Q 1894 3584 2278 3584 
Q 2916 3584 3314 3078 
Q 3713 2572 3713 1747 
Q 3713 922 3314 415 
Q 2916 -91 2278 -91 
Q 1894 -91 1617 61 
Q 1341 213 1159 525 
L 1159 0 
L 581 0 
L 581 4863 
L 1159 4863 
L 1159 2969 
z
" transform="scale(0.015625)"/>
     </defs>
     <use xlink:href="#DejaVuSans-37"/>
     <use xlink:href="#DejaVuSans-35" x="63.623047"/>
     <use xlink:href="#DejaVuSans-2e" x="127.246094"/>
     <use xlink:href="#DejaVuSans-30" x="159.033203"/>
     <use xlink:href="#DejaVuSans-20" x="222.65625"/>
     <use xlink:href="#DejaVuSans-62" x="254.443359"/>
     <use xlink:href="#DejaVuSans-61" x="317.919922"/>
     <use xlink:href="#DejaVuSans-72" x="379.199219"/>
    </g>
   </g>
   <g id="text_19">
    <g id="patch_8">
     <path d="M 1031.187907 340.822487 
L 1076.445743 323.685296 
L 1073.018527 314.634314 
L 1027.76069 331.771504 
z
" style="fill: #ffffff; stroke: #ffffff; stroke-linejoin: miter"/>
    </g>
    <!-- 150.0 bar -->
    <g transform="translate(1030.451449 338.877563) rotate(-20.739516) scale(0.1 -0.1)">
     <use xlink:href="#DejaVuSans-31"/>
     <use xlink:href="#DejaVuSans-35" x="63.623047"/>
     <use xlink:href="#DejaVuSans-30" x="127.246094"/>
     <use xlink:href="#DejaVuSans-2e" x="190.869141"/>
     <use xlink:href="#DejaVuSans-30" x="222.65625"/>
     <use xlink:href="#DejaVuSans-20" x="286.279297"/>
     <use xlink:href="#DejaVuSans-62" x="318.066406"/>
     <use xlink:href="#DejaVuSans-61" x="381.542969"/>
     <use xlink:href="#DejaVuSans-72" x="442.822266"/>
    </g>
   </g>
   <g id="text_20">
    <g id="patch_9">
     <path d="M 1094.863191 254.001738 
L 1131.677967 222.591114 
L 1125.396248 215.228635 
L 1088.581472 246.639258 
z
" style="fill: #ffffff; stroke: #ffffff; stroke-linejoin: miter"/>
    </g>
    <!-- 225.0 bar -->
    <g transform="translate(1093.513341 252.419649) rotate(-40.471041) scale(0.1 -0.1)">
     <use xlink:href="#DejaVuSans-32"/>
     <use xlink:href="#DejaVuSans-32" x="63.623047"/>
     <use xlink:href="#DejaVuSans-35" x="127.246094"/>
     <use xlink:href="#DejaVuSans-2e" x="190.869141"/>
     <use xlink:href="#DejaVuSans-30" x="222.65625"/>
     <use xlink:href="#DejaVuSans-20" x="286.279297"/>
     <use xlink:href="#DejaVuSans-62" x="318.066406"/>
     <use xlink:href="#DejaVuSans-61" x="381.542969"/>
     <use xlink:href="#DejaVuSans-72" x="442.822266"/>
    </g>
   </g>
   <g id="text_21">
    <g id="patch_10">
     <path d="M 1102.483641 201.71354 
L 1137.004213 167.797686 
L 1130.22148 160.894017 
L 1095.700908 194.809871 
z
" style="fill: #ffffff; stroke: #ffffff; stroke-linejoin: miter"/>
    </g>
    <!-- 300.0 bar -->
    <g transform="translate(1101.026131 200.230042) rotate(-44.493735) scale(0.1 -0.1)">
     <use xlink:href="#DejaVuSans-33"/>
     <use xlink:href="#DejaVuSans-30" x="63.623047"/>
     <use xlink:href="#DejaVuSans-30" x="127.246094"/>
     <use xlink:href="#DejaVuSans-2e" x="190.869141"/>
     <use xlink:href="#DejaVuSans-30" x="222.65625"/>
     <use xlink:href="#DejaVuSans-20" x="286.279297"/>
     <use xlink:href="#DejaVuSans-62" x="318.066406"/>
     <use xlink:href="#DejaVuSans-61" x="381.542969"/>
     <use xlink:href="#DejaVuSans-72" x="442.822266"/>
    </g>
   </g>
   <g id="text_22">
    <g id="patch_11">
     <path d="M 389.195349 532.658643 
L 408.991078 521.571593 
L 404.261845 513.127633 
L 384.466116 524.214683 
z
" style="fill: #ffffff; stroke: #ffffff; stroke-linejoin: miter"/>
    </g>
    <!-- 0.0 - -->
    <g transform="translate(388.179106 530.844159) rotate(-29.252004) scale(0.1 -0.1)">
     <defs>
      <path id="DejaVuSans-2d" d="M 313 2009 
L 1997 2009 
L 1997 1497 
L 313 1497 
L 313 2009 
z
" transform="scale(0.015625)"/>
     </defs>
     <use xlink:href="#DejaVuSans-30"/>
     <use xlink:href="#DejaVuSans-2e" x="63.623047"/>
     <use xlink:href="#DejaVuSans-30" x="95.410156"/>
     <use xlink:href="#DejaVuSans-20" x="159.033203"/>
     <use xlink:href="#DejaVuSans-2d" x="190.820312"/>
    </g>
   </g>
   <g id="text_23">
    <g id="patch_12">
     <path d="M 1216.547245 467.625113 
L 1234.56164 481.419138 
L 1240.445546 473.735014 
L 1222.431151 459.940989 
z
" style="fill: #ffffff; stroke: #ffffff; stroke-linejoin: miter"/>
    </g>
    <!-- 1.0 - -->
    <g transform="translate(1217.811611 465.973907) rotate(-322.557911) scale(0.1 -0.1)">
     <use xlink:href="#DejaVuSans-31"/>
     <use xlink:href="#DejaVuSans-2e" x="63.623047"/>
     <use xlink:href="#DejaVuSans-30" x="95.410156"/>
     <use xlink:href="#DejaVuSans-20" x="159.033203"/>
     <use xlink:href="#DejaVuSans-2d" x="190.820312"/>
    </g>
   </g>
   <g id="text_24">
    <!-- T-s Diagram of Rankine Cycle -->
    <g transform="translate(597.206875 26.64) scale(0.2 -0.2)">
     <defs>
      <path id="DejaVuSans-44" d="M 1259 4147 
L 1259 519 
L 2022 519 
Q 2988 519 3436 956 
Q 3884 1394 3884 2338 
Q 3884 3275 3436 3711 
Q 2988 4147 2022 4147 
L 1259 4147 
z
M 628 4666 
L 1925 4666 
Q 3281 4666 3915 4102 
Q 4550 3538 4550 2338 
Q 4550 1131 3912 565 
Q 3275 0 1925 0 
L 628 0 
L 628 4666 
z
" transform="scale(0.015625)"/>
      <path id="DejaVuSans-69" d="M 603 3500 
L 1178 3500 
L 1178 0 
L 603 0 
L 603 3500 
z
M 603 4863 
L 1178 4863 
L 1178 4134 
L 603 4134 
L 603 4863 
z
" transform="scale(0.015625)"/>
      <path id="DejaVuSans-66" d="M 2375 4863 
L 2375 4384 
L 1825 4384 
Q 1516 4384 1395 4259 
Q 1275 4134 1275 3809 
L 1275 3500 
L 2222 3500 
L 2222 3053 
L 1275 3053 
L 1275 0 
L 697 0 
L 697 3053 
L 147 3053 
L 147 3500 
L 697 3500 
L 697 3744 
Q 697 4328 969 4595 
Q 1241 4863 1831 4863 
L 2375 4863 
z
" transform="scale(0.015625)"/>
      <path id="DejaVuSans-52" d="M 2841 2188 
Q 3044 2119 3236 1894 
Q 3428 1669 3622 1275 
L 4263 0 
L 3584 0 
L 2988 1197 
Q 2756 1666 2539 1819 
Q 2322 1972 1947 1972 
L 1259 1972 
L 1259 0 
L 628 0 
L 628 4666 
L 2053 4666 
Q 2853 4666 3247 4331 
Q 3641 3997 3641 3322 
Q 3641 2881 3436 2590 
Q 3231 2300 2841 2188 
z
M 1259 4147 
L 1259 2491 
L 2053 2491 
Q 2509 2491 2742 2702 
Q 2975 2913 2975 3322 
Q 2975 3731 2742 3939 
Q 2509 4147 2053 4147 
L 1259 4147 
z
" transform="scale(0.015625)"/>
      <path id="DejaVuSans-63" d="M 3122 3366 
L 3122 2828 
Q 2878 2963 2633 3030 
Q 2388 3097 2138 3097 
Q 1578 3097 1268 2742 
Q 959 2388 959 1747 
Q 959 1106 1268 751 
Q 1578 397 2138 397 
Q 2388 397 2633 464 
Q 2878 531 3122 666 
L 3122 134 
Q 2881 22 2623 -34 
Q 2366 -91 2075 -91 
Q 1284 -91 818 406 
Q 353 903 353 1747 
Q 353 2603 823 3093 
Q 1294 3584 2113 3584 
Q 2378 3584 2631 3529 
Q 2884 3475 3122 3366 
z
" transform="scale(0.015625)"/>
      <path id="DejaVuSans-6c" d="M 603 4863 
L 1178 4863 
L 1178 0 
L 603 0 
L 603 4863 
z
" transform="scale(0.015625)"/>
     </defs>
     <use xlink:href="#DejaVuSans-54"/>
     <use xlink:href="#DejaVuSans-2d" x="51.958984"/>
     <use xlink:href="#DejaVuSans-73" x="88.042969"/>
     <use xlink:href="#DejaVuSans-20" x="140.142578"/>
     <use xlink:href="#DejaVuSans-44" x="171.929688"/>
     <use xlink:href="#DejaVuSans-69" x="248.931641"/>
     <use xlink:href="#DejaVuSans-61" x="276.714844"/>
     <use xlink:href="#DejaVuSans-67" x="337.994141"/>
     <use xlink:href="#DejaVuSans-72" x="401.470703"/>
     <use xlink:href="#DejaVuSans-61" x="442.583984"/>
     <use xlink:href="#DejaVuSans-6d" x="503.863281"/>
     <use xlink:href="#DejaVuSans-20" x="601.275391"/>
     <use xlink:href="#DejaVuSans-6f" x="633.0625"/>
     <use xlink:href="#DejaVuSans-66" x="694.244141"/>
     <use xlink:href="#DejaVuSans-20" x="729.449219"/>
     <use xlink:href="#DejaVuSans-52" x="761.236328"/>
     <use xlink:href="#DejaVuSans-61" x="828.46875"/>
     <use xlink:href="#DejaVuSans-6e" x="889.748047"/>
     <use xlink:href="#DejaVuSans-6b" x="953.126953"/>
     <use xlink:href="#DejaVuSans-69" x="1011.037109"/>
     <use xlink:href="#DejaVuSans-6e" x="1038.820312"/>
     <use xlink:href="#DejaVuSans-65" x="1102.199219"/>
     <use xlink:href="#DejaVuSans-20" x="1163.722656"/>
     <use xlink:href="#DejaVuSans-43" x="1195.509766"/>
     <use xlink:href="#DejaVuSans-79" x="1265.333984"/>
     <use xlink:href="#DejaVuSans-63" x="1324.513672"/>
     <use xlink:href="#DejaVuSans-6c" x="1379.494141"/>
     <use xlink:href="#DejaVuSans-65" x="1407.277344"/>
    </g>
   </g>
  </g>
 </g>
 <defs>
  <clipPath id="ped9564d762">
   <rect x="58.97" y="32.64" width="1370.23" height="638.2"/>
  </clipPath>
 </defs>
</svg>
