<?xml version="1.0" encoding="utf-8" standalone="no"?>
<!DOCTYPE svg PUBLIC "-//W3C//DTD SVG 1.1//EN"
  "http://www.w3.org/Graphics/SVG/1.1/DTD/svg11.dtd">
<svg xmlns:xlink="http://www.w3.org/1999/xlink" width="467.31375pt" height="366.701804pt" viewBox="0 0 467.31375 366.701804" xmlns="http://www.w3.org/2000/svg" version="1.1">
 <metadata>
  <rdf:RDF xmlns:dc="http://purl.org/dc/elements/1.1/" xmlns:cc="http://creativecommons.org/ns#" xmlns:rdf="http://www.w3.org/1999/02/22-rdf-syntax-ns#">
   <cc:Work>
    <dc:type rdf:resource="http://purl.org/dc/dcmitype/StillImage"/>
    <dc:date>2026-05-17T17:20:49.943153</dc:date>
    <dc:format>image/svg+xml</dc:format>
    <dc:creator>
     <cc:Agent>
      <dc:title>Matplotlib v3.10.9, https://matplotlib.org/</dc:title>
     </cc:Agent>
    </dc:creator>
   </cc:Work>
  </rdf:RDF>
 </metadata>
 <defs>
  <style type="text/css">*{stroke-linejoin: round; stroke-linecap: butt}</style>
 </defs>
 <g id="figure_1">
  <g id="patch_1">
   <path d="M 0 366.701804 
L 467.31375 366.701804 
L 467.31375 0 
L 0 0 
z
" style="fill: #ffffff"/>
  </g>
  <g id="axes_1">
   <g id="patch_2">
    <path d="M 50.14375 329.145554 
L 460.11375 329.145554 
L 460.11375 22.318125 
L 50.14375 22.318125 
z
" style="fill: #ffffff"/>
   </g>
   <g id="matplotlib.axis_1">
    <g id="xtick_1">
     <g id="line2d_1">
      <path d="M 93.792173 329.145554 
L 93.792173 22.318125 
" clip-path="url(#p014699b3f7)" style="fill: none; stroke-dasharray: 0.8,1.32; stroke-dashoffset: 0; stroke: #b0b0b0; stroke-width: 0.8"/>
     </g>
     <g id="line2d_2">
      <defs>
       <path id="m3d86321a5a" d="M 0 0 
L 0 3.5 
" style="stroke: #000000; stroke-width: 0.8"/>
      </defs>
      <g>
       <use xlink:href="#m3d86321a5a" x="93.792173" y="329.145554" style="stroke: #000000; stroke-width: 0.8"/>
      </g>
     </g>
     <g id="text_1">
      <!-- 0.5 -->
      <g transform="translate(85.84061 343.743991) scale(0.1 -0.1)">
       <defs>
        <path id="DejaVuSans-30" d="M 2034 4250 
Q 1547 4250 1301 3770 
Q 1056 3291 1056 2328 
Q 1056 1369 1301 889 
Q 1547 409 2034 409 
Q 2525 409 2770 889 
Q 3016 1369 3016 2328 
Q 3016 3291 2770 3770 
Q 2525 4250 2034 4250 
z
M 2034 4750 
Q 2819 4750 3233 4129 
Q 3647 3509 3647 2328 
Q 3647 1150 3233 529 
Q 2819 -91 2034 -91 
Q 1250 -91 836 529 
Q 422 1150 422 2328 
Q 422 3509 836 4129 
Q 1250 4750 2034 4750 
z
" transform="scale(0.015625)"/>
        <path id="DejaVuSans-2e" d="M 684 794 
L 1344 794 
L 1344 0 
L 684 0 
L 684 794 
z
" transform="scale(0.015625)"/>
        <path id="DejaVuSans-35" d="M 691 4666 
L 3169 4666 
L 3169 4134 
L 1269 4134 
L 1269 2991 
Q 1406 3038 1543 3061 
Q 1681 3084 1819 3084 
Q 2600 3084 3056 2656 
Q 3513 2228 3513 1497 
Q 3513 744 3044 326 
Q 2575 -91 1722 -91 
Q 1428 -91 1123 -41 
Q 819 9 494 109 
L 494 744 
Q 775 591 1075 516 
Q 1375 441 1709 441 
Q 2250 441 2565 725 
Q 2881 1009 2881 1497 
Q 2881 1984 2565 2268 
Q 2250 2553 1709 2553 
Q 1456 2553 1204 2497 
Q 953 2441 691 2322 
L 691 4666 
z
" transform="scale(0.015625)"/>
       </defs>
       <use xlink:href="#DejaVuSans-30"/>
       <use xlink:href="#DejaVuSans-2e" transform="translate(63.623047 0)"/>
       <use xlink:href="#DejaVuSans-35" transform="translate(95.410156 0)"/>
      </g>
     </g>
    </g>
    <g id="xtick_2">
     <g id="line2d_3">
      <path d="M 156.32573 329.145554 
L 156.32573 22.318125 
" clip-path="url(#p014699b3f7)" style="fill: none; stroke-dasharray: 0.8,1.32; stroke-dashoffset: 0; stroke: #b0b0b0; stroke-width: 0.8"/>
     </g>
     <g id="line2d_4">
      <g>
       <use xlink:href="#m3d86321a5a" x="156.32573" y="329.145554" style="stroke: #000000; stroke-width: 0.8"/>
      </g>
     </g>
     <g id="text_2">
      <!-- 0.6 -->
      <g transform="translate(148.374167 343.743991) scale(0.1 -0.1)">
       <defs>
        <path id="DejaVuSans-36" d="M 2113 2584 
Q 1688 2584 1439 2293 
Q 1191 2003 1191 1497 
Q 1191 994 1439 701 
Q 1688 409 2113 409 
Q 2538 409 2786 701 
Q 3034 994 3034 1497 
Q 3034 2003 2786 2293 
Q 2538 2584 2113 2584 
z
M 3366 4563 
L 3366 3988 
Q 3128 4100 2886 4159 
Q 2644 4219 2406 4219 
Q 1781 4219 1451 3797 
Q 1122 3375 1075 2522 
Q 1259 2794 1537 2939 
Q 1816 3084 2150 3084 
Q 2853 3084 3261 2657 
Q 3669 2231 3669 1497 
Q 3669 778 3244 343 
Q 2819 -91 2113 -91 
Q 1303 -91 875 529 
Q 447 1150 447 2328 
Q 447 3434 972 4092 
Q 1497 4750 2381 4750 
Q 2619 4750 2861 4703 
Q 3103 4656 3366 4563 
z
" transform="scale(0.015625)"/>
       </defs>
       <use xlink:href="#DejaVuSans-30"/>
       <use xlink:href="#DejaVuSans-2e" transform="translate(63.623047 0)"/>
       <use xlink:href="#DejaVuSans-36" transform="translate(95.410156 0)"/>
      </g>
     </g>
    </g>
    <g id="xtick_3">
     <g id="line2d_5">
      <path d="M 218.859287 329.145554 
L 218.859287 22.318125 
" clip-path="url(#p014699b3f7)" style="fill: none; stroke-dasharray: 0.8,1.32; stroke-dashoffset: 0; stroke: #b0b0b0; stroke-width: 0.8"/>
     </g>
     <g id="line2d_6">
      <g>
       <use xlink:href="#m3d86321a5a" x="218.859287" y="329.145554" style="stroke: #000000; stroke-width: 0.8"/>
      </g>
     </g>
     <g id="text_3">
      <!-- 0.7 -->
      <g transform="translate(210.907724 343.743991) scale(0.1 -0.1)">
       <defs>
        <path id="DejaVuSans-37" d="M 525 4666 
L 3525 4666 
L 3525 4397 
L 1831 0 
L 1172 0 
L 2766 4134 
L 525 4134 
L 525 4666 
z
" transform="scale(0.015625)"/>
       </defs>
       <use xlink:href="#DejaVuSans-30"/>
       <use xlink:href="#DejaVuSans-2e" transform="translate(63.623047 0)"/>
       <use xlink:href="#DejaVuSans-37" transform="translate(95.410156 0)"/>
      </g>
     </g>
    </g>
    <g id="xtick_4">
     <g id="line2d_7">
      <path d="M 281.392844 329.145554 
L 281.392844 22.318125 
" clip-path="url(#p014699b3f7)" style="fill: none; stroke-dasharray: 0.8,1.32; stroke-dashoffset: 0; stroke: #b0b0b0; stroke-width: 0.8"/>
     </g>
     <g id="line2d_8">
      <g>
       <use xlink:href="#m3d86321a5a" x="281.392844" y="329.145554" style="stroke: #000000; stroke-width: 0.8"/>
      </g>
     </g>
     <g id="text_4">
      <!-- 0.8 -->
      <g transform="translate(273.441281 343.743991) scale(0.1 -0.1)">
       <defs>
        <path id="DejaVuSans-38" d="M 2034 2216 
Q 1584 2216 1326 1975 
Q 1069 1734 1069 1313 
Q 1069 891 1326 650 
Q 1584 409 2034 409 
Q 2484 409 2743 651 
Q 3003 894 3003 1313 
Q 3003 1734 2745 1975 
Q 2488 2216 2034 2216 
z
M 1403 2484 
Q 997 2584 770 2862 
Q 544 3141 544 3541 
Q 544 4100 942 4425 
Q 1341 4750 2034 4750 
Q 2731 4750 3128 4425 
Q 3525 4100 3525 3541 
Q 3525 3141 3298 2862 
Q 3072 2584 2669 2484 
Q 3125 2378 3379 2068 
Q 3634 1759 3634 1313 
Q 3634 634 3220 271 
Q 2806 -91 2034 -91 
Q 1263 -91 848 271 
Q 434 634 434 1313 
Q 434 1759 690 2068 
Q 947 2378 1403 2484 
z
M 1172 3481 
Q 1172 3119 1398 2916 
Q 1625 2713 2034 2713 
Q 2441 2713 2670 2916 
Q 2900 3119 2900 3481 
Q 2900 3844 2670 4047 
Q 2441 4250 2034 4250 
Q 1625 4250 1398 4047 
Q 1172 3844 1172 3481 
z
" transform="scale(0.015625)"/>
       </defs>
       <use xlink:href="#DejaVuSans-30"/>
       <use xlink:href="#DejaVuSans-2e" transform="translate(63.623047 0)"/>
       <use xlink:href="#DejaVuSans-38" transform="translate(95.410156 0)"/>
      </g>
     </g>
    </g>
    <g id="xtick_5">
     <g id="line2d_9">
      <path d="M 343.926401 329.145554 
L 343.926401 22.318125 
" clip-path="url(#p014699b3f7)" style="fill: none; stroke-dasharray: 0.8,1.32; stroke-dashoffset: 0; stroke: #b0b0b0; stroke-width: 0.8"/>
     </g>
     <g id="line2d_10">
      <g>
       <use xlink:href="#m3d86321a5a" x="343.926401" y="329.145554" style="stroke: #000000; stroke-width: 0.8"/>
      </g>
     </g>
     <g id="text_5">
      <!-- 0.9 -->
      <g transform="translate(335.974839 343.743991) scale(0.1 -0.1)">
       <defs>
        <path id="DejaVuSans-39" d="M 703 97 
L 703 672 
Q 941 559 1184 500 
Q 1428 441 1663 441 
Q 2288 441 2617 861 
Q 2947 1281 2994 2138 
Q 2813 1869 2534 1725 
Q 2256 1581 1919 1581 
Q 1219 1581 811 2004 
Q 403 2428 403 3163 
Q 403 3881 828 4315 
Q 1253 4750 1959 4750 
Q 2769 4750 3195 4129 
Q 3622 3509 3622 2328 
Q 3622 1225 3098 567 
Q 2575 -91 1691 -91 
Q 1453 -91 1209 -44 
Q 966 3 703 97 
z
M 1959 2075 
Q 2384 2075 2632 2365 
Q 2881 2656 2881 3163 
Q 2881 3666 2632 3958 
Q 2384 4250 1959 4250 
Q 1534 4250 1286 3958 
Q 1038 3666 1038 3163 
Q 1038 2656 1286 2365 
Q 1534 2075 1959 2075 
z
" transform="scale(0.015625)"/>
       </defs>
       <use xlink:href="#DejaVuSans-30"/>
       <use xlink:href="#DejaVuSans-2e" transform="translate(63.623047 0)"/>
       <use xlink:href="#DejaVuSans-39" transform="translate(95.410156 0)"/>
      </g>
     </g>
    </g>
    <g id="xtick_6">
     <g id="line2d_11">
      <path d="M 406.459958 329.145554 
L 406.459958 22.318125 
" clip-path="url(#p014699b3f7)" style="fill: none; stroke-dasharray: 0.8,1.32; stroke-dashoffset: 0; stroke: #b0b0b0; stroke-width: 0.8"/>
     </g>
     <g id="line2d_12">
      <g>
       <use xlink:href="#m3d86321a5a" x="406.459958" y="329.145554" style="stroke: #000000; stroke-width: 0.8"/>
      </g>
     </g>
     <g id="text_6">
      <!-- 1.0 -->
      <g transform="translate(398.508396 343.743991) scale(0.1 -0.1)">
       <defs>
        <path id="DejaVuSans-31" d="M 794 531 
L 1825 531 
L 1825 4091 
L 703 3866 
L 703 4441 
L 1819 4666 
L 2450 4666 
L 2450 531 
L 3481 531 
L 3481 0 
L 794 0 
L 794 531 
z
" transform="scale(0.015625)"/>
       </defs>
       <use xlink:href="#DejaVuSans-31"/>
       <use xlink:href="#DejaVuSans-2e" transform="translate(63.623047 0)"/>
       <use xlink:href="#DejaVuSans-30" transform="translate(95.410156 0)"/>
      </g>
     </g>
    </g>
    <g id="text_7">
     <!-- $Y$ -->
     <g transform="translate(252.02875 357.422116) scale(0.1 -0.1)">
      <defs>
       <path id="DejaVuSans-Oblique-59" d="M 403 4666 
L 1081 4666 
L 1953 2747 
L 3616 4666 
L 4325 4666 
L 2209 2222 
L 1778 0 
L 1147 0 
L 1575 2222 
L 403 4666 
z
" transform="scale(0.015625)"/>
      </defs>
      <use xlink:href="#DejaVuSans-Oblique-59" transform="translate(0 0.09375)"/>
     </g>
    </g>
   </g>
   <g id="matplotlib.axis_2">
    <g id="ytick_1">
     <g id="line2d_13">
      <path d="M 50.14375 292.428728 
L 460.11375 292.428728 
" clip-path="url(#p014699b3f7)" style="fill: none; stroke-dasharray: 0.8,1.32; stroke-dashoffset: 0; stroke: #b0b0b0; stroke-width: 0.8"/>
     </g>
     <g id="line2d_14">
      <defs>
       <path id="me640af2ed2" d="M 0 0 
L -3.5 0 
" style="stroke: #000000; stroke-width: 0.8"/>
      </defs>
      <g>
       <use xlink:href="#me640af2ed2" x="50.14375" y="292.428728" style="stroke: #000000; stroke-width: 0.8"/>
      </g>
     </g>
     <g id="text_8">
      <!-- 0.88 -->
      <g transform="translate(20.878125 296.227946) scale(0.1 -0.1)">
       <use xlink:href="#DejaVuSans-30"/>
       <use xlink:href="#DejaVuSans-2e" transform="translate(63.623047 0)"/>
       <use xlink:href="#DejaVuSans-38" transform="translate(95.410156 0)"/>
       <use xlink:href="#DejaVuSans-38" transform="translate(159.033203 0)"/>
      </g>
     </g>
    </g>
    <g id="ytick_2">
     <g id="line2d_15">
      <path d="M 50.14375 254.47852 
L 460.11375 254.47852 
" clip-path="url(#p014699b3f7)" style="fill: none; stroke-dasharray: 0.8,1.32; stroke-dashoffset: 0; stroke: #b0b0b0; stroke-width: 0.8"/>
     </g>
     <g id="line2d_16">
      <g>
       <use xlink:href="#me640af2ed2" x="50.14375" y="254.47852" style="stroke: #000000; stroke-width: 0.8"/>
      </g>
     </g>
     <g id="text_9">
      <!-- 0.90 -->
      <g transform="translate(20.878125 258.277739) scale(0.1 -0.1)">
       <use xlink:href="#DejaVuSans-30"/>
       <use xlink:href="#DejaVuSans-2e" transform="translate(63.623047 0)"/>
       <use xlink:href="#DejaVuSans-39" transform="translate(95.410156 0)"/>
       <use xlink:href="#DejaVuSans-30" transform="translate(159.033203 0)"/>
      </g>
     </g>
    </g>
    <g id="ytick_3">
     <g id="line2d_17">
      <path d="M 50.14375 216.528312 
L 460.11375 216.528312 
" clip-path="url(#p014699b3f7)" style="fill: none; stroke-dasharray: 0.8,1.32; stroke-dashoffset: 0; stroke: #b0b0b0; stroke-width: 0.8"/>
     </g>
     <g id="line2d_18">
      <g>
       <use xlink:href="#me640af2ed2" x="50.14375" y="216.528312" style="stroke: #000000; stroke-width: 0.8"/>
      </g>
     </g>
     <g id="text_10">
      <!-- 0.92 -->
      <g transform="translate(20.878125 220.327531) scale(0.1 -0.1)">
       <defs>
        <path id="DejaVuSans-32" d="M 1228 531 
L 3431 531 
L 3431 0 
L 469 0 
L 469 531 
Q 828 903 1448 1529 
Q 2069 2156 2228 2338 
Q 2531 2678 2651 2914 
Q 2772 3150 2772 3378 
Q 2772 3750 2511 3984 
Q 2250 4219 1831 4219 
Q 1534 4219 1204 4116 
Q 875 4013 500 3803 
L 500 4441 
Q 881 4594 1212 4672 
Q 1544 4750 1819 4750 
Q 2544 4750 2975 4387 
Q 3406 4025 3406 3419 
Q 3406 3131 3298 2873 
Q 3191 2616 2906 2266 
Q 2828 2175 2409 1742 
Q 1991 1309 1228 531 
z
" transform="scale(0.015625)"/>
       </defs>
       <use xlink:href="#DejaVuSans-30"/>
       <use xlink:href="#DejaVuSans-2e" transform="translate(63.623047 0)"/>
       <use xlink:href="#DejaVuSans-39" transform="translate(95.410156 0)"/>
       <use xlink:href="#DejaVuSans-32" transform="translate(159.033203 0)"/>
      </g>
     </g>
    </g>
    <g id="ytick_4">
     <g id="line2d_19">
      <path d="M 50.14375 178.578105 
L 460.11375 178.578105 
" clip-path="url(#p014699b3f7)" style="fill: none; stroke-dasharray: 0.8,1.32; stroke-dashoffset: 0; stroke: #b0b0b0; stroke-width: 0.8"/>
     </g>
     <g id="line2d_20">
      <g>
       <use xlink:href="#me640af2ed2" x="50.14375" y="178.578105" style="stroke: #000000; stroke-width: 0.8"/>
      </g>
     </g>
     <g id="text_11">
      <!-- 0.94 -->
      <g transform="translate(20.878125 182.377324) scale(0.1 -0.1)">
       <defs>
        <path id="DejaVuSans-34" d="M 2419 4116 
L 825 1625 
L 2419 1625 
L 2419 4116 
z
M 2253 4666 
L 3047 4666 
L 3047 1625 
L 3713 1625 
L 3713 1100 
L 3047 1100 
L 3047 0 
L 2419 0 
L 2419 1100 
L 313 1100 
L 313 1709 
L 2253 4666 
z
" transform="scale(0.015625)"/>
       </defs>
       <use xlink:href="#DejaVuSans-30"/>
       <use xlink:href="#DejaVuSans-2e" transform="translate(63.623047 0)"/>
       <use xlink:href="#DejaVuSans-39" transform="translate(95.410156 0)"/>
       <use xlink:href="#DejaVuSans-34" transform="translate(159.033203 0)"/>
      </g>
     </g>
    </g>
    <g id="ytick_5">
     <g id="line2d_21">
      <path d="M 50.14375 140.627897 
L 460.11375 140.627897 
" clip-path="url(#p014699b3f7)" style="fill: none; stroke-dasharray: 0.8,1.32; stroke-dashoffset: 0; stroke: #b0b0b0; stroke-width: 0.8"/>
     </g>
     <g id="line2d_22">
      <g>
       <use xlink:href="#me640af2ed2" x="50.14375" y="140.627897" style="stroke: #000000; stroke-width: 0.8"/>
      </g>
     </g>
     <g id="text_12">
      <!-- 0.96 -->
      <g transform="translate(20.878125 144.427116) scale(0.1 -0.1)">
       <use xlink:href="#DejaVuSans-30"/>
       <use xlink:href="#DejaVuSans-2e" transform="translate(63.623047 0)"/>
       <use xlink:href="#DejaVuSans-39" transform="translate(95.410156 0)"/>
       <use xlink:href="#DejaVuSans-36" transform="translate(159.033203 0)"/>
      </g>
     </g>
    </g>
    <g id="ytick_6">
     <g id="line2d_23">
      <path d="M 50.14375 102.67769 
L 460.11375 102.67769 
" clip-path="url(#p014699b3f7)" style="fill: none; stroke-dasharray: 0.8,1.32; stroke-dashoffset: 0; stroke: #b0b0b0; stroke-width: 0.8"/>
     </g>
     <g id="line2d_24">
      <g>
       <use xlink:href="#me640af2ed2" x="50.14375" y="102.67769" style="stroke: #000000; stroke-width: 0.8"/>
      </g>
     </g>
     <g id="text_13">
      <!-- 0.98 -->
      <g transform="translate(20.878125 106.476908) scale(0.1 -0.1)">
       <use xlink:href="#DejaVuSans-30"/>
       <use xlink:href="#DejaVuSans-2e" transform="translate(63.623047 0)"/>
       <use xlink:href="#DejaVuSans-39" transform="translate(95.410156 0)"/>
       <use xlink:href="#DejaVuSans-38" transform="translate(159.033203 0)"/>
      </g>
     </g>
    </g>
    <g id="ytick_7">
     <g id="line2d_25">
      <path d="M 50.14375 64.727482 
L 460.11375 64.727482 
" clip-path="url(#p014699b3f7)" style="fill: none; stroke-dasharray: 0.8,1.32; stroke-dashoffset: 0; stroke: #b0b0b0; stroke-width: 0.8"/>
     </g>
     <g id="line2d_26">
      <g>
       <use xlink:href="#me640af2ed2" x="50.14375" y="64.727482" style="stroke: #000000; stroke-width: 0.8"/>
      </g>
     </g>
     <g id="text_14">
      <!-- 1.00 -->
      <g transform="translate(20.878125 68.526701) scale(0.1 -0.1)">
       <use xlink:href="#DejaVuSans-31"/>
       <use xlink:href="#DejaVuSans-2e" transform="translate(63.623047 0)"/>
       <use xlink:href="#DejaVuSans-30" transform="translate(95.410156 0)"/>
       <use xlink:href="#DejaVuSans-30" transform="translate(159.033203 0)"/>
      </g>
     </g>
    </g>
    <g id="ytick_8">
     <g id="line2d_27">
      <path d="M 50.14375 26.777274 
L 460.11375 26.777274 
" clip-path="url(#p014699b3f7)" style="fill: none; stroke-dasharray: 0.8,1.32; stroke-dashoffset: 0; stroke: #b0b0b0; stroke-width: 0.8"/>
     </g>
     <g id="line2d_28">
      <g>
       <use xlink:href="#me640af2ed2" x="50.14375" y="26.777274" style="stroke: #000000; stroke-width: 0.8"/>
      </g>
     </g>
     <g id="text_15">
      <!-- 1.02 -->
      <g transform="translate(20.878125 30.576493) scale(0.1 -0.1)">
       <use xlink:href="#DejaVuSans-31"/>
       <use xlink:href="#DejaVuSans-2e" transform="translate(63.623047 0)"/>
       <use xlink:href="#DejaVuSans-30" transform="translate(95.410156 0)"/>
       <use xlink:href="#DejaVuSans-32" transform="translate(159.033203 0)"/>
      </g>
     </g>
    </g>
    <g id="text_16">
     <!-- $f\left(X,Y\right)$ -->
     <g transform="translate(14.798438 190.481839) rotate(-90) scale(0.1 -0.1)">
      <defs>
       <path id="DejaVuSans-Oblique-66" d="M 3059 4863 
L 2969 4384 
L 2419 4384 
Q 2106 4384 1964 4261 
Q 1822 4138 1753 3809 
L 1691 3500 
L 2638 3500 
L 2553 3053 
L 1606 3053 
L 1013 0 
L 434 0 
L 1031 3053 
L 481 3053 
L 563 3500 
L 1113 3500 
L 1159 3744 
Q 1278 4363 1576 4613 
Q 1875 4863 2516 4863 
L 3059 4863 
z
" transform="scale(0.015625)"/>
       <path id="DejaVuSans-28" d="M 1984 4856 
Q 1566 4138 1362 3434 
Q 1159 2731 1159 2009 
Q 1159 1288 1364 580 
Q 1569 -128 1984 -844 
L 1484 -844 
Q 1016 -109 783 600 
Q 550 1309 550 2009 
Q 550 2706 781 3412 
Q 1013 4119 1484 4856 
L 1984 4856 
z
" transform="scale(0.015625)"/>
       <path id="DejaVuSans-Oblique-58" d="M 878 4666 
L 1516 4666 
L 2316 2981 
L 3763 4666 
L 4500 4666 
L 2578 2438 
L 3738 0 
L 3103 0 
L 2163 1966 
L 459 0 
L -275 0 
L 1906 2509 
L 878 4666 
z
" transform="scale(0.015625)"/>
       <path id="DejaVuSans-2c" d="M 750 794 
L 1409 794 
L 1409 256 
L 897 -744 
L 494 -744 
L 750 256 
L 750 794 
z
" transform="scale(0.015625)"/>
       <path id="DejaVuSans-29" d="M 513 4856 
L 1013 4856 
Q 1481 4119 1714 3412 
Q 1947 2706 1947 2009 
Q 1947 1309 1714 600 
Q 1481 -109 1013 -844 
L 513 -844 
Q 928 -128 1133 580 
Q 1338 1288 1338 2009 
Q 1338 2731 1133 3434 
Q 928 4138 513 4856 
z
" transform="scale(0.015625)"/>
      </defs>
      <use xlink:href="#DejaVuSans-Oblique-66" transform="translate(0 0.015625)"/>
      <use xlink:href="#DejaVuSans-28" transform="translate(35.205078 0.015625)"/>
      <use xlink:href="#DejaVuSans-Oblique-58" transform="translate(74.21875 0.015625)"/>
      <use xlink:href="#DejaVuSans-2c" transform="translate(142.724609 0.015625)"/>
      <use xlink:href="#DejaVuSans-Oblique-59" transform="translate(193.994141 0.015625)"/>
      <use xlink:href="#DejaVuSans-29" transform="translate(255.078125 0.015625)"/>
     </g>
    </g>
   </g>
   <g id="line2d_29">
    <defs>
     <path id="mcfdb08d1bc" d="M -3 3 
L 3 -3 
M -3 -3 
L 3 3 
" style="stroke: #1f77b4; stroke-width: 2"/>
    </defs>
    <g clip-path="url(#p014699b3f7)">
     <use xlink:href="#mcfdb08d1bc" x="68.77875" y="307.608811" style="fill: #1f77b4; stroke: #1f77b4; stroke-width: 2"/>
     <use xlink:href="#mcfdb08d1bc" x="81.910797" y="282.941176" style="fill: #1f77b4; stroke: #1f77b4; stroke-width: 2"/>
     <use xlink:href="#mcfdb08d1bc" x="95.042844" y="258.273541" style="fill: #1f77b4; stroke: #1f77b4; stroke-width: 2"/>
     <use xlink:href="#mcfdb08d1bc" x="108.174891" y="233.605906" style="fill: #1f77b4; stroke: #1f77b4; stroke-width: 2"/>
     <use xlink:href="#mcfdb08d1bc" x="120.681602" y="207.040761" style="fill: #1f77b4; stroke: #1f77b4; stroke-width: 2"/>
     <use xlink:href="#mcfdb08d1bc" x="132.562978" y="178.578105" style="fill: #1f77b4; stroke: #1f77b4; stroke-width: 2"/>
     <use xlink:href="#mcfdb08d1bc" x="145.695025" y="169.090553" style="fill: #1f77b4; stroke: #1f77b4; stroke-width: 2"/>
     <use xlink:href="#mcfdb08d1bc" x="155.075059" y="205.14325" style="fill: #1f77b4; stroke: #1f77b4; stroke-width: 2"/>
     <use xlink:href="#mcfdb08d1bc" x="160.077743" y="248.785989" style="fill: #1f77b4; stroke: #1f77b4; stroke-width: 2"/>
     <use xlink:href="#mcfdb08d1bc" x="163.829757" y="294.326238" style="fill: #1f77b4; stroke: #1f77b4; stroke-width: 2"/>
    </g>
   </g>
   <g id="line2d_30">
    <defs>
     <path id="m89c8543ebc" d="M -3 3 
L 3 -3 
M -3 -3 
L 3 3 
" style="stroke: #ff7f0e; stroke-width: 2"/>
    </defs>
    <g clip-path="url(#p014699b3f7)">
     <use xlink:href="#m89c8543ebc" x="150.072374" y="279.146155" style="fill: #ff7f0e; stroke: #ff7f0e; stroke-width: 2"/>
     <use xlink:href="#m89c8543ebc" x="159.452408" y="237.400927" style="fill: #ff7f0e; stroke: #ff7f0e; stroke-width: 2"/>
     <use xlink:href="#m89c8543ebc" x="168.832441" y="197.553209" style="fill: #ff7f0e; stroke: #ff7f0e; stroke-width: 2"/>
     <use xlink:href="#m89c8543ebc" x="181.339153" y="165.295532" style="fill: #ff7f0e; stroke: #ff7f0e; stroke-width: 2"/>
     <use xlink:href="#m89c8543ebc" x="193.845864" y="134.935366" style="fill: #ff7f0e; stroke: #ff7f0e; stroke-width: 2"/>
     <use xlink:href="#m89c8543ebc" x="209.479253" y="119.755283" style="fill: #ff7f0e; stroke: #ff7f0e; stroke-width: 2"/>
     <use xlink:href="#m89c8543ebc" x="220.735294" y="131.140345" style="fill: #ff7f0e; stroke: #ff7f0e; stroke-width: 2"/>
     <use xlink:href="#m89c8543ebc" x="225.112643" y="180.475615" style="fill: #ff7f0e; stroke: #ff7f0e; stroke-width: 2"/>
     <use xlink:href="#m89c8543ebc" x="225.737978" y="229.810885" style="fill: #ff7f0e; stroke: #ff7f0e; stroke-width: 2"/>
     <use xlink:href="#m89c8543ebc" x="226.988649" y="279.146155" style="fill: #ff7f0e; stroke: #ff7f0e; stroke-width: 2"/>
    </g>
   </g>
   <g id="line2d_31">
    <defs>
     <path id="mfd0e933647" d="M -3 3 
L 3 -3 
M -3 -3 
L 3 3 
" style="stroke: #2ca02c; stroke-width: 2"/>
    </defs>
    <g clip-path="url(#p014699b3f7)">
     <use xlink:href="#mfd0e933647" x="260.75677" y="271.556114" style="fill: #2ca02c; stroke: #2ca02c; stroke-width: 2"/>
     <use xlink:href="#mfd0e933647" x="284.519522" y="220.323333" style="fill: #2ca02c; stroke: #2ca02c; stroke-width: 2"/>
     <use xlink:href="#mfd0e933647" x="305.155596" y="167.193043" style="fill: #2ca02c; stroke: #2ca02c; stroke-width: 2"/>
     <use xlink:href="#mfd0e933647" x="318.287643" y="115.960262" style="fill: #2ca02c; stroke: #2ca02c; stroke-width: 2"/>
     <use xlink:href="#mfd0e933647" x="325.166334" y="62.829972" style="fill: #2ca02c; stroke: #2ca02c; stroke-width: 2"/>
     <use xlink:href="#mfd0e933647" x="328.918347" y="38.162337" style="fill: #2ca02c; stroke: #2ca02c; stroke-width: 2"/>
     <use xlink:href="#mfd0e933647" x="330.169018" y="36.264826" style="fill: #2ca02c; stroke: #2ca02c; stroke-width: 2"/>
     <use xlink:href="#mfd0e933647" x="330.169018" y="91.292627" style="fill: #2ca02c; stroke: #2ca02c; stroke-width: 2"/>
     <use xlink:href="#mfd0e933647" x="330.794354" y="150.115449" style="fill: #2ca02c; stroke: #2ca02c; stroke-width: 2"/>
     <use xlink:href="#mfd0e933647" x="331.41969" y="207.040761" style="fill: #2ca02c; stroke: #2ca02c; stroke-width: 2"/>
    </g>
   </g>
   <g id="line2d_32">
    <defs>
     <path id="m20a4ddcb47" d="M -3 3 
L 3 -3 
M -3 -3 
L 3 3 
" style="stroke: #d62728; stroke-width: 2"/>
    </defs>
    <g clip-path="url(#p014699b3f7)">
     <use xlink:href="#m20a4ddcb47" x="327.667676" y="108.370221" style="fill: #d62728; stroke: #d62728; stroke-width: 2"/>
     <use xlink:href="#m20a4ddcb47" x="348.929086" y="108.370221" style="fill: #d62728; stroke: #d62728; stroke-width: 2"/>
     <use xlink:href="#m20a4ddcb47" x="362.686468" y="100.780179" style="fill: #d62728; stroke: #d62728; stroke-width: 2"/>
     <use xlink:href="#m20a4ddcb47" x="370.815831" y="74.215034" style="fill: #d62728; stroke: #d62728; stroke-width: 2"/>
     <use xlink:href="#m20a4ddcb47" x="377.069186" y="51.444909" style="fill: #d62728; stroke: #d62728; stroke-width: 2"/>
     <use xlink:href="#m20a4ddcb47" x="382.071871" y="60.932461" style="fill: #d62728; stroke: #d62728; stroke-width: 2"/>
     <use xlink:href="#m20a4ddcb47" x="382.697206" y="100.780179" style="fill: #d62728; stroke: #d62728; stroke-width: 2"/>
     <use xlink:href="#m20a4ddcb47" x="383.322542" y="138.730387" style="fill: #d62728; stroke: #d62728; stroke-width: 2"/>
     <use xlink:href="#m20a4ddcb47" x="383.322542" y="178.578105" style="fill: #d62728; stroke: #d62728; stroke-width: 2"/>
     <use xlink:href="#m20a4ddcb47" x="383.947878" y="216.528312" style="fill: #d62728; stroke: #d62728; stroke-width: 2"/>
    </g>
   </g>
   <g id="line2d_33">
    <defs>
     <path id="mc891c19b76" d="M -3 3 
L 3 -3 
M -3 -3 
L 3 3 
" style="stroke: #9467bd; stroke-width: 2"/>
    </defs>
    <g clip-path="url(#p014699b3f7)">
     <use xlink:href="#mc891c19b76" x="373.942508" y="148.217939" style="fill: #9467bd; stroke: #9467bd; stroke-width: 2"/>
     <use xlink:href="#mc891c19b76" x="390.201233" y="142.525408" style="fill: #9467bd; stroke: #9467bd; stroke-width: 2"/>
     <use xlink:href="#mc891c19b76" x="398.330596" y="123.550304" style="fill: #9467bd; stroke: #9467bd; stroke-width: 2"/>
     <use xlink:href="#mc891c19b76" x="403.33328" y="95.087648" style="fill: #9467bd; stroke: #9467bd; stroke-width: 2"/>
     <use xlink:href="#mc891c19b76" x="406.459958" y="64.727482" style="fill: #9467bd; stroke: #9467bd; stroke-width: 2"/>
     <use xlink:href="#mc891c19b76" x="407.710629" y="93.190138" style="fill: #9467bd; stroke: #9467bd; stroke-width: 2"/>
     <use xlink:href="#mc891c19b76" x="409.586636" y="127.345325" style="fill: #9467bd; stroke: #9467bd; stroke-width: 2"/>
     <use xlink:href="#mc891c19b76" x="409.586636" y="159.603001" style="fill: #9467bd; stroke: #9467bd; stroke-width: 2"/>
     <use xlink:href="#mc891c19b76" x="410.211971" y="193.758188" style="fill: #9467bd; stroke: #9467bd; stroke-width: 2"/>
     <use xlink:href="#mc891c19b76" x="410.211971" y="227.913375" style="fill: #9467bd; stroke: #9467bd; stroke-width: 2"/>
    </g>
   </g>
   <g id="line2d_34">
    <defs>
     <path id="m707b07b172" d="M -3 3 
L 3 -3 
M -3 -3 
L 3 3 
" style="stroke: #8c564b; stroke-width: 2"/>
    </defs>
    <g clip-path="url(#p014699b3f7)">
     <use xlink:href="#m707b07b172" x="415.214656" y="163.398022" style="fill: #8c564b; stroke: #8c564b; stroke-width: 2"/>
     <use xlink:href="#m707b07b172" x="417.090663" y="142.525408" style="fill: #8c564b; stroke: #8c564b; stroke-width: 2"/>
     <use xlink:href="#m707b07b172" x="418.966669" y="136.832876" style="fill: #8c564b; stroke: #8c564b; stroke-width: 2"/>
     <use xlink:href="#m707b07b172" x="420.842676" y="161.500511" style="fill: #8c564b; stroke: #8c564b; stroke-width: 2"/>
     <use xlink:href="#m707b07b172" x="422.718683" y="188.065657" style="fill: #8c564b; stroke: #8c564b; stroke-width: 2"/>
     <use xlink:href="#m707b07b172" x="423.969354" y="212.733292" style="fill: #8c564b; stroke: #8c564b; stroke-width: 2"/>
     <use xlink:href="#m707b07b172" x="425.220025" y="239.298437" style="fill: #8c564b; stroke: #8c564b; stroke-width: 2"/>
     <use xlink:href="#m707b07b172" x="426.470696" y="263.966072" style="fill: #8c564b; stroke: #8c564b; stroke-width: 2"/>
     <use xlink:href="#m707b07b172" x="427.721367" y="290.531217" style="fill: #8c564b; stroke: #8c564b; stroke-width: 2"/>
     <use xlink:href="#m707b07b172" x="428.972039" y="315.198852" style="fill: #8c564b; stroke: #8c564b; stroke-width: 2"/>
    </g>
   </g>
   <g id="line2d_35">
    <defs>
     <path id="md20d4cc207" d="M -3 3 
L 3 -3 
M -3 -3 
L 3 3 
" style="stroke: #e377c2; stroke-width: 2"/>
    </defs>
    <g clip-path="url(#p014699b3f7)">
     <use xlink:href="#md20d4cc207" x="434.600059" y="294.326238" style="fill: #e377c2; stroke: #e377c2; stroke-width: 2"/>
     <use xlink:href="#md20d4cc207" x="435.85073" y="277.248645" style="fill: #e377c2; stroke: #e377c2; stroke-width: 2"/>
     <use xlink:href="#md20d4cc207" x="437.101401" y="258.273541" style="fill: #e377c2; stroke: #e377c2; stroke-width: 2"/>
     <use xlink:href="#md20d4cc207" x="438.352072" y="241.195947" style="fill: #e377c2; stroke: #e377c2; stroke-width: 2"/>
     <use xlink:href="#md20d4cc207" x="438.977408" y="224.118354" style="fill: #e377c2; stroke: #e377c2; stroke-width: 2"/>
     <use xlink:href="#md20d4cc207" x="439.602743" y="208.938271" style="fill: #e377c2; stroke: #e377c2; stroke-width: 2"/>
     <use xlink:href="#md20d4cc207" x="440.228079" y="226.015864" style="fill: #e377c2; stroke: #e377c2; stroke-width: 2"/>
     <use xlink:href="#md20d4cc207" x="440.228079" y="243.093458" style="fill: #e377c2; stroke: #e377c2; stroke-width: 2"/>
     <use xlink:href="#md20d4cc207" x="440.853414" y="262.068562" style="fill: #e377c2; stroke: #e377c2; stroke-width: 2"/>
     <use xlink:href="#md20d4cc207" x="441.47875" y="279.146155" style="fill: #e377c2; stroke: #e377c2; stroke-width: 2"/>
    </g>
   </g>
   <g id="patch_3">
    <path d="M 50.14375 329.145554 
L 50.14375 22.318125 
" style="fill: none; stroke: #000000; stroke-width: 0.8; stroke-linejoin: miter; stroke-linecap: square"/>
   </g>
   <g id="patch_4">
    <path d="M 460.11375 329.145554 
L 460.11375 22.318125 
" style="fill: none; stroke: #000000; stroke-width: 0.8; stroke-linejoin: miter; stroke-linecap: square"/>
   </g>
   <g id="patch_5">
    <path d="M 50.14375 329.145554 
L 460.11375 329.145554 
" style="fill: none; stroke: #000000; stroke-width: 0.8; stroke-linejoin: miter; stroke-linecap: square"/>
   </g>
   <g id="patch_6">
    <path d="M 50.14375 22.318125 
L 460.11375 22.318125 
" style="fill: none; stroke: #000000; stroke-width: 0.8; stroke-linejoin: miter; stroke-linecap: square"/>
   </g>
   <g id="text_17">
    <!-- Characteristic line "DEFAULT" for parameter "char_map_eta_s". -->
    <g transform="translate(65.745313 16.318125) scale(0.12 -0.12)">
     <defs>
      <path id="DejaVuSans-43" d="M 4122 4306 
L 4122 3641 
Q 3803 3938 3442 4084 
Q 3081 4231 2675 4231 
Q 1875 4231 1450 3742 
Q 1025 3253 1025 2328 
Q 1025 1406 1450 917 
Q 1875 428 2675 428 
Q 3081 428 3442 575 
Q 3803 722 4122 1019 
L 4122 359 
Q 3791 134 3420 21 
Q 3050 -91 2638 -91 
Q 1578 -91 968 557 
Q 359 1206 359 2328 
Q 359 3453 968 4101 
Q 1578 4750 2638 4750 
Q 3056 4750 3426 4639 
Q 3797 4528 4122 4306 
z
" transform="scale(0.015625)"/>
      <path id="DejaVuSans-68" d="M 3513 2113 
L 3513 0 
L 2938 0 
L 2938 2094 
Q 2938 2591 2744 2837 
Q 2550 3084 2163 3084 
Q 1697 3084 1428 2787 
Q 1159 2491 1159 1978 
L 1159 0 
L 581 0 
L 581 4863 
L 1159 4863 
L 1159 2956 
Q 1366 3272 1645 3428 
Q 1925 3584 2291 3584 
Q 2894 3584 3203 3211 
Q 3513 2838 3513 2113 
z
" transform="scale(0.015625)"/>
      <path id="DejaVuSans-61" d="M 2194 1759 
Q 1497 1759 1228 1600 
Q 959 1441 959 1056 
Q 959 750 1161 570 
Q 1363 391 1709 391 
Q 2188 391 2477 730 
Q 2766 1069 2766 1631 
L 2766 1759 
L 2194 1759 
z
M 3341 1997 
L 3341 0 
L 2766 0 
L 2766 531 
Q 2569 213 2275 61 
Q 1981 -91 1556 -91 
Q 1019 -91 701 211 
Q 384 513 384 1019 
Q 384 1609 779 1909 
Q 1175 2209 1959 2209 
L 2766 2209 
L 2766 2266 
Q 2766 2663 2505 2880 
Q 2244 3097 1772 3097 
Q 1472 3097 1187 3025 
Q 903 2953 641 2809 
L 641 3341 
Q 956 3463 1253 3523 
Q 1550 3584 1831 3584 
Q 2591 3584 2966 3190 
Q 3341 2797 3341 1997 
z
" transform="scale(0.015625)"/>
      <path id="DejaVuSans-72" d="M 2631 2963 
Q 2534 3019 2420 3045 
Q 2306 3072 2169 3072 
Q 1681 3072 1420 2755 
Q 1159 2438 1159 1844 
L 1159 0 
L 581 0 
L 581 3500 
L 1159 3500 
L 1159 2956 
Q 1341 3275 1631 3429 
Q 1922 3584 2338 3584 
Q 2397 3584 2469 3576 
Q 2541 3569 2628 3553 
L 2631 2963 
z
" transform="scale(0.015625)"/>
      <path id="DejaVuSans-63" d="M 3122 3366 
L 3122 2828 
Q 2878 2963 2633 3030 
Q 2388 3097 2138 3097 
Q 1578 3097 1268 2742 
Q 959 2388 959 1747 
Q 959 1106 1268 751 
Q 1578 397 2138 397 
Q 2388 397 2633 464 
Q 2878 531 3122 666 
L 3122 134 
Q 2881 22 2623 -34 
Q 2366 -91 2075 -91 
Q 1284 -91 818 406 
Q 353 903 353 1747 
Q 353 2603 823 3093 
Q 1294 3584 2113 3584 
Q 2378 3584 2631 3529 
Q 2884 3475 3122 3366 
z
" transform="scale(0.015625)"/>
      <path id="DejaVuSans-74" d="M 1172 4494 
L 1172 3500 
L 2356 3500 
L 2356 3053 
L 1172 3053 
L 1172 1153 
Q 1172 725 1289 603 
Q 1406 481 1766 481 
L 2356 481 
L 2356 0 
L 1766 0 
Q 1100 0 847 248 
Q 594 497 594 1153 
L 594 3053 
L 172 3053 
L 172 3500 
L 594 3500 
L 594 4494 
L 1172 4494 
z
" transform="scale(0.015625)"/>
      <path id="DejaVuSans-65" d="M 3597 1894 
L 3597 1613 
L 953 1613 
Q 991 1019 1311 708 
Q 1631 397 2203 397 
Q 2534 397 2845 478 
Q 3156 559 3463 722 
L 3463 178 
Q 3153 47 2828 -22 
Q 2503 -91 2169 -91 
Q 1331 -91 842 396 
Q 353 884 353 1716 
Q 353 2575 817 3079 
Q 1281 3584 2069 3584 
Q 2775 3584 3186 3129 
Q 3597 2675 3597 1894 
z
M 3022 2063 
Q 3016 2534 2758 2815 
Q 2500 3097 2075 3097 
Q 1594 3097 1305 2825 
Q 1016 2553 972 2059 
L 3022 2063 
z
" transform="scale(0.015625)"/>
      <path id="DejaVuSans-69" d="M 603 3500 
L 1178 3500 
L 1178 0 
L 603 0 
L 603 3500 
z
M 603 4863 
L 1178 4863 
L 1178 4134 
L 603 4134 
L 603 4863 
z
" transform="scale(0.015625)"/>
      <path id="DejaVuSans-73" d="M 2834 3397 
L 2834 2853 
Q 2591 2978 2328 3040 
Q 2066 3103 1784 3103 
Q 1356 3103 1142 2972 
Q 928 2841 928 2578 
Q 928 2378 1081 2264 
Q 1234 2150 1697 2047 
L 1894 2003 
Q 2506 1872 2764 1633 
Q 3022 1394 3022 966 
Q 3022 478 2636 193 
Q 2250 -91 1575 -91 
Q 1294 -91 989 -36 
Q 684 19 347 128 
L 347 722 
Q 666 556 975 473 
Q 1284 391 1588 391 
Q 1994 391 2212 530 
Q 2431 669 2431 922 
Q 2431 1156 2273 1281 
Q 2116 1406 1581 1522 
L 1381 1569 
Q 847 1681 609 1914 
Q 372 2147 372 2553 
Q 372 3047 722 3315 
Q 1072 3584 1716 3584 
Q 2034 3584 2315 3537 
Q 2597 3491 2834 3397 
z
" transform="scale(0.015625)"/>
      <path id="DejaVuSans-20" transform="scale(0.015625)"/>
      <path id="DejaVuSans-6c" d="M 603 4863 
L 1178 4863 
L 1178 0 
L 603 0 
L 603 4863 
z
" transform="scale(0.015625)"/>
      <path id="DejaVuSans-6e" d="M 3513 2113 
L 3513 0 
L 2938 0 
L 2938 2094 
Q 2938 2591 2744 2837 
Q 2550 3084 2163 3084 
Q 1697 3084 1428 2787 
Q 1159 2491 1159 1978 
L 1159 0 
L 581 0 
L 581 3500 
L 1159 3500 
L 1159 2956 
Q 1366 3272 1645 3428 
Q 1925 3584 2291 3584 
Q 2894 3584 3203 3211 
Q 3513 2838 3513 2113 
z
" transform="scale(0.015625)"/>
      <path id="DejaVuSans-22" d="M 1147 4666 
L 1147 2931 
L 616 2931 
L 616 4666 
L 1147 4666 
z
M 2328 4666 
L 2328 2931 
L 1797 2931 
L 1797 4666 
L 2328 4666 
z
" transform="scale(0.015625)"/>
      <path id="DejaVuSans-44" d="M 1259 4147 
L 1259 519 
L 2022 519 
Q 2988 519 3436 956 
Q 3884 1394 3884 2338 
Q 3884 3275 3436 3711 
Q 2988 4147 2022 4147 
L 1259 4147 
z
M 628 4666 
L 1925 4666 
Q 3281 4666 3915 4102 
Q 4550 3538 4550 2338 
Q 4550 1131 3912 565 
Q 3275 0 1925 0 
L 628 0 
L 628 4666 
z
" transform="scale(0.015625)"/>
      <path id="DejaVuSans-45" d="M 628 4666 
L 3578 4666 
L 3578 4134 
L 1259 4134 
L 1259 2753 
L 3481 2753 
L 3481 2222 
L 1259 2222 
L 1259 531 
L 3634 531 
L 3634 0 
L 628 0 
L 628 4666 
z
" transform="scale(0.015625)"/>
      <path id="DejaVuSans-46" d="M 628 4666 
L 3309 4666 
L 3309 4134 
L 1259 4134 
L 1259 2759 
L 3109 2759 
L 3109 2228 
L 1259 2228 
L 1259 0 
L 628 0 
L 628 4666 
z
" transform="scale(0.015625)"/>
      <path id="DejaVuSans-41" d="M 2188 4044 
L 1331 1722 
L 3047 1722 
L 2188 4044 
z
M 1831 4666 
L 2547 4666 
L 4325 0 
L 3669 0 
L 3244 1197 
L 1141 1197 
L 716 0 
L 50 0 
L 1831 4666 
z
" transform="scale(0.015625)"/>
      <path id="DejaVuSans-55" d="M 556 4666 
L 1191 4666 
L 1191 1831 
Q 1191 1081 1462 751 
Q 1734 422 2344 422 
Q 2950 422 3222 751 
Q 3494 1081 3494 1831 
L 3494 4666 
L 4128 4666 
L 4128 1753 
Q 4128 841 3676 375 
Q 3225 -91 2344 -91 
Q 1459 -91 1007 375 
Q 556 841 556 1753 
L 556 4666 
z
" transform="scale(0.015625)"/>
      <path id="DejaVuSans-4c" d="M 628 4666 
L 1259 4666 
L 1259 531 
L 3531 531 
L 3531 0 
L 628 0 
L 628 4666 
z
" transform="scale(0.015625)"/>
      <path id="DejaVuSans-54" d="M -19 4666 
L 3928 4666 
L 3928 4134 
L 2272 4134 
L 2272 0 
L 1638 0 
L 1638 4134 
L -19 4134 
L -19 4666 
z
" transform="scale(0.015625)"/>
      <path id="DejaVuSans-66" d="M 2375 4863 
L 2375 4384 
L 1825 4384 
Q 1516 4384 1395 4259 
Q 1275 4134 1275 3809 
L 1275 3500 
L 2222 3500 
L 2222 3053 
L 1275 3053 
L 1275 0 
L 697 0 
L 697 3053 
L 147 3053 
L 147 3500 
L 697 3500 
L 697 3744 
Q 697 4328 969 4595 
Q 1241 4863 1831 4863 
L 2375 4863 
z
" transform="scale(0.015625)"/>
      <path id="DejaVuSans-6f" d="M 1959 3097 
Q 1497 3097 1228 2736 
Q 959 2375 959 1747 
Q 959 1119 1226 758 
Q 1494 397 1959 397 
Q 2419 397 2687 759 
Q 2956 1122 2956 1747 
Q 2956 2369 2687 2733 
Q 2419 3097 1959 3097 
z
M 1959 3584 
Q 2709 3584 3137 3096 
Q 3566 2609 3566 1747 
Q 3566 888 3137 398 
Q 2709 -91 1959 -91 
Q 1206 -91 779 398 
Q 353 888 353 1747 
Q 353 2609 779 3096 
Q 1206 3584 1959 3584 
z
" transform="scale(0.015625)"/>
      <path id="DejaVuSans-70" d="M 1159 525 
L 1159 -1331 
L 581 -1331 
L 581 3500 
L 1159 3500 
L 1159 2969 
Q 1341 3281 1617 3432 
Q 1894 3584 2278 3584 
Q 2916 3584 3314 3078 
Q 3713 2572 3713 1747 
Q 3713 922 3314 415 
Q 2916 -91 2278 -91 
Q 1894 -91 1617 61 
Q 1341 213 1159 525 
z
M 3116 1747 
Q 3116 2381 2855 2742 
Q 2594 3103 2138 3103 
Q 1681 3103 1420 2742 
Q 1159 2381 1159 1747 
Q 1159 1113 1420 752 
Q 1681 391 2138 391 
Q 2594 391 2855 752 
Q 3116 1113 3116 1747 
z
" transform="scale(0.015625)"/>
      <path id="DejaVuSans-6d" d="M 3328 2828 
Q 3544 3216 3844 3400 
Q 4144 3584 4550 3584 
Q 5097 3584 5394 3201 
Q 5691 2819 5691 2113 
L 5691 0 
L 5113 0 
L 5113 2094 
Q 5113 2597 4934 2840 
Q 4756 3084 4391 3084 
Q 3944 3084 3684 2787 
Q 3425 2491 3425 1978 
L 3425 0 
L 2847 0 
L 2847 2094 
Q 2847 2600 2669 2842 
Q 2491 3084 2119 3084 
Q 1678 3084 1418 2786 
Q 1159 2488 1159 1978 
L 1159 0 
L 581 0 
L 581 3500 
L 1159 3500 
L 1159 2956 
Q 1356 3278 1631 3431 
Q 1906 3584 2284 3584 
Q 2666 3584 2933 3390 
Q 3200 3197 3328 2828 
z
" transform="scale(0.015625)"/>
      <path id="DejaVuSans-5f" d="M 3263 -1063 
L 3263 -1509 
L -63 -1509 
L -63 -1063 
L 3263 -1063 
z
" transform="scale(0.015625)"/>
     </defs>
     <use xlink:href="#DejaVuSans-43"/>
     <use xlink:href="#DejaVuSans-68" transform="translate(69.824219 0)"/>
     <use xlink:href="#DejaVuSans-61" transform="translate(133.203125 0)"/>
     <use xlink:href="#DejaVuSans-72" transform="translate(194.482422 0)"/>
     <use xlink:href="#DejaVuSans-61" transform="translate(235.595703 0)"/>
     <use xlink:href="#DejaVuSans-63" transform="translate(296.875 0)"/>
     <use xlink:href="#DejaVuSans-74" transform="translate(351.855469 0)"/>
     <use xlink:href="#DejaVuSans-65" transform="translate(391.064453 0)"/>
     <use xlink:href="#DejaVuSans-72" transform="translate(452.587891 0)"/>
     <use xlink:href="#DejaVuSans-69" transform="translate(493.701172 0)"/>
     <use xlink:href="#DejaVuSans-73" transform="translate(521.484375 0)"/>
     <use xlink:href="#DejaVuSans-74" transform="translate(573.583984 0)"/>
     <use xlink:href="#DejaVuSans-69" transform="translate(612.792969 0)"/>
     <use xlink:href="#DejaVuSans-63" transform="translate(640.576172 0)"/>
     <use xlink:href="#DejaVuSans-20" transform="translate(695.556641 0)"/>
     <use xlink:href="#DejaVuSans-6c" transform="translate(727.34375 0)"/>
     <use xlink:href="#DejaVuSans-69" transform="translate(755.126953 0)"/>
     <use xlink:href="#DejaVuSans-6e" transform="translate(782.910156 0)"/>
     <use xlink:href="#DejaVuSans-65" transform="translate(846.289062 0)"/>
     <use xlink:href="#DejaVuSans-20" transform="translate(907.8125 0)"/>
     <use xlink:href="#DejaVuSans-22" transform="translate(939.599609 0)"/>
     <use xlink:href="#DejaVuSans-44" transform="translate(985.595703 0)"/>
     <use xlink:href="#DejaVuSans-45" transform="translate(1062.597656 0)"/>
     <use xlink:href="#DejaVuSans-46" transform="translate(1125.78125 0)"/>
     <use xlink:href="#DejaVuSans-41" transform="translate(1174.175781 0)"/>
     <use xlink:href="#DejaVuSans-55" transform="translate(1242.583984 0)"/>
     <use xlink:href="#DejaVuSans-4c" transform="translate(1315.777344 0)"/>
     <use xlink:href="#DejaVuSans-54" transform="translate(1357.740234 0)"/>
     <use xlink:href="#DejaVuSans-22" transform="translate(1418.824219 0)"/>
     <use xlink:href="#DejaVuSans-20" transform="translate(1464.820312 0)"/>
     <use xlink:href="#DejaVuSans-66" transform="translate(1496.607422 0)"/>
     <use xlink:href="#DejaVuSans-6f" transform="translate(1531.8125 0)"/>
     <use xlink:href="#DejaVuSans-72" transform="translate(1592.994141 0)"/>
     <use xlink:href="#DejaVuSans-20" transform="translate(1634.107422 0)"/>
     <use xlink:href="#DejaVuSans-70" transform="translate(1665.894531 0)"/>
     <use xlink:href="#DejaVuSans-61" transform="translate(1729.371094 0)"/>
     <use xlink:href="#DejaVuSans-72" transform="translate(1790.650391 0)"/>
     <use xlink:href="#DejaVuSans-61" transform="translate(1831.763672 0)"/>
     <use xlink:href="#DejaVuSans-6d" transform="translate(1893.042969 0)"/>
     <use xlink:href="#DejaVuSans-65" transform="translate(1990.455078 0)"/>
     <use xlink:href="#DejaVuSans-74" transform="translate(2051.978516 0)"/>
     <use xlink:href="#DejaVuSans-65" transform="translate(2091.1875 0)"/>
     <use xlink:href="#DejaVuSans-72" transform="translate(2152.710938 0)"/>
     <use xlink:href="#DejaVuSans-20" transform="translate(2193.824219 0)"/>
     <use xlink:href="#DejaVuSans-22" transform="translate(2225.611328 0)"/>
     <use xlink:href="#DejaVuSans-63" transform="translate(2271.607422 0)"/>
     <use xlink:href="#DejaVuSans-68" transform="translate(2326.587891 0)"/>
     <use xlink:href="#DejaVuSans-61" transform="translate(2389.966797 0)"/>
     <use xlink:href="#DejaVuSans-72" transform="translate(2451.246094 0)"/>
     <use xlink:href="#DejaVuSans-5f" transform="translate(2492.359375 0)"/>
     <use xlink:href="#DejaVuSans-6d" transform="translate(2542.359375 0)"/>
     <use xlink:href="#DejaVuSans-61" transform="translate(2639.771484 0)"/>
     <use xlink:href="#DejaVuSans-70" transform="translate(2701.050781 0)"/>
     <use xlink:href="#DejaVuSans-5f" transform="translate(2764.527344 0)"/>
     <use xlink:href="#DejaVuSans-65" transform="translate(2814.527344 0)"/>
     <use xlink:href="#DejaVuSans-74" transform="translate(2876.050781 0)"/>
     <use xlink:href="#DejaVuSans-61" transform="translate(2915.259766 0)"/>
     <use xlink:href="#DejaVuSans-5f" transform="translate(2976.539062 0)"/>
     <use xlink:href="#DejaVuSans-73" transform="translate(3026.539062 0)"/>
     <use xlink:href="#DejaVuSans-22" transform="translate(3078.638672 0)"/>
     <use xlink:href="#DejaVuSans-2e" transform="translate(3124.634766 0)"/>
    </g>
   </g>
  </g>
 </g>
 <defs>
  <clipPath id="p014699b3f7">
   <rect x="50.14375" y="22.318125" width="409.97" height="306.827429"/>
  </clipPath>
 </defs>
</svg>
