<?xml version="1.0" encoding="utf-8" standalone="no"?>
<!DOCTYPE svg PUBLIC "-//W3C//DTD SVG 1.1//EN"
  "http://www.w3.org/Graphics/SVG/1.1/DTD/svg11.dtd">
<svg xmlns:xlink="http://www.w3.org/1999/xlink" width="612.165625pt" height="377.39625pt" viewBox="0 0 612.165625 377.39625" xmlns="http://www.w3.org/2000/svg" version="1.1">
 <metadata>
  <rdf:RDF xmlns:dc="http://purl.org/dc/elements/1.1/" xmlns:cc="http://creativecommons.org/ns#" xmlns:rdf="http://www.w3.org/1999/02/22-rdf-syntax-ns#">
   <cc:Work>
    <dc:type rdf:resource="http://purl.org/dc/dcmitype/StillImage"/>
    <dc:date>2025-10-17T14:20:52.836812</dc:date>
    <dc:format>image/svg+xml</dc:format>
    <dc:creator>
     <cc:Agent>
      <dc:title>Matplotlib v3.10.6, https://matplotlib.org/</dc:title>
     </cc:Agent>
    </dc:creator>
   </cc:Work>
  </rdf:RDF>
 </metadata>
 <defs>
  <style type="text/css">*{stroke-linejoin: round; stroke-linecap: butt}</style>
 </defs>
 <g id="figure_1">
  <g id="patch_1">
   <path d="M 0 377.39625 
L 612.165625 377.39625 
L 612.165625 0 
L 0 0 
z
"/>
  </g>
  <g id="axes_1">
   <g id="patch_2">
    <path d="M 46.965625 339.84 
L 604.965625 339.84 
L 604.965625 7.2 
L 46.965625 7.2 
z
"/>
   </g>
   <g id="matplotlib.axis_1">
    <g id="xtick_1">
     <g id="line2d_1">
      <defs>
       <path id="m1942b81367" d="M 0 0 
L 0 3.5 
" style="stroke: #ffffff; stroke-width: 0.8"/>
      </defs>
      <g>
       <use xlink:href="#m1942b81367" x="72.329261" y="339.84" style="fill: #ffffff; stroke: #ffffff; stroke-width: 0.8"/>
      </g>
     </g>
     <g id="text_1">
      <!-- 0.00 -->
      <g style="fill: #ffffff" transform="translate(61.196449 354.438438) scale(0.1 -0.1)">
       <defs>
        <path id="DejaVuSans-30" d="M 2034 4250 
Q 1547 4250 1301 3770 
Q 1056 3291 1056 2328 
Q 1056 1369 1301 889 
Q 1547 409 2034 409 
Q 2525 409 2770 889 
Q 3016 1369 3016 2328 
Q 3016 3291 2770 3770 
Q 2525 4250 2034 4250 
z
M 2034 4750 
Q 2819 4750 3233 4129 
Q 3647 3509 3647 2328 
Q 3647 1150 3233 529 
Q 2819 -91 2034 -91 
Q 1250 -91 836 529 
Q 422 1150 422 2328 
Q 422 3509 836 4129 
Q 1250 4750 2034 4750 
z
" transform="scale(0.015625)"/>
        <path id="DejaVuSans-2e" d="M 684 794 
L 1344 794 
L 1344 0 
L 684 0 
L 684 794 
z
" transform="scale(0.015625)"/>
       </defs>
       <use xlink:href="#DejaVuSans-30"/>
       <use xlink:href="#DejaVuSans-2e" transform="translate(63.623047 0)"/>
       <use xlink:href="#DejaVuSans-30" transform="translate(95.410156 0)"/>
       <use xlink:href="#DejaVuSans-30" transform="translate(159.033203 0)"/>
      </g>
     </g>
    </g>
    <g id="xtick_2">
     <g id="line2d_2">
      <g>
       <use xlink:href="#m1942b81367" x="136.003762" y="339.84" style="fill: #ffffff; stroke: #ffffff; stroke-width: 0.8"/>
      </g>
     </g>
     <g id="text_2">
      <!-- 0.25 -->
      <g style="fill: #ffffff" transform="translate(124.870949 354.438438) scale(0.1 -0.1)">
       <defs>
        <path id="DejaVuSans-32" d="M 1228 531 
L 3431 531 
L 3431 0 
L 469 0 
L 469 531 
Q 828 903 1448 1529 
Q 2069 2156 2228 2338 
Q 2531 2678 2651 2914 
Q 2772 3150 2772 3378 
Q 2772 3750 2511 3984 
Q 2250 4219 1831 4219 
Q 1534 4219 1204 4116 
Q 875 4013 500 3803 
L 500 4441 
Q 881 4594 1212 4672 
Q 1544 4750 1819 4750 
Q 2544 4750 2975 4387 
Q 3406 4025 3406 3419 
Q 3406 3131 3298 2873 
Q 3191 2616 2906 2266 
Q 2828 2175 2409 1742 
Q 1991 1309 1228 531 
z
" transform="scale(0.015625)"/>
        <path id="DejaVuSans-35" d="M 691 4666 
L 3169 4666 
L 3169 4134 
L 1269 4134 
L 1269 2991 
Q 1406 3038 1543 3061 
Q 1681 3084 1819 3084 
Q 2600 3084 3056 2656 
Q 3513 2228 3513 1497 
Q 3513 744 3044 326 
Q 2575 -91 1722 -91 
Q 1428 -91 1123 -41 
Q 819 9 494 109 
L 494 744 
Q 775 591 1075 516 
Q 1375 441 1709 441 
Q 2250 441 2565 725 
Q 2881 1009 2881 1497 
Q 2881 1984 2565 2268 
Q 2250 2553 1709 2553 
Q 1456 2553 1204 2497 
Q 953 2441 691 2322 
L 691 4666 
z
" transform="scale(0.015625)"/>
       </defs>
       <use xlink:href="#DejaVuSans-30"/>
       <use xlink:href="#DejaVuSans-2e" transform="translate(63.623047 0)"/>
       <use xlink:href="#DejaVuSans-32" transform="translate(95.410156 0)"/>
       <use xlink:href="#DejaVuSans-35" transform="translate(159.033203 0)"/>
      </g>
     </g>
    </g>
    <g id="xtick_3">
     <g id="line2d_3">
      <g>
       <use xlink:href="#m1942b81367" x="199.678262" y="339.84" style="fill: #ffffff; stroke: #ffffff; stroke-width: 0.8"/>
      </g>
     </g>
     <g id="text_3">
      <!-- 0.50 -->
      <g style="fill: #ffffff" transform="translate(188.545449 354.438438) scale(0.1 -0.1)">
       <use xlink:href="#DejaVuSans-30"/>
       <use xlink:href="#DejaVuSans-2e" transform="translate(63.623047 0)"/>
       <use xlink:href="#DejaVuSans-35" transform="translate(95.410156 0)"/>
       <use xlink:href="#DejaVuSans-30" transform="translate(159.033203 0)"/>
      </g>
     </g>
    </g>
    <g id="xtick_4">
     <g id="line2d_4">
      <g>
       <use xlink:href="#m1942b81367" x="263.352762" y="339.84" style="fill: #ffffff; stroke: #ffffff; stroke-width: 0.8"/>
      </g>
     </g>
     <g id="text_4">
      <!-- 0.75 -->
      <g style="fill: #ffffff" transform="translate(252.21995 354.438438) scale(0.1 -0.1)">
       <defs>
        <path id="DejaVuSans-37" d="M 525 4666 
L 3525 4666 
L 3525 4397 
L 1831 0 
L 1172 0 
L 2766 4134 
L 525 4134 
L 525 4666 
z
" transform="scale(0.015625)"/>
       </defs>
       <use xlink:href="#DejaVuSans-30"/>
       <use xlink:href="#DejaVuSans-2e" transform="translate(63.623047 0)"/>
       <use xlink:href="#DejaVuSans-37" transform="translate(95.410156 0)"/>
       <use xlink:href="#DejaVuSans-35" transform="translate(159.033203 0)"/>
      </g>
     </g>
    </g>
    <g id="xtick_5">
     <g id="line2d_5">
      <g>
       <use xlink:href="#m1942b81367" x="327.027263" y="339.84" style="fill: #ffffff; stroke: #ffffff; stroke-width: 0.8"/>
      </g>
     </g>
     <g id="text_5">
      <!-- 1.00 -->
      <g style="fill: #ffffff" transform="translate(315.89445 354.438438) scale(0.1 -0.1)">
       <defs>
        <path id="DejaVuSans-31" d="M 794 531 
L 1825 531 
L 1825 4091 
L 703 3866 
L 703 4441 
L 1819 4666 
L 2450 4666 
L 2450 531 
L 3481 531 
L 3481 0 
L 794 0 
L 794 531 
z
" transform="scale(0.015625)"/>
       </defs>
       <use xlink:href="#DejaVuSans-31"/>
       <use xlink:href="#DejaVuSans-2e" transform="translate(63.623047 0)"/>
       <use xlink:href="#DejaVuSans-30" transform="translate(95.410156 0)"/>
       <use xlink:href="#DejaVuSans-30" transform="translate(159.033203 0)"/>
      </g>
     </g>
    </g>
    <g id="xtick_6">
     <g id="line2d_6">
      <g>
       <use xlink:href="#m1942b81367" x="390.701763" y="339.84" style="fill: #ffffff; stroke: #ffffff; stroke-width: 0.8"/>
      </g>
     </g>
     <g id="text_6">
      <!-- 1.25 -->
      <g style="fill: #ffffff" transform="translate(379.56895 354.438438) scale(0.1 -0.1)">
       <use xlink:href="#DejaVuSans-31"/>
       <use xlink:href="#DejaVuSans-2e" transform="translate(63.623047 0)"/>
       <use xlink:href="#DejaVuSans-32" transform="translate(95.410156 0)"/>
       <use xlink:href="#DejaVuSans-35" transform="translate(159.033203 0)"/>
      </g>
     </g>
    </g>
    <g id="xtick_7">
     <g id="line2d_7">
      <g>
       <use xlink:href="#m1942b81367" x="454.376263" y="339.84" style="fill: #ffffff; stroke: #ffffff; stroke-width: 0.8"/>
      </g>
     </g>
     <g id="text_7">
      <!-- 1.50 -->
      <g style="fill: #ffffff" transform="translate(443.243451 354.438438) scale(0.1 -0.1)">
       <use xlink:href="#DejaVuSans-31"/>
       <use xlink:href="#DejaVuSans-2e" transform="translate(63.623047 0)"/>
       <use xlink:href="#DejaVuSans-35" transform="translate(95.410156 0)"/>
       <use xlink:href="#DejaVuSans-30" transform="translate(159.033203 0)"/>
      </g>
     </g>
    </g>
    <g id="xtick_8">
     <g id="line2d_8">
      <g>
       <use xlink:href="#m1942b81367" x="518.050764" y="339.84" style="fill: #ffffff; stroke: #ffffff; stroke-width: 0.8"/>
      </g>
     </g>
     <g id="text_8">
      <!-- 1.75 -->
      <g style="fill: #ffffff" transform="translate(506.917951 354.438438) scale(0.1 -0.1)">
       <use xlink:href="#DejaVuSans-31"/>
       <use xlink:href="#DejaVuSans-2e" transform="translate(63.623047 0)"/>
       <use xlink:href="#DejaVuSans-37" transform="translate(95.410156 0)"/>
       <use xlink:href="#DejaVuSans-35" transform="translate(159.033203 0)"/>
      </g>
     </g>
    </g>
    <g id="xtick_9">
     <g id="line2d_9">
      <g>
       <use xlink:href="#m1942b81367" x="581.725264" y="339.84" style="fill: #ffffff; stroke: #ffffff; stroke-width: 0.8"/>
      </g>
     </g>
     <g id="text_9">
      <!-- 2.00 -->
      <g style="fill: #ffffff" transform="translate(570.592451 354.438438) scale(0.1 -0.1)">
       <use xlink:href="#DejaVuSans-32"/>
       <use xlink:href="#DejaVuSans-2e" transform="translate(63.623047 0)"/>
       <use xlink:href="#DejaVuSans-30" transform="translate(95.410156 0)"/>
       <use xlink:href="#DejaVuSans-30" transform="translate(159.033203 0)"/>
      </g>
     </g>
    </g>
    <g id="text_10">
     <!-- heat transferred in MW -->
     <g style="fill: #ffffff" transform="translate(268.261719 368.116562) scale(0.1 -0.1)">
      <defs>
       <path id="DejaVuSans-68" d="M 3513 2113 
L 3513 0 
L 2938 0 
L 2938 2094 
Q 2938 2591 2744 2837 
Q 2550 3084 2163 3084 
Q 1697 3084 1428 2787 
Q 1159 2491 1159 1978 
L 1159 0 
L 581 0 
L 581 4863 
L 1159 4863 
L 1159 2956 
Q 1366 3272 1645 3428 
Q 1925 3584 2291 3584 
Q 2894 3584 3203 3211 
Q 3513 2838 3513 2113 
z
" transform="scale(0.015625)"/>
       <path id="DejaVuSans-65" d="M 3597 1894 
L 3597 1613 
L 953 1613 
Q 991 1019 1311 708 
Q 1631 397 2203 397 
Q 2534 397 2845 478 
Q 3156 559 3463 722 
L 3463 178 
Q 3153 47 2828 -22 
Q 2503 -91 2169 -91 
Q 1331 -91 842 396 
Q 353 884 353 1716 
Q 353 2575 817 3079 
Q 1281 3584 2069 3584 
Q 2775 3584 3186 3129 
Q 3597 2675 3597 1894 
z
M 3022 2063 
Q 3016 2534 2758 2815 
Q 2500 3097 2075 3097 
Q 1594 3097 1305 2825 
Q 1016 2553 972 2059 
L 3022 2063 
z
" transform="scale(0.015625)"/>
       <path id="DejaVuSans-61" d="M 2194 1759 
Q 1497 1759 1228 1600 
Q 959 1441 959 1056 
Q 959 750 1161 570 
Q 1363 391 1709 391 
Q 2188 391 2477 730 
Q 2766 1069 2766 1631 
L 2766 1759 
L 2194 1759 
z
M 3341 1997 
L 3341 0 
L 2766 0 
L 2766 531 
Q 2569 213 2275 61 
Q 1981 -91 1556 -91 
Q 1019 -91 701 211 
Q 384 513 384 1019 
Q 384 1609 779 1909 
Q 1175 2209 1959 2209 
L 2766 2209 
L 2766 2266 
Q 2766 2663 2505 2880 
Q 2244 3097 1772 3097 
Q 1472 3097 1187 3025 
Q 903 2953 641 2809 
L 641 3341 
Q 956 3463 1253 3523 
Q 1550 3584 1831 3584 
Q 2591 3584 2966 3190 
Q 3341 2797 3341 1997 
z
" transform="scale(0.015625)"/>
       <path id="DejaVuSans-74" d="M 1172 4494 
L 1172 3500 
L 2356 3500 
L 2356 3053 
L 1172 3053 
L 1172 1153 
Q 1172 725 1289 603 
Q 1406 481 1766 481 
L 2356 481 
L 2356 0 
L 1766 0 
Q 1100 0 847 248 
Q 594 497 594 1153 
L 594 3053 
L 172 3053 
L 172 3500 
L 594 3500 
L 594 4494 
L 1172 4494 
z
" transform="scale(0.015625)"/>
       <path id="DejaVuSans-20" transform="scale(0.015625)"/>
       <path id="DejaVuSans-72" d="M 2631 2963 
Q 2534 3019 2420 3045 
Q 2306 3072 2169 3072 
Q 1681 3072 1420 2755 
Q 1159 2438 1159 1844 
L 1159 0 
L 581 0 
L 581 3500 
L 1159 3500 
L 1159 2956 
Q 1341 3275 1631 3429 
Q 1922 3584 2338 3584 
Q 2397 3584 2469 3576 
Q 2541 3569 2628 3553 
L 2631 2963 
z
" transform="scale(0.015625)"/>
       <path id="DejaVuSans-6e" d="M 3513 2113 
L 3513 0 
L 2938 0 
L 2938 2094 
Q 2938 2591 2744 2837 
Q 2550 3084 2163 3084 
Q 1697 3084 1428 2787 
Q 1159 2491 1159 1978 
L 1159 0 
L 581 0 
L 581 3500 
L 1159 3500 
L 1159 2956 
Q 1366 3272 1645 3428 
Q 1925 3584 2291 3584 
Q 2894 3584 3203 3211 
Q 3513 2838 3513 2113 
z
" transform="scale(0.015625)"/>
       <path id="DejaVuSans-73" d="M 2834 3397 
L 2834 2853 
Q 2591 2978 2328 3040 
Q 2066 3103 1784 3103 
Q 1356 3103 1142 2972 
Q 928 2841 928 2578 
Q 928 2378 1081 2264 
Q 1234 2150 1697 2047 
L 1894 2003 
Q 2506 1872 2764 1633 
Q 3022 1394 3022 966 
Q 3022 478 2636 193 
Q 2250 -91 1575 -91 
Q 1294 -91 989 -36 
Q 684 19 347 128 
L 347 722 
Q 666 556 975 473 
Q 1284 391 1588 391 
Q 1994 391 2212 530 
Q 2431 669 2431 922 
Q 2431 1156 2273 1281 
Q 2116 1406 1581 1522 
L 1381 1569 
Q 847 1681 609 1914 
Q 372 2147 372 2553 
Q 372 3047 722 3315 
Q 1072 3584 1716 3584 
Q 2034 3584 2315 3537 
Q 2597 3491 2834 3397 
z
" transform="scale(0.015625)"/>
       <path id="DejaVuSans-66" d="M 2375 4863 
L 2375 4384 
L 1825 4384 
Q 1516 4384 1395 4259 
Q 1275 4134 1275 3809 
L 1275 3500 
L 2222 3500 
L 2222 3053 
L 1275 3053 
L 1275 0 
L 697 0 
L 697 3053 
L 147 3053 
L 147 3500 
L 697 3500 
L 697 3744 
Q 697 4328 969 4595 
Q 1241 4863 1831 4863 
L 2375 4863 
z
" transform="scale(0.015625)"/>
       <path id="DejaVuSans-64" d="M 2906 2969 
L 2906 4863 
L 3481 4863 
L 3481 0 
L 2906 0 
L 2906 525 
Q 2725 213 2448 61 
Q 2172 -91 1784 -91 
Q 1150 -91 751 415 
Q 353 922 353 1747 
Q 353 2572 751 3078 
Q 1150 3584 1784 3584 
Q 2172 3584 2448 3432 
Q 2725 3281 2906 2969 
z
M 947 1747 
Q 947 1113 1208 752 
Q 1469 391 1925 391 
Q 2381 391 2643 752 
Q 2906 1113 2906 1747 
Q 2906 2381 2643 2742 
Q 2381 3103 1925 3103 
Q 1469 3103 1208 2742 
Q 947 2381 947 1747 
z
" transform="scale(0.015625)"/>
       <path id="DejaVuSans-69" d="M 603 3500 
L 1178 3500 
L 1178 0 
L 603 0 
L 603 3500 
z
M 603 4863 
L 1178 4863 
L 1178 4134 
L 603 4134 
L 603 4863 
z
" transform="scale(0.015625)"/>
       <path id="DejaVuSans-4d" d="M 628 4666 
L 1569 4666 
L 2759 1491 
L 3956 4666 
L 4897 4666 
L 4897 0 
L 4281 0 
L 4281 4097 
L 3078 897 
L 2444 897 
L 1241 4097 
L 1241 0 
L 628 0 
L 628 4666 
z
" transform="scale(0.015625)"/>
       <path id="DejaVuSans-57" d="M 213 4666 
L 850 4666 
L 1831 722 
L 2809 4666 
L 3519 4666 
L 4500 722 
L 5478 4666 
L 6119 4666 
L 4947 0 
L 4153 0 
L 3169 4050 
L 2175 0 
L 1381 0 
L 213 4666 
z
" transform="scale(0.015625)"/>
      </defs>
      <use xlink:href="#DejaVuSans-68"/>
      <use xlink:href="#DejaVuSans-65" transform="translate(63.378906 0)"/>
      <use xlink:href="#DejaVuSans-61" transform="translate(124.902344 0)"/>
      <use xlink:href="#DejaVuSans-74" transform="translate(186.181641 0)"/>
      <use xlink:href="#DejaVuSans-20" transform="translate(225.390625 0)"/>
      <use xlink:href="#DejaVuSans-74" transform="translate(257.177734 0)"/>
      <use xlink:href="#DejaVuSans-72" transform="translate(296.386719 0)"/>
      <use xlink:href="#DejaVuSans-61" transform="translate(337.5 0)"/>
      <use xlink:href="#DejaVuSans-6e" transform="translate(398.779297 0)"/>
      <use xlink:href="#DejaVuSans-73" transform="translate(462.158203 0)"/>
      <use xlink:href="#DejaVuSans-66" transform="translate(514.257812 0)"/>
      <use xlink:href="#DejaVuSans-65" transform="translate(549.462891 0)"/>
      <use xlink:href="#DejaVuSans-72" transform="translate(610.986328 0)"/>
      <use xlink:href="#DejaVuSans-72" transform="translate(650.349609 0)"/>
      <use xlink:href="#DejaVuSans-65" transform="translate(689.212891 0)"/>
      <use xlink:href="#DejaVuSans-64" transform="translate(750.736328 0)"/>
      <use xlink:href="#DejaVuSans-20" transform="translate(814.212891 0)"/>
      <use xlink:href="#DejaVuSans-69" transform="translate(846 0)"/>
      <use xlink:href="#DejaVuSans-6e" transform="translate(873.783203 0)"/>
      <use xlink:href="#DejaVuSans-20" transform="translate(937.162109 0)"/>
      <use xlink:href="#DejaVuSans-4d" transform="translate(968.949219 0)"/>
      <use xlink:href="#DejaVuSans-57" transform="translate(1055.228516 0)"/>
     </g>
    </g>
   </g>
   <g id="matplotlib.axis_2">
    <g id="ytick_1">
     <g id="line2d_10">
      <defs>
       <path id="m48f8590476" d="M 0 0 
L -3.5 0 
" style="stroke: #ffffff; stroke-width: 0.8"/>
      </defs>
      <g>
       <use xlink:href="#m48f8590476" x="46.965625" y="316.113231" style="fill: #ffffff; stroke: #ffffff; stroke-width: 0.8"/>
      </g>
     </g>
     <g id="text_11">
      <!-- 320 -->
      <g style="fill: #ffffff" transform="translate(20.878125 319.91245) scale(0.1 -0.1)">
       <defs>
        <path id="DejaVuSans-33" d="M 2597 2516 
Q 3050 2419 3304 2112 
Q 3559 1806 3559 1356 
Q 3559 666 3084 287 
Q 2609 -91 1734 -91 
Q 1441 -91 1130 -33 
Q 819 25 488 141 
L 488 750 
Q 750 597 1062 519 
Q 1375 441 1716 441 
Q 2309 441 2620 675 
Q 2931 909 2931 1356 
Q 2931 1769 2642 2001 
Q 2353 2234 1838 2234 
L 1294 2234 
L 1294 2753 
L 1863 2753 
Q 2328 2753 2575 2939 
Q 2822 3125 2822 3475 
Q 2822 3834 2567 4026 
Q 2313 4219 1838 4219 
Q 1578 4219 1281 4162 
Q 984 4106 628 3988 
L 628 4550 
Q 988 4650 1302 4700 
Q 1616 4750 1894 4750 
Q 2613 4750 3031 4423 
Q 3450 4097 3450 3541 
Q 3450 3153 3228 2886 
Q 3006 2619 2597 2516 
z
" transform="scale(0.015625)"/>
       </defs>
       <use xlink:href="#DejaVuSans-33"/>
       <use xlink:href="#DejaVuSans-32" transform="translate(63.623047 0)"/>
       <use xlink:href="#DejaVuSans-30" transform="translate(127.246094 0)"/>
      </g>
     </g>
    </g>
    <g id="ytick_2">
     <g id="line2d_11">
      <g>
       <use xlink:href="#m48f8590476" x="46.965625" y="269.590154" style="fill: #ffffff; stroke: #ffffff; stroke-width: 0.8"/>
      </g>
     </g>
     <g id="text_12">
      <!-- 330 -->
      <g style="fill: #ffffff" transform="translate(20.878125 273.389373) scale(0.1 -0.1)">
       <use xlink:href="#DejaVuSans-33"/>
       <use xlink:href="#DejaVuSans-33" transform="translate(63.623047 0)"/>
       <use xlink:href="#DejaVuSans-30" transform="translate(127.246094 0)"/>
      </g>
     </g>
    </g>
    <g id="ytick_3">
     <g id="line2d_12">
      <g>
       <use xlink:href="#m48f8590476" x="46.965625" y="223.067077" style="fill: #ffffff; stroke: #ffffff; stroke-width: 0.8"/>
      </g>
     </g>
     <g id="text_13">
      <!-- 340 -->
      <g style="fill: #ffffff" transform="translate(20.878125 226.866296) scale(0.1 -0.1)">
       <defs>
        <path id="DejaVuSans-34" d="M 2419 4116 
L 825 1625 
L 2419 1625 
L 2419 4116 
z
M 2253 4666 
L 3047 4666 
L 3047 1625 
L 3713 1625 
L 3713 1100 
L 3047 1100 
L 3047 0 
L 2419 0 
L 2419 1100 
L 313 1100 
L 313 1709 
L 2253 4666 
z
" transform="scale(0.015625)"/>
       </defs>
       <use xlink:href="#DejaVuSans-33"/>
       <use xlink:href="#DejaVuSans-34" transform="translate(63.623047 0)"/>
       <use xlink:href="#DejaVuSans-30" transform="translate(127.246094 0)"/>
      </g>
     </g>
    </g>
    <g id="ytick_4">
     <g id="line2d_13">
      <g>
       <use xlink:href="#m48f8590476" x="46.965625" y="176.544" style="fill: #ffffff; stroke: #ffffff; stroke-width: 0.8"/>
      </g>
     </g>
     <g id="text_14">
      <!-- 350 -->
      <g style="fill: #ffffff" transform="translate(20.878125 180.343219) scale(0.1 -0.1)">
       <use xlink:href="#DejaVuSans-33"/>
       <use xlink:href="#DejaVuSans-35" transform="translate(63.623047 0)"/>
       <use xlink:href="#DejaVuSans-30" transform="translate(127.246094 0)"/>
      </g>
     </g>
    </g>
    <g id="ytick_5">
     <g id="line2d_14">
      <g>
       <use xlink:href="#m48f8590476" x="46.965625" y="130.020923" style="fill: #ffffff; stroke: #ffffff; stroke-width: 0.8"/>
      </g>
     </g>
     <g id="text_15">
      <!-- 360 -->
      <g style="fill: #ffffff" transform="translate(20.878125 133.820142) scale(0.1 -0.1)">
       <defs>
        <path id="DejaVuSans-36" d="M 2113 2584 
Q 1688 2584 1439 2293 
Q 1191 2003 1191 1497 
Q 1191 994 1439 701 
Q 1688 409 2113 409 
Q 2538 409 2786 701 
Q 3034 994 3034 1497 
Q 3034 2003 2786 2293 
Q 2538 2584 2113 2584 
z
M 3366 4563 
L 3366 3988 
Q 3128 4100 2886 4159 
Q 2644 4219 2406 4219 
Q 1781 4219 1451 3797 
Q 1122 3375 1075 2522 
Q 1259 2794 1537 2939 
Q 1816 3084 2150 3084 
Q 2853 3084 3261 2657 
Q 3669 2231 3669 1497 
Q 3669 778 3244 343 
Q 2819 -91 2113 -91 
Q 1303 -91 875 529 
Q 447 1150 447 2328 
Q 447 3434 972 4092 
Q 1497 4750 2381 4750 
Q 2619 4750 2861 4703 
Q 3103 4656 3366 4563 
z
" transform="scale(0.015625)"/>
       </defs>
       <use xlink:href="#DejaVuSans-33"/>
       <use xlink:href="#DejaVuSans-36" transform="translate(63.623047 0)"/>
       <use xlink:href="#DejaVuSans-30" transform="translate(127.246094 0)"/>
      </g>
     </g>
    </g>
    <g id="ytick_6">
     <g id="line2d_15">
      <g>
       <use xlink:href="#m48f8590476" x="46.965625" y="83.497846" style="fill: #ffffff; stroke: #ffffff; stroke-width: 0.8"/>
      </g>
     </g>
     <g id="text_16">
      <!-- 370 -->
      <g style="fill: #ffffff" transform="translate(20.878125 87.297065) scale(0.1 -0.1)">
       <use xlink:href="#DejaVuSans-33"/>
       <use xlink:href="#DejaVuSans-37" transform="translate(63.623047 0)"/>
       <use xlink:href="#DejaVuSans-30" transform="translate(127.246094 0)"/>
      </g>
     </g>
    </g>
    <g id="ytick_7">
     <g id="line2d_16">
      <g>
       <use xlink:href="#m48f8590476" x="46.965625" y="36.974769" style="fill: #ffffff; stroke: #ffffff; stroke-width: 0.8"/>
      </g>
     </g>
     <g id="text_17">
      <!-- 380 -->
      <g style="fill: #ffffff" transform="translate(20.878125 40.773988) scale(0.1 -0.1)">
       <defs>
        <path id="DejaVuSans-38" d="M 2034 2216 
Q 1584 2216 1326 1975 
Q 1069 1734 1069 1313 
Q 1069 891 1326 650 
Q 1584 409 2034 409 
Q 2484 409 2743 651 
Q 3003 894 3003 1313 
Q 3003 1734 2745 1975 
Q 2488 2216 2034 2216 
z
M 1403 2484 
Q 997 2584 770 2862 
Q 544 3141 544 3541 
Q 544 4100 942 4425 
Q 1341 4750 2034 4750 
Q 2731 4750 3128 4425 
Q 3525 4100 3525 3541 
Q 3525 3141 3298 2862 
Q 3072 2584 2669 2484 
Q 3125 2378 3379 2068 
Q 3634 1759 3634 1313 
Q 3634 634 3220 271 
Q 2806 -91 2034 -91 
Q 1263 -91 848 271 
Q 434 634 434 1313 
Q 434 1759 690 2068 
Q 947 2378 1403 2484 
z
M 1172 3481 
Q 1172 3119 1398 2916 
Q 1625 2713 2034 2713 
Q 2441 2713 2670 2916 
Q 2900 3119 2900 3481 
Q 2900 3844 2670 4047 
Q 2441 4250 2034 4250 
Q 1625 4250 1398 4047 
Q 1172 3844 1172 3481 
z
" transform="scale(0.015625)"/>
       </defs>
       <use xlink:href="#DejaVuSans-33"/>
       <use xlink:href="#DejaVuSans-38" transform="translate(63.623047 0)"/>
       <use xlink:href="#DejaVuSans-30" transform="translate(127.246094 0)"/>
      </g>
     </g>
    </g>
    <g id="text_18">
     <!-- temperature in K -->
     <g style="fill: #ffffff" transform="translate(14.798437 215.960625) rotate(-90) scale(0.1 -0.1)">
      <defs>
       <path id="DejaVuSans-6d" d="M 3328 2828 
Q 3544 3216 3844 3400 
Q 4144 3584 4550 3584 
Q 5097 3584 5394 3201 
Q 5691 2819 5691 2113 
L 5691 0 
L 5113 0 
L 5113 2094 
Q 5113 2597 4934 2840 
Q 4756 3084 4391 3084 
Q 3944 3084 3684 2787 
Q 3425 2491 3425 1978 
L 3425 0 
L 2847 0 
L 2847 2094 
Q 2847 2600 2669 2842 
Q 2491 3084 2119 3084 
Q 1678 3084 1418 2786 
Q 1159 2488 1159 1978 
L 1159 0 
L 581 0 
L 581 3500 
L 1159 3500 
L 1159 2956 
Q 1356 3278 1631 3431 
Q 1906 3584 2284 3584 
Q 2666 3584 2933 3390 
Q 3200 3197 3328 2828 
z
" transform="scale(0.015625)"/>
       <path id="DejaVuSans-70" d="M 1159 525 
L 1159 -1331 
L 581 -1331 
L 581 3500 
L 1159 3500 
L 1159 2969 
Q 1341 3281 1617 3432 
Q 1894 3584 2278 3584 
Q 2916 3584 3314 3078 
Q 3713 2572 3713 1747 
Q 3713 922 3314 415 
Q 2916 -91 2278 -91 
Q 1894 -91 1617 61 
Q 1341 213 1159 525 
z
M 3116 1747 
Q 3116 2381 2855 2742 
Q 2594 3103 2138 3103 
Q 1681 3103 1420 2742 
Q 1159 2381 1159 1747 
Q 1159 1113 1420 752 
Q 1681 391 2138 391 
Q 2594 391 2855 752 
Q 3116 1113 3116 1747 
z
" transform="scale(0.015625)"/>
       <path id="DejaVuSans-75" d="M 544 1381 
L 544 3500 
L 1119 3500 
L 1119 1403 
Q 1119 906 1312 657 
Q 1506 409 1894 409 
Q 2359 409 2629 706 
Q 2900 1003 2900 1516 
L 2900 3500 
L 3475 3500 
L 3475 0 
L 2900 0 
L 2900 538 
Q 2691 219 2414 64 
Q 2138 -91 1772 -91 
Q 1169 -91 856 284 
Q 544 659 544 1381 
z
M 1991 3584 
L 1991 3584 
z
" transform="scale(0.015625)"/>
       <path id="DejaVuSans-4b" d="M 628 4666 
L 1259 4666 
L 1259 2694 
L 3353 4666 
L 4166 4666 
L 1850 2491 
L 4331 0 
L 3500 0 
L 1259 2247 
L 1259 0 
L 628 0 
L 628 4666 
z
" transform="scale(0.015625)"/>
      </defs>
      <use xlink:href="#DejaVuSans-74"/>
      <use xlink:href="#DejaVuSans-65" transform="translate(39.208984 0)"/>
      <use xlink:href="#DejaVuSans-6d" transform="translate(100.732422 0)"/>
      <use xlink:href="#DejaVuSans-70" transform="translate(198.144531 0)"/>
      <use xlink:href="#DejaVuSans-65" transform="translate(261.621094 0)"/>
      <use xlink:href="#DejaVuSans-72" transform="translate(323.144531 0)"/>
      <use xlink:href="#DejaVuSans-61" transform="translate(364.257812 0)"/>
      <use xlink:href="#DejaVuSans-74" transform="translate(425.537109 0)"/>
      <use xlink:href="#DejaVuSans-75" transform="translate(464.746094 0)"/>
      <use xlink:href="#DejaVuSans-72" transform="translate(528.125 0)"/>
      <use xlink:href="#DejaVuSans-65" transform="translate(566.988281 0)"/>
      <use xlink:href="#DejaVuSans-20" transform="translate(628.511719 0)"/>
      <use xlink:href="#DejaVuSans-69" transform="translate(660.298828 0)"/>
      <use xlink:href="#DejaVuSans-6e" transform="translate(688.082031 0)"/>
      <use xlink:href="#DejaVuSans-20" transform="translate(751.460938 0)"/>
      <use xlink:href="#DejaVuSans-4b" transform="translate(783.248047 0)"/>
     </g>
    </g>
   </g>
   <g id="line2d_17">
    <path d="M 72.329261 278.196923 
L 72.329261 324.72 
" clip-path="url(#pa7fb37a2ac)" style="fill: none; stroke: #d3d3d3; stroke-width: 0.5; stroke-linecap: square"/>
   </g>
   <g id="line2d_18">
    <path d="M 156.874716 254.935385 
L 156.874716 316.964118 
" clip-path="url(#pa7fb37a2ac)" style="fill: none; stroke: #d3d3d3; stroke-width: 0.5; stroke-linecap: square"/>
   </g>
   <g id="line2d_19">
    <path d="M 241.42017 254.935385 
L 241.42017 309.208933 
" clip-path="url(#pa7fb37a2ac)" style="fill: none; stroke: #d3d3d3; stroke-width: 0.5; stroke-linecap: square"/>
   </g>
   <g id="line2d_20">
    <path d="M 325.965625 254.935385 
L 325.965625 301.454537 
" clip-path="url(#pa7fb37a2ac)" style="fill: none; stroke: #d3d3d3; stroke-width: 0.5; stroke-linecap: square"/>
   </g>
   <g id="line2d_21">
    <path d="M 410.51108 254.935385 
L 410.51108 293.701015 
" clip-path="url(#pa7fb37a2ac)" style="fill: none; stroke: #d3d3d3; stroke-width: 0.5; stroke-linecap: square"/>
   </g>
   <g id="line2d_22">
    <path d="M 495.056534 152.716654 
L 495.056534 285.94845 
" clip-path="url(#pa7fb37a2ac)" style="fill: none; stroke: #d3d3d3; stroke-width: 0.5; stroke-linecap: square"/>
   </g>
   <g id="line2d_23">
    <path d="M 579.601989 22.32 
L 579.601989 278.196923 
" clip-path="url(#pa7fb37a2ac)" style="fill: none; stroke: #d3d3d3; stroke-width: 0.5; stroke-linecap: square"/>
   </g>
   <g id="line2d_24">
    <path d="M 72.329261 278.196923 
L 82.474716 266.654741 
L 92.62017 255.390348 
L 102.765625 254.935385 
L 112.91108 254.935385 
L 123.056534 254.935385 
L 133.201989 254.935385 
L 143.347443 254.935385 
L 153.492898 254.935385 
L 163.638352 254.935385 
L 173.783807 254.935385 
L 183.929261 254.935385 
L 194.074716 254.935385 
L 204.22017 254.935385 
L 214.365625 254.935385 
L 224.51108 254.935385 
L 234.656534 254.935385 
L 244.801989 254.935385 
L 254.947443 254.935385 
L 265.092898 254.935385 
L 275.238352 254.935385 
L 285.383807 254.935385 
L 295.529261 254.935385 
L 305.674716 254.935385 
L 315.82017 254.935385 
L 325.965625 254.935385 
L 336.11108 254.935385 
L 346.256534 254.935385 
L 356.401989 254.935385 
L 366.547443 254.935385 
L 376.692898 254.935385 
L 386.838352 254.935385 
L 396.983807 254.935385 
L 407.129261 254.935385 
L 417.274716 254.935385 
L 427.42017 249.402716 
L 437.565625 235.86913 
L 447.71108 221.889508 
L 457.856534 207.542236 
L 468.001989 192.891613 
L 478.147443 177.990701 
L 488.292898 162.883751 
L 498.438352 147.608077 
L 508.583807 132.195397 
L 518.729261 116.672781 
L 528.874716 101.063378 
L 539.02017 85.387025 
L 549.165625 69.660771 
L 559.31108 53.899315 
L 569.456534 38.115378 
L 579.601989 22.32 
" clip-path="url(#pa7fb37a2ac)" style="fill: none; stroke: #d3d3d3; stroke-width: 0.5; stroke-linecap: square"/>
    <defs>
     <path id="ma639400049" d="M 0 1 
C 0.265203 1 0.51958 0.894634 0.707107 0.707107 
C 0.894634 0.51958 1 0.265203 1 0 
C 1 -0.265203 0.894634 -0.51958 0.707107 -0.707107 
C 0.51958 -0.894634 0.265203 -1 0 -1 
C -0.265203 -1 -0.51958 -0.894634 -0.707107 -0.707107 
C -0.894634 -0.51958 -1 -0.265203 -1 0 
C -1 0.265203 -0.894634 0.51958 -0.707107 0.707107 
C -0.51958 0.894634 -0.265203 1 0 1 
z
" style="stroke: #d3d3d3"/>
    </defs>
    <g clip-path="url(#pa7fb37a2ac)">
     <use xlink:href="#ma639400049" x="72.329261" y="278.196923" style="fill: #d3d3d3; stroke: #d3d3d3"/>
     <use xlink:href="#ma639400049" x="82.474716" y="266.654741" style="fill: #d3d3d3; stroke: #d3d3d3"/>
     <use xlink:href="#ma639400049" x="92.62017" y="255.390348" style="fill: #d3d3d3; stroke: #d3d3d3"/>
     <use xlink:href="#ma639400049" x="102.765625" y="254.935385" style="fill: #d3d3d3; stroke: #d3d3d3"/>
     <use xlink:href="#ma639400049" x="112.91108" y="254.935385" style="fill: #d3d3d3; stroke: #d3d3d3"/>
     <use xlink:href="#ma639400049" x="123.056534" y="254.935385" style="fill: #d3d3d3; stroke: #d3d3d3"/>
     <use xlink:href="#ma639400049" x="133.201989" y="254.935385" style="fill: #d3d3d3; stroke: #d3d3d3"/>
     <use xlink:href="#ma639400049" x="143.347443" y="254.935385" style="fill: #d3d3d3; stroke: #d3d3d3"/>
     <use xlink:href="#ma639400049" x="153.492898" y="254.935385" style="fill: #d3d3d3; stroke: #d3d3d3"/>
     <use xlink:href="#ma639400049" x="163.638352" y="254.935385" style="fill: #d3d3d3; stroke: #d3d3d3"/>
     <use xlink:href="#ma639400049" x="173.783807" y="254.935385" style="fill: #d3d3d3; stroke: #d3d3d3"/>
     <use xlink:href="#ma639400049" x="183.929261" y="254.935385" style="fill: #d3d3d3; stroke: #d3d3d3"/>
     <use xlink:href="#ma639400049" x="194.074716" y="254.935385" style="fill: #d3d3d3; stroke: #d3d3d3"/>
     <use xlink:href="#ma639400049" x="204.22017" y="254.935385" style="fill: #d3d3d3; stroke: #d3d3d3"/>
     <use xlink:href="#ma639400049" x="214.365625" y="254.935385" style="fill: #d3d3d3; stroke: #d3d3d3"/>
     <use xlink:href="#ma639400049" x="224.51108" y="254.935385" style="fill: #d3d3d3; stroke: #d3d3d3"/>
     <use xlink:href="#ma639400049" x="234.656534" y="254.935385" style="fill: #d3d3d3; stroke: #d3d3d3"/>
     <use xlink:href="#ma639400049" x="244.801989" y="254.935385" style="fill: #d3d3d3; stroke: #d3d3d3"/>
     <use xlink:href="#ma639400049" x="254.947443" y="254.935385" style="fill: #d3d3d3; stroke: #d3d3d3"/>
     <use xlink:href="#ma639400049" x="265.092898" y="254.935385" style="fill: #d3d3d3; stroke: #d3d3d3"/>
     <use xlink:href="#ma639400049" x="275.238352" y="254.935385" style="fill: #d3d3d3; stroke: #d3d3d3"/>
     <use xlink:href="#ma639400049" x="285.383807" y="254.935385" style="fill: #d3d3d3; stroke: #d3d3d3"/>
     <use xlink:href="#ma639400049" x="295.529261" y="254.935385" style="fill: #d3d3d3; stroke: #d3d3d3"/>
     <use xlink:href="#ma639400049" x="305.674716" y="254.935385" style="fill: #d3d3d3; stroke: #d3d3d3"/>
     <use xlink:href="#ma639400049" x="315.82017" y="254.935385" style="fill: #d3d3d3; stroke: #d3d3d3"/>
     <use xlink:href="#ma639400049" x="325.965625" y="254.935385" style="fill: #d3d3d3; stroke: #d3d3d3"/>
     <use xlink:href="#ma639400049" x="336.11108" y="254.935385" style="fill: #d3d3d3; stroke: #d3d3d3"/>
     <use xlink:href="#ma639400049" x="346.256534" y="254.935385" style="fill: #d3d3d3; stroke: #d3d3d3"/>
     <use xlink:href="#ma639400049" x="356.401989" y="254.935385" style="fill: #d3d3d3; stroke: #d3d3d3"/>
     <use xlink:href="#ma639400049" x="366.547443" y="254.935385" style="fill: #d3d3d3; stroke: #d3d3d3"/>
     <use xlink:href="#ma639400049" x="376.692898" y="254.935385" style="fill: #d3d3d3; stroke: #d3d3d3"/>
     <use xlink:href="#ma639400049" x="386.838352" y="254.935385" style="fill: #d3d3d3; stroke: #d3d3d3"/>
     <use xlink:href="#ma639400049" x="396.983807" y="254.935385" style="fill: #d3d3d3; stroke: #d3d3d3"/>
     <use xlink:href="#ma639400049" x="407.129261" y="254.935385" style="fill: #d3d3d3; stroke: #d3d3d3"/>
     <use xlink:href="#ma639400049" x="417.274716" y="254.935385" style="fill: #d3d3d3; stroke: #d3d3d3"/>
     <use xlink:href="#ma639400049" x="427.42017" y="249.402716" style="fill: #d3d3d3; stroke: #d3d3d3"/>
     <use xlink:href="#ma639400049" x="437.565625" y="235.86913" style="fill: #d3d3d3; stroke: #d3d3d3"/>
     <use xlink:href="#ma639400049" x="447.71108" y="221.889508" style="fill: #d3d3d3; stroke: #d3d3d3"/>
     <use xlink:href="#ma639400049" x="457.856534" y="207.542236" style="fill: #d3d3d3; stroke: #d3d3d3"/>
     <use xlink:href="#ma639400049" x="468.001989" y="192.891613" style="fill: #d3d3d3; stroke: #d3d3d3"/>
     <use xlink:href="#ma639400049" x="478.147443" y="177.990701" style="fill: #d3d3d3; stroke: #d3d3d3"/>
     <use xlink:href="#ma639400049" x="488.292898" y="162.883751" style="fill: #d3d3d3; stroke: #d3d3d3"/>
     <use xlink:href="#ma639400049" x="498.438352" y="147.608077" style="fill: #d3d3d3; stroke: #d3d3d3"/>
     <use xlink:href="#ma639400049" x="508.583807" y="132.195397" style="fill: #d3d3d3; stroke: #d3d3d3"/>
     <use xlink:href="#ma639400049" x="518.729261" y="116.672781" style="fill: #d3d3d3; stroke: #d3d3d3"/>
     <use xlink:href="#ma639400049" x="528.874716" y="101.063378" style="fill: #d3d3d3; stroke: #d3d3d3"/>
     <use xlink:href="#ma639400049" x="539.02017" y="85.387025" style="fill: #d3d3d3; stroke: #d3d3d3"/>
     <use xlink:href="#ma639400049" x="549.165625" y="69.660771" style="fill: #d3d3d3; stroke: #d3d3d3"/>
     <use xlink:href="#ma639400049" x="559.31108" y="53.899315" style="fill: #d3d3d3; stroke: #d3d3d3"/>
     <use xlink:href="#ma639400049" x="569.456534" y="38.115378" style="fill: #d3d3d3; stroke: #d3d3d3"/>
     <use xlink:href="#ma639400049" x="579.601989" y="22.32" style="fill: #d3d3d3; stroke: #d3d3d3"/>
    </g>
   </g>
   <g id="line2d_25">
    <path d="M 72.329261 278.196923 
L 156.874716 254.935385 
L 241.42017 254.935385 
L 325.965625 254.935385 
L 410.51108 254.935385 
L 495.056534 152.716654 
L 579.601989 22.32 
" clip-path="url(#pa7fb37a2ac)" style="fill: none; stroke: #ff0000; stroke-width: 1.5; stroke-linecap: square"/>
    <defs>
     <path id="m1562345a4b" d="M 0 3 
C 0.795609 3 1.55874 2.683901 2.12132 2.12132 
C 2.683901 1.55874 3 0.795609 3 0 
C 3 -0.795609 2.683901 -1.55874 2.12132 -2.12132 
C 1.55874 -2.683901 0.795609 -3 0 -3 
C -0.795609 -3 -1.55874 -2.683901 -2.12132 -2.12132 
C -2.683901 -1.55874 -3 -0.795609 -3 0 
C -3 0.795609 -2.683901 1.55874 -2.12132 2.12132 
C -1.55874 2.683901 -0.795609 3 0 3 
z
" style="stroke: #ff0000"/>
    </defs>
    <g clip-path="url(#pa7fb37a2ac)">
     <use xlink:href="#m1562345a4b" x="72.329261" y="278.196923" style="fill: #ff0000; stroke: #ff0000"/>
     <use xlink:href="#m1562345a4b" x="156.874716" y="254.935385" style="fill: #ff0000; stroke: #ff0000"/>
     <use xlink:href="#m1562345a4b" x="241.42017" y="254.935385" style="fill: #ff0000; stroke: #ff0000"/>
     <use xlink:href="#m1562345a4b" x="325.965625" y="254.935385" style="fill: #ff0000; stroke: #ff0000"/>
     <use xlink:href="#m1562345a4b" x="410.51108" y="254.935385" style="fill: #ff0000; stroke: #ff0000"/>
     <use xlink:href="#m1562345a4b" x="495.056534" y="152.716654" style="fill: #ff0000; stroke: #ff0000"/>
     <use xlink:href="#m1562345a4b" x="579.601989" y="22.32" style="fill: #ff0000; stroke: #ff0000"/>
    </g>
   </g>
   <g id="line2d_26">
    <path d="M 72.329261 324.72 
L 156.874716 316.964118 
L 241.42017 309.208933 
L 325.965625 301.454537 
L 410.51108 293.701015 
L 495.056534 285.94845 
L 579.601989 278.196923 
" clip-path="url(#pa7fb37a2ac)" style="fill: none; stroke: #0000ff; stroke-width: 1.5; stroke-linecap: square"/>
    <defs>
     <path id="mf43ea53f3e" d="M 0 3 
C 0.795609 3 1.55874 2.683901 2.12132 2.12132 
C 2.683901 1.55874 3 0.795609 3 0 
C 3 -0.795609 2.683901 -1.55874 2.12132 -2.12132 
C 1.55874 -2.683901 0.795609 -3 0 -3 
C -0.795609 -3 -1.55874 -2.683901 -2.12132 -2.12132 
C -2.683901 -1.55874 -3 -0.795609 -3 0 
C -3 0.795609 -2.683901 1.55874 -2.12132 2.12132 
C -1.55874 2.683901 -0.795609 3 0 3 
z
" style="stroke: #0000ff"/>
    </defs>
    <g clip-path="url(#pa7fb37a2ac)">
     <use xlink:href="#mf43ea53f3e" x="72.329261" y="324.72" style="fill: #0000ff; stroke: #0000ff"/>
     <use xlink:href="#mf43ea53f3e" x="156.874716" y="316.964118" style="fill: #0000ff; stroke: #0000ff"/>
     <use xlink:href="#mf43ea53f3e" x="241.42017" y="309.208933" style="fill: #0000ff; stroke: #0000ff"/>
     <use xlink:href="#mf43ea53f3e" x="325.965625" y="301.454537" style="fill: #0000ff; stroke: #0000ff"/>
     <use xlink:href="#mf43ea53f3e" x="410.51108" y="293.701015" style="fill: #0000ff; stroke: #0000ff"/>
     <use xlink:href="#mf43ea53f3e" x="495.056534" y="285.94845" style="fill: #0000ff; stroke: #0000ff"/>
     <use xlink:href="#mf43ea53f3e" x="579.601989" y="278.196923" style="fill: #0000ff; stroke: #0000ff"/>
    </g>
   </g>
   <g id="patch_3">
    <path d="M 46.965625 339.84 
L 46.965625 7.2 
" style="fill: none; stroke: #ffffff; stroke-width: 0.8; stroke-linejoin: miter; stroke-linecap: square"/>
   </g>
   <g id="patch_4">
    <path d="M 604.965625 339.84 
L 604.965625 7.2 
" style="fill: none; stroke: #ffffff; stroke-width: 0.8; stroke-linejoin: miter; stroke-linecap: square"/>
   </g>
   <g id="patch_5">
    <path d="M 46.965625 339.84 
L 604.965625 339.84 
" style="fill: none; stroke: #ffffff; stroke-width: 0.8; stroke-linejoin: miter; stroke-linecap: square"/>
   </g>
   <g id="patch_6">
    <path d="M 46.965625 7.2 
L 604.965625 7.2 
" style="fill: none; stroke: #ffffff; stroke-width: 0.8; stroke-linejoin: miter; stroke-linecap: square"/>
   </g>
   <g id="legend_1">
    <g id="patch_7">
     <path d="M 53.965625 44.55625 
L 284.123438 44.55625 
Q 286.123438 44.55625 286.123438 42.55625 
L 286.123438 14.2 
Q 286.123438 12.2 284.123438 12.2 
L 53.965625 12.2 
Q 51.965625 12.2 51.965625 14.2 
L 51.965625 42.55625 
Q 51.965625 44.55625 53.965625 44.55625 
z
" style="opacity: 0.8; stroke: #cccccc; stroke-linejoin: miter"/>
    </g>
    <g id="line2d_27">
     <path d="M 55.965625 20.298437 
L 65.965625 20.298437 
L 75.965625 20.298437 
" style="fill: none; stroke: #d3d3d3; stroke-width: 0.5; stroke-linecap: square"/>
     <g>
      <use xlink:href="#ma639400049" x="65.965625" y="20.298437" style="fill: #d3d3d3; stroke: #d3d3d3"/>
     </g>
    </g>
    <g id="text_19">
     <!-- sectioned heat exchanger (50 sections) -->
     <g style="fill: #ffffff" transform="translate(83.965625 23.798437) scale(0.1 -0.1)">
      <defs>
       <path id="DejaVuSans-63" d="M 3122 3366 
L 3122 2828 
Q 2878 2963 2633 3030 
Q 2388 3097 2138 3097 
Q 1578 3097 1268 2742 
Q 959 2388 959 1747 
Q 959 1106 1268 751 
Q 1578 397 2138 397 
Q 2388 397 2633 464 
Q 2878 531 3122 666 
L 3122 134 
Q 2881 22 2623 -34 
Q 2366 -91 2075 -91 
Q 1284 -91 818 406 
Q 353 903 353 1747 
Q 353 2603 823 3093 
Q 1294 3584 2113 3584 
Q 2378 3584 2631 3529 
Q 2884 3475 3122 3366 
z
" transform="scale(0.015625)"/>
       <path id="DejaVuSans-6f" d="M 1959 3097 
Q 1497 3097 1228 2736 
Q 959 2375 959 1747 
Q 959 1119 1226 758 
Q 1494 397 1959 397 
Q 2419 397 2687 759 
Q 2956 1122 2956 1747 
Q 2956 2369 2687 2733 
Q 2419 3097 1959 3097 
z
M 1959 3584 
Q 2709 3584 3137 3096 
Q 3566 2609 3566 1747 
Q 3566 888 3137 398 
Q 2709 -91 1959 -91 
Q 1206 -91 779 398 
Q 353 888 353 1747 
Q 353 2609 779 3096 
Q 1206 3584 1959 3584 
z
" transform="scale(0.015625)"/>
       <path id="DejaVuSans-78" d="M 3513 3500 
L 2247 1797 
L 3578 0 
L 2900 0 
L 1881 1375 
L 863 0 
L 184 0 
L 1544 1831 
L 300 3500 
L 978 3500 
L 1906 2253 
L 2834 3500 
L 3513 3500 
z
" transform="scale(0.015625)"/>
       <path id="DejaVuSans-67" d="M 2906 1791 
Q 2906 2416 2648 2759 
Q 2391 3103 1925 3103 
Q 1463 3103 1205 2759 
Q 947 2416 947 1791 
Q 947 1169 1205 825 
Q 1463 481 1925 481 
Q 2391 481 2648 825 
Q 2906 1169 2906 1791 
z
M 3481 434 
Q 3481 -459 3084 -895 
Q 2688 -1331 1869 -1331 
Q 1566 -1331 1297 -1286 
Q 1028 -1241 775 -1147 
L 775 -588 
Q 1028 -725 1275 -790 
Q 1522 -856 1778 -856 
Q 2344 -856 2625 -561 
Q 2906 -266 2906 331 
L 2906 616 
Q 2728 306 2450 153 
Q 2172 0 1784 0 
Q 1141 0 747 490 
Q 353 981 353 1791 
Q 353 2603 747 3093 
Q 1141 3584 1784 3584 
Q 2172 3584 2450 3431 
Q 2728 3278 2906 2969 
L 2906 3500 
L 3481 3500 
L 3481 434 
z
" transform="scale(0.015625)"/>
       <path id="DejaVuSans-28" d="M 1984 4856 
Q 1566 4138 1362 3434 
Q 1159 2731 1159 2009 
Q 1159 1288 1364 580 
Q 1569 -128 1984 -844 
L 1484 -844 
Q 1016 -109 783 600 
Q 550 1309 550 2009 
Q 550 2706 781 3412 
Q 1013 4119 1484 4856 
L 1984 4856 
z
" transform="scale(0.015625)"/>
       <path id="DejaVuSans-29" d="M 513 4856 
L 1013 4856 
Q 1481 4119 1714 3412 
Q 1947 2706 1947 2009 
Q 1947 1309 1714 600 
Q 1481 -109 1013 -844 
L 513 -844 
Q 928 -128 1133 580 
Q 1338 1288 1338 2009 
Q 1338 2731 1133 3434 
Q 928 4138 513 4856 
z
" transform="scale(0.015625)"/>
      </defs>
      <use xlink:href="#DejaVuSans-73"/>
      <use xlink:href="#DejaVuSans-65" transform="translate(52.099609 0)"/>
      <use xlink:href="#DejaVuSans-63" transform="translate(113.623047 0)"/>
      <use xlink:href="#DejaVuSans-74" transform="translate(168.603516 0)"/>
      <use xlink:href="#DejaVuSans-69" transform="translate(207.8125 0)"/>
      <use xlink:href="#DejaVuSans-6f" transform="translate(235.595703 0)"/>
      <use xlink:href="#DejaVuSans-6e" transform="translate(296.777344 0)"/>
      <use xlink:href="#DejaVuSans-65" transform="translate(360.15625 0)"/>
      <use xlink:href="#DejaVuSans-64" transform="translate(421.679688 0)"/>
      <use xlink:href="#DejaVuSans-20" transform="translate(485.15625 0)"/>
      <use xlink:href="#DejaVuSans-68" transform="translate(516.943359 0)"/>
      <use xlink:href="#DejaVuSans-65" transform="translate(580.322266 0)"/>
      <use xlink:href="#DejaVuSans-61" transform="translate(641.845703 0)"/>
      <use xlink:href="#DejaVuSans-74" transform="translate(703.125 0)"/>
      <use xlink:href="#DejaVuSans-20" transform="translate(742.333984 0)"/>
      <use xlink:href="#DejaVuSans-65" transform="translate(774.121094 0)"/>
      <use xlink:href="#DejaVuSans-78" transform="translate(833.894531 0)"/>
      <use xlink:href="#DejaVuSans-63" transform="translate(891.324219 0)"/>
      <use xlink:href="#DejaVuSans-68" transform="translate(946.304688 0)"/>
      <use xlink:href="#DejaVuSans-61" transform="translate(1009.683594 0)"/>
      <use xlink:href="#DejaVuSans-6e" transform="translate(1070.962891 0)"/>
      <use xlink:href="#DejaVuSans-67" transform="translate(1134.341797 0)"/>
      <use xlink:href="#DejaVuSans-65" transform="translate(1197.818359 0)"/>
      <use xlink:href="#DejaVuSans-72" transform="translate(1259.341797 0)"/>
      <use xlink:href="#DejaVuSans-20" transform="translate(1300.455078 0)"/>
      <use xlink:href="#DejaVuSans-28" transform="translate(1332.242188 0)"/>
      <use xlink:href="#DejaVuSans-35" transform="translate(1371.255859 0)"/>
      <use xlink:href="#DejaVuSans-30" transform="translate(1434.878906 0)"/>
      <use xlink:href="#DejaVuSans-20" transform="translate(1498.501953 0)"/>
      <use xlink:href="#DejaVuSans-73" transform="translate(1530.289062 0)"/>
      <use xlink:href="#DejaVuSans-65" transform="translate(1582.388672 0)"/>
      <use xlink:href="#DejaVuSans-63" transform="translate(1643.912109 0)"/>
      <use xlink:href="#DejaVuSans-74" transform="translate(1698.892578 0)"/>
      <use xlink:href="#DejaVuSans-69" transform="translate(1738.101562 0)"/>
      <use xlink:href="#DejaVuSans-6f" transform="translate(1765.884766 0)"/>
      <use xlink:href="#DejaVuSans-6e" transform="translate(1827.066406 0)"/>
      <use xlink:href="#DejaVuSans-73" transform="translate(1890.445312 0)"/>
      <use xlink:href="#DejaVuSans-29" transform="translate(1942.544922 0)"/>
     </g>
    </g>
    <g id="line2d_28">
     <path d="M 55.965625 34.976562 
L 65.965625 34.976562 
L 75.965625 34.976562 
" style="fill: none; stroke: #ff0000; stroke-width: 1.5; stroke-linecap: square"/>
     <g>
      <use xlink:href="#m1562345a4b" x="65.965625" y="34.976562" style="fill: #ff0000; stroke: #ff0000"/>
     </g>
    </g>
    <g id="text_20">
     <!-- sectioned heat exchanger (6 sections) -->
     <g style="fill: #ffffff" transform="translate(83.965625 38.476562) scale(0.1 -0.1)">
      <use xlink:href="#DejaVuSans-73"/>
      <use xlink:href="#DejaVuSans-65" transform="translate(52.099609 0)"/>
      <use xlink:href="#DejaVuSans-63" transform="translate(113.623047 0)"/>
      <use xlink:href="#DejaVuSans-74" transform="translate(168.603516 0)"/>
      <use xlink:href="#DejaVuSans-69" transform="translate(207.8125 0)"/>
      <use xlink:href="#DejaVuSans-6f" transform="translate(235.595703 0)"/>
      <use xlink:href="#DejaVuSans-6e" transform="translate(296.777344 0)"/>
      <use xlink:href="#DejaVuSans-65" transform="translate(360.15625 0)"/>
      <use xlink:href="#DejaVuSans-64" transform="translate(421.679688 0)"/>
      <use xlink:href="#DejaVuSans-20" transform="translate(485.15625 0)"/>
      <use xlink:href="#DejaVuSans-68" transform="translate(516.943359 0)"/>
      <use xlink:href="#DejaVuSans-65" transform="translate(580.322266 0)"/>
      <use xlink:href="#DejaVuSans-61" transform="translate(641.845703 0)"/>
      <use xlink:href="#DejaVuSans-74" transform="translate(703.125 0)"/>
      <use xlink:href="#DejaVuSans-20" transform="translate(742.333984 0)"/>
      <use xlink:href="#DejaVuSans-65" transform="translate(774.121094 0)"/>
      <use xlink:href="#DejaVuSans-78" transform="translate(833.894531 0)"/>
      <use xlink:href="#DejaVuSans-63" transform="translate(891.324219 0)"/>
      <use xlink:href="#DejaVuSans-68" transform="translate(946.304688 0)"/>
      <use xlink:href="#DejaVuSans-61" transform="translate(1009.683594 0)"/>
      <use xlink:href="#DejaVuSans-6e" transform="translate(1070.962891 0)"/>
      <use xlink:href="#DejaVuSans-67" transform="translate(1134.341797 0)"/>
      <use xlink:href="#DejaVuSans-65" transform="translate(1197.818359 0)"/>
      <use xlink:href="#DejaVuSans-72" transform="translate(1259.341797 0)"/>
      <use xlink:href="#DejaVuSans-20" transform="translate(1300.455078 0)"/>
      <use xlink:href="#DejaVuSans-28" transform="translate(1332.242188 0)"/>
      <use xlink:href="#DejaVuSans-36" transform="translate(1371.255859 0)"/>
      <use xlink:href="#DejaVuSans-20" transform="translate(1434.878906 0)"/>
      <use xlink:href="#DejaVuSans-73" transform="translate(1466.666016 0)"/>
      <use xlink:href="#DejaVuSans-65" transform="translate(1518.765625 0)"/>
      <use xlink:href="#DejaVuSans-63" transform="translate(1580.289062 0)"/>
      <use xlink:href="#DejaVuSans-74" transform="translate(1635.269531 0)"/>
      <use xlink:href="#DejaVuSans-69" transform="translate(1674.478516 0)"/>
      <use xlink:href="#DejaVuSans-6f" transform="translate(1702.261719 0)"/>
      <use xlink:href="#DejaVuSans-6e" transform="translate(1763.443359 0)"/>
      <use xlink:href="#DejaVuSans-73" transform="translate(1826.822266 0)"/>
      <use xlink:href="#DejaVuSans-29" transform="translate(1878.921875 0)"/>
     </g>
    </g>
   </g>
  </g>
 </g>
 <defs>
  <clipPath id="pa7fb37a2ac">
   <rect x="46.965625" y="7.2" width="558" height="332.64"/>
  </clipPath>
 </defs>
</svg>
