<?xml version="1.0" encoding="UTF-8" standalone="no"?>
<svg
   inkscape:export-ydpi="1012"
   inkscape:export-xdpi="1012"
   sodipodi:docname="benchmark.svg"
   inkscape:version="1.3.2 (091e20e, 2023-11-25, custom)"
   id="svg8"
   version="1.1"
   viewBox="0 0 150.19051 84.269693"
   height="84.269691mm"
   width="150.19051mm"
   xml:space="preserve"
   xmlns:inkscape="http://www.inkscape.org/namespaces/inkscape"
   xmlns:sodipodi="http://sodipodi.sourceforge.net/DTD/sodipodi-0.dtd"
   xmlns:xlink="http://www.w3.org/1999/xlink"
   xmlns="http://www.w3.org/2000/svg"
   xmlns:svg="http://www.w3.org/2000/svg"
   xmlns:rdf="http://www.w3.org/1999/02/22-rdf-syntax-ns#"
   xmlns:cc="http://creativecommons.org/ns#"
   xmlns:dc="http://purl.org/dc/elements/1.1/"><defs
     id="defs2"><linearGradient
       id="linearGradient2073"
       inkscape:collect="always"><stop
         id="stop2069"
         offset="0"
         style="stop-color:#000000;stop-opacity:1;" /><stop
         id="stop2071"
         offset="1"
         style="stop-color:#000000;stop-opacity:0;" /></linearGradient><rect
       id="rect1009"
       height="0"
       width="12.5"
       y="-75"
       x="50" /><linearGradient
       gradientTransform="translate(0.29243162,-2.3779876)"
       gradientUnits="userSpaceOnUse"
       y2="204.98201"
       x2="223.36507"
       y1="204.98201"
       x1="221.6942"
       id="linearGradient2075"
       xlink:href="#linearGradient2073"
       inkscape:collect="always" /><inkscape:path-effect
       effect="spiro"
       id="path-effect4646"
       is_visible="true" /><inkscape:path-effect
       effect="spiro"
       id="path-effect4642"
       is_visible="true" /><inkscape:path-effect
       effect="spiro"
       id="path-effect4638"
       is_visible="true" /><inkscape:path-effect
       effect="spiro"
       id="path-effect3273"
       is_visible="true" /><inkscape:path-effect
       effect="spiro"
       id="path-effect3265"
       is_visible="true" /><inkscape:path-effect
       effect="spiro"
       id="path-effect3261"
       is_visible="true" /><inkscape:path-effect
       effect="spiro"
       id="path-effect3257"
       is_visible="true" /><linearGradient
       id="linearGradient3960"><stop
         id="stop3972"
         offset="0"
         style="stop-color:#55d400;stop-opacity:0.74901961;" /><stop
         id="stop3970"
         offset="0.5"
         style="stop-color:#55d400;stop-opacity:0.49803922;" /><stop
         style="stop-color:#39d400;stop-opacity:0.24705882;"
         offset="0.75"
         id="stop3976" /><stop
         id="stop3980"
         offset="0.875"
         style="stop-color:#94d400;stop-opacity:0.24705882;" /><stop
         id="stop3978"
         offset="1"
         style="stop-color:#efd400;stop-opacity:0.24705882;" /></linearGradient><marker
       inkscape:stockid="Arrow2Lstart"
       orient="auto"
       refY="0"
       refX="0"
       id="Arrow2Lstart"
       style="overflow:visible"><path
         id="path4366"
         style="fill-rule:evenodd;stroke-width:0.625;stroke-linejoin:round"
         d="M 8.7185878,4.0337352 -2.2072895,0.01601326 8.7185884,-4.0017078 c -1.7454984,2.3720609 -1.7354408,5.6174519 -6e-7,8.035443 z"
         transform="matrix(1.1,0,0,1.1,1.1,0)"
         inkscape:connector-curvature="0" /></marker><marker
       inkscape:stockid="EmptyDiamondL"
       orient="auto"
       refY="0"
       refX="0"
       id="EmptyDiamondL"
       style="overflow:visible"><path
         id="path4454"
         d="M 0,-7.0710768 -7.0710894,0 0,7.0710589 7.0710462,0 Z"
         style="fill:#ffffff;fill-rule:evenodd;stroke:#000000;stroke-width:1.00000003pt"
         transform="scale(0.8)"
         inkscape:connector-curvature="0" /></marker><marker
       inkscape:stockid="DiamondSstart"
       orient="auto"
       refY="0"
       refX="0"
       id="DiamondSstart"
       style="overflow:visible"><path
         id="path4442"
         d="M 0,-7.0710768 -7.0710894,0 0,7.0710589 7.0710462,0 Z"
         style="fill-rule:evenodd;stroke:#000000;stroke-width:1.00000003pt"
         transform="matrix(0.2,0,0,0.2,1.2,0)"
         inkscape:connector-curvature="0" /></marker><marker
       inkscape:stockid="Arrow1Lstart"
       orient="auto"
       refY="0"
       refX="0"
       id="Arrow1Lstart"
       style="overflow:visible"><path
         id="path4348"
         d="M 0,0 5,-5 -12.5,0 5,5 Z"
         style="fill-rule:evenodd;stroke:#000000;stroke-width:1.00000003pt"
         transform="matrix(0.8,0,0,0.8,10,0)"
         inkscape:connector-curvature="0" /></marker><marker
       inkscape:stockid="SquareL"
       orient="auto"
       refY="0"
       refX="0"
       id="SquareL"
       style="overflow:visible"><path
         id="path4418"
         d="M -5,-5 V 5 H 5 V -5 Z"
         style="fill-rule:evenodd;stroke:#000000;stroke-width:1.00000003pt"
         transform="scale(0.8)"
         inkscape:connector-curvature="0" /></marker><inkscape:perspective
       sodipodi:type="inkscape:persp3d"
       inkscape:vp_x="-105.05586 : -280.83261 : 1"
       inkscape:vp_y="0 : 1000 : 0"
       inkscape:vp_z="1150 : 200 : 1"
       inkscape:persp3d-origin="575 : 133.33333 : 1"
       id="perspective4087" /><radialGradient
       r="97.496925"
       fy="188.21428"
       fx="236.78572"
       cy="188.21428"
       cx="236.78572"
       gradientTransform="translate(-139.2888,-90.7174)"
       gradientUnits="userSpaceOnUse"
       id="radialGradient3013"
       xlink:href="#linearGradient3684-76"
       inkscape:collect="always" /><radialGradient
       r="97.496925"
       fy="188.21428"
       fx="236.78572"
       cy="188.21428"
       cx="236.78572"
       gradientTransform="translate(-90.4365,1338.3028)"
       gradientUnits="userSpaceOnUse"
       id="radialGradient3004"
       xlink:href="#linearGradient3684-76"
       inkscape:collect="always" /><linearGradient
       id="linearGradient3684-76"><stop
         offset="0"
         style="stop-color:#000000;stop-opacity:1"
         id="stop3686-14" /><stop
         offset="0.89795917"
         style="stop-color:#000000;stop-opacity:0.86666667"
         id="stop3692-23" /><stop
         offset="1"
         style="stop-color:#000000;stop-opacity:0"
         id="stop3688-2" /></linearGradient><radialGradient
       gradientTransform="translate(-90.4365,1338.3028)"
       gradientUnits="userSpaceOnUse"
       xlink:href="#linearGradient3684-76"
       id="radialGradient4894"
       fy="188.21428"
       fx="236.78572"
       r="97.496925"
       cy="188.21428"
       cx="236.78572" /><inkscape:path-effect
       effect="spiro"
       id="path-effect3273-8"
       is_visible="true" /><inkscape:path-effect
       effect="spiro"
       id="path-effect3273-3"
       is_visible="true" /><inkscape:path-effect
       effect="spiro"
       id="path-effect3273-3-6"
       is_visible="true" /><inkscape:path-effect
       effect="spiro"
       id="path-effect3273-3-0"
       is_visible="true" /><inkscape:path-effect
       effect="spiro"
       id="path-effect3273-3-0-5"
       is_visible="true" /><inkscape:path-effect
       effect="spiro"
       id="path-effect3273-3-0-6"
       is_visible="true" /><inkscape:path-effect
       effect="spiro"
       id="path-effect3273-2"
       is_visible="true" /><inkscape:path-effect
       effect="spiro"
       id="path-effect3273-8-0"
       is_visible="true" /><inkscape:path-effect
       effect="spiro"
       id="path-effect3273-3-1"
       is_visible="true" /><inkscape:path-effect
       effect="spiro"
       id="path-effect3273-3-6-7"
       is_visible="true" /><inkscape:path-effect
       effect="spiro"
       id="path-effect3273-3-0-8"
       is_visible="true" /><inkscape:path-effect
       effect="spiro"
       id="path-effect3273-3-0-5-1"
       is_visible="true" /><inkscape:path-effect
       effect="spiro"
       id="path-effect3273-3-0-6-5"
       is_visible="true" /><ellipse
       transform="matrix(-1.655217,1.5156218,-1.8633661,-2.0349941,554.10899,812.95323)"
       id="path3981-2-1-6-7-5-0-3-3-9"
       style="display:inline;fill:none;stroke:none"
       cx="-36.96954"
       cy="-68.571419"
       rx="43.030457"
       ry="35" /><inkscape:path-effect
       effect="spiro"
       id="path-effect3273-9"
       is_visible="true" /><inkscape:path-effect
       effect="spiro"
       id="path-effect3273-8-3"
       is_visible="true" /><inkscape:path-effect
       effect="spiro"
       id="path-effect3273-3-2"
       is_visible="true" /><inkscape:path-effect
       effect="spiro"
       id="path-effect3273-3-6-0"
       is_visible="true" /><inkscape:path-effect
       effect="spiro"
       id="path-effect3273-3-0-1"
       is_visible="true" /><inkscape:path-effect
       effect="spiro"
       id="path-effect3273-3-0-5-8"
       is_visible="true" /><inkscape:path-effect
       effect="spiro"
       id="path-effect3273-3-0-6-3"
       is_visible="true" /></defs><sodipodi:namedview
     inkscape:window-maximized="1"
     inkscape:window-y="87"
     inkscape:window-x="2880"
     inkscape:window-height="813"
     inkscape:window-width="1424"
     inkscape:snap-to-guides="false"
     inkscape:guide-bbox="true"
     showguides="true"
     inkscape:bbox-nodes="false"
     inkscape:snap-grids="true"
     inkscape:snap-bbox="true"
     inkscape:snap-nodes="true"
     inkscape:object-paths="true"
     inkscape:snap-center="true"
     showgrid="true"
     inkscape:document-rotation="0"
     inkscape:current-layer="layer1"
     inkscape:document-units="mm"
     inkscape:cy="77.074637"
     inkscape:cx="127.98632"
     inkscape:zoom="0.7071068"
     inkscape:pageshadow="2"
     inkscape:pageopacity="0.0"
     borderopacity="1.0"
     bordercolor="#666666"
     pagecolor="#ffffff"
     id="base"
     fit-margin-top="5"
     fit-margin-left="5"
     fit-margin-right="5"
     fit-margin-bottom="5"
     inkscape:pagecheckerboard="0"
     inkscape:snap-intersection-paths="true"
     inkscape:bbox-paths="false"
     inkscape:snap-object-midpoints="true"
     inkscape:showpageshadow="2"
     inkscape:deskcolor="#d1d1d1"><inkscape:grid
       spacingy="1"
       spacingx="1"
       units="cm"
       dotted="true"
       enabled="true"
       id="grid835"
       type="xygrid"
       originx="-61.999997"
       originy="-32.639067"
       visible="true" /></sodipodi:namedview><metadata
     id="metadata5"><rdf:RDF><cc:Work
         rdf:about=""><dc:format>image/svg+xml</dc:format><dc:type
           rdf:resource="http://purl.org/dc/dcmitype/StillImage" /></cc:Work></rdf:RDF></metadata><g
     id="layer1"
     inkscape:groupmode="layer"
     inkscape:label="Ebene 1"
     transform="translate(-61.99998,-32.639073)"><g
       id="g5"
       transform="translate(2.3812515)"><g
         id="g4"
         transform="matrix(0.625,0,0,0.625,53.351233,26.8027)"><g
           inkscape:label="Ebene 1"
           id="layer1-4"
           transform="matrix(0.03779276,0,0,0.03779276,123.63905,5.985618)"
           style="display:inline"><g
             transform="matrix(0.91666939,0.00891669,-0.008729,0.91623053,14.672869,82.666835)"
             id="g3831-9-3-1-6-3"
             style="display:inline;fill:none;stroke:#cfcfcf;stroke-width:1.46722;stroke-linecap:round;stroke-miterlimit:4;stroke-dasharray:none;stroke-opacity:1" /><g
             style="display:inline"
             id="g3465-3-7"
             transform="matrix(1.14,0,0,1.14,-68.513462,-174.87898)"><path
               style="display:inline;opacity:1;vector-effect:none;fill:none;fill-opacity:1;fill-rule:nonzero;stroke:#1f567d;stroke-width:48.2456;stroke-linecap:butt;stroke-linejoin:miter;stroke-miterlimit:4;stroke-dasharray:none;stroke-dashoffset:0;stroke-opacity:1"
               id="path3981-2-1-6-7-5-0-4-4-8-3-3"
               transform="rotate(90.00083)"
               sodipodi:type="arc"
               sodipodi:cx="1076.4397"
               sodipodi:cy="-555.91534"
               sodipodi:rx="100.26201"
               sodipodi:ry="100.26201"
               sodipodi:start="0.52359878"
               sodipodi:end="5.7595865"
               d="m 1163.2691,-505.78434 a 100.26201,100.26201 0 0 1 -112.7791,46.71466 100.26201,100.26201 0 0 1 -74.31231,-96.84566 100.26201,100.26201 0 0 1 74.31231,-96.84567 100.26201,100.26201 0 0 1 112.7791,46.71466"
               sodipodi:open="true"
               sodipodi:arc-type="arc" /><path
               style="display:inline;fill:none;stroke:#000000;stroke-width:5.26316;stroke-linecap:butt;stroke-linejoin:round;stroke-miterlimit:4;stroke-dasharray:none;stroke-opacity:1"
               d="m 526.32438,1046.952 v 59.1507 h 59.15076 v -59.1507 z"
               id="path1531-3" /><path
               style="display:inline;fill:none;stroke:#000000;stroke-width:5.26316;stroke-linecap:butt;stroke-linejoin:round;stroke-miterlimit:4;stroke-dasharray:none;stroke-opacity:1"
               d="m 555.89976,1024.7704 v 22.1816"
               id="path1539-6"
               sodipodi:nodetypes="cc" /><path
               style="display:inline;fill:none;stroke:#000000;stroke-width:2.63158;stroke-linecap:butt;stroke-linejoin:round;stroke-miterlimit:4;stroke-dasharray:none;stroke-opacity:1"
               d="m 607.65667,1076.5273 h -22.18153 l -29.57538,14.7878 v -29.5755 l -29.57538,14.7877 h -22.18153"
               id="path1541-7"
               sodipodi:nodetypes="cccccc" /><path
               style="display:inline;fill:none;stroke:#000000;stroke-width:2.63158;stroke-linecap:butt;stroke-linejoin:round;stroke-miterlimit:4;stroke-dasharray:none;stroke-opacity:1"
               d="m 555.89976,1106.1027 v 22.1816"
               id="path1543-5"
               sodipodi:nodetypes="cc" /></g></g><g
           transform="matrix(0.51946956,0,0,0.51946956,-182.00568,-129.47631)"
           id="g16"><g
             id="g3"><g
               id="g2"><g
                 id="g1"><path
                   d="m 610,320 v 80 h 60 V 341.586 L 648.414,320 Z m 39.017,3.431 17.552,17.552 c 0.004,0.004 0.004,0.01 0,0.014 -0.002,0.002 -0.004,0.003 -0.007,0.003 H 649 v -17.562 c 0,-0.006 0.005,-0.01 0.01,-0.01 0.003,0 0.005,10e-4 0.007,0.003 z M 612,398 v -76 h 35 v 21 h 21 v 55 z"
                   id="path1" /></g></g></g><g
             id="g11"><g
               id="g10"><g
                 id="g9"><path
                   d="m 649,391 h 40 v 2 h -40 z"
                   id="path3" /><path
                   d="m 649,383 h 19 v 2 h -19 z"
                   id="path4" /><path
                   d="m 649,399 h 40 v 2 h -40 z"
                   id="path5" /><path
                   d="m 649,407 h 40 v 2 h -40 z"
                   id="path6" /><path
                   d="m 649,415 h 40 v 2 h -40 z"
                   id="path7" /><path
                   d="m 649,423 h 40 v 2 h -40 z"
                   id="path8" /><path
                   d="m 639,357 v 80 h 60 V 378.586 L 677.414,357 Z m 39.017,3.431 17.552,17.552 c 0.004,0.004 0.004,0.01 0,0.014 -0.002,0.002 -0.004,0.003 -0.007,0.003 H 678 v -17.562 c 0,-0.006 0.005,-0.01 0.01,-0.01 0.003,0 0.005,10e-4 0.007,0.003 z M 641,435 v -76 h 35 v 21 h 21 v 55 z"
                   id="path9" /></g></g></g><g
             id="g15"><g
               id="g14"><g
                 id="g13"><path
                   d="m 700,451 h -32.5 l 10.914,-26.383 c 0.153,-0.374 0.518,-0.618 0.923,-0.617 h 47.724 c 0.552,0 1,0.448 0.999,1.001 0,0.133 -0.027,0.266 -0.079,0.389 l -3.9,9.22 1.842,0.78 3.9,-9.221 c 0.646,-1.526 -0.068,-3.286 -1.594,-3.932 -0.37,-0.156 -0.767,-0.237 -1.168,-0.237 h -47.724 c -1.215,-0.003 -2.311,0.729 -2.772,1.853 L 664.5,453 H 700 Z"
                   id="path11" /><path
                   d="m 726.552,440.448 c -5.257,-5.282 -13.8,-5.302 -19.082,-0.046 -5.025,5.002 -5.323,13.039 -0.681,18.398 l -1.674,1.674 c -1.356,-0.733 -3.033,-0.493 -4.128,0.592 l -6.962,6.962 c -1.367,1.367 -1.367,3.583 0,4.95 1.367,1.367 3.583,1.367 4.95,0 l 6.963,-6.962 c 1.085,-1.096 1.325,-2.772 0.591,-4.128 l 1.671,-1.677 c 5.633,4.879 14.154,4.268 19.033,-1.365 4.642,-5.359 4.344,-13.397 -0.681,-18.398 z m -17.678,1.414 c 3.318,-3.31 8.312,-4.278 12.626,-2.447 L 716.351,451 H 705.56 c -0.303,-3.386 0.911,-6.733 3.314,-9.138 z m -4.351,22.738 -6.962,6.962 c -0.586,0.586 -1.536,0.586 -2.122,0 -0.586,-0.586 -0.586,-1.536 0,-2.122 l 6.961,-6.963 c 0.586,-0.586 1.537,-0.586 2.123,0 0.586,0.586 0.586,1.537 0,2.123 z m 20.615,-6.473 c -4.476,4.491 -11.744,4.503 -16.235,0.028 -1.431,-1.426 -2.46,-3.204 -2.984,-5.155 h 11.73 l 5.622,-12.647 c 5.325,3.451 6.843,10.565 3.392,15.89 -0.44,0.68 -0.952,1.311 -1.525,1.883 z"
                   id="path12" /><path
                   d="m 682.418,406 c 0.19,0 0.376,0.054 0.536,0.156 l 10.018,6.375 c 0.481,0.307 1.04,0.47 1.61,0.469 H 720 c 0.552,0 1,0.448 1,1 v 6 h 2 v -6 c 0,-1.657 -1.343,-3 -3,-3 h -25.418 c -0.19,0 -0.376,-0.054 -0.536,-0.156 l -10.018,-6.375 c -0.481,-0.307 -1.04,-0.47 -1.61,-0.469 H 665 c -1.657,0 -3,1.343 -3,3 v 46 h 2 v -46 c 0,-0.552 0.448,-1 1,-1 z"
                   id="path13" /></g></g></g></g></g><g
         id="Icons"
         transform="matrix(0.625,0,0,0.625,81.40122,44.773919)"><rect
           x="28"
           y="42"
           width="40"
           height="2"
           id="rect1" /><rect
           x="28"
           y="34"
           width="19"
           height="2"
           id="rect2" /><rect
           x="28"
           y="50"
           width="40"
           height="2"
           id="rect3" /><rect
           x="28"
           y="58"
           width="40"
           height="2"
           id="rect4" /><rect
           x="28"
           y="66"
           width="40"
           height="2"
           id="rect5" /><rect
           x="28"
           y="74"
           width="40"
           height="2"
           id="rect6" /><path
           d="M 18,8 V 88 H 78 V 29.586 L 56.414,8 Z m 39.017,3.431 17.552,17.552 c 0.0039,0.0039 0.0038,0.0103 -1e-4,0.0141 C 74.567,28.9989 74.5646,29 74.562,29 H 57 V 11.438 c 1e-4,-0.0055 0.0046,-0.0099 0.0101,-0.0099 0.0026,10e-5 0.0051,0.0011 0.0069,0.0029 z M 20,86 V 10 h 35 v 21 h 21 v 55 z"
           id="path6-8" /></g></g></g></svg>
