<?xml version="1.0" encoding="UTF-8" standalone="no"?>
<svg
   inkscape:export-ydpi="1012"
   inkscape:export-xdpi="1012"
   sodipodi:docname="benchmark.svg"
   inkscape:version="1.3.2 (091e20e, 2023-11-25, custom)"
   id="svg8"
   version="1.1"
   viewBox="0 0 160 120"
   height="120mm"
   width="160mm"
   xmlns:inkscape="http://www.inkscape.org/namespaces/inkscape"
   xmlns:sodipodi="http://sodipodi.sourceforge.net/DTD/sodipodi-0.dtd"
   xmlns:xlink="http://www.w3.org/1999/xlink"
   xmlns="http://www.w3.org/2000/svg"
   xmlns:svg="http://www.w3.org/2000/svg"
   xmlns:rdf="http://www.w3.org/1999/02/22-rdf-syntax-ns#"
   xmlns:cc="http://creativecommons.org/ns#"
   xmlns:dc="http://purl.org/dc/elements/1.1/">
  <defs
     id="defs2">
    <linearGradient
       id="linearGradient2073"
       inkscape:collect="always">
      <stop
         id="stop2069"
         offset="0"
         style="stop-color:#000000;stop-opacity:1;" />
      <stop
         id="stop2071"
         offset="1"
         style="stop-color:#000000;stop-opacity:0;" />
    </linearGradient>
    <rect
       id="rect1009"
       height="0"
       width="12.5"
       y="-75"
       x="50" />
    <linearGradient
       gradientTransform="translate(0.29243162,-2.3779876)"
       gradientUnits="userSpaceOnUse"
       y2="204.98201"
       x2="223.36507"
       y1="204.98201"
       x1="221.6942"
       id="linearGradient2075"
       xlink:href="#linearGradient2073"
       inkscape:collect="always" />
    <clipPath
       id="p6e57b7c683">
      <rect
         x="46.965626"
         y="7.1999998"
         width="558"
         height="332.64001"
         id="rect229" />
    </clipPath>
    <clipPath
       id="clipPath1">
      <rect
         x="46.965626"
         y="7.1999998"
         width="558"
         height="332.64001"
         id="rect1" />
    </clipPath>
    <clipPath
       id="clipPath2">
      <rect
         x="46.965626"
         y="7.1999998"
         width="558"
         height="332.64001"
         id="rect2" />
    </clipPath>
    <clipPath
       id="clipPath3">
      <rect
         x="46.965626"
         y="7.1999998"
         width="558"
         height="332.64001"
         id="rect3" />
    </clipPath>
    <clipPath
       id="clipPath4">
      <rect
         x="46.965626"
         y="7.1999998"
         width="558"
         height="332.64001"
         id="rect4" />
    </clipPath>
    <clipPath
       id="clipPath5">
      <rect
         x="46.965626"
         y="7.1999998"
         width="558"
         height="332.64001"
         id="rect5" />
    </clipPath>
    <clipPath
       id="clipPath6">
      <rect
         x="46.965626"
         y="7.1999998"
         width="558"
         height="332.64001"
         id="rect6" />
    </clipPath>
    <clipPath
       id="clipPath7">
      <rect
         x="46.965626"
         y="7.1999998"
         width="558"
         height="332.64001"
         id="rect7" />
    </clipPath>
    <path
       id="path3"
       d="M 0,0 V 3.5"
       style="stroke:#000000;stroke-width:0.8" />
    <path
       id="path4"
       d="m 2034,4250 q -487,0 -733,-480 -245,-479 -245,-1442 0,-959 245,-1439 246,-480 733,-480 491,0 736,480 246,480 246,1439 0,963 -246,1442 -245,480 -736,480 z m 0,500 q 785,0 1199,-621 414,-620 414,-1801 0,-1178 -414,-1799 -414,-620 -1199,-620 -784,0 -1198,620 -414,621 -414,1799 0,1181 414,1801 414,621 1198,621 z"
       transform="scale(0.015625)" />
    <path
       id="path5"
       d="m 684,794 h 660 V 0 H 684 Z"
       transform="scale(0.015625)" />
    <path
       id="path6"
       d="M 1228,531 H 3431 V 0 H 469 v 531 q 359,372 979,998 621,627 780,809 303,340 423,576 121,236 121,464 0,372 -261,606 -261,235 -680,235 -297,0 -627,-103 -329,-103 -704,-313 v 638 q 381,153 712,231 332,78 607,78 725,0 1156,-363 431,-362 431,-968 0,-288 -108,-546 -107,-257 -392,-607 -78,-91 -497,-524 Q 1991,1309 1228,531 Z"
       transform="scale(0.015625)" />
    <path
       id="path7"
       d="M 691,4666 H 3169 V 4134 H 1269 V 2991 q 137,47 274,70 138,23 276,23 781,0 1237,-428 457,-428 457,-1159 Q 3513,744 3044,326 2575,-91 1722,-91 1428,-91 1123,-41 819,9 494,109 v 635 q 281,-153 581,-228 300,-75 634,-75 541,0 856,284 316,284 316,772 0,487 -316,771 -315,285 -856,285 -253,0 -505,-56 -251,-56 -513,-175 z"
       transform="scale(0.015625)" />
    <path
       id="path8"
       d="M 525,4666 H 3525 V 4397 L 1831,0 H 1172 L 2766,4134 H 525 Z"
       transform="scale(0.015625)" />
    <path
       id="path9"
       d="M 794,531 H 1825 V 4091 L 703,3866 v 575 l 1116,225 h 631 V 531 H 3481 V 0 H 794 Z"
       transform="scale(0.015625)" />
    <path
       id="path10"
       d="M 3513,2113 V 0 h -575 v 2094 q 0,497 -194,743 -194,247 -581,247 -466,0 -735,-297 -269,-296 -269,-809 V 0 H 581 v 4863 h 578 V 2956 q 207,316 486,472 280,156 646,156 603,0 912,-373 310,-373 310,-1098 z"
       transform="scale(0.015625)" />
    <path
       id="path11"
       d="M 3597,1894 V 1613 H 953 q 38,-594 358,-905 320,-311 892,-311 331,0 642,81 311,81 618,244 V 178 Q 3153,47 2828,-22 2503,-91 2169,-91 1331,-91 842,396 353,884 353,1716 q 0,859 464,1363 464,505 1252,505 706,0 1117,-455 411,-454 411,-1235 z m -575,169 q -6,471 -264,752 -258,282 -683,282 -481,0 -770,-272 -289,-272 -333,-766 z"
       transform="scale(0.015625)" />
    <path
       id="path12"
       d="m 2194,1759 q -697,0 -966,-159 -269,-159 -269,-544 0,-306 202,-486 202,-179 548,-179 479,0 768,339 289,339 289,901 v 128 z m 1147,238 V 0 H 2766 V 531 Q 2569,213 2275,61 1981,-91 1556,-91 q -537,0 -855,302 -317,302 -317,808 0,590 395,890 396,300 1180,300 h 807 v 57 q 0,397 -261,614 -261,217 -733,217 -300,0 -585,-72 -284,-72 -546,-216 v 532 q 315,122 612,182 297,61 578,61 760,0 1135,-394 375,-393 375,-1193 z"
       transform="scale(0.015625)" />
    <path
       id="path13"
       d="M 1172,4494 V 3500 H 2356 V 3053 H 1172 V 1153 q 0,-428 117,-550 117,-122 477,-122 h 590 V 0 H 1766 Q 1100,0 847,248 594,497 594,1153 V 3053 H 172 v 447 h 422 v 994 z"
       transform="scale(0.015625)" />
    <path
       id="path14"
       transform="scale(0.015625)"
       d="" />
    <path
       id="path15"
       d="m 2631,2963 q -97,56 -211,82 -114,27 -251,27 -488,0 -749,-317 -261,-317 -261,-911 V 0 H 581 v 3500 h 578 v -544 q 182,319 472,473 291,155 707,155 59,0 131,-8 72,-7 159,-23 z"
       transform="scale(0.015625)" />
    <path
       id="path16"
       d="M 3513,2113 V 0 h -575 v 2094 q 0,497 -194,743 -194,247 -581,247 -466,0 -735,-297 -269,-296 -269,-809 V 0 H 581 v 3500 h 578 v -544 q 207,316 486,472 280,156 646,156 603,0 912,-373 310,-373 310,-1098 z"
       transform="scale(0.015625)" />
    <path
       id="path17"
       d="m 2834,3397 v -544 q -243,125 -506,187 -262,63 -544,63 -428,0 -642,-131 -214,-131 -214,-394 0,-200 153,-314 153,-114 616,-217 l 197,-44 q 612,-131 870,-370 258,-239 258,-667 0,-488 -386,-773 Q 2250,-91 1575,-91 1294,-91 989,-36 684,19 347,128 v 594 q 319,-166 628,-249 309,-82 613,-82 406,0 624,139 219,139 219,392 0,234 -158,359 -157,125 -692,241 l -200,47 q -534,112 -772,345 -237,233 -237,639 0,494 350,762 350,269 994,269 318,0 599,-47 282,-46 519,-140 z"
       transform="scale(0.015625)" />
    <path
       id="path18"
       d="m 2375,4863 v -479 h -550 q -309,0 -430,-125 -120,-125 -120,-450 v -309 h 947 V 3053 H 1275 V 0 H 697 V 3053 H 147 v 447 h 550 v 244 q 0,584 272,851 272,268 862,268 z"
       transform="scale(0.015625)" />
    <path
       id="path19"
       d="m 2906,2969 v 1894 h 575 V 0 H 2906 V 525 Q 2725,213 2448,61 2172,-91 1784,-91 1150,-91 751,415 353,922 353,1747 q 0,825 398,1331 399,506 1033,506 388,0 664,-152 277,-151 458,-463 z M 947,1747 q 0,-634 261,-995 261,-361 717,-361 456,0 718,361 263,361 263,995 0,634 -263,995 -262,361 -718,361 -456,0 -717,-361 -261,-361 -261,-995 z"
       transform="scale(0.015625)" />
    <path
       id="path20"
       d="m 603,3500 h 575 V 0 H 603 Z m 0,1363 h 575 V 4134 H 603 Z"
       transform="scale(0.015625)" />
    <path
       id="path21"
       d="m 628,4666 h 941 L 2759,1491 3956,4666 h 941 V 0 H 4281 V 4097 L 3078,897 H 2444 L 1241,4097 V 0 H 628 Z"
       transform="scale(0.015625)" />
    <path
       id="path22"
       d="m 213,4666 h 637 l 981,-3944 978,3944 h 710 l 981,-3944 978,3944 h 641 L 4947,0 H 4153 L 3169,4050 2175,0 h -794 z"
       transform="scale(0.015625)" />
    <path
       id="path23"
       d="M 0,0 H -3.5"
       style="stroke:#000000;stroke-width:0.8" />
    <path
       id="path24"
       d="m 2597,2516 q 453,-97 707,-404 255,-306 255,-756 0,-690 -475,-1069 -475,-378 -1350,-378 -293,0 -604,58 -311,58 -642,174 v 609 q 262,-153 574,-231 313,-78 654,-78 593,0 904,234 311,234 311,681 0,413 -289,645 -289,233 -804,233 h -544 v 519 h 569 q 465,0 712,186 247,186 247,536 0,359 -255,551 -254,193 -729,193 -260,0 -557,-57 -297,-56 -653,-174 v 562 q 360,100 674,150 314,50 592,50 719,0 1137,-327 419,-326 419,-882 0,-388 -222,-655 -222,-267 -631,-370 z"
       transform="scale(0.015625)" />
    <path
       id="path25"
       d="M 2419,4116 825,1625 h 1594 z m -166,550 h 794 V 1625 h 666 V 1100 H 3047 V 0 H 2419 V 1100 H 313 v 609 z"
       transform="scale(0.015625)" />
    <path
       id="path26"
       d="m 2113,2584 q -425,0 -674,-291 -248,-290 -248,-796 0,-503 248,-796 249,-292 674,-292 425,0 673,292 248,293 248,796 0,506 -248,796 -248,291 -673,291 z m 1253,1979 v -575 q -238,112 -480,171 -242,60 -480,60 -625,0 -955,-422 -329,-422 -376,-1275 184,272 462,417 279,145 613,145 703,0 1111,-427 408,-426 408,-1160 0,-719 -425,-1154 -425,-434 -1131,-434 -810,0 -1238,620 -428,621 -428,1799 0,1106 525,1764 525,658 1409,658 238,0 480,-47 242,-47 505,-140 z"
       transform="scale(0.015625)" />
    <path
       id="path27"
       d="m 2034,2216 q -450,0 -708,-241 -257,-241 -257,-662 0,-422 257,-663 258,-241 708,-241 450,0 709,242 260,243 260,662 0,421 -258,662 -257,241 -711,241 z m -631,268 q -406,100 -633,378 -226,279 -226,679 0,559 398,884 399,325 1092,325 697,0 1094,-325 397,-325 397,-884 0,-400 -227,-679 -226,-278 -629,-378 456,-106 710,-416 255,-309 255,-755 Q 3634,634 3220,271 2806,-91 2034,-91 1263,-91 848,271 434,634 434,1313 q 0,446 256,755 257,310 713,416 z m -231,997 q 0,-362 226,-565 227,-203 636,-203 407,0 636,203 230,203 230,565 0,363 -230,566 -229,203 -636,203 -409,0 -636,-203 -226,-203 -226,-566 z"
       transform="scale(0.015625)" />
    <path
       id="path28"
       d="m 3328,2828 q 216,388 516,572 300,184 706,184 547,0 844,-383 297,-382 297,-1088 V 0 h -578 v 2094 q 0,503 -179,746 -178,244 -543,244 -447,0 -707,-297 -259,-296 -259,-809 V 0 h -578 v 2094 q 0,506 -178,748 -178,242 -550,242 -441,0 -701,-298 -259,-298 -259,-808 V 0 H 581 v 3500 h 578 v -544 q 197,322 472,475 275,153 653,153 382,0 649,-194 267,-193 395,-562 z"
       transform="scale(0.015625)" />
    <path
       id="path29"
       d="M 1159,525 V -1331 H 581 v 4831 h 578 v -531 q 182,312 458,463 277,152 661,152 638,0 1036,-506 399,-506 399,-1331 0,-825 -399,-1332 -398,-506 -1036,-506 -384,0 -661,152 -276,152 -458,464 z m 1957,1222 q 0,634 -261,995 -261,361 -717,361 -457,0 -718,-361 -261,-361 -261,-995 0,-634 261,-995 261,-361 718,-361 456,0 717,361 261,361 261,995 z"
       transform="scale(0.015625)" />
    <path
       id="path30"
       d="m 544,1381 v 2119 h 575 V 1403 q 0,-497 193,-746 194,-248 582,-248 465,0 735,297 271,297 271,810 v 1984 h 575 V 0 H 2900 V 538 Q 2691,219 2414,64 2138,-91 1772,-91 1169,-91 856,284 544,659 544,1381 Z m 1447,2203 z"
       transform="scale(0.015625)" />
    <path
       id="path31"
       d="m 628,4666 h 631 V 2694 l 2094,1972 h 813 L 1850,2491 4331,0 H 3500 L 1259,2247 V 0 H 628 Z"
       transform="scale(0.015625)" />
    <path
       id="path32"
       d="M 0,1 C 0.265203,1 0.51958,0.894634 0.707107,0.707107 0.894634,0.51958 1,0.265203 1,0 1,-0.265203 0.894634,-0.51958 0.707107,-0.707107 0.51958,-0.894634 0.265203,-1 0,-1 -0.265203,-1 -0.51958,-0.894634 -0.707107,-0.707107 -0.894634,-0.51958 -1,-0.265203 -1,0 -1,0.265203 -0.894634,0.51958 -0.707107,0.707107 -0.51958,0.894634 -0.265203,1 0,1 Z"
       style="stroke:#000000" />
    <path
       id="path33"
       d="M 0,3 C 0.795609,3 1.55874,2.683901 2.12132,2.12132 2.683901,1.55874 3,0.795609 3,0 3,-0.795609 2.683901,-1.55874 2.12132,-2.12132 1.55874,-2.683901 0.795609,-3 0,-3 -0.795609,-3 -1.55874,-2.683901 -2.12132,-2.12132 -2.683901,-1.55874 -3,-0.795609 -3,0 -3,0.795609 -2.683901,1.55874 -2.12132,2.12132 -1.55874,2.683901 -0.795609,3 0,3 Z"
       style="stroke:#ff0000" />
    <path
       id="path34"
       d="M 0,3 C 0.795609,3 1.55874,2.683901 2.12132,2.12132 2.683901,1.55874 3,0.795609 3,0 3,-0.795609 2.683901,-1.55874 2.12132,-2.12132 1.55874,-2.683901 0.795609,-3 0,-3 -0.795609,-3 -1.55874,-2.683901 -2.12132,-2.12132 -2.683901,-1.55874 -3,-0.795609 -3,0 -3,0.795609 -2.683901,1.55874 -2.12132,2.12132 -1.55874,2.683901 -0.795609,3 0,3 Z"
       style="stroke:#0000ff" />
    <path
       id="path35"
       d="m 3122,3366 v -538 q -244,135 -489,202 -245,67 -495,67 -560,0 -870,-355 -309,-354 -309,-995 0,-641 309,-996 310,-354 870,-354 250,0 495,67 245,67 489,202 V 134 Q 2881,22 2623,-34 2366,-91 2075,-91 1284,-91 818,406 353,903 353,1747 q 0,856 470,1346 471,491 1290,491 265,0 518,-55 253,-54 491,-163 z"
       transform="scale(0.015625)" />
    <path
       id="path36"
       d="m 1959,3097 q -462,0 -731,-361 -269,-361 -269,-989 0,-628 267,-989 268,-361 733,-361 460,0 728,362 269,363 269,988 0,622 -269,986 -268,364 -728,364 z m 0,487 q 750,0 1178,-488 429,-487 429,-1349 Q 3566,888 3137,398 2709,-91 1959,-91 1206,-91 779,398 353,888 353,1747 q 0,862 426,1349 427,488 1180,488 z"
       transform="scale(0.015625)" />
    <path
       id="path37"
       d="M 3513,3500 2247,1797 3578,0 H 2900 L 1881,1375 863,0 H 184 L 1544,1831 300,3500 h 678 l 928,-1247 928,1247 z"
       transform="scale(0.015625)" />
    <path
       id="path38"
       d="m 2906,1791 q 0,625 -258,968 -257,344 -723,344 -462,0 -720,-344 -258,-343 -258,-968 0,-622 258,-966 258,-344 720,-344 466,0 723,344 258,344 258,966 z M 3481,434 q 0,-893 -397,-1329 -396,-436 -1215,-436 -303,0 -572,45 -269,45 -522,139 v 559 q 253,-137 500,-202 247,-66 503,-66 566,0 847,295 281,295 281,892 V 616 Q 2728,306 2450,153 2172,0 1784,0 1141,0 747,490 353,981 353,1791 q 0,812 394,1302 394,491 1037,491 388,0 666,-153 278,-153 456,-462 v 531 h 575 z"
       transform="scale(0.015625)" />
    <path
       id="path39"
       d="m 1984,4856 q -418,-718 -622,-1422 -203,-703 -203,-1425 0,-721 205,-1429 205,-708 620,-1424 h -500 q -468,735 -701,1444 -233,709 -233,1409 0,697 231,1403 232,707 703,1444 z"
       transform="scale(0.015625)" />
    <path
       id="path40"
       d="m 513,4856 h 500 q 468,-737 701,-1444 233,-706 233,-1403 0,-700 -233,-1409 -233,-709 -701,-1444 H 513 q 415,716 620,1424 205,708 205,1429 0,722 -205,1425 -205,704 -620,1422 z"
       transform="scale(0.015625)" />
    <path
       id="path41"
       d="M 1259,4147 V 519 h 763 q 966,0 1414,437 448,438 448,1382 0,937 -448,1373 -448,436 -1414,436 z m -631,519 h 1297 q 1356,0 1990,-564 635,-564 635,-1764 Q 4550,1131 3912,565 3275,0 1925,0 H 628 Z"
       transform="scale(0.015625)" />
    <path
       id="path42"
       d="m 628,4666 h 631 V 2753 h 2294 v 1913 h 631 V 0 H 3553 V 2222 H 1259 V 0 H 628 Z"
       transform="scale(0.015625)" />
    <path
       id="path43"
       d="M 628,4666 H 3578 V 4134 H 1259 V 2753 H 3481 V 2222 H 1259 V 531 H 3634 V 0 H 628 Z"
       transform="scale(0.015625)" />
  </defs>
  <sodipodi:namedview
     inkscape:window-maximized="1"
     inkscape:window-y="-12"
     inkscape:window-x="4308"
     inkscape:window-height="2054"
     inkscape:window-width="3840"
     inkscape:snap-to-guides="false"
     inkscape:guide-bbox="true"
     showguides="true"
     inkscape:bbox-nodes="false"
     inkscape:snap-grids="true"
     inkscape:snap-bbox="true"
     inkscape:snap-nodes="true"
     inkscape:object-paths="true"
     inkscape:snap-center="true"
     showgrid="true"
     inkscape:document-rotation="0"
     inkscape:current-layer="layer1"
     inkscape:document-units="mm"
     inkscape:cy="267.10959"
     inkscape:cx="322.97102"
     inkscape:zoom="2.8284271"
     inkscape:pageshadow="2"
     inkscape:pageopacity="0.0"
     borderopacity="1.0"
     bordercolor="#666666"
     pagecolor="#ffffff"
     id="base"
     fit-margin-top="5"
     fit-margin-left="5"
     fit-margin-right="5"
     fit-margin-bottom="5"
     inkscape:pagecheckerboard="0"
     inkscape:snap-intersection-paths="true"
     inkscape:bbox-paths="false"
     inkscape:snap-object-midpoints="true"
     inkscape:showpageshadow="2"
     inkscape:deskcolor="#d1d1d1">
    <inkscape:grid
       spacingy="1"
       spacingx="0.99999999"
       units="cm"
       dotted="true"
       enabled="true"
       id="grid835"
       type="xygrid"
       originx="0"
       originy="0"
       visible="true" />
  </sodipodi:namedview>
  <metadata
     id="metadata5">
    <rdf:RDF>
      <cc:Work
         rdf:about="">
        <dc:format>image/svg+xml</dc:format>
        <dc:type
           rdf:resource="http://purl.org/dc/dcmitype/StillImage" />
      </cc:Work>
    </rdf:RDF>
  </metadata>
  <g
     id="layer1"
     inkscape:groupmode="layer"
     inkscape:label="Ebene 1"
     transform="translate(-61.99998,-32.639073)">
    <g
       id="g51"
       transform="translate(0.12435548,-0.59999789)">
      <path
         class="st0"
         d="m 190.75323,98.582497 c 3.57178,0 6.80746,1.452633 9.15446,3.788253 2.34701,2.347 3.78825,5.57129 3.78825,9.15446 0,2.60905 -0.78043,5.0472 -2.10774,7.08089 l 5.59977,6.10107 -3.86231,3.5319 -5.40039,-5.94157 c -2.05078,1.36719 -4.51741,2.16472 -7.16634,2.16472 -3.57178,0 -6.80745,-1.45264 -9.14876,-3.78825 -2.34701,-2.34701 -3.78825,-5.57129 -3.78825,-9.14876 0,-3.57178 1.45264,-6.80746 3.78825,-9.15446 2.33561,-2.34701 5.56559,-3.788253 9.14306,-3.788253 z M 147.44187,81.515439 v 0 26.825361 c 0,0.15381 0.057,0.29622 0.15381,0.39306 0.0968,0.0969 0.23356,0.15951 0.39307,0.15951 h 24.2277 c 1.66911,0.1709 1.72038,3.05908 0,3.30973 h -15.50618 v 6.15235 c 0,0.1595 0.057,0.29622 0.1595,0.39306 0.0968,0.0969 0.23356,0.15381 0.39307,0.15381 h 14.95931 c 1.20768,0.13672 1.60075,2.88249 0,3.30973 h -14.94222 c -1.05957,0 -2.03939,-0.43294 -2.72299,-1.13932 -0.70638,-0.70638 -1.13932,-1.66341 -1.13932,-2.72298 v -6.15234 h -5.41178 c -1.05957,0 -2.03939,-0.43295 -2.72298,-1.13933 -0.70638,-0.70638 -1.13933,-1.66341 -1.13933,-2.72298 V 62.101377 c 0.006,-1.059571 0.43864,-2.039388 1.14502,-2.722982 0.70638,-0.70638 1.66341,-1.139323 2.72298,-1.139323 h 40.62826 c 1.05957,0 2.03939,0.432943 2.72298,1.133626 0.70638,0.706381 1.13363,1.669108 1.13363,2.722982 v 6.152344 0 0 h 5.41178 c 1.05957,0 2.03939,0.432943 2.72298,1.133626 0.70638,0.70638 1.13933,1.669108 1.13933,2.722982 v 21.094564 c -0.11394,1.207682 -3.08187,1.224772 -3.33252,0 V 72.116025 c 0,-0.159505 -0.057,-0.296224 -0.15381,-0.393066 -0.0968,-0.09684 -0.23356,-0.159505 -0.39307,-0.159505 h -5.41178 v 21.641438 c -0.29053,1.09375 -2.75716,1.258952 -3.30973,0 v -11.689453 0 z m 0,-3.047689 v 0 h 41.72771 v 0 -16.366373 c 0,-0.159506 -0.057,-0.296224 -0.15951,-0.393067 -0.0968,-0.09684 -0.23356,-0.159505 -0.39307,-0.159505 h -40.62825 c -0.15951,0 -0.29623,0.05697 -0.39307,0.159505 -0.0968,0.09684 -0.15381,0.233561 -0.15381,0.393067 z m 18.90137,-7.95817 h 2.6888 c 0.14242,0 0.23926,0.09684 0.23926,0.239258 v 5.958659 c 0,0.142415 -0.0968,0.239257 -0.23926,0.239257 h -2.6888 c -0.14241,0 -0.23926,-0.09684 -0.23926,-0.239257 v -5.958659 c 0,-0.09115 0.0968,-0.239258 0.23926,-0.239258 z m 13.25033,0 h 2.6888 c 0.14241,0 0.23926,0.09684 0.23926,0.239258 v 5.958659 c 0,0.142415 -0.0968,0.239257 -0.23926,0.239257 h -2.6888 c -0.14242,0 -0.23926,-0.09684 -0.23926,-0.239257 v -5.958659 c 0,-0.09115 0.0968,-0.239258 0.23926,-0.239258 z m -6.62517,-5.041504 h 2.68881 c 0.14811,0 0.23925,0.09684 0.23925,0.239258 v 11.045735 c 0,0.142416 -0.0968,0.239258 -0.23925,0.239258 h -2.68881 c -0.14241,0 -0.23925,-0.09684 -0.23925,-0.239258 V 65.707334 c 0,-0.142416 0.0968,-0.239258 0.23925,-0.239258 z m -19.86979,1.822917 h 2.6888 c 0.14242,0 0.23926,0.09684 0.23926,0.239257 v 9.222819 c 0,0.142416 -0.0968,0.239258 -0.23926,0.239258 h -2.6888 c -0.14241,0 -0.23926,-0.09684 -0.23926,-0.239258 v -9.217122 c -0.0456,-0.148112 0.0968,-0.244954 0.23926,-0.244954 z m 6.61947,-1.822917 h 2.6888 c 0.14242,0 0.23926,0.09684 0.23926,0.239258 v 11.045735 c 0,0.142416 -0.0968,0.239258 -0.23926,0.239258 h -2.6888 c -0.14242,0 -0.23926,-0.09684 -0.23926,-0.239258 V 65.707334 c 0,-0.142416 0.0968,-0.239258 0.23926,-0.239258 z m 8.75,31.040853 7.49105,0.131022 c 0,2.688802 -1.32162,5.155439 -3.52621,6.653649 z m -0.41016,-2.290039 -0.0855,-8.727214 v -0.575358 l 0.57536,0.04557 v 0 0 c 0.70638,0.04557 1.41276,0.176595 2.07357,0.35319 0.66081,0.176595 1.27604,0.43864 1.89697,0.746257 3.04199,1.589355 5.15544,4.76237 5.33203,8.374023 l 0.0456,0.575358 h -0.57535 l -8.68164,-0.262044 h -0.48422 z m 0.96843,-8.203125 0.0854,7.67334 7.62776,0.222168 c -0.30762,-2.99642 -2.15901,-5.599773 -4.71679,-6.961263 -0.52979,-0.267741 -1.09945,-0.489909 -1.67481,-0.666504 -0.48421,-0.09115 -0.88297,-0.176595 -1.32161,-0.267741 z m -3.07048,9.712728 4.27816,7.405597 c -1.32162,0.75196 -2.77425,1.14502 -4.27816,1.14502 -4.7168,0 -8.55062,-3.83382 -8.55062,-8.556314 0,-4.585775 3.61735,-8.374023 8.19743,-8.550618 z m 31.67887,8.909507 c -1.76025,-1.76025 -4.1927,-2.854 -6.88151,-2.854 -2.6831,0 -5.12125,1.09375 -6.88151,2.854 -1.76025,1.76025 -2.854,4.19271 -2.854,6.88151 0,2.6831 1.09375,5.12126 2.854,6.88151 1.76026,1.76025 4.19271,2.854 6.88151,2.854 2.68311,0 5.12126,-1.09375 6.88151,-2.854 1.76026,-1.76025 2.85401,-4.19841 2.85401,-6.88151 0,-2.68311 -1.09375,-5.12126 -2.85401,-6.88151 z"
         id="path1-2"
         style="clip-rule:evenodd;fill-rule:evenodd;stroke-width:0.57;stroke-dasharray:none" />
      <g
         id="g50">
        <path
           style="color:#000000;fill:#1f567d;stroke-width:0.134655;stroke-dasharray:none"
           d="m 102.78708,75.26647 c -0.008,-0.681986 -0.1,-1.370712 -0.28244,-2.05167 -0.97308,-3.631788 -4.280824,-6.16997 -8.040712,-6.170024 -3.75989,-5.5e-5 -7.067708,2.538031 -8.040891,6.169791 -0.973184,3.631757 0.622243,7.483808 3.878376,9.363805 l 1.614475,-2.796189 c -2.004055,-1.157082 -2.973021,-3.496552 -2.374055,-5.731791 0.598967,-2.235246 2.607945,-3.77678 4.922048,-3.776746 2.314102,3.3e-5 4.323036,1.541626 4.921937,3.776888 0.598902,2.235257 -0.370263,4.574699 -2.374351,5.731722 l 1.614394,2.796237 c 2.645649,-1.527418 4.195139,-4.356729 4.161219,-7.312023 z"
           id="path3981-2-1-6-7-5-0-4-4-8-3-3" />
        <path
           style="color:#000000;fill:#000000;stroke-width:0.134655;stroke-linejoin:round;stroke-dasharray:none"
           d="m 92.48442,73.219111 a 0.17613606,0.17613606 0 0 0 -0.17607,0.176073 v 3.958766 a 0.17613606,0.17613606 0 0 0 0.17607,0.176073 h 3.958639 a 0.17613606,0.17613606 0 0 0 0.1762,-0.176073 v -3.958766 a 0.17613606,0.17613606 0 0 0 -0.1762,-0.176073 z m 0.17607,0.352273 h 3.606498 V 77.17775 H 92.66049 Z"
           id="path1531-3" />
        <path
           style="color:#000000;fill:#000000;stroke-width:0.134655;stroke-linejoin:round;stroke-dasharray:none"
           d="m 94.287604,71.910674 v 1.48451 h 0.352271 v -1.48451 z"
           id="path1539-6" />
        <path
           style="color:#000000;fill:#000000;stroke-width:0.134655;stroke-linejoin:round;stroke-dasharray:none"
           d="m 94.424329,74.30612 -1.960693,0.980344 h -1.463722 v 0.176206 h 1.484506 a 0.08806803,0.08806803 0 0 0 0.03934,-0.0093 l 1.85194,-0.925974 v 1.836783 a 0.08806803,0.08806803 0 0 0 0.127445,0.07882 l 1.960693,-0.980344 h 1.463722 v -0.176191 h -1.484505 a 0.08806803,0.08806803 0 0 0 -0.03935,0.0093 l -1.85194,0.925967 v -1.836776 a 0.08806803,0.08806803 0 0 0 -0.127445,-0.07882 z"
           id="path1541-7" />
        <path
           style="color:#000000;fill:#000000;stroke-width:0.134655;stroke-linejoin:round;stroke-dasharray:none"
           d="m 94.375704,77.35395 v 1.48451 h 0.17607 v -1.48451 z"
           id="path1543-5" />
        <rect
           style="fill:none;stroke:#000000;stroke-width:2.91667;stroke-linejoin:round;stroke-miterlimit:0;stroke-dasharray:none;paint-order:markers stroke fill"
           id="rect44"
           width="55.956734"
           height="67.083336"
           x="78.021614"
           y="59.697403" />
        <path
           style="fill:none;stroke:#000000;stroke-width:3;stroke-linecap:round;stroke-linejoin:round;stroke-miterlimit:0;stroke-dasharray:none;paint-order:markers stroke fill"
           d="m 119.17615,72.45991 h 7.82383"
           id="path44" />
        <path
           style="fill:none;stroke:#000000;stroke-width:3;stroke-linecap:round;stroke-linejoin:round;stroke-miterlimit:0;stroke-dasharray:none;paint-order:markers stroke fill"
           d="m 108.41973,81.495742 18.58025,2e-6"
           id="path45"
           sodipodi:nodetypes="cc" />
        <path
           style="fill:none;stroke:#000000;stroke-width:3;stroke-linecap:round;stroke-linejoin:round;stroke-miterlimit:0;stroke-dasharray:none;paint-order:markers stroke fill"
           d="m 85.99998,90.531575 h 18"
           id="path46" />
        <path
           style="fill:none;stroke:#000000;stroke-width:3;stroke-linecap:round;stroke-linejoin:round;stroke-miterlimit:0;stroke-dasharray:none;paint-order:markers stroke fill"
           d="m 108.99998,90.531575 h 18"
           id="path47"
           sodipodi:nodetypes="cc" />
        <path
           style="fill:none;stroke:#000000;stroke-width:3;stroke-linecap:round;stroke-linejoin:round;stroke-miterlimit:0;stroke-dasharray:none;paint-order:markers stroke fill"
           d="m 85.99998,99.567407 h 41"
           id="path48" />
        <path
           style="fill:none;stroke:#000000;stroke-width:3;stroke-linecap:round;stroke-linejoin:round;stroke-miterlimit:0;stroke-dasharray:none;paint-order:markers stroke fill"
           d="m 85.99998,108.60324 h 41"
           id="path49" />
        <path
           style="fill:none;stroke:#000000;stroke-width:3;stroke-linecap:round;stroke-linejoin:round;stroke-miterlimit:0;stroke-dasharray:none;paint-order:markers stroke fill"
           d="m 115.99998,117.63907 h 11"
           id="path50" />
      </g>
    </g>
  </g>
</svg>
