<?xml version="1.0" encoding="UTF-8" standalone="no"?>
<svg
   inkscape:export-ydpi="1012"
   inkscape:export-xdpi="1012"
   sodipodi:docname="debugging.svg"
   inkscape:version="1.3.2 (091e20e, 2023-11-25, custom)"
   id="svg8"
   version="1.1"
   viewBox="0 0 160 120"
   height="120mm"
   width="160mm"
   xmlns:inkscape="http://www.inkscape.org/namespaces/inkscape"
   xmlns:sodipodi="http://sodipodi.sourceforge.net/DTD/sodipodi-0.dtd"
   xmlns:xlink="http://www.w3.org/1999/xlink"
   xmlns="http://www.w3.org/2000/svg"
   xmlns:svg="http://www.w3.org/2000/svg"
   xmlns:rdf="http://www.w3.org/1999/02/22-rdf-syntax-ns#"
   xmlns:cc="http://creativecommons.org/ns#"
   xmlns:dc="http://purl.org/dc/elements/1.1/">
  <defs
     id="defs2">
    <linearGradient
       id="linearGradient2073"
       inkscape:collect="always">
      <stop
         id="stop2069"
         offset="0"
         style="stop-color:#000000;stop-opacity:1;" />
      <stop
         id="stop2071"
         offset="1"
         style="stop-color:#000000;stop-opacity:0;" />
    </linearGradient>
    <rect
       id="rect1009"
       height="0"
       width="12.5"
       y="-75"
       x="50" />
    <linearGradient
       gradientTransform="translate(0.29243162,-2.3779876)"
       gradientUnits="userSpaceOnUse"
       y2="204.98201"
       x2="223.36507"
       y1="204.98201"
       x1="221.6942"
       id="linearGradient2075"
       xlink:href="#linearGradient2073"
       inkscape:collect="always" />
    <clipPath
       id="p6e57b7c683">
      <rect
         x="46.965626"
         y="7.1999998"
         width="558"
         height="332.64001"
         id="rect229" />
    </clipPath>
    <clipPath
       id="clipPath1">
      <rect
         x="46.965626"
         y="7.1999998"
         width="558"
         height="332.64001"
         id="rect1" />
    </clipPath>
    <clipPath
       id="clipPath2">
      <rect
         x="46.965626"
         y="7.1999998"
         width="558"
         height="332.64001"
         id="rect2" />
    </clipPath>
    <clipPath
       id="clipPath3">
      <rect
         x="46.965626"
         y="7.1999998"
         width="558"
         height="332.64001"
         id="rect3" />
    </clipPath>
    <clipPath
       id="clipPath4">
      <rect
         x="46.965626"
         y="7.1999998"
         width="558"
         height="332.64001"
         id="rect4" />
    </clipPath>
    <clipPath
       id="clipPath5">
      <rect
         x="46.965626"
         y="7.1999998"
         width="558"
         height="332.64001"
         id="rect5" />
    </clipPath>
    <clipPath
       id="clipPath6">
      <rect
         x="46.965626"
         y="7.1999998"
         width="558"
         height="332.64001"
         id="rect6" />
    </clipPath>
    <clipPath
       id="clipPath7">
      <rect
         x="46.965626"
         y="7.1999998"
         width="558"
         height="332.64001"
         id="rect7" />
    </clipPath>
    <path
       id="path3"
       d="M 0,0 V 3.5"
       style="stroke:#000000;stroke-width:0.8" />
    <path
       id="path4"
       d="m 2034,4250 q -487,0 -733,-480 -245,-479 -245,-1442 0,-959 245,-1439 246,-480 733,-480 491,0 736,480 246,480 246,1439 0,963 -246,1442 -245,480 -736,480 z m 0,500 q 785,0 1199,-621 414,-620 414,-1801 0,-1178 -414,-1799 -414,-620 -1199,-620 -784,0 -1198,620 -414,621 -414,1799 0,1181 414,1801 414,621 1198,621 z"
       transform="scale(0.015625)" />
    <path
       id="path5"
       d="m 684,794 h 660 V 0 H 684 Z"
       transform="scale(0.015625)" />
    <path
       id="path6"
       d="M 1228,531 H 3431 V 0 H 469 v 531 q 359,372 979,998 621,627 780,809 303,340 423,576 121,236 121,464 0,372 -261,606 -261,235 -680,235 -297,0 -627,-103 -329,-103 -704,-313 v 638 q 381,153 712,231 332,78 607,78 725,0 1156,-363 431,-362 431,-968 0,-288 -108,-546 -107,-257 -392,-607 -78,-91 -497,-524 Q 1991,1309 1228,531 Z"
       transform="scale(0.015625)" />
    <path
       id="path7"
       d="M 691,4666 H 3169 V 4134 H 1269 V 2991 q 137,47 274,70 138,23 276,23 781,0 1237,-428 457,-428 457,-1159 Q 3513,744 3044,326 2575,-91 1722,-91 1428,-91 1123,-41 819,9 494,109 v 635 q 281,-153 581,-228 300,-75 634,-75 541,0 856,284 316,284 316,772 0,487 -316,771 -315,285 -856,285 -253,0 -505,-56 -251,-56 -513,-175 z"
       transform="scale(0.015625)" />
    <path
       id="path8"
       d="M 525,4666 H 3525 V 4397 L 1831,0 H 1172 L 2766,4134 H 525 Z"
       transform="scale(0.015625)" />
    <path
       id="path9"
       d="M 794,531 H 1825 V 4091 L 703,3866 v 575 l 1116,225 h 631 V 531 H 3481 V 0 H 794 Z"
       transform="scale(0.015625)" />
    <path
       id="path10"
       d="M 3513,2113 V 0 h -575 v 2094 q 0,497 -194,743 -194,247 -581,247 -466,0 -735,-297 -269,-296 -269,-809 V 0 H 581 v 4863 h 578 V 2956 q 207,316 486,472 280,156 646,156 603,0 912,-373 310,-373 310,-1098 z"
       transform="scale(0.015625)" />
    <path
       id="path11"
       d="M 3597,1894 V 1613 H 953 q 38,-594 358,-905 320,-311 892,-311 331,0 642,81 311,81 618,244 V 178 Q 3153,47 2828,-22 2503,-91 2169,-91 1331,-91 842,396 353,884 353,1716 q 0,859 464,1363 464,505 1252,505 706,0 1117,-455 411,-454 411,-1235 z m -575,169 q -6,471 -264,752 -258,282 -683,282 -481,0 -770,-272 -289,-272 -333,-766 z"
       transform="scale(0.015625)" />
    <path
       id="path12"
       d="m 2194,1759 q -697,0 -966,-159 -269,-159 -269,-544 0,-306 202,-486 202,-179 548,-179 479,0 768,339 289,339 289,901 v 128 z m 1147,238 V 0 H 2766 V 531 Q 2569,213 2275,61 1981,-91 1556,-91 q -537,0 -855,302 -317,302 -317,808 0,590 395,890 396,300 1180,300 h 807 v 57 q 0,397 -261,614 -261,217 -733,217 -300,0 -585,-72 -284,-72 -546,-216 v 532 q 315,122 612,182 297,61 578,61 760,0 1135,-394 375,-393 375,-1193 z"
       transform="scale(0.015625)" />
    <path
       id="path13"
       d="M 1172,4494 V 3500 H 2356 V 3053 H 1172 V 1153 q 0,-428 117,-550 117,-122 477,-122 h 590 V 0 H 1766 Q 1100,0 847,248 594,497 594,1153 V 3053 H 172 v 447 h 422 v 994 z"
       transform="scale(0.015625)" />
    <path
       id="path14"
       transform="scale(0.015625)"
       d="" />
    <path
       id="path15"
       d="m 2631,2963 q -97,56 -211,82 -114,27 -251,27 -488,0 -749,-317 -261,-317 -261,-911 V 0 H 581 v 3500 h 578 v -544 q 182,319 472,473 291,155 707,155 59,0 131,-8 72,-7 159,-23 z"
       transform="scale(0.015625)" />
    <path
       id="path16"
       d="M 3513,2113 V 0 h -575 v 2094 q 0,497 -194,743 -194,247 -581,247 -466,0 -735,-297 -269,-296 -269,-809 V 0 H 581 v 3500 h 578 v -544 q 207,316 486,472 280,156 646,156 603,0 912,-373 310,-373 310,-1098 z"
       transform="scale(0.015625)" />
    <path
       id="path17"
       d="m 2834,3397 v -544 q -243,125 -506,187 -262,63 -544,63 -428,0 -642,-131 -214,-131 -214,-394 0,-200 153,-314 153,-114 616,-217 l 197,-44 q 612,-131 870,-370 258,-239 258,-667 0,-488 -386,-773 Q 2250,-91 1575,-91 1294,-91 989,-36 684,19 347,128 v 594 q 319,-166 628,-249 309,-82 613,-82 406,0 624,139 219,139 219,392 0,234 -158,359 -157,125 -692,241 l -200,47 q -534,112 -772,345 -237,233 -237,639 0,494 350,762 350,269 994,269 318,0 599,-47 282,-46 519,-140 z"
       transform="scale(0.015625)" />
    <path
       id="path18"
       d="m 2375,4863 v -479 h -550 q -309,0 -430,-125 -120,-125 -120,-450 v -309 h 947 V 3053 H 1275 V 0 H 697 V 3053 H 147 v 447 h 550 v 244 q 0,584 272,851 272,268 862,268 z"
       transform="scale(0.015625)" />
    <path
       id="path19"
       d="m 2906,2969 v 1894 h 575 V 0 H 2906 V 525 Q 2725,213 2448,61 2172,-91 1784,-91 1150,-91 751,415 353,922 353,1747 q 0,825 398,1331 399,506 1033,506 388,0 664,-152 277,-151 458,-463 z M 947,1747 q 0,-634 261,-995 261,-361 717,-361 456,0 718,361 263,361 263,995 0,634 -263,995 -262,361 -718,361 -456,0 -717,-361 -261,-361 -261,-995 z"
       transform="scale(0.015625)" />
    <path
       id="path20"
       d="m 603,3500 h 575 V 0 H 603 Z m 0,1363 h 575 V 4134 H 603 Z"
       transform="scale(0.015625)" />
    <path
       id="path21"
       d="m 628,4666 h 941 L 2759,1491 3956,4666 h 941 V 0 H 4281 V 4097 L 3078,897 H 2444 L 1241,4097 V 0 H 628 Z"
       transform="scale(0.015625)" />
    <path
       id="path22"
       d="m 213,4666 h 637 l 981,-3944 978,3944 h 710 l 981,-3944 978,3944 h 641 L 4947,0 H 4153 L 3169,4050 2175,0 h -794 z"
       transform="scale(0.015625)" />
    <path
       id="path23"
       d="M 0,0 H -3.5"
       style="stroke:#000000;stroke-width:0.8" />
    <path
       id="path24"
       d="m 2597,2516 q 453,-97 707,-404 255,-306 255,-756 0,-690 -475,-1069 -475,-378 -1350,-378 -293,0 -604,58 -311,58 -642,174 v 609 q 262,-153 574,-231 313,-78 654,-78 593,0 904,234 311,234 311,681 0,413 -289,645 -289,233 -804,233 h -544 v 519 h 569 q 465,0 712,186 247,186 247,536 0,359 -255,551 -254,193 -729,193 -260,0 -557,-57 -297,-56 -653,-174 v 562 q 360,100 674,150 314,50 592,50 719,0 1137,-327 419,-326 419,-882 0,-388 -222,-655 -222,-267 -631,-370 z"
       transform="scale(0.015625)" />
    <path
       id="path25"
       d="M 2419,4116 825,1625 h 1594 z m -166,550 h 794 V 1625 h 666 V 1100 H 3047 V 0 H 2419 V 1100 H 313 v 609 z"
       transform="scale(0.015625)" />
    <path
       id="path26"
       d="m 2113,2584 q -425,0 -674,-291 -248,-290 -248,-796 0,-503 248,-796 249,-292 674,-292 425,0 673,292 248,293 248,796 0,506 -248,796 -248,291 -673,291 z m 1253,1979 v -575 q -238,112 -480,171 -242,60 -480,60 -625,0 -955,-422 -329,-422 -376,-1275 184,272 462,417 279,145 613,145 703,0 1111,-427 408,-426 408,-1160 0,-719 -425,-1154 -425,-434 -1131,-434 -810,0 -1238,620 -428,621 -428,1799 0,1106 525,1764 525,658 1409,658 238,0 480,-47 242,-47 505,-140 z"
       transform="scale(0.015625)" />
    <path
       id="path27"
       d="m 2034,2216 q -450,0 -708,-241 -257,-241 -257,-662 0,-422 257,-663 258,-241 708,-241 450,0 709,242 260,243 260,662 0,421 -258,662 -257,241 -711,241 z m -631,268 q -406,100 -633,378 -226,279 -226,679 0,559 398,884 399,325 1092,325 697,0 1094,-325 397,-325 397,-884 0,-400 -227,-679 -226,-278 -629,-378 456,-106 710,-416 255,-309 255,-755 Q 3634,634 3220,271 2806,-91 2034,-91 1263,-91 848,271 434,634 434,1313 q 0,446 256,755 257,310 713,416 z m -231,997 q 0,-362 226,-565 227,-203 636,-203 407,0 636,203 230,203 230,565 0,363 -230,566 -229,203 -636,203 -409,0 -636,-203 -226,-203 -226,-566 z"
       transform="scale(0.015625)" />
    <path
       id="path28"
       d="m 3328,2828 q 216,388 516,572 300,184 706,184 547,0 844,-383 297,-382 297,-1088 V 0 h -578 v 2094 q 0,503 -179,746 -178,244 -543,244 -447,0 -707,-297 -259,-296 -259,-809 V 0 h -578 v 2094 q 0,506 -178,748 -178,242 -550,242 -441,0 -701,-298 -259,-298 -259,-808 V 0 H 581 v 3500 h 578 v -544 q 197,322 472,475 275,153 653,153 382,0 649,-194 267,-193 395,-562 z"
       transform="scale(0.015625)" />
    <path
       id="path29"
       d="M 1159,525 V -1331 H 581 v 4831 h 578 v -531 q 182,312 458,463 277,152 661,152 638,0 1036,-506 399,-506 399,-1331 0,-825 -399,-1332 -398,-506 -1036,-506 -384,0 -661,152 -276,152 -458,464 z m 1957,1222 q 0,634 -261,995 -261,361 -717,361 -457,0 -718,-361 -261,-361 -261,-995 0,-634 261,-995 261,-361 718,-361 456,0 717,361 261,361 261,995 z"
       transform="scale(0.015625)" />
    <path
       id="path30"
       d="m 544,1381 v 2119 h 575 V 1403 q 0,-497 193,-746 194,-248 582,-248 465,0 735,297 271,297 271,810 v 1984 h 575 V 0 H 2900 V 538 Q 2691,219 2414,64 2138,-91 1772,-91 1169,-91 856,284 544,659 544,1381 Z m 1447,2203 z"
       transform="scale(0.015625)" />
    <path
       id="path31"
       d="m 628,4666 h 631 V 2694 l 2094,1972 h 813 L 1850,2491 4331,0 H 3500 L 1259,2247 V 0 H 628 Z"
       transform="scale(0.015625)" />
    <path
       id="path32"
       d="M 0,1 C 0.265203,1 0.51958,0.894634 0.707107,0.707107 0.894634,0.51958 1,0.265203 1,0 1,-0.265203 0.894634,-0.51958 0.707107,-0.707107 0.51958,-0.894634 0.265203,-1 0,-1 -0.265203,-1 -0.51958,-0.894634 -0.707107,-0.707107 -0.894634,-0.51958 -1,-0.265203 -1,0 -1,0.265203 -0.894634,0.51958 -0.707107,0.707107 -0.51958,0.894634 -0.265203,1 0,1 Z"
       style="stroke:#000000" />
    <path
       id="path33"
       d="M 0,3 C 0.795609,3 1.55874,2.683901 2.12132,2.12132 2.683901,1.55874 3,0.795609 3,0 3,-0.795609 2.683901,-1.55874 2.12132,-2.12132 1.55874,-2.683901 0.795609,-3 0,-3 -0.795609,-3 -1.55874,-2.683901 -2.12132,-2.12132 -2.683901,-1.55874 -3,-0.795609 -3,0 -3,0.795609 -2.683901,1.55874 -2.12132,2.12132 -1.55874,2.683901 -0.795609,3 0,3 Z"
       style="stroke:#ff0000" />
    <path
       id="path34"
       d="M 0,3 C 0.795609,3 1.55874,2.683901 2.12132,2.12132 2.683901,1.55874 3,0.795609 3,0 3,-0.795609 2.683901,-1.55874 2.12132,-2.12132 1.55874,-2.683901 0.795609,-3 0,-3 -0.795609,-3 -1.55874,-2.683901 -2.12132,-2.12132 -2.683901,-1.55874 -3,-0.795609 -3,0 -3,0.795609 -2.683901,1.55874 -2.12132,2.12132 -1.55874,2.683901 -0.795609,3 0,3 Z"
       style="stroke:#0000ff" />
    <path
       id="path35"
       d="m 3122,3366 v -538 q -244,135 -489,202 -245,67 -495,67 -560,0 -870,-355 -309,-354 -309,-995 0,-641 309,-996 310,-354 870,-354 250,0 495,67 245,67 489,202 V 134 Q 2881,22 2623,-34 2366,-91 2075,-91 1284,-91 818,406 353,903 353,1747 q 0,856 470,1346 471,491 1290,491 265,0 518,-55 253,-54 491,-163 z"
       transform="scale(0.015625)" />
    <path
       id="path36"
       d="m 1959,3097 q -462,0 -731,-361 -269,-361 -269,-989 0,-628 267,-989 268,-361 733,-361 460,0 728,362 269,363 269,988 0,622 -269,986 -268,364 -728,364 z m 0,487 q 750,0 1178,-488 429,-487 429,-1349 Q 3566,888 3137,398 2709,-91 1959,-91 1206,-91 779,398 353,888 353,1747 q 0,862 426,1349 427,488 1180,488 z"
       transform="scale(0.015625)" />
    <path
       id="path37"
       d="M 3513,3500 2247,1797 3578,0 H 2900 L 1881,1375 863,0 H 184 L 1544,1831 300,3500 h 678 l 928,-1247 928,1247 z"
       transform="scale(0.015625)" />
    <path
       id="path38"
       d="m 2906,1791 q 0,625 -258,968 -257,344 -723,344 -462,0 -720,-344 -258,-343 -258,-968 0,-622 258,-966 258,-344 720,-344 466,0 723,344 258,344 258,966 z M 3481,434 q 0,-893 -397,-1329 -396,-436 -1215,-436 -303,0 -572,45 -269,45 -522,139 v 559 q 253,-137 500,-202 247,-66 503,-66 566,0 847,295 281,295 281,892 V 616 Q 2728,306 2450,153 2172,0 1784,0 1141,0 747,490 353,981 353,1791 q 0,812 394,1302 394,491 1037,491 388,0 666,-153 278,-153 456,-462 v 531 h 575 z"
       transform="scale(0.015625)" />
    <path
       id="path39"
       d="m 1984,4856 q -418,-718 -622,-1422 -203,-703 -203,-1425 0,-721 205,-1429 205,-708 620,-1424 h -500 q -468,735 -701,1444 -233,709 -233,1409 0,697 231,1403 232,707 703,1444 z"
       transform="scale(0.015625)" />
    <path
       id="path40"
       d="m 513,4856 h 500 q 468,-737 701,-1444 233,-706 233,-1403 0,-700 -233,-1409 -233,-709 -701,-1444 H 513 q 415,716 620,1424 205,708 205,1429 0,722 -205,1425 -205,704 -620,1422 z"
       transform="scale(0.015625)" />
    <path
       id="path41"
       d="M 1259,4147 V 519 h 763 q 966,0 1414,437 448,438 448,1382 0,937 -448,1373 -448,436 -1414,436 z m -631,519 h 1297 q 1356,0 1990,-564 635,-564 635,-1764 Q 4550,1131 3912,565 3275,0 1925,0 H 628 Z"
       transform="scale(0.015625)" />
    <path
       id="path42"
       d="m 628,4666 h 631 V 2753 h 2294 v 1913 h 631 V 0 H 3553 V 2222 H 1259 V 0 H 628 Z"
       transform="scale(0.015625)" />
    <path
       id="path43"
       d="M 628,4666 H 3578 V 4134 H 1259 V 2753 H 3481 V 2222 H 1259 V 531 H 3634 V 0 H 628 Z"
       transform="scale(0.015625)" />
    <clipPath
       id="pa5a0f7f769">
      <rect
         height="450.97"
         width="1056.13"
         x="76.43"
         y="19.440001"
         id="rect112" />
    </clipPath>
    <clipPath
       id="clipPath1-1">
      <rect
         height="450.97"
         width="1056.13"
         x="76.43"
         y="19.440001"
         id="rect1-4" />
    </clipPath>
    <clipPath
       id="clipPath2-4">
      <rect
         height="450.97"
         width="1056.13"
         x="76.43"
         y="19.440001"
         id="rect2-4" />
    </clipPath>
    <clipPath
       id="clipPath3-6">
      <rect
         height="450.97"
         width="1056.13"
         x="76.43"
         y="19.440001"
         id="rect3-3" />
    </clipPath>
    <clipPath
       id="clipPath4-7">
      <rect
         height="450.97"
         width="1056.13"
         x="76.43"
         y="19.440001"
         id="rect4-9" />
    </clipPath>
    <clipPath
       id="clipPath5-8">
      <rect
         height="450.97"
         width="1056.13"
         x="76.43"
         y="19.440001"
         id="rect5-7" />
    </clipPath>
    <clipPath
       id="clipPath6-9">
      <rect
         height="450.97"
         width="1056.13"
         x="76.43"
         y="19.440001"
         id="rect6-1" />
    </clipPath>
    <clipPath
       id="clipPath7-6">
      <rect
         height="450.97"
         width="1056.13"
         x="76.43"
         y="19.440001"
         id="rect7-4" />
    </clipPath>
    <clipPath
       id="clipPath8">
      <rect
         height="450.97"
         width="1056.13"
         x="76.43"
         y="19.440001"
         id="rect8" />
    </clipPath>
    <clipPath
       id="clipPath9">
      <rect
         height="450.97"
         width="1056.13"
         x="76.43"
         y="19.440001"
         id="rect9" />
    </clipPath>
    <clipPath
       id="clipPath10">
      <rect
         height="450.97"
         width="1056.13"
         x="76.43"
         y="19.440001"
         id="rect10" />
    </clipPath>
    <clipPath
       id="clipPath11">
      <rect
         height="450.97"
         width="1056.13"
         x="76.43"
         y="19.440001"
         id="rect11" />
    </clipPath>
    <path
       d="M 0,0 V 3.5"
       id="m266a38ce72"
       style="stroke:#000000;stroke-width:0.8" />
    <path
       d="m 628,4666 h 850 L 3547,763 v 3903 h 612 V 0 H 3309 L 1241,3903 V 0 H 628 Z"
       id="DejaVuSans-4e"
       transform="scale(0.015625)" />
    <path
       d="m 628,4666 h 631 V 2753 h 2294 v 1913 h 631 V 0 H 3553 V 2222 H 1259 V 0 H 628 Z"
       id="DejaVuSans-48"
       transform="scale(0.015625)" />
    <path
       d="m 2597,2516 q 453,-97 707,-404 255,-306 255,-756 0,-690 -475,-1069 -475,-378 -1350,-378 -293,0 -604,58 -311,58 -642,174 v 609 q 262,-153 574,-231 313,-78 654,-78 593,0 904,234 311,234 311,681 0,413 -289,645 -289,233 -804,233 h -544 v 519 h 569 q 465,0 712,186 247,186 247,536 0,359 -255,551 -254,193 -729,193 -260,0 -557,-57 -297,-56 -653,-174 v 562 q 360,100 674,150 314,50 592,50 719,0 1137,-327 419,-326 419,-882 0,-388 -222,-655 -222,-267 -631,-370 z"
       id="DejaVuSans-33"
       transform="scale(0.015625)" />
    <path
       d="m 2841,2188 q 203,-69 395,-294 192,-225 386,-619 L 4263,0 h -679 l -596,1197 q -232,469 -449,622 -217,153 -592,153 H 1259 V 0 H 628 v 4666 h 1425 q 800,0 1194,-335 394,-334 394,-1009 0,-441 -205,-732 -205,-290 -595,-402 z M 1259,4147 V 2491 h 794 q 456,0 689,211 233,211 233,620 0,409 -233,617 -233,208 -689,208 z"
       id="DejaVuSans-52"
       transform="scale(0.015625)" />
    <path
       d="M 1228,531 H 3431 V 0 H 469 v 531 q 359,372 979,998 621,627 780,809 303,340 423,576 121,236 121,464 0,372 -261,606 -261,235 -680,235 -297,0 -627,-103 -329,-103 -704,-313 v 638 q 381,153 712,231 332,78 607,78 725,0 1156,-363 431,-362 431,-968 0,-288 -108,-546 -107,-257 -392,-607 -78,-91 -497,-524 Q 1991,1309 1228,531 Z"
       id="DejaVuSans-32"
       transform="scale(0.015625)" />
    <path
       d="M 794,531 H 1825 V 4091 L 703,3866 v 575 l 1116,225 h 631 V 531 H 3481 V 0 H 794 Z"
       id="DejaVuSans-31"
       transform="scale(0.015625)" />
    <path
       d="M 2419,4116 825,1625 h 1594 z m -166,550 h 794 V 1625 h 666 V 1100 H 3047 V 0 H 2419 V 1100 H 313 v 609 z"
       id="DejaVuSans-34"
       transform="scale(0.015625)" />
    <path
       d="m 2194,1759 q -697,0 -966,-159 -269,-159 -269,-544 0,-306 202,-486 202,-179 548,-179 479,0 768,339 289,339 289,901 v 128 z m 1147,238 V 0 H 2766 V 531 Q 2569,213 2275,61 1981,-91 1556,-91 q -537,0 -855,302 -317,302 -317,808 0,590 395,890 396,300 1180,300 h 807 v 57 q 0,397 -261,614 -261,217 -733,217 -300,0 -585,-72 -284,-72 -546,-216 v 532 q 315,122 612,182 297,61 578,61 760,0 1135,-394 375,-393 375,-1193 z"
       id="DejaVuSans-61"
       transform="scale(0.015625)" />
    <path
       d="M 691,4666 H 3169 V 4134 H 1269 V 2991 q 137,47 274,70 138,23 276,23 781,0 1237,-428 457,-428 457,-1159 Q 3513,744 3044,326 2575,-91 1722,-91 1428,-91 1123,-41 819,9 494,109 v 635 q 281,-153 581,-228 300,-75 634,-75 541,0 856,284 316,284 316,772 0,487 -316,771 -315,285 -856,285 -253,0 -505,-56 -251,-56 -513,-175 z"
       id="DejaVuSans-35"
       transform="scale(0.015625)" />
    <path
       d="m 703,97 v 575 q 238,-113 481,-172 244,-59 479,-59 625,0 954,420 330,420 377,1277 -181,-269 -460,-413 -278,-144 -615,-144 -700,0 -1108,423 -408,424 -408,1159 0,718 425,1152 425,435 1131,435 810,0 1236,-621 427,-620 427,-1801 Q 3622,1225 3098,567 2575,-91 1691,-91 1453,-91 1209,-44 966,3 703,97 Z m 1256,1978 q 425,0 673,290 249,291 249,798 0,503 -249,795 -248,292 -673,292 -425,0 -673,-292 -248,-292 -248,-795 0,-507 248,-798 248,-290 673,-290 z"
       id="DejaVuSans-39"
       transform="scale(0.015625)" />
    <path
       d="m 2034,4250 q -487,0 -733,-480 -245,-479 -245,-1442 0,-959 245,-1439 246,-480 733,-480 491,0 736,480 246,480 246,1439 0,963 -246,1442 -245,480 -736,480 z m 0,500 q 785,0 1199,-621 414,-620 414,-1801 0,-1178 -414,-1799 -414,-620 -1199,-620 -784,0 -1198,620 -414,621 -414,1799 0,1181 414,1801 414,621 1198,621 z"
       id="DejaVuSans-30"
       transform="scale(0.015625)" />
    <path
       d="M 525,4666 H 3525 V 4397 L 1831,0 H 1172 L 2766,4134 H 525 Z"
       id="DejaVuSans-37"
       transform="scale(0.015625)" />
    <path
       d="m 2034,2216 q -450,0 -708,-241 -257,-241 -257,-662 0,-422 257,-663 258,-241 708,-241 450,0 709,242 260,243 260,662 0,421 -258,662 -257,241 -711,241 z m -631,268 q -406,100 -633,378 -226,279 -226,679 0,559 398,884 399,325 1092,325 697,0 1094,-325 397,-325 397,-884 0,-400 -227,-679 -226,-278 -629,-378 456,-106 710,-416 255,-309 255,-755 Q 3634,634 3220,271 2806,-91 2034,-91 1263,-91 848,271 434,634 434,1313 q 0,446 256,755 257,310 713,416 z m -231,997 q 0,-362 226,-565 227,-203 636,-203 407,0 636,203 230,203 230,565 0,363 -230,566 -229,203 -636,203 -409,0 -636,-203 -226,-203 -226,-566 z"
       id="DejaVuSans-38"
       transform="scale(0.015625)" />
    <path
       d="m 3328,2828 q 216,388 516,572 300,184 706,184 547,0 844,-383 297,-382 297,-1088 V 0 h -578 v 2094 q 0,503 -179,746 -178,244 -543,244 -447,0 -707,-297 -259,-296 -259,-809 V 0 h -578 v 2094 q 0,506 -178,748 -178,242 -550,242 -441,0 -701,-298 -259,-298 -259,-808 V 0 H 581 v 3500 h 578 v -544 q 197,322 472,475 275,153 653,153 382,0 649,-194 267,-193 395,-562 z"
       id="DejaVuSans-6d"
       transform="scale(0.015625)" />
    <path
       d="M 3597,1894 V 1613 H 953 q 38,-594 358,-905 320,-311 892,-311 331,0 642,81 311,81 618,244 V 178 Q 3153,47 2828,-22 2503,-91 2169,-91 1331,-91 842,396 353,884 353,1716 q 0,859 464,1363 464,505 1252,505 706,0 1117,-455 411,-454 411,-1235 z m -575,169 q -6,471 -264,752 -258,282 -683,282 -481,0 -770,-272 -289,-272 -333,-766 z"
       id="DejaVuSans-65"
       transform="scale(0.015625)" />
    <path
       id="DejaVuSans-20"
       transform="scale(0.015625)"
       d="" />
    <path
       d="m 1959,3097 q -462,0 -731,-361 -269,-361 -269,-989 0,-628 267,-989 268,-361 733,-361 460,0 728,362 269,363 269,988 0,622 -269,986 -268,364 -728,364 z m 0,487 q 750,0 1178,-488 429,-487 429,-1349 Q 3566,888 3137,398 2709,-91 1959,-91 1206,-91 779,398 353,888 353,1747 q 0,862 426,1349 427,488 1180,488 z"
       id="DejaVuSans-6f"
       transform="scale(0.015625)" />
    <path
       d="m 2375,4863 v -479 h -550 q -309,0 -430,-125 -120,-125 -120,-450 v -309 h 947 V 3053 H 1275 V 0 H 697 V 3053 H 147 v 447 h 550 v 244 q 0,584 272,851 272,268 862,268 z"
       id="DejaVuSans-66"
       transform="scale(0.015625)" />
    <path
       d="m 269,3500 h 575 l 719,-2731 715,2731 h 678 l 719,-2731 716,2731 h 575 L 4050,0 H 3372 L 2619,2869 1863,0 h -679 z"
       id="DejaVuSans-77"
       transform="scale(0.015625)" />
    <path
       d="m 2631,2963 q -97,56 -211,82 -114,27 -251,27 -488,0 -749,-317 -261,-317 -261,-911 V 0 H 581 v 3500 h 578 v -544 q 182,319 472,473 291,155 707,155 59,0 131,-8 72,-7 159,-23 z"
       id="DejaVuSans-72"
       transform="scale(0.015625)" />
    <path
       d="m 581,4863 h 578 V 1991 l 1716,1509 h 734 L 1753,1863 3688,0 H 2938 L 1159,1709 V 0 H 581 Z"
       id="DejaVuSans-6b"
       transform="scale(0.015625)" />
    <path
       d="m 603,3500 h 575 V 0 H 603 Z m 0,1363 h 575 V 4134 H 603 Z"
       id="DejaVuSans-69"
       transform="scale(0.015625)" />
    <path
       d="M 3513,2113 V 0 h -575 v 2094 q 0,497 -194,743 -194,247 -581,247 -466,0 -735,-297 -269,-296 -269,-809 V 0 H 581 v 3500 h 578 v -544 q 207,316 486,472 280,156 646,156 603,0 912,-373 310,-373 310,-1098 z"
       id="DejaVuSans-6e"
       transform="scale(0.015625)" />
    <path
       d="m 2906,1791 q 0,625 -258,968 -257,344 -723,344 -462,0 -720,-344 -258,-343 -258,-968 0,-622 258,-966 258,-344 720,-344 466,0 723,344 258,344 258,966 z M 3481,434 q 0,-893 -397,-1329 -396,-436 -1215,-436 -303,0 -572,45 -269,45 -522,139 v 559 q 253,-137 500,-202 247,-66 503,-66 566,0 847,295 281,295 281,892 V 616 Q 2728,306 2450,153 2172,0 1784,0 1141,0 747,490 353,981 353,1791 q 0,812 394,1302 394,491 1037,491 388,0 666,-153 278,-153 456,-462 v 531 h 575 z"
       id="DejaVuSans-67"
       transform="scale(0.015625)" />
    <path
       d="m 603,4863 h 575 V 0 H 603 Z"
       id="DejaVuSans-6c"
       transform="scale(0.015625)" />
    <path
       d="m 544,1381 v 2119 h 575 V 1403 q 0,-497 193,-746 194,-248 582,-248 465,0 735,297 271,297 271,810 v 1984 h 575 V 0 H 2900 V 538 Q 2691,219 2414,64 2138,-91 1772,-91 1169,-91 856,284 544,659 544,1381 Z m 1447,2203 z"
       id="DejaVuSans-75"
       transform="scale(0.015625)" />
    <path
       d="m 2906,2969 v 1894 h 575 V 0 H 2906 V 525 Q 2725,213 2448,61 2172,-91 1784,-91 1150,-91 751,415 353,922 353,1747 q 0,825 398,1331 399,506 1033,506 388,0 664,-152 277,-151 458,-463 z M 947,1747 q 0,-634 261,-995 261,-361 717,-361 456,0 718,361 263,361 263,995 0,634 -263,995 -262,361 -718,361 -456,0 -717,-361 -261,-361 -261,-995 z"
       id="DejaVuSans-64"
       transform="scale(0.015625)" />
    <path
       d="M 0,0 H -3.5"
       id="md4480219d4"
       style="stroke:#000000;stroke-width:0.8" />
    <path
       d="m 684,794 h 660 V 0 H 684 Z"
       id="DejaVuSans-2e"
       transform="scale(0.015625)" />
    <path
       d="m 4122,4306 v -665 q -319,297 -680,443 -361,147 -767,147 -800,0 -1225,-489 -425,-489 -425,-1414 0,-922 425,-1411 425,-489 1225,-489 406,0 767,147 361,147 680,444 V 359 Q 3791,134 3420,21 3050,-91 2638,-91 1578,-91 968,557 359,1206 359,2328 q 0,1125 609,1773 610,649 1670,649 418,0 788,-111 371,-111 696,-333 z"
       id="DejaVuSans-43"
       transform="scale(0.015625)" />
    <path
       d="m 3122,3366 v -538 q -244,135 -489,202 -245,67 -495,67 -560,0 -870,-355 -309,-354 -309,-995 0,-641 309,-996 310,-354 870,-354 250,0 495,67 245,67 489,202 V 134 Q 2881,22 2623,-34 2366,-91 2075,-91 1284,-91 818,406 353,903 353,1747 q 0,856 470,1346 471,491 1290,491 265,0 518,-55 253,-54 491,-163 z"
       id="DejaVuSans-63"
       transform="scale(0.015625)" />
    <path
       d="M 1172,4494 V 3500 H 2356 V 3053 H 1172 V 1153 q 0,-428 117,-550 117,-122 477,-122 h 590 V 0 H 1766 Q 1100,0 847,248 594,497 594,1153 V 3053 H 172 v 447 h 422 v 994 z"
       id="DejaVuSans-74"
       transform="scale(0.015625)" />
    <path
       d="M 1159,525 V -1331 H 581 v 4831 h 578 v -531 q 182,312 458,463 277,152 661,152 638,0 1036,-506 399,-506 399,-1331 0,-825 -399,-1332 -398,-506 -1036,-506 -384,0 -661,152 -276,152 -458,464 z m 1957,1222 q 0,634 -261,995 -261,361 -717,361 -457,0 -718,-361 -261,-361 -261,-995 0,-634 261,-995 261,-361 718,-361 456,0 717,361 261,361 261,995 z"
       id="DejaVuSans-70"
       transform="scale(0.015625)" />
    <clipPath
       id="p9aec09bc3e">
      <rect
         x="72.59375"
         y="41.867981"
         width="175.00186"
         height="119.10928"
         id="rect317" />
    </clipPath>
    <clipPath
       id="clipPath1-4">
      <rect
         x="72.59375"
         y="41.867981"
         width="175.00186"
         height="119.10928"
         id="rect1-2" />
    </clipPath>
    <clipPath
       id="clipPath2-0">
      <rect
         x="72.59375"
         y="41.867981"
         width="175.00186"
         height="119.10928"
         id="rect2-7" />
    </clipPath>
    <clipPath
       id="clipPath3-8">
      <rect
         x="72.59375"
         y="41.867981"
         width="175.00186"
         height="119.10928"
         id="rect3-0" />
    </clipPath>
    <clipPath
       id="clipPath4-6">
      <rect
         x="72.59375"
         y="41.867981"
         width="175.00186"
         height="119.10928"
         id="rect4-8" />
    </clipPath>
    <clipPath
       id="clipPath5-9">
      <rect
         x="72.59375"
         y="41.867981"
         width="175.00186"
         height="119.10928"
         id="rect5-9" />
    </clipPath>
    <clipPath
       id="clipPath6-0">
      <rect
         x="72.59375"
         y="41.867981"
         width="175.00186"
         height="119.10928"
         id="rect6-0" />
    </clipPath>
    <clipPath
       id="clipPath7-4">
      <rect
         x="72.59375"
         y="41.867981"
         width="175.00186"
         height="119.10928"
         id="rect7-3" />
    </clipPath>
    <clipPath
       id="clipPath8-0">
      <rect
         x="72.59375"
         y="41.867981"
         width="175.00186"
         height="119.10928"
         id="rect8-3" />
    </clipPath>
    <clipPath
       id="clipPath9-7">
      <rect
         x="72.59375"
         y="41.867981"
         width="175.00186"
         height="119.10928"
         id="rect9-9" />
    </clipPath>
    <clipPath
       id="clipPath10-3">
      <rect
         x="72.59375"
         y="41.867981"
         width="175.00186"
         height="119.10928"
         id="rect10-2" />
    </clipPath>
    <clipPath
       id="clipPath11-0">
      <rect
         x="72.59375"
         y="41.867981"
         width="175.00186"
         height="119.10928"
         id="rect11-2" />
    </clipPath>
    <clipPath
       id="p39d1779824">
      <rect
         x="274.27264"
         y="41.867981"
         width="175.00186"
         height="119.10928"
         id="rect318" />
    </clipPath>
    <clipPath
       id="clipPath12">
      <rect
         x="274.27264"
         y="41.867981"
         width="175.00186"
         height="119.10928"
         id="rect12" />
    </clipPath>
    <clipPath
       id="clipPath13">
      <rect
         x="274.27264"
         y="41.867981"
         width="175.00186"
         height="119.10928"
         id="rect13" />
    </clipPath>
    <clipPath
       id="clipPath14">
      <rect
         x="274.27264"
         y="41.867981"
         width="175.00186"
         height="119.10928"
         id="rect14" />
    </clipPath>
    <clipPath
       id="clipPath15">
      <rect
         x="274.27264"
         y="41.867981"
         width="175.00186"
         height="119.10928"
         id="rect15" />
    </clipPath>
    <clipPath
       id="clipPath16">
      <rect
         x="274.27264"
         y="41.867981"
         width="175.00186"
         height="119.10928"
         id="rect16" />
    </clipPath>
    <clipPath
       id="clipPath17">
      <rect
         x="274.27264"
         y="41.867981"
         width="175.00186"
         height="119.10928"
         id="rect17" />
    </clipPath>
    <clipPath
       id="clipPath18">
      <rect
         x="274.27264"
         y="41.867981"
         width="175.00186"
         height="119.10928"
         id="rect18" />
    </clipPath>
    <clipPath
       id="clipPath19">
      <rect
         x="274.27264"
         y="41.867981"
         width="175.00186"
         height="119.10928"
         id="rect19" />
    </clipPath>
    <clipPath
       id="clipPath20">
      <rect
         x="274.27264"
         y="41.867981"
         width="175.00186"
         height="119.10928"
         id="rect20" />
    </clipPath>
    <clipPath
       id="clipPath21">
      <rect
         x="274.27264"
         y="41.867981"
         width="175.00186"
         height="119.10928"
         id="rect21" />
    </clipPath>
    <clipPath
       id="clipPath22">
      <rect
         x="274.27264"
         y="41.867981"
         width="175.00186"
         height="119.10928"
         id="rect22" />
    </clipPath>
    <clipPath
       id="pf4004c995f">
      <rect
         x="72.59375"
         y="197.33398"
         width="175.00186"
         height="119.10928"
         id="rect319" />
    </clipPath>
    <clipPath
       id="clipPath23">
      <rect
         x="72.59375"
         y="197.33398"
         width="175.00186"
         height="119.10928"
         id="rect23" />
    </clipPath>
    <clipPath
       id="clipPath24">
      <rect
         x="72.59375"
         y="197.33398"
         width="175.00186"
         height="119.10928"
         id="rect24" />
    </clipPath>
    <clipPath
       id="clipPath25">
      <rect
         x="72.59375"
         y="197.33398"
         width="175.00186"
         height="119.10928"
         id="rect25" />
    </clipPath>
    <clipPath
       id="clipPath26">
      <rect
         x="72.59375"
         y="197.33398"
         width="175.00186"
         height="119.10928"
         id="rect26" />
    </clipPath>
    <clipPath
       id="clipPath27">
      <rect
         x="72.59375"
         y="197.33398"
         width="175.00186"
         height="119.10928"
         id="rect27" />
    </clipPath>
    <clipPath
       id="clipPath28">
      <rect
         x="72.59375"
         y="197.33398"
         width="175.00186"
         height="119.10928"
         id="rect28" />
    </clipPath>
    <clipPath
       id="clipPath29">
      <rect
         x="72.59375"
         y="197.33398"
         width="175.00186"
         height="119.10928"
         id="rect29" />
    </clipPath>
    <clipPath
       id="clipPath30">
      <rect
         x="72.59375"
         y="197.33398"
         width="175.00186"
         height="119.10928"
         id="rect30" />
    </clipPath>
    <clipPath
       id="clipPath31">
      <rect
         x="72.59375"
         y="197.33398"
         width="175.00186"
         height="119.10928"
         id="rect31" />
    </clipPath>
    <clipPath
       id="clipPath32">
      <rect
         x="72.59375"
         y="197.33398"
         width="175.00186"
         height="119.10928"
         id="rect32" />
    </clipPath>
    <clipPath
       id="clipPath33">
      <rect
         x="72.59375"
         y="197.33398"
         width="175.00186"
         height="119.10928"
         id="rect33" />
    </clipPath>
    <clipPath
       id="p909af01851">
      <rect
         x="274.27264"
         y="197.33398"
         width="175.00186"
         height="119.10928"
         id="rect320" />
    </clipPath>
    <clipPath
       id="clipPath34">
      <rect
         x="274.27264"
         y="197.33398"
         width="175.00186"
         height="119.10928"
         id="rect34" />
    </clipPath>
    <clipPath
       id="clipPath35">
      <rect
         x="274.27264"
         y="197.33398"
         width="175.00186"
         height="119.10928"
         id="rect35" />
    </clipPath>
    <clipPath
       id="clipPath36">
      <rect
         x="274.27264"
         y="197.33398"
         width="175.00186"
         height="119.10928"
         id="rect36" />
    </clipPath>
    <clipPath
       id="clipPath37">
      <rect
         x="274.27264"
         y="197.33398"
         width="175.00186"
         height="119.10928"
         id="rect37" />
    </clipPath>
    <clipPath
       id="clipPath38">
      <rect
         x="274.27264"
         y="197.33398"
         width="175.00186"
         height="119.10928"
         id="rect38" />
    </clipPath>
    <clipPath
       id="clipPath39">
      <rect
         x="274.27264"
         y="197.33398"
         width="175.00186"
         height="119.10928"
         id="rect39" />
    </clipPath>
    <clipPath
       id="clipPath40">
      <rect
         x="274.27264"
         y="197.33398"
         width="175.00186"
         height="119.10928"
         id="rect40" />
    </clipPath>
    <clipPath
       id="clipPath41">
      <rect
         x="274.27264"
         y="197.33398"
         width="175.00186"
         height="119.10928"
         id="rect41" />
    </clipPath>
    <clipPath
       id="clipPath42">
      <rect
         x="274.27264"
         y="197.33398"
         width="175.00186"
         height="119.10928"
         id="rect42" />
    </clipPath>
    <clipPath
       id="clipPath43">
      <rect
         x="274.27264"
         y="197.33398"
         width="175.00186"
         height="119.10928"
         id="rect43" />
    </clipPath>
    <clipPath
       id="clipPath44">
      <rect
         x="274.27264"
         y="197.33398"
         width="175.00186"
         height="119.10928"
         id="rect44" />
    </clipPath>
    <path
       id="mb4fc6a95ca"
       d="M 0,0 V 3.5"
       style="stroke:#000000;stroke-width:0.8" />
    <path
       id="DejaVuSans-30-0"
       d="m 2034,4250 q -487,0 -733,-480 -245,-479 -245,-1442 0,-959 245,-1439 246,-480 733,-480 491,0 736,480 246,480 246,1439 0,963 -246,1442 -245,480 -736,480 z m 0,500 q 785,0 1199,-621 414,-620 414,-1801 0,-1178 -414,-1799 -414,-620 -1199,-620 -784,0 -1198,620 -414,621 -414,1799 0,1181 414,1801 414,621 1198,621 z"
       transform="scale(0.015625)" />
    <path
       id="DejaVuSans-32-2"
       d="M 1228,531 H 3431 V 0 H 469 v 531 q 359,372 979,998 621,627 780,809 303,340 423,576 121,236 121,464 0,372 -261,606 -261,235 -680,235 -297,0 -627,-103 -329,-103 -704,-313 v 638 q 381,153 712,231 332,78 607,78 725,0 1156,-363 431,-362 431,-968 0,-288 -108,-546 -107,-257 -392,-607 -78,-91 -497,-524 Q 1991,1309 1228,531 Z"
       transform="scale(0.015625)" />
    <path
       id="DejaVuSans-34-9"
       d="M 2419,4116 825,1625 h 1594 z m -166,550 h 794 V 1625 h 666 V 1100 H 3047 V 0 H 2419 V 1100 H 313 v 609 z"
       transform="scale(0.015625)" />
    <path
       id="DejaVuSans-36"
       d="m 2113,2584 q -425,0 -674,-291 -248,-290 -248,-796 0,-503 248,-796 249,-292 674,-292 425,0 673,292 248,293 248,796 0,506 -248,796 -248,291 -673,291 z m 1253,1979 v -575 q -238,112 -480,171 -242,60 -480,60 -625,0 -955,-422 -329,-422 -376,-1275 184,272 462,417 279,145 613,145 703,0 1111,-427 408,-426 408,-1160 0,-719 -425,-1154 -425,-434 -1131,-434 -810,0 -1238,620 -428,621 -428,1799 0,1106 525,1764 525,658 1409,658 238,0 480,-47 242,-47 505,-140 z"
       transform="scale(0.015625)" />
    <path
       id="DejaVuSans-38-3"
       d="m 2034,2216 q -450,0 -708,-241 -257,-241 -257,-662 0,-422 257,-663 258,-241 708,-241 450,0 709,242 260,243 260,662 0,421 -258,662 -257,241 -711,241 z m -631,268 q -406,100 -633,378 -226,279 -226,679 0,559 398,884 399,325 1092,325 697,0 1094,-325 397,-325 397,-884 0,-400 -227,-679 -226,-278 -629,-378 456,-106 710,-416 255,-309 255,-755 Q 3634,634 3220,271 2806,-91 2034,-91 1263,-91 848,271 434,634 434,1313 q 0,446 256,755 257,310 713,416 z m -231,997 q 0,-362 226,-565 227,-203 636,-203 407,0 636,203 230,203 230,565 0,363 -230,566 -229,203 -636,203 -409,0 -636,-203 -226,-203 -226,-566 z"
       transform="scale(0.015625)" />
    <path
       id="DejaVuSans-31-0"
       d="M 794,531 H 1825 V 4091 L 703,3866 v 575 l 1116,225 h 631 V 531 H 3481 V 0 H 794 Z"
       transform="scale(0.015625)" />
    <path
       id="DejaVuSans-45"
       d="M 628,4666 H 3578 V 4134 H 1259 V 2753 H 3481 V 2222 H 1259 V 531 H 3634 V 0 H 628 Z"
       transform="scale(0.015625)" />
    <path
       id="DejaVuSans-78"
       d="M 3513,3500 2247,1797 3578,0 H 2900 L 1881,1375 863,0 H 184 L 1544,1831 300,3500 h 678 l 928,-1247 928,1247 z"
       transform="scale(0.015625)" />
    <path
       id="DejaVuSans-65-5"
       d="M 3597,1894 V 1613 H 953 q 38,-594 358,-905 320,-311 892,-311 331,0 642,81 311,81 618,244 V 178 Q 3153,47 2828,-22 2503,-91 2169,-91 1331,-91 842,396 353,884 353,1716 q 0,859 464,1363 464,505 1252,505 706,0 1117,-455 411,-454 411,-1235 z m -575,169 q -6,471 -264,752 -258,282 -683,282 -481,0 -770,-272 -289,-272 -333,-766 z"
       transform="scale(0.015625)" />
    <path
       id="DejaVuSans-72-6"
       d="m 2631,2963 q -97,56 -211,82 -114,27 -251,27 -488,0 -749,-317 -261,-317 -261,-911 V 0 H 581 v 3500 h 578 v -544 q 182,319 472,473 291,155 707,155 59,0 131,-8 72,-7 159,-23 z"
       transform="scale(0.015625)" />
    <path
       id="DejaVuSans-67-5"
       d="m 2906,1791 q 0,625 -258,968 -257,344 -723,344 -462,0 -720,-344 -258,-343 -258,-968 0,-622 258,-966 258,-344 720,-344 466,0 723,344 258,344 258,966 z M 3481,434 q 0,-893 -397,-1329 -396,-436 -1215,-436 -303,0 -572,45 -269,45 -522,139 v 559 q 253,-137 500,-202 247,-66 503,-66 566,0 847,295 281,295 281,892 V 616 Q 2728,306 2450,153 2172,0 1784,0 1141,0 747,490 353,981 353,1791 q 0,812 394,1302 394,491 1037,491 388,0 666,-153 278,-153 456,-462 v 531 h 575 z"
       transform="scale(0.015625)" />
    <path
       id="DejaVuSans-79"
       d="m 2059,-325 q -243,-625 -475,-815 -231,-191 -618,-191 H 506 v 481 h 338 q 237,0 368,113 132,112 291,531 L 1606,56 191,3500 H 800 L 1894,763 2988,3500 h 609 z"
       transform="scale(0.015625)" />
    <path
       id="DejaVuSans-20-6"
       transform="scale(0.015625)"
       d="" />
    <path
       id="DejaVuSans-69-9"
       d="m 603,3500 h 575 V 0 H 603 Z m 0,1363 h 575 V 4134 H 603 Z"
       transform="scale(0.015625)" />
    <path
       id="DejaVuSans-6e-5"
       d="M 3513,2113 V 0 h -575 v 2094 q 0,497 -194,743 -194,247 -581,247 -466,0 -735,-297 -269,-296 -269,-809 V 0 H 581 v 3500 h 578 v -544 q 207,316 486,472 280,156 646,156 603,0 912,-373 310,-373 310,-1098 z"
       transform="scale(0.015625)" />
    <path
       id="DejaVuSans-57"
       d="m 213,4666 h 637 l 981,-3944 978,3944 h 710 l 981,-3944 978,3944 h 641 L 4947,0 H 4153 L 3169,4050 2175,0 h -794 z"
       transform="scale(0.015625)" />
    <path
       id="m75a9f96718"
       d="M 0,0 H -3.5"
       style="stroke:#000000;stroke-width:0.8" />
    <path
       id="DejaVuSans-5f"
       d="m 3263,-1063 v -446 H -63 v 446 z"
       transform="scale(0.015625)" />
    <path
       id="DejaVuSans-46"
       d="M 628,4666 H 3309 V 4134 H 1259 V 2759 H 3109 V 2228 H 1259 V 0 H 628 Z"
       transform="scale(0.015625)" />
    <path
       id="DejaVuSans-63-2"
       d="m 3122,3366 v -538 q -244,135 -489,202 -245,67 -495,67 -560,0 -870,-355 -309,-354 -309,-995 0,-641 309,-996 310,-354 870,-354 250,0 495,67 245,67 489,202 V 134 Q 2881,22 2623,-34 2366,-91 2075,-91 1284,-91 818,406 353,903 353,1747 q 0,856 470,1346 471,491 1290,491 265,0 518,-55 253,-54 491,-163 z"
       transform="scale(0.015625)" />
    <path
       id="DejaVuSans-6f-3"
       d="m 1959,3097 q -462,0 -731,-361 -269,-361 -269,-989 0,-628 267,-989 268,-361 733,-361 460,0 728,362 269,363 269,988 0,622 -269,986 -268,364 -728,364 z m 0,487 q 750,0 1178,-488 429,-487 429,-1349 Q 3566,888 3137,398 2709,-91 1959,-91 1206,-91 779,398 353,888 353,1747 q 0,862 426,1349 427,488 1180,488 z"
       transform="scale(0.015625)" />
    <path
       id="DejaVuSans-64-2"
       d="m 2906,2969 v 1894 h 575 V 0 H 2906 V 525 Q 2725,213 2448,61 2172,-91 1784,-91 1150,-91 751,415 353,922 353,1747 q 0,825 398,1331 399,506 1033,506 388,0 664,-152 277,-151 458,-463 z M 947,1747 q 0,-634 261,-995 261,-361 717,-361 456,0 718,361 263,361 263,995 0,634 -263,995 -262,361 -718,361 -456,0 -717,-361 -261,-361 -261,-995 z"
       transform="scale(0.015625)" />
    <path
       id="DejaVuSans-73"
       d="m 2834,3397 v -544 q -243,125 -506,187 -262,63 -544,63 -428,0 -642,-131 -214,-131 -214,-394 0,-200 153,-314 153,-114 616,-217 l 197,-44 q 612,-131 870,-370 258,-239 258,-667 0,-488 -386,-773 Q 2250,-91 1575,-91 1294,-91 989,-36 684,19 347,128 v 594 q 319,-166 628,-249 309,-82 613,-82 406,0 624,139 219,139 219,392 0,234 -158,359 -157,125 -692,241 l -200,47 q -534,112 -772,345 -237,233 -237,639 0,494 350,762 350,269 994,269 318,0 599,-47 282,-46 519,-140 z"
       transform="scale(0.015625)" />
    <path
       id="DejaVuSans-76"
       d="M 191,3500 H 800 L 1894,563 2988,3500 h 609 L 2284,0 h -781 z"
       transform="scale(0.015625)" />
    <path
       id="DejaVuSans-61-8"
       d="m 2194,1759 q -697,0 -966,-159 -269,-159 -269,-544 0,-306 202,-486 202,-179 548,-179 479,0 768,339 289,339 289,901 v 128 z m 1147,238 V 0 H 2766 V 531 Q 2569,213 2275,61 1981,-91 1556,-91 q -537,0 -855,302 -317,302 -317,808 0,590 395,890 396,300 1180,300 h 807 v 57 q 0,397 -261,614 -261,217 -733,217 -300,0 -585,-72 -284,-72 -546,-216 v 532 q 315,122 612,182 297,61 578,61 760,0 1135,-394 375,-393 375,-1193 z"
       transform="scale(0.015625)" />
    <path
       id="DejaVuSans-6c-6"
       d="m 603,4863 h 575 V 0 H 603 Z"
       transform="scale(0.015625)" />
    <path
       id="DejaVuSans-70-5"
       d="M 1159,525 V -1331 H 581 v 4831 h 578 v -531 q 182,312 458,463 277,152 661,152 638,0 1036,-506 399,-506 399,-1331 0,-825 -399,-1332 -398,-506 -1036,-506 -384,0 -661,152 -276,152 -458,464 z m 1957,1222 q 0,634 -261,995 -261,361 -717,361 -457,0 -718,-361 -261,-361 -261,-995 0,-634 261,-995 261,-361 718,-361 456,0 717,361 261,361 261,995 z"
       transform="scale(0.015625)" />
    <path
       id="DejaVuSans-74-0"
       d="M 1172,4494 V 3500 H 2356 V 3053 H 1172 V 1153 q 0,-428 117,-550 117,-122 477,-122 h 590 V 0 H 1766 Q 1100,0 847,248 594,497 594,1153 V 3053 H 172 v 447 h 422 v 994 z"
       transform="scale(0.015625)" />
    <path
       id="DejaVuSans-6d-5"
       d="m 3328,2828 q 216,388 516,572 300,184 706,184 547,0 844,-383 297,-382 297,-1088 V 0 h -578 v 2094 q 0,503 -179,746 -178,244 -543,244 -447,0 -707,-297 -259,-296 -259,-809 V 0 h -578 v 2094 q 0,506 -178,748 -178,242 -550,242 -441,0 -701,-298 -259,-298 -259,-808 V 0 H 581 v 3500 h 578 v -544 q 197,322 472,475 275,153 653,153 382,0 649,-194 267,-193 395,-562 z"
       transform="scale(0.015625)" />
    <path
       id="DejaVuSans-50"
       d="M 1259,4147 V 2394 h 794 q 441,0 681,228 241,228 241,650 0,419 -241,647 -240,228 -681,228 z m -631,519 h 1425 q 785,0 1186,-355 402,-355 402,-1039 0,-691 -402,-1044 -401,-353 -1186,-353 H 1259 V 0 H 628 Z"
       transform="scale(0.015625)" />
    <path
       id="DejaVuSans-4e-4"
       d="m 628,4666 h 850 L 3547,763 v 3903 h 612 V 0 H 3309 L 1241,3903 V 0 H 628 Z"
       transform="scale(0.015625)" />
    <path
       id="DejaVuSans-48-6"
       d="m 628,4666 h 631 V 2753 h 2294 v 1913 h 631 V 0 H 3553 V 2222 H 1259 V 0 H 628 Z"
       transform="scale(0.015625)" />
    <path
       id="DejaVuSans-33-3"
       d="m 2597,2516 q 453,-97 707,-404 255,-306 255,-756 0,-690 -475,-1069 -475,-378 -1350,-378 -293,0 -604,58 -311,58 -642,174 v 609 q 262,-153 574,-231 313,-78 654,-78 593,0 904,234 311,234 311,681 0,413 -289,645 -289,233 -804,233 h -544 v 519 h 569 q 465,0 712,186 247,186 247,536 0,359 -255,551 -254,193 -729,193 -260,0 -557,-57 -297,-56 -653,-174 v 562 q 360,100 674,150 314,50 592,50 719,0 1137,-327 419,-326 419,-882 0,-388 -222,-655 -222,-267 -631,-370 z"
       transform="scale(0.015625)" />
    <path
       id="DejaVuSans-52-9"
       d="m 2841,2188 q 203,-69 395,-294 192,-225 386,-619 L 4263,0 h -679 l -596,1197 q -232,469 -449,622 -217,153 -592,153 H 1259 V 0 H 628 v 4666 h 1425 q 800,0 1194,-335 394,-334 394,-1009 0,-441 -205,-732 -205,-290 -595,-402 z M 1259,4147 V 2491 h 794 q 456,0 689,211 233,211 233,620 0,409 -233,617 -233,208 -689,208 z"
       transform="scale(0.015625)" />
    <path
       id="DejaVuSans-41"
       d="M 2188,4044 1331,1722 h 1716 z m -357,622 h 716 L 4325,0 H 3669 L 3244,1197 H 1141 L 716,0 H 50 Z"
       transform="scale(0.015625)" />
    <path
       id="DejaVuSans-2e-8"
       d="m 684,794 h 660 V 0 H 684 Z"
       transform="scale(0.015625)" />
    <path
       id="DejaVuSans-Oblique-3b5"
       d="m 1263,1888 q -338,75 -485,278 -109,143 -109,337 0,531 506,841 400,244 1013,244 237,0 496,-38 260,-37 550,-112 l -100,-522 q -287,90 -528,131 -247,41 -468,41 -372,0 -616,-144 -294,-172 -294,-422 0,-166 153,-281 182,-138 544,-138 h 484 l -90,-475 h -463 q -431,0 -684,-159 -344,-216 -344,-553 0,-213 185,-353 231,-175 703,-175 290,0 568,56 279,59 522,175 L 2700,84 Q 2403,-3 2131,-47 1859,-91 1609,-91 866,-91 516,194 250,413 250,781 q 0,497 350,803 259,229 663,304 z"
       transform="scale(0.015625)" />
    <path
       id="DejaVuSans-43-9"
       d="m 4122,4306 v -665 q -319,297 -680,443 -361,147 -767,147 -800,0 -1225,-489 -425,-489 -425,-1414 0,-922 425,-1411 425,-489 1225,-489 406,0 767,147 361,147 680,444 V 359 Q 3791,134 3420,21 3050,-91 2638,-91 1578,-91 968,557 359,1206 359,2328 q 0,1125 609,1773 610,649 1670,649 418,0 788,-111 371,-111 696,-333 z"
       transform="scale(0.015625)" />
    <path
       id="DejaVuSans-44"
       d="M 1259,4147 V 519 h 763 q 966,0 1414,437 448,438 448,1382 0,937 -448,1373 -448,436 -1414,436 z m -631,519 h 1297 q 1356,0 1990,-564 635,-564 635,-1764 Q 4550,1131 3912,565 3275,0 1925,0 H 628 Z"
       transform="scale(0.015625)" />
    <path
       id="DejaVuSans-75-3"
       d="m 544,1381 v 2119 h 575 V 1403 q 0,-497 193,-746 194,-248 582,-248 465,0 735,297 271,297 271,810 v 1984 h 575 V 0 H 2900 V 538 Q 2691,219 2414,64 2138,-91 1772,-91 1169,-91 856,284 544,659 544,1381 Z m 1447,2203 z"
       transform="scale(0.015625)" />
  </defs>
  <sodipodi:namedview
     inkscape:window-maximized="1"
     inkscape:window-y="-11"
     inkscape:window-x="10069"
     inkscape:window-height="2054"
     inkscape:window-width="3840"
     inkscape:snap-to-guides="false"
     inkscape:guide-bbox="true"
     showguides="true"
     inkscape:bbox-nodes="false"
     inkscape:snap-grids="true"
     inkscape:snap-bbox="true"
     inkscape:snap-nodes="true"
     inkscape:object-paths="true"
     inkscape:snap-center="true"
     showgrid="true"
     inkscape:document-rotation="0"
     inkscape:current-layer="layer1"
     inkscape:document-units="mm"
     inkscape:cy="198.87378"
     inkscape:cx="344.18423"
     inkscape:zoom="2.8284271"
     inkscape:pageshadow="2"
     inkscape:pageopacity="0.0"
     borderopacity="1.0"
     bordercolor="#666666"
     pagecolor="#ffffff"
     id="base"
     fit-margin-top="5"
     fit-margin-left="5"
     fit-margin-right="5"
     fit-margin-bottom="5"
     inkscape:pagecheckerboard="0"
     inkscape:snap-intersection-paths="true"
     inkscape:bbox-paths="false"
     inkscape:snap-object-midpoints="true"
     inkscape:showpageshadow="2"
     inkscape:deskcolor="#d1d1d1">
    <inkscape:grid
       spacingy="1"
       spacingx="0.99999999"
       units="cm"
       dotted="true"
       enabled="true"
       id="grid835"
       type="xygrid"
       originx="0"
       originy="0"
       visible="true" />
  </sodipodi:namedview>
  <metadata
     id="metadata5">
    <rdf:RDF>
      <cc:Work
         rdf:about="">
        <dc:format>image/svg+xml</dc:format>
        <dc:type
           rdf:resource="http://purl.org/dc/dcmitype/StillImage" />
      </cc:Work>
    </rdf:RDF>
  </metadata>
  <g
     id="layer1"
     inkscape:groupmode="layer"
     inkscape:label="Ebene 1"
     transform="translate(-61.99998,-32.639073)">
    <g
       id="g2"
       transform="matrix(0.56966609,0,0,0.56966609,114.60873,57.639073)">
      <path
         d="M 62.741,110.307 84.22,87.73 H 62.741 Z M 50.008,38.777 H 46.14 c -0.385,-4.701 -1.193,-7.685 -1.193,-12.378 0,-1.732 1.404,-3.136 3.136,-3.136 1.732,0 3.135,1.404 3.135,3.136 0,1.029 -1.21,12.378 -1.21,12.378 z m -3.861,2.126 h 3.872 v 3.424 h -3.872 z m 1.935,-26.59 c 1.296,0 2.567,0.129 3.799,0.372 1.261,0.25 2.481,0.623 3.646,1.105 1.19,0.493 2.32,1.098 3.376,1.804 1.063,0.71 2.053,1.524 2.953,2.426 0.901,0.9 1.716,1.891 2.427,2.955 0.704,1.053 1.31,2.183 1.802,3.372 0.482,1.167 0.857,2.388 1.106,3.647 0.244,1.231 0.373,2.502 0.373,3.799 0,1.297 -0.129,2.568 -0.373,3.8 -0.25,1.261 -0.624,2.483 -1.106,3.646 l -0.006,0.013 c -0.49,1.184 -1.095,2.31 -1.795,3.357 -0.712,1.067 -1.526,2.058 -2.427,2.958 -0.899,0.9 -1.89,1.713 -2.954,2.424 -1.056,0.704 -2.186,1.311 -3.375,1.804 L 55.515,51.8 c -1.161,0.48 -2.379,0.853 -3.634,1.102 -1.232,0.244 -2.504,0.373 -3.8,0.373 -1.297,0 -2.567,-0.129 -3.799,-0.373 -1.26,-0.25 -2.479,-0.624 -3.646,-1.106 -1.19,-0.493 -2.32,-1.1 -3.376,-1.804 -1.064,-0.711 -2.055,-1.524 -2.954,-2.424 -0.9,-0.9 -1.715,-1.892 -2.426,-2.958 -0.704,-1.052 -1.309,-2.182 -1.8,-3.37 -0.484,-1.164 -0.857,-2.385 -1.107,-3.646 -0.244,-1.232 -0.373,-2.503 -0.373,-3.8 0,-1.297 0.129,-2.567 0.373,-3.799 0.249,-1.26 0.624,-2.481 1.106,-3.647 0.492,-1.189 1.098,-2.319 1.802,-3.372 0.711,-1.064 1.525,-2.055 2.426,-2.955 0.901,-0.902 1.892,-1.716 2.954,-2.426 1.056,-0.706 2.186,-1.312 3.375,-1.804 l 0.012,-0.005 c 1.162,-0.479 2.38,-0.852 3.635,-1.1 1.232,-0.244 2.502,-0.373 3.799,-0.373 z M 37.309,23.021 C 23.358,36.982 44.456,58.957 58.857,44.567 73.214,30.198 51.322,9.028 37.309,23.021 Z M 18.934,90.029 h 19.225 v 5.527 H 18.934 Z m 0,-14.045 h 27.288 v 5.527 H 18.934 Z m 0,-14.041 H 77.231 V 67.47 H 18.934 Z m 77.231,22.903 c 0,1.631 -1.097,3.041 -2.603,3.449 l -31.637,33.268 c -0.658,0.816 -1.661,1.316 -2.759,1.316 H 6.428 c -1.787,0 -3.386,-0.721 -4.546,-1.881 C 0.721,119.838 0,118.24 0,116.451 V 6.428 C 0,4.641 0.721,3.042 1.881,1.882 3.042,0.721 4.672,0 6.428,0 h 83.31 c 1.756,0 3.387,0.721 4.547,1.881 1.16,1.16 1.881,2.76 1.881,4.546 v 78.419 z m -7.18,-4.295 V 7.18 H 7.181 V 115.73 H 55.562 V 84.156 c 0,-1.975 1.599,-3.605 3.605,-3.605 z"
         id="path1" />
    </g>
  </g>
</svg>
